<svg width="174" height="56" viewBox="0 0 174 56" fill="none" xmlns="http://www.w3.org/2000/svg">
<path d="M169.173 0H4.82663C2.16096 0 0 2.16945 0 4.84561V51.1544C0 53.8305 2.16096 56 4.82663 56H169.173C171.839 56 174 53.8305 174 51.1544V4.84561C174 2.16945 171.839 0 169.173 0Z" fill="#192735"/>
<path fill-rule="evenodd" clip-rule="evenodd" d="M66.6465 42.4919H69.5913L63.145 24.5676H60.1631L53.7168 42.4919H56.5626L58.2082 37.7345H65.0133L66.6465 42.4919ZM61.5118 27.822H61.7221L64.308 35.3992H58.9134L61.5118 27.822ZM77.3994 28.7412C75.5682 28.7412 73.9844 29.6604 73.1678 31.2007H72.9699V28.9648H70.4087V46.8768H73.0688V40.4424H73.2792C73.9844 41.8709 75.5063 42.7155 77.4241 42.7155C80.8267 42.7155 82.992 40.02 82.992 35.7222C82.992 31.4243 80.8267 28.7412 77.3994 28.7412ZM76.6446 40.3182C74.4175 40.3182 73.0194 38.5543 73.0194 35.7346C73.0194 32.9025 74.4175 31.1386 76.657 31.1386C78.9089 31.1386 80.2575 32.8652 80.2575 35.7222C80.2575 38.5916 78.9089 40.3182 76.6446 40.3182ZM91.196 28.7412C89.3648 28.7412 87.781 29.6604 86.9644 31.2007H86.7665V28.9648H84.2053V46.8768H86.8654V40.4424H87.0758C87.781 41.8709 89.3029 42.7155 91.2207 42.7155C94.6233 42.7155 96.7886 40.02 96.7886 35.7222C96.7886 31.4243 94.6233 28.7412 91.196 28.7412ZM90.4412 40.3182C88.2141 40.3182 86.816 38.5543 86.816 35.7346C86.816 32.9025 88.2141 31.1386 90.4536 31.1386C92.7055 31.1386 94.0541 32.8652 94.0541 35.7222C94.0541 38.5916 92.7055 40.3182 90.4412 40.3182ZM102.42 37.6724C102.618 40.8771 105.278 42.9267 109.237 42.9267C113.469 42.9267 116.117 40.7778 116.117 37.3494C116.117 34.6539 114.607 33.1633 110.945 32.3062L108.977 31.8218C106.651 31.2752 105.711 30.5424 105.711 29.2629C105.711 27.6481 107.171 26.5923 109.361 26.5923C111.44 26.5923 112.875 27.6233 113.135 29.2754H115.832C115.671 26.2569 113.023 24.1328 109.398 24.1328C105.501 24.1328 102.902 26.2569 102.902 29.4493C102.902 32.0826 104.375 33.6478 107.604 34.4055L109.905 34.9644C112.269 35.5234 113.308 36.3432 113.308 37.7096C113.308 39.2996 111.675 40.4548 109.448 40.4548C107.06 40.4548 105.402 39.3741 105.167 37.6724H102.42ZM118.406 25.6855V29.0269H116.192V31.2752H118.406V38.9145C118.406 41.523 119.582 42.5665 122.539 42.5665C123.059 42.5665 123.541 42.5044 123.962 42.4298V40.2064C123.591 40.2436 123.38 40.2685 122.972 40.2685C121.648 40.2685 121.067 39.6474 121.067 38.2313V31.2752H124.086V29.0269H121.067V25.6855H118.406ZM130.681 40.3803C128.367 40.3803 127.068 38.6785 127.068 35.7222C127.068 32.7907 128.367 31.0765 130.681 31.0765C132.982 31.0765 134.294 32.7907 134.294 35.7222C134.294 38.6661 132.982 40.3803 130.681 40.3803ZM130.681 42.7528C134.616 42.7528 137.028 40.107 137.028 35.7222C137.028 31.3622 134.603 28.704 130.681 28.704C126.746 28.704 124.321 31.3622 124.321 35.7222C124.321 40.107 126.734 42.7528 130.681 42.7528ZM138.242 42.4919H140.902V34.5048C140.902 32.6043 142.325 31.3249 144.329 31.3249C144.775 31.3249 145.591 31.4119 145.802 31.4864V28.853C145.517 28.7785 145.01 28.7412 144.626 28.7412C142.869 28.7412 141.384 29.7101 141.001 31.0392H140.803V28.9648H138.242V42.4919ZM151.791 30.9771C153.758 30.9771 155.045 32.3559 155.107 34.48H148.302C148.45 32.3683 149.824 30.9771 151.791 30.9771ZM155.094 38.84C154.6 39.8958 153.498 40.4796 151.89 40.4796C149.762 40.4796 148.388 38.9766 148.302 36.6041V36.455H157.816V35.5234C157.816 31.2752 155.552 28.704 151.803 28.704C148.005 28.704 145.592 31.4491 145.592 35.7718C145.592 40.0946 147.955 42.7528 151.816 42.7528C154.896 42.7528 157.049 41.2622 157.656 38.84H155.094Z" fill="white"/>
<path fill-rule="evenodd" clip-rule="evenodd" d="M56.209 10.5762V19.1116H59.2787C61.8122 19.1116 63.2792 17.5441 63.2792 14.8173C63.2792 12.1319 61.8004 10.5762 59.2787 10.5762H56.209ZM57.5288 11.7829H59.1314C60.893 11.7829 61.9359 12.9067 61.9359 14.8351C61.9359 16.7929 60.9107 17.905 59.1314 17.905H57.5288V11.7829ZM67.9232 18.1061C66.8214 18.1061 66.2028 17.2957 66.2028 15.8879C66.2028 14.492 66.8214 13.6757 67.9232 13.6757C69.0191 13.6757 69.6437 14.492 69.6437 15.8879C69.6437 17.2898 69.0191 18.1061 67.9232 18.1061ZM67.9232 19.2358C69.7968 19.2358 70.9458 17.9759 70.9458 15.8879C70.9458 13.8117 69.791 12.5459 67.9232 12.5459C66.0496 12.5459 64.8948 13.8117 64.8948 15.8879C64.8948 17.9759 66.0437 19.2358 67.9232 19.2358ZM80.8748 12.6701H79.608L78.465 17.5855H78.3648L77.045 12.6701H75.8313L74.5115 17.5855H74.4173L73.2683 12.6701H71.9839L73.7515 19.1116H75.0536L76.3734 14.3678H76.4735L77.7992 19.1116H79.1131L80.8748 12.6701ZM82.4844 19.1116H83.7512V15.3437C83.7512 14.3382 84.3757 13.7112 85.395 13.7112C86.3377 13.7112 86.7973 14.2258 86.7973 15.2609V19.1116H88.064V14.9415C88.064 13.4095 87.2568 12.5459 85.8251 12.5459C84.8589 12.5459 84.1106 12.9777 83.7983 13.6934H83.704V12.6701H82.4844V19.1116ZM90.204 19.1116H91.4707V10.1562H90.204V19.1116ZM96.3798 18.1061C95.2781 18.1061 94.6594 17.2957 94.6594 15.8879C94.6594 14.492 95.2781 13.6757 96.3798 13.6757C97.4757 13.6757 98.1003 14.492 98.1003 15.8879C98.1003 17.2898 97.4757 18.1061 96.3798 18.1061ZM96.3798 19.2358C98.2535 19.2358 99.4024 17.9759 99.4024 15.8879C99.4024 13.8117 98.2476 12.5459 96.3798 12.5459C94.5062 12.5459 93.3514 13.8117 93.3514 15.8879C93.3514 17.9759 94.5003 19.2358 96.3798 19.2358ZM103.322 18.1475C102.632 18.1475 102.131 17.8103 102.131 17.2306C102.131 16.6628 102.532 16.3611 103.416 16.302L104.983 16.2014V16.7397C104.983 17.5382 104.276 18.1475 103.322 18.1475ZM102.998 19.2181C103.84 19.2181 104.541 18.8514 104.924 18.2066H105.024V19.1116H106.244V14.7108C106.244 13.3504 105.337 12.5459 103.728 12.5459C102.273 12.5459 101.236 13.2557 101.106 14.3618H102.332C102.473 13.9064 102.962 13.6461 103.669 13.6461C104.535 13.6461 104.983 14.0306 104.983 14.7108V15.2668L103.245 15.3674C101.719 15.462 100.859 16.1304 100.859 17.2898C100.859 18.4669 101.76 19.2181 102.998 19.2181ZM110.694 19.2181C111.577 19.2181 112.326 18.7981 112.709 18.0942H112.809V19.1116H114.022V10.1562H112.756V13.6934H112.661C112.314 12.9836 111.571 12.5637 110.694 12.5637C109.073 12.5637 108.03 13.8532 108.03 15.8879C108.03 17.9286 109.062 19.2181 110.694 19.2181ZM111.053 13.7053C112.114 13.7053 112.779 14.5511 112.779 15.8938C112.779 17.2425 112.119 18.0765 111.053 18.0765C109.981 18.0765 109.338 17.2543 109.338 15.8879C109.338 14.5334 109.987 13.7053 111.053 13.7053ZM122.533 18.1061C121.431 18.1061 120.812 17.2957 120.812 15.8879C120.812 14.492 121.431 13.6757 122.533 13.6757C123.629 13.6757 124.253 14.492 124.253 15.8879C124.253 17.2898 123.629 18.1061 122.533 18.1061ZM122.533 19.2358C124.406 19.2358 125.555 17.9759 125.555 15.8879C125.555 13.8117 124.4 12.5459 122.533 12.5459C120.659 12.5459 119.504 13.8117 119.504 15.8879C119.504 17.9759 120.653 19.2358 122.533 19.2358ZM127.377 19.1116H128.644V15.3437C128.644 14.3382 129.268 13.7112 130.288 13.7112C131.23 13.7112 131.69 14.2258 131.69 15.2609V19.1116H132.957V14.9415C132.957 13.4095 132.149 12.5459 130.718 12.5459C129.751 12.5459 129.003 12.9777 128.691 13.6934H128.597V12.6701H127.377V19.1116ZM139.087 11.1086V12.6997H138.032V13.7703H139.087V17.4081C139.087 18.6503 139.646 19.1471 141.054 19.1471C141.302 19.1471 141.532 19.1175 141.732 19.0821V18.0233C141.555 18.041 141.455 18.0528 141.261 18.0528C140.63 18.0528 140.353 17.7571 140.353 17.0828V13.7703H141.791V12.6997H140.353V11.1086H139.087ZM143.595 19.1116H144.862V15.3497C144.862 14.3737 145.504 13.7171 146.541 13.7171C147.495 13.7171 147.973 14.2376 147.973 15.2668V19.1116H149.239V14.9534C149.239 13.4214 148.415 12.5518 146.971 12.5518C146.005 12.5518 145.262 12.9836 144.95 13.7053H144.85V10.1562H143.595V19.1116ZM153.96 13.6284C154.897 13.6284 155.51 14.285 155.539 15.2964H152.299C152.369 14.2909 153.023 13.6284 153.96 13.6284ZM155.533 17.3726C155.297 17.8754 154.773 18.1534 154.007 18.1534C152.994 18.1534 152.34 17.4377 152.299 16.3079V16.2369H156.829V15.7933C156.829 13.7703 155.751 12.5459 153.966 12.5459C152.157 12.5459 151.008 13.8532 151.008 15.9116C151.008 17.97 152.134 19.2358 153.972 19.2358C155.439 19.2358 156.464 18.526 156.753 17.3726H155.533Z" fill="white"/>
<path fill-rule="evenodd" clip-rule="evenodd" d="M38.4126 28.7485C38.3737 24.4159 41.9462 22.3081 42.1096 22.2099C40.0863 19.2485 36.9504 18.8438 35.8483 18.8116C33.2145 18.5333 30.6596 20.3938 29.318 20.3938C27.9495 20.3938 25.8834 18.8385 23.6566 18.8842C20.7911 18.9285 18.1104 20.5941 16.6401 23.1805C13.6059 28.4541 15.8689 36.2039 18.7759 40.4666C20.23 42.5556 21.9293 44.8853 24.1534 44.8033C26.3293 44.7145 27.142 43.4106 29.7679 43.4106C32.3696 43.4106 33.1328 44.8033 35.4011 44.7495C37.7364 44.7145 39.2066 42.6538 40.6099 40.5459C42.2904 38.1558 42.9652 35.7966 42.992 35.6756C42.9384 35.6581 38.4581 33.9415 38.4126 28.7485Z" fill="white"/>
<path fill-rule="evenodd" clip-rule="evenodd" d="M34.1269 16.0075C35.2973 14.5382 36.098 12.5393 35.8757 10.5107C34.1818 10.586 32.0635 11.687 30.8437 13.124C29.7644 14.3903 28.8003 16.4659 29.0494 18.4178C30.9521 18.5603 32.9058 17.454 34.1269 16.0075Z" fill="white"/>
</svg>
