<svg width="232" height="282" viewBox="0 0 232 282" fill="none" xmlns="http://www.w3.org/2000/svg">
<rect x="56" y="230" width="119" height="44" fill="#714931"/>
<rect x="49" y="274" width="134" height="8" fill="#623F2D"/>
<path d="M134 219H98L103.571 149H127.571L134 219Z" fill="#F8B64C"/>
<path d="M129 163C124.5 165 121.5 167.5 116.001 170.784C112 168.5 106.367 164.934 102.5 163L103.5 150H127.5L129 163Z" fill="#E3A034"/>
<path d="M29.7668 23.8331C19.9545 23.8331 12 31.7876 12 41.5999C12 84.9334 38.8668 122.2 76.5669 137.8C88.7001 143 102.134 145.6 116 145.6C129.867 145.6 143.301 143 155.434 137.8C193.134 122.2 220.001 84.9334 220.001 41.6003C220.001 31.7878 212.046 23.8331 202.234 23.8331H29.7668ZM197.63 41.1665C200.391 41.1665 202.644 43.4078 202.488 46.1648C201.415 65.0791 194.288 82.6882 182.734 96.6333C166.7 115.7 142.867 128.267 116 128.267C89.1339 128.267 65.3003 116.134 49.267 96.6333C38.1092 83.0843 30.616 65.138 29.4833 46.1642C29.3187 43.4077 31.5724 41.1665 34.3338 41.1665H197.63Z" fill="#F8B64C"/>
<path d="M184 11.0001V57.7464C184 101.03 156.974 140.418 116 156C75.0258 139.985 48 101.03 48 57.3135V11.0001H184Z" fill="#FFD15C"/>
<path d="M116 30.0001L125.068 57.8094H154L130.682 75.1904L139.318 103L116 85.6192L92.6819 103L101.318 75.1904L78 57.8094H106.932L116 30.0001Z" fill="white"/>
<path fill-rule="evenodd" clip-rule="evenodd" d="M139.934 129.457C140.256 123.337 138.953 121.978 132.825 122.049C138.953 121.978 140.401 120.587 140.725 114.467C140.401 120.587 141.705 121.946 147.834 121.875C141.705 121.946 140.256 123.337 139.934 129.457Z" fill="#FCE9A5"/>
<path fill-rule="evenodd" clip-rule="evenodd" d="M132.497 131.045C132.63 128.522 132.093 127.962 129.566 127.992C132.093 127.962 132.69 127.388 132.824 124.865C132.69 127.388 133.228 127.949 135.754 127.919C133.228 127.949 132.63 128.522 132.497 131.045Z" fill="#FCE9A5"/>
<path d="M183 10.0001H48V16.0001H183V10.0001Z" fill="#FFC952"/>
<path d="M183.401 1H48.2001C45.1669 1 43 3.59984 43 6.2001C43 9.23332 45.1665 11.8336 48.2001 11.8336H183.401C186.434 11.8336 188.601 9.23374 188.601 6.63348C188.6 3.59984 186.434 1 183.401 1Z" fill="#F8B64C"/>
<path d="M81 225C81 221.134 84.134 218 88 218H144C147.866 218 151 221.134 151 225V230H81V225Z" fill="#FFD15C"/>
<path fill-rule="evenodd" clip-rule="evenodd" d="M74.3835 24.2339C68.2119 27.9949 67.6672 30.2275 71.4101 36.4083C67.6672 30.2275 65.4399 29.6848 59.2688 33.4442C65.4399 29.6848 65.9856 27.4516 62.2422 21.2698C65.9856 27.4516 68.2119 27.9949 74.3835 24.2339Z" fill="#FCE9A5"/>
<path fill-rule="evenodd" clip-rule="evenodd" d="M81.0918 30.6118C81.2487 33.6088 81.9561 34.2484 84.9534 34.1005C81.9561 34.2484 81.319 34.9552 81.4744 37.9517C81.319 34.9552 80.61 34.3151 77.6128 34.4628C80.61 34.3151 81.2487 33.6088 81.0918 30.6118Z" fill="#FCE9A5"/>
<rect x="45" y="24" width="3" height="17" fill="#EEAA3E"/>
<rect x="184" y="24" width="3" height="17" fill="#EEAA3E"/>
<rect x="83" y="243" width="63" height="20" fill="#FCE9A5"/>
</svg>
