<svg width="174" height="56" viewBox="0 0 174 56" fill="none" xmlns="http://www.w3.org/2000/svg">
<path d="M168.11 0H5.89032C2.63719 0 0 2.66003 0 5.94134V50.0587C0 53.34 2.63719 56 5.89032 56H168.11C171.363 56 174 53.34 174 50.0587V5.94134C174 2.66003 171.363 0 168.11 0Z" fill="#192735"/>
<path fill-rule="evenodd" clip-rule="evenodd" d="M92.7732 19.7547C90.4175 19.7547 88.5078 17.8395 88.5078 15.477C88.5078 13.1144 90.4175 11.1992 92.7732 11.1992C95.1289 11.1992 97.0386 13.1144 97.0386 15.477C97.0386 17.8395 95.1289 19.7547 92.7732 19.7547ZM92.7732 18.4477C94.4091 18.4477 95.7353 17.1176 95.7353 15.477C95.7353 13.8363 94.4091 12.5063 92.7732 12.5063C91.1373 12.5063 89.8111 13.8363 89.8111 15.477C89.8111 17.1176 91.1373 18.4477 92.7732 18.4477Z" fill="white"/>
<path fill-rule="evenodd" clip-rule="evenodd" d="M63.8639 15.9513V18.5655H67.2999V19.5161H63.8639H62.5605V11.6735V11.5547H67.2999V12.5053H63.8639V15.0007H66.9444V15.9513H63.8639Z" fill="white"/>
<path fill-rule="evenodd" clip-rule="evenodd" d="M71.9211 12.5053V19.5161H70.6177V12.5053H68.6035V11.5547H73.9353V12.5053H71.9211Z" fill="white"/>
<path fill-rule="evenodd" clip-rule="evenodd" d="M83.5343 12.5053V19.5161H82.231V12.5053H80.2168V11.5547H85.5486V12.5053H83.5343Z" fill="white"/>
<path d="M79.0299 11.5547H77.7266V19.5161H79.0299V11.5547Z" fill="white"/>
<path fill-rule="evenodd" clip-rule="evenodd" d="M99.4107 11.5547H99.6477L103.202 17.3801V11.5547H104.506V19.5161H103.202L99.4107 13.3023V19.5161H98.1074V11.5547H99.4107Z" fill="white"/>
<path fill-rule="evenodd" clip-rule="evenodd" d="M57.6758 15.1406H61.2442L61.2089 16.2733H57.6758V15.1406Z" fill="white"/>
<path fill-rule="evenodd" clip-rule="evenodd" d="M60.5434 12.4755L59.7269 13.2936C59.2176 12.7719 58.4942 12.4859 57.6596 12.4859C55.9912 12.4859 54.6388 13.8408 54.6388 15.5122C54.6388 17.1836 55.9912 18.5385 57.6596 18.5385C59.3279 18.5385 60.5124 17.5722 60.5099 15.5122C60.5127 15.3849 60.5098 15.261 60.5013 15.1405H61.5437C61.5438 15.1545 61.5438 15.1686 61.5438 15.1826C61.9359 18.0669 59.9751 19.7277 57.6242 19.7065C55.312 19.7032 53.4375 17.8286 53.4375 15.5122C53.4375 13.1957 55.312 11.3179 57.6242 11.3179C58.8329 11.3179 59.8489 11.7409 60.5434 12.4755Z" fill="white"/>
<path fill-rule="evenodd" clip-rule="evenodd" d="M127.369 25.8145L134.086 25.8145C134.086 25.8145 137.953 26.4743 137.953 30.9275C137.953 35.3808 134.086 36.0406 134.086 36.0406H127.369V25.8145ZM128.672 28.2881V33.7758H133.232C133.232 33.7758 135.308 33.7758 135.308 31.032C135.308 28.2881 133.232 28.2881 133.232 28.2881H128.672Z" fill="white"/>
<path d="M129.147 25.8145H126.777V42.4502H129.147V25.8145Z" fill="white"/>
<path d="M141.706 25.8145H139.336V42.4502H141.706V25.8145Z" fill="white"/>
<path fill-rule="evenodd" clip-rule="evenodd" d="M150.489 41.2609C149.837 41.8009 148.793 42.3092 147.145 42.4125C143.369 42.649 143.368 39.1936 143.368 38.9606C143.368 38.7276 143.181 35.9097 146.185 35.4617C148.311 35.1446 149.801 35.673 150.489 36.0086V35.5198C150.321 34.8725 149.797 33.683 148.226 33.683C146.069 33.683 145.592 34.8529 145.592 34.8529L143.618 33.683C143.618 33.683 144.723 31.3994 148.037 31.3994C152.158 31.3994 152.859 34.25 152.859 35.2101C152.859 35.2147 152.859 35.2194 152.859 35.224V42.445H150.489V41.2609ZM150.32 37.6976C150.32 37.6976 145.755 36.4635 145.596 39.0356C145.438 41.6077 149.976 40.3726 150.381 38.5493C150.381 37.9695 150.32 37.6976 150.32 37.6976Z" fill="white"/>
<path fill-rule="evenodd" clip-rule="evenodd" d="M157.305 41.8191L153.08 31.7559H155.45L158.49 38.9968L161.505 31.8134H163.875L157.464 47.0845H155.094L157.305 41.8191Z" fill="white"/>
<path fill-rule="evenodd" clip-rule="evenodd" d="M121.471 35.6446L113.977 38.7509C113.977 38.7509 114.461 40.469 116.714 40.4805C118.479 40.4895 119.475 38.9121 119.475 38.9121L121.376 40.2035C121.376 40.2035 119.842 42.6923 116.699 42.6923C112.838 42.6923 111.137 39.3058 111.137 37.1064C111.137 34.9875 112.487 31.3994 116.46 31.3994C120.432 31.3994 121.471 35.6446 121.471 35.6446ZM118.62 34.7646C118.62 34.7646 117.677 33.3258 116.231 33.5912C113.172 34.1525 113.557 36.8371 113.557 36.8371L118.62 34.7646Z" fill="white"/>
<path d="M110.089 25.8145H107.582V42.4153H110.089V25.8145Z" fill="white"/>
<path fill-rule="evenodd" clip-rule="evenodd" d="M103.571 31.7602L105.889 31.7803V42.2549C105.889 44.9311 104.3 47.7561 100.56 47.7561C96.8196 47.7561 95.6116 44.4326 95.6116 44.4326L97.74 43.5349C97.74 43.5349 98.3891 45.5832 100.67 45.5832C103.268 45.5832 103.572 43.2127 103.572 42.4013V41.2646C103.572 41.2646 102.673 42.6756 100.44 42.6756C98.0193 42.6756 95.1426 40.5955 95.1426 37.0494C95.1426 33.5033 97.8514 31.4749 100.468 31.4012C102.564 31.3421 103.571 32.7962 103.571 32.7962V31.7602ZM100.638 40.547C102.328 40.547 103.698 38.9945 103.698 37.0793C103.698 35.1641 102.328 33.6116 100.638 33.6116C98.948 33.6116 97.578 35.1641 97.578 37.0793C97.578 38.9945 98.948 40.547 100.638 40.547Z" fill="white"/>
<path fill-rule="evenodd" clip-rule="evenodd" d="M88.459 42.688C85.3438 42.688 82.8184 40.1609 82.8184 37.0437C82.8184 33.9264 85.3438 31.3994 88.459 31.3994C91.5743 31.3994 94.0997 33.9264 94.0997 37.0437C94.0997 40.1609 91.5743 42.688 88.459 42.688ZM88.4222 40.4745C90.1732 40.4745 91.5927 38.9385 91.5927 37.0437C91.5927 35.1489 90.1732 33.6129 88.4222 33.6129C86.6711 33.6129 85.2516 35.1489 85.2516 37.0437C85.2516 38.9385 86.6711 40.4745 88.4222 40.4745Z" fill="white"/>
<path fill-rule="evenodd" clip-rule="evenodd" d="M76.2559 42.688C73.1407 42.688 70.6152 40.1609 70.6152 37.0437C70.6152 33.9264 73.1407 31.3994 76.2559 31.3994C79.3712 31.3994 81.8966 33.9264 81.8966 37.0437C81.8966 40.1609 79.3712 42.688 76.2559 42.688ZM76.219 40.4745C77.9701 40.4745 79.3896 38.9385 79.3896 37.0437C79.3896 35.1489 77.9701 33.6129 76.219 33.6129C74.468 33.6129 73.0485 35.1489 73.0485 37.0437C73.0485 38.9385 74.468 40.4745 76.219 40.4745Z" fill="white"/>
<path fill-rule="evenodd" clip-rule="evenodd" d="M61.6914 33.189H69.1386L69.0648 35.55H61.6914V33.189Z" fill="white"/>
<path fill-rule="evenodd" clip-rule="evenodd" d="M67.6755 27.6339L65.9714 29.3391C64.9085 28.2516 63.3988 27.6555 61.657 27.6555C58.1752 27.6555 55.3527 30.4798 55.3527 33.9638C55.3527 37.4478 58.1752 40.2721 61.657 40.2721C65.1387 40.2721 67.6107 38.258 67.6055 33.9638C67.6114 33.6984 67.6052 33.4401 67.5875 33.1891H69.7629C69.7631 33.2183 69.7633 33.2475 69.7633 33.2768C70.5815 39.2892 66.4894 42.7511 61.5832 42.7069C56.7576 42.7 52.8457 38.7925 52.8457 33.9638C52.8457 29.1351 56.7576 25.2207 61.5832 25.2207C64.1056 25.2207 66.226 26.1025 67.6755 27.6339Z" fill="white"/>
<mask id="mask0" mask-type="alpha" maskUnits="userSpaceOnUse" x="12" y="11" width="31" height="35">
<path d="M41.0288 26.5904C42.8209 27.6127 42.8213 29.2698 41.0288 30.2923L15.5876 44.8049C13.7955 45.8272 12.3427 44.9809 12.3427 42.9137L12.3427 13.9695C12.3427 11.9028 13.7951 11.0558 15.5876 12.0783L41.0288 26.5904Z" fill="url(#paint0_linear)"/>
</mask>
<g mask="url(#mask0)">
<path d="M41.0288 26.5904C42.8209 27.6127 42.8213 29.2698 41.0288 30.2923L15.5876 44.8049C13.7955 45.8272 12.3427 44.9809 12.3427 42.9137L12.3427 13.9695C12.3427 11.9028 13.7951 11.0558 15.5876 12.0783L41.0288 26.5904Z" fill="url(#paint1_linear)"/>
<path fill-rule="evenodd" clip-rule="evenodd" d="M12.3214 11.6626L28.8838 28.1718L12.1074 45.3336L12.3214 11.6626Z" fill="url(#paint2_linear)"/>
<path fill-rule="evenodd" clip-rule="evenodd" d="M8.91602 8.26367L28.8823 28.1764L34.8185 22.4969L8.91602 8.26367Z" fill="url(#paint3_linear)"/>
<path fill-rule="evenodd" clip-rule="evenodd" d="M28.8833 28.1729L37.9711 37.3594L10.8223 46.546L28.8833 28.1729Z" fill="url(#paint4_linear)"/>
</g>
<defs>
<linearGradient id="paint0_linear" x1="42.373" y1="28.4416" x2="30.6875" y2="28.4416" gradientUnits="userSpaceOnUse">
<stop stop-color="#FBDA09"/>
<stop offset="1" stop-color="#FFBC00"/>
</linearGradient>
<linearGradient id="paint1_linear" x1="42.373" y1="28.4416" x2="30.6875" y2="28.4416" gradientUnits="userSpaceOnUse">
<stop stop-color="#FBDA09"/>
<stop offset="1" stop-color="#FFBC00"/>
</linearGradient>
<linearGradient id="paint2_linear" x1="18.4012" y1="31.3519" x2="23.3937" y2="28.5643" gradientUnits="userSpaceOnUse">
<stop stop-color="#01E2FF"/>
<stop offset="1" stop-color="#01C4FF"/>
</linearGradient>
<linearGradient id="paint3_linear" x1="14.1693" y1="14.7219" x2="28.1462" y2="25.4014" gradientUnits="userSpaceOnUse">
<stop stop-color="#28D781"/>
<stop offset="1" stop-color="#02F076"/>
</linearGradient>
<linearGradient id="paint4_linear" x1="31.0449" y1="34.6345" x2="17.0972" y2="45.3856" gradientUnits="userSpaceOnUse">
<stop stop-color="#F2414E"/>
<stop offset="1" stop-color="#E02554"/>
</linearGradient>
</defs>
</svg>
