<svg width="48" height="48" viewBox="0 0 48 48" fill="none" xmlns="http://www.w3.org/2000/svg">
<circle cx="24" cy="24" r="24" fill="#1EBD9B"/>
<path d="M26.6965 19.152L23.9125 28.944C23.7845 29.376 23.6085 29.688 23.3845 29.88C23.1605 30.072 22.8245 30.168 22.3765 30.168C22.0245 30.168 21.7045 30.08 21.4165 29.904C21.1445 29.728 20.9765 29.488 20.9125 29.184L19.1125 21.576C18.3125 25.176 17.7125 27.712 17.3125 29.184C17.1365 29.84 16.6485 30.168 15.8485 30.168C15.0325 30.168 14.5125 29.752 14.2885 28.92L11.5045 19.152C11.4885 19.088 11.4805 19.008 11.4805 18.912C11.4805 18.608 11.6005 18.344 11.8405 18.12C12.0965 17.88 12.4085 17.76 12.7765 17.76C13.0485 17.76 13.2965 17.84 13.5205 18C13.7605 18.144 13.9125 18.352 13.9765 18.624L15.1525 23.136C15.1685 23.184 15.4085 24.424 15.8725 26.856C15.9365 26.552 16.0645 25.896 16.2565 24.888C16.4485 23.88 16.6165 23.104 16.7605 22.56L17.6965 18.792C17.7765 18.488 17.9445 18.24 18.2005 18.048C18.4565 17.856 18.7685 17.76 19.1365 17.76C19.8885 17.76 20.3445 18.104 20.5045 18.792L21.4405 22.56C21.5525 23.04 21.7045 23.76 21.8965 24.72C22.0885 25.68 22.2405 26.392 22.3525 26.856C22.8165 24.424 23.0565 23.184 23.0725 23.136L24.2245 18.624C24.2885 18.384 24.4405 18.184 24.6805 18.024C24.9205 17.848 25.1765 17.76 25.4485 17.76C25.7845 17.76 26.0805 17.88 26.3365 18.12C26.5925 18.344 26.7205 18.624 26.7205 18.96L26.6965 19.056C26.6965 19.104 26.6965 19.136 26.6965 19.152Z" fill="white"/>
<path d="M28.8518 25.08V15.408C28.8518 15.056 28.9638 14.768 29.1878 14.544C29.4278 14.32 29.7478 14.208 30.1478 14.208C30.5478 14.208 30.8598 14.328 31.0838 14.568C31.3238 14.792 31.4438 15.072 31.4438 15.408V18.384H33.5798C33.9158 18.384 34.2038 18.496 34.4438 18.72C34.6838 18.944 34.8038 19.224 34.8038 19.56C34.8038 19.88 34.6838 20.152 34.4438 20.376C34.2038 20.6 33.9158 20.712 33.5798 20.712H31.4438V24.912C31.4438 26.032 31.5398 26.792 31.7318 27.192C31.9398 27.592 32.3878 27.792 33.0758 27.792C33.1398 27.792 33.2198 27.792 33.3158 27.792C33.4118 27.776 33.4758 27.768 33.5078 27.768C34.5798 27.768 35.1158 28.128 35.1158 28.848C35.1158 29.344 34.9478 29.68 34.6118 29.856C34.2918 30.016 33.8438 30.096 33.2678 30.096C31.5878 30.096 30.4278 29.696 29.7878 28.896C29.1638 28.096 28.8518 26.824 28.8518 25.08Z" fill="white"/>
</svg>
