<svg width="129" height="77" viewBox="0 0 129 77" fill="none" xmlns="http://www.w3.org/2000/svg">
<path fill-rule="evenodd" clip-rule="evenodd" d="M29.4614 4.34651L29.8254 4.71051C30.9508 5.83568 32.477 6.4677 34.0684 6.46751H47.7744C48.9451 6.47218 50.0918 6.13582 51.0744 5.49951C52.057 4.85463 53.2051 4.50738 54.3804 4.49951C57.3924 4.47951 63.1254 4.46651 63.1254 4.46651C64.0571 4.46654 64.9506 4.83668 65.6094 5.49551L66.1774 6.06351C66.4444 6.33048 66.7527 6.55266 67.0904 6.72151L68.4904 7.42151C69.5473 7.92133 70.3035 8.89399 70.5274 10.0415C70.8438 11.8931 69.6485 13.6663 67.8134 14.0675L66.3644 14.3835C66.1184 14.4373 65.8673 14.4644 65.6154 14.4645H56.2994C54.55 14.4763 52.8449 13.9142 51.4454 12.8645C50.2443 11.9503 48.8134 11.3868 47.3114 11.2365L30.5234 9.56251C29.9278 9.50285 29.3903 9.17959 29.0584 8.68151L25.5824 3.46851L27.3394 3.46851C28.1352 3.46815 28.8985 3.78398 29.4614 4.34651Z" fill="#111921"/>
<path opacity="0.1" d="M37.582 10.4685C35.3729 10.4685 33.582 8.67764 33.582 6.46851C33.582 4.25937 35.3729 2.46851 37.582 2.46851C39.7912 2.46851 41.582 4.25937 41.582 6.46851C41.582 8.67764 39.7912 10.4685 37.582 10.4685Z" fill="#FF0000"/>
<path opacity="0.8" d="M37.582 7.46851C37.0297 7.46851 36.582 7.02079 36.582 6.46851C36.582 5.91622 37.0297 5.46851 37.582 5.46851C38.1343 5.46851 38.582 5.91622 38.582 6.46851C38.582 7.02079 38.1343 7.46851 37.582 7.46851Z" fill="#FF0000"/>
<path d="M59.1052 2.88702L83.9446 0.057805C84.219 0.0265543 84.4667 0.22364 84.498 0.498009C84.5292 0.772377 84.3322 1.02013 84.0578 1.05138L59.2184 3.88059C58.944 3.91184 58.6963 3.71476 58.665 3.44039C58.6338 3.16602 58.8309 2.91827 59.1052 2.88702Z" fill="#111921"/>
<path d="M58.9456 3.87945L34.1062 1.05024C33.8318 1.01899 33.6347 0.771233 33.666 0.496864C33.6972 0.222496 33.945 0.0254102 34.2193 0.0566608L59.0587 2.88587C59.3331 2.91712 59.5302 3.16488 59.4989 3.43925C59.4677 3.71361 59.2199 3.9107 58.9456 3.87945Z" fill="#111921"/>
<path fill-rule="evenodd" clip-rule="evenodd" d="M59.082 1.46851C58.2536 1.46851 57.582 2.14008 57.582 2.96851V4.46851H60.582V2.96851C60.582 2.14008 59.9105 1.46851 59.082 1.46851Z" fill="#111921"/>
<path fill-rule="evenodd" clip-rule="evenodd" d="M-0.000961304 76.8845L62.415 14.4685H65.582L128.082 76.9685L-0.000961304 76.8845Z" fill="url(#paint0_linear)"/>
<defs>
<linearGradient id="paint0_linear" x1="64.04" y1="-58.5085" x2="64.04" y2="71.6355" gradientUnits="userSpaceOnUse">
<stop stop-color="white" stop-opacity="0.3"/>
<stop offset="1" stop-color="white" stop-opacity="0"/>
</linearGradient>
</defs>
</svg>
