<svg width="720" height="180" viewBox="0 0 720 180" fill="none" xmlns="http://www.w3.org/2000/svg">
<path opacity="0.3" d="M2 141.964H718C719.105 141.964 720 142.861 720 143.966V174.995H0V143.966C0 142.861 0.895431 141.964 2 141.964Z" fill="black"/>
<path opacity="0.05" d="M297.5 174.995L272.5 149.972L249 151.974L272 174.995H297.5Z" fill="black"/>
<path opacity="0.4" d="M0 174.995H720V177.998C720 179.104 719.105 180 718 180H2C0.895431 180 0 179.104 0 177.998V174.995Z" fill="black"/>
<path opacity="0.05" d="M132.75 174.995L119.75 161.983L65 163.985L76 174.995H132.75Z" fill="black"/>
<path d="M70.9995 158.98V131.955C70.9995 131.402 70.5518 130.954 69.9995 130.954H69.8228C69.3445 130.954 68.9332 131.293 68.8414 131.763L64.5811 153.558C64.529 153.825 64.5875 154.101 64.7433 154.324L67.9995 158.98H70.9995Z" fill="#090E12"/>
<path d="M114.999 158.98V131.955C114.999 131.402 115.446 130.954 115.999 130.954H116.175C116.654 130.954 117.065 131.293 117.157 131.763L121.417 153.558C121.469 153.825 121.411 154.101 121.255 154.324L117.999 158.98H114.999Z" fill="#090E12"/>
<path d="M75.9057 146.969H110.092C110.426 146.969 110.738 147.136 110.923 147.413L120.958 162.427C121.265 162.887 121.142 163.509 120.683 163.816C120.518 163.926 120.325 163.985 120.127 163.985H65.8711C65.3188 163.985 64.8711 163.537 64.8711 162.984C64.8711 162.786 64.9299 162.592 65.0399 162.427L75.0745 147.413C75.2601 147.136 75.5719 146.969 75.9057 146.969Z" fill="#0A1014"/>
<path d="M93 160.982C93.5523 160.982 94 160.534 94 159.981C94 159.428 93.5523 158.98 93 158.98C92.4477 158.98 92 159.428 92 159.981C92 160.534 92.4477 160.982 93 160.982Z" fill="#F05333"/>
<path d="M98 160.982C98.5523 160.982 99 160.534 99 159.981C99 159.428 98.5523 158.98 98 158.98C97.4477 158.98 97 159.428 97 159.981C97 160.534 97.4477 160.982 98 160.982Z" fill="#F05333"/>
<path d="M78 160.982C78.5523 160.982 79 160.534 79 159.981C79 159.428 78.5523 158.98 78 158.98C77.4477 158.98 77 159.428 77 159.981C77 160.534 77.4477 160.982 78 160.982Z" fill="#F05333"/>
<path d="M103 160.982C103.552 160.982 104 160.534 104 159.981C104 159.428 103.552 158.98 103 158.98C102.448 158.98 102 159.428 102 159.981C102 160.534 102.448 160.982 103 160.982Z" fill="#F05333"/>
<path d="M83 160.982C83.5523 160.982 84 160.534 84 159.981C84 159.428 83.5523 158.98 83 158.98C82.4477 158.98 82 159.428 82 159.981C82 160.534 82.4477 160.982 83 160.982Z" fill="#F05333"/>
<path d="M108 160.982C108.552 160.982 109 160.534 109 159.981C109 159.428 108.552 158.98 108 158.98C107.448 158.98 107 159.428 107 159.981C107 160.534 107.448 160.982 108 160.982Z" fill="#F05333"/>
<path d="M88 160.982C88.5523 160.982 89 160.534 89 159.981C89 159.428 88.5523 158.98 88 158.98C87.4477 158.98 87 159.428 87 159.981C87 160.534 87.4477 160.982 88 160.982Z" fill="#F05333"/>
<path d="M82.9395 130.954H83.0605C83.5886 130.954 84.0257 131.365 84.0586 131.892L85 146.969H81L81.9414 131.892C81.9743 131.365 82.4114 130.954 82.9395 130.954V130.954Z" fill="#090E12"/>
<path d="M101.939 130.954H102.061C102.589 130.954 103.026 131.365 103.059 131.892L104 146.969H100L100.941 131.892C100.974 131.365 101.411 130.954 101.939 130.954V130.954Z" fill="#090E12"/>
<path opacity="0.05" d="M715 174.995L698 157.979L620 161.483L633.5 174.995H715Z" fill="black"/>
<path d="M578 148.971H590.961C593.446 148.971 595.461 150.988 595.461 153.475C595.461 155.963 597.476 157.979 599.961 157.979H608" stroke="#F2F2F2" stroke-linecap="round"/>
<path d="M684 105.93H612C609.791 105.93 608 107.723 608 109.934V157.979C608 160.19 609.791 161.983 612 161.983H684C686.209 161.983 688 160.19 688 157.979V109.934C688 107.723 686.209 105.93 684 105.93Z" fill="#A3B5BF"/>
<path opacity="0.05" d="M648 105.93H684C686.209 105.93 688 107.723 688 109.934V157.979C688 160.19 686.209 161.983 684 161.983H648V105.93Z" fill="black"/>
<path opacity="0.05" d="M500 174.995L481 155.978L442 156.978L460 174.995H500Z" fill="black"/>
<path opacity="0.3" d="M441 152.975C441 149.658 443.686 146.969 447 146.969C450.314 146.969 453 149.658 453 152.975H441Z" fill="#FF5736"/>
<path d="M481 155.477H491.543C494.712 155.477 497.751 154.217 499.993 151.974L500.305 151.661C502.346 149.618 505.114 148.47 508 148.47" stroke="white" stroke-linecap="round"/>
<path opacity="0.3" d="M447 156.978C449.209 156.978 451 155.186 451 152.975C451 150.763 449.209 148.971 447 148.971C444.791 148.971 443 150.763 443 152.975C443 155.186 444.791 156.978 447 156.978Z" fill="#FF5736"/>
<path d="M447 153.976C447.552 153.976 448 153.527 448 152.975C448 152.422 447.552 151.974 447 151.974C446.448 151.974 446 152.422 446 152.975C446 153.527 446.448 153.976 447 153.976Z" fill="#FF5736"/>
<path d="M480 152.975H442C441.448 152.975 441 153.423 441 153.976V155.977C441 156.53 441.448 156.978 442 156.978H480C480.552 156.978 481 156.53 481 155.977V153.976C481 153.423 480.552 152.975 480 152.975Z" fill="#BBCFDB"/>
<path d="M480 153.976H442V155.977H480V153.976Z" fill="#8F9FA8"/>
<path opacity="0.05" d="M604 174.995L579 149.972L511 152.975L533 174.995H604Z" fill="black"/>
<path fill-rule="evenodd" clip-rule="evenodd" d="M543.159 20.7534C535.212 20.7632 528.503 33.5339 519.061 40.4587C510.487 46.7477 510.487 58.487 519.283 64.7759C528.08 71.0648 543.159 73.5804 543.159 79.8693C543.159 79.8693 543.473 75.5237 552.583 70.7783C561.694 66.033 569.548 64.9855 571.747 56.9147C573.334 51.087 569.513 45.0301 562.636 35.4178C558.66 29.8591 557.61 20.7353 543.159 20.7534Z" fill="#1D2B38"/>
<path opacity="0.05" fill-rule="evenodd" clip-rule="evenodd" d="M562.636 35.4178C558.656 29.8584 557.609 20.7353 543.158 20.7534V79.8693C543.158 79.8693 543.472 75.5237 552.583 70.7784C561.693 66.033 569.547 64.9856 571.746 56.9148C573.334 51.0877 569.511 45.0301 562.636 35.4178Z" fill="black"/>
<path fill-rule="evenodd" clip-rule="evenodd" d="M588.263 91.1896C586.637 85.9166 586.681 81.534 580.078 77.3365C574.455 73.7616 568.045 71.5248 560.791 69.9225C559.448 69.4039 558.209 68.6492 557.131 67.6941C555.684 65.8305 554.488 62.0418 554.185 57.599C556.887 55.2183 559.072 52.475 559.995 50.4297C560.004 50.4094 560.009 50.3884 560.018 50.3682C558.42 53.9319 553.008 59.6276 547.675 61.8392C544.725 62.7077 541.588 62.7077 538.638 61.8392C536.246 60.7761 534.04 59.3342 532.106 57.569C532.088 57.5536 532.09 57.5557 532.056 57.5257C531.759 62.0502 530.537 65.8773 529.064 67.7486C527.971 68.7028 526.715 69.4526 525.356 69.9623C524.449 70.1636 511.115 74.2416 506.24 77.3379C499.638 81.5347 499.683 85.9173 498.057 91.1896H588.263Z" fill="#E0C09D"/>
<path opacity="0.05" fill-rule="evenodd" clip-rule="evenodd" d="M531.102 63.2876C531.103 63.2822 531.105 63.2767 531.106 63.2712L536.656 60.8479C537.301 61.2077 537.962 61.5385 538.638 61.839C541.588 62.7075 544.725 62.7075 547.675 61.839C550.018 60.8673 552.377 59.223 554.42 57.3826L554.424 57.3864C554.345 57.4575 554.265 57.5283 554.185 57.5988C554.488 62.0416 555.685 65.8303 557.131 67.6939C558.209 68.649 559.448 69.4037 560.791 69.9223C563.058 70.4229 565.242 70.9854 567.345 71.6314L553.391 85.5982L531.102 63.2876Z" fill="black"/>
<path fill-rule="evenodd" clip-rule="evenodd" d="M527.262 52.0939C527.235 52.0534 527.207 52.0122 527.182 51.9724C527.211 52.0122 527.235 52.0534 527.262 52.0939Z" fill="#FFDBB0"/>
<path fill-rule="evenodd" clip-rule="evenodd" d="M526.722 51.2059C526.712 51.1884 526.7 51.1703 526.691 51.1528C526.701 51.1703 526.712 51.1905 526.722 51.2059Z" fill="#FFDBB0"/>
<path fill-rule="evenodd" clip-rule="evenodd" d="M527.861 52.9603L527.779 52.8479L527.861 52.9603Z" fill="#FFDBB0"/>
<path fill-rule="evenodd" clip-rule="evenodd" d="M562.954 32.0617L562.973 25.7217C562.973 9.77862 554.103 5.64819 543.159 5.64819C532.216 5.64819 523.342 9.77862 523.342 25.7217L523.323 32.0924C523.323 32.0924 521.183 29.7445 519.68 32.0924C518.177 34.4403 522.033 48.3996 524.961 46.8302C525.557 50.7992 525.011 53.7913 526.295 56.6569C526.408 56.9085 526.54 57.1712 526.69 57.4424C526.7 57.4598 526.711 57.478 526.721 57.4955C526.861 57.7442 527.014 58.0004 527.18 58.2641C527.206 58.3046 527.234 58.3452 527.261 58.3857C527.422 58.6331 527.594 58.8846 527.777 59.1404L527.859 59.2529C528.058 59.5249 528.267 59.8002 528.487 60.0788L528.526 60.1277C529.597 61.4505 530.775 62.6825 532.049 63.8109C532.161 63.9109 532.161 63.9123 532.101 63.8612C534.035 65.6265 536.24 67.0683 538.632 68.1314C541.582 69 544.719 69 547.669 68.1314C553.002 65.9198 558.413 60.2262 560.012 56.6604C561.269 53.806 560.762 50.7985 561.355 46.8448C564.271 48.3241 568.064 34.4382 566.564 32.0966C565.168 29.9004 563.212 31.7982 562.954 32.0617Z" fill="#E0C09D"/>
<path fill-rule="evenodd" clip-rule="evenodd" d="M525.163 36.4891V26.0076L522.545 33.8687L525.163 36.4891Z" fill="#736357"/>
<path fill-rule="evenodd" clip-rule="evenodd" d="M561.233 28.0437C561.215 27.5238 560.958 24.2438 560.527 23.9538C554.887 20.1616 546.914 20.2797 543.165 20.2734C539.417 20.2671 531.444 20.1336 525.792 23.9028C525.359 24.1914 525.1 27.4707 525.08 27.9899C524.931 31.8722 524.35 48.3576 525.068 52.4761C525.884 57.1544 526.98 59.6315 531.37 63.3532C535.761 67.0748 540.197 69.0041 543.085 69.009C545.973 69.0139 550.415 67.0916 554.82 63.3853C559.224 59.6791 560.327 57.2054 561.16 52.5307C561.892 48.4142 561.369 31.9267 561.233 28.0437Z" fill="white"/>
<path fill-rule="evenodd" clip-rule="evenodd" d="M541.262 35.8175C541.091 36.2983 540.643 36.1257 537.761 34.42C534.878 32.7143 531.868 31.9876 529.928 34.406C529.928 34.406 530.551 31.3636 534.261 31.6284C537.971 31.8932 541.832 34.2187 541.262 35.8175Z" fill="#343D46"/>
<path fill-rule="evenodd" clip-rule="evenodd" d="M545.026 35.8231C545.195 36.3046 545.644 36.1334 548.532 34.4367C551.421 32.7401 554.433 32.0246 556.365 34.4507C556.365 34.4507 555.752 31.4062 552.042 31.6556C548.331 31.9051 544.462 34.2236 545.026 35.8231Z" fill="#343D46"/>
<path fill-rule="evenodd" clip-rule="evenodd" d="M541.677 58.887C541.564 58.8865 541.456 58.9322 541.378 59.0134C541.3 59.0946 541.259 59.2042 541.264 59.3167C541.346 61.1782 541.749 68.5253 543.085 68.5274C544.422 68.5295 544.851 61.1817 544.939 59.323C544.944 59.2105 544.903 59.1007 544.826 59.0192C544.748 58.9378 544.64 58.8917 544.528 58.8919L541.677 58.887Z" fill="#343D46"/>
<path fill-rule="evenodd" clip-rule="evenodd" d="M548.917 53.8205C545.307 53.163 545 50.8787 545 50.8787H541C541 50.8787 540.918 53.1525 537.305 53.8002C533.318 54.5116 531.092 50.1443 531.092 50.1443C531.401 51.917 532.322 53.5246 533.695 54.6863C535.733 56.4037 538.64 56.6235 540.913 55.232C541.944 54.6099 542.723 53.643 543.112 52.5019C543.497 53.6444 544.272 54.6141 545.302 55.2397C547.57 56.6389 550.477 56.4292 552.521 54.7191C553.898 53.5618 554.825 51.9569 555.14 50.1848C555.14 50.1848 552.902 54.5444 548.917 53.8205Z" fill="#343D46"/>
<path fill-rule="evenodd" clip-rule="evenodd" d="M538.312 39.7306C537.899 39.7306 535.013 40.189 533.415 40.2896C532.323 40.3971 531.242 39.996 530.483 39.2016C530.329 38.8921 531.414 37.3464 533.733 37.2989C536.052 37.2514 538.626 38.855 538.728 39.2163C538.724 39.2142 538.724 39.7306 538.312 39.7306Z" fill="#343D46"/>
<path fill-rule="evenodd" clip-rule="evenodd" d="M552.853 40.3168C551.255 40.2106 548.371 39.7418 547.958 39.7411C547.545 39.7404 547.547 39.2247 547.547 39.2247C547.651 38.8641 550.23 37.2681 552.549 37.3247C554.868 37.3813 555.947 38.9319 555.792 39.2386C555.03 40.0316 553.946 40.4293 552.853 40.3168Z" fill="#343D46"/>
<path opacity="0.05" fill-rule="evenodd" clip-rule="evenodd" d="M562.955 32.0609L562.974 25.721C562.974 9.77789 554.104 5.64746 543.16 5.64746V68.7784C544.695 68.8703 546.233 68.6487 547.68 68.1272C553.013 65.9156 558.424 60.222 560.023 56.6562C560.988 54.5026 560.92 52.2777 561.079 49.621C561.134 48.744 561.214 47.821 561.359 46.8392C564.275 48.3185 568.067 34.4326 566.567 32.091C565.169 29.9003 563.213 31.7982 562.955 32.0609Z" fill="black"/>
<path d="M579.141 74.6631C585.47 78.6603 587.428 83.7931 588.986 88.8144H588.969C590.592 92.9673 596.051 119.001 595.409 127.944C594.767 136.888 569.702 145.354 542.731 145.353C515.76 145.352 490.694 136.889 490.052 127.944C489.41 119 494.87 92.9673 496.493 88.8144C498.052 83.7931 500.009 78.6615 506.337 74.6655C509.593 72.6078 515.931 70.2216 520.975 68.9001C504.858 60.3182 510.912 46.5258 513.211 40.4587C515.514 34.3794 521.169 0 543.16 0C565.15 0 569.548 32.2831 571.224 40.4587C572.899 48.6343 575.373 51.8012 573.361 59.3255C572.051 64.2294 565.369 68.0676 564.043 68.788C570.112 70.1598 574.755 71.8928 579.141 74.6631ZM519.812 64.1177C528.608 70.4066 543.016 73.5553 543.015 79.8443C543.01 79.979 543.474 75.523 552.584 70.7783C561.695 66.0337 569.548 64.9855 571.747 56.9147C573.335 51.087 569.512 45.0301 562.637 35.4178C558.658 29.8584 555.412 27.7411 543.16 27.7411C535.212 27.7411 528.189 33.3718 519.062 42.555C511.566 50.0983 511.016 57.8287 519.812 64.1177Z" fill="#141D26"/>
<path d="M544 80.9069C544 80.3541 543.552 79.906 543 79.906C542.448 79.906 542 80.3541 542 80.9069V107.932C542 108.485 542.448 108.933 543 108.933C543.552 108.933 544 108.485 544 107.932V80.9069Z" fill="#1D2B38"/>
<path opacity="0.05" d="M569.866 64.597C567.539 66.8148 564.836 68.3576 564.043 68.788C570.112 70.1598 574.755 71.8928 579.142 74.6631C585.47 78.6603 587.428 83.7931 588.987 88.8144H588.97C590.567 92.9019 595.88 118.186 595.435 127.509L544.702 76.728C546.029 75.0858 548.391 72.9626 552.585 70.7783C557.536 68.1996 562.117 66.7128 565.62 64.597C568.562 62.8199 570.744 60.599 571.748 56.9147C573.335 51.087 569.513 45.0301 562.638 35.4178C558.658 29.8584 555.412 27.7411 543.16 27.7411V0C565.151 0 569.549 32.2831 571.224 40.4587C572.9 48.6343 575.373 51.8012 573.362 59.3255C572.834 61.3001 571.436 63.1019 569.866 64.597V64.597Z" fill="black"/>
<path d="M573 103.929H513C510.239 103.929 508 106.169 508 108.933V148.971C508 151.735 510.239 153.976 513 153.976H573C575.761 153.976 578 151.735 578 148.971V108.933C578 106.169 575.761 103.929 573 103.929Z" fill="#31465C"/>
<path opacity="0.05" fill-rule="evenodd" clip-rule="evenodd" d="M543 103.929H573C575.761 103.929 578 106.169 578 108.933V148.971C578 151.735 575.761 153.976 573 153.976H543V103.929Z" fill="black"/>
<path opacity="0.05" d="M436 174.802L421 159.788L408.729 144.967L369 152.088L391.5 174.61L436 174.802Z" fill="black"/>
<path d="M408 103.929V150.973C408 152.078 407.105 152.975 406 152.975H370C368.895 152.975 368 152.078 368 150.973V103.929L370 105.931L372 103.929L374 105.931L376 103.929L378 105.931L380 103.929L382 105.931L384 103.929L386 105.931L388 103.929L390 105.931L392 103.929L394 105.931L396 103.929L398 105.931L400 103.929L402 105.931L404 103.929L406 105.931L408 103.929Z" fill="#967A62"/>
<path opacity="0.05" d="M340 174.995L329 163.985L351.995 160.982L365.995 174.995H340Z" fill="black"/>
<path d="M327.164 152.975C328.197 146.901 333.998 143.966 341.001 143.966C348.003 143.966 353.804 146.901 354.837 152.975H327.164Z" fill="#D09B60"/>
<path d="M333 152.975L353 151.974V154.976H330C330.602 154.241 331.102 153.741 331.5 153.475C331.898 153.209 332.398 153.043 333 152.975Z" fill="#147443"/>
<path d="M330 154.977C331.333 153.489 333 152.283 335 151.358C338 149.972 342.164 149.745 344.664 150.861C347.164 151.977 350.336 151.585 354 149.471C356.442 148.062 358.442 148.897 360 151.974C354.667 157.312 349 158.48 343 155.477C337 152.474 332.667 152.307 330 154.977Z" fill="#27965D"/>
<path d="M335.5 152.975H323.5C323.224 152.975 323 153.199 323 153.475V154.476C323 154.752 323.224 154.976 323.5 154.976H335.5C335.776 154.976 336 154.752 336 154.476V153.475C336 153.199 335.776 152.975 335.5 152.975Z" fill="#C44545"/>
<path d="M336.651 153.36L324.872 151.068C324.601 151.015 324.338 151.193 324.285 151.464L324.095 152.446C324.042 152.718 324.219 152.981 324.49 153.033L336.27 155.325C336.541 155.378 336.803 155.201 336.856 154.929L337.047 153.947C337.099 153.675 336.922 153.413 336.651 153.36Z" fill="#C44545"/>
<path d="M327.164 158.98C328.197 165.054 333.998 164.986 341.001 164.986C348.003 164.986 353.804 165.054 354.837 158.98H327.164Z" fill="#D09B60"/>
<path d="M355 154.977H327C325.895 154.977 325 155.873 325 156.978C325 158.084 325.895 158.98 327 158.98H355C356.105 158.98 357 158.084 357 156.978C357 155.873 356.105 154.977 355 154.977Z" fill="#825151"/>
<path d="M331.175 154.546L341.127 159.381C341.679 159.649 342.323 159.649 342.874 159.381L352.826 154.546C352.976 154.474 353.038 154.294 352.965 154.145C352.915 154.041 352.81 153.976 352.695 153.976H331.306C331.14 153.976 331.006 154.11 331.006 154.276C331.006 154.391 331.071 154.496 331.175 154.546Z" fill="#F2DF8A"/>
<path d="M414 105.93H412V131.955H414V105.93Z" fill="white"/>
<path d="M403 125.949H423L421.005 160.098C420.943 161.156 420.067 161.983 419.008 161.983H406.992C405.933 161.983 405.057 161.156 404.995 160.098L403 125.949Z" fill="#B30202"/>
<path d="M423 123.948H403C402.448 123.948 402 124.396 402 124.948C402 125.501 402.448 125.949 403 125.949H423C423.552 125.949 424 125.501 424 124.948C424 124.396 423.552 123.948 423 123.948Z" fill="white"/>
<path opacity="0.5" d="M402 122.947H424C424.552 122.947 425 123.395 425 123.947V126.95H401V123.947C401 123.395 401.448 122.947 402 122.947Z" fill="#BBCFDB"/>
<path opacity="0.05" d="M238 174.995L209 145.968L199 137.96L149 143.466V148.971L175 174.995H238Z" fill="black"/>
<path d="M196 134.958H150V147.97H196V134.958Z" fill="#7C8991"/>
<path d="M190 134.958L192.045 133.496C195.268 131.192 199.129 129.953 203.089 129.953H204V152.975H203.089C199.129 152.975 195.268 151.736 192.045 149.432L190 147.97V134.958Z" fill="#7C8991"/>
<path d="M208 128.952H205C204.448 128.952 204 129.4 204 129.953V152.975C204 153.528 204.448 153.976 205 153.976H208C208.552 153.976 209 153.528 209 152.975V129.953C209 129.4 208.552 128.952 208 128.952Z" fill="#96A6B0"/>
<path d="M150 134.958C150 134.405 149.552 133.957 149 133.957C148.448 133.957 148 134.405 148 134.958V147.97C148 148.523 148.448 148.971 149 148.971C149.552 148.971 150 148.523 150 147.97V134.958Z" fill="#96A6B0"/>
<path d="M189 133.957H186C185.448 133.957 185 134.405 185 134.958V147.97C185 148.523 185.448 148.971 186 148.971H189C189.552 148.971 190 148.523 190 147.97V134.958C190 134.405 189.552 133.957 189 133.957Z" fill="#96A6B0"/>
<path d="M182 132.956H184C184.552 132.956 185 133.404 185 133.957V134.958H181L174.172 128.123C173.421 127.372 172.404 126.95 171.343 126.95H170.829C170.417 128.116 169.306 128.952 168 128.952C166.694 128.952 165.583 128.116 165.171 126.95H162.829C162.417 128.116 161.306 128.952 160 128.952C158.694 128.952 157.583 128.116 157.171 126.95H154.829C154.417 128.116 153.306 128.952 152 128.952C150.694 128.952 149.583 128.116 149.171 126.95H146.829C146.417 128.116 145.306 128.952 144 128.952C144 126.741 145.791 124.948 148 124.948H171.515C173.106 124.948 174.632 125.581 175.757 126.707L182 132.956Z" fill="#F3C805"/>
<path d="M272 115.94H250C249.448 115.94 249 116.388 249 116.941V150.973C249 151.526 249.448 151.974 250 151.974H272C272.552 151.974 273 151.526 273 150.973V116.941C273 116.388 272.552 115.94 272 115.94Z" fill="#111921"/>
<path d="M256 113.938H253V115.94H256V113.938Z" fill="#AD8645"/>
<path d="M254.5 83.9099C255.328 83.9099 256 84.5821 256 85.4113V113.938H253V85.4113C253 84.5821 253.672 83.9099 254.5 83.9099Z" fill="#111921"/>
<path d="M261 113.938H258V115.94H261V113.938Z" fill="#AD8645"/>
<path d="M259.5 87.9136C260.328 87.9136 261 88.5858 261 89.415V113.938H258V89.415C258 88.5858 258.672 87.9136 259.5 87.9136Z" fill="#111921"/>
<path d="M266 113.938H263V115.94H266V113.938Z" fill="#AD8645"/>
<path d="M264.5 91.9172C265.328 91.9172 266 92.5894 266 93.4186V113.938H263V93.4186C263 92.5894 263.672 91.9172 264.5 91.9172Z" fill="#111921"/>
<path d="M271 113.938H268V115.94H271V113.938Z" fill="#AD8645"/>
<path d="M269.5 95.9211C270.328 95.9211 271 96.5933 271 97.4226V113.938H268V97.4226C268 96.5933 268.672 95.9211 269.5 95.9211Z" fill="#111921"/>
</svg>
