<svg width="256" height="176" viewBox="0 0 256 176" fill="none" xmlns="http://www.w3.org/2000/svg">
<path opacity="0.3" d="M2 143H254C255.105 143 256 143.895 256 145V176H0V145C0 143.895 0.895431 143 2 143Z" fill="black"/>
<path fill-rule="evenodd" clip-rule="evenodd" d="M107.159 20.7339C99.2115 20.7437 92.5027 33.5024 83.0614 40.4207C74.4872 46.7037 74.4872 58.432 83.2834 64.715C92.0796 70.9981 107.159 73.5113 107.159 79.7943C107.159 79.7943 107.473 75.4527 116.583 70.7118C125.694 65.971 133.548 64.9245 135.747 56.8613C137.334 51.039 133.513 44.9878 126.636 35.3845C122.66 29.831 121.61 20.7158 107.159 20.7339Z" fill="#1D2B38"/>
<path opacity="0.05" fill-rule="evenodd" clip-rule="evenodd" d="M126.636 35.3845C122.656 29.8304 121.609 20.7158 107.158 20.7339V79.7943C107.158 79.7943 107.472 75.4528 116.583 70.7119C125.693 65.971 133.547 64.9245 135.746 56.8613C137.334 51.0397 133.511 44.9878 126.636 35.3845Z" fill="black"/>
<path fill-rule="evenodd" clip-rule="evenodd" d="M152.263 91.1039C150.637 85.8359 150.681 81.4573 144.078 77.2638C138.455 73.6922 132.045 71.4576 124.791 69.8568C123.448 69.3386 122.209 68.5847 121.131 67.6305C119.684 65.7687 118.488 61.9835 118.185 57.5449C120.887 55.1664 123.072 52.4256 123.995 50.3822C124.004 50.362 124.009 50.341 124.018 50.3208C122.42 53.8812 117.008 59.5715 111.675 61.781C108.725 62.6487 105.588 62.6487 102.638 61.781C100.246 60.7189 98.0404 59.2784 96.1064 57.5149C96.0883 57.4995 96.0897 57.5016 96.0561 57.4716C95.7594 61.9919 94.5371 65.8154 93.064 67.685C91.9706 68.6383 90.7147 69.3874 89.3564 69.8966C88.4488 70.0977 75.1148 74.1718 70.2399 77.2652C63.6379 81.458 63.6825 85.8366 62.0566 91.1039H152.263Z" fill="#E0C09D"/>
<path opacity="0.05" fill-rule="evenodd" clip-rule="evenodd" d="M95.1016 63.2281C95.1031 63.2227 95.1047 63.2172 95.1062 63.2117L100.656 60.7907C101.301 61.1501 101.962 61.4806 102.638 61.7808C105.588 62.6485 108.725 62.6485 111.675 61.7808C114.018 60.81 116.377 59.1674 118.42 57.3286L118.424 57.3325C118.345 57.4035 118.265 57.4742 118.185 57.5447C118.488 61.9833 119.685 65.7684 121.131 67.6303C122.209 68.5845 123.448 69.3384 124.791 69.8566C127.058 70.3567 129.242 70.9187 131.345 71.564L117.391 85.5178L95.1016 63.2281Z" fill="black"/>
<path fill-rule="evenodd" clip-rule="evenodd" d="M91.2619 52.0451C91.2354 52.0046 91.2075 51.9634 91.1816 51.9236C91.211 51.9634 91.2354 52.0046 91.2619 52.0451Z" fill="#FFDBB0"/>
<path fill-rule="evenodd" clip-rule="evenodd" d="M90.7221 51.1578C90.7123 51.1403 90.7005 51.1222 90.6914 51.1047C90.7012 51.1222 90.7123 51.1424 90.7221 51.1578Z" fill="#FFDBB0"/>
<path fill-rule="evenodd" clip-rule="evenodd" d="M91.861 52.9107L91.7793 52.7983L91.861 52.9107Z" fill="#FFDBB0"/>
<path fill-rule="evenodd" clip-rule="evenodd" d="M126.954 32.0315L126.973 25.6975C126.973 9.76937 118.103 5.64282 107.159 5.64282C96.2158 5.64282 87.3421 9.76937 87.3421 25.6975L87.3233 32.0622C87.3233 32.0622 85.1828 29.7166 83.6798 32.0622C82.1768 34.4079 86.0331 48.3541 88.961 46.7861C89.5565 50.7514 89.0106 53.7407 90.2951 56.6037C90.4082 56.855 90.5402 57.1175 90.6903 57.3884C90.7 57.4058 90.7112 57.424 90.721 57.4414C90.8606 57.69 91.0137 57.9459 91.1803 58.2094C91.2062 58.2498 91.2341 58.2903 91.2606 58.3308C91.4219 58.578 91.5936 58.8293 91.7772 59.0848L91.8589 59.1972C92.0576 59.469 92.2671 59.744 92.4872 60.0224L92.5256 60.0712C93.5967 61.3928 94.7751 62.6236 96.049 63.751C96.1614 63.8508 96.1607 63.8522 96.1006 63.8012C98.0346 65.5648 100.24 67.0053 102.632 68.0674C105.582 68.9351 108.719 68.9351 111.669 68.0674C117.002 65.8579 122.413 60.1697 124.012 56.6072C125.269 53.7554 124.762 50.7507 125.355 46.8008C128.271 48.2787 132.064 34.4058 130.564 32.0664C129.168 29.8722 127.212 31.7683 126.954 32.0315Z" fill="#E0C09D"/>
<path fill-rule="evenodd" clip-rule="evenodd" d="M89.1628 36.4549V25.9832L86.5449 33.8369L89.1628 36.4549Z" fill="#736357"/>
<path fill-rule="evenodd" clip-rule="evenodd" d="M125.233 28.0173C125.215 27.498 124.958 24.221 124.527 23.9313C118.887 20.1426 110.914 20.2606 107.165 20.2543C103.417 20.248 95.4442 20.1147 89.7915 23.8803C89.3594 24.1687 89.1004 27.4449 89.0802 27.9636C88.9308 31.8423 88.3499 48.3122 89.0683 52.4269C89.8844 57.1007 90.9797 59.5756 95.3702 63.2937C99.7606 67.0119 104.197 68.9394 107.085 68.9442C109.973 68.9491 114.415 67.0286 118.82 63.3258C123.224 59.623 124.327 57.1517 125.16 52.4813C125.892 48.3687 125.369 31.8968 125.233 28.0173Z" fill="white"/>
<path fill-rule="evenodd" clip-rule="evenodd" d="M105.262 35.7838C105.091 36.2641 104.643 36.0917 101.761 34.3876C98.8781 32.6835 95.8685 31.9574 93.9277 34.3736C93.9277 34.3736 94.5511 31.334 98.2609 31.5986C101.971 31.8632 105.832 34.1865 105.262 35.7838Z" fill="#343D46"/>
<path fill-rule="evenodd" clip-rule="evenodd" d="M109.026 35.7894C109.195 36.2704 109.644 36.0994 112.532 34.4043C115.421 32.7093 118.433 31.9945 120.365 34.4183C120.365 34.4183 119.752 31.3766 116.042 31.6258C112.331 31.8751 108.462 34.1914 109.026 35.7894Z" fill="#343D46"/>
<path fill-rule="evenodd" clip-rule="evenodd" d="M105.677 58.8318C105.564 58.8313 105.456 58.8769 105.378 58.9581C105.3 59.0392 105.259 59.1487 105.264 59.2611C105.346 61.1209 105.749 68.4611 107.085 68.4632C108.422 68.4653 108.851 61.1244 108.939 59.2674C108.944 59.155 108.903 59.0453 108.826 58.9639C108.748 58.8825 108.64 58.8366 108.528 58.8367L105.677 58.8318Z" fill="#343D46"/>
<path fill-rule="evenodd" clip-rule="evenodd" d="M112.917 53.7699C109.307 53.113 109 50.8309 109 50.8309H105C105 50.8309 104.918 53.1025 101.305 53.7497C97.3181 54.4604 95.0918 50.0972 95.0918 50.0972C95.4007 51.8682 96.3221 53.4743 97.6951 54.6349C99.7331 56.3507 102.64 56.5703 104.913 55.1801C105.944 54.5586 106.723 53.5926 107.112 52.4526C107.497 53.594 108.272 54.5628 109.302 55.1878C111.57 56.5857 114.477 56.3762 116.521 54.6677C117.898 53.5115 118.825 51.908 119.14 50.1377C119.14 50.1377 116.902 54.4932 112.917 53.7699Z" fill="#343D46"/>
<path fill-rule="evenodd" clip-rule="evenodd" d="M102.312 39.6934C101.899 39.6934 99.0132 40.1514 97.4152 40.2519C96.3228 40.3593 95.2416 39.9585 94.4832 39.1649C94.3289 38.8557 95.4137 37.3114 97.7329 37.264C100.052 37.2165 102.626 38.8187 102.728 39.1796C102.724 39.1775 102.724 39.6934 102.312 39.6934Z" fill="#343D46"/>
<path fill-rule="evenodd" clip-rule="evenodd" d="M116.853 40.2791C115.255 40.173 112.371 39.7046 111.958 39.7039C111.545 39.7032 111.547 39.188 111.547 39.188C111.651 38.8277 114.23 37.2333 116.549 37.2898C118.868 37.3463 119.947 38.8955 119.792 39.2019C119.03 39.9942 117.946 40.3915 116.853 40.2791Z" fill="#343D46"/>
<path opacity="0.05" fill-rule="evenodd" clip-rule="evenodd" d="M126.955 32.0308L126.974 25.6968C126.974 9.76864 118.104 5.64209 107.16 5.64209V68.7138C108.695 68.8055 110.233 68.5842 111.68 68.0632C117.013 65.8536 122.424 60.1654 124.023 56.603C124.988 54.4514 124.92 52.2286 125.079 49.5744C125.134 48.6982 125.214 47.776 125.359 46.7952C128.275 48.2731 132.067 34.4002 130.567 32.0608C129.169 29.8722 127.213 31.7683 126.955 32.0308Z" fill="black"/>
<path d="M143.141 74.593C149.47 78.5864 151.428 83.7144 152.986 88.7311H152.969C154.592 92.8801 160.051 118.89 159.409 127.824C158.767 136.759 133.702 145.217 106.731 145.216C79.7596 145.215 54.6942 136.76 54.0522 127.824C53.4102 118.888 58.8704 92.8801 60.4929 88.7311C62.0516 83.7144 64.0094 78.5876 70.3369 74.5954C73.5935 72.5397 79.9305 70.1557 84.9754 68.8354C68.8576 60.2616 74.9115 46.4822 77.2107 40.4208C79.5144 34.3472 85.1692 0 107.16 0C129.15 0 133.548 32.2528 135.224 40.4208C136.899 48.5887 139.373 51.7525 137.361 59.2698C136.051 64.1691 129.369 68.0037 128.043 68.7234C134.112 70.0939 138.755 71.8253 143.141 74.593ZM83.812 64.0575C92.6082 70.3405 107.016 73.4863 107.015 79.7693C107.01 79.9039 107.474 75.4521 116.584 70.7119C125.695 65.9717 133.548 64.9245 135.747 56.8613C137.335 51.0391 133.512 44.9878 126.637 35.3846C122.658 29.8304 119.412 27.7151 107.16 27.7151C99.2124 27.7151 92.1894 33.3405 83.0622 42.5151C75.5659 50.0512 75.0158 57.7745 83.812 64.0575Z" fill="#141D26"/>
<path d="M108 80.8311C108 80.2788 107.552 79.8311 107 79.8311C106.448 79.8311 106 80.2788 106 80.8311V107.831C106 108.383 106.448 108.831 107 108.831C107.552 108.831 108 108.383 108 107.831V80.8311Z" fill="#1D2B38"/>
<path opacity="0.05" d="M133.866 64.5364C131.539 66.7521 128.836 68.2935 128.043 68.7234C134.112 70.0939 138.755 71.8253 143.142 74.593C149.47 78.5864 151.428 83.7144 152.987 88.7311H152.97C154.567 92.8147 159.88 118.075 159.435 127.389L108.702 76.6559C110.029 75.0153 112.391 72.8941 116.585 70.7119C121.536 68.1356 126.117 66.6502 129.62 64.5363C132.562 62.7609 134.744 60.5422 135.748 56.8613C137.335 51.0391 133.513 44.9878 126.638 35.3846C122.658 29.8304 119.412 27.7151 107.16 27.7151V0C129.151 0 133.549 32.2528 135.224 40.4208C136.9 48.5887 139.373 51.7525 137.362 59.2698C136.834 61.2426 135.436 63.0427 133.866 64.5363V64.5364Z" fill="black"/>
<path d="M137 103.831H77C74.2386 103.831 72 106.07 72 108.831V148.831C72 151.592 74.2386 153.831 77 153.831H137C139.761 153.831 142 151.592 142 148.831V108.831C142 106.07 139.761 103.831 137 103.831Z" fill="#31465C"/>
<path opacity="0.05" fill-rule="evenodd" clip-rule="evenodd" d="M107 103.831H137C139.761 103.831 142 106.07 142 108.831V148.831C142 151.592 139.761 153.831 137 153.831H107V103.831Z" fill="black"/>
</svg>
