<svg width="720" height="183" viewBox="0 0 720 183" fill="none" xmlns="http://www.w3.org/2000/svg">
<path opacity="0.3" d="M2 145H718C719.105 145 720 145.895 720 147V178H0V147C0 145.895 0.895431 145 2 145Z" fill="#293E51"/>
<path opacity="0.4" d="M0 178H720V181C720 182.105 719.105 183 718 183H2C0.895431 183 0 182.105 0 181V178Z" fill="#293E51"/>
<path opacity="0.05" d="M351 178L330 157L290 160L308 178H351Z" fill="black"/>
<path opacity="0.05" d="M455 178L425 148L344 153L369 178H455Z" fill="black"/>
<path opacity="0.05" d="M609 178L583.75 153L508 154.19L532.048 178H609Z" fill="black"/>
<path opacity="0.05" d="M498 178L483.517 164L463 166.333L475.069 178H498Z" fill="black"/>
<path opacity="0.05" d="M653 178L638.517 164L618 166.333L630.069 178H653Z" fill="black"/>
<path opacity="0.05" d="M294 178L260.787 144L247 146.5V148.1L276.207 178H294Z" fill="black"/>
<path opacity="0.05" d="M224 178L204.702 159L152 161.375L168.886 178H224Z" fill="black"/>
<path opacity="0.05" d="M120 178L102.083 160L73 161.2L89.7222 178H120Z" fill="black"/>
<path d="M581.954 77.8439C576.574 74.4231 568.638 72.2837 561.693 70.7507C560.408 70.2545 559.222 69.5324 558.19 68.6186C556.921 66.6831 556.097 63.9033 555.778 61.6104C555.657 61.7187 555.546 61.8294 555.425 61.9365C553.511 63.6651 551.417 65.0317 549.147 66.0408C547.762 66.5401 546.289 66.7522 544.819 66.6641C543.3 66.7522 541.827 66.5401 540.442 66.0408C538.171 65.0317 536.078 63.6651 534.239 61.9931C534.052 61.7825 533.927 61.6682 533.794 61.5479C533.477 63.8874 532.634 66.711 531.329 68.6775C530.282 69.5904 529.081 70.3077 527.781 70.7953C526.915 70.9878 512.35 74.8863 507.688 77.8511C501.387 81.8604 501.429 86.0525 499.873 91.0965H589.784C588.23 86.0525 588.272 81.8592 581.954 77.8439Z" fill="#FFDBB0"/>
<path d="M534.2 62.5521L534.249 62.5798C536.087 64.2519 538.181 65.6185 540.452 66.6275C541.837 67.1269 543.31 67.3389 544.78 67.2508H544.829C546.299 67.3389 547.772 67.1269 549.157 66.6275C551.427 65.6185 553.521 64.2519 555.359 62.5798L555.435 62.5232C557.687 60.6249 559.554 58.3123 560.935 55.7104C562.174 52.9622 561.671 50.0696 562.244 46.2601C565.033 47.6751 568.662 35.3538 567.227 33.1134C565.885 31.0173 564.013 32.833 563.769 33.0845L563.787 26.0563C563.787 10.8087 555.302 6.8584 544.83 6.8584C534.359 6.8584 525.865 10.8087 525.865 26.0599L525.847 33.117C525.847 33.117 523.803 30.8705 522.36 33.117C520.917 35.3634 524.612 47.7545 527.41 46.2529C527.979 50.0503 527.458 52.9117 528.686 55.6539C530.068 58.266 531.937 60.5882 534.194 62.4944C534.333 62.6147 534.335 62.6243 534.194 62.5004L534.2 62.5521Z" fill="#FFDBB0"/>
<path opacity="0.05" d="M583.155 77.8444C577.775 74.4235 568.637 72.2841 561.691 70.7512C560.406 70.2549 559.22 69.5329 558.189 68.619C556.92 66.6835 556.096 64.4902 555.776 62.1973C555.656 62.3056 555.544 62.4163 555.424 62.5233L555.348 62.5799C553.51 64.252 551.416 65.6186 549.146 66.6276C547.76 67.127 546.288 67.339 544.818 67.2509H544.769C543.299 67.339 541.826 67.127 540.441 66.6276C538.191 65.6279 536.116 64.2762 534.291 62.6232L562.751 91.097H589.783C588.229 86.0529 589.473 81.8596 583.155 77.8444Z" fill="black"/>
<path opacity="0.05" d="M567.222 33.1167C565.881 31.0206 564.009 32.8363 563.765 33.0878L563.783 26.0596C563.785 10.8084 555.3 6.85811 544.828 5.89551V66.2879C544.828 67.2505 544.828 67.2505 544.828 67.2505C546.298 67.3386 547.771 67.1266 549.156 66.6273C551.426 65.6182 553.52 64.2516 555.359 62.5795L555.377 62.5687C557.652 60.661 559.539 58.3323 560.933 55.7101C562.172 52.9619 561.669 50.0693 562.241 46.2598C565.031 47.6784 568.665 35.3571 567.222 33.1167Z" fill="black"/>
<path opacity="0.05" d="M555.377 62.5698H555.376L555.371 62.5746L555.377 62.5698Z" fill="black"/>
<path opacity="0.1" d="M548.78 50.0128C548.281 49.4907 547.497 49.3608 546.857 49.6939C546.237 49.9661 545.593 50.1796 544.933 50.3317C544.273 50.1796 543.629 49.9661 543.009 49.6939C542.369 49.3608 541.585 49.4907 541.086 50.0128C540.765 50.4556 542.619 50.7564 543.37 51.0572C544.121 51.358 544.422 51.6589 544.933 51.6589C545.444 51.6589 545.745 51.358 546.496 51.0572C547.247 50.7564 549.1 50.4556 548.78 50.0128Z" fill="black"/>
<path opacity="0.1" d="M546.228 54.8439C545.723 54.7717 545.299 55.1182 544.932 55.1351C544.532 55.1519 543.99 54.7741 543.49 54.8439C542.989 54.9137 538.244 55.9918 538.244 55.9918C539.205 56.8199 540.11 57.7098 540.955 58.6558C541.904 59.9793 547.939 59.9793 548.89 58.6558C549.743 57.7076 550.659 56.8177 551.631 55.9918C551.631 55.9918 546.733 54.9161 546.228 54.8439Z" fill="black"/>
<path opacity="0.1" d="M544.932 55.134C544.532 55.1521 543.99 54.7731 543.49 54.8429C542.989 54.9126 538.244 55.9908 538.244 55.9908C539.271 56.4614 540.382 56.7201 541.511 56.7512C542.643 56.9767 543.787 57.1401 544.937 57.2409C546.087 57.1401 547.231 56.9767 548.363 56.7512C549.492 56.7201 550.603 56.4614 551.63 55.9908C551.63 55.9908 546.738 54.9151 546.233 54.8429C545.728 54.7707 545.298 55.1184 544.932 55.134Z" fill="black"/>
<path d="M531.787 38.624C532.89 37.8542 534.203 37.4452 535.548 37.4532C537.039 37.5004 538.497 37.9017 539.802 38.624C538.975 39.9423 537.499 40.7095 535.946 40.6298C534.321 40.6565 532.779 39.9128 531.787 38.624ZM558.025 38.624C557.033 39.9128 555.491 40.6565 553.866 40.6298C552.313 40.7091 550.838 39.9419 550.011 38.624C551.316 37.9017 552.775 37.5004 554.266 37.4532C555.609 37.4455 556.923 37.8545 558.025 38.624Z" fill="white"/>
<path d="M534.269 37.4763C534.684 37.3556 535.114 37.2925 535.547 37.2886C536.191 37.2989 536.829 37.4177 537.433 37.6399C537.943 38.4687 537.754 39.5475 536.994 40.154C536.234 40.7605 535.141 40.704 534.447 40.0223C533.753 39.3406 533.677 38.2481 534.269 37.4763ZM555.544 37.4763C556.136 38.2481 556.059 39.3406 555.366 40.0223C554.672 40.704 553.579 40.7605 552.819 40.154C552.059 39.5475 551.87 38.4687 552.38 37.6399C552.984 37.4177 553.622 37.2989 554.266 37.2886C554.698 37.2925 555.128 37.3556 555.544 37.4763Z" fill="#3B93B2"/>
<path d="M535.795 39.6695C535.286 39.6695 534.873 39.2563 534.873 38.7466C534.873 38.2369 535.286 37.8237 535.795 37.8237C536.304 37.8237 536.717 38.2369 536.717 38.7466C536.717 39.2563 536.304 39.6695 535.795 39.6695ZM554.019 39.6695C553.51 39.6695 553.097 39.2563 553.097 38.7466C553.097 38.2369 553.51 37.8237 554.019 37.8237C554.528 37.8237 554.941 38.2369 554.941 38.7466C554.941 39.2563 554.528 39.6695 554.019 39.6695Z" fill="#534741"/>
<path d="M534.754 39.2282C534.489 39.2282 534.273 39.0127 534.273 38.7469C534.273 38.4811 534.489 38.2656 534.754 38.2656C535.02 38.2656 535.235 38.4811 535.235 38.7469C535.235 39.0127 535.02 39.2282 534.754 39.2282ZM552.954 39.2282C552.688 39.2282 552.473 39.0127 552.473 38.7469C552.473 38.4811 552.688 38.2656 552.954 38.2656C553.22 38.2656 553.435 38.4811 553.435 38.7469C553.435 39.0127 553.22 39.2282 552.954 39.2282Z" fill="white"/>
<path d="M531.237 38.7096C531.839 38.1114 532.589 37.6838 533.411 37.4702C534.191 37.2527 534.996 37.1374 535.806 37.1273C536.622 37.1117 537.435 37.2337 538.21 37.4883C538.995 37.7347 539.698 38.1926 540.241 38.8119L540.235 38.8046C540.334 38.9257 540.348 39.0961 540.27 39.2318C540.205 39.3326 540.114 39.4135 540.006 39.4652C539.811 39.5637 539.58 39.5637 539.385 39.4652C539.251 39.4219 539.099 39.5735 538.931 39.671C538.764 39.7684 538.607 39.8779 538.442 39.9742C538.583 39.8418 538.725 39.7131 538.87 39.5916C539.016 39.4941 539.135 39.2811 539.406 39.2908C539.647 39.3389 539.742 39.3726 539.887 39.2679C540.033 39.1632 540.078 39.0489 540.019 39.0056L540.012 38.9972C539.462 38.4938 538.789 38.1433 538.061 37.9804C537.335 37.7955 536.582 37.734 535.836 37.7987C535.086 37.8483 534.344 37.9749 533.62 38.1765C532.922 38.3502 532.268 38.6651 531.696 39.1018L531.652 39.1403C531.532 39.2426 531.353 39.234 531.244 39.1207C531.134 39.0073 531.132 38.8283 531.238 38.712L531.237 38.7096ZM558.116 39.1054C557.544 38.6688 556.89 38.3538 556.192 38.1801C555.468 37.9785 554.726 37.8519 553.976 37.8023C553.23 37.7376 552.477 37.7991 551.751 37.984C551.023 38.1469 550.35 38.4974 549.8 39.0008L549.793 39.0092C549.734 39.0525 549.767 39.1728 549.925 39.2715C550.082 39.3702 550.165 39.3425 550.406 39.2944C550.679 39.2847 550.798 39.4977 550.942 39.5952C551.087 39.7155 551.229 39.8455 551.37 39.9778C551.205 39.8815 551.04 39.7817 550.881 39.6746C550.721 39.5675 550.561 39.4255 550.427 39.4688C550.232 39.5673 550.001 39.5673 549.806 39.4688C549.698 39.4171 549.607 39.3362 549.542 39.2354C549.464 39.0997 549.478 38.9294 549.577 38.8082L549.571 38.8155C550.114 38.1962 550.817 37.7383 551.602 37.4919C552.377 37.2373 553.19 37.1153 554.006 37.1309C554.816 37.141 555.621 37.2563 556.401 37.4738C557.223 37.6874 557.973 38.115 558.575 38.7132C558.682 38.8292 558.68 39.0083 558.571 39.1221C558.461 39.2358 558.283 39.2449 558.163 39.1427L558.116 39.1054Z" fill="#826F67"/>
<path d="M542.476 36.0889C541.237 37.5208 538.402 35.7604 536.717 35.462C528.822 34.065 529.248 35.9878 529.248 35.9878C529.116 34.9238 529.605 33.8782 530.505 33.2974C532.751 31.7331 538.892 32.8161 540.724 33.7065C542.208 34.4272 542.965 35.5246 542.476 36.0889ZM547.338 36.0889C546.85 35.5246 547.606 34.4272 549.09 33.7065C550.922 32.8161 557.063 31.7331 559.309 33.2974C560.209 33.8782 560.698 34.9238 560.566 35.9878C560.566 35.9878 560.992 34.065 553.097 35.462C551.412 35.7604 548.577 37.5208 547.338 36.0889Z" fill="#212C33"/>
<path d="M523.97 41.9222C521.52 38.2114 519.686 32.822 520.137 24.5497C520.588 16.2773 522.221 14.6229 522.221 14.6229C520.535 15.1433 519.065 16.1994 518.033 17.631C518.258 14.865 519.833 12.3885 522.241 11.0131C526.299 8.757 527.05 8.757 527.05 8.757C527.649 5.06167 530.295 2.02856 533.873 0.935863C540.124 -1.16983 542.625 0.935863 542.625 0.935863C540.936 0.619843 539.22 1.32672 538.242 2.74074C543.283 1.5105 548.577 1.82491 553.437 3.64318C562.066 6.65131 568.377 16.4277 570.181 20.6391L565.48 18.5298C567.621 21.8737 568.971 25.6621 569.429 29.607C570.03 35.8266 570.181 39.2859 570.181 39.2859L567.425 36.0251C567.425 36.0251 567.776 45.2011 565.872 50.0947C565.872 50.0947 561.839 33.4189 549.633 27.2522C549.633 27.2522 549.788 28.9067 552.094 31.0124C552.094 31.0124 544.932 33.3683 539.734 30.7224C537.057 29.3718 534.692 27.4762 532.791 25.1573C533.901 27.7162 535.454 30.0585 537.379 32.076C534.76 31.808 532.217 31.0423 529.885 29.8199C529.885 29.8199 529.284 36.8854 530.866 38.8672C530.866 38.8672 526.681 37.0274 526.447 32.6668C526.447 32.6668 526.285 43.0076 530.053 46.6173C530.056 46.6221 526.917 46.3827 523.97 41.9222Z" fill="#212C33"/>
<path d="M589.179 82.4612C586.699 77.9694 581.704 78.3196 581.084 75.723C580.203 72.0326 576.916 72.8352 573.871 68.6599C571.012 64.7397 557.52 67.5408 557.52 67.5408C557.52 67.5408 557.199 68.1822 559.123 69.6213C561.046 71.0604 572.45 74.8735 572.45 74.8735V88.019C554.027 87.0765 535.569 87.0765 517.146 88.019V74.9204C517.146 74.9204 528.447 71.0604 530.371 69.6261C532.294 68.1918 531.973 67.5457 531.973 67.5457C531.973 67.5457 518.482 64.7445 515.623 68.6647C512.578 72.84 509.291 72.0338 508.409 75.7278C507.789 78.3244 502.795 77.9742 500.315 82.466C498.76 85.2768 491.601 121.469 492.242 130.402C492.882 139.386 517.9 147.888 544.82 147.889C571.739 147.89 596.757 139.386 597.397 130.402C598.038 121.419 590.593 85.0205 589.179 82.4612Z" fill="#2C3A44"/>
<path opacity="0.2" d="M531.262 68.8559C516.263 68.0136 517.147 74.9203 517.147 74.9203C517.147 74.9203 528.448 71.0603 530.371 69.626C530.687 69.3915 530.984 69.1341 531.262 68.8559Z" fill="black"/>
<path opacity="0.2" d="M558.232 68.8559C573.232 68.0136 572.45 74.8721 572.45 74.8721C572.45 74.8721 561.047 71.059 559.123 69.6199C558.808 69.3874 558.51 69.132 558.232 68.8559Z" fill="black"/>
<path d="M561.782 70.9482C557.319 73.7811 552.216 75.4476 546.942 75.7949C546.234 75.8467 545.52 75.8828 544.798 75.8828C544.077 75.8828 543.367 75.8479 542.661 75.7949C537.372 75.4484 532.255 73.7755 527.782 70.9302C523.814 72.6388 517.146 74.9202 517.146 74.9202V127.103H572.45V74.8732C572.45 74.8732 565.779 72.6424 561.782 70.9482Z" fill="#F498C8"/>
<path opacity="0.05" d="M547.416 75.748L597.267 125.641C596.204 112.525 590.414 84.6869 589.178 82.4597C586.698 77.968 581.704 78.3181 581.084 75.7215C580.202 72.0311 576.916 72.8337 573.87 68.6584C571.011 64.7382 557.52 67.5394 557.52 67.5394C557.52 67.5394 557.199 68.1807 559.122 69.6198C559.965 70.1452 560.856 70.5884 561.783 70.9434C557.454 73.6878 552.524 75.3368 547.416 75.748Z" fill="black"/>
<path opacity="0.05" d="M553.435 3.64319C550.665 2.66946 547.762 2.12729 544.828 2.03564V31.9605C547.285 32.0408 549.739 31.7218 552.093 31.016C549.787 28.9103 549.632 27.2558 549.632 27.2558C561.839 33.4225 565.871 50.0983 565.871 50.0983C567.774 45.2047 567.424 36.0287 567.424 36.0287L570.18 39.2895C570.18 39.2895 570.03 35.8302 569.429 29.6106C568.971 25.6645 567.62 21.8748 565.479 18.5298L570.18 20.6355C568.377 16.4277 562.065 6.65132 553.435 3.64319Z" fill="black"/>
<path d="M508.4 99H581.6C582.925 99 584 100.075 584 101.4V150H506V101.4C506 100.075 507.075 99 508.4 99Z" fill="#899CAB"/>
<path d="M506 150H584V152.6C584 153.925 582.925 155 581.6 155H508.4C507.075 155 506 153.925 506 152.6V150Z" fill="#505B63"/>
<path opacity="0.05" d="M545 155V99H581.562C582.909 99 584 100.067 584 101.383V152.617C584 153.933 582.909 155 581.562 155H545Z" fill="black"/>
<path d="M254.001 132.465C240.703 109.038 240.703 97.9917 254.001 99.325C267.298 97.9917 267.298 109.038 254.001 132.465Z" fill="#156744"/>
<path opacity="0.2" d="M254 99.5952C249.733 100.294 247.4 102.429 247 106C246.6 109.571 248.133 115.571 251.6 124C250.533 115.778 250 110.278 250 107.5C250 104.722 251.333 102.087 254 99.5952Z" fill="black"/>
<path opacity="0.2" d="M254 99.5952C258.267 100.294 260.6 102.429 261 106C261.4 109.571 259.867 115.571 256.4 124C257.467 115.778 258 110.278 258 107.5C258 104.722 256.667 102.087 254 99.5952Z" fill="black"/>
<path opacity="0.2" d="M254 124.595C251.667 113.198 251.667 104.865 254 99.5952C256.333 104.865 256.333 113.198 254 124.595Z" fill="black"/>
<path d="M243.384 120H264.617C265.279 120 265.817 120.537 265.817 121.2C265.817 121.257 265.812 121.313 265.804 121.37L262.123 147.141C262.052 147.634 261.63 148 261.133 148H246.867C246.37 148 245.948 147.634 245.877 147.141L242.196 121.37C242.102 120.714 242.558 120.106 243.214 120.012C243.27 120.004 243.327 120 243.384 120Z" fill="#F5D3E4"/>
<path d="M265.8 120H242.2C241.537 120 241 120.537 241 121.2V124.8C241 125.463 241.537 126 242.2 126H265.8C266.463 126 267 125.463 267 124.8V121.2C267 120.537 266.463 120 265.8 120Z" fill="#F5D3E4"/>
<path opacity="0.2" d="M628 155C639.598 155 649 145.598 649 134C649 122.402 639.598 113 628 113C616.402 113 607 122.402 607 134C607 145.598 616.402 155 628 155Z" fill="white"/>
<path opacity="0.2" d="M628 150C636.837 150 644 142.837 644 134C644 125.163 636.837 118 628 118C619.163 118 612 125.163 612 134C612 142.837 619.163 150 628 150Z" fill="white"/>
<path d="M638 123H618C617.448 123 617 123.448 617 124V165C617 165.552 617.448 166 618 166H638C638.552 166 639 165.552 639 165V124C639 123.448 638.552 123 638 123Z" fill="#F2F2F2"/>
<path opacity="0.1" d="M617 124C617 123.724 617.112 123.474 617.293 123.293L620.414 126.414C620.789 126.789 621 127.298 621 127.829V166H618C617.448 166 617 165.552 617 165V124Z" fill="black"/>
<path opacity="0.1" d="M639 124C639 123.724 638.888 123.474 638.707 123.293L635.586 126.414C635.211 126.789 635 127.298 635 127.829V166H638C638.552 166 639 165.552 639 165V124Z" fill="black"/>
<path d="M624 130C624.552 130 625 129.552 625 129C625 128.448 624.552 128 624 128C623.448 128 623 128.448 623 129C623 129.552 623.448 130 624 130Z" fill="#4B565D"/>
<path d="M632 130C632.552 130 633 129.552 633 129C633 128.448 632.552 128 632 128C631.448 128 631 128.448 631 129C631 129.552 631.448 130 632 130Z" fill="#4B565D"/>
<path opacity="0.2" d="M630 148H626C625.448 148 625 148.448 625 149V161C625 161.552 625.448 162 626 162H630C630.552 162 631 161.552 631 161V149C631 148.448 630.552 148 630 148Z" fill="black"/>
<path opacity="0.2" d="M474 156C485.598 156 495 146.598 495 135C495 123.402 485.598 114 474 114C462.402 114 453 123.402 453 135C453 146.598 462.402 156 474 156Z" fill="white"/>
<path opacity="0.2" d="M474 151C482.837 151 490 143.837 490 135C490 126.163 482.837 119 474 119C465.163 119 458 126.163 458 135C458 143.837 465.163 151 474 151Z" fill="white"/>
<path d="M484 124H464C463.448 124 463 124.448 463 125V166C463 166.552 463.448 167 464 167H484C484.552 167 485 166.552 485 166V125C485 124.448 484.552 124 484 124Z" fill="#F2F2F2"/>
<path opacity="0.1" d="M463 125C463 124.724 463.112 124.474 463.293 124.293L466.414 127.414C466.789 127.789 467 128.298 467 128.829V167H464C463.448 167 463 166.552 463 166V125Z" fill="black"/>
<path opacity="0.1" d="M485 125C485 124.724 484.888 124.474 484.707 124.293L481.586 127.414C481.211 127.789 481 128.298 481 128.829V167H484C484.552 167 485 166.552 485 166V125Z" fill="black"/>
<path d="M470 131C470.552 131 471 130.552 471 130C471 129.448 470.552 129 470 129C469.448 129 469 129.448 469 130C469 130.552 469.448 131 470 131Z" fill="#4B565D"/>
<path d="M478 131C478.552 131 479 130.552 479 130C479 129.448 478.552 129 478 129C477.448 129 477 129.448 477 130C477 130.552 477.448 131 478 131Z" fill="#4B565D"/>
<path opacity="0.2" d="M476 149H472C471.448 149 471 149.448 471 150V162C471 162.552 471.448 163 472 163H476C476.552 163 477 162.552 477 162V150C477 149.448 476.552 149 476 149Z" fill="black"/>
<path d="M629 156C629.552 156 630 155.552 630 155C630 154.448 629.552 154 629 154C628.448 154 628 154.448 628 155C628 155.552 628.448 156 629 156Z" fill="#4B565D"/>
<path d="M629 160C629.552 160 630 159.552 630 159C630 158.448 629.552 158 629 158C628.448 158 628 158.448 628 159C628 159.552 628.448 160 629 160Z" fill="#4B565D"/>
<path d="M474 157C474.552 157 475 156.552 475 156C475 155.448 474.552 155 474 155C473.448 155 473 155.448 473 156C473 156.552 473.448 157 474 157Z" fill="#4B565D"/>
<path d="M474 156C483.205 164.976 495.553 170 508.41 170H601.905C612.029 170 621.752 166.044 629 158.976" stroke="#4B565D"/>
<path d="M630 155.507V162C630 168.627 624.627 174 618 174H614.695C608.068 174 602.695 168.627 602.695 162V161C602.695 153.82 596.875 148 589.695 148H584" stroke="#4B565D"/>
<path d="M96 153H100C101.105 153 102 152.105 102 151V150C102 148.895 101.105 148 100 148H96V146H100C102.209 146 104 147.791 104 150V151C104 153.209 102.209 155 100 155H96V153Z" fill="#B5E1E3"/>
<path d="M74.3147 142H98.7524C99.3047 142 99.7524 142.448 99.7524 143C99.7524 143.073 99.7445 143.146 99.7286 143.217L96.3471 158.434C96.1437 159.349 95.3321 160 94.3947 160H79.5192C78.6208 160 77.8327 159.401 77.5922 158.535L73.3512 143.268C73.2034 142.736 73.5149 142.184 74.0471 142.036C74.1342 142.012 74.2243 142 74.3147 142V142Z" fill="#B5E1E3"/>
<path d="M72 158H102V159.6C102 160.925 100.925 162 99.6 162H74.4C73.0745 162 72 160.925 72 159.6V158Z" fill="#B5E1E3"/>
<path d="M158 158C161.866 158 165 154.866 165 151C165 147.134 161.866 144 158 144C154.134 144 151 147.134 151 151C151 154.866 154.134 158 158 158Z" fill="#D0AC8C"/>
<path d="M166 156C169.866 156 173 152.866 173 149C173 145.134 169.866 142 166 142C162.134 142 159 145.134 159 149C159 152.866 162.134 156 166 156Z" fill="#B8977B"/>
<path d="M171 160C174.866 160 178 156.866 178 153C178 149.134 174.866 146 171 146C167.134 146 164 149.134 164 153C164 156.866 167.134 160 171 160Z" fill="#D0AC8C"/>
<path d="M182 156C185.866 156 189 152.866 189 149C189 145.134 185.866 142 182 142C178.134 142 175 145.134 175 149C175 152.866 178.134 156 182 156Z" fill="#B8977B"/>
<path d="M189 160C192.866 160 196 156.866 196 153C196 149.134 192.866 146 189 146C185.134 146 182 149.134 182 153C182 156.866 185.134 160 189 160Z" fill="#D0AC8C"/>
<path opacity="0.5" d="M146 149H202L197.287 159.211C196.502 160.911 194.801 162 192.929 162H155.199C153.249 162 151.477 160.866 150.659 159.095L146 149Z" fill="white"/>
<path opacity="0.5" d="M148.522 149L152.723 158.241C153.21 159.312 154.278 160 155.454 160H192.568C193.745 160 194.813 159.312 195.299 158.241L199.5 149H202L197.287 159.211C196.502 160.911 194.801 162 192.929 162H155.199C153.249 162 151.477 160.866 150.659 159.095L146 149H148.522Z" fill="white"/>
<path d="M206 160H194C193.448 160 193 160.448 193 161C193 161.552 193.448 162 194 162H206C206.552 162 207 161.552 207 161C207 160.448 206.552 160 206 160Z" fill="#B8977B"/>
<path d="M210 158H198C197.448 158 197 158.448 197 159C197 159.552 197.448 160 198 160H210C210.552 160 211 159.552 211 159C211 158.448 210.552 158 210 158Z" fill="#D0AC8C"/>
<path d="M349 102H419C422.314 102 425 104.686 425 108V152C425 153.105 424.105 154 423 154H345C343.895 154 343 153.105 343 152V108C343 104.686 345.686 102 349 102Z" fill="#2C3A44"/>
<path d="M349 102H352V154H345C343.895 154 343 153.105 343 152V108C343 104.686 345.686 102 349 102Z" fill="#3A4C59"/>
<path d="M419 102H416V154H423C424.105 154 425 153.105 425 152V108C425 104.686 422.314 102 419 102Z" fill="#3A4C59"/>
<path d="M358 119H410C411.105 119 412 119.895 412 121V154H356V121C356 119.895 356.895 119 358 119Z" fill="#232E36"/>
<path d="M412 152H356V154H412V152Z" fill="#3A4C59"/>
<path d="M412 138H356V152H412V138Z" fill="#1C252B"/>
<path d="M407 102H361V113H407V102Z" fill="#1C252B"/>
<path d="M413 111H411C410.448 111 410 111.448 410 112C410 112.552 410.448 113 411 113H413C413.552 113 414 112.552 414 112C414 111.448 413.552 111 413 111Z" fill="#9CC8FF"/>
<path d="M404 144H364V152H404V144Z" fill="white"/>
<path d="M330 148H290V160H330V148Z" fill="white"/>
<path d="M404 99H364V113H404V99Z" fill="white"/>
<path opacity="0.6" d="M374 105H394C395.105 105 396 105.895 396 107V113H372V107C372 105.895 372.895 105 374 105Z" fill="#4A90E2"/>
<path opacity="0.05" d="M330 158H290V160H330V158Z" fill="black"/>
<path opacity="0.05" d="M330 154H290V156H330V154Z" fill="black"/>
<path opacity="0.05" d="M330 150H290V152H330V150Z" fill="black"/>
<path opacity="0.05" d="M404 150H364V152H404V150Z" fill="black"/>
<path opacity="0.05" d="M404 146H364V148H404V146Z" fill="black"/>
<path d="M379 149H389C389.552 149 390 149.448 390 150V152H378V150C378 149.448 378.448 149 379 149Z" fill="#92BCEE"/>
</svg>
