<svg width="256" height="180" viewBox="0 0 256 180" fill="none" xmlns="http://www.w3.org/2000/svg">
<path opacity="0.3" d="M2 142H254C255.105 142 256 142.895 256 144V175H0V144C0 142.895 0.895431 142 2 142Z" fill="#293E51"/>
<path opacity="0.4" d="M0 175H256V178C256 179.105 255.105 180 254 180H2C0.895431 180 0 179.105 0 178V175Z" fill="#293E51"/>
<path opacity="0.05" d="M240 175L219.71 155L203 156.765L221.5 175H240Z" fill="black"/>
<path opacity="0.05" d="M198 175L167.947 145L84 146.5L112.649 175H198Z" fill="black"/>
<path opacity="0.05" d="M85 175L63.5 153L42 154.222L62.3055 175H85Z" fill="black"/>
<path d="M166.14 75.9654C160.749 72.5643 151.594 70.4366 144.641 68.9119C143.353 68.4183 142.164 67.6997 141.13 66.7901C139.861 64.8644 139.038 61.5715 138.721 59.2917C138.6 59.3994 138.488 59.5095 138.368 59.616C136.45 61.3353 134.352 62.6944 132.078 63.6981C130.689 64.1947 129.214 64.4056 127.741 64.318C126.219 64.4056 124.744 64.1947 123.355 63.6981C121.081 62.6944 118.983 61.3353 117.141 59.6723C116.953 59.4629 116.828 59.3492 116.696 59.2295C116.378 61.5564 115.533 64.8929 114.225 66.8488C113.177 67.7567 111.973 68.4701 110.67 68.955C109.803 69.1465 94.0055 73.0239 89.3343 75.9726C83.0092 79.9601 84.2559 84.1294 82.6973 89.1461H172.78C171.223 84.1294 172.47 79.9589 166.14 75.9654Z" fill="#FFDBB0"/>
<path d="M117.09 60.7564L117.14 60.7839C118.981 62.4469 121.079 63.8061 123.354 64.8097C124.742 65.3063 126.217 65.5172 127.69 65.4296H127.74C129.212 65.5172 130.688 65.3063 132.076 64.8097C134.35 63.8061 136.448 62.4469 138.29 60.7839L138.366 60.7277C140.623 58.8412 142.496 56.5423 143.882 53.9554C145.122 51.2221 144.619 48.3452 145.192 44.5564C147.987 45.9637 151.623 33.7093 150.185 31.481C148.841 29.3963 146.965 31.2022 146.721 31.4523L146.739 24.4622C146.739 9.2938 138.236 5.36377 127.746 5.36377C117.255 5.36377 108.745 9.2938 108.745 24.4622L108.727 31.481C108.727 31.481 106.679 29.2467 105.234 31.481C103.788 33.7153 107.49 46.0391 110.293 44.5456C110.864 48.3225 110.341 51.1683 111.572 53.8956C112.956 56.4935 114.829 58.8031 117.09 60.699C117.23 60.8186 117.231 60.8282 117.09 60.7049V60.7564Z" fill="#FFDBB0"/>
<path opacity="0.05" d="M166.141 75.9655C160.75 72.5644 151.595 70.4366 144.642 68.912C143.354 68.4183 142.165 67.6998 141.131 66.7902C139.97 64.7214 139.216 62.5459 138.898 60.2661C138.778 60.3738 138.489 60.6211 138.369 60.7276C136.451 62.4469 134.353 63.806 132.079 64.8096C130.69 65.3063 129.215 65.5172 127.742 65.4296C126.22 65.5172 124.745 65.3063 123.357 64.8096C121.103 63.8153 119.023 62.4709 117.195 60.827L145.697 89.1462H172.781C171.224 84.1295 172.471 79.9589 166.141 75.9655Z" fill="black"/>
<path d="M112.172 32.4813C112.692 31.5975 113.467 30.8885 114.397 30.4457C116.685 29.3746 120.356 30.1525 122.7 30.3918C123.442 30.4684 125.907 33.7151 125.61 33.7295C118.484 34.0753 120.533 32.1486 117.339 31.4641C115.55 31.0628 113.672 31.4323 112.172 32.4813ZM143.359 32.4813C141.858 31.4323 139.981 31.0628 138.191 31.4641C134.998 32.1486 137.047 34.0753 129.921 33.7295C129.623 33.7151 132.089 30.4684 132.831 30.3918C135.175 30.1525 138.845 29.3746 141.134 30.4457C142.063 30.8885 142.838 31.5975 143.359 32.4813Z" fill="#624D48"/>
<path d="M115.057 36.9391C116.321 36.2872 117.727 35.9531 119.152 35.9662C120.525 36.0031 121.848 36.4847 122.92 37.3376C121.833 38.3401 120.385 38.8633 118.904 38.7883C117.423 38.7132 116.035 38.0463 115.057 36.9391ZM140.474 36.9391C139.495 38.0466 138.108 38.7138 136.626 38.7889C135.145 38.8639 133.696 38.3405 132.609 37.3376C133.682 36.4844 135.005 36.0028 136.378 35.9662C137.803 35.9531 139.209 36.2872 140.474 36.9391Z" fill="white"/>
<path d="M119.148 35.9662C119.736 36.0244 120.318 36.1361 120.885 36.3001C120.975 36.5496 121.01 36.8151 120.989 37.0792C120.931 37.7609 120.512 38.3605 119.89 38.6521C119.267 38.9437 118.535 38.883 117.969 38.4929C117.403 38.1028 117.09 37.4426 117.147 36.7608C117.17 36.5392 117.233 36.3235 117.333 36.1242C117.925 35.9735 118.538 35.9202 119.148 35.9662ZM136.384 35.9662C136.994 35.9202 137.607 35.9735 138.199 36.1242C138.299 36.3235 138.362 36.5392 138.385 36.7608C138.442 37.4426 138.129 38.1028 137.563 38.4929C136.997 38.883 136.265 38.9437 135.642 38.6521C135.02 38.3605 134.601 37.7609 134.543 37.0792C134.522 36.8151 134.557 36.5496 134.647 36.3001C135.214 36.1361 135.796 36.0244 136.384 35.9662Z" fill="#3B93B2"/>
<path d="M120.021 37.0008C119.977 37.5312 119.514 37.9255 118.987 37.8815C118.46 37.8375 118.069 37.3719 118.113 36.8415C118.157 36.3111 118.62 35.9169 119.147 35.9609C119.674 36.0049 120.065 36.4705 120.021 37.0008ZM136.543 37.8744C136.012 37.9187 135.547 37.5274 135.503 37.0005C135.459 36.4736 135.853 36.0106 136.383 35.9663C136.914 35.922 137.379 36.3132 137.423 36.8402C137.467 37.3671 137.073 37.8301 136.543 37.8744Z" fill="#534741"/>
<path d="M118.362 37.0573C118.34 37.3225 118.108 37.5196 117.845 37.4976C117.581 37.4756 117.386 37.2428 117.408 36.9776C117.43 36.7125 117.662 36.5153 117.925 36.5373C118.189 36.5593 118.384 36.7921 118.362 37.0573ZM135.374 37.5235C135.108 37.5456 134.876 37.3498 134.854 37.0862C134.832 36.8227 135.029 36.5911 135.294 36.569C135.56 36.5469 135.792 36.7427 135.814 37.0063C135.836 37.2698 135.639 37.5014 135.374 37.5235Z" fill="white"/>
<path d="M114.919 36.6102C115.586 36.3518 116.244 36.1196 116.935 35.9221C117.632 35.696 118.358 35.573 119.09 35.5571C119.825 35.586 120.548 35.7482 121.224 36.0358C121.897 36.3143 122.521 36.6994 123.07 37.1763C123.118 37.2205 123.144 37.2836 123.141 37.3486V37.357C123.126 37.5529 123.1 37.7478 123.064 37.941V37.9697C123.051 38.0527 122.98 38.1144 122.895 38.1157C122.628 38.129 122.362 38.1691 122.103 38.2354C121.834 38.3024 121.566 38.3778 121.297 38.4628C121.533 38.3072 121.779 38.1677 122.034 38.0451C122.296 37.9121 122.572 37.807 122.856 37.7316L122.683 37.9063C122.68 37.7098 122.687 37.5133 122.704 37.3175L122.775 37.4982C121.731 36.6473 120.43 36.1693 119.081 36.1411C118.414 36.1828 117.757 36.3199 117.129 36.548C116.478 36.7562 115.825 37.0016 115.202 37.266H115.196C115.019 37.3201 114.829 37.2321 114.757 37.0624C114.685 36.8926 114.754 36.6962 114.917 36.6078L114.919 36.6102ZM140.336 37.2684C139.707 37.0052 139.054 36.7598 138.409 36.5504C137.781 36.3223 137.124 36.1852 136.457 36.1435C135.109 36.1719 133.81 36.6489 132.767 37.4982L132.838 37.3175C132.855 37.5133 132.862 37.7098 132.858 37.9063L132.686 37.7316C132.97 37.807 133.246 37.9121 133.508 38.0451C133.762 38.1677 134.009 38.3073 134.245 38.4628C133.976 38.3778 133.707 38.3012 133.439 38.2354C133.179 38.1691 132.914 38.129 132.646 38.1157C132.562 38.1144 132.491 38.0527 132.478 37.9697V37.941C132.442 37.7478 132.416 37.5529 132.401 37.357V37.3498C132.397 37.2844 132.423 37.2209 132.472 37.1763C133.021 36.6994 133.645 36.3143 134.318 36.0358C134.994 35.7482 135.717 35.586 136.451 35.5571C137.184 35.573 137.91 35.696 138.606 35.9221C139.293 36.1196 139.955 36.3518 140.623 36.6102C140.756 36.6467 140.856 36.7553 140.882 36.89C140.907 37.0247 140.853 37.1621 140.743 37.2441C140.632 37.326 140.484 37.3383 140.361 37.2756H140.354L140.336 37.2684Z" fill="#826F67"/>
<path opacity="0.08" d="M129.667 48.0222C128.499 48.7937 126.98 48.7937 125.812 48.0222C124.904 47.6842 123.964 47.4392 123.006 47.291C123.024 47.4274 123.206 47.6788 123.926 47.9432C124.684 48.2209 126.169 49.925 127.71 49.9358H127.741C129.28 49.925 130.767 48.2209 131.524 47.9432C132.23 47.6847 132.418 47.4729 132.443 47.2994C131.496 47.4473 130.566 47.6894 129.667 48.0222Z" fill="black"/>
<path opacity="0.1" d="M129.038 53.419C128.533 53.3472 128.107 53.6919 127.74 53.7086C127.339 53.7254 126.796 53.3496 126.294 53.419C125.793 53.4884 121.039 54.5607 121.039 54.5607C122.027 55.1328 122.939 55.8246 123.755 56.6202C124.706 57.9366 130.753 57.9366 131.705 56.6202C132.53 55.8223 133.453 55.1304 134.452 54.5607C134.452 54.5607 129.544 53.4932 129.038 53.419Z" fill="black"/>
<path opacity="0.1" d="M127.74 53.7091C127.339 53.727 126.796 53.3501 126.294 53.4195C125.793 53.4889 121.039 54.5611 121.039 54.5611C122.134 54.5478 123.228 54.617 124.312 54.7682C125.446 54.9924 126.592 55.155 127.745 55.2552C128.897 55.155 130.043 54.9924 131.178 54.7682C132.262 54.617 133.356 54.5478 134.45 54.5611C134.45 54.5611 129.549 53.4913 129.043 53.4195C128.537 53.3477 128.107 53.6935 127.74 53.7091Z" fill="black"/>
<path d="M166.139 76.012C160.749 72.8526 151.593 70.8756 144.64 69.4587C144.139 69.2772 143.65 69.0629 143.177 68.8173C139.257 73.2011 133.637 75.7096 127.735 75.7096C121.833 75.7096 116.212 73.2011 112.292 68.8173L112.277 68.7993C111.759 69.0679 111.223 69.2994 110.672 69.4922C109.805 69.6705 94.0074 73.2751 89.3362 76.0108C83.0075 79.7206 83.0509 84.4835 81.4922 89.1424H173.984C172.427 84.4883 172.469 79.723 166.139 76.012Z" fill="white"/>
<path d="M173.969 89.1461H173.986C172.428 84.1294 172.47 79.0015 166.141 75.008C160.751 71.6069 151.595 69.4792 144.642 67.9546C144.139 67.7583 143.65 67.5276 143.179 67.264L127.737 86.633L112.277 67.2461C111.762 67.5344 111.226 67.7841 110.673 67.9929C109.806 68.1843 94.0081 72.0617 89.3369 75.0104C83.0094 79.0027 83.0516 84.1294 81.4929 89.1461C79.8704 93.2951 74.4102 119.303 75.0522 128.239C75.6942 137.175 100.76 145.63 127.731 145.631C154.702 145.633 179.767 137.174 180.409 128.239C181.051 119.305 175.592 93.2951 173.969 89.1461Z" fill="#276874"/>
<path d="M115.573 64.0151C118.464 76.8201 122.921 80.5945 122.921 80.5945C121.434 80.5515 119.952 80.41 118.485 80.1709C116.577 79.8119 116.055 77.0594 114.579 77.4184C113.104 77.7774 106.833 83.5468 106.764 83.043C106.152 77.9849 107.058 72.8598 109.367 68.3114C110.821 67.7876 112.154 66.9776 113.285 65.9299C113.998 65.235 114.763 64.5949 115.573 64.0151ZM139.697 64.0151C140.507 64.5949 141.272 65.235 141.985 65.9299C143.116 66.9776 144.449 67.7876 145.903 68.3114C148.212 72.8598 149.118 77.9849 148.506 83.043C148.437 83.5468 142.166 77.7774 140.69 77.4184C139.215 77.0594 138.693 79.8119 136.785 80.1709C135.318 80.41 133.836 80.5515 132.349 80.5945C132.349 80.5945 136.806 76.8201 139.697 64.0151Z" fill="#1E5059"/>
<path d="M122.565 53.6562C124.219 52.9458 125.961 52.4553 127.744 52.1974C129.528 52.4553 131.269 52.9458 132.924 53.6562C134.072 54.1225 135.376 54.0112 136.428 53.357L136.929 53.0447C136.018 50.2479 130.698 50.1929 130.698 50.1929C129.798 50.7125 128.786 51.01 127.747 51.0605C126.707 51.01 125.695 50.7125 124.796 50.1929C124.796 50.1929 119.767 50.2491 118.564 53.0447L119.069 53.3582C120.119 54.0091 121.419 54.12 122.565 53.6562Z" fill="#624D48"/>
<path opacity="0.05" d="M150.178 31.4809C148.833 29.3962 146.958 31.202 146.713 31.4522L146.732 24.4621C146.732 9.29366 138.229 5.36363 127.738 4.40625V64.4733C127.738 65.4307 127.738 65.4307 127.738 65.4307C129.211 65.5183 130.686 65.3074 132.075 64.8108C134.349 63.8071 136.447 62.448 138.289 60.785C140.59 58.8781 142.48 56.5621 143.878 53.9541C145.119 51.2208 144.615 48.3439 145.189 44.5551C147.981 45.9636 151.616 33.7092 150.178 31.4809Z" fill="black"/>
<path opacity="0.05" d="M138.309 60.7744H138.308L138.303 60.7792L138.309 60.7744Z" fill="black"/>
<path opacity="0.05" d="M173.984 89.1461C172.427 84.1307 172.468 79.0039 166.14 75.0116C160.943 71.7314 152.25 69.6372 145.399 68.1245C144.148 67.5853 142.994 66.845 141.984 65.9333C141.272 65.2384 140.506 64.5983 139.696 64.0186C138.976 67.3512 137.945 70.6097 136.615 73.7515C135.075 74.4661 133.452 74.9887 131.783 75.3072V75.3324L180.342 123.576C179.59 112.434 175.362 92.7207 173.968 89.1533H173.984V89.1461Z" fill="black"/>
<path d="M147.236 11.9098C146.419 8.93233 142.17 4.66721 138.03 3.70984C135.293 3.08993 133.888 0 127.76 0C121.591 0 120.187 3.08993 117.45 3.70984C113.305 4.66721 109.06 8.93233 108.246 11.9098C107.432 14.8872 103.789 19.2181 104.753 24.6321C105.062 26.6857 106.069 28.5727 107.605 29.9803L110.566 39.3626C110.487 36.7502 110.578 34.1355 110.838 31.5348C111.247 28.963 114.517 20.0152 114.517 20.0152C114.517 20.0152 115.065 22.3691 120.961 21.1173C120.961 21.1173 122.045 24.6261 127.898 24.6261C133.751 24.6261 134.427 21.2526 134.427 21.2526C134.427 21.2526 139.502 24.4035 140.976 20.014C140.976 20.014 144.245 28.9619 144.655 31.5336C144.915 34.1343 145.006 36.749 144.927 39.3614L147.888 29.9791C149.424 28.5713 150.43 26.6844 150.739 24.6309C151.686 19.2181 148.054 14.8872 147.236 11.9098Z" fill="#624D48"/>
<path opacity="0.05" d="M138.029 3.70984C135.292 3.08993 133.887 0 127.759 0H127.713V24.6189C127.776 24.6189 127.833 24.6261 127.895 24.6261C133.752 24.6261 134.423 21.2526 134.423 21.2526C134.423 21.2526 139.498 24.4035 140.973 20.014C140.973 20.014 144.242 28.9619 144.651 31.5336C144.912 34.1343 145.003 36.749 144.923 39.3614L147.884 29.9791C149.42 28.5713 150.426 26.6844 150.735 24.6309C151.689 19.217 148.056 14.886 147.242 11.9086C146.428 8.93113 142.169 4.66721 138.029 3.70984Z" fill="black"/>
<path d="M168 145H85C84.4477 145 84 145.448 84 146C84 146.552 84.4477 147 85 147H168C168.552 147 169 146.552 169 146C169 145.448 168.552 145 168 145Z" fill="#CCCCCC"/>
<path d="M95 149H82.8C80.149 149 78 146.851 78 144.2V142" stroke="white" stroke-linecap="round"/>
<path d="M164 87H92C90.8954 87 90 87.8954 90 89V152C90 153.105 90.8954 154 92 154H164C165.105 154 166 153.105 166 152V89C166 87.8954 165.105 87 164 87Z" fill="#D8D8D8"/>
<path opacity="0.05" d="M152 135H104V137H152V135Z" fill="black"/>
<path opacity="0.05" d="M107.6 95H148.4C148.731 95 149 95.2686 149 95.6V96.4C149 96.7314 148.731 97 148.4 97H107.6C107.269 97 107 96.7314 107 96.4V95.6C107 95.2686 107.269 95 107.6 95Z" fill="black"/>
<path opacity="0.05" d="M148.4 98H107.6C107.269 98 107 98.2686 107 98.6V99.4C107 99.7314 107.269 100 107.6 100H148.4C148.731 100 149 99.7314 149 99.4V98.6C149 98.2686 148.731 98 148.4 98Z" fill="black"/>
<path opacity="0.05" d="M107.6 101H148.4C148.731 101 149 101.269 149 101.6V102.4C149 102.731 148.731 103 148.4 103H107.6C107.269 103 107 102.731 107 102.4V101.6C107 101.269 107.269 101 107.6 101Z" fill="black"/>
<path opacity="0.05" d="M107.6 104H148.4C148.731 104 149 104.269 149 104.6V105.4C149 105.731 148.731 106 148.4 106H107.6C107.269 106 107 105.731 107 105.4V104.6C107 104.269 107.269 104 107.6 104Z" fill="black"/>
<path opacity="0.05" d="M107.6 107H148.4C148.731 107 149 107.269 149 107.6V108.4C149 108.731 148.731 109 148.4 109H107.6C107.269 109 107 108.731 107 108.4V107.6C107 107.269 107.269 107 107.6 107Z" fill="black"/>
<path opacity="0.05" d="M148.4 110H107.6C107.269 110 107 110.269 107 110.6V111.4C107 111.731 107.269 112 107.6 112H148.4C148.731 112 149 111.731 149 111.4V110.6C149 110.269 148.731 110 148.4 110Z" fill="black"/>
<path opacity="0.1" d="M107.583 140H148.417C148.739 140 149 140.261 149 140.583V154H107V140.583C107 140.261 107.261 140 107.583 140ZM120.6 145C120.269 145 120 145.269 120 145.6V149.4C120 149.731 120.269 150 120.6 150H125.4C125.731 150 126 149.731 126 149.4V145.6C126 145.269 125.731 145 125.4 145H120.6Z" fill="black"/>
<path opacity="0.05" d="M90 113H96.8C100.776 113 104 116.224 104 120.2V154H92C90.8954 154 90 153.105 90 152V113Z" fill="black"/>
<path opacity="0.05" d="M166 113H159.2C155.224 113 152 116.224 152 120.2V154H164C165.105 154 166 153.105 166 152V113Z" fill="black"/>
<path opacity="0.3" d="M116.4 145H111.6C111.269 145 111 145.269 111 145.6V149.4C111 149.731 111.269 150 111.6 150H116.4C116.731 150 117 149.731 117 149.4V145.6C117 145.269 116.731 145 116.4 145Z" fill="black"/>
<path d="M104 160H152V160.8C152 161.463 151.463 162 150.8 162H105.2C104.537 162 104 161.463 104 160.8V160Z" fill="#D8D8D8"/>
<path d="M110 154H146C146.235 155.035 146.846 156.046 147.835 157.035C148.823 158.023 150.212 159.012 152 160H104C105.805 158.995 107.206 157.994 108.205 156.995C109.203 155.997 109.802 154.998 110 154Z" fill="#CCCCCC"/>
<path opacity="0.05" d="M146 154C146.235 154.985 146.669 155.78 147.835 156.89C149 158 150.212 159.059 152 160V160.857C152 161.488 151.463 162 150.8 162H118.4L110 154H146Z" fill="black"/>
<path opacity="0.05" d="M128 87H164C165.105 87 166 87.8954 166 89V152C166 153.105 165.105 154 164 154H128V87Z" fill="black"/>
<path d="M63 155.991H64.4C66.3882 155.991 68 154.379 68 152.391V142" stroke="white" stroke-linecap="round"/>
<path d="M44.6073 149.922C46.2682 149.307 48.2509 149 50.5556 149C53.6808 149 57.3981 149.565 61.7073 150.695L61.7073 150.695C63.0581 151.049 64 152.27 64 153.667V154.8C64 155.463 63.4627 156 62.8 156H43.2C42.5373 156 42 155.463 42 154.8V153.667C42 151.996 43.0403 150.502 44.6073 149.922L44.6073 149.922Z" fill="#F2F2F2"/>
<path d="M216.4 103H205.6C205.269 103 205 103.269 205 103.6V104.4C205 104.731 205.269 105 205.6 105H216.4C216.731 105 217 104.731 217 104.4V103.6C217 103.269 216.731 103 216.4 103Z" fill="#E6DCE9"/>
<path d="M218.003 121L218.911 125.236C218.97 125.511 219 125.792 219 126.074V154C219 155.105 218.105 156 217 156H205C203.895 156 203 155.105 203 154V126.074C203 125.792 203.03 125.511 203.089 125.236L203.997 121H218.003Z" fill="white"/>
<path opacity="0.4" d="M205.881 107.536L202.119 124.464C202.04 124.82 202 125.184 202 125.549V154C202 155.657 203.343 157 205 157H217C218.657 157 220 155.657 220 154V125.549C220 125.184 219.96 124.82 219.881 124.464L216.119 107.536C216.04 107.18 216 106.816 216 106.451V105H206V106.451C206 106.816 205.96 107.18 205.881 107.536Z" fill="white"/>
<path opacity="0.6" d="M207 105V106.576C207 106.858 206.97 107.139 206.911 107.415L203.089 125.236C203.03 125.511 203 125.792 203 126.074V154C203 155.105 203.895 156 205 156H217C218.105 156 219 155.105 219 154V126.074C219 125.792 218.97 125.511 218.911 125.236L215.089 107.415C215.03 107.139 215 106.858 215 106.576V105H216V106.451C216 106.816 216.04 107.18 216.119 107.536L219.881 124.464C219.96 124.82 220 125.184 220 125.549V154C220 155.657 218.657 157 217 157H205C203.343 157 202 155.657 202 154V125.549C202 125.184 202.04 124.82 202.119 124.464L205.881 107.536C205.96 107.18 206 106.816 206 106.451V105H207Z" fill="white"/>
</svg>
