<svg width="256" height="179" viewBox="0 0 256 179" fill="none" xmlns="http://www.w3.org/2000/svg">
<path opacity="0.3" d="M2 141H254C255.105 141 256 141.895 256 143V174H0V143C0 141.895 0.895431 141 2 141Z" fill="#293E51"/>
<path opacity="0.05" d="M254 174L235 155L210 156.5L214.5 161H211V162L223 174H254Z" fill="black"/>
<path opacity="0.05" d="M55 174L23.6594 143L9 145L38.3187 174H55Z" fill="black"/>
<path d="M218 160H211V162H218V160Z" fill="#B9832B"/>
<path d="M222 142H220V149H222V142Z" fill="#A67526"/>
<path d="M220 144H218V151H220V144Z" fill="#B9832B"/>
<path d="M218 142H216V149H218V142Z" fill="#A67526"/>
<path d="M216 143H214V150H216V143Z" fill="#B9832B"/>
<path d="M213.378 142.879L211.408 143.227L212.624 150.12L214.593 149.773L213.378 142.879Z" fill="#B9832B"/>
<path d="M210.743 143.869L208.863 144.553L211.257 151.131L213.137 150.447L210.743 143.869Z" fill="#A67526"/>
<path d="M224 143H222V150H224V143Z" fill="#B9832B"/>
<path d="M226 144H224V151H226V144Z" fill="#A67526"/>
<path d="M228 142H226V149H228V142Z" fill="#B9832B"/>
<path d="M230 144H228V151H230V144Z" fill="#A67526"/>
<path d="M232.706 144.284L230.75 143.869L229.295 150.716L231.251 151.132L232.706 144.284Z" fill="#B9832B"/>
<path d="M234.385 144.751L232.572 143.905L229.614 150.249L231.427 151.095L234.385 144.751Z" fill="#A67526"/>
<path d="M222 160H218V162H222V160Z" fill="white"/>
<path opacity="0.05" d="M212 174L182.052 144L97 151.2L106.583 160.8L105.385 163.2L116.167 174H212Z" fill="black"/>
<path opacity="0.05" d="M85 174L64.6 154L43 155.176L62.2 174H85Z" fill="black"/>
<path d="M108.501 50.5323C106.5 57.7307 106.5 62.7435 108.501 65.5708C111.503 69.8116 106.285 77 131.317 77C156.349 77 155.933 62.5631 148.728 49.3292C143.925 40.5067 130.516 40.9077 108.501 50.5323Z" fill="#57513A"/>
<path d="M177.868 85.499C176.792 81.9605 173.796 76.2637 171.335 73.222C170.343 71.8949 169.103 70.7735 167.682 69.9205C167.35 69.7158 167.239 69.6297 167.101 69.5447C161.735 66.1403 155.024 64.0119 148.11 62.4868C147.609 62.2905 147.123 62.0597 146.654 61.7961C146.133 61.4954 145.652 61.1372 145.202 60.7427C143.939 58.8168 140.722 58.343 140.405 56.0623C140.285 56.17 140.174 56.2801 140.054 56.3867C138.146 58.1064 136.059 59.4659 133.796 60.4698C132.415 60.9666 130.948 61.1776 129.483 61.0899C127.968 61.1776 126.5 60.9666 125.119 60.4698C122.857 59.4659 118.373 58.1064 116.541 56.4429C116.354 56.2334 116.229 56.1197 116.097 56C115.781 58.3275 114.941 58.845 113.64 60.8014C113.215 61.1679 112.763 61.502 112.288 61.8009C111.739 62.0438 111.206 62.2935 110.656 62.5024C109.793 62.6939 96.474 66.5724 91.8269 69.5219C91.2745 69.8726 90.7808 70.2294 90.3123 70.5885C90.1337 70.719 89.9719 70.8495 89.8078 70.9811C89.151 71.5065 88.6522 71.9839 88.1972 72.5014C85.235 75.737 82.2549 81.6876 81.0769 85.499C80.2174 87.7085 76.2012 96.1194 74.6696 104.85C73.3251 112.514 74.371 120.424 74.6696 124.602C75.3083 133.539 102.642 141.992 129.473 142C156.304 142.008 183.636 133.54 184.275 124.603C184.591 120.179 185.735 111.569 184.275 103.498C182.786 95.2657 178.683 87.5941 177.868 85.499Z" fill="#FFDBB0"/>
<path d="M122.255 61.1575C123.639 61.6601 127.511 63.0847 128.979 62.996C130.496 63.0847 134.368 61.6601 135.752 61.1575C138.019 60.1418 140.11 58.7664 141.946 57.0834C144.27 55.1165 146.135 52.7895 147.515 50.1715C148.751 47.4053 148.249 44.4938 148.821 40.6594C151.606 42.0836 152.83 29.6817 151.396 27.4266C150.056 25.3169 148.187 27.1445 147.943 27.3976L147.961 20.3234C147.961 4.97369 139.487 1 129.029 1C118.572 1 110.095 4.9737 110.095 20.3246L110.077 27.4279C110.077 27.4279 108.036 25.1667 106.595 27.4279C105.154 29.689 106.443 42.1611 109.237 40.6497C109.806 44.472 109.285 47.352 110.512 50.1121C111.891 52.7413 113.758 55.0787 116.012 56.9974C117.897 58.7664 119.988 60.1418 122.255 61.1575Z" fill="#FFDBB0"/>
<path opacity="0.05" d="M140.005 57H140.004L140 57.003L140.005 57Z" fill="black"/>
<path d="M129.013 137.001L129.007 137L129 137.001H129.013Z" fill="#569EBA"/>
<path d="M144.832 60C135.251 65.3002 123.636 65.3157 114.041 60.041C113.536 60.3247 110.752 62.3851 109.912 62.6079C105.192 63.7263 100.555 65.0959 96 66.711V121H163V66.647C157.588 64.6432 145.325 60.284 144.832 60Z" fill="#9EABB1"/>
<path opacity="0.05" d="M121.046 60.6248C121.51 60.8668 121.98 61.093 122.455 61.3035C123.126 61.5449 124.325 61.9546 125.552 62.3035C126.91 62.7172 128.263 63.0565 128.966 63.0565C130.361 63.0565 134.462 61.9216 135.958 61.3154C137.622 60.6392 139.276 59.6 140.804 58.389C140.972 58.265 141.138 58.1356 141.303 58C142.2 58.7514 143.445 59.308 144.348 60.1323C144.42 60.0935 144.492 60.0544 144.563 60.015C145.058 60.2981 157.342 64.644 162.764 66.6417V67.4133C164.252 68.115 165.674 68.8854 167.013 69.7349C167.151 69.8203 167.263 69.9069 167.597 70.1127C169.024 70.9699 170.271 72.097 171.267 73.4308C173.741 76.4879 176.751 82.2135 177.833 85.7699C178.652 87.8756 182.775 95.586 184.272 103.86C185.731 111.928 184.602 120.533 184.277 125L118 58.7852C118.987 59.4871 120.013 60.1147 121.046 60.6248Z" fill="black"/>
<path opacity="0.08" d="M131.691 44.3664C130.914 45.0582 129.998 45.5884 129 45.9241C127.995 45.6019 127.076 45.0701 126.309 44.3664C125.162 43.2604 124.501 44.9583 125.463 45.5146C126.425 46.071 127.155 45.8128 127.539 46.2211C127.923 46.6295 127.923 47 129.001 47C130.078 47 130.077 46.6295 130.462 46.2211C130.847 45.8128 131.577 46.071 132.538 45.5146C133.499 44.9583 132.836 43.2604 131.691 44.3664Z" fill="black"/>
<path opacity="0.1" d="M131.774 50C131.006 50.0413 130.247 50.2144 129.526 50.5129C128.805 50.2144 128.047 50.0413 127.278 50C126.503 50.076 123 50.0147 123 50.0147C124.284 52.6455 125.821 54 129.521 54C133.222 54 134.729 52.6807 136 50.0649C136 50.0649 132.555 50.0814 131.774 50Z" fill="black"/>
<path opacity="0.1" d="M127.38 50.7831C128.805 51.0722 130.31 51.0722 131.735 50.7831C132.712 50.6638 135.428 50.029 136 50.0507C135.262 49.9187 132.545 50.0916 131.835 50.0455C131.061 50.073 130.297 50.1883 129.571 50.3873C128.845 50.1883 128.082 50.073 127.308 50.0455C126.528 50.0961 123 50.0552 123 50.0552C123 50.0552 126.286 50.6457 127.38 50.7831Z" fill="black"/>
<path d="M116 33.0604C117.087 32.4631 118.279 32.1115 119.5 32.0281C121.223 31.865 122.938 32.4165 124.286 33.567C124.286 33.567 118.962 37.1063 116 33.0604ZM142 33.0604C138.923 36.9576 133.714 33.567 133.714 33.567C135.062 32.4165 136.777 31.865 138.5 32.0281C139.721 32.1115 140.913 32.4631 142 33.0604Z" fill="white"/>
<path d="M121.854 32.8905V32.8953C121.929 33.7138 121.477 34.4901 120.726 34.8287C119.976 35.1673 119.094 34.9938 118.528 34.3966C117.962 33.7993 117.838 32.9097 118.219 32.1808C118.661 32.1028 119.108 32.0473 119.556 32.0146C120.272 31.9639 120.991 32.0456 121.678 32.2555C121.773 32.4554 121.832 32.6702 121.854 32.8905ZM136.146 32.8905C136.168 32.6702 136.227 32.4554 136.322 32.2555C137.009 32.0456 137.728 31.9639 138.444 32.0146C138.892 32.0473 139.339 32.1028 139.781 32.1808C140.162 32.9097 140.038 33.7993 139.472 34.3966C138.906 34.9938 138.024 35.1673 137.274 34.8287C136.523 34.4901 136.071 33.7138 136.146 32.8953V32.8905Z" fill="#754C24"/>
<path d="M120.046 33.9961C119.517 34.0442 119.05 33.6373 119.004 33.0872C118.957 32.5371 119.349 32.0522 119.878 32.004C120.408 31.9559 120.874 32.3628 120.92 32.9129C120.967 33.4629 120.575 33.9479 120.046 33.9961ZM138.996 33.0869C138.95 33.6372 138.483 34.0442 137.954 33.9961C137.425 33.948 137.034 33.4629 137.08 32.9126C137.126 32.3623 137.593 31.9552 138.122 32.0034C138.651 32.0515 139.042 32.5366 138.996 33.0869Z" fill="#534741"/>
<path d="M119.522 33.7987C119.258 33.8179 119.025 33.6551 119.002 33.435C118.979 33.2149 119.174 33.0209 119.438 33.0017C119.702 32.9824 119.935 33.1452 119.958 33.3653C119.981 33.5854 119.786 33.7794 119.522 33.7987ZM137.562 33.7985C137.298 33.8178 137.065 33.655 137.042 33.4349C137.019 33.2148 137.214 33.0208 137.478 33.0015C137.742 32.9823 137.975 33.1451 137.998 33.3652C138.021 33.5853 137.826 33.7793 137.562 33.7985Z" fill="white"/>
<path d="M115.158 33.5671C115.871 33.1164 116.619 32.7428 117.392 32.4509C118.174 32.1453 118.995 31.9929 119.821 32.0003C121.451 32.12 123.027 32.7221 124.397 33.7485C124.45 33.7897 124.485 33.8553 124.493 33.9285V33.9425C124.519 34.1699 124.513 34.3987 124.52 34.6275V34.6554C124.522 34.7123 124.504 34.7677 124.47 34.8093C124.437 34.851 124.39 34.8754 124.341 34.8772H124.301C123.7 34.7545 123.082 34.7966 122.497 35C123.058 34.6261 123.694 34.4275 124.342 34.4238L124.124 34.6707C124.097 34.4447 124.057 34.2187 124.048 33.9899L124.146 34.181C122.831 33.2679 121.336 32.7575 119.802 32.6979C118.284 32.8214 116.814 33.3661 115.518 34.2857L115.501 34.2968C115.331 34.378 115.134 34.2985 115.045 34.1121C114.956 33.9256 115.002 33.6917 115.153 33.5685L115.158 33.5671ZM142.48 34.2857C141.184 33.3661 139.714 32.8214 138.196 32.6979C136.662 32.7575 135.167 33.2679 133.852 34.181L133.95 33.9899C133.94 34.2187 133.9 34.4433 133.874 34.6707L133.656 34.4238C134.304 34.4275 134.94 34.6261 135.501 35C134.916 34.7966 134.298 34.7545 133.697 34.8772C133.597 34.8984 133.5 34.8216 133.482 34.7056V34.661V34.6317C133.489 34.4028 133.482 34.1726 133.508 33.9466V33.9425C133.517 33.8689 133.552 33.8029 133.605 33.7611C134.975 32.7346 136.551 32.1325 138.18 32.0128C139.006 32.0055 139.827 32.1578 140.609 32.4634C141.383 32.7553 142.131 33.129 142.844 33.5797C142.996 33.7014 143.044 33.9359 142.956 34.1236C142.867 34.3113 142.671 34.392 142.499 34.3107L142.48 34.2857Z" fill="#826F67"/>
<path d="M123.844 27.9693C125.052 28.64 125.961 29.7194 126.398 31C124.063 30.2958 121.652 29.8561 119.213 29.6899C117.468 29.6361 115.721 29.7549 114 30.0446C114 30.0446 115.522 27.1159 118.156 27C120.08 27.1437 121.985 27.4684 123.844 27.9693ZM135.156 27.9693C137.015 27.4684 138.92 27.1437 140.844 27C143.478 27.1159 145 30.0446 145 30.0446C143.279 29.7549 141.532 29.6361 139.787 29.6899C137.348 29.8561 134.937 30.2958 132.602 31C133.039 29.7194 133.948 28.64 135.156 27.9693Z" fill="#736B4D"/>
<path opacity="0.2" fill-rule="evenodd" clip-rule="evenodd" d="M129.686 53.8893H128.393C128.393 53.2981 128.029 56.7723 125.689 56.7723C123.35 56.7723 120.303 50.7158 120.303 50.7158C125.399 48.2876 129.04 49.819 129.245 49.819C129.451 49.819 132.68 48.2876 137.776 50.7158C137.776 50.7158 134.73 56.7723 132.391 56.7723C130.051 56.7723 129.686 53.2361 129.686 53.8893ZM145.098 39.4998C144.694 40.7245 142.965 50.7984 140.562 49.5192C137.373 47.8218 131.972 46.1165 131.972 46.5414C130.607 47.3705 129.776 48.1146 128.997 48.1146C128.218 48.1146 127.392 47.3705 126.027 46.5414C126.027 46.047 120.627 47.8218 117.437 49.5192C115.035 50.7984 113.306 40.7245 112.902 39.4998C112.497 38.2762 111.89 35 111.89 35C111.89 35 109.062 38.9846 109 40.9993C109.574 44.7363 109.047 47.5788 110.287 50.2782C111.831 53.635 117.057 58.9971 122.206 61.0806C123.698 61.6835 127.613 63 129 63C130.393 63 134.487 61.8713 135.979 61.2684C141.129 59.185 146.169 53.635 147.711 50.2782C148.953 47.5788 148.425 44.7363 149 40.9993C148.938 38.9846 146.108 35 146.108 35C146.108 35 145.502 38.2762 145.098 39.4998Z" fill="#736B4D"/>
<path d="M150.118 74C152.131 72.7978 153.607 72.0653 155 69C157.5 63.5 153.618 54.28 154.345 55.3654C155.955 57.7699 156.76 58.9094 156.76 61.9777C159.313 60.1116 159.313 56.3776 158.572 54.1631C157.968 52.3598 156.314 47.9813 155.552 42.0781C154.849 36.627 154.245 31.258 153.741 26.4491C153.348 22.7041 150.722 14.2735 148.306 10.6668C145.891 7.06011 139.249 0 129.588 0C119.926 0 112.803 4.83609 109.784 11.4484C106.765 18.0606 106.642 21.0391 105.435 31.2581C104.787 36.7358 103.642 41.1076 103.019 44.4826C101.911 50.4819 100 53.4419 100 55.3654C100 57.3691 100.604 60.7754 103.019 61.9777C103.019 59.5732 103.623 57.7699 104.831 56.5676C106.642 54.7643 102.415 59.5732 105.435 64.9833C107.447 68.59 107.305 70.5955 106.5 73C110.5 73 113.5 69.3495 114.492 66.7866C116.673 61.1502 115.67 55.9426 115.398 53.057C114.981 48.6337 112.077 36.3675 114.492 30.3564C116.907 24.3452 128.896 19.2357 129.5 16.2302C130.104 19.2357 137.137 21.6273 141.892 31.2581C146.648 40.8889 139.5 54.1632 147 64C150.248 68.2598 150.923 71.1948 150.118 74Z" fill="#736B4D"/>
<path opacity="0.05" d="M130 16.2302V0C130.03 4.4e-05 130.059 0 130.089 0C139.914 0 146.669 7.06011 149.125 10.6668C151.582 14.2735 154.252 22.7041 154.652 26.4491C155.165 31.258 155.779 36.627 156.494 42.0781C157.269 47.9813 158.95 52.3598 159.564 54.1631C160.318 56.3776 160.318 60.1116 157.722 61.9777C157.722 58.9094 156.903 57.7699 155.266 55.3654C154.527 54.28 158.475 63.5 155.932 69C154.515 72.0653 153.014 72.7978 150.967 74C151.786 71.1948 151.1 68.2598 147.797 64C140.17 54.1632 147.438 40.8889 142.602 31.2581C137.766 21.6273 130.614 19.2357 130 16.2302Z" fill="black"/>
<path d="M106.301 26.9802C107.645 24.7747 109.55 26.9802 109.55 26.9802L109.551 26.7248C109.306 28.6928 109.306 30.7846 109.551 33C109.795 35.2154 110.278 37.5071 111 39.875C108.393 41.3269 104.958 29.1835 106.301 26.9802Z" fill="#FFDBB0"/>
<path opacity="0.4" d="M0 174H256V177C256 178.105 255.105 179 254 179H2C0.895431 179 0 178.105 0 177V174Z" fill="#293E51"/>
<path d="M88 144H83C80.7909 144 79 142.209 79 140" stroke="#293E52" stroke-linecap="round"/>
<path d="M181 143H98C97.4477 143 97 143.448 97 144C97 144.552 97.4477 145 98 145H181C181.552 145 182 144.552 182 144C182 143.448 181.552 143 181 143Z" fill="#203040"/>
<path d="M173 84H86C84.8954 84 84 84.8954 84 86V149C84 150.105 84.8954 151 86 151H173C174.105 151 175 150.105 175 149V86C175 84.8954 174.105 84 173 84Z" fill="#293E52"/>
<path d="M173 84H85C83.8954 84 83 84.8954 83 86V149C83 150.105 83.8954 151 85 151H173C174.105 151 175 150.105 175 149V86C175 84.8954 174.105 84 173 84Z" fill="#293E52"/>
<path opacity="0.1" d="M117 107H141C142.105 107 143 107.895 143 109V135H115V109C115 107.895 115.895 107 117 107Z" fill="black"/>
<path opacity="0.2" d="M104 135H154C155.105 135 156 135.895 156 137V151H102V137C102 135.895 102.895 135 104 135Z" fill="black"/>
<path d="M151.8 159H106.2C105.537 159 105 159.537 105 160.2V162.8C105 163.463 105.537 164 106.2 164H151.8C152.463 164 153 163.463 153 162.8V160.2C153 159.537 152.463 159 151.8 159Z" fill="#293E52"/>
<path d="M121.516 140H136.484C137.693 140 138.714 140.9 138.865 142.099L141 159H117L119.135 142.099C119.286 140.9 120.307 140 121.516 140Z" fill="#293E52"/>
<path opacity="0.05" d="M129 164V84H173C174.105 84 175 84.8954 175 86V149C175 150.105 174.105 151 173 151H139.99L141 159H151.8C152.463 159 153 159.537 153 160.2V162.8C153 163.463 152.463 164 151.8 164H129Z" fill="black"/>
<path d="M64 155H65.4C67.3882 155 69 153.388 69 151.4V140" stroke="#293E52" stroke-linecap="round"/>
<path opacity="0.3" d="M226.224 138.714C226.224 140.541 219.382 133.231 223.114 127.748C225.602 124.092 226.224 120.843 224.98 118C232.859 122.062 234.933 126.123 231.201 130.185C225.602 136.277 226.224 136.886 226.224 138.714Z" fill="white"/>
<path d="M209 148H235V155C235 156.105 234.105 157 233 157H211C209.895 157 209 156.105 209 155V148Z" fill="white"/>
<path d="M7 142.006V116.994C7 116.358 7.25286 115.747 7.70294 115.297L9 114H22L23.2971 115.297C23.7471 115.747 24 116.358 24 116.994V142.006C24 142.642 23.7471 143.253 23.2971 143.703L22 145H9L7.70294 143.703C7.25286 143.253 7 142.642 7 142.006H7Z" fill="#8B572A"/>
<path d="M23.7837 143C23.6658 143.259 23.5016 143.498 23.2963 143.703L21.9993 145H8.99928L7.70222 143.703C7.497 143.498 7.33278 143.259 7.21484 143H23.7837Z" fill="#F2F2F2"/>
<path d="M22.5 113H8.5C8.22386 113 8 113.224 8 113.5C8 113.776 8.22386 114 8.5 114H22.5C22.7761 114 23 113.776 23 113.5C23 113.224 22.7761 113 22.5 113Z" fill="#F2F2F2"/>
<path d="M16 119H15C11.6863 119 9 121.686 9 125V132C9 135.314 11.6863 138 15 138H16C19.3137 138 22 135.314 22 132V125C22 121.686 19.3137 119 16 119Z" fill="#5C3A1C"/>
<mask id="mask0" mask-type="alpha" maskUnits="userSpaceOnUse" x="83" y="83" width="93" height="24">
<path d="M115 107L83 83H176L143 107H115Z" fill="white"/>
</mask>
<g mask="url(#mask0)">
<path opacity="0.1" d="M88 86H90V111H88V86ZM92 86H94V111H92V86ZM96 86H98V111H96V86ZM100 86H102V111H100V86ZM104 86H106V111H104V86ZM108 86H110V111H108V86ZM112 86H114V111H112V86ZM116 86H118V111H116V86ZM120 86H122V111H120V86ZM124 86H126V111H124V86ZM128 86H130V111H128V86ZM132 86H134V111H132V86ZM136 86H138V111H136V86ZM140 86H142V111H140V86ZM144 86H146V111H144V86ZM148 86H150V111H148V86ZM152 86H154V111H152V86ZM156 86H158V111H156V86ZM160 86H162V111H160V86ZM164 86H166V111H164V86ZM168 86H170V111H168V86Z" fill="black"/>
</g>
<path d="M45.6073 149.922C47.2681 149.307 49.2509 149 51.5555 149C54.6808 149 58.3981 149.565 62.7073 150.695C64.0581 151.049 65 152.27 65 153.667V154.8C65 155.463 64.4627 156 63.8 156H44.2C43.5373 156 43 155.463 43 154.8V153.667C43 151.996 44.0403 150.502 45.6073 149.922Z" fill="#293E52"/>
</svg>
