<svg width="720" height="181" viewBox="0 0 720 181" fill="none" xmlns="http://www.w3.org/2000/svg">
<path opacity="0.3" d="M2 142.028H718C719.105 142.028 720 142.924 720 144.028V175.028H0V144.028C0 142.924 0.895431 142.028 2 142.028Z" fill="#293E51"/>
<path opacity="0.4" d="M0 175.028H720V178.028C720 179.133 719.105 180.028 718 180.028H2C0.895431 180.028 0 179.133 0 178.028V175.028Z" fill="#293E51"/>
<path opacity="0.05" d="M391 175.028L370 154.028L277 158.028L294 175.028H391Z" fill="black"/>
<path opacity="0.05" d="M657 175.028L636.71 155.028L620 156.793L638.5 175.028H657Z" fill="black"/>
<path opacity="0.05" d="M265 175.028L237.186 147.028L213 150.68L237.186 175.028H265Z" fill="black"/>
<path d="M368 134.028H278C276.895 134.028 276 134.924 276 136.028V157.028C276 158.133 276.895 159.028 278 159.028H368C369.105 159.028 370 158.133 370 157.028V136.028C370 134.924 369.105 134.028 368 134.028Z" fill="#D8D8D8"/>
<path opacity="0.5" d="M278 134.028H368C369.105 134.028 370 134.924 370 136.028V143.028H276V136.028C276 134.924 276.895 134.028 278 134.028Z" fill="white"/>
<path d="M363 111.028H283V134.028H363V111.028Z" fill="#949695"/>
<path d="M288.5 110.028H293.5C293.776 110.028 294 110.252 294 110.528V134.028H288V110.528C288 110.252 288.224 110.028 288.5 110.028Z" fill="#54909C"/>
<path d="M352.5 110.028H357.5C357.776 110.028 358 110.252 358 110.528V134.028H352V110.528C352 110.252 352.224 110.028 352.5 110.028Z" fill="#54909C"/>
<path d="M283.5 110.028H285.5C285.776 110.028 286 110.252 286 110.528V134.028H283V110.528C283 110.252 283.224 110.028 283.5 110.028Z" fill="#949695"/>
<path opacity="0.05" d="M300 111.028H298V134.028H300V111.028Z" fill="black"/>
<path opacity="0.05" d="M306 111.028H304V134.028H306V111.028Z" fill="black"/>
<path opacity="0.05" d="M312 111.028H310V134.028H312V111.028Z" fill="black"/>
<path opacity="0.05" d="M318 111.028H316V134.028H318V111.028Z" fill="black"/>
<path opacity="0.05" d="M324 111.028H322V134.028H324V111.028Z" fill="black"/>
<path opacity="0.05" d="M330 111.028H328V134.028H330V111.028Z" fill="black"/>
<path opacity="0.05" d="M336 111.028H334V134.028H336V111.028Z" fill="black"/>
<path opacity="0.05" d="M342 111.028H340V134.028H342V111.028Z" fill="black"/>
<path opacity="0.05" d="M348 111.028H346V134.028H348V111.028Z" fill="black"/>
<path d="M360.5 110.028H362.5C362.776 110.028 363 110.252 363 110.528V134.028H360V110.528C360 110.252 360.224 110.028 360.5 110.028Z" fill="#949695"/>
<path opacity="0.3" d="M282 126.028H364C364.552 126.028 365 126.476 365 127.028V134.028H281V127.028C281 126.476 281.448 126.028 282 126.028Z" fill="black"/>
<path d="M366.5 152.028H362.5C362.224 152.028 362 152.252 362 152.528V154.528C362 154.804 362.224 155.028 362.5 155.028H366.5C366.776 155.028 367 154.804 367 154.528V152.528C367 152.252 366.776 152.028 366.5 152.028Z" fill="#828282"/>
<path d="M290.5 137.028H281.5C281.224 137.028 281 137.252 281 137.528V139.528C281 139.804 281.224 140.028 281.5 140.028H290.5C290.776 140.028 291 139.804 291 139.528V137.528C291 137.252 290.776 137.028 290.5 137.028Z" fill="#76CBDB"/>
<path d="M288 156.028H358C358.552 156.028 359 156.476 359 157.028V159.028H287V157.028C287 156.476 287.448 156.028 288 156.028Z" fill="#BDBDBD"/>
<path opacity="0.1" d="M288 117.028L291 120.028V126.028H288V117.028Z" fill="black"/>
<path opacity="0.1" d="M358 117.028L355 120.028V126.028H358V117.028Z" fill="black"/>
<path d="M365 129.028H281C280.448 129.028 280 129.476 280 130.028C280 130.581 280.448 131.028 281 131.028H365C365.552 131.028 366 130.581 366 130.028C366 129.476 365.552 129.028 365 129.028Z" fill="#979797"/>
<path opacity="0.05" d="M615 175.028L584.947 145.028L501 146.528L529.649 175.028H615Z" fill="black"/>
<path opacity="0.05" d="M502 175.028L480.5 153.028L459 154.251L479.306 175.028H502Z" fill="black"/>
<path d="M583.14 75.9937C577.749 72.5926 568.594 70.4649 561.641 68.9403C560.353 68.4466 559.164 67.728 558.13 66.8185C556.861 64.8927 556.038 61.5998 555.721 59.32C555.6 59.4278 555.488 59.5378 555.368 59.6444C553.45 61.3636 551.352 62.7228 549.078 63.7264C547.689 64.223 546.214 64.4339 544.741 64.3463C543.219 64.4339 541.744 64.223 540.355 63.7264C538.081 62.7228 535.983 61.3636 534.141 59.7006C533.953 59.4912 533.828 59.3775 533.696 59.2578C533.378 61.5847 532.533 64.9212 531.225 66.8771C530.177 67.785 528.973 68.4985 527.67 68.9833C526.803 69.1748 511.006 73.0522 506.334 76.0009C500.009 79.9884 501.256 84.1578 499.697 89.1744H589.78C588.223 84.1578 589.47 79.9872 583.14 75.9937Z" fill="#FFDBB0"/>
<path d="M534.09 60.7847L534.14 60.8123C535.981 62.4753 538.079 63.8344 540.354 64.838C541.742 65.3347 543.217 65.5456 544.69 65.4579H544.74C546.212 65.5456 547.688 65.3347 549.076 64.838C551.35 63.8344 553.448 62.4753 555.29 60.8123L555.366 60.756C557.623 58.8695 559.496 56.5706 560.882 53.9838C562.122 51.2505 561.619 48.3735 562.192 44.5847C564.987 45.9921 568.623 33.7376 567.185 31.5093C565.841 29.4246 563.965 31.2305 563.721 31.4806L563.739 24.4906C563.739 9.32212 555.236 5.39209 544.746 5.39209C534.255 5.39209 525.745 9.32212 525.745 24.4906L525.727 31.5093C525.727 31.5093 523.679 29.2751 522.234 31.5093C520.788 33.7436 524.49 46.0675 527.293 44.5739C527.864 48.3508 527.341 51.1966 528.572 53.9239C529.956 56.5218 531.829 58.8315 534.09 60.7273C534.23 60.847 534.231 60.8565 534.09 60.7333V60.7847Z" fill="#FFDBB0"/>
<path opacity="0.05" d="M583.141 75.9938C577.75 72.5927 568.595 70.465 561.642 68.9403C560.354 68.4467 559.165 67.7281 558.131 66.8185C556.97 64.7497 556.216 62.5742 555.898 60.2944C555.778 60.4021 555.489 60.6494 555.369 60.756C553.451 62.4752 551.353 63.8344 549.079 64.838C547.69 65.3346 546.215 65.5455 544.742 65.4579C543.22 65.5455 541.745 65.3346 540.357 64.838C538.103 63.8437 536.023 62.4993 534.195 60.8553L562.697 89.1745H589.781C588.224 84.1578 589.471 79.9873 583.141 75.9938Z" fill="black"/>
<path d="M529.172 32.5096C529.692 31.6258 530.467 30.9169 531.397 30.474C533.685 29.4029 537.356 30.1808 539.7 30.4202C540.442 30.4967 542.907 33.7434 542.61 33.7578C535.484 34.1037 537.533 32.1769 534.339 31.4924C532.55 31.0911 530.672 31.4606 529.172 32.5096ZM560.359 32.5096C558.858 31.4606 556.981 31.0911 555.191 31.4924C551.998 32.1769 554.047 34.1037 546.921 33.7578C546.623 33.7434 549.089 30.4967 549.831 30.4202C552.175 30.1808 555.845 29.4029 558.134 30.474C559.063 30.9169 559.838 31.6258 560.359 32.5096Z" fill="#624D48"/>
<path d="M532.057 36.9674C533.321 36.3155 534.727 35.9814 536.152 35.9945C537.525 36.0314 538.848 36.513 539.92 37.366C538.833 38.3684 537.385 38.8916 535.904 38.8166C534.423 38.7415 533.035 38.0746 532.057 36.9674ZM557.474 36.9674C556.495 38.075 555.108 38.7421 553.626 38.8172C552.145 38.8923 550.696 38.3688 549.609 37.366C550.682 36.5128 552.005 36.0312 553.378 35.9945C554.803 35.9814 556.209 36.3155 557.474 36.9674Z" fill="white"/>
<path d="M536.148 35.9945C536.736 36.0527 537.318 36.1644 537.885 36.3284C537.975 36.5779 538.01 36.8434 537.989 37.1075C537.931 37.7892 537.512 38.3888 536.89 38.6804C536.267 38.972 535.535 38.9114 534.969 38.5213C534.403 38.1312 534.09 37.4709 534.147 36.7892C534.17 36.5675 534.233 36.3518 534.333 36.1525C534.925 36.0019 535.538 35.9485 536.148 35.9945ZM553.384 35.9945C553.994 35.9485 554.607 36.0019 555.199 36.1525C555.299 36.3518 555.362 36.5675 555.385 36.7892C555.442 37.4709 555.129 38.1312 554.563 38.5213C553.997 38.9114 553.265 38.972 552.642 38.6804C552.02 38.3888 551.601 37.7892 551.543 37.1075C551.522 36.8434 551.557 36.5779 551.647 36.3284C552.214 36.1644 552.796 36.0527 553.384 35.9945Z" fill="#3B93B2"/>
<path d="M537.021 37.0291C536.977 37.5595 536.514 37.9538 535.987 37.9098C535.46 37.8658 535.069 37.4002 535.113 36.8698C535.157 36.3395 535.62 35.9452 536.147 35.9892C536.674 36.0332 537.065 36.4988 537.021 37.0291ZM553.543 37.9027C553.012 37.947 552.547 37.5557 552.503 37.0288C552.459 36.5019 552.853 36.0389 553.383 35.9946C553.914 35.9503 554.379 36.3416 554.423 36.8685C554.467 37.3954 554.073 37.8584 553.543 37.9027Z" fill="#534741"/>
<path d="M535.362 37.0856C535.34 37.3508 535.108 37.5479 534.845 37.5259C534.581 37.5039 534.386 37.2711 534.408 37.006C534.43 36.7408 534.662 36.5436 534.925 36.5656C535.189 36.5876 535.384 36.8204 535.362 37.0856ZM552.374 37.5518C552.108 37.5739 551.876 37.3781 551.854 37.1146C551.832 36.851 552.029 36.6194 552.294 36.5973C552.56 36.5752 552.792 36.771 552.814 37.0346C552.836 37.2982 552.639 37.5297 552.374 37.5518Z" fill="white"/>
<path d="M531.919 36.6386C532.586 36.3801 533.244 36.1479 533.935 35.9504C534.632 35.7243 535.358 35.6013 536.09 35.5854C536.825 35.6143 537.548 35.7766 538.224 36.0641C538.897 36.3426 539.521 36.7277 540.07 37.2046C540.118 37.2488 540.144 37.3119 540.141 37.3769V37.3853C540.126 37.5812 540.1 37.7761 540.064 37.9693V37.998C540.051 38.081 539.98 38.1427 539.895 38.144C539.628 38.1573 539.362 38.1974 539.103 38.2637C538.834 38.3307 538.566 38.4061 538.297 38.4911C538.533 38.3356 538.779 38.196 539.034 38.0734C539.296 37.9404 539.572 37.8353 539.856 37.7599L539.683 37.9346C539.68 37.7381 539.687 37.5416 539.704 37.3458L539.775 37.5265C538.731 36.6756 537.43 36.1977 536.081 36.1694C535.414 36.2111 534.757 36.3482 534.129 36.5763C533.478 36.7846 532.825 37.0299 532.202 37.2944H532.196C532.019 37.3485 531.829 37.2604 531.757 37.0907C531.685 36.921 531.754 36.7246 531.917 36.6362L531.919 36.6386ZM557.336 37.2968C556.707 37.0335 556.054 36.7882 555.409 36.5787C554.781 36.3506 554.124 36.2135 553.457 36.1718C552.109 36.2002 550.81 36.6772 549.767 37.5265L549.838 37.3458C549.855 37.5416 549.862 37.7381 549.858 37.9346L549.686 37.7599C549.97 37.8353 550.246 37.9404 550.508 38.0734C550.762 38.196 551.009 38.3356 551.245 38.4911C550.976 38.4061 550.707 38.3295 550.439 38.2637C550.179 38.1974 549.914 38.1573 549.646 38.144C549.562 38.1427 549.491 38.081 549.478 37.998V37.9693C549.442 37.7761 549.416 37.5812 549.401 37.3853V37.3781C549.397 37.3127 549.423 37.2493 549.472 37.2046C550.021 36.7277 550.645 36.3426 551.318 36.0641C551.994 35.7766 552.717 35.6143 553.451 35.5854C554.184 35.6013 554.91 35.7243 555.606 35.9504C556.293 36.1479 556.955 36.3801 557.623 36.6386C557.756 36.6751 557.856 36.7836 557.882 36.9183C557.907 37.0531 557.853 37.1904 557.743 37.2724C557.632 37.3544 557.484 37.3666 557.361 37.3039H557.354L557.336 37.2968Z" fill="#826F67"/>
<path opacity="0.08" d="M546.667 48.0505C545.499 48.8221 543.98 48.8221 542.812 48.0505C541.904 47.7125 540.964 47.4675 540.006 47.3193C540.024 47.4558 540.206 47.7071 540.926 47.9715C541.684 48.2492 543.169 49.9533 544.71 49.9641H544.741C546.28 49.9533 547.767 48.2492 548.524 47.9715C549.23 47.7131 549.418 47.5012 549.443 47.3277C548.496 47.4756 547.566 47.7178 546.667 48.0505Z" fill="black"/>
<path opacity="0.1" d="M546.038 53.4473C545.533 53.3755 545.107 53.7202 544.74 53.7369C544.339 53.7537 543.796 53.3779 543.294 53.4473C542.793 53.5167 538.039 54.589 538.039 54.589C539.027 55.1611 539.939 55.8529 540.755 56.6486C541.706 57.965 547.753 57.965 548.705 56.6486C549.53 55.8506 550.453 55.1587 551.452 54.589C551.452 54.589 546.544 53.5215 546.038 53.4473Z" fill="black"/>
<path opacity="0.1" d="M544.74 53.7374C544.339 53.7553 543.796 53.3784 543.294 53.4478C542.793 53.5172 538.039 54.5895 538.039 54.5895C539.134 54.5761 540.228 54.6453 541.312 54.7965C542.446 55.0207 543.592 55.1833 544.745 55.2836C545.897 55.1833 547.043 55.0207 548.178 54.7965C549.262 54.6453 550.356 54.5761 551.45 54.5895C551.45 54.5895 546.549 53.5196 546.043 53.4478C545.537 53.376 545.107 53.7218 544.74 53.7374Z" fill="black"/>
<path d="M583.139 76.0403C577.749 72.8809 568.593 70.9039 561.64 69.487C561.139 69.3055 560.65 69.0912 560.177 68.8456C556.257 73.2294 550.637 75.7379 544.735 75.7379C538.833 75.7379 533.212 73.2294 529.292 68.8456L529.277 68.8276C528.759 69.0962 528.223 69.3277 527.672 69.5205C526.805 69.6988 511.007 73.3034 506.336 76.0391C500.008 79.7489 500.051 84.5119 498.492 89.1707H590.984C589.427 84.5167 589.469 79.7513 583.139 76.0403Z" fill="white"/>
<path d="M590.969 89.1744H590.986C589.428 84.1578 589.47 79.0298 583.141 75.0363C577.751 71.6353 568.595 69.5075 561.642 67.9829C561.139 67.7866 560.65 67.5559 560.179 67.2924L544.737 86.6613L529.277 67.2744C528.762 67.5628 528.226 67.8124 527.673 68.0212C526.806 68.2126 511.008 72.09 506.337 75.0387C500.009 79.031 500.052 84.1578 498.493 89.1744C496.87 93.3234 491.41 119.332 492.052 128.268C492.694 137.204 517.76 145.658 544.731 145.66C571.702 145.661 596.767 137.202 597.409 128.268C598.051 119.333 592.592 93.3234 590.969 89.1744Z" fill="#276874"/>
<path d="M532.573 64.0435C535.464 76.8484 539.921 80.6228 539.921 80.6228C538.434 80.5798 536.952 80.4383 535.485 80.1992C533.577 79.8402 533.055 77.0877 531.579 77.4467C530.104 77.8058 523.833 83.5751 523.764 83.0713C523.152 78.0132 524.058 72.8881 526.367 68.3397C527.821 67.8159 529.154 67.0059 530.285 65.9582C530.998 65.2633 531.763 64.6232 532.573 64.0435ZM556.697 64.0435C557.507 64.6232 558.272 65.2633 558.985 65.9582C560.116 67.0059 561.449 67.8159 562.903 68.3397C565.212 72.8881 566.118 78.0132 565.506 83.0713C565.437 83.5751 559.166 77.8058 557.69 77.4467C556.215 77.0877 555.693 79.8402 553.785 80.1992C552.318 80.4383 550.836 80.5798 549.349 80.6228C549.349 80.6228 553.806 76.8484 556.697 64.0435Z" fill="#1E5059"/>
<path d="M539.565 53.6845C541.219 52.9741 542.961 52.4836 544.744 52.2257C546.528 52.4836 548.269 52.9741 549.924 53.6845C551.072 54.1508 552.376 54.0395 553.428 53.3853L553.929 53.073C553.018 50.2762 547.698 50.2212 547.698 50.2212C546.798 50.7408 545.786 51.0383 544.747 51.0888C543.707 51.0383 542.695 50.7408 541.796 50.2212C541.796 50.2212 536.767 50.2774 535.564 53.073L536.069 53.3865C537.119 54.0375 538.419 54.1483 539.565 53.6845Z" fill="#624D48"/>
<path opacity="0.05" d="M567.178 31.5092C565.833 29.4245 563.958 31.2304 563.713 31.4805L563.732 24.4904C563.732 9.32198 555.229 5.39195 544.738 4.43457V64.5016C544.738 65.459 544.738 65.459 544.738 65.459C546.211 65.5466 547.686 65.3357 549.075 64.8391C551.349 63.8355 553.447 62.4763 555.289 60.8133C557.59 58.9064 559.48 56.5904 560.878 53.9824C562.119 51.2491 561.615 48.3722 562.189 44.5834C564.981 45.9919 568.616 33.7375 567.178 31.5092Z" fill="black"/>
<path opacity="0.05" d="M555.309 60.8027H555.308L555.303 60.8075L555.309 60.8027Z" fill="black"/>
<path opacity="0.05" d="M590.984 89.1744C589.427 84.159 589.468 79.0322 583.14 75.04C577.943 71.7597 569.25 69.6655 562.399 68.1528C561.148 67.6136 559.994 66.8733 558.984 65.9616C558.272 65.2667 557.506 64.6266 556.696 64.0469C555.976 67.3795 554.945 70.638 553.615 73.7798C552.075 74.4944 550.452 75.017 548.783 75.3355V75.3607L597.342 123.604C596.59 112.463 592.362 92.749 590.968 89.1816H590.984V89.1744Z" fill="black"/>
<path d="M564.236 11.9381C563.419 8.96065 559.17 4.69553 555.03 3.73816C552.293 3.11825 550.888 0.0283203 544.76 0.0283203C538.591 0.0283203 537.187 3.11825 534.45 3.73816C530.305 4.69553 526.06 8.96065 525.246 11.9381C524.432 14.9155 520.789 19.2465 521.753 24.6604C522.062 26.7141 523.069 28.601 524.605 30.0086L527.566 39.3909C527.487 36.7785 527.578 34.1638 527.838 31.5631C528.247 28.9914 531.517 20.0435 531.517 20.0435C531.517 20.0435 532.065 22.3974 537.961 21.1457C537.961 21.1457 539.045 24.6545 544.898 24.6545C550.751 24.6545 551.427 21.2809 551.427 21.2809C551.427 21.2809 556.502 24.4319 557.976 20.0423C557.976 20.0423 561.245 28.9902 561.655 31.5619C561.915 34.1626 562.006 36.7773 561.927 39.3897L564.888 30.0074C566.424 28.5996 567.43 26.7127 567.739 24.6592C568.686 19.2465 565.054 14.9155 564.236 11.9381Z" fill="#624D48"/>
<path opacity="0.05" d="M555.029 3.73816C552.292 3.11825 550.887 0.0283203 544.759 0.0283203H544.713V24.6473C544.776 24.6473 544.833 24.6545 544.895 24.6545C550.752 24.6545 551.423 21.2809 551.423 21.2809C551.423 21.2809 556.498 24.4319 557.973 20.0423C557.973 20.0423 561.242 28.9902 561.651 31.5619C561.912 34.1626 562.003 36.7773 561.923 39.3897L564.884 30.0074C566.42 28.5996 567.426 26.7127 567.735 24.6592C568.689 19.2453 565.056 14.9143 564.242 11.9369C563.428 8.95945 559.169 4.69553 555.029 3.73816Z" fill="black"/>
<path d="M585 145.028H502C501.448 145.028 501 145.476 501 146.028C501 146.581 501.448 147.028 502 147.028H585C585.552 147.028 586 146.581 586 146.028C586 145.476 585.552 145.028 585 145.028Z" fill="#CCCCCC"/>
<path d="M512 149.028H499.8C497.149 149.028 495 146.879 495 144.228V142.028" stroke="white" stroke-linecap="round"/>
<path d="M581 87.0283H509C507.895 87.0283 507 87.9238 507 89.0283V152.028C507 153.133 507.895 154.028 509 154.028H581C582.105 154.028 583 153.133 583 152.028V89.0283C583 87.9238 582.105 87.0283 581 87.0283Z" fill="#D8D8D8"/>
<path opacity="0.05" d="M569 135.028H521V137.028H569V135.028Z" fill="black"/>
<path opacity="0.05" d="M524.6 95.0283H565.4C565.731 95.0283 566 95.2969 566 95.6283V96.4283C566 96.7597 565.731 97.0283 565.4 97.0283H524.6C524.269 97.0283 524 96.7597 524 96.4283V95.6283C524 95.2969 524.269 95.0283 524.6 95.0283Z" fill="black"/>
<path opacity="0.05" d="M565.4 98.0283H524.6C524.269 98.0283 524 98.2969 524 98.6283V99.4283C524 99.7597 524.269 100.028 524.6 100.028H565.4C565.731 100.028 566 99.7597 566 99.4283V98.6283C566 98.2969 565.731 98.0283 565.4 98.0283Z" fill="black"/>
<path opacity="0.05" d="M524.6 101.028H565.4C565.731 101.028 566 101.297 566 101.628V102.428C566 102.76 565.731 103.028 565.4 103.028H524.6C524.269 103.028 524 102.76 524 102.428V101.628C524 101.297 524.269 101.028 524.6 101.028Z" fill="black"/>
<path opacity="0.05" d="M524.6 104.028H565.4C565.731 104.028 566 104.297 566 104.628V105.428C566 105.76 565.731 106.028 565.4 106.028H524.6C524.269 106.028 524 105.76 524 105.428V104.628C524 104.297 524.269 104.028 524.6 104.028Z" fill="black"/>
<path opacity="0.05" d="M524.6 107.028H565.4C565.731 107.028 566 107.297 566 107.628V108.428C566 108.76 565.731 109.028 565.4 109.028H524.6C524.269 109.028 524 108.76 524 108.428V107.628C524 107.297 524.269 107.028 524.6 107.028Z" fill="black"/>
<path opacity="0.05" d="M565.4 110.028H524.6C524.269 110.028 524 110.297 524 110.628V111.428C524 111.76 524.269 112.028 524.6 112.028H565.4C565.731 112.028 566 111.76 566 111.428V110.628C566 110.297 565.731 110.028 565.4 110.028Z" fill="black"/>
<path opacity="0.1" d="M524.583 140.028H565.417C565.739 140.028 566 140.289 566 140.612V154.028H524V140.612C524 140.289 524.261 140.028 524.583 140.028ZM537.6 145.028C537.269 145.028 537 145.297 537 145.628V149.428C537 149.76 537.269 150.028 537.6 150.028H542.4C542.731 150.028 543 149.76 543 149.428V145.628C543 145.297 542.731 145.028 542.4 145.028H537.6Z" fill="black"/>
<path opacity="0.05" d="M507 113.028H513.8C517.776 113.028 521 116.252 521 120.228V154.028H509C507.895 154.028 507 153.133 507 152.028V113.028Z" fill="black"/>
<path opacity="0.05" d="M583 113.028H576.2C572.224 113.028 569 116.252 569 120.228V154.028H581C582.105 154.028 583 153.133 583 152.028V113.028Z" fill="black"/>
<path opacity="0.3" d="M533.4 145.028H528.6C528.269 145.028 528 145.297 528 145.628V149.428C528 149.76 528.269 150.028 528.6 150.028H533.4C533.731 150.028 534 149.76 534 149.428V145.628C534 145.297 533.731 145.028 533.4 145.028Z" fill="black"/>
<path d="M521 160.028H569V160.828C569 161.491 568.463 162.028 567.8 162.028H522.2C521.537 162.028 521 161.491 521 160.828V160.028Z" fill="#D8D8D8"/>
<path d="M527 154.028H563C563.235 155.063 563.846 156.074 564.835 157.063C565.823 158.051 567.212 159.04 569 160.028H521C522.805 159.024 524.206 158.022 525.205 157.024C526.203 156.025 526.802 155.027 527 154.028Z" fill="#CCCCCC"/>
<path opacity="0.05" d="M563 154.028C563.235 155.014 563.669 155.808 564.835 156.918C566 158.028 567.212 159.087 569 160.028V160.885C569 161.517 568.463 162.028 567.8 162.028H535.4L527 154.028H563Z" fill="black"/>
<path opacity="0.05" d="M545 87.0283H581C582.105 87.0283 583 87.9238 583 89.0283V152.028C583 153.133 582.105 154.028 581 154.028H545V87.0283Z" fill="black"/>
<path d="M480 156.019H481.4C483.388 156.019 485 154.407 485 152.419V142.028" stroke="white" stroke-linecap="round"/>
<path d="M461.607 149.95C463.268 149.336 465.251 149.028 467.556 149.028C470.681 149.028 474.398 149.593 478.707 150.723L478.707 150.723C480.058 151.078 481 152.299 481 153.695V154.828C481 155.491 480.463 156.028 479.8 156.028H460.2C459.537 156.028 459 155.491 459 154.828V153.695C459 152.024 460.04 150.53 461.607 149.95L461.607 149.95Z" fill="#F2F2F2"/>
<path opacity="0.05" d="M184 175.028L159.926 151.028L119 157.028L137.056 175.028H184Z" fill="black"/>
<path d="M162 148.028H121C120.448 148.028 120 148.476 120 149.028V155.028C120 155.581 120.448 156.028 121 156.028H162V158.028H121C119.343 158.028 118 156.685 118 155.028V149.028C118 147.371 119.343 146.028 121 146.028H162V148.028Z" fill="#EDE791"/>
<path d="M121 148.028H160V156.028H121C120.448 156.028 120 155.581 120 155.028V149.028C120 148.476 120.448 148.028 121 148.028Z" fill="white"/>
<path d="M166 138.028H108C107.448 138.028 107 138.476 107 139.028V145.028C107 145.581 107.448 146.028 108 146.028H166C166.552 146.028 167 145.581 167 145.028V139.028C167 138.476 166.552 138.028 166 138.028Z" fill="#D6CB31"/>
<path d="M171 132.028H125C124.448 132.028 124 132.476 124 133.028V137.028C124 137.581 124.448 138.028 125 138.028H171C171.552 138.028 172 137.581 172 137.028V133.028C172 132.476 171.552 132.028 171 132.028Z" fill="#EDE576"/>
<path d="M633.4 103.028H622.6C622.269 103.028 622 103.297 622 103.628V104.428C622 104.76 622.269 105.028 622.6 105.028H633.4C633.731 105.028 634 104.76 634 104.428V103.628C634 103.297 633.731 103.028 633.4 103.028Z" fill="#E6DCE9"/>
<path d="M635.003 121.028L635.911 125.264C635.97 125.54 636 125.821 636 126.103V154.028C636 155.133 635.105 156.028 634 156.028H622C620.895 156.028 620 155.133 620 154.028V126.103C620 125.821 620.03 125.54 620.089 125.264L620.997 121.028H635.003Z" fill="white"/>
<path opacity="0.4" d="M622.881 107.564L619.119 124.493C619.04 124.849 619 125.212 619 125.577V154.028C619 155.685 620.343 157.028 622 157.028H634C635.657 157.028 637 155.685 637 154.028V125.577C637 125.212 636.96 124.849 636.881 124.493L633.119 107.564C633.04 107.208 633 106.844 633 106.479V105.028H623V106.479C623 106.844 622.96 107.208 622.881 107.564Z" fill="white"/>
<path opacity="0.6" d="M624 105.028V106.604C624 106.886 623.97 107.167 623.911 107.443L620.089 125.264C620.03 125.54 620 125.821 620 126.103V154.028C620 155.133 620.895 156.028 622 156.028H634C635.105 156.028 636 155.133 636 154.028V126.103C636 125.821 635.97 125.54 635.911 125.264L632.089 107.443C632.03 107.167 632 106.886 632 106.604V105.028H633V106.479C633 106.844 633.04 107.208 633.119 107.564L636.881 124.493C636.96 124.849 637 125.212 637 125.577V154.028C637 155.685 635.657 157.028 634 157.028H622C620.343 157.028 619 155.685 619 154.028V125.577C619 125.212 619.04 124.849 619.119 124.493L622.881 107.564C622.96 107.208 623 106.844 623 106.479V105.028H624Z" fill="white"/>
<path opacity="0.5" d="M214 129.028H236C236.552 129.028 237 129.476 237 130.028V151.028H213V130.028C213 129.476 213.448 129.028 214 129.028Z" fill="white"/>
<path d="M232 131.028L235 134.028V151.028H215V131.028H232Z" fill="#293E52"/>
<path d="M219 131.028H231V138.028C231 138.581 230.552 139.028 230 139.028H220C219.448 139.028 219 138.581 219 138.028V131.028Z" fill="#D8D8D8"/>
<path d="M229 132.028H225V138.028H229V132.028Z" fill="#293E52"/>
<path opacity="0.5" d="M237 142.028H213V151.028H237V142.028Z" fill="white"/>
</svg>
