<svg width="256" height="182" viewBox="0 0 256 182" fill="none" xmlns="http://www.w3.org/2000/svg">
<path opacity="0.3" d="M2 143.958L254 143.958C255.105 143.958 256 144.854 256 145.96V176.994L0 176.994V145.96C0 144.854 0.895431 143.958 2 143.958Z" fill="#293E51"/>
<path opacity="0.4" d="M0 176.994L256 176.994V179.998C256 181.103 255.105 182 254 182L2 182C0.895431 182 0 181.104 0 179.998V176.994Z" fill="#293E51"/>
<path opacity="0.05" d="M244 176.995L224.571 157.974L210 160.351L227 176.995H244Z" fill="black"/>
<path opacity="0.05" d="M98 156.972L118.299 176.994H178L157.701 156.972H98Z" fill="black"/>
<path opacity="0.05" d="M76 176.994L54.2941 154.97L35 156.194L55.5 176.994H76Z" fill="black"/>
<path fill-rule="evenodd" clip-rule="evenodd" d="M35.1623 153.635C41.0703 151.612 46.7993 151.429 52.3491 153.086C53.3286 153.379 54 154.28 54 155.304C54 156.225 53.2538 156.972 52.3334 156.972H35.7167C34.7707 156.972 34.0039 156.205 34.0039 155.258C34.0039 154.525 34.4694 153.873 35.1623 153.635Z" fill="#ECF0F1"/>
<path fill-rule="evenodd" clip-rule="evenodd" d="M54 155.607C54 156.558 53.0299 156.972 52.1008 156.972H35.9901C34.9894 156.972 34 156.435 34 155.607C40.8508 154.412 50.1507 155.188 54 155.607Z" fill="#CACECF"/>
<path d="M160.132 74.7815C154.742 71.3627 146.791 69.2239 139.838 67.6914C138.551 67.1956 137.363 66.4741 136.329 65.5609C135.058 63.626 134.232 59.8226 133.912 57.5303C133.791 57.6386 133.679 57.7493 133.559 57.8563C131.641 59.5845 129.543 60.9507 127.269 61.9595C125.881 62.4588 124.405 62.6708 122.932 62.5827C121.407 62.6708 119.931 62.4588 118.543 61.9595C116.269 60.9507 114.171 59.5845 112.329 57.9129C112.141 57.7023 112.016 57.5881 111.883 57.4678C111.565 59.8067 110.721 63.6538 109.413 65.6199C108.364 66.5326 107.16 67.2497 105.858 67.7371C104.991 67.9295 90.3977 71.8271 85.7265 74.7911C79.4111 78.7933 79.4532 82.9879 77.8945 88.0307H167.978C166.42 82.9879 166.462 78.7933 160.132 74.7815Z" fill="#FFDBB0"/>
<path d="M112.287 59.4932L112.337 59.5209C114.179 61.1925 116.277 62.5587 118.551 63.5676C119.939 64.0668 121.415 64.2788 122.887 64.1907H122.937C124.41 64.2788 125.885 64.0668 127.273 63.5676C129.545 62.5579 131.64 61.1918 133.479 59.5209L133.555 59.4643C135.812 57.568 137.684 55.2572 139.071 52.6569C140.311 49.9094 139.808 47.0175 140.381 43.209C143.176 44.6237 146.812 32.3056 145.374 30.0657C144.03 27.9702 142.154 29.7854 141.91 30.0368L141.928 23.0105C141.928 7.7632 133.425 3.81274 122.934 3.81274C112.444 3.81274 103.942 7.7632 103.942 23.0105L103.924 30.0657C103.924 30.0657 101.877 27.8198 100.431 30.0657C98.9856 32.3116 102.687 44.6994 105.49 43.1982C106.061 46.9947 105.538 49.8552 106.769 52.5967C108.153 55.2081 110.027 57.5298 112.287 59.4355C112.427 59.5557 112.428 59.5654 112.287 59.4415V59.4932Z" fill="#FFDBB0"/>
<path opacity="0.05" d="M161.338 74.7815C155.948 71.3627 146.792 69.2239 139.839 67.6914C138.552 67.1956 137.364 66.4741 136.33 65.561C135.059 63.626 134.233 61.4332 133.913 59.1409C133.792 59.2491 133.68 59.3598 133.56 59.4669L133.484 59.5234C131.642 61.1951 129.544 62.5613 127.27 63.5701C125.882 64.0693 124.406 64.2813 122.933 64.1932H122.88C121.408 64.2813 119.932 64.0693 118.544 63.5701C116.291 62.5706 114.211 61.2192 112.383 59.5667L140.894 88.0307H167.979C166.421 82.9879 167.668 78.7933 161.338 74.7815Z" fill="black"/>
<path opacity="0.05" d="M145.375 30.0656C144.031 27.9701 142.155 29.7854 141.911 30.0368L141.929 23.0104C141.929 7.76314 133.426 3.81269 122.936 2.85034V63.2295C122.936 64.1918 122.936 64.1918 122.936 64.1918C124.408 64.2799 125.884 64.0679 127.272 63.5687C129.544 62.5588 131.639 61.1923 133.479 59.5208L133.501 59.5112C135.78 57.604 137.67 55.276 139.068 52.6544C140.309 49.9069 139.805 47.0151 140.379 43.2066C143.178 44.6296 146.813 32.3055 145.375 30.0656Z" fill="black"/>
<path opacity="0.05" d="M133.506 59.5115H133.505L133.5 59.5163L133.506 59.5115Z" fill="black"/>
<path d="M168.969 90.1309H168.986C168.856 89.7111 168.745 89.2888 168.625 88.869C168.519 88.4977 168.422 88.1196 168.333 87.7346L168.302 87.6059C167.555 84.2786 167.383 80.6132 166.78 78.4407C166.444 77.2294 165.54 75.0629 164.352 74.6431L140.192 67.3172C138.862 66.7899 137.64 66.0224 136.588 65.0532V70.132L122.736 87.5987L109.225 70.5711V65.0532C108.173 66.0224 106.951 66.7899 105.621 67.3172L81.46 74.6443C80.2723 75.0641 79.3677 77.2294 79.034 78.4407C78.345 80.9284 77.868 85.3733 76.7972 89.0266H76.8117C76.7117 89.3947 76.6081 89.7628 76.4949 90.1309C74.8723 94.3015 69.4121 120.445 70.0542 129.427C70.6962 138.41 95.7616 146.908 122.733 146.91C149.704 146.911 174.769 138.408 175.411 129.427C176.053 120.446 170.592 94.3015 168.969 90.1309Z" fill="#EDE995"/>
<path d="M108.787 63.9021C109.538 63.3054 110.035 62.9638 110.035 64.8392V108.386L97.9628 81.1775C97.7009 80.7759 97.7749 80.243 98.1363 79.9276L105.217 73.7409L102.371 71.6141C102.131 71.4339 101.989 71.1521 101.986 70.852C101.984 70.5519 102.122 70.2679 102.359 70.084L108.787 63.9021ZM136.535 63.9021L142.965 70.084C143.202 70.2679 143.34 70.5519 143.338 70.852C143.335 71.1521 143.193 71.4339 142.953 71.6141L140.105 73.7409L147.185 79.9276C147.547 80.243 147.621 80.7759 147.359 81.1775L135.33 108.386V64.8392C135.33 62.9638 135.784 63.3054 136.535 63.9021Z" fill="#D4D085"/>
<path d="M110.034 128.836H135.33V69.0436C131.623 71.5102 127.279 72.8495 122.824 72.8991C118.254 72.844 113.803 71.4374 110.033 68.8572L110.034 128.836Z" fill="white"/>
<path d="M109.809 35.5513C110.932 34.8315 112.241 34.4552 113.575 34.4686C115.059 34.5081 116.516 34.8779 117.838 35.5513C117.009 36.8688 115.531 37.6358 113.975 37.5566C112.347 37.5833 110.802 36.8397 109.809 35.5513ZM136.383 35.5513C135.39 36.8397 133.845 37.5833 132.217 37.5566C130.661 37.6358 129.183 36.8688 128.354 35.5513C129.676 34.8779 131.133 34.5081 132.617 34.4686C133.951 34.4552 135.26 34.8315 136.383 35.5513Z" fill="white"/>
<path d="M112.293 34.4721C112.709 34.3515 113.14 34.2883 113.573 34.2844C114.219 34.2948 114.858 34.4135 115.463 34.6357C115.974 35.4642 115.785 36.5428 115.023 37.1491C114.262 37.7554 113.167 37.6989 112.472 37.0174C111.777 36.3359 111.7 35.2437 112.293 34.4721ZM133.895 34.4721C134.488 35.2437 134.412 36.3359 133.717 37.0174C133.022 37.6989 131.927 37.7554 131.165 37.1491C130.404 36.5428 130.215 35.4642 130.725 34.6357C131.331 34.4135 131.97 34.2948 132.615 34.2844C133.048 34.2883 133.479 34.3515 133.895 34.4721Z" fill="#808080"/>
<path d="M113.822 36.6649C113.312 36.6649 112.898 36.2518 112.898 35.7422C112.898 35.2327 113.312 34.8196 113.822 34.8196C114.333 34.8196 114.746 35.2327 114.746 35.7422C114.746 36.2518 114.333 36.6649 113.822 36.6649ZM132.368 36.6649C131.857 36.6649 131.444 36.2518 131.444 35.7422C131.444 35.2327 131.857 34.8196 132.368 34.8196C132.878 34.8196 133.291 35.2327 133.291 35.7422C133.291 36.2518 132.878 36.6649 132.368 36.6649Z" fill="#534741"/>
<path d="M112.779 36.2238C112.513 36.2238 112.297 36.0084 112.297 35.7426C112.297 35.4769 112.513 35.2615 112.779 35.2615C113.045 35.2615 113.261 35.4769 113.261 35.7426C113.261 36.0084 113.045 36.2238 112.779 36.2238ZM131.443 36.2238C131.177 36.2238 130.961 36.0084 130.961 35.7426C130.961 35.4769 131.177 35.2615 131.443 35.2615C131.709 35.2615 131.925 35.4769 131.925 35.7426C131.925 36.0084 131.709 36.2238 131.443 36.2238Z" fill="white"/>
<path d="M109.268 35.6281C110.048 34.9407 111.01 34.4919 112.039 34.335C113.02 34.1341 114.028 34.0934 115.022 34.2147C116.031 34.3164 116.993 34.6907 117.805 35.2973C118.001 35.4862 118.193 35.5547 118.346 35.9132C118.365 36.0872 118.279 36.256 118.126 36.3427C118.008 36.4306 117.864 36.4768 117.717 36.4738C117.559 36.4606 117.454 36.3848 117.37 36.386C117.265 36.3992 117.167 36.4441 117.088 36.5147C116.884 36.6482 116.68 36.7805 116.47 36.9008C116.647 36.7324 116.831 36.576 117.013 36.4197C117.105 36.317 117.227 36.2458 117.361 36.2164C117.524 36.2043 117.636 36.2753 117.723 36.2645C117.883 36.2645 118.129 36.0443 118.072 35.9686C117.936 35.8152 117.777 35.6844 117.6 35.5812C116.798 35.1109 115.893 34.8433 114.964 34.8017C114.031 34.7666 113.097 34.8475 112.184 35.0423C111.298 35.1953 110.453 35.5335 109.707 36.0347L109.652 36.0768C109.528 36.1841 109.34 36.1704 109.233 36.0461C109.125 35.9219 109.139 35.7342 109.263 35.6269L109.268 35.6281ZM136.482 36.0359C135.736 35.5347 134.891 35.1965 134.005 35.0435C133.091 34.8487 132.158 34.7678 131.225 34.8029C130.296 34.8445 129.391 35.1121 128.589 35.5824C128.412 35.6856 128.253 35.8164 128.117 35.9698C128.06 36.0455 128.305 36.2681 128.466 36.2657C128.553 36.2765 128.665 36.2055 128.827 36.2176C128.962 36.247 129.084 36.3182 129.176 36.4209C129.359 36.576 129.537 36.7324 129.719 36.902C129.509 36.7817 129.304 36.6494 129.101 36.5159C129.022 36.4453 128.924 36.4004 128.819 36.3872C128.736 36.3872 128.63 36.463 128.472 36.475C128.325 36.478 128.181 36.4318 128.063 36.3439C127.91 36.2572 127.824 36.0884 127.843 35.9144C127.998 35.5535 128.189 35.4886 128.384 35.2985C129.196 34.6919 130.158 34.3176 131.167 34.2159C132.161 34.0946 133.169 34.1353 134.15 34.3362C135.179 34.4931 136.141 34.9419 136.921 35.6293C137.002 35.6985 137.039 35.8054 137.019 35.9098C137 36.0142 136.926 36.1002 136.826 36.1354C136.725 36.1706 136.614 36.1496 136.533 36.0804L136.482 36.0359Z" fill="#826F67"/>
<path d="M119.652 32.9158C119.02 33.4487 118.04 33.2514 116.434 32.6571C112.899 31.3495 113.102 30.3535 109.487 31.121C108.644 31.2888 107.87 31.7039 107.263 32.3131C107.132 31.2493 107.621 30.204 108.523 29.6233C110.773 28.0595 116.926 29.1421 118.762 30.0323C119.281 30.2778 119.674 30.7299 119.843 31.2783C120.012 31.8267 119.943 32.4208 119.652 32.9158ZM126.54 32.9158C126.249 32.4208 126.18 31.8267 126.349 31.2783C126.518 30.7299 126.911 30.2778 127.43 30.0323C129.266 29.1421 135.418 28.0595 137.669 29.6233C138.571 30.204 139.06 31.2493 138.929 32.3131C138.322 31.7039 137.548 31.2888 136.705 31.121C133.09 30.3535 133.292 31.3495 129.758 32.6571C128.151 33.2514 127.172 33.4487 126.54 32.9158Z" fill="#AFA476"/>
<path opacity="0.1" d="M126.832 46.937C126.332 46.415 125.547 46.2852 124.905 46.6182C124.284 46.8903 123.638 47.1038 122.978 47.2558C122.317 47.1038 121.671 46.8903 121.05 46.6182C120.408 46.2852 119.623 46.415 119.123 46.937C118.801 47.3797 120.659 47.6804 121.412 47.9811C122.164 48.2819 122.466 48.5826 122.978 48.5826C123.489 48.5826 123.791 48.2819 124.543 47.9811C125.296 47.6804 127.154 47.3809 126.832 46.937Z" fill="black"/>
<path opacity="0.1" d="M124.275 51.7667C123.769 51.6945 123.344 52.041 122.976 52.0578C122.575 52.0747 122.032 51.6969 121.531 51.7667C121.03 51.8365 116.977 53.1152 116.977 53.1152C116.977 53.1152 117.84 54.2568 118.061 54.4733C118.395 54.8849 118.707 55.3146 118.994 55.7605C119.945 57.0837 121.895 56.7228 122.908 56.7228C123.921 56.7228 125.993 57.0837 126.943 55.7605C127.484 55.0062 127.537 54.6911 127.754 54.4733C127.97 54.2556 128.987 53.1152 128.987 53.1152C128.987 53.1152 124.781 51.8389 124.275 51.7667Z" fill="black"/>
<path opacity="0.1" d="M126.55 54.2111C127.313 54.3615 128.098 54.0996 128.617 53.5218L128.979 53.1152C128.979 53.1152 124.78 51.8389 124.274 51.7667C123.768 51.6945 123.343 52.041 122.975 52.0578C122.574 52.0747 122.031 51.6969 121.53 51.7667C121.029 51.8365 116.977 53.1152 116.977 53.1152L117.196 53.4027C117.692 54.0482 118.504 54.3671 119.307 54.2315C119.764 54.1461 120.227 54.0943 120.691 54.0764C121.535 54.0764 124.65 54.0367 125.3 54.0367C125.721 54.0619 126.139 54.1202 126.55 54.2111Z" fill="black"/>
<path d="M106.271 9.10941C106.8 8.80329 107.351 8.53749 107.92 8.31427C115.509 -5.88041 130.533 0.696054 140.777 8.87604C144.318 11.7017 145.743 8.39487 145.743 8.39487C147.476 10.1103 148.438 12.4541 148.411 14.8907C148.307 17.5615 147.127 20.0772 145.14 21.8678C144.959 22.8441 144.718 23.8083 144.418 24.7548C144.029 26.1714 143.775 27.6213 143.659 29.0854C142.448 31.5639 141.083 33.9644 139.573 36.273C140.236 33.521 140.488 30.6864 140.322 27.8608C140.212 25.5557 138.639 23.5787 136.416 22.9504C131.064 23.0707 121.411 18.9807 116.834 18.9807C112.256 18.9807 112.779 21.9881 112.779 21.9881C104.612 16.564 105.872 36.1731 105.872 36.1731C104.607 34.6779 102.248 29.0854 102.248 29.0854C102.1 26.6261 101.722 24.1859 101.119 21.7968C99.7519 16.89 101.868 11.6794 106.271 9.10941Z" fill="#AFA476"/>
<path opacity="0.2" d="M148.416 14.8909C148.443 12.4542 147.481 10.1105 145.748 8.39502C145.847 11.9664 144.291 15.384 141.532 17.6577C136.954 21.1462 132.28 21.1329 127.691 21.3807C130.522 22.2745 133.456 22.8021 136.421 22.9506C136.421 22.9506 141.893 23.4318 145.145 21.8679C147.132 20.0774 148.312 17.5617 148.416 14.8909Z" fill="white"/>
<path opacity="0.05" d="M145.743 8.39464C145.743 8.39464 144.318 11.7015 140.778 8.87582C135.527 4.68357 129.023 0.920778 122.906 0.1521V20.0788C127.484 21.2817 132.885 23.0308 136.416 22.9514C138.64 23.5796 140.213 25.5567 140.323 27.8618C140.489 30.6874 140.236 33.522 139.574 36.274C141.084 33.9654 142.449 31.5648 143.659 29.0864C143.776 27.6223 144.03 26.1724 144.418 24.7558C144.719 23.8093 144.96 22.8451 145.141 21.8688C147.128 20.0782 148.307 17.5625 148.411 14.8917C148.439 12.4546 147.477 10.1103 145.743 8.39464Z" fill="black"/>
<path opacity="0.05" d="M168.628 88.869C168.523 88.4977 168.425 88.1196 168.336 87.7347L168.305 87.606C167.558 84.2786 167.386 80.6133 166.784 78.4408C166.447 77.2294 165.543 75.0629 164.355 74.6431L140.193 67.3172C140.129 67.2919 140.059 67.257 139.996 67.2294L136.534 63.9008C135.785 63.2994 135.329 62.9625 135.329 64.8415V69.0422C132.387 70.972 129.053 72.2247 125.566 72.71V72.722L175.133 122.219C174.005 110.791 170.265 93.4571 168.969 90.1273H168.985C168.857 89.7111 168.74 89.2901 168.628 88.869Z" fill="black"/>
<path fill-rule="evenodd" clip-rule="evenodd" d="M123.676 58.5118H122.392C122.392 58.5118 122.03 61.4398 119.708 61.4398C117.386 61.4398 114.361 53.4198 114.361 53.4198C119.42 50.9538 123.034 51.1643 123.034 51.1643C123.034 51.1643 126.647 50.9538 131.707 53.4198C131.707 53.4198 128.683 61.4398 126.361 61.4398C124.038 61.4398 123.676 58.5118 123.676 58.5118ZM138.88 41.7199C138.479 42.9637 136.762 53.958 134.377 52.6589C131.212 50.9351 125.85 49.7923 125.85 49.7923C124.495 50.6343 122.897 49.7923 122.897 49.7923C122.897 49.7923 121.303 50.6343 119.948 49.7923C119.948 49.7923 114.588 50.9351 111.421 52.6589C109.037 53.958 107.321 42.9637 106.92 41.7199C106.517 40.4772 105.915 37.1499 105.915 37.1499C105.915 37.1499 105.517 41.1966 105.455 43.2428C106.025 47.0381 105.502 52.3057 106.733 55.0472C108.265 58.4564 113.453 63.9021 118.564 66.018C120.046 66.6303 121.52 66.6412 122.897 66.6412C124.28 66.6412 125.753 66.6303 127.234 66.018C132.347 63.9021 137.535 58.4564 139.066 55.0472C140.298 52.3057 139.774 47.0381 140.345 43.2428C140.283 41.1966 139.883 37.1499 139.883 37.1499C139.883 37.1499 139.281 40.4772 138.88 41.7199Z" fill="#AFA476"/>
<path fill-rule="evenodd" clip-rule="evenodd" d="M131.965 50.1766C131.595 49.7363 133.137 49.426 133.257 50.5772C133.426 52.1675 128.279 50.1766 126.312 49.1349C124.345 48.0907 122.899 49.5751 122.899 49.5751C122.899 49.5655 121.494 48.0907 119.527 49.1349C117.558 50.1766 112.413 52.1675 112.58 50.5772C112.702 49.426 114.242 49.7363 113.873 50.1766C113.873 50.1766 114.343 49.8157 113.773 49.2143C113.203 48.6128 110.347 49.5619 111.607 51.9004C113.053 54.5878 119.847 51.4589 122.899 51.0981C125.95 51.4589 132.759 54.6022 134.206 51.9161C135.466 49.5775 132.636 48.6128 132.065 49.2143C131.495 49.8157 131.965 50.1766 131.965 50.1766Z" fill="#AFA476"/>
<path d="M162 146.961H79C78.4477 146.961 78 147.41 78 147.963C78 148.515 78.4477 148.964 79 148.964H162C162.552 148.964 163 148.515 163 147.963C163 147.41 162.552 146.961 162 146.961Z" fill="#CCCCCC"/>
<path d="M177 84.8928H77C75.3431 84.8928 74 86.2375 74 87.8961V153.969C74 155.628 75.3431 156.972 77 156.972H177C178.657 156.972 180 155.628 180 153.969V87.8961C180 86.2375 178.657 84.8928 177 84.8928Z" fill="#F2F2F2"/>
<path d="M87 147.962V158.174C87 160.828 89.149 162.979 91.8 162.979H117" stroke="white"/>
<path d="M88 146.961H86V151.967H88V146.961Z" fill="white"/>
<path d="M87 86.895H167C167.552 86.895 168 87.3432 168 87.8961C168 88.449 167.552 88.8972 167 88.8972H87C86.4477 88.8972 86 88.449 86 87.8961C86 87.3432 86.4477 86.895 87 86.895Z" fill="#293E52"/>
<path d="M91 146.961H89V151.967H91V146.961Z" fill="#293E52"/>
<path d="M94 146.961H92V151.967H94V146.961Z" fill="#293E52"/>
<path d="M97 146.961H95V151.967H97V146.961Z" fill="#293E52"/>
<path d="M143 166.983H111C110.448 166.983 110 167.432 110 167.985C110 168.537 110.448 168.986 111 168.986H143C143.552 168.986 144 168.537 144 167.985C144 167.432 143.552 166.983 143 166.983Z" fill="#F2F2F2"/>
<path d="M120.669 120.933H133.331C134.57 120.933 135.605 121.877 135.721 123.112L140 168.986H114L118.279 123.112C118.395 121.877 119.43 120.933 120.669 120.933ZM127 149.965C129.761 149.965 132 147.724 132 144.959C132 142.195 129.761 139.954 127 139.954C124.239 139.954 122 142.195 122 144.959C122 147.724 124.239 149.965 127 149.965Z" fill="#D8D8D8"/>
<path d="M127 147.962C128.657 147.962 130 146.618 130 144.959C130 143.3 128.657 141.956 127 141.956C125.343 141.956 124 143.3 124 144.959C124 146.618 125.343 147.962 127 147.962Z" fill="#293E52"/>
<path d="M221.555 111.161L219.566 110.951L214.445 159.737L216.434 159.946L221.555 111.161Z" fill="#293E52"/>
<path opacity="0.5" d="M207 128.941H229C227.167 134.281 226 139.62 225.5 144.959C225.036 149.919 225.146 154.879 225.832 159.838H225.832C225.908 160.386 225.526 160.891 224.979 160.967C224.934 160.974 224.888 160.977 224.842 160.977H211.158C210.606 160.977 210.158 160.529 210.158 159.976C210.158 159.93 210.161 159.884 210.168 159.838C210.854 154.879 210.964 149.919 210.5 144.959C210 139.62 208.833 134.281 207 128.941Z" fill="white"/>
<path d="M227 135.949C226.295 138.953 225.802 141.956 225.52 144.959C225.054 149.919 225.165 154.879 225.853 159.838H225.853C225.929 160.386 225.546 160.892 224.997 160.967C224.952 160.974 224.906 160.977 224.86 160.977H211.14C210.587 160.977 210.138 160.529 210.138 159.976C210.138 159.93 210.141 159.884 210.147 159.838C210.835 154.879 210.946 149.919 210.48 144.959C210.198 141.956 209.705 138.953 209 135.949H227Z" fill="#72C76B"/>
<path opacity="0.5" d="M207 128.941H229C229.552 128.941 230 129.39 230 129.943V130.944H206V129.943C206 129.39 206.448 128.941 207 128.941Z" fill="white"/>
<path opacity="0.5" d="M207 128.942C207 122.86 211.925 117.929 218 117.929C224.075 117.929 229 122.86 229 128.942H207Z" fill="white"/>
</svg>
