<svg width="720" height="179" viewBox="0 0 720 179" fill="none" xmlns="http://www.w3.org/2000/svg">
<path opacity="0.3" d="M2 141H718C719.105 141 720 141.895 720 143V174H0V143C0 141.895 0.895431 141 2 141Z" fill="#293E51"/>
<path opacity="0.05" d="M670 174L651 155L626 156.5L630.5 161H627V162L639 174H670Z" fill="black"/>
<path opacity="0.05" d="M471 174L439.659 143L425 145L454.319 174H471Z" fill="black"/>
<path d="M634 160H627V162H634V160Z" fill="#B9832B"/>
<path d="M638 142H636V149H638V142Z" fill="#A67526"/>
<path d="M636 144H634V151H636V144Z" fill="#B9832B"/>
<path d="M634 142H632V149H634V142Z" fill="#A67526"/>
<path d="M632 143H630V150H632V143Z" fill="#B9832B"/>
<path d="M629.378 142.879L627.408 143.227L628.624 150.12L630.593 149.773L629.378 142.879Z" fill="#B9832B"/>
<path d="M626.743 143.869L624.863 144.553L627.257 151.131L629.137 150.447L626.743 143.869Z" fill="#A67526"/>
<path d="M640 143H638V150H640V143Z" fill="#B9832B"/>
<path d="M642 144H640V151H642V144Z" fill="#A67526"/>
<path d="M644 142H642V149H644V142Z" fill="#B9832B"/>
<path d="M646 144H644V151H646V144Z" fill="#A67526"/>
<path d="M648.706 144.284L646.75 143.869L645.295 150.716L647.251 151.132L648.706 144.284Z" fill="#B9832B"/>
<path d="M650.385 144.751L648.572 143.905L645.614 150.249L647.427 151.095L650.385 144.751Z" fill="#A67526"/>
<path d="M638 160H634V162H638V160Z" fill="white"/>
<path opacity="0.05" d="M628 174L598.052 144L513 151.2L522.583 160.8L521.385 163.2L532.167 174H628Z" fill="black"/>
<path opacity="0.05" d="M501 174L480.6 154L459 155.176L478.2 174H501Z" fill="black"/>
<path d="M524.501 50.5323C522.5 57.7307 522.5 62.7435 524.501 65.5708C527.503 69.8116 522.285 77 547.317 77C572.349 77 571.933 62.5631 564.728 49.3292C559.925 40.5067 546.516 40.9077 524.501 50.5323Z" fill="#57513A"/>
<path d="M593.868 85.499C592.792 81.9605 589.796 76.2637 587.335 73.222C586.343 71.8949 585.103 70.7735 583.682 69.9205C583.35 69.7158 583.239 69.6297 583.101 69.5447C577.735 66.1403 571.024 64.0119 564.11 62.4868C563.609 62.2905 563.123 62.0597 562.654 61.7961C562.133 61.4954 561.652 61.1372 561.202 60.7427C559.939 58.8168 556.722 58.343 556.405 56.0623C556.285 56.17 556.174 56.2801 556.054 56.3867C554.146 58.1064 552.059 59.4659 549.796 60.4698C548.415 60.9666 546.948 61.1776 545.483 61.0899C543.968 61.1776 542.5 60.9666 541.119 60.4698C538.857 59.4659 534.373 58.1064 532.541 56.4429C532.354 56.2334 532.229 56.1197 532.097 56C531.781 58.3275 530.941 58.845 529.64 60.8014C529.215 61.1679 528.763 61.502 528.288 61.8009C527.739 62.0438 527.206 62.2935 526.656 62.5024C525.793 62.6939 512.474 66.5724 507.827 69.5219C507.275 69.8726 506.781 70.2294 506.312 70.5885C506.134 70.719 505.972 70.8495 505.808 70.9811C505.151 71.5065 504.652 71.9839 504.197 72.5014C501.235 75.737 498.255 81.6876 497.077 85.499C496.217 87.7085 492.201 96.1194 490.67 104.85C489.325 112.514 490.371 120.424 490.67 124.602C491.308 133.539 518.642 141.992 545.473 142C572.304 142.008 599.636 133.54 600.275 124.603C600.591 120.179 601.735 111.569 600.275 103.498C598.786 95.2657 594.683 87.5941 593.868 85.499Z" fill="#FFDBB0"/>
<path d="M538.255 61.1575C539.639 61.6601 543.511 63.0847 544.979 62.996C546.496 63.0847 550.368 61.6601 551.752 61.1575C554.019 60.1418 556.11 58.7664 557.946 57.0834C560.27 55.1165 562.135 52.7895 563.515 50.1715C564.751 47.4053 564.249 44.4938 564.821 40.6594C567.606 42.0836 568.83 29.6817 567.396 27.4266C566.056 25.3169 564.187 27.1445 563.943 27.3976L563.961 20.3234C563.961 4.97369 555.487 1 545.029 1C534.572 1 526.095 4.9737 526.095 20.3246L526.077 27.4279C526.077 27.4279 524.036 25.1667 522.595 27.4279C521.154 29.689 522.443 42.1611 525.237 40.6497C525.806 44.472 525.285 47.352 526.512 50.1121C527.891 52.7413 529.758 55.0787 532.012 56.9974C533.897 58.7664 535.988 60.1418 538.255 61.1575Z" fill="#FFDBB0"/>
<path opacity="0.05" d="M556.005 57H556.004L556 57.003L556.005 57Z" fill="black"/>
<path d="M545.013 137.001L545.007 137L545 137.001H545.013Z" fill="#569EBA"/>
<path d="M560.832 60C551.251 65.3002 539.636 65.3157 530.041 60.041C529.536 60.3247 526.752 62.3851 525.912 62.6079C521.192 63.7263 516.555 65.0959 512 66.711V121H579V66.647C573.588 64.6432 561.325 60.284 560.832 60Z" fill="#9EABB1"/>
<path opacity="0.05" d="M537.046 60.6248C537.51 60.8668 537.98 61.093 538.455 61.3035C539.126 61.5449 540.325 61.9546 541.552 62.3035C542.91 62.7172 544.263 63.0565 544.966 63.0565C546.361 63.0565 550.462 61.9216 551.958 61.3154C553.622 60.6392 555.276 59.6 556.804 58.389C556.972 58.265 557.138 58.1356 557.303 58C558.2 58.7514 559.445 59.308 560.348 60.1323C560.42 60.0935 560.492 60.0544 560.563 60.015C561.058 60.2981 573.342 64.644 578.764 66.6417V67.4133C580.252 68.115 581.674 68.8854 583.013 69.7349C583.151 69.8203 583.263 69.9069 583.597 70.1127C585.024 70.9699 586.271 72.097 587.267 73.4308C589.741 76.4879 592.751 82.2135 593.833 85.7699C594.652 87.8756 598.775 95.586 600.272 103.86C601.731 111.928 600.602 120.533 600.277 125L534 58.7852C534.987 59.4871 536.013 60.1147 537.046 60.6248Z" fill="black"/>
<path opacity="0.08" d="M547.691 44.3664C546.914 45.0582 545.998 45.5884 545 45.9241C543.995 45.6019 543.076 45.0701 542.309 44.3664C541.162 43.2604 540.501 44.9583 541.463 45.5146C542.425 46.071 543.155 45.8128 543.539 46.2211C543.923 46.6295 543.923 47 545.001 47C546.078 47 546.077 46.6295 546.462 46.2211C546.847 45.8128 547.577 46.071 548.538 45.5146C549.499 44.9583 548.836 43.2604 547.691 44.3664Z" fill="black"/>
<path opacity="0.1" d="M547.774 50C547.006 50.0413 546.247 50.2144 545.526 50.5129C544.805 50.2144 544.047 50.0413 543.278 50C542.503 50.076 539 50.0147 539 50.0147C540.284 52.6455 541.821 54 545.521 54C549.222 54 550.729 52.6807 552 50.0649C552 50.0649 548.555 50.0814 547.774 50Z" fill="black"/>
<path opacity="0.1" d="M543.38 50.7831C544.805 51.0722 546.31 51.0722 547.735 50.7831C548.712 50.6638 551.428 50.029 552 50.0507C551.262 49.9187 548.545 50.0916 547.835 50.0455C547.061 50.073 546.297 50.1883 545.571 50.3873C544.845 50.1883 544.082 50.073 543.308 50.0455C542.528 50.0961 539 50.0552 539 50.0552C539 50.0552 542.286 50.6457 543.38 50.7831Z" fill="black"/>
<path d="M532 33.0604C533.087 32.4631 534.279 32.1115 535.5 32.0281C537.223 31.865 538.938 32.4165 540.286 33.567C540.286 33.567 534.962 37.1063 532 33.0604ZM558 33.0604C554.923 36.9576 549.714 33.567 549.714 33.567C551.062 32.4165 552.777 31.865 554.5 32.0281C555.721 32.1115 556.913 32.4631 558 33.0604Z" fill="white"/>
<path d="M537.854 32.8905V32.8953C537.929 33.7138 537.477 34.4901 536.726 34.8287C535.976 35.1673 535.094 34.9938 534.528 34.3966C533.962 33.7993 533.838 32.9097 534.219 32.1808C534.661 32.1028 535.108 32.0473 535.556 32.0146C536.272 31.9639 536.991 32.0456 537.678 32.2555C537.773 32.4554 537.832 32.6702 537.854 32.8905ZM552.146 32.8905C552.168 32.6702 552.227 32.4554 552.322 32.2555C553.009 32.0456 553.728 31.9639 554.444 32.0146C554.892 32.0473 555.339 32.1028 555.781 32.1808C556.162 32.9097 556.038 33.7993 555.472 34.3966C554.906 34.9938 554.024 35.1673 553.274 34.8287C552.523 34.4901 552.071 33.7138 552.146 32.8953V32.8905Z" fill="#754C24"/>
<path d="M536.046 33.9961C535.517 34.0442 535.05 33.6373 535.004 33.0872C534.957 32.5371 535.349 32.0522 535.878 32.004C536.408 31.9559 536.874 32.3628 536.92 32.9129C536.967 33.4629 536.575 33.9479 536.046 33.9961ZM554.996 33.0869C554.95 33.6372 554.483 34.0442 553.954 33.9961C553.425 33.948 553.034 33.4629 553.08 32.9126C553.126 32.3623 553.593 31.9552 554.122 32.0034C554.651 32.0515 555.042 32.5366 554.996 33.0869Z" fill="#534741"/>
<path d="M535.522 33.7987C535.258 33.8179 535.025 33.6551 535.002 33.435C534.979 33.2149 535.174 33.0209 535.438 33.0017C535.702 32.9824 535.935 33.1452 535.958 33.3653C535.981 33.5854 535.786 33.7794 535.522 33.7987ZM553.562 33.7985C553.298 33.8178 553.065 33.655 553.042 33.4349C553.019 33.2148 553.214 33.0208 553.478 33.0015C553.742 32.9823 553.975 33.1451 553.998 33.3652C554.021 33.5853 553.826 33.7793 553.562 33.7985Z" fill="white"/>
<path d="M531.158 33.5671C531.871 33.1164 532.619 32.7428 533.392 32.4509C534.174 32.1453 534.995 31.9929 535.821 32.0003C537.451 32.12 539.027 32.7221 540.397 33.7485C540.45 33.7897 540.485 33.8553 540.493 33.9285V33.9425C540.519 34.1699 540.513 34.3987 540.52 34.6275V34.6554C540.522 34.7123 540.504 34.7677 540.47 34.8093C540.437 34.851 540.39 34.8754 540.341 34.8772H540.301C539.7 34.7545 539.082 34.7966 538.497 35C539.058 34.6261 539.694 34.4275 540.342 34.4238L540.124 34.6707C540.097 34.4447 540.057 34.2187 540.048 33.9899L540.146 34.181C538.831 33.2679 537.336 32.7575 535.802 32.6979C534.284 32.8214 532.814 33.3661 531.518 34.2857L531.501 34.2968C531.331 34.378 531.134 34.2985 531.045 34.1121C530.956 33.9256 531.002 33.6917 531.153 33.5685L531.158 33.5671ZM558.48 34.2857C557.184 33.3661 555.714 32.8214 554.196 32.6979C552.662 32.7575 551.167 33.2679 549.852 34.181L549.95 33.9899C549.94 34.2187 549.9 34.4433 549.874 34.6707L549.656 34.4238C550.304 34.4275 550.94 34.6261 551.501 35C550.916 34.7966 550.298 34.7545 549.697 34.8772C549.597 34.8984 549.5 34.8216 549.482 34.7056V34.661V34.6317C549.489 34.4028 549.482 34.1726 549.508 33.9466V33.9425C549.517 33.8689 549.552 33.8029 549.605 33.7611C550.975 32.7346 552.551 32.1325 554.18 32.0128C555.006 32.0055 555.827 32.1578 556.609 32.4634C557.383 32.7553 558.131 33.129 558.844 33.5797C558.996 33.7014 559.044 33.9359 558.956 34.1236C558.867 34.3113 558.671 34.392 558.499 34.3107L558.48 34.2857Z" fill="#826F67"/>
<path d="M539.844 27.9693C541.052 28.64 541.961 29.7194 542.398 31C540.063 30.2958 537.652 29.8561 535.213 29.6899C533.468 29.6361 531.721 29.7549 530 30.0446C530 30.0446 531.522 27.1159 534.156 27C536.08 27.1437 537.985 27.4684 539.844 27.9693ZM551.156 27.9693C553.015 27.4684 554.92 27.1437 556.844 27C559.478 27.1159 561 30.0446 561 30.0446C559.279 29.7549 557.532 29.6361 555.787 29.6899C553.348 29.8561 550.937 30.2958 548.602 31C549.039 29.7194 549.948 28.64 551.156 27.9693Z" fill="#736B4D"/>
<path opacity="0.2" fill-rule="evenodd" clip-rule="evenodd" d="M545.686 53.8893H544.393C544.393 53.2981 544.029 56.7723 541.689 56.7723C539.35 56.7723 536.303 50.7158 536.303 50.7158C541.399 48.2876 545.04 49.819 545.245 49.819C545.451 49.819 548.68 48.2876 553.776 50.7158C553.776 50.7158 550.73 56.7723 548.391 56.7723C546.051 56.7723 545.686 53.2361 545.686 53.8893ZM561.098 39.4998C560.694 40.7245 558.965 50.7984 556.562 49.5192C553.373 47.8218 547.972 46.1165 547.972 46.5414C546.607 47.3705 545.776 48.1146 544.997 48.1146C544.218 48.1146 543.392 47.3705 542.027 46.5414C542.027 46.047 536.627 47.8218 533.437 49.5192C531.035 50.7984 529.306 40.7245 528.902 39.4998C528.497 38.2762 527.89 35 527.89 35C527.89 35 525.062 38.9846 525 40.9993C525.574 44.7363 525.047 47.5788 526.287 50.2782C527.831 53.635 533.057 58.9971 538.206 61.0806C539.698 61.6835 543.613 63 545 63C546.393 63 550.487 61.8713 551.979 61.2684C557.129 59.185 562.169 53.635 563.711 50.2782C564.953 47.5788 564.425 44.7363 565 40.9993C564.938 38.9846 562.108 35 562.108 35C562.108 35 561.502 38.2762 561.098 39.4998Z" fill="#736B4D"/>
<path d="M566.118 74C568.131 72.7978 569.607 72.0653 571 69C573.5 63.5 569.618 54.28 570.345 55.3654C571.955 57.7699 572.76 58.9094 572.76 61.9777C575.313 60.1116 575.313 56.3776 574.572 54.1631C573.968 52.3598 572.314 47.9813 571.552 42.0781C570.849 36.627 570.245 31.258 569.741 26.4491C569.348 22.7041 566.722 14.2735 564.306 10.6668C561.891 7.06011 555.249 0 545.588 0C535.926 0 528.803 4.83609 525.784 11.4484C522.765 18.0606 522.642 21.0391 521.435 31.2581C520.787 36.7358 519.642 41.1076 519.019 44.4826C517.911 50.4819 516 53.4419 516 55.3654C516 57.3691 516.604 60.7754 519.019 61.9777C519.019 59.5732 519.623 57.7699 520.831 56.5676C522.642 54.7643 518.415 59.5732 521.435 64.9833C523.447 68.59 523.305 70.5955 522.5 73C526.5 73 529.5 69.3495 530.492 66.7866C532.673 61.1502 531.67 55.9426 531.398 53.057C530.981 48.6337 528.077 36.3675 530.492 30.3564C532.907 24.3452 544.896 19.2357 545.5 16.2302C546.104 19.2357 553.137 21.6273 557.892 31.2581C562.648 40.8889 555.5 54.1632 563 64C566.248 68.2598 566.923 71.1948 566.118 74Z" fill="#736B4D"/>
<path opacity="0.05" d="M546 16.2302V0C546.03 4.4e-05 546.059 0 546.089 0C555.914 0 562.669 7.06011 565.125 10.6668C567.582 14.2735 570.252 22.7041 570.652 26.4491C571.165 31.258 571.779 36.627 572.494 42.0781C573.269 47.9813 574.95 52.3598 575.564 54.1631C576.318 56.3776 576.318 60.1116 573.722 61.9777C573.722 58.9094 572.903 57.7699 571.266 55.3654C570.527 54.28 574.475 63.5 571.932 69C570.515 72.0653 569.014 72.7978 566.967 74C567.786 71.1948 567.1 68.2598 563.797 64C556.17 54.1632 563.438 40.8889 558.602 31.2581C553.766 21.6273 546.614 19.2357 546 16.2302Z" fill="black"/>
<path d="M522.301 26.9802C523.645 24.7747 525.55 26.9802 525.55 26.9802L525.551 26.7248C525.306 28.6928 525.306 30.7846 525.551 33C525.795 35.2154 526.278 37.5071 527 39.875C524.393 41.3269 520.958 29.1835 522.301 26.9802Z" fill="#FFDBB0"/>
<path opacity="0.4" d="M0 174H720V177C720 178.105 719.105 179 718 179H2C0.895431 179 0 178.105 0 177V174Z" fill="#293E51"/>
<path d="M504 144H499C496.791 144 495 142.209 495 140" stroke="#293E52" stroke-linecap="round"/>
<path d="M597 143H514C513.448 143 513 143.448 513 144C513 144.552 513.448 145 514 145H597C597.552 145 598 144.552 598 144C598 143.448 597.552 143 597 143Z" fill="#203040"/>
<path d="M589 84H502C500.895 84 500 84.8954 500 86V149C500 150.105 500.895 151 502 151H589C590.105 151 591 150.105 591 149V86C591 84.8954 590.105 84 589 84Z" fill="#293E52"/>
<path d="M589 84H501C499.895 84 499 84.8954 499 86V149C499 150.105 499.895 151 501 151H589C590.105 151 591 150.105 591 149V86C591 84.8954 590.105 84 589 84Z" fill="#293E52"/>
<path opacity="0.1" d="M533 107H557C558.105 107 559 107.895 559 109V135H531V109C531 107.895 531.895 107 533 107Z" fill="black"/>
<path opacity="0.2" d="M520 135H570C571.105 135 572 135.895 572 137V151H518V137C518 135.895 518.895 135 520 135Z" fill="black"/>
<path d="M567.8 159H522.2C521.537 159 521 159.537 521 160.2V162.8C521 163.463 521.537 164 522.2 164H567.8C568.463 164 569 163.463 569 162.8V160.2C569 159.537 568.463 159 567.8 159Z" fill="#293E52"/>
<path d="M537.516 140H552.484C553.693 140 554.714 140.9 554.865 142.099L557 159H533L535.135 142.099C535.286 140.9 536.307 140 537.516 140Z" fill="#293E52"/>
<path opacity="0.05" d="M545 164V84H589C590.105 84 591 84.8954 591 86V149C591 150.105 590.105 151 589 151H555.99L557 159H567.8C568.463 159 569 159.537 569 160.2V162.8C569 163.463 568.463 164 567.8 164H545Z" fill="black"/>
<path d="M480 155H481.4C483.388 155 485 153.388 485 151.4V140" stroke="#293E52" stroke-linecap="round"/>
<path opacity="0.05" d="M149 174L132.089 157L88 159.429L102.495 174H149Z" fill="black"/>
<path d="M85 150V146L85.5769 145.366C87.9615 144.152 89.5513 144.152 90.3462 145.366C91.141 146.58 91.9359 146.985 92.7308 146.58C93.1282 146.378 93.5256 145.973 93.9231 145.366C95.1154 143.545 97.5 143.545 98.6923 145.366C99.4872 146.58 100.282 146.985 101.077 146.58C101.474 146.378 101.872 145.973 102.269 145.366C103.462 143.545 105.846 143.545 107.038 145.366C107.833 146.58 108.628 146.985 109.423 146.58C109.821 146.378 110.218 145.973 110.615 145.366C111.808 143.545 114.192 143.545 115.385 145.366C116.179 146.58 116.974 146.985 117.769 146.58C118.167 146.378 118.564 145.973 118.962 145.366C120.154 143.545 122.538 143.545 123.731 145.366C124.526 146.58 125.321 146.985 126.115 146.58C126.513 146.378 126.91 145.973 127.308 145.366C128.5 143.545 130.885 143.545 132.077 145.366C132.607 146.176 133.248 146.58 134 146.58V150H85Z" fill="#BAB784"/>
<path d="M83 148H135L131.547 158.359C131.22 159.339 130.303 160 129.27 160H88.7298C87.6968 160 86.7797 159.339 86.453 158.359L83 148Z" fill="white"/>
<path d="M83.1914 146.58C83.9863 146.985 84.7811 146.58 85.576 145.366C86.7683 143.545 89.1529 143.545 90.3453 145.366C91.1401 146.58 91.935 146.985 92.7299 146.58C93.1273 146.378 93.5247 145.973 93.9222 145.366C95.1145 143.545 97.4991 143.545 98.6914 145.366C99.4863 146.58 100.281 146.985 101.076 146.58C101.473 146.378 101.871 145.973 102.268 145.366C103.461 143.545 105.845 143.545 107.038 145.366C107.832 146.58 108.627 146.985 109.422 146.58C109.82 146.378 110.217 145.973 110.614 145.366C111.807 143.545 114.191 143.545 115.384 145.366C116.179 146.58 116.973 146.985 117.768 146.58C118.166 146.378 118.563 145.973 118.961 145.366C120.153 143.545 122.538 143.545 123.73 145.366C124.525 146.58 125.32 146.985 126.114 146.58C126.512 146.378 126.909 145.973 127.307 145.366C128.499 143.545 130.884 143.545 132.076 145.366C132.871 146.58 133.666 146.985 134.461 146.58" stroke="#FFFAB8" stroke-width="1.2"/>
<path d="M83.1914 149.009C83.9863 149.414 84.7811 149.009 85.576 147.795C86.7683 145.973 89.1529 145.973 90.3453 147.795C91.1401 149.009 91.935 149.414 92.7299 149.009C93.1273 148.807 93.5247 148.402 93.9222 147.795C95.1145 145.973 97.4991 145.973 98.6914 147.795C99.4863 149.009 100.281 149.414 101.076 149.009C101.473 148.807 101.871 148.402 102.268 147.795C103.461 145.973 105.845 145.973 107.038 147.795C107.832 149.009 108.627 149.414 109.422 149.009C109.82 148.807 110.217 148.402 110.614 147.795C111.807 145.973 114.191 145.973 115.384 147.795C116.179 149.009 116.973 149.414 117.768 149.009C118.166 148.807 118.563 148.402 118.961 147.795C120.153 145.973 122.538 145.973 123.73 147.795C124.525 149.009 125.32 149.414 126.114 149.009C126.512 148.807 126.909 148.402 127.307 147.795C128.499 145.973 130.884 145.973 132.076 147.795C132.871 149.009 133.666 149.414 134.461 149.009C134.063 147.289 134.262 146.226 135.057 145.821C136.249 145.214 138.634 147.643 136.845 150.071C135.057 152.5 135.057 154.929 136.845 154.929C138.634 154.929 140.422 156.143 139.826 157.964C139.23 159.786 141.018 161 143.999 159.179" stroke="#FFFAB8" stroke-width="1.2"/>
<path d="M135 148H83C82.4477 148 82 148.448 82 149C82 149.552 82.4477 150 83 150H135C135.552 150 136 149.552 136 149C136 148.448 135.552 148 135 148Z" fill="white"/>
<path d="M101 148C101 147.143 98.0957 147.036 98.0957 148.857C98.0957 150.678 102.269 151.893 100.48 153.714" stroke="#FFFAB8" stroke-width="1.2"/>
<path opacity="0.3" d="M642.224 138.714C642.224 140.541 635.382 133.231 639.114 127.748C641.602 124.092 642.224 120.843 640.98 118C648.859 122.062 650.933 126.123 647.201 130.185C641.602 136.277 642.224 136.886 642.224 138.714Z" fill="white"/>
<path d="M625 148H651V155C651 156.105 650.105 157 649 157H627C625.895 157 625 156.105 625 155V148Z" fill="white"/>
<path d="M423 142.006V116.994C423 116.358 423.253 115.747 423.703 115.297L425 114H438L439.297 115.297C439.747 115.747 440 116.358 440 116.994V142.006C440 142.642 439.747 143.253 439.297 143.703L438 145H425L423.703 143.703C423.253 143.253 423 142.642 423 142.006V142.006Z" fill="#8B572A"/>
<path d="M439.784 143C439.666 143.259 439.502 143.498 439.296 143.703L437.999 145H424.999L423.702 143.703C423.497 143.498 423.333 143.259 423.215 143H439.784Z" fill="#F2F2F2"/>
<path d="M438.5 113H424.5C424.224 113 424 113.224 424 113.5C424 113.776 424.224 114 424.5 114H438.5C438.776 114 439 113.776 439 113.5C439 113.224 438.776 113 438.5 113Z" fill="#F2F2F2"/>
<path d="M432 119H431C427.686 119 425 121.686 425 125V132C425 135.314 427.686 138 431 138H432C435.314 138 438 135.314 438 132V125C438 121.686 435.314 119 432 119Z" fill="#5C3A1C"/>
<path opacity="0.05" d="M443 174L430.715 161.217L413.311 160L408 164.261L417.36 174H443Z" fill="black"/>
<path d="M409 150V165L413.913 163.178L418.174 165L423.652 163.178L428.522 165L432.783 162.571C433.188 161.762 433.594 160.952 434 160.143C432.783 156.905 430.957 153.059 428.522 148.607L425.478 149.214L423.652 151.643L419.391 150.428L416.348 151.643L409 150Z" fill="#8B572A"/>
<path d="M413.912 163.178L416.956 153.464L418.173 165L413.912 163.178Z" fill="#5C3A1C"/>
<path d="M409 150L407 153V163L409 165V150Z" fill="#F2F2F2"/>
<path d="M423.652 163.178V151.643L428.522 165L423.652 163.178Z" fill="#5C3A1C"/>
<path d="M428.521 148.607L434 160.143" stroke="#F2F2F2" stroke-width="1.2" stroke-linecap="round"/>
<mask id="mask0" mask-type="alpha" maskUnits="userSpaceOnUse" x="499" y="83" width="93" height="24">
<path d="M531 107L499 83H592L559 107H531Z" fill="white"/>
</mask>
<g mask="url(#mask0)">
<path opacity="0.1" d="M504 86H506V111H504V86ZM508 86H510V111H508V86ZM512 86H514V111H512V86ZM516 86H518V111H516V86ZM520 86H522V111H520V86ZM524 86H526V111H524V86ZM528 86H530V111H528V86ZM532 86H534V111H532V86ZM536 86H538V111H536V86ZM540 86H542V111H540V86ZM544 86H546V111H544V86ZM548 86H550V111H548V86ZM552 86H554V111H552V86ZM556 86H558V111H556V86ZM560 86H562V111H560V86ZM564 86H566V111H564V86ZM568 86H570V111H568V86ZM572 86H574V111H572V86ZM576 86H578V111H576V86ZM580 86H582V111H580V86ZM584 86H586V111H584V86Z" fill="black"/>
</g>
<path d="M461.607 149.922C463.268 149.307 465.251 149 467.556 149C470.681 149 474.398 149.565 478.707 150.695C480.058 151.049 481 152.27 481 153.667V154.8C481 155.463 480.463 156 479.8 156H460.2C459.537 156 459 155.463 459 154.8V153.667C459 151.996 460.04 150.502 461.607 149.922Z" fill="#293E52"/>
<path opacity="0.05" d="M231 174L214 157L160 161L173 174H231Z" fill="black"/>
<path opacity="0.5" d="M214 157H180V159H214V157Z" fill="white"/>
<path opacity="0.5" d="M196 127H160V161H196V127Z" fill="white"/>
<path opacity="0.5" d="M160 127H162V161H160V127Z" fill="white"/>
<path opacity="0.7" d="M217 155H183V157H217V155Z" fill="white"/>
<path opacity="0.5" d="M213 153H179V155H213V153Z" fill="white"/>
<path opacity="0.7" d="M217 151H183V153H217V151Z" fill="white"/>
<path opacity="0.5" d="M219 149H185V151H219V149Z" fill="white"/>
<path opacity="0.7" d="M219 147H185V149H219V147Z" fill="white"/>
<path opacity="0.5" d="M226 145H192V147H226V145Z" fill="white"/>
<path opacity="0.7" d="M226 143H192V145H226V143Z" fill="white"/>
<path opacity="0.5" d="M219 141H185V143H219V141Z" fill="white"/>
<path opacity="0.7" d="M219 139H185V141H219V139Z" fill="white"/>
<path opacity="0.5" d="M219 137H185V139H219V137Z" fill="white"/>
<path opacity="0.5" d="M224 133H190V135H224V133Z" fill="white"/>
<path opacity="0.5" d="M222 129H188V131H222V129Z" fill="white"/>
<path opacity="0.7" d="M219 135H185V137H219V135Z" fill="white"/>
<path opacity="0.7" d="M218 131H184V133H218V131Z" fill="white"/>
<path d="M179 159C170.716 159 164 152.284 164 144C164 135.716 170.716 129 179 129C187.284 129 194 135.716 194 144C194 152.284 187.284 159 179 159ZM179 146C180.105 146 181 145.105 181 144C181 142.895 180.105 142 179 142C177.895 142 177 142.895 177 144C177 145.105 177.895 146 179 146Z" fill="#83C7C1"/>
<path opacity="0.2" d="M168.393 154.607C165.679 151.892 164 148.142 164 144C164 139.858 165.679 136.108 168.393 133.394L177.586 142.586C177.224 142.948 177 143.448 177 144C177 144.552 177.224 145.052 177.586 145.414L168.393 154.607ZM189.607 133.394C192.321 136.108 194 139.858 194 144C194 148.142 192.321 151.892 189.607 154.607L180.414 145.414C180.776 145.052 181 144.552 181 144C181 143.448 180.776 142.948 180.414 142.586L189.607 133.394Z" fill="white"/>
<path d="M179 149C176.239 149 174 146.761 174 144C174 141.239 176.239 139 179 139C181.761 139 184 141.239 184 144C184 146.761 181.761 149 179 149ZM179 146C180.105 146 181 145.105 181 144C181 142.895 180.105 142 179 142C177.895 142 177 142.895 177 144C177 145.105 177.895 146 179 146Z" fill="#D3E5ED"/>
<path opacity="0.05" d="M414 174L383 143L231 150L255 174H414Z" fill="black"/>
<path d="M276 90H232C231.448 90 231 90.4477 231 91V149C231 149.552 231.448 150 232 150H276C276.552 150 277 149.552 277 149V91C277 90.4477 276.552 90 276 90Z" fill="#293E52"/>
<path d="M382 90H338C337.448 90 337 90.4477 337 91V149C337 149.552 337.448 150 338 150H382C382.552 150 383 149.552 383 149V91C383 90.4477 382.552 90 382 90Z" fill="#293E52"/>
<path d="M336 102H278C277.448 102 277 102.448 277 103V149C277 149.552 277.448 150 278 150H336C336.552 150 337 149.552 337 149V103C337 102.448 336.552 102 336 102Z" fill="#1F2E3D"/>
<path d="M324 106H290C289.448 106 289 106.448 289 107V109C289 109.552 289.448 110 290 110H324C324.552 110 325 109.552 325 109V107C325 106.448 324.552 106 324 106Z" fill="#9EABB1"/>
<path d="M289 123H325V136C325 136.552 324.552 137 324 137H290C289.448 137 289 136.552 289 136V123Z" fill="#9EABB1"/>
<path d="M318 134C320.209 134 322 132.209 322 130C322 127.791 320.209 126 318 126C315.791 126 314 127.791 314 130C314 132.209 315.791 134 318 134Z" fill="#D8D8D8"/>
<path opacity="0.2" d="M331 117C332.105 117 333 116.105 333 115C333 113.895 332.105 113 331 113C329.895 113 329 113.895 329 115C329 116.105 329.895 117 331 117Z" fill="black"/>
<path opacity="0.2" d="M331 124C332.105 124 333 123.105 333 122C333 120.895 332.105 120 331 120C329.895 120 329 120.895 329 122C329 123.105 329.895 124 331 124Z" fill="black"/>
<path opacity="0.2" d="M331 131C332.105 131 333 130.105 333 129C333 127.895 332.105 127 331 127C329.895 127 329 127.895 329 129C329 130.105 329.895 131 331 131Z" fill="black"/>
<path d="M290 113H324C324.552 113 325 113.448 325 114V123H289V114C289 113.448 289.448 113 290 113Z" fill="#0F5576"/>
<path opacity="0.2" d="M254 144C263.389 144 271 136.389 271 127C271 117.611 263.389 110 254 110C244.611 110 237 117.611 237 127C237 136.389 244.611 144 254 144Z" fill="black"/>
<path opacity="0.2" d="M360 144C369.389 144 377 136.389 377 127C377 117.611 369.389 110 360 110C350.611 110 343 117.611 343 127C343 136.389 350.611 144 360 144Z" fill="black"/>
<path d="M254 141C261.732 141 268 134.732 268 127C268 119.268 261.732 113 254 113C246.268 113 240 119.268 240 127C240 134.732 246.268 141 254 141Z" fill="#9EABB1"/>
<path d="M360 141C367.732 141 374 134.732 374 127C374 119.268 367.732 113 360 113C352.268 113 346 119.268 346 127C346 134.732 352.268 141 360 141Z" fill="#9EABB1"/>
<path opacity="0.1" d="M254 130C255.657 130 257 128.657 257 127C257 125.343 255.657 124 254 124C252.343 124 251 125.343 251 127C251 128.657 252.343 130 254 130Z" fill="black"/>
<path opacity="0.1" d="M360 130C361.657 130 363 128.657 363 127C363 125.343 361.657 124 360 124C358.343 124 357 125.343 357 127C357 128.657 358.343 130 360 130Z" fill="black"/>
<path opacity="0.2" d="M254 108C257.314 108 260 105.314 260 102C260 98.6863 257.314 96 254 96C250.686 96 248 98.6863 248 102C248 105.314 250.686 108 254 108Z" fill="black"/>
<path opacity="0.2" d="M360 108C363.314 108 366 105.314 366 102C366 98.6863 363.314 96 360 96C356.686 96 354 98.6863 354 102C354 105.314 356.686 108 360 108Z" fill="black"/>
<path d="M293.5 126H291.5C291.224 126 291 126.224 291 126.5V128.5C291 128.776 291.224 129 291.5 129H293.5C293.776 129 294 128.776 294 128.5V126.5C294 126.224 293.776 126 293.5 126Z" fill="#CD4444"/>
<path d="M293.5 131H291.5C291.224 131 291 131.224 291 131.5V133.5C291 133.776 291.224 134 291.5 134H293.5C293.776 134 294 133.776 294 133.5V131.5C294 131.224 293.776 131 293.5 131Z" fill="#0F5576"/>
<path d="M298.5 126H296.5C296.224 126 296 126.224 296 126.5V128.5C296 128.776 296.224 129 296.5 129H298.5C298.776 129 299 128.776 299 128.5V126.5C299 126.224 298.776 126 298.5 126Z" fill="#0F5576"/>
<path d="M298.5 131H296.5C296.224 131 296 131.224 296 131.5V133.5C296 133.776 296.224 134 296.5 134H298.5C298.776 134 299 133.776 299 133.5V131.5C299 131.224 298.776 131 298.5 131Z" fill="#0F5576"/>
<path d="M303.5 126H301.5C301.224 126 301 126.224 301 126.5V128.5C301 128.776 301.224 129 301.5 129H303.5C303.776 129 304 128.776 304 128.5V126.5C304 126.224 303.776 126 303.5 126Z" fill="#0F5576"/>
<path d="M303.5 131H301.5C301.224 131 301 131.224 301 131.5V133.5C301 133.776 301.224 134 301.5 134H303.5C303.776 134 304 133.776 304 133.5V131.5C304 131.224 303.776 131 303.5 131Z" fill="#0F5576"/>
<path d="M308.5 126H306.5C306.224 126 306 126.224 306 126.5V128.5C306 128.776 306.224 129 306.5 129H308.5C308.776 129 309 128.776 309 128.5V126.5C309 126.224 308.776 126 308.5 126Z" fill="#0F5576"/>
<path d="M308.5 131H306.5C306.224 131 306 131.224 306 131.5V133.5C306 133.776 306.224 134 306.5 134H308.5C308.776 134 309 133.776 309 133.5V131.5C309 131.224 308.776 131 308.5 131Z" fill="#0F5576"/>
</svg>
