<svg width="720" height="183" viewBox="0 0 720 183" fill="none" xmlns="http://www.w3.org/2000/svg">
<path opacity="0.3" d="M2 145H718C719.105 145 720 145.895 720 147V178H0V147C0 145.895 0.895431 145 2 145Z" fill="#293E51"/>
<path opacity="0.4" d="M0 178H720V181C720 182.105 719.105 183 718 183H2C0.895431 183 0 182.105 0 181V178Z" fill="#293E51"/>
<path opacity="0.05" d="M403 178L379 154H290L314 178H403Z" fill="black"/>
<path opacity="0.05" d="M649 178L626 155H622L645 178H649Z" fill="black"/>
<path opacity="0.05" d="M666 178L643 155L640 156L662 178H666Z" fill="black"/>
<path opacity="0.05" d="M630 178L607 155L604 156L626 178H630Z" fill="black"/>
<path opacity="0.05" d="M605 178L578.658 152L514 156.727L535.553 178H605Z" fill="black"/>
<path opacity="0.05" d="M504 179L475.2 150L462 152.417L488.4 179H504Z" fill="black"/>
<path opacity="0.05" d="M242 178L227.692 164L180 168.667L189.538 178H242Z" fill="black"/>
<path opacity="0.05" d="M144 179L131.907 167L92 169.4L101.674 179H144Z" fill="black"/>
<path d="M626 105H622V124H626V105Z" fill="#D4D8D9"/>
<path d="M626.8 98H621.2C620.537 98 620 98.5372 620 99.2V101.8C620 102.463 620.537 103 621.2 103H626.8C627.463 103 628 102.463 628 101.8V99.2C628 98.5372 627.463 98 626.8 98Z" fill="#36516B"/>
<path d="M626 96H622V98H626V96Z" fill="#36516B"/>
<path d="M627 103H621V105H627V103Z" fill="#36516B"/>
<path d="M628 126H620V137H628V126Z" fill="#36516B"/>
<path fill-rule="evenodd" clip-rule="evenodd" d="M622 124H626L628 126H620L622 124Z" fill="#36516B"/>
<path d="M627 137H621V139H627V137Z" fill="#36516B"/>
<path fill-rule="evenodd" clip-rule="evenodd" d="M622 139H626V154.8C626 155.463 625.463 156 624.8 156H623.2C622.537 156 622 155.463 622 154.8V139Z" fill="#36516B"/>
<path fill-rule="evenodd" clip-rule="evenodd" d="M644 156L627 139H623L640 156H644Z" fill="#36516B"/>
<path fill-rule="evenodd" clip-rule="evenodd" d="M604 156L621 139H625L608 156H604Z" fill="#36516B"/>
<path d="M638.6 77H609.4C608.075 77 607 78.0745 607 79.4V91.6C607 92.9255 608.075 94 609.4 94H638.6C639.925 94 641 92.9255 641 91.6V79.4C641 78.0745 639.925 77 638.6 77Z" fill="#293E52"/>
<path d="M628 80H620V96H628V80Z" fill="#36516B"/>
<path fill-rule="evenodd" clip-rule="evenodd" d="M620 76H622V80H620V76Z" fill="#36516B"/>
<path d="M628 76H626V80H628V76Z" fill="#36516B"/>
<path d="M246 130H197C195.895 130 195 130.895 195 132V164C195 165.105 195.895 166 197 166H246C247.105 166 248 165.105 248 164V132C248 130.895 247.105 130 246 130Z" fill="#293E52"/>
<path fill-rule="evenodd" clip-rule="evenodd" d="M201 151H242C243.105 151 244 151.895 244 153V170H199V153C199 151.895 199.895 151 201 151Z" fill="#F2F2F2"/>
<path d="M582.14 78.7791C576.749 75.3641 567.594 73.2276 560.641 71.6968C559.353 71.2015 558.164 70.4804 557.13 69.5675C555.861 67.6339 555.038 65.4436 554.721 63.1545C554.6 63.2627 554.488 63.3732 554.368 63.4802L554.292 63.5366C552.448 65.207 550.348 66.5717 548.072 67.5789C546.683 68.0775 545.208 68.2893 543.735 68.2013H543.686C542.213 68.2893 540.738 68.0775 539.349 67.5789C537.075 66.5711 534.977 65.2064 533.135 63.5366L533.086 63.509V63.4585C533.224 63.5787 533.224 63.5787 533.086 63.4525C532.947 63.3264 532.822 63.2122 532.69 63.092C532.372 65.4284 531.527 67.6625 530.219 69.6264C529.171 70.5381 527.967 71.2544 526.664 71.7412C525.797 71.9335 510 75.8267 505.328 78.7875C499.009 82.7913 500.256 86.9777 498.697 92.0137H588.78C587.223 86.9765 588.47 82.7913 582.14 78.7791Z" fill="#FFDBB0"/>
<path opacity="0.05" d="M582.141 78.7791C576.751 75.3641 567.595 73.2277 560.642 71.6968C559.354 71.2015 558.165 70.4804 557.131 69.5676C555.862 67.634 555.04 65.4437 554.722 63.1545C554.601 63.2627 554.489 63.3732 554.369 63.4802L554.293 63.5367C552.45 65.207 550.349 66.5717 548.073 67.5789C546.685 68.0775 545.209 68.2893 543.736 68.2013H543.687C542.214 68.2893 540.739 68.0775 539.351 67.5789C537.097 66.5805 535.017 65.2306 533.189 63.5799L561.697 92.0137H588.782C587.224 86.9765 588.471 82.7913 582.141 78.7791Z" fill="black"/>
<path d="M589.97 92.0137C588.442 86.7543 589.083 82.7168 583.36 78.6674C582.981 78.379 582.58 78.0954 582.141 77.8179C578.07 75.238 571.851 73.3887 566.054 71.978L564.379 69.165C564.281 69.0006 564.165 68.8481 564.031 68.7108L562.27 66.9024V65.7525C562.272 65.2018 562.058 64.6721 561.675 64.2757C560.811 63.38 559.697 63.1243 558.705 63.4898C555.641 64.6181 548.807 66.9024 543.639 66.9024C538.472 66.9024 531.637 64.6193 528.575 63.4898C527.583 63.1243 526.468 63.38 525.736 64.1411C525.222 64.6721 525.008 65.2018 525.01 65.7525V66.9024L523.249 68.7108C523.115 68.8481 522.998 69.0005 522.901 69.165L521.087 72.2171C520.57 72.3613 520.024 72.5175 519.467 72.6786C515.074 73.8288 510.777 75.3152 506.614 77.1245C505.907 77.4439 505.223 77.8113 504.566 78.224C498.127 82.4297 499.082 86.5716 497.497 91.8491C495.874 96.1857 490.414 122.3 491.056 131.273C491.698 140.245 516.764 148.735 543.735 148.736C570.705 148.737 595.771 140.244 596.413 131.273C597.055 122.302 591.592 96.1797 589.97 92.0137Z" fill="#CA097F"/>
<path opacity="0.05" d="M596.344 126.577C595.592 115.39 591.364 95.5957 589.969 92.0137H589.986C589.968 91.9572 589.954 91.8996 589.937 91.8431H589.97C588.442 86.7543 589.083 82.7168 583.36 78.6674C582.981 78.379 582.579 78.0954 582.141 77.8179C578.07 75.238 571.851 73.3887 566.053 71.978L564.379 69.165C564.281 69.0006 564.164 68.8481 564.031 68.7108L562.27 66.9024V65.7525C562.271 65.2018 562.058 64.6721 561.675 64.2757L561.543 64.1411C560.811 63.38 559.696 63.1243 558.704 63.4898C555.641 64.6181 548.806 66.9024 543.639 66.9024C540.785 66.8097 537.953 66.3691 535.207 65.5903L596.344 126.577Z" fill="black"/>
<path d="M533.09 63.5089L533.14 63.5366C534.981 65.2064 537.079 66.5711 539.354 67.5788C540.742 68.0775 542.217 68.2892 543.69 68.2013H543.74C545.212 68.2892 546.688 68.0775 548.076 67.5788C550.35 66.5711 552.448 65.2064 554.29 63.5366L554.366 63.4801C556.623 61.5859 558.496 59.2776 559.882 56.6802C561.122 53.9357 560.619 51.047 561.192 47.2427C563.987 48.6558 567.623 36.3513 566.185 34.1139C564.841 32.0207 562.965 33.8339 562.721 34.0851L562.739 27.0664C562.739 11.836 554.236 7.88989 543.746 7.88989C533.255 7.88989 524.745 11.8348 524.745 27.0664L524.727 34.1139C524.727 34.1139 522.679 31.8705 521.234 34.1139C519.788 36.3573 523.49 48.7315 526.293 47.2319C526.864 51.0242 526.341 53.8816 527.572 56.6201C528.956 59.2286 530.829 61.5477 533.09 63.4513C533.23 63.5714 533.231 63.581 533.09 63.4573V63.5089Z" fill="#FFDBB0"/>
<path d="M550.106 74.8149H550.115C550.778 74.8149 551.315 75.3522 551.315 76.0149V101.252C551.315 101.915 550.778 102.452 550.115 102.452H550.106C549.444 102.452 548.906 101.915 548.906 101.252V76.0149C548.906 75.3522 549.444 74.8149 550.106 74.8149ZM536.856 74.8149H536.865C537.528 74.8149 538.065 75.3522 538.065 76.0149V95.244C538.065 95.9067 537.528 96.444 536.865 96.444H536.856C536.194 96.444 535.656 95.9067 535.656 95.244V76.0149C535.656 75.3522 536.194 74.8149 536.856 74.8149Z" fill="#F2F2F2"/>
<path d="M538.701 39.6366C537.625 40.7844 536.121 41.4368 534.546 41.439C532.88 41.3457 531.329 40.5614 530.27 39.2761C531.522 38.47 532.996 38.0739 534.485 38.143C536.038 38.0315 537.567 38.5731 538.701 39.6366ZM548.929 39.6366C550.064 38.5731 551.592 38.0315 553.145 38.143C554.634 38.0739 556.108 38.47 557.361 39.2761C556.301 40.5614 554.751 41.3457 553.085 41.439C551.509 41.4368 550.005 40.7844 548.929 39.6366Z" fill="white"/>
<path d="M534.33 38.1443C534.889 38.1483 535.445 38.2115 535.991 38.3329C536.627 39.1321 536.527 40.2883 535.762 40.9664C534.997 41.6444 533.834 41.6078 533.114 40.883C532.393 40.1582 532.366 38.998 533.052 38.2404C533.475 38.1778 533.902 38.1457 534.33 38.1443ZM552.992 38.1443C553.536 38.1448 554.079 38.1922 554.615 38.2861C555.279 39.0678 555.211 40.231 554.462 40.9313C553.713 41.6315 552.545 41.6229 551.806 40.9116C551.067 40.2004 551.017 39.0363 551.692 38.2644C552.121 38.1865 552.556 38.1463 552.992 38.1443Z" fill="#808080"/>
<path d="M534.483 40.4778C533.951 40.4778 533.52 40.0474 533.52 39.5165C533.52 38.9856 533.951 38.5552 534.483 38.5552C535.015 38.5552 535.447 38.9856 535.447 39.5165C535.447 40.0474 535.015 40.4778 534.483 40.4778ZM553.145 40.4778C552.613 40.4778 552.182 40.0474 552.182 39.5165C552.182 38.9856 552.613 38.5552 553.145 38.5552C553.677 38.5552 554.109 38.9856 554.109 39.5165C554.109 40.0474 553.677 40.4778 553.145 40.4778Z" fill="#534741"/>
<path d="M533.337 39.9972C533.071 39.9972 532.855 39.782 532.855 39.5165C532.855 39.2511 533.071 39.0359 533.337 39.0359C533.603 39.0359 533.819 39.2511 533.819 39.5165C533.819 39.782 533.603 39.9972 533.337 39.9972ZM552.008 39.9972C551.742 39.9972 551.526 39.782 551.526 39.5165C551.526 39.2511 551.742 39.0359 552.008 39.0359C552.274 39.0359 552.49 39.2511 552.49 39.5165C552.49 39.782 552.274 39.9972 552.008 39.9972Z" fill="white"/>
<path d="M529.922 38.8845C530.649 38.3768 531.481 38.0384 532.356 37.8943C533.183 37.7429 534.026 37.7025 534.864 37.7742C536.534 37.932 538.123 38.5665 539.441 39.6018L539.663 39.7893L539.482 39.9455L539.017 40.348L538.955 40.4021L538.907 40.3961C538.305 40.2777 537.68 40.4182 537.188 40.783C537.655 40.3381 538.29 40.1111 538.934 40.1582L538.825 40.205L539.081 39.6463L539.122 39.9887C537.853 39.1093 536.36 38.609 534.816 38.5468C534.054 38.5266 533.293 38.6074 532.553 38.7871C531.851 38.9441 531.19 39.2462 530.613 39.6739L530.564 39.7148C530.341 39.8986 530.012 39.8677 529.827 39.6457C529.643 39.4237 529.674 39.0947 529.897 38.9109L529.922 38.8845ZM557.058 39.7016C556.437 39.3021 555.755 39.007 555.039 38.828C554.299 38.6334 553.536 38.5357 552.771 38.5372C552.006 38.5337 551.246 38.6555 550.521 38.8977C549.793 39.132 549.116 39.4987 548.522 39.9791L548.548 39.6499L548.804 40.2086L548.698 40.1582C549.343 40.1111 549.977 40.3381 550.445 40.783C549.952 40.4182 549.328 40.2777 548.726 40.3961L548.678 40.4021L548.615 40.348L548.15 39.9455L547.986 39.8037L548.175 39.6162C548.796 39.0458 549.518 38.5973 550.305 38.2945C551.086 37.984 551.912 37.8034 552.752 37.7597C553.589 37.7111 554.428 37.7713 555.25 37.9388C556.102 38.1003 556.92 38.4068 557.667 38.8448C557.827 38.9414 557.923 39.1157 557.919 39.3021C557.915 39.4886 557.812 39.6587 557.648 39.7485C557.485 39.8384 557.285 39.8342 557.125 39.7376L557.1 39.722L557.058 39.7016Z" fill="#826F67"/>
<path d="M528.042 34.0911C528.042 34.0911 527.98 33.7847 529.18 32.5891C530.555 31.2168 537.886 32.1361 540.23 32.3764C540.974 32.4344 541.598 32.9604 541.778 33.6825C541.865 33.9602 541.801 34.2632 541.608 34.4816C540.976 35.1125 530.951 33.8508 529.939 33.8508C529.299 33.8552 528.662 33.9359 528.042 34.0911ZM559.585 34.0911C558.964 33.9359 558.328 33.8552 557.688 33.8508C556.676 33.8508 546.651 35.1125 546.018 34.4816C545.826 34.2632 545.761 33.9602 545.848 33.6825C546.029 32.9604 546.652 32.4344 547.396 32.3764C549.74 32.1361 557.071 31.2168 558.447 32.5891C559.648 33.7847 559.585 34.0911 559.585 34.0911Z" fill="#534741"/>
<path opacity="0.1" d="M546.502 50.468C545.859 51.3516 544.83 51.8745 543.736 51.8745C542.641 51.8745 541.613 51.3516 540.97 50.468C539.893 49.3937 538.922 50.0486 538.922 50.8981C538.922 51.6948 540.353 51.6191 541.09 51.9796C541.889 52.4829 542.798 52.7867 543.74 52.8652C544.682 52.7867 545.591 52.4829 546.39 51.9796C547.128 51.6191 548.558 51.6948 548.558 50.8981C548.555 50.0498 547.579 49.3949 546.502 50.468Z" fill="black"/>
<path opacity="0.1" d="M545.907 56.1348C545.179 56.0817 544.446 56.1474 543.739 56.3294C543.032 56.1474 542.299 56.0817 541.571 56.1348C540.567 56.2549 536.713 57.1814 536.713 57.1814C536.713 57.1814 538.985 58.7519 540.007 59.6495C541.03 60.5471 543.741 60.5471 543.741 60.5471C543.741 60.5471 546.452 60.5471 547.476 59.6495C548.499 58.7519 550.77 57.1814 550.77 57.1814C550.77 57.1814 546.911 56.2537 545.907 56.1348Z" fill="black"/>
<path opacity="0.1" d="M550.765 57.1814C550.765 57.1814 546.911 56.2537 545.907 56.1348C545.179 56.0817 544.446 56.1474 543.739 56.3294C543.032 56.1474 542.299 56.0817 541.571 56.1348C540.567 56.2549 536.713 57.1814 536.713 57.1814C539.018 57.6833 541.356 58.023 543.709 58.1979C546.082 58.0266 548.44 57.6868 550.765 57.1814Z" fill="black"/>
<path opacity="0.05" d="M554.309 63.5259L554.308 63.5271L554.303 63.5307L554.309 63.5259Z" fill="black"/>
<path opacity="0.05" d="M566.18 34.114C564.835 32.0208 562.96 33.834 562.715 34.0852L562.734 27.0665C562.734 11.8361 554.231 7.89 543.74 6.92871V67.2401C543.74 68.2014 543.74 68.2014 543.74 68.2014C545.213 68.2894 546.688 68.0776 548.077 67.5789C550.351 66.5712 552.449 65.2065 554.291 63.5367L554.313 63.5271C556.592 61.622 558.482 59.2965 559.88 56.6779C561.121 53.9334 560.617 51.0447 561.19 47.2404C563.983 48.6559 567.618 36.3502 566.18 34.114Z" fill="black"/>
<path d="M524.466 14.0591C524.466 14.0591 527.357 26.0752 526.393 28.9591C525.43 31.843 526.393 37.13 526.393 37.13C525.797 36.1666 525.251 35.1736 524.756 34.1549C524.325 33.0731 524.061 31.9321 523.973 30.7711C523.973 30.7711 522.659 16.1018 524.466 14.0591Z" fill="#624D48"/>
<path d="M562.989 14.0591C562.989 14.0591 560.098 26.0752 561.062 28.9591C562.026 31.843 561.062 37.13 561.062 37.13C561.658 36.1666 562.204 35.1736 562.699 34.1549C563.13 33.0731 563.394 31.9321 563.482 30.7711C563.482 30.7711 564.796 16.1018 562.989 14.0591Z" fill="#624D48"/>
<path opacity="0.2" d="M524.466 14.0591C524.466 14.0591 527.357 26.0752 526.393 28.9591C525.43 31.843 526.393 37.13 526.393 37.13C525.797 36.1666 525.251 35.1736 524.756 34.1549C524.325 33.0731 524.061 31.9321 523.973 30.7711C523.973 30.7711 522.659 16.1018 524.466 14.0591Z" fill="white"/>
<path opacity="0.2" d="M562.989 14.0591C562.989 14.0591 560.098 26.0752 561.062 28.9591C562.026 31.843 561.062 37.13 561.062 37.13C561.658 36.1666 562.204 35.1736 562.699 34.1549C563.13 33.0731 563.394 31.9321 563.482 30.7711C563.482 30.7711 564.796 16.1018 562.989 14.0591Z" fill="white"/>
<path d="M526.59 25.5946C526.59 25.5946 523.217 17.9643 523.442 12.8575C523.541 10.5744 527.598 5.88811 529.284 3.36473C530.971 0.841341 534.946 -0.600595 541.812 0.240534C540.568 0.55429 539.414 1.15059 538.439 1.98287C538.216 2.26161 538.016 2.55866 537.843 2.87086C537.843 2.87086 542.95 0.000211716 552.258 2.28328C561.565 4.56634 562.65 7.20989 562.65 7.20989C560.833 6.93837 558.982 6.97901 557.178 7.33005C557.178 7.33005 563.253 9.13247 566.505 14.0591L563.589 15.6488C563.589 15.6488 567.95 23.5518 566.505 29.9204C566.505 29.9204 564.675 25.0743 556.857 24.6333C554.679 24.5131 549.082 25.1283 543.739 23.5242C539.511 22.2553 527.005 20.6283 526.59 25.5946Z" fill="#624D48"/>
<path d="M553.505 34.7268C549.997 34.8554 548.313 35.7914 546.483 36.069C544.648 36.286 542.793 36.286 540.957 36.069C539.127 35.7914 537.443 34.8554 533.936 34.7268C530.792 34.7525 527.655 35.0285 524.555 35.5523C524.688 36.385 524.779 37.0639 524.916 37.7332C524.955 37.9227 525.075 38.0856 525.245 38.179C525.935 38.4013 525.975 38.9301 526.041 39.5285C526.146 40.8085 526.334 42.0805 526.604 43.3364C527.093 45.3358 528.018 46.9136 530.097 47.3954C532.368 47.9417 534.741 47.8958 536.989 47.262C540.351 46.0784 541.579 43.2282 542.311 39.8961C542.486 39.0983 542.832 38.5587 543.702 38.5275H543.732C544.603 38.5587 544.949 39.0983 545.124 39.8961C545.855 43.2294 547.083 46.0796 550.445 47.262C552.693 47.8958 555.067 47.9417 557.338 47.3954C559.42 46.9148 560.349 45.3358 560.831 43.3364C561.1 42.0805 561.288 40.8085 561.393 39.5285C561.46 38.9276 561.499 38.4013 562.19 38.179C562.359 38.0856 562.479 37.9227 562.518 37.7332C562.654 37.0639 562.746 36.385 562.88 35.5523C559.782 35.0288 556.647 34.7528 553.505 34.7268ZM540.586 40.2302C540.422 41.5817 539.948 42.8773 539.201 44.0165C537.697 46.3644 535.388 46.6901 532.924 46.6492C529.051 46.606 527.931 45.5678 527.455 40.9391C527.436 40.5789 527.436 40.2179 527.455 39.8577C527.462 37.374 528.289 36.3622 530.764 36.0125C533.294 35.5656 535.894 35.743 538.34 36.5292C540.267 37.1649 540.832 38.2367 540.586 40.2326V40.2302ZM559.985 40.9391C559.511 45.5714 558.389 46.606 554.517 46.6492C552.053 46.6901 549.743 46.3632 548.24 44.0165C547.492 42.8774 547.018 41.5817 546.854 40.2302C546.614 38.2343 547.172 37.1625 549.106 36.5304C551.551 35.7441 554.152 35.5667 556.681 36.0137C559.158 36.367 559.983 37.3788 559.99 39.8589C560.007 40.2196 560.006 40.581 559.985 40.9416V40.9391Z" fill="#3F5263"/>
<path opacity="0.05" d="M566.504 14.059C563.251 9.13241 557.177 7.32999 557.177 7.32999C558.981 6.97895 560.831 6.93831 562.649 7.20983C562.649 7.20983 561.565 4.56628 552.257 2.28322C549.467 1.56508 546.581 1.28775 543.705 1.46131V23.5157L543.733 23.5241C549.076 25.1283 554.672 24.5107 556.85 24.6332C564.669 25.0742 566.499 29.9203 566.499 29.9203C567.944 23.5518 563.582 15.6488 563.582 15.6488L566.504 14.059Z" fill="black"/>
<path d="M574 113H517C514.239 113 512 115.239 512 118V154C512 156.761 514.239 159 517 159H574C576.761 159 579 156.761 579 154V118C579 115.239 576.761 113 574 113Z" fill="#F2F2F2"/>
<path opacity="0.05" d="M545 113H574C576.761 113 579 115.239 579 118V154C579 156.761 576.761 159 574 159H545V113Z" fill="black"/>
<path d="M126 148H96C91.5817 148 88 151.582 88 156V162C88 166.418 91.5817 170 96 170H126C130.418 170 134 166.418 134 162V156C134 151.582 130.418 148 126 148Z" fill="#ECF0F1"/>
<path d="M126 149H96C92.134 149 89 152.134 89 156V162C89 165.866 92.134 169 96 169H126C129.866 169 133 165.866 133 162V156C133 152.134 129.866 149 126 149Z" fill="#293E52"/>
<path fill-rule="evenodd" clip-rule="evenodd" d="M109 144H116C115.333 144.667 115 145.333 115 146C115 146.667 115.333 147.333 116 148H109C108.333 147.333 108 146.667 108 146C108 145.333 108.333 144.667 109 144Z" fill="#293E52"/>
<path fill-rule="evenodd" clip-rule="evenodd" d="M109 151H126C128.761 151 131 153.239 131 156V162C131 164.761 128.761 167 126 167H109C106.239 167 104 164.761 104 162V156C104 153.239 106.239 151 109 151Z" fill="#ECF0F1"/>
<path d="M88 156H86V162H88V156Z" fill="#293E52"/>
<path d="M136 156H134V162H136V156Z" fill="#293E52"/>
<path fill-rule="evenodd" clip-rule="evenodd" d="M112.2 157H113.8C114.463 157 115 157.537 115 158.2V159.8C115 160.463 114.463 161 113.8 161H112.2C111.537 161 111 160.463 111 159.8V158.2C111 157.537 111.537 157 112.2 157Z" fill="#9E4D4D"/>
<path fill-rule="evenodd" clip-rule="evenodd" d="M118.2 157H123.8C124.463 157 125 157.537 125 158.2V159.8C125 160.463 124.463 161 123.8 161H118.2C117.537 161 117 160.463 117 159.8V158.2C117 157.537 117.537 157 118.2 157Z" fill="#293E52"/>
<path fill-rule="evenodd" clip-rule="evenodd" d="M472 75H420C419.448 75 419 74.5523 419 74V73H418C417.448 73 417 72.5523 417 72V71C417 70.4477 417.448 70 418 70H474C474.552 70 475 70.4477 475 71V72C475 72.5523 474.552 73 474 73H473V74C473 74.5523 472.552 75 472 75Z" fill="#3B5975"/>
<path fill-rule="evenodd" clip-rule="evenodd" d="M432.734 75H459.264L453.938 80.3625C453.488 80.8162 452.875 81.0714 452.235 81.0714H439.763C439.123 81.0714 438.51 80.8162 438.06 80.3625L432.734 75Z" fill="#2C3F55"/>
<path fill-rule="evenodd" clip-rule="evenodd" d="M446 66.1426C452.833 66.1426 459.667 67.4759 466.5 70.1426H425.5C432.333 67.4759 439.167 66.1426 446 66.1426Z" fill="#293E52"/>
<path fill-rule="evenodd" clip-rule="evenodd" d="M433 75H436V79H433V75Z" fill="#3B5975"/>
<path fill-rule="evenodd" clip-rule="evenodd" d="M436 75H456V77H436V75Z" fill="#3B5975"/>
<path d="M459 75H456V79H459V75Z" fill="#3B5975"/>
<path fill-rule="evenodd" clip-rule="evenodd" d="M432.999 79H435.999C435.597 81.4286 435.396 83.8572 435.396 86.2858C435.396 88.0631 435.504 89.6235 435.719 90.9673H435.719C435.824 91.6217 435.379 92.2372 434.724 92.342C434.662 92.3521 434.598 92.3572 434.535 92.3572H433.969C433.39 92.3572 432.893 91.9429 432.789 91.3727C432.527 89.9404 432.396 88.2448 432.396 86.2858C432.396 83.8572 432.597 81.4286 432.999 79Z" fill="#3B5975"/>
<path fill-rule="evenodd" clip-rule="evenodd" d="M456 79H459C459.402 81.4286 459.603 83.8572 459.603 86.2858C459.603 88.2448 459.472 89.9404 459.211 91.3727C459.106 91.9428 458.61 92.3572 458.03 92.3572H457.465C456.802 92.3572 456.265 91.8199 456.265 91.1571C456.265 91.0935 456.27 91.0301 456.28 90.9673C456.495 89.6235 456.603 88.0631 456.603 86.2858C456.603 83.8572 456.402 81.4286 456 79Z" fill="#3B5975"/>
<path d="M423 64H419V70H423V64Z" fill="#293E52"/>
<path fill-rule="evenodd" clip-rule="evenodd" d="M420 62H422V64H420V62Z" fill="#293E52"/>
<path d="M473 64H469V70H473V64Z" fill="#293E52"/>
<path fill-rule="evenodd" clip-rule="evenodd" d="M470 62H472V64H470V62Z" fill="#293E52"/>
<path opacity="0.5" d="M421 66C430.389 66 438 64.2091 438 62C438 59.7909 430.389 58 421 58C411.611 58 404 59.7909 404 62C404 64.2091 411.611 66 421 66Z" fill="white"/>
<path opacity="0.5" d="M471 66C480.389 66 488 64.2091 488 62C488 59.7909 480.389 58 471 58C461.611 58 454 59.7909 454 62C454 64.2091 461.611 66 471 66Z" fill="white"/>
<path opacity="0.8" fill-rule="evenodd" clip-rule="evenodd" d="M438 62C438 64.2091 430.389 66 421 66V62H438Z" fill="white"/>
<path opacity="0.8" fill-rule="evenodd" clip-rule="evenodd" d="M488 62C488 64.2091 480.389 66 471 66V62H488Z" fill="white"/>
<path opacity="0.8" fill-rule="evenodd" clip-rule="evenodd" d="M404 62C404 59.7909 411.611 58 421 58V62H404Z" fill="white"/>
<path opacity="0.8" fill-rule="evenodd" clip-rule="evenodd" d="M454 62C454 59.7909 461.611 58 471 58V62H454Z" fill="white"/>
<path opacity="0.1" fill-rule="evenodd" clip-rule="evenodd" d="M446 83C450.418 83 454 79.4183 454 75C454 70.5817 450.418 67 446 67C441.582 67 438 70.5817 438 75C438 79.4183 441.582 83 446 83Z" fill="#02B997"/>
<path opacity="0.3" fill-rule="evenodd" clip-rule="evenodd" d="M446 82C449.866 82 453 78.866 453 75C453 71.134 449.866 68 446 68C442.134 68 439 71.134 439 75C439 78.866 442.134 82 446 82Z" fill="#02B997"/>
<path fill-rule="evenodd" clip-rule="evenodd" d="M446 77C447.105 77 448 76.1046 448 75C448 73.8954 447.105 73 446 73C444.895 73 444 73.8954 444 75C444 76.1046 444.895 77 446 77Z" fill="#02B997"/>
<path opacity="0.1" fill-rule="evenodd" clip-rule="evenodd" d="M459.463 75H472.296C472.052 78.3545 469.273 81 465.879 81C462.486 81 459.706 78.3545 459.463 75Z" fill="#CA097F"/>
<path opacity="0.1" fill-rule="evenodd" clip-rule="evenodd" d="M419.668 75H432.501C432.258 78.3545 429.478 81 426.084 81C422.691 81 419.911 78.3545 419.668 75Z" fill="#CA097F"/>
<path opacity="0.2" fill-rule="evenodd" clip-rule="evenodd" d="M471.416 75C471.108 77.8125 468.74 80 465.865 80C462.989 80 460.621 77.8125 460.312 75H471.416Z" fill="#CA097F"/>
<path opacity="0.2" fill-rule="evenodd" clip-rule="evenodd" d="M431.622 75C431.313 77.8125 428.945 80 426.07 80C423.194 80 420.826 77.8125 420.518 75H431.622Z" fill="#CA097F"/>
<path fill-rule="evenodd" clip-rule="evenodd" d="M422 75H430C430 75.5523 429.552 76 429 76H423C422.448 76 422 75.5523 422 75Z" fill="#CA097F"/>
<path fill-rule="evenodd" clip-rule="evenodd" d="M462 75H470C470 75.5523 469.552 76 469 76H463C462.448 76 462 75.5523 462 75Z" fill="#CA097F"/>
<path d="M460 125H478L476.08 151.885C476.035 152.513 475.512 153 474.883 153H463.117C462.488 153 461.965 152.513 461.92 151.885L460 125Z" fill="white"/>
<path d="M460.2 123H477.8C478.463 123 479 123.537 479 124.2V125H459V124.2C459 123.537 459.537 123 460.2 123Z" fill="#293E52"/>
<path d="M462.093 119H475.907C476.437 119 476.904 119.348 477.057 119.855L478 123H460L460.943 119.855C461.096 119.348 461.563 119 462.093 119Z" fill="#293E52"/>
<path d="M460.51 132H477.371C477.702 132 477.971 132.269 477.971 132.6C477.971 132.618 477.97 132.637 477.968 132.655L477.069 142.455C477.04 142.764 476.781 143 476.471 143H461.41C461.1 143 460.841 142.764 460.812 142.455L459.913 132.655C459.882 132.325 460.125 132.033 460.455 132.003C460.474 132.001 460.492 132 460.51 132Z" fill="#02B997"/>
<path opacity="0.05" d="M468 179L443.901 155L432 159.148L451.934 179" fill="black"/>
<path fill-rule="evenodd" clip-rule="evenodd" d="M439.346 158.845C444.502 156.866 447.077 151.081 445.098 145.925C442.095 138.102 436.189 141.694 433.203 142.841C430.216 143.987 423.423 145.269 426.427 153.093C428.406 158.249 434.19 160.824 439.346 158.845Z" fill="#D0021B"/>
<path fill-rule="evenodd" clip-rule="evenodd" d="M442.855 142.36C443.695 143.124 444.461 144.269 445.097 145.925C445.951 148.15 445.957 150.491 445.274 152.593L445.206 152.631C444.594 152.974 443.844 152.954 443.251 152.58L442.578 152.155C442.387 152.035 442.179 151.942 441.961 151.881L441.195 151.665C440.52 151.474 440.004 150.93 439.849 150.247L439.674 149.47C439.624 149.249 439.542 149.037 439.432 148.84L439.043 148.145C438.7 147.534 438.72 146.784 439.094 146.191L439.519 145.517C439.639 145.326 439.732 145.119 439.793 144.901L440.009 144.134C440.2 143.46 440.744 142.944 441.427 142.789L442.204 142.613C442.425 142.563 442.637 142.482 442.834 142.371L442.855 142.36Z" fill="#FFFBC2"/>
<path d="M368 85H303V109H368V85Z" fill="#546E87"/>
<path fill-rule="evenodd" clip-rule="evenodd" d="M331.4 96H338.6C339.925 96 341 97.0745 341 98.4V105.6C341 106.925 339.925 108 338.6 108H331.4C330.075 108 329 106.925 329 105.6V98.4C329 97.0745 330.075 96 331.4 96ZM332.6 100.8C333.263 100.8 333.8 100.263 333.8 99.6C333.8 98.9372 333.263 98.4 332.6 98.4C331.937 98.4 331.4 98.9372 331.4 99.6C331.4 100.263 331.937 100.8 332.6 100.8ZM337.4 105.6C338.063 105.6 338.6 105.063 338.6 104.4C338.6 103.737 338.063 103.2 337.4 103.2C336.737 103.2 336.2 103.737 336.2 104.4C336.2 105.063 336.737 105.6 337.4 105.6Z" fill="#F2633F"/>
<path fill-rule="evenodd" clip-rule="evenodd" d="M345.767 92H349.4C349.731 92 350 92.2686 350 92.6V96.4C350 96.7314 349.731 97 349.4 97H321.6C321.269 97 321 96.7314 321 96.4V92.6C321 92.2686 321.269 92 321.6 92H325.233C325.565 92 325.833 91.7314 325.833 91.4V87.6C325.833 87.2686 326.102 87 326.433 87H344.567C344.898 87 345.167 87.2686 345.167 87.6V91.4C345.167 91.7314 345.435 92 345.767 92Z" fill="#E3E7E8"/>
<path d="M340 88H331C330.448 88 330 88.4477 330 89C330 89.5523 330.448 90 331 90H340C340.552 90 341 89.5523 341 89C341 88.4477 340.552 88 340 88Z" fill="#9AA3AB"/>
<path opacity="0.3" d="M358 105H313V110H358V105Z" fill="white"/>
<path d="M359 102H311V104H359V102Z" fill="#9AA3AB"/>
<path d="M313 100H311V110H313V100Z" fill="#9AA3AB"/>
<path d="M360 100H358V110H360V100Z" fill="#9AA3AB"/>
<path d="M368 109H303V157H368V109Z" fill="#546E87"/>
<path d="M368 67H303V85H368V67Z" fill="#546E87"/>
<path fill-rule="evenodd" clip-rule="evenodd" d="M290.897 69.5935L303 67V85H289V71.9402C289 70.8085 289.791 69.8306 290.897 69.5935Z" fill="#ECF0F1"/>
<path fill-rule="evenodd" clip-rule="evenodd" d="M289 85H303V157L290.966 154.79C289.827 154.581 289 153.587 289 152.429V85Z" fill="#E3E7E8"/>
<path fill-rule="evenodd" clip-rule="evenodd" d="M335.145 81H335.855C337.004 81 337.992 81.8142 338.211 82.9419L339 87H332L332.789 82.9419C333.008 81.8142 333.996 81 335.145 81Z" fill="#16212B"/>
<path fill-rule="evenodd" clip-rule="evenodd" d="M368 67L380.103 69.5935C381.209 69.8306 382 70.8085 382 71.9402V85H368V67Z" fill="#ECF0F1"/>
<path fill-rule="evenodd" clip-rule="evenodd" d="M368 85H382V152.429C382 153.587 381.173 154.581 380.034 154.79L368 157V85Z" fill="#E3E7E8"/>
<path fill-rule="evenodd" clip-rule="evenodd" d="M309 157H319V157.8C319 158.463 318.463 159 317.8 159H310.2C309.537 159 309 158.463 309 157.8V157Z" fill="#16212B"/>
<path fill-rule="evenodd" clip-rule="evenodd" d="M352 157H362V157.8C362 158.463 361.463 159 360.8 159H353.2C352.537 159 352 158.463 352 157.8V157Z" fill="#16212B"/>
<path fill-rule="evenodd" clip-rule="evenodd" d="M357.971 98H360.03C360.361 98 360.63 98.2686 360.63 98.6C360.63 98.6931 360.608 98.785 360.566 98.8683L360 100H358L357.435 98.8683C357.286 98.5719 357.406 98.2116 357.703 98.0634C357.786 98.0217 357.878 98 357.971 98Z" fill="#16212B"/>
<path fill-rule="evenodd" clip-rule="evenodd" d="M310.971 98H313.03C313.361 98 313.63 98.2686 313.63 98.6C313.63 98.6931 313.608 98.785 313.566 98.8683L313 100H311L310.435 98.8683C310.286 98.5719 310.406 98.2116 310.703 98.0634C310.786 98.0217 310.878 98 310.971 98Z" fill="#16212B"/>
<path opacity="0.5" d="M368 85H303V109H368V85Z" fill="#02B997"/>
<path opacity="0.6" d="M368 70H303V85H368V70Z" fill="#02B997"/>
<path opacity="0.1" fill-rule="evenodd" clip-rule="evenodd" d="M361 117C362.657 117 364 115.657 364 114C364 112.343 362.657 111 361 111C359.343 111 358 112.343 358 114C358 115.657 359.343 117 361 117Z" fill="#7ED321"/>
<path fill-rule="evenodd" clip-rule="evenodd" d="M361 115C361.552 115 362 114.552 362 114C362 113.448 361.552 113 361 113C360.448 113 360 113.448 360 114C360 114.552 360.448 115 361 115Z" fill="#7ED321"/>
</svg>
