<svg width="720" height="182" viewBox="0 0 720 182" fill="none" xmlns="http://www.w3.org/2000/svg">
<path opacity="0.3" d="M2 143.958H718C719.105 143.958 720 144.854 720 145.96V176.994H0V145.96C0 144.854 0.895431 143.958 2 143.958Z" fill="#293E51"/>
<path opacity="0.4" d="M0 176.994H720V179.998C720 181.103 719.105 182 718 182H2C0.895431 182 0 181.103 0 179.998V176.994Z" fill="#293E51"/>
<path opacity="0.05" d="M382 176.995L355 149.965L327 151.967L352 176.995H382Z" fill="black"/>
<path opacity="0.05" d="M662 176.995L642.571 157.974L628 160.351L645 176.995H662Z" fill="black"/>
<path opacity="0.05" d="M516 156.972L536.299 176.994H596L575.701 156.972H516Z" fill="black"/>
<path opacity="0.05" d="M494 176.994L472.294 154.97L453 156.194L473.5 176.994H494Z" fill="black"/>
<path opacity="0.05" d="M457 176.995L425.982 145.96L389 147.154L418.825 176.995H457Z" fill="black"/>
<path opacity="0.05" d="M231 176.994L210.6 156.972L195 158.15L214.2 176.994H231Z" fill="black"/>
<path opacity="0.05" d="M135 176.994H175L154.269 154.97H113L135 176.994Z" fill="black"/>
<path d="M208.8 130.944H197.2C196.537 130.944 196 131.482 196 132.145V155.771C196 156.435 196.537 156.973 197.2 156.973H208.8C209.463 156.973 210 156.435 210 155.771V132.145C210 131.482 209.463 130.944 208.8 130.944Z" fill="#293E52"/>
<path fill-rule="evenodd" clip-rule="evenodd" d="M195.6 153.969H210.4C210.731 153.969 211 154.238 211 154.57V157.373C211 157.704 210.731 157.973 210.4 157.973H195.6C195.269 157.973 195 157.704 195 157.373V154.57C195 154.238 195.269 153.969 195.6 153.969Z" fill="white"/>
<path fill-rule="evenodd" clip-rule="evenodd" d="M197 134.948H209V152.968H197V134.948Z" fill="#EDE995"/>
<path fill-rule="evenodd" clip-rule="evenodd" d="M200.2 138.953H203.8C204.463 138.953 205 139.49 205 140.154V141.756C205 142.419 204.463 142.957 203.8 142.957H200.2C199.537 142.957 199 142.419 199 141.756V140.154C199 139.49 199.537 138.953 200.2 138.953Z" fill="white"/>
<path fill-rule="evenodd" clip-rule="evenodd" d="M202.2 144.959H205.8C206.463 144.959 207 145.497 207 146.16V147.762C207 148.426 206.463 148.963 205.8 148.963H202.2C201.537 148.963 201 148.426 201 147.762V146.16C201 145.497 201.537 144.959 202.2 144.959Z" fill="white"/>
<path fill-rule="evenodd" clip-rule="evenodd" d="M453.162 153.635C459.07 151.612 464.799 151.429 470.349 153.086C471.329 153.379 472 154.28 472 155.304C472 156.225 471.254 156.972 470.333 156.972H453.717C452.771 156.972 452.004 156.205 452.004 155.258C452.004 154.525 452.469 153.873 453.162 153.635Z" fill="#ECF0F1"/>
<path fill-rule="evenodd" clip-rule="evenodd" d="M472 155.607C472 156.558 471.03 156.972 470.101 156.972H453.99C452.989 156.972 452 156.435 452 155.607C458.851 154.412 468.151 155.188 472 155.607Z" fill="#CACECF"/>
<path d="M578.132 74.7815C572.742 71.3627 564.791 69.2239 557.838 67.6914C556.551 67.1956 555.363 66.4741 554.329 65.5609C553.058 63.626 552.232 59.8226 551.912 57.5303C551.791 57.6386 551.679 57.7493 551.559 57.8563C549.641 59.5845 547.543 60.9507 545.269 61.9595C543.881 62.4588 542.405 62.6708 540.932 62.5827C539.407 62.6708 537.931 62.4588 536.543 61.9595C534.269 60.9507 532.171 59.5845 530.329 57.9129C530.141 57.7023 530.016 57.5881 529.883 57.4678C529.565 59.8067 528.721 63.6538 527.413 65.6199C526.364 66.5326 525.16 67.2497 523.858 67.7371C522.991 67.9295 508.398 71.8271 503.726 74.7911C497.411 78.7933 497.453 82.9879 495.895 88.0307H585.978C584.42 82.9879 584.462 78.7933 578.132 74.7815Z" fill="#FFDBB0"/>
<path d="M530.287 59.4934L530.337 59.5211C532.179 61.1928 534.277 62.559 536.551 63.5678C537.939 64.067 539.415 64.279 540.887 64.1909H540.937C542.41 64.279 543.885 64.067 545.273 63.5678C547.545 62.5582 549.64 61.192 551.479 59.5211L551.555 59.4646C553.812 57.5683 555.684 55.2574 557.071 52.6571C558.311 49.9096 557.808 47.0178 558.381 43.2093C561.176 44.6239 564.812 32.3058 563.374 30.0659C562.03 27.9704 560.154 29.7857 559.91 30.0371L559.928 23.0107C559.928 7.76344 551.425 3.81299 540.934 3.81299C530.444 3.81299 521.942 7.76344 521.942 23.0107L521.924 30.0659C521.924 30.0659 519.877 27.82 518.431 30.0659C516.986 32.3118 520.687 44.6997 523.49 43.1984C524.061 46.9949 523.538 49.8555 524.769 52.597C526.153 55.2084 528.027 57.53 530.287 59.4357C530.427 59.556 530.428 59.5656 530.287 59.4417V59.4934Z" fill="#FFDBB0"/>
<path opacity="0.05" d="M579.338 74.7817C573.948 71.363 564.792 69.2242 557.839 67.6916C556.552 67.1958 555.364 66.4744 554.33 65.5612C553.059 63.6262 552.233 61.4334 551.913 59.1411C551.792 59.2494 551.68 59.36 551.56 59.4671L551.484 59.5236C549.642 61.1953 547.544 62.5615 545.27 63.5703C543.882 64.0695 542.406 64.2815 540.933 64.1935H540.88C539.408 64.2815 537.932 64.0695 536.544 63.5703C534.291 62.5709 532.211 61.2195 530.383 59.567L558.894 88.0309H585.979C584.421 82.9882 585.668 78.7935 579.338 74.7817Z" fill="black"/>
<path opacity="0.05" d="M563.375 30.0654C562.031 27.9699 560.155 29.7851 559.911 30.0365L559.929 23.0102C559.929 7.7629 551.426 3.81245 540.936 2.8501V63.2292C540.936 64.1916 540.936 64.1916 540.936 64.1916C542.408 64.2797 543.884 64.0677 545.272 63.5685C547.544 62.5586 549.639 61.192 551.479 59.5206L551.501 59.5109C553.78 57.6037 555.67 55.2757 557.068 52.6542C558.309 49.9067 557.805 47.0148 558.379 43.2063C561.178 44.6294 564.813 32.3053 563.375 30.0654Z" fill="black"/>
<path opacity="0.05" d="M551.506 59.5112H551.505L551.5 59.516L551.506 59.5112Z" fill="black"/>
<path d="M586.969 90.1309H586.986C586.856 89.7111 586.745 89.2888 586.625 88.869C586.519 88.4977 586.422 88.1196 586.333 87.7346L586.302 87.6059C585.555 84.2786 585.383 80.6132 584.78 78.4407C584.444 77.2294 583.54 75.0629 582.352 74.6431L558.192 67.3172C556.862 66.7899 555.64 66.0224 554.588 65.0532V70.132L540.736 87.5987L527.225 70.5711V65.0532C526.173 66.0224 524.951 66.7899 523.621 67.3172L499.46 74.6443C498.272 75.0641 497.368 77.2294 497.034 78.4407C496.345 80.9284 495.868 85.3733 494.797 89.0266H494.812C494.712 89.3947 494.608 89.7628 494.495 90.1309C492.872 94.3015 487.412 120.445 488.054 129.427C488.696 138.41 513.762 146.908 540.733 146.91C567.704 146.911 592.769 138.408 593.411 129.427C594.053 120.446 588.592 94.3015 586.969 90.1309Z" fill="#EDE995"/>
<path d="M526.787 63.9021C527.538 63.3054 528.035 62.9638 528.035 64.8392V108.386L515.963 81.1775C515.701 80.7759 515.775 80.243 516.136 79.9276L523.217 73.7409L520.371 71.6141C520.131 71.4339 519.989 71.1521 519.986 70.852C519.984 70.5519 520.122 70.2679 520.359 70.084L526.787 63.9021ZM554.535 63.9021L560.965 70.084C561.202 70.2679 561.34 70.5519 561.338 70.852C561.335 71.1521 561.193 71.4339 560.953 71.6141L558.105 73.7409L565.185 79.9276C565.547 80.243 565.621 80.7759 565.359 81.1775L553.33 108.386V64.8392C553.33 62.9638 553.784 63.3054 554.535 63.9021Z" fill="#D4D085"/>
<path d="M528.034 128.836H553.33V69.0439C549.623 71.5104 545.279 72.8497 540.824 72.8993C536.254 72.8442 531.803 71.4377 528.033 68.8574L528.034 128.836Z" fill="white"/>
<path d="M527.809 35.5513C528.932 34.8315 530.241 34.4552 531.575 34.4686C533.059 34.5081 534.516 34.8779 535.838 35.5513C535.009 36.8688 533.531 37.6358 531.975 37.5566C530.347 37.5833 528.802 36.8397 527.809 35.5513ZM554.383 35.5513C553.39 36.8397 551.845 37.5833 550.217 37.5566C548.661 37.6358 547.183 36.8688 546.354 35.5513C547.676 34.8779 549.133 34.5081 550.617 34.4686C551.951 34.4552 553.26 34.8315 554.383 35.5513Z" fill="white"/>
<path d="M530.293 34.4718C530.709 34.3512 531.14 34.2881 531.573 34.2842C532.219 34.2945 532.858 34.4133 533.463 34.6354C533.974 35.464 533.785 36.5425 533.023 37.1489C532.262 37.7552 531.167 37.6987 530.472 37.0172C529.777 36.3357 529.7 35.2434 530.293 34.4718ZM551.895 34.4718C552.488 35.2434 552.412 36.3357 551.717 37.0172C551.022 37.6987 549.927 37.7552 549.165 37.1489C548.404 36.5425 548.215 35.464 548.725 34.6354C549.331 34.4133 549.97 34.2945 550.615 34.2842C551.048 34.2881 551.479 34.3512 551.895 34.4718Z" fill="#808080"/>
<path d="M531.822 36.6651C531.312 36.6651 530.898 36.252 530.898 35.7425C530.898 35.2329 531.312 34.8198 531.822 34.8198C532.333 34.8198 532.746 35.2329 532.746 35.7425C532.746 36.252 532.333 36.6651 531.822 36.6651ZM550.368 36.6651C549.857 36.6651 549.444 36.252 549.444 35.7425C549.444 35.2329 549.857 34.8198 550.368 34.8198C550.878 34.8198 551.291 35.2329 551.291 35.7425C551.291 36.252 550.878 36.6651 550.368 36.6651Z" fill="#534741"/>
<path d="M530.779 36.2241C530.513 36.2241 530.297 36.0086 530.297 35.7429C530.297 35.4771 530.513 35.2617 530.779 35.2617C531.045 35.2617 531.261 35.4771 531.261 35.7429C531.261 36.0086 531.045 36.2241 530.779 36.2241ZM549.443 36.2241C549.177 36.2241 548.961 36.0086 548.961 35.7429C548.961 35.4771 549.177 35.2617 549.443 35.2617C549.709 35.2617 549.925 35.4771 549.925 35.7429C549.925 36.0086 549.709 36.2241 549.443 36.2241Z" fill="white"/>
<path d="M527.268 35.6281C528.048 34.9407 529.01 34.4919 530.039 34.335C531.02 34.1341 532.028 34.0934 533.022 34.2147C534.031 34.3164 534.993 34.6907 535.805 35.2973C536.001 35.4862 536.193 35.5547 536.346 35.9132C536.365 36.0872 536.279 36.256 536.126 36.3427C536.008 36.4306 535.864 36.4768 535.717 36.4738C535.559 36.4606 535.454 36.3848 535.37 36.386C535.265 36.3992 535.167 36.4441 535.088 36.5147C534.884 36.6482 534.68 36.7805 534.47 36.9008C534.647 36.7324 534.831 36.576 535.013 36.4197C535.105 36.317 535.227 36.2458 535.361 36.2164C535.524 36.2043 535.636 36.2753 535.723 36.2645C535.883 36.2645 536.129 36.0443 536.072 35.9686C535.936 35.8152 535.777 35.6844 535.6 35.5812C534.798 35.1109 533.893 34.8433 532.964 34.8017C532.031 34.7666 531.097 34.8475 530.184 35.0423C529.298 35.1953 528.453 35.5335 527.707 36.0347L527.652 36.0768C527.528 36.1841 527.34 36.1704 527.233 36.0461C527.125 35.9219 527.139 35.7342 527.263 35.6269L527.268 35.6281ZM554.482 36.0359C553.736 35.5347 552.891 35.1965 552.005 35.0435C551.091 34.8487 550.158 34.7678 549.225 34.8029C548.296 34.8445 547.391 35.1121 546.589 35.5824C546.412 35.6856 546.253 35.8164 546.117 35.9698C546.06 36.0455 546.305 36.2681 546.466 36.2657C546.553 36.2765 546.665 36.2055 546.827 36.2176C546.962 36.247 547.084 36.3182 547.176 36.4209C547.359 36.576 547.537 36.7324 547.719 36.902C547.509 36.7817 547.304 36.6494 547.101 36.5159C547.022 36.4453 546.924 36.4004 546.819 36.3872C546.736 36.3872 546.63 36.463 546.472 36.475C546.325 36.478 546.181 36.4318 546.063 36.3439C545.91 36.2572 545.824 36.0884 545.843 35.9144C545.998 35.5535 546.189 35.4886 546.384 35.2985C547.196 34.6919 548.158 34.3176 549.167 34.2159C550.161 34.0946 551.169 34.1353 552.15 34.3362C553.179 34.4931 554.141 34.9419 554.921 35.6293C555.002 35.6985 555.039 35.8054 555.019 35.9098C555 36.0142 554.926 36.1002 554.826 36.1354C554.725 36.1706 554.614 36.1496 554.533 36.0804L554.482 36.0359Z" fill="#826F67"/>
<path d="M537.652 32.9158C537.02 33.4487 536.04 33.2514 534.434 32.6571C530.899 31.3495 531.102 30.3535 527.487 31.121C526.644 31.2888 525.87 31.7039 525.263 32.3131C525.132 31.2493 525.621 30.204 526.523 29.6233C528.773 28.0595 534.926 29.1421 536.762 30.0323C537.281 30.2778 537.674 30.7299 537.843 31.2783C538.012 31.8267 537.943 32.4208 537.652 32.9158ZM544.54 32.9158C544.249 32.4208 544.18 31.8267 544.349 31.2783C544.518 30.7299 544.911 30.2778 545.43 30.0323C547.266 29.1421 553.418 28.0595 555.669 29.6233C556.571 30.204 557.06 31.2493 556.929 32.3131C556.322 31.7039 555.548 31.2888 554.705 31.121C551.09 30.3535 551.292 31.3495 547.758 32.6571C546.151 33.2514 545.172 33.4487 544.54 32.9158Z" fill="#AFA476"/>
<path opacity="0.1" d="M544.832 46.937C544.332 46.415 543.547 46.2852 542.905 46.6182C542.284 46.8903 541.638 47.1038 540.978 47.2558C540.317 47.1038 539.671 46.8903 539.05 46.6182C538.408 46.2852 537.623 46.415 537.123 46.937C536.801 47.3797 538.659 47.6804 539.412 47.9811C540.164 48.2819 540.466 48.5826 540.978 48.5826C541.489 48.5826 541.791 48.2819 542.543 47.9811C543.296 47.6804 545.154 47.3809 544.832 46.937Z" fill="black"/>
<path opacity="0.1" d="M542.275 51.7667C541.769 51.6945 541.344 52.041 540.976 52.0578C540.575 52.0747 540.032 51.6969 539.531 51.7667C539.03 51.8365 534.977 53.1152 534.977 53.1152C534.977 53.1152 535.84 54.2568 536.061 54.4733C536.395 54.8849 536.707 55.3146 536.994 55.7605C537.945 57.0837 539.895 56.7228 540.908 56.7228C541.921 56.7228 543.993 57.0837 544.943 55.7605C545.484 55.0062 545.537 54.6911 545.754 54.4733C545.97 54.2556 546.987 53.1152 546.987 53.1152C546.987 53.1152 542.781 51.8389 542.275 51.7667Z" fill="black"/>
<path opacity="0.1" d="M544.55 54.2111C545.313 54.3615 546.098 54.0996 546.617 53.5218L546.979 53.1152C546.979 53.1152 542.78 51.8389 542.274 51.7667C541.768 51.6945 541.343 52.041 540.975 52.0578C540.574 52.0747 540.031 51.6969 539.53 51.7667C539.029 51.8365 534.977 53.1152 534.977 53.1152L535.196 53.4027C535.692 54.0482 536.504 54.3671 537.307 54.2315C537.764 54.1461 538.227 54.0943 538.691 54.0764C539.535 54.0764 542.65 54.0367 543.3 54.0367C543.721 54.0619 544.139 54.1202 544.55 54.2111Z" fill="black"/>
<path d="M524.271 9.10941C524.8 8.80329 525.351 8.53749 525.92 8.31427C533.509 -5.88041 548.533 0.696054 558.777 8.87604C562.318 11.7017 563.743 8.39487 563.743 8.39487C565.476 10.1103 566.438 12.4541 566.411 14.8907C566.307 17.5615 565.127 20.0772 563.14 21.8678C562.959 22.8441 562.718 23.8083 562.418 24.7548C562.029 26.1714 561.775 27.6213 561.659 29.0854C560.448 31.5639 559.083 33.9644 557.573 36.273C558.236 33.521 558.488 30.6864 558.322 27.8608C558.212 25.5557 556.639 23.5787 554.416 22.9504C549.064 23.0707 539.411 18.9807 534.834 18.9807C530.256 18.9807 530.779 21.9881 530.779 21.9881C522.612 16.564 523.872 36.1731 523.872 36.1731C522.607 34.6779 520.248 29.0854 520.248 29.0854C520.1 26.6261 519.722 24.1859 519.119 21.7968C517.752 16.89 519.868 11.6794 524.271 9.10941Z" fill="#AFA476"/>
<path opacity="0.2" d="M566.416 14.8909C566.443 12.4542 565.481 10.1105 563.748 8.39502C563.847 11.9664 562.291 15.384 559.532 17.6577C554.954 21.1462 550.28 21.1329 545.691 21.3807C548.522 22.2745 551.456 22.8021 554.421 22.9506C554.421 22.9506 559.893 23.4318 563.145 21.8679C565.132 20.0774 566.312 17.5617 566.416 14.8909Z" fill="white"/>
<path opacity="0.05" d="M563.743 8.39488C563.743 8.39488 562.318 11.7018 558.778 8.87606C553.527 4.68382 547.023 0.921022 540.906 0.152344V20.079C545.484 21.282 550.885 23.031 554.416 22.9517C556.64 23.5799 558.213 25.5569 558.323 27.8621C558.489 30.6876 558.236 33.5223 557.574 36.2742C559.084 33.9656 560.449 31.5651 561.659 29.0866C561.776 27.6225 562.03 26.1726 562.418 24.7561C562.719 23.8095 562.96 22.8453 563.141 21.869C565.128 20.0785 566.307 17.5627 566.411 14.892C566.439 12.4549 565.477 10.1105 563.743 8.39488Z" fill="black"/>
<path opacity="0.05" d="M586.628 88.869C586.523 88.4977 586.425 88.1196 586.336 87.7347L586.305 87.606C585.558 84.2786 585.386 80.6133 584.784 78.4408C584.447 77.2294 583.543 75.0629 582.355 74.6431L558.193 67.3172C558.129 67.2919 558.059 67.257 557.996 67.2294L554.534 63.9008C553.785 63.2994 553.329 62.9625 553.329 64.8415V69.0422C550.387 70.972 547.053 72.2247 543.566 72.71V72.722L593.133 122.219C592.005 110.791 588.265 93.4571 586.969 90.1273H586.985C586.857 89.7111 586.74 89.2901 586.628 88.869Z" fill="black"/>
<path fill-rule="evenodd" clip-rule="evenodd" d="M541.676 58.5118H540.392C540.392 58.5118 540.03 61.4398 537.708 61.4398C535.386 61.4398 532.361 53.4198 532.361 53.4198C537.42 50.9538 541.034 51.1643 541.034 51.1643C541.034 51.1643 544.647 50.9538 549.707 53.4198C549.707 53.4198 546.683 61.4398 544.361 61.4398C542.038 61.4398 541.676 58.5118 541.676 58.5118ZM556.88 41.7199C556.479 42.9637 554.762 53.958 552.377 52.6589C549.212 50.9351 543.85 49.7923 543.85 49.7923C542.495 50.6343 540.897 49.7923 540.897 49.7923C540.897 49.7923 539.303 50.6343 537.948 49.7923C537.948 49.7923 532.588 50.9351 529.421 52.6589C527.037 53.958 525.321 42.9637 524.92 41.7199C524.517 40.4772 523.915 37.1499 523.915 37.1499C523.915 37.1499 523.517 41.1966 523.455 43.2428C524.025 47.0381 523.502 52.3057 524.733 55.0472C526.265 58.4564 531.453 63.9021 536.564 66.018C538.046 66.6303 539.52 66.6412 540.897 66.6412C542.28 66.6412 543.753 66.6303 545.234 66.018C550.347 63.9021 555.535 58.4564 557.066 55.0472C558.298 52.3057 557.774 47.0381 558.345 43.2428C558.283 41.1966 557.883 37.1499 557.883 37.1499C557.883 37.1499 557.281 40.4772 556.88 41.7199Z" fill="#AFA476"/>
<path fill-rule="evenodd" clip-rule="evenodd" d="M549.965 50.1766C549.595 49.7363 551.137 49.426 551.257 50.5772C551.426 52.1675 546.279 50.1766 544.312 49.1349C542.345 48.0907 540.899 49.5751 540.899 49.5751C540.899 49.5655 539.494 48.0907 537.527 49.1349C535.558 50.1766 530.413 52.1675 530.58 50.5772C530.702 49.426 532.242 49.7363 531.873 50.1766C531.873 50.1766 532.343 49.8157 531.773 49.2143C531.203 48.6128 528.347 49.5619 529.607 51.9004C531.053 54.5878 537.847 51.4589 540.899 51.0981C543.95 51.4589 550.759 54.6022 552.206 51.9161C553.466 49.5775 550.636 48.6128 550.065 49.2143C549.495 49.8157 549.965 50.1766 549.965 50.1766Z" fill="#AFA476"/>
<path d="M580 146.961H497C496.448 146.961 496 147.41 496 147.963C496 148.515 496.448 148.964 497 148.964H580C580.552 148.964 581 148.515 581 147.963C581 147.41 580.552 146.961 580 146.961Z" fill="#CCCCCC"/>
<path d="M595 84.8931H495C493.343 84.8931 492 86.2377 492 87.8964V153.969C492 155.628 493.343 156.973 495 156.973H595C596.657 156.973 598 155.628 598 153.969V87.8964C598 86.2377 596.657 84.8931 595 84.8931Z" fill="#F2F2F2"/>
<path d="M505 147.962V158.174C505 160.828 507.149 162.979 509.8 162.979H535" stroke="white"/>
<path d="M506 146.961H504V151.967H506V146.961Z" fill="white"/>
<path d="M505 86.895H585C585.552 86.895 586 87.3432 586 87.8961C586 88.449 585.552 88.8972 585 88.8972H505C504.448 88.8972 504 88.449 504 87.8961C504 87.3432 504.448 86.895 505 86.895Z" fill="#293E52"/>
<path d="M509 146.961H507V151.967H509V146.961Z" fill="#293E52"/>
<path d="M512 146.961H510V151.967H512V146.961Z" fill="#293E52"/>
<path d="M515 146.961H513V151.967H515V146.961Z" fill="#293E52"/>
<path d="M561 166.983H529C528.448 166.983 528 167.432 528 167.985C528 168.537 528.448 168.986 529 168.986H561C561.552 168.986 562 168.537 562 167.985C562 167.432 561.552 166.983 561 166.983Z" fill="#F2F2F2"/>
<path d="M538.669 120.933H551.331C552.57 120.933 553.605 121.877 553.721 123.112L558 168.986H532L536.279 123.112C536.395 121.877 537.43 120.933 538.669 120.933ZM545 149.965C547.761 149.965 550 147.724 550 144.959C550 142.195 547.761 139.954 545 139.954C542.239 139.954 540 142.195 540 144.959C540 147.724 542.239 149.965 545 149.965Z" fill="#D8D8D8"/>
<path d="M545 147.963C546.657 147.963 548 146.618 548 144.959C548 143.301 546.657 141.956 545 141.956C543.343 141.956 542 143.301 542 144.959C542 146.618 543.343 147.963 545 147.963Z" fill="#293E52"/>
<path d="M639.555 111.161L637.566 110.952L632.445 159.737L634.434 159.946L639.555 111.161Z" fill="#293E52"/>
<path opacity="0.5" d="M625 128.941H647C645.167 134.281 644 139.62 643.5 144.959C643.036 149.919 643.146 154.879 643.832 159.838H643.832C643.908 160.386 643.526 160.891 642.979 160.967C642.934 160.974 642.888 160.977 642.842 160.977H629.158C628.606 160.977 628.158 160.529 628.158 159.976C628.158 159.93 628.161 159.884 628.168 159.838C628.854 154.879 628.964 149.919 628.5 144.959C628 139.62 626.833 134.281 625 128.941Z" fill="white"/>
<path d="M645 135.949C644.295 138.953 643.802 141.956 643.52 144.959C643.054 149.919 643.165 154.879 643.853 159.838H643.853C643.929 160.386 643.546 160.892 642.997 160.967C642.952 160.974 642.906 160.977 642.86 160.977H629.14C628.587 160.977 628.138 160.529 628.138 159.976C628.138 159.93 628.141 159.884 628.147 159.838C628.835 154.879 628.946 149.919 628.48 144.959C628.198 141.956 627.705 138.953 627 135.949H645Z" fill="#72C76B"/>
<path opacity="0.5" d="M625 128.941H647C647.552 128.941 648 129.39 648 129.943V130.944H624V129.943C624 129.39 624.448 128.941 625 128.941Z" fill="white"/>
<path opacity="0.5" d="M625 128.941C625 122.86 629.925 117.929 636 117.929C642.075 117.929 647 122.86 647 128.941H625Z" fill="white"/>
<path d="M109.966 125.196C110.5 125.053 111.048 125.37 111.191 125.904L117.927 151.044C118.07 151.578 117.754 152.127 117.22 152.27C116.687 152.412 116.138 152.095 115.995 151.561L109.259 126.422C109.116 125.887 109.432 125.339 109.966 125.196Z" fill="#293E52"/>
<path d="M156.212 125.196C156.746 125.339 157.062 125.888 156.919 126.422L150.183 151.562C150.04 152.096 149.491 152.413 148.958 152.27C148.424 152.127 148.108 151.578 148.251 151.044L154.987 125.904C155.13 125.37 155.679 125.053 156.212 125.196Z" fill="#293E52"/>
<path d="M151 147.962H115C112.791 147.962 111 149.755 111 151.967C111 154.178 112.791 155.971 115 155.971H151C153.209 155.971 155 154.178 155 151.967C155 149.755 153.209 147.962 151 147.962Z" fill="white"/>
<path d="M118 152.968C118.552 152.968 119 152.52 119 151.967C119 151.414 118.552 150.966 118 150.966C117.448 150.966 117 151.414 117 151.967C117 152.52 117.448 152.968 118 152.968Z" fill="#29C432"/>
<path d="M124 152.968C124.552 152.968 125 152.52 125 151.967C125 151.414 124.552 150.966 124 150.966C123.448 150.966 123 151.414 123 151.967C123 152.52 123.448 152.968 124 152.968Z" fill="#29C432"/>
<path d="M130 152.968C130.552 152.968 131 152.52 131 151.967C131 151.414 130.552 150.966 130 150.966C129.448 150.966 129 151.414 129 151.967C129 152.52 129.448 152.968 130 152.968Z" fill="#29C432"/>
<path d="M136 152.968C136.552 152.968 137 152.52 137 151.967C137 151.414 136.552 150.966 136 150.966C135.448 150.966 135 151.414 135 151.967C135 152.52 135.448 152.968 136 152.968Z" fill="#29C432"/>
<path d="M142 152.968C142.552 152.968 143 152.52 143 151.967C143 151.414 142.552 150.966 142 150.966C141.448 150.966 141 151.414 141 151.967C141 152.52 141.448 152.968 142 152.968Z" fill="#29C432"/>
<path d="M148 152.968C148.552 152.968 149 152.52 149 151.967C149 151.414 148.552 150.966 148 150.966C147.448 150.966 147 151.414 147 151.967C147 152.52 147.448 152.968 148 152.968Z" fill="#29C432"/>
<path d="M425 144.959H389C388.448 144.959 388 145.407 388 145.96C388 146.513 388.448 146.961 389 146.961H425C425.552 146.961 426 146.513 426 145.96C426 145.407 425.552 144.959 425 144.959Z" fill="#293E52"/>
<path d="M465.34 48.993C468.276 47.2731 472.137 47.8999 474.43 50.6358L480.601 57.9979L460.684 74.7289L454.513 67.3667C452.22 64.6308 452.274 60.7152 454.476 58.119L450.555 53.4412C447.999 50.3917 448.359 45.8768 451.359 43.3567C454.359 40.8366 458.863 41.2658 461.419 44.3153L465.34 48.993Z" fill="#293E52"/>
<path d="M410 90.8994H408V144.959H410V90.8994Z" fill="#293E52"/>
<path d="M406 89.8984H404V144.959H406V89.8984Z" fill="#293E52"/>
<path d="M448.483 62.0218L447.225 60.4658L406.036 93.8566L407.295 95.4126L448.483 62.0218Z" fill="#293E52"/>
<path d="M445.966 58.9105L444.707 57.3545L403.518 90.7453L404.777 92.3013L445.966 58.9105Z" fill="#293E52"/>
<path d="M451.09 54.3799L452.264 56.0043L446.908 60.346L445.73 58.8891L451.09 54.3799Z" fill="#293E52"/>
<path d="M266 159.976H281L280.108 168.905C280.047 169.519 279.531 169.987 278.914 169.987H268.086C267.469 169.987 266.953 169.519 266.892 168.905L266 159.976Z" fill="#EDC0C0"/>
<path d="M265.928 159.976C264.976 158.641 264.833 157.473 265.5 156.472C266.847 154.448 271.893 156.253 272.5 154.47C272.904 153.281 272.738 152.446 272 151.967C276.793 152.375 279.959 153.543 281.5 155.471C282.833 157.139 282.666 158.641 281 159.976H265.928Z" fill="white"/>
<path opacity="0.1" d="M267.5 159.976C266.646 158.828 266.646 157.827 267.5 156.972C268.5 155.971 270.587 156.443 272 155.971C273.5 155.471 274.593 154.275 272 151.967C273.821 153.156 275.985 155.533 272.95 157.316C270.926 158.505 270.109 159.392 270.5 159.976H267.5Z" fill="black"/>
<path opacity="0.1" d="M275.5 159.976C276.114 159.642 276.614 159.141 277 158.474C277.579 157.473 276.857 153.75 272 151.967C279.5 152.968 280.607 157.285 280 158.474C279.595 159.267 279.095 159.767 278.5 159.976H275.5Z" fill="black"/>
<path d="M256 168.986H290C290 170.091 289.105 170.988 288 170.988H258C256.895 170.988 256 170.091 256 168.986Z" fill="white"/>
<path d="M447 61.8675C448.657 61.8675 450 60.5228 450 58.8642C450 57.2055 448.657 55.8608 447 55.8608C445.343 55.8608 444 57.2055 444 58.8642C444 60.5228 445.343 61.8675 447 61.8675Z" fill="#293E52"/>
<path d="M407 94.9041C408.657 94.9041 410 93.5595 410 91.9008C410 90.2421 408.657 88.8975 407 88.8975C405.343 88.8975 404 90.2421 404 91.9008C404 93.5595 405.343 94.9041 407 94.9041Z" fill="#293E52"/>
<path d="M407 92.9016C407.552 92.9016 408 92.4534 408 91.9005C408 91.3476 407.552 90.8994 407 90.8994C406.448 90.8994 406 91.3476 406 91.9005C406 92.4534 406.448 92.9016 407 92.9016Z" fill="#141E28"/>
<path d="M352.686 139.037C353.874 139.162 354.848 140.034 355.105 141.202L356.037 145.429L355.2 153.394C355.085 154.494 354.101 155.292 353.002 155.176L343.057 154.13C342.942 155.23 341.957 156.027 340.859 155.912L333.897 155.179C332.799 155.064 332.002 154.079 332.117 152.979L327.145 152.456C326.046 152.34 325.249 151.355 325.365 150.255L325.783 146.273C325.898 145.173 326.882 144.375 327.981 144.491L328.295 141.504C328.41 140.404 329.394 139.606 330.493 139.722L333.476 140.036L333.685 138.045C333.743 137.495 334.235 137.096 334.784 137.154L343.735 138.095C344.284 138.153 344.683 138.646 344.625 139.196L344.416 141.187L350.383 141.815L350.488 140.819C350.603 139.719 351.587 138.922 352.686 139.037Z" fill="#293E52"/>
<path d="M352.373 142.024C352.923 142.081 353.415 141.683 353.472 141.133C353.53 140.583 353.132 140.09 352.582 140.032C352.033 139.975 351.541 140.373 351.483 140.923C351.426 141.473 351.824 141.966 352.373 142.024Z" fill="#D8D8D8"/>
<path d="M343.945 136.104L334.994 135.162L334.785 137.153L343.736 138.095L343.945 136.104Z" fill="#293E52"/>
<path d="M334.051 124.997L346.98 126.357L346.039 135.318C345.981 135.867 345.489 136.266 344.94 136.209L334 135.057C333.451 135 333.052 134.507 333.11 133.957L334.051 124.997Z" fill="#293E52"/>
<path d="M334.311 112.944L349.228 114.514L348.079 125.466C348.021 126.016 347.529 126.415 346.98 126.357L334.051 124.996C333.501 124.939 333.103 124.446 333.161 123.896L334.311 112.944Z" fill="#293E52"/>
<path d="M348.39 122.479L333.473 120.91L333.264 122.901L348.181 124.471L348.39 122.479Z" fill="#334D66"/>
<path d="M346.771 128.348L333.842 126.988L333.215 132.962L346.143 134.322L346.771 128.348Z" fill="#334D66"/>
<path d="M352.104 96.6974L335.197 94.9185L333.316 112.84L350.223 114.619L352.104 96.6974Z" fill="#293E52"/>
<path d="M329.342 150.674C328.244 150.558 327.447 149.573 327.562 148.473C327.678 147.373 328.662 146.576 329.761 146.691C330.859 146.807 331.656 147.792 331.541 148.892C331.425 149.991 330.441 150.789 329.342 150.674ZM329.447 149.678C329.996 149.736 330.488 149.337 330.546 148.787C330.604 148.237 330.205 147.745 329.656 147.687C329.107 147.629 328.615 148.028 328.557 148.578C328.499 149.128 328.898 149.62 329.447 149.678Z" fill="#F2F2F2"/>
<path d="M339.08 153.711L339.916 145.746C339.974 145.196 339.576 144.704 339.026 144.646L338.032 144.541C337.483 144.484 336.991 144.882 336.933 145.432L336.097 153.397L332.119 152.979L333.686 138.044C333.744 137.495 334.236 137.096 334.786 137.153L343.736 138.095C344.285 138.153 344.684 138.646 344.626 139.196L343.058 154.13L339.08 153.711Z" fill="#334D66"/>
</svg>
