<svg width="256" height="183" viewBox="0 0 256 183" fill="none" xmlns="http://www.w3.org/2000/svg">
<path opacity="0.3" d="M2 145H254C255.105 145 256 145.895 256 147V178H0V147C0 145.895 0.895431 145 2 145Z" fill="#293E51"/>
<path opacity="0.4" d="M0 178H256V181C256 182.105 255.105 183 254 183H2C0.895431 183 0 182.105 0 181V178Z" fill="#293E51"/>
<path opacity="0.05" d="M233 178L210 155H206L229 178H233Z" fill="black"/>
<path opacity="0.05" d="M250 178L227 155L224 156L246 178H250Z" fill="black"/>
<path opacity="0.05" d="M214 178L191 155L188 156L210 178H214Z" fill="black"/>
<path opacity="0.05" d="M189 178L162.658 152L98 156.727L119.553 178H189Z" fill="black"/>
<path opacity="0.05" d="M88 179L59.2 150L46 152.417L72.4 179H88Z" fill="black"/>
<path d="M210 105H206V124H210V105Z" fill="#D4D8D9"/>
<path d="M210.8 98H205.2C204.537 98 204 98.5372 204 99.2V101.8C204 102.463 204.537 103 205.2 103H210.8C211.463 103 212 102.463 212 101.8V99.2C212 98.5372 211.463 98 210.8 98Z" fill="#36516B"/>
<path d="M210 96H206V98H210V96Z" fill="#36516B"/>
<path d="M211 103H205V105H211V103Z" fill="#36516B"/>
<path d="M212 126H204V137H212V126Z" fill="#36516B"/>
<path fill-rule="evenodd" clip-rule="evenodd" d="M206 124H210L212 126H204L206 124Z" fill="#36516B"/>
<path d="M211 137H205V139H211V137Z" fill="#36516B"/>
<path fill-rule="evenodd" clip-rule="evenodd" d="M206 139H210V154.8C210 155.463 209.463 156 208.8 156H207.2C206.537 156 206 155.463 206 154.8V139Z" fill="#36516B"/>
<path fill-rule="evenodd" clip-rule="evenodd" d="M228 156L211 139H207L224 156H228Z" fill="#36516B"/>
<path fill-rule="evenodd" clip-rule="evenodd" d="M188 156L205 139H209L192 156H188Z" fill="#36516B"/>
<path d="M222.6 77H193.4C192.075 77 191 78.0745 191 79.4V91.6C191 92.9255 192.075 94 193.4 94H222.6C223.925 94 225 92.9255 225 91.6V79.4C225 78.0745 223.925 77 222.6 77Z" fill="#293E52"/>
<path d="M212 80H204V96H212V80Z" fill="#36516B"/>
<path fill-rule="evenodd" clip-rule="evenodd" d="M204 76H206V80H204V76Z" fill="#36516B"/>
<path d="M212 76H210V80H212V76Z" fill="#36516B"/>
<path d="M166.14 78.7791C160.749 75.3641 151.594 73.2276 144.641 71.6968C143.353 71.2015 142.164 70.4804 141.13 69.5675C139.861 67.6339 139.038 65.4436 138.721 63.1545C138.6 63.2627 138.488 63.3732 138.368 63.4802L138.292 63.5366C136.448 65.207 134.348 66.5717 132.072 67.5789C130.683 68.0775 129.208 68.2893 127.735 68.2013H127.686C126.213 68.2893 124.738 68.0775 123.349 67.5789C121.075 66.5711 118.977 65.2064 117.135 63.5366L117.086 63.509V63.4585C117.224 63.5787 117.224 63.5787 117.086 63.4525C116.947 63.3264 116.822 63.2122 116.69 63.092C116.372 65.4284 115.527 67.6625 114.219 69.6264C113.171 70.5381 111.967 71.2544 110.664 71.7412C109.797 71.9335 93.9995 75.8267 89.3283 78.7875C83.0092 82.7913 84.2559 86.9777 82.6973 92.0137H172.78C171.223 86.9765 172.47 82.7913 166.14 78.7791Z" fill="#FFDBB0"/>
<path opacity="0.05" d="M166.141 78.7791C160.751 75.3641 151.595 73.2277 144.642 71.6968C143.354 71.2015 142.165 70.4804 141.131 69.5676C139.862 67.634 139.04 65.4437 138.722 63.1545C138.601 63.2627 138.489 63.3732 138.369 63.4802L138.293 63.5367C136.45 65.207 134.349 66.5717 132.073 67.5789C130.685 68.0775 129.209 68.2893 127.736 68.2013H127.687C126.214 68.2893 124.739 68.0775 123.351 67.5789C121.097 66.5805 119.017 65.2306 117.189 63.5799L145.697 92.0137H172.782C171.224 86.9765 172.471 82.7913 166.141 78.7791Z" fill="black"/>
<path d="M173.97 92.0137C172.442 86.7543 173.083 82.7168 167.36 78.6674C166.981 78.379 166.58 78.0954 166.141 77.8179C162.07 75.238 155.851 73.3887 150.054 71.978L148.379 69.165C148.281 69.0006 148.165 68.8481 148.031 68.7108L146.27 66.9024V65.7525C146.272 65.2018 146.058 64.6721 145.675 64.2757C144.811 63.38 143.697 63.1243 142.705 63.4898C139.641 64.6181 132.807 66.9024 127.639 66.9024C122.472 66.9024 115.637 64.6193 112.575 63.4898C111.583 63.1243 110.468 63.38 109.736 64.1411C109.222 64.6721 109.008 65.2018 109.01 65.7525V66.9024L107.249 68.7108C107.115 68.8481 106.998 69.0005 106.901 69.165L105.087 72.2171C104.57 72.3613 104.024 72.5175 103.467 72.6786C99.0742 73.8288 94.7773 75.3152 90.614 77.1245C89.9071 77.4439 89.2229 77.8113 88.5663 78.224C82.1268 82.4297 83.082 86.5716 81.4968 91.8491C79.8743 96.1857 74.4141 122.3 75.0561 131.273C75.6981 140.245 100.764 148.735 127.735 148.736C154.705 148.737 179.771 140.244 180.413 131.273C181.055 122.302 175.592 96.1797 173.97 92.0137Z" fill="#CA097F"/>
<path opacity="0.05" d="M180.344 126.577C179.592 115.39 175.364 95.5957 173.969 92.0137H173.986C173.968 91.9572 173.954 91.8996 173.937 91.8431H173.97C172.442 86.7543 173.083 82.7168 167.36 78.6674C166.981 78.379 166.579 78.0954 166.141 77.8179C162.07 75.238 155.851 73.3887 150.053 71.978L148.379 69.165C148.281 69.0006 148.164 68.8481 148.031 68.7108L146.27 66.9024V65.7525C146.271 65.2018 146.058 64.6721 145.675 64.2757L145.543 64.1411C144.811 63.38 143.696 63.1243 142.704 63.4898C139.641 64.6181 132.806 66.9024 127.639 66.9024C124.785 66.8097 121.953 66.3691 119.207 65.5903L180.344 126.577Z" fill="black"/>
<path d="M117.09 63.5089L117.14 63.5366C118.981 65.2064 121.079 66.5711 123.354 67.5788C124.742 68.0775 126.217 68.2892 127.69 68.2013H127.74C129.212 68.2892 130.688 68.0775 132.076 67.5788C134.35 66.5711 136.448 65.2064 138.29 63.5366L138.366 63.4801C140.623 61.5859 142.496 59.2776 143.882 56.6802C145.122 53.9357 144.619 51.047 145.192 47.2427C147.987 48.6558 151.623 36.3513 150.185 34.1139C148.841 32.0207 146.965 33.8339 146.721 34.0851L146.739 27.0664C146.739 11.836 138.236 7.88989 127.746 7.88989C117.255 7.88989 108.745 11.8348 108.745 27.0664L108.727 34.1139C108.727 34.1139 106.679 31.8705 105.234 34.1139C103.788 36.3573 107.49 48.7315 110.293 47.2319C110.864 51.0242 110.341 53.8816 111.572 56.6201C112.956 59.2286 114.829 61.5477 117.09 63.4513C117.23 63.5714 117.231 63.581 117.09 63.4573V63.5089Z" fill="#FFDBB0"/>
<path d="M134.106 74.8149H134.115C134.778 74.8149 135.315 75.3522 135.315 76.0149V101.252C135.315 101.915 134.778 102.452 134.115 102.452H134.106C133.444 102.452 132.906 101.915 132.906 101.252V76.0149C132.906 75.3522 133.444 74.8149 134.106 74.8149ZM120.856 74.8149H120.865C121.528 74.8149 122.065 75.3522 122.065 76.0149V95.244C122.065 95.9067 121.528 96.444 120.865 96.444H120.856C120.194 96.444 119.656 95.9067 119.656 95.244V76.0149C119.656 75.3522 120.194 74.8149 120.856 74.8149Z" fill="#F2F2F2"/>
<path d="M122.701 39.6366C121.625 40.7844 120.121 41.4368 118.546 41.439C116.88 41.3457 115.329 40.5614 114.27 39.2761C115.522 38.47 116.996 38.0739 118.485 38.143C120.038 38.0315 121.567 38.5731 122.701 39.6366ZM132.929 39.6366C134.064 38.5731 135.592 38.0315 137.145 38.143C138.634 38.0739 140.108 38.47 141.361 39.2761C140.301 40.5614 138.751 41.3457 137.085 41.439C135.509 41.4368 134.005 40.7844 132.929 39.6366Z" fill="white"/>
<path d="M118.33 38.1443C118.889 38.1483 119.445 38.2115 119.991 38.3329C120.627 39.1321 120.527 40.2883 119.762 40.9664C118.997 41.6444 117.834 41.6078 117.114 40.883C116.393 40.1582 116.366 38.998 117.052 38.2404C117.475 38.1778 117.902 38.1457 118.33 38.1443ZM136.992 38.1443C137.536 38.1448 138.079 38.1922 138.615 38.2861C139.279 39.0678 139.211 40.231 138.462 40.9313C137.713 41.6315 136.545 41.6229 135.806 40.9116C135.067 40.2004 135.017 39.0363 135.692 38.2644C136.121 38.1865 136.556 38.1463 136.992 38.1443Z" fill="#808080"/>
<path d="M118.483 40.4778C117.951 40.4778 117.52 40.0474 117.52 39.5165C117.52 38.9856 117.951 38.5552 118.483 38.5552C119.015 38.5552 119.447 38.9856 119.447 39.5165C119.447 40.0474 119.015 40.4778 118.483 40.4778ZM137.145 40.4778C136.613 40.4778 136.182 40.0474 136.182 39.5165C136.182 38.9856 136.613 38.5552 137.145 38.5552C137.677 38.5552 138.109 38.9856 138.109 39.5165C138.109 40.0474 137.677 40.4778 137.145 40.4778Z" fill="#534741"/>
<path d="M117.337 39.9972C117.071 39.9972 116.855 39.782 116.855 39.5165C116.855 39.2511 117.071 39.0359 117.337 39.0359C117.603 39.0359 117.819 39.2511 117.819 39.5165C117.819 39.782 117.603 39.9972 117.337 39.9972ZM136.008 39.9972C135.742 39.9972 135.526 39.782 135.526 39.5165C135.526 39.2511 135.742 39.0359 136.008 39.0359C136.274 39.0359 136.49 39.2511 136.49 39.5165C136.49 39.782 136.274 39.9972 136.008 39.9972Z" fill="white"/>
<path d="M113.922 38.8845C114.649 38.3768 115.481 38.0384 116.356 37.8943C117.183 37.7429 118.026 37.7025 118.864 37.7742C120.534 37.932 122.123 38.5665 123.441 39.6018L123.663 39.7893L123.482 39.9455L123.017 40.348L122.955 40.4021L122.907 40.3961C122.305 40.2777 121.68 40.4182 121.188 40.783C121.655 40.3381 122.29 40.1111 122.934 40.1582L122.825 40.205L123.081 39.6463L123.122 39.9887C121.853 39.1093 120.36 38.609 118.816 38.5468C118.054 38.5266 117.293 38.6074 116.553 38.7871C115.851 38.9441 115.19 39.2462 114.613 39.6739L114.564 39.7148C114.341 39.8986 114.012 39.8677 113.827 39.6457C113.643 39.4237 113.674 39.0947 113.897 38.9109L113.922 38.8845ZM141.058 39.7016C140.437 39.3021 139.755 39.007 139.039 38.828C138.299 38.6334 137.536 38.5357 136.771 38.5372C136.006 38.5337 135.246 38.6555 134.521 38.8977C133.793 39.132 133.116 39.4987 132.522 39.9791L132.548 39.6499L132.804 40.2086L132.698 40.1582C133.343 40.1111 133.977 40.3381 134.445 40.783C133.952 40.4182 133.328 40.2777 132.726 40.3961L132.678 40.4021L132.615 40.348L132.15 39.9455L131.986 39.8037L132.175 39.6162C132.796 39.0458 133.518 38.5973 134.305 38.2945C135.086 37.984 135.912 37.8034 136.752 37.7597C137.589 37.7111 138.428 37.7713 139.25 37.9388C140.102 38.1003 140.92 38.4068 141.667 38.8448C141.827 38.9414 141.923 39.1157 141.919 39.3021C141.915 39.4886 141.812 39.6587 141.648 39.7485C141.485 39.8384 141.285 39.8342 141.125 39.7376L141.1 39.722L141.058 39.7016Z" fill="#826F67"/>
<path d="M112.042 34.0911C112.042 34.0911 111.98 33.7847 113.18 32.5891C114.555 31.2168 121.886 32.1361 124.23 32.3764C124.974 32.4344 125.598 32.9604 125.778 33.6825C125.865 33.9602 125.801 34.2632 125.608 34.4816C124.976 35.1125 114.951 33.8508 113.939 33.8508C113.299 33.8552 112.662 33.9359 112.042 34.0911ZM143.585 34.0911C142.964 33.9359 142.328 33.8552 141.688 33.8508C140.676 33.8508 130.651 35.1125 130.018 34.4816C129.826 34.2632 129.761 33.9602 129.848 33.6825C130.029 32.9604 130.652 32.4344 131.396 32.3764C133.74 32.1361 141.071 31.2168 142.447 32.5891C143.648 33.7847 143.585 34.0911 143.585 34.0911Z" fill="#534741"/>
<path opacity="0.1" d="M130.502 50.468C129.859 51.3516 128.83 51.8745 127.736 51.8745C126.641 51.8745 125.613 51.3516 124.97 50.468C123.893 49.3937 122.922 50.0486 122.922 50.8981C122.922 51.6948 124.353 51.6191 125.09 51.9796C125.889 52.4829 126.798 52.7867 127.74 52.8652C128.682 52.7867 129.591 52.4829 130.39 51.9796C131.128 51.6191 132.558 51.6948 132.558 50.8981C132.555 50.0498 131.579 49.3949 130.502 50.468Z" fill="black"/>
<path opacity="0.1" d="M129.907 56.1348C129.179 56.0817 128.446 56.1474 127.739 56.3294C127.032 56.1474 126.299 56.0817 125.571 56.1348C124.567 56.2549 120.713 57.1814 120.713 57.1814C120.713 57.1814 122.985 58.7519 124.007 59.6495C125.03 60.5471 127.741 60.5471 127.741 60.5471C127.741 60.5471 130.452 60.5471 131.476 59.6495C132.499 58.7519 134.77 57.1814 134.77 57.1814C134.77 57.1814 130.911 56.2537 129.907 56.1348Z" fill="black"/>
<path opacity="0.1" d="M134.765 57.1814C134.765 57.1814 130.911 56.2537 129.907 56.1348C129.179 56.0817 128.446 56.1474 127.739 56.3294C127.032 56.1474 126.299 56.0817 125.571 56.1348C124.567 56.2549 120.713 57.1814 120.713 57.1814C123.018 57.6833 125.356 58.023 127.709 58.1979C130.082 58.0266 132.44 57.6868 134.765 57.1814Z" fill="black"/>
<path opacity="0.05" d="M138.309 63.5259L138.308 63.5271L138.303 63.5307L138.309 63.5259Z" fill="black"/>
<path opacity="0.05" d="M150.18 34.114C148.835 32.0208 146.96 33.834 146.715 34.0852L146.734 27.0665C146.734 11.8361 138.231 7.89 127.74 6.92871V67.2401C127.74 68.2014 127.74 68.2014 127.74 68.2014C129.213 68.2894 130.688 68.0776 132.077 67.5789C134.351 66.5712 136.449 65.2065 138.291 63.5367L138.313 63.5271C140.592 61.622 142.482 59.2965 143.88 56.6779C145.121 53.9334 144.617 51.0447 145.19 47.2404C147.983 48.6559 151.618 36.3502 150.18 34.114Z" fill="black"/>
<path d="M108.466 14.0591C108.466 14.0591 111.357 26.0752 110.393 28.9591C109.43 31.843 110.393 37.13 110.393 37.13C109.797 36.1666 109.251 35.1736 108.756 34.1549C108.325 33.0731 108.061 31.9321 107.973 30.7711C107.973 30.7711 106.659 16.1018 108.466 14.0591Z" fill="#624D48"/>
<path d="M146.989 14.0591C146.989 14.0591 144.098 26.0752 145.062 28.9591C146.026 31.843 145.062 37.13 145.062 37.13C145.658 36.1666 146.204 35.1736 146.699 34.1549C147.13 33.0731 147.394 31.9321 147.482 30.7711C147.482 30.7711 148.796 16.1018 146.989 14.0591Z" fill="#624D48"/>
<path opacity="0.2" d="M108.466 14.0591C108.466 14.0591 111.357 26.0752 110.393 28.9591C109.43 31.843 110.393 37.13 110.393 37.13C109.797 36.1666 109.251 35.1736 108.756 34.1549C108.325 33.0731 108.061 31.9321 107.973 30.7711C107.973 30.7711 106.659 16.1018 108.466 14.0591Z" fill="white"/>
<path opacity="0.2" d="M146.989 14.0591C146.989 14.0591 144.098 26.0752 145.062 28.9591C146.026 31.843 145.062 37.13 145.062 37.13C145.658 36.1666 146.204 35.1736 146.699 34.1549C147.13 33.0731 147.394 31.9321 147.482 30.7711C147.482 30.7711 148.796 16.1018 146.989 14.0591Z" fill="white"/>
<path d="M110.59 25.5946C110.59 25.5946 107.217 17.9643 107.442 12.8575C107.541 10.5744 111.598 5.88811 113.284 3.36473C114.971 0.841341 118.946 -0.600595 125.812 0.240534C124.568 0.55429 123.414 1.15059 122.439 1.98287C122.216 2.26161 122.016 2.55866 121.843 2.87086C121.843 2.87086 126.95 0.000211716 136.258 2.28328C145.565 4.56634 146.65 7.20989 146.65 7.20989C144.833 6.93837 142.982 6.97901 141.178 7.33005C141.178 7.33005 147.253 9.13247 150.505 14.0591L147.589 15.6488C147.589 15.6488 151.95 23.5518 150.505 29.9204C150.505 29.9204 148.675 25.0743 140.857 24.6333C138.679 24.5131 133.082 25.1283 127.739 23.5242C123.511 22.2553 111.005 20.6283 110.59 25.5946Z" fill="#624D48"/>
<path d="M137.505 34.7268C133.997 34.8554 132.313 35.7914 130.483 36.069C128.648 36.286 126.793 36.286 124.957 36.069C123.127 35.7914 121.443 34.8554 117.936 34.7268C114.792 34.7525 111.655 35.0285 108.555 35.5523C108.688 36.385 108.779 37.0639 108.916 37.7332C108.955 37.9227 109.075 38.0856 109.245 38.179C109.935 38.4013 109.975 38.9301 110.041 39.5285C110.146 40.8085 110.334 42.0805 110.604 43.3364C111.093 45.3358 112.018 46.9136 114.097 47.3954C116.368 47.9417 118.741 47.8958 120.989 47.262C124.351 46.0784 125.579 43.2282 126.311 39.8961C126.486 39.0983 126.832 38.5587 127.702 38.5275H127.732C128.603 38.5587 128.949 39.0983 129.124 39.8961C129.855 43.2294 131.083 46.0796 134.445 47.262C136.693 47.8958 139.067 47.9417 141.338 47.3954C143.42 46.9148 144.349 45.3358 144.831 43.3364C145.1 42.0805 145.288 40.8085 145.393 39.5285C145.46 38.9276 145.499 38.4013 146.19 38.179C146.359 38.0856 146.479 37.9227 146.518 37.7332C146.654 37.0639 146.746 36.385 146.88 35.5523C143.782 35.0288 140.647 34.7528 137.505 34.7268ZM124.586 40.2302C124.422 41.5817 123.948 42.8773 123.201 44.0165C121.697 46.3644 119.388 46.6901 116.924 46.6492C113.051 46.606 111.931 45.5678 111.455 40.9391C111.436 40.5789 111.436 40.2179 111.455 39.8577C111.462 37.374 112.289 36.3622 114.764 36.0125C117.294 35.5656 119.894 35.743 122.34 36.5292C124.267 37.1649 124.832 38.2367 124.586 40.2326V40.2302ZM143.985 40.9391C143.511 45.5714 142.389 46.606 138.517 46.6492C136.053 46.6901 133.743 46.3632 132.24 44.0165C131.492 42.8774 131.018 41.5817 130.854 40.2302C130.614 38.2343 131.172 37.1625 133.106 36.5304C135.551 35.7441 138.152 35.5667 140.681 36.0137C143.158 36.367 143.983 37.3788 143.99 39.8589C144.007 40.2196 144.006 40.581 143.985 40.9416V40.9391Z" fill="#3F5263"/>
<path opacity="0.05" d="M150.504 14.059C147.251 9.13241 141.177 7.32999 141.177 7.32999C142.981 6.97895 144.831 6.93831 146.649 7.20983C146.649 7.20983 145.565 4.56628 136.257 2.28322C133.467 1.56508 130.581 1.28775 127.705 1.46131V23.5157L127.733 23.5241C133.076 25.1283 138.672 24.5107 140.85 24.6332C148.669 25.0742 150.499 29.9203 150.499 29.9203C151.944 23.5518 147.582 15.6488 147.582 15.6488L150.504 14.059Z" fill="black"/>
<path d="M158 113H101C98.2386 113 96 115.239 96 118V154C96 156.761 98.2386 159 101 159H158C160.761 159 163 156.761 163 154V118C163 115.239 160.761 113 158 113Z" fill="#F2F2F2"/>
<path opacity="0.05" d="M129 113H158C160.761 113 163 115.239 163 118V154C163 156.761 160.761 159 158 159H129V113Z" fill="black"/>
<path fill-rule="evenodd" clip-rule="evenodd" d="M68 64H16C15.4477 64 15 63.5523 15 63V62H14C13.4477 62 13 61.5523 13 61V60C13 59.4477 13.4477 59 14 59H70C70.5523 59 71 59.4477 71 60V61C71 61.5523 70.5523 62 70 62H69V63C69 63.5523 68.5523 64 68 64Z" fill="#3B5975"/>
<path fill-rule="evenodd" clip-rule="evenodd" d="M28.7344 64H55.2638L49.9383 69.3625C49.4877 69.8162 48.8748 70.0714 48.2354 70.0714H35.7628C35.1234 70.0714 34.5104 69.8162 34.0599 69.3625L28.7344 64Z" fill="#2C3F55"/>
<path fill-rule="evenodd" clip-rule="evenodd" d="M42 55.1426C48.8333 55.1426 55.6667 56.4759 62.5 59.1426H21.5C28.3333 56.4759 35.1667 55.1426 42 55.1426Z" fill="#293E52"/>
<path fill-rule="evenodd" clip-rule="evenodd" d="M29 64H32V68H29V64Z" fill="#3B5975"/>
<path fill-rule="evenodd" clip-rule="evenodd" d="M32 64H52V66H32V64Z" fill="#3B5975"/>
<path d="M55 64H52V68H55V64Z" fill="#3B5975"/>
<path fill-rule="evenodd" clip-rule="evenodd" d="M28.9995 68H31.9995C31.5975 70.4286 31.3965 72.8572 31.3965 75.2858C31.3965 77.0631 31.5041 78.6235 31.7194 79.9673H31.7195C31.8243 80.6217 31.3788 81.2372 30.7244 81.342C30.6616 81.3521 30.5981 81.3572 30.5345 81.3572H29.9694C29.3898 81.3572 28.893 80.9429 28.7889 80.3727C28.5273 78.9404 28.3965 77.2448 28.3965 75.2858C28.3965 72.8572 28.5975 70.4286 28.9995 68Z" fill="#3B5975"/>
<path fill-rule="evenodd" clip-rule="evenodd" d="M52 68H55C55.402 70.4286 55.603 72.8572 55.603 75.2858C55.603 77.2448 55.4721 78.9404 55.2106 80.3727C55.1064 80.9428 54.6097 81.3572 54.0302 81.3572H53.4649C52.8022 81.3572 52.2649 80.8199 52.2649 80.1571C52.2649 80.0935 52.27 80.0301 52.28 79.9673C52.4953 78.6235 52.603 77.0631 52.603 75.2858C52.603 72.8572 52.402 70.4286 52 68Z" fill="#3B5975"/>
<path d="M19 53H15V59H19V53Z" fill="#293E52"/>
<path d="M69 53H65V59H69V53Z" fill="#293E52"/>
<path opacity="0.5" d="M17 55C26.3888 55 34 53.2091 34 51C34 48.7909 26.3888 47 17 47C7.61116 47 0 48.7909 0 51C0 53.2091 7.61116 55 17 55Z" fill="white"/>
<path opacity="0.5" d="M67 55C76.3888 55 84 53.2091 84 51C84 48.7909 76.3888 47 67 47C57.6112 47 50 48.7909 50 51C50 53.2091 57.6112 55 67 55Z" fill="white"/>
<path opacity="0.8" fill-rule="evenodd" clip-rule="evenodd" d="M34 51C34 53.2091 26.3888 55 17 55V51H34Z" fill="white"/>
<path opacity="0.8" fill-rule="evenodd" clip-rule="evenodd" d="M84 51C84 53.2091 76.3888 55 67 55V51H84Z" fill="white"/>
<path opacity="0.8" fill-rule="evenodd" clip-rule="evenodd" d="M0 51C0 48.7909 7.61116 47 17 47V51H0Z" fill="white"/>
<path opacity="0.8" fill-rule="evenodd" clip-rule="evenodd" d="M50 51C50 48.7909 57.6112 47 67 47V51H50Z" fill="white"/>
<path opacity="0.1" fill-rule="evenodd" clip-rule="evenodd" d="M42 72C46.4183 72 50 68.4183 50 64C50 59.5817 46.4183 56 42 56C37.5817 56 34 59.5817 34 64C34 68.4183 37.5817 72 42 72Z" fill="#02B997"/>
<path opacity="0.3" fill-rule="evenodd" clip-rule="evenodd" d="M42 71C45.866 71 49 67.866 49 64C49 60.134 45.866 57 42 57C38.134 57 35 60.134 35 64C35 67.866 38.134 71 42 71Z" fill="#02B997"/>
<path fill-rule="evenodd" clip-rule="evenodd" d="M42 66C43.1046 66 44 65.1046 44 64C44 62.8954 43.1046 62 42 62C40.8954 62 40 62.8954 40 64C40 65.1046 40.8954 66 42 66Z" fill="#02B997"/>
<path opacity="0.1" fill-rule="evenodd" clip-rule="evenodd" d="M55.4629 64H68.2957C68.0525 67.3545 65.2727 70 61.8793 70C58.4859 70 55.7061 67.3545 55.4629 64Z" fill="#CA097F"/>
<path opacity="0.1" fill-rule="evenodd" clip-rule="evenodd" d="M15.668 64H28.5008C28.2576 67.3545 25.4778 70 22.0844 70C18.691 70 15.9112 67.3545 15.668 64Z" fill="#CA097F"/>
<path opacity="0.2" fill-rule="evenodd" clip-rule="evenodd" d="M67.4164 64C67.1077 66.8125 64.7398 69 61.8645 69C58.9892 69 56.6213 66.8125 56.3125 64H67.4164Z" fill="#CA097F"/>
<path opacity="0.2" fill-rule="evenodd" clip-rule="evenodd" d="M27.6216 64C27.3128 66.8125 24.9449 69 22.0696 69C19.1943 69 16.8263 66.8125 16.5176 64H27.6216Z" fill="#CA097F"/>
<path fill-rule="evenodd" clip-rule="evenodd" d="M18 64H26C26 64.5523 25.5523 65 25 65H19C18.4477 65 18 64.5523 18 64Z" fill="#CA097F"/>
<path fill-rule="evenodd" clip-rule="evenodd" d="M58 64H66C66 64.5523 65.5523 65 65 65H59C58.4477 65 58 64.5523 58 64Z" fill="#CA097F"/>
<path d="M44 125H62L60.0796 151.885C60.0347 152.513 59.5122 153 58.8826 153H47.1174C46.4878 153 45.9653 152.513 45.9204 151.885L44 125Z" fill="white"/>
<path d="M44.2 123H61.8C62.4627 123 63 123.537 63 124.2V125H43V124.2C43 123.537 43.5373 123 44.2 123Z" fill="#293E52"/>
<path d="M46.0928 119H59.9072C60.4371 119 60.9043 119.348 61.0566 119.855L62 123H44L44.9434 119.855C45.0957 119.348 45.5629 119 46.0928 119Z" fill="#293E52"/>
<path d="M44.5102 132H61.3708C61.7022 132 61.9709 132.269 61.9709 132.6C61.9709 132.618 61.97 132.637 61.9684 132.655L61.0687 142.455C61.0404 142.764 60.7814 143 60.4712 143H45.4098C45.0997 143 44.8407 142.764 44.8123 142.455L43.9127 132.655C43.8824 132.325 44.1254 132.033 44.4554 132.003C44.4736 132.001 44.4919 132 44.5102 132Z" fill="#02B997"/>
<path opacity="0.05" d="M52 179L27.9008 155L16 159.148L35.9339 179" fill="black"/>
<path fill-rule="evenodd" clip-rule="evenodd" d="M23.346 158.845C28.5021 156.866 31.0774 151.081 29.0982 145.925C26.095 138.102 20.189 141.694 17.2026 142.841C14.2162 143.987 7.42344 145.269 10.4266 153.093C12.4058 158.249 18.19 160.824 23.346 158.845Z" fill="#D0021B"/>
<path fill-rule="evenodd" clip-rule="evenodd" d="M26.8545 142.36C27.6954 143.124 28.4613 144.269 29.0972 145.925C29.951 148.15 29.9572 150.491 29.2743 152.593L29.2057 152.631C28.5941 152.974 27.8442 152.954 27.2514 152.58L26.5779 152.155C26.3867 152.035 26.179 151.942 25.9614 151.881L25.195 151.665C24.5204 151.474 24.0041 150.93 23.8493 150.247L23.6735 149.47C23.6236 149.249 23.5421 149.037 23.4317 148.84L23.0426 148.145C22.7002 147.534 22.7198 146.784 23.0938 146.191L23.5187 145.517C23.6393 145.326 23.7318 145.119 23.7932 144.901L24.0094 144.134C24.1997 143.46 24.7438 142.944 25.4274 142.789L26.2041 142.613C26.4246 142.563 26.6368 142.482 26.8342 142.371L26.8545 142.36Z" fill="#FFFBC2"/>
</svg>
