<svg width="256" height="183" viewBox="0 0 256 183" fill="none" xmlns="http://www.w3.org/2000/svg">
<path opacity="0.3" d="M2 145H254C255.105 145 256 145.895 256 147V178H0V147C0 145.895 0.895431 145 2 145Z" fill="#293E51"/>
<path opacity="0.4" d="M0 178H256V181C256 182.105 255.105 183 254 183H2C0.895431 183 0 182.105 0 181V178Z" fill="#293E51"/>
<path opacity="0.05" d="M191 178L165.75 153L90 154.19L114.048 178H191Z" fill="black"/>
<path opacity="0.05" d="M80 178L65.5172 164L45 166.333L57.069 178H80Z" fill="black"/>
<path opacity="0.05" d="M235 178L220.517 164L200 166.333L212.069 178H235Z" fill="black"/>
<path d="M163.954 77.8442C158.574 74.4233 150.638 72.2839 143.693 70.751C142.408 70.2547 141.222 69.5327 140.19 68.6188C138.921 66.6833 138.097 63.9036 137.778 61.6107C137.657 61.719 137.546 61.8297 137.425 61.9367C135.511 63.6654 133.417 65.0319 131.147 66.041C129.762 66.5404 128.289 66.7524 126.819 66.6643C125.3 66.7524 123.827 66.5404 122.442 66.041C120.171 65.0319 118.078 63.6654 116.239 61.9933C116.052 61.7827 115.927 61.6684 115.794 61.5481C115.477 63.8877 114.634 66.7112 113.329 68.6778C112.282 69.5907 111.081 70.308 109.781 70.7955C108.915 70.988 94.35 74.8866 89.6877 77.8514C83.3867 81.8606 83.4288 86.0527 81.873 91.0968H171.784C170.23 86.0527 170.272 81.8594 163.954 77.8442Z" fill="#FFDBB0"/>
<path d="M116.2 62.5519L116.249 62.5796C118.087 64.2516 120.181 65.6182 122.452 66.6273C123.837 67.1266 125.31 67.3387 126.78 67.2506H126.829C128.299 67.3387 129.772 67.1266 131.157 66.6273C133.427 65.6182 135.521 64.2516 137.359 62.5796L137.435 62.523C139.687 60.6247 141.554 58.312 142.935 55.7102C144.174 52.962 143.671 50.0693 144.244 46.2598C147.033 47.6749 150.662 35.3536 149.227 33.1131C147.885 31.017 146.013 32.8328 145.769 33.0842L145.787 26.056C145.787 10.8084 137.302 6.85815 126.83 6.85815C116.359 6.85815 107.865 10.8084 107.865 26.0597L107.847 33.1167C107.847 33.1167 105.803 30.8703 104.36 33.1167C102.917 35.3632 106.612 47.7543 109.41 46.2526C109.979 50.0501 109.458 52.9114 110.686 55.6536C112.068 58.2657 113.937 60.5879 116.194 62.4941C116.333 62.6144 116.335 62.6241 116.194 62.5001L116.2 62.5519Z" fill="#FFDBB0"/>
<path opacity="0.05" d="M165.155 77.8441C159.775 74.4233 150.637 72.2839 143.691 70.7509C142.406 70.2547 141.22 69.5326 140.189 68.6188C138.92 66.6833 138.096 64.4899 137.776 62.197C137.656 62.3053 137.544 62.416 137.424 62.5231L137.348 62.5797C135.51 64.2517 133.416 65.6183 131.146 66.6274C129.76 67.1267 128.288 67.3388 126.818 67.2507H126.769C125.299 67.3388 123.826 67.1267 122.441 66.6274C120.191 65.6277 118.116 64.2759 116.291 62.623L144.751 91.0967H171.783C170.229 86.0527 171.473 81.8594 165.155 77.8441Z" fill="black"/>
<path opacity="0.05" d="M149.222 33.1169C147.881 31.0209 146.009 32.8366 145.765 33.088L145.783 26.0598C145.785 10.8086 137.3 6.85835 126.828 5.89575V66.2882C126.828 67.2508 126.828 67.2508 126.828 67.2508C128.298 67.3389 129.771 67.1268 131.156 66.6275C133.426 65.6184 135.52 64.2518 137.359 62.5798L137.377 62.5689C139.652 60.6612 141.539 58.3326 142.933 55.7104C144.172 52.9622 143.669 50.0695 144.241 46.26C147.031 47.6787 150.665 35.3574 149.222 33.1169Z" fill="black"/>
<path opacity="0.05" d="M137.377 62.5701H137.376L137.371 62.5749L137.377 62.5701Z" fill="black"/>
<path opacity="0.1" d="M130.78 50.0128C130.281 49.4907 129.497 49.3608 128.857 49.6939C128.237 49.9661 127.593 50.1796 126.933 50.3317C126.273 50.1796 125.629 49.9661 125.009 49.6939C124.369 49.3608 123.585 49.4907 123.086 50.0128C122.765 50.4556 124.619 50.7564 125.37 51.0572C126.121 51.358 126.422 51.6589 126.933 51.6589C127.444 51.6589 127.745 51.358 128.496 51.0572C129.247 50.7564 131.1 50.4556 130.78 50.0128Z" fill="black"/>
<path opacity="0.1" d="M128.228 54.8439C127.723 54.7717 127.299 55.1182 126.932 55.1351C126.532 55.1519 125.99 54.7741 125.49 54.8439C124.989 54.9137 120.244 55.9918 120.244 55.9918C121.205 56.8199 122.11 57.7098 122.955 58.6558C123.904 59.9793 129.939 59.9793 130.89 58.6558C131.743 57.7076 132.659 56.8177 133.631 55.9918C133.631 55.9918 128.733 54.9161 128.228 54.8439Z" fill="black"/>
<path opacity="0.1" d="M126.932 55.134C126.532 55.1521 125.99 54.7731 125.49 54.8429C124.989 54.9126 120.244 55.9908 120.244 55.9908C121.271 56.4614 122.382 56.7201 123.511 56.7512C124.643 56.9767 125.787 57.1401 126.937 57.2409C128.087 57.1401 129.231 56.9767 130.363 56.7512C131.492 56.7201 132.603 56.4614 133.63 55.9908C133.63 55.9908 128.738 54.9151 128.233 54.8429C127.728 54.7707 127.298 55.1184 126.932 55.134Z" fill="black"/>
<path d="M113.787 38.624C114.89 37.8542 116.203 37.4452 117.548 37.4532C119.039 37.5004 120.497 37.9017 121.802 38.624C120.975 39.9423 119.499 40.7095 117.946 40.6298C116.321 40.6565 114.779 39.9128 113.787 38.624ZM140.025 38.624C139.033 39.9128 137.491 40.6565 135.866 40.6298C134.313 40.7091 132.838 39.9419 132.011 38.624C133.316 37.9017 134.775 37.5004 136.266 37.4532C137.609 37.4455 138.923 37.8545 140.025 38.624Z" fill="white"/>
<path d="M116.269 37.4763C116.684 37.3556 117.114 37.2925 117.547 37.2886C118.191 37.2989 118.829 37.4177 119.433 37.6399C119.943 38.4687 119.754 39.5475 118.994 40.154C118.234 40.7605 117.141 40.704 116.447 40.0223C115.753 39.3406 115.677 38.2481 116.269 37.4763ZM137.544 37.4763C138.136 38.2481 138.059 39.3406 137.366 40.0223C136.672 40.704 135.579 40.7605 134.819 40.154C134.059 39.5475 133.87 38.4687 134.38 37.6399C134.984 37.4177 135.622 37.2989 136.266 37.2886C136.698 37.2925 137.128 37.3556 137.544 37.4763Z" fill="#3B93B2"/>
<path d="M117.795 39.6698C117.286 39.6698 116.873 39.2566 116.873 38.7469C116.873 38.2372 117.286 37.824 117.795 37.824C118.304 37.824 118.717 38.2372 118.717 38.7469C118.717 39.2566 118.304 39.6698 117.795 39.6698ZM136.019 39.6698C135.51 39.6698 135.097 39.2566 135.097 38.7469C135.097 38.2372 135.51 37.824 136.019 37.824C136.528 37.824 136.941 38.2372 136.941 38.7469C136.941 39.2566 136.528 39.6698 136.019 39.6698Z" fill="#534741"/>
<path d="M116.754 39.2282C116.489 39.2282 116.273 39.0127 116.273 38.7469C116.273 38.4811 116.489 38.2656 116.754 38.2656C117.02 38.2656 117.235 38.4811 117.235 38.7469C117.235 39.0127 117.02 39.2282 116.754 39.2282ZM134.954 39.2282C134.688 39.2282 134.473 39.0127 134.473 38.7469C134.473 38.4811 134.688 38.2656 134.954 38.2656C135.22 38.2656 135.435 38.4811 135.435 38.7469C135.435 39.0127 135.22 39.2282 134.954 39.2282Z" fill="white"/>
<path d="M113.237 38.7096C113.839 38.1114 114.589 37.6838 115.411 37.4702C116.191 37.2527 116.996 37.1374 117.806 37.1273C118.622 37.1117 119.435 37.2337 120.21 37.4883C120.995 37.7347 121.698 38.1926 122.241 38.8119L122.235 38.8046C122.334 38.9257 122.348 39.0961 122.27 39.2318C122.205 39.3326 122.114 39.4135 122.006 39.4652C121.811 39.5637 121.58 39.5637 121.385 39.4652C121.251 39.4219 121.099 39.5735 120.931 39.671C120.764 39.7684 120.607 39.8779 120.442 39.9742C120.583 39.8418 120.725 39.7131 120.87 39.5916C121.016 39.4941 121.135 39.2811 121.406 39.2908C121.647 39.3389 121.742 39.3726 121.887 39.2679C122.033 39.1632 122.078 39.0489 122.019 39.0056L122.012 38.9972C121.462 38.4938 120.789 38.1433 120.061 37.9804C119.335 37.7955 118.582 37.734 117.836 37.7987C117.086 37.8483 116.344 37.9749 115.62 38.1765C114.922 38.3502 114.268 38.6651 113.696 39.1018L113.652 39.1403C113.532 39.2426 113.353 39.234 113.244 39.1207C113.134 39.0073 113.132 38.8283 113.238 38.712L113.237 38.7096ZM140.116 39.1054C139.544 38.6688 138.89 38.3538 138.192 38.1801C137.468 37.9785 136.726 37.8519 135.976 37.8023C135.23 37.7376 134.477 37.7991 133.751 37.984C133.023 38.1469 132.35 38.4974 131.8 39.0008L131.793 39.0092C131.734 39.0525 131.767 39.1728 131.925 39.2715C132.082 39.3702 132.165 39.3425 132.406 39.2944C132.679 39.2847 132.798 39.4977 132.942 39.5952C133.087 39.7155 133.229 39.8455 133.37 39.9778C133.205 39.8815 133.04 39.7817 132.881 39.6746C132.721 39.5675 132.561 39.4255 132.427 39.4688C132.232 39.5673 132.001 39.5673 131.806 39.4688C131.698 39.4171 131.607 39.3362 131.542 39.2354C131.464 39.0997 131.478 38.9294 131.577 38.8082L131.571 38.8155C132.114 38.1962 132.817 37.7383 133.602 37.4919C134.377 37.2373 135.19 37.1153 136.006 37.1309C136.816 37.141 137.621 37.2563 138.401 37.4738C139.223 37.6874 139.973 38.115 140.575 38.7132C140.682 38.8292 140.68 39.0083 140.571 39.1221C140.461 39.2358 140.283 39.2449 140.163 39.1427L140.116 39.1054Z" fill="#826F67"/>
<path d="M124.476 36.0889C123.237 37.5208 120.402 35.7604 118.717 35.462C110.822 34.065 111.248 35.9878 111.248 35.9878C111.116 34.9238 111.605 33.8782 112.505 33.2974C114.751 31.7331 120.892 32.8161 122.724 33.7065C124.208 34.4272 124.965 35.5246 124.476 36.0889ZM129.338 36.0889C128.85 35.5246 129.606 34.4272 131.09 33.7065C132.922 32.8161 139.063 31.7331 141.309 33.2974C142.209 33.8782 142.698 34.9238 142.566 35.9878C142.566 35.9878 142.992 34.065 135.097 35.462C133.412 35.7604 130.577 37.5208 129.338 36.0889Z" fill="#212C33"/>
<path d="M105.97 41.9222C103.52 38.2114 101.686 32.822 102.137 24.5497C102.588 16.2773 104.221 14.6229 104.221 14.6229C102.535 15.1433 101.065 16.1994 100.033 17.631C100.258 14.865 101.833 12.3885 104.241 11.0131C108.299 8.757 109.05 8.757 109.05 8.757C109.649 5.06167 112.295 2.02856 115.873 0.935863C122.124 -1.16983 124.625 0.935863 124.625 0.935863C122.936 0.619843 121.22 1.32672 120.242 2.74074C125.283 1.5105 130.577 1.82491 135.437 3.64318C144.066 6.65131 150.377 16.4277 152.181 20.6391L147.48 18.5298C149.621 21.8737 150.971 25.6621 151.429 29.607C152.03 35.8266 152.181 39.2859 152.181 39.2859L149.425 36.0251C149.425 36.0251 149.776 45.2011 147.872 50.0947C147.872 50.0947 143.839 33.4189 131.633 27.2522C131.633 27.2522 131.788 28.9067 134.094 31.0124C134.094 31.0124 126.932 33.3683 121.734 30.7224C119.057 29.3718 116.692 27.4762 114.791 25.1573C115.901 27.7162 117.454 30.0585 119.379 32.076C116.76 31.808 114.217 31.0423 111.885 29.8199C111.885 29.8199 111.284 36.8854 112.866 38.8672C112.866 38.8672 108.681 37.0274 108.447 32.6668C108.447 32.6668 108.285 43.0076 112.053 46.6173C112.056 46.6221 108.917 46.3827 105.97 41.9222Z" fill="#212C33"/>
<path d="M171.179 82.4609C168.699 77.9692 163.704 78.3193 163.084 75.7227C162.203 72.0323 158.916 72.8349 155.871 68.6596C153.012 64.7394 139.52 67.5406 139.52 67.5406C139.52 67.5406 139.199 68.1819 141.123 69.621C143.046 71.0601 154.45 74.8732 154.45 74.8732V88.0188C136.027 87.0762 117.569 87.0762 99.1462 88.0188V74.9201C99.1462 74.9201 110.447 71.0601 112.371 69.6258C114.294 68.1916 113.973 67.5454 113.973 67.5454C113.973 67.5454 100.482 64.7442 97.6229 68.6644C94.5776 72.8397 91.2907 72.0335 90.4095 75.7275C89.7891 78.3241 84.795 77.974 82.3147 82.4657C80.7602 85.2765 73.6008 121.469 74.2416 130.402C74.8824 139.386 99.9 147.888 126.82 147.889C153.739 147.89 178.757 139.386 179.397 130.402C180.038 121.419 172.593 85.0202 171.179 82.4609Z" fill="#2C3A44"/>
<path opacity="0.2" d="M113.262 68.8559C98.2629 68.0136 99.1465 74.9203 99.1465 74.9203C99.1465 74.9203 110.448 71.0603 112.371 69.626C112.687 69.3915 112.984 69.1341 113.262 68.8559Z" fill="black"/>
<path opacity="0.2" d="M140.232 68.8559C155.232 68.0136 154.45 74.8721 154.45 74.8721C154.45 74.8721 143.047 71.059 141.123 69.6199C140.808 69.3874 140.51 69.132 140.232 68.8559Z" fill="black"/>
<path d="M143.782 70.9482C139.319 73.7811 134.216 75.4476 128.942 75.7949C128.234 75.8467 127.52 75.8828 126.798 75.8828C126.077 75.8828 125.367 75.8479 124.661 75.7949C119.372 75.4484 114.255 73.7755 109.782 70.9302C105.814 72.6388 99.1465 74.9202 99.1465 74.9202V127.103H154.45V74.8732C154.45 74.8732 147.779 72.6424 143.782 70.9482Z" fill="#F498C8"/>
<path opacity="0.05" d="M129.416 75.748L179.267 125.641C178.204 112.525 172.414 84.6869 171.178 82.4597C168.698 77.968 163.704 78.3181 163.084 75.7215C162.202 72.0311 158.916 72.8337 155.87 68.6584C153.011 64.7382 139.52 67.5394 139.52 67.5394C139.52 67.5394 139.199 68.1807 141.122 69.6198C141.965 70.1452 142.856 70.5884 143.783 70.9434C139.454 73.6878 134.524 75.3368 129.416 75.748Z" fill="black"/>
<path opacity="0.05" d="M135.435 3.64319C132.665 2.66946 129.762 2.12729 126.828 2.03564V31.9605C129.285 32.0408 131.739 31.7218 134.093 31.016C131.787 28.9103 131.632 27.2558 131.632 27.2558C143.839 33.4225 147.871 50.0983 147.871 50.0983C149.774 45.2047 149.424 36.0287 149.424 36.0287L152.18 39.2895C152.18 39.2895 152.03 35.8302 151.429 29.6106C150.971 25.6645 149.62 21.8748 147.479 18.5298L152.18 20.6355C150.377 16.4277 144.065 6.65132 135.435 3.64319Z" fill="black"/>
<path d="M90.4 99H163.6C164.925 99 166 100.075 166 101.4V150H88V101.4C88 100.075 89.0745 99 90.4 99Z" fill="#899CAB"/>
<path d="M88 150H166V152.6C166 153.925 164.925 155 163.6 155H90.4C89.0745 155 88 153.925 88 152.6V150Z" fill="#505B63"/>
<path opacity="0.05" d="M127 155V99H163.562C164.909 99 166 100.067 166 101.383V152.617C166 153.933 164.909 155 163.562 155H127Z" fill="black"/>
<path opacity="0.2" d="M210 155C221.598 155 231 145.598 231 134C231 122.402 221.598 113 210 113C198.402 113 189 122.402 189 134C189 145.598 198.402 155 210 155Z" fill="white"/>
<path opacity="0.2" d="M210 150C218.837 150 226 142.837 226 134C226 125.163 218.837 118 210 118C201.163 118 194 125.163 194 134C194 142.837 201.163 150 210 150Z" fill="white"/>
<path d="M220 123H200C199.448 123 199 123.448 199 124V165C199 165.552 199.448 166 200 166H220C220.552 166 221 165.552 221 165V124C221 123.448 220.552 123 220 123Z" fill="#F2F2F2"/>
<path opacity="0.1" d="M199 124C199 123.724 199.112 123.474 199.293 123.293L202.414 126.414C202.789 126.789 203 127.298 203 127.829V166H200C199.448 166 199 165.552 199 165V124Z" fill="black"/>
<path opacity="0.1" d="M221 124C221 123.724 220.888 123.474 220.707 123.293L217.586 126.414C217.211 126.789 217 127.298 217 127.829V166H220C220.552 166 221 165.552 221 165V124Z" fill="black"/>
<path d="M206 130C206.552 130 207 129.552 207 129C207 128.448 206.552 128 206 128C205.448 128 205 128.448 205 129C205 129.552 205.448 130 206 130Z" fill="#4B565D"/>
<path d="M214 130C214.552 130 215 129.552 215 129C215 128.448 214.552 128 214 128C213.448 128 213 128.448 213 129C213 129.552 213.448 130 214 130Z" fill="#4B565D"/>
<path opacity="0.2" d="M212 148H208C207.448 148 207 148.448 207 149V161C207 161.552 207.448 162 208 162H212C212.552 162 213 161.552 213 161V149C213 148.448 212.552 148 212 148Z" fill="black"/>
<path opacity="0.2" d="M56 156C67.598 156 77 146.598 77 135C77 123.402 67.598 114 56 114C44.402 114 35 123.402 35 135C35 146.598 44.402 156 56 156Z" fill="white"/>
<path opacity="0.2" d="M56 151C64.8366 151 72 143.837 72 135C72 126.163 64.8366 119 56 119C47.1634 119 40 126.163 40 135C40 143.837 47.1634 151 56 151Z" fill="white"/>
<path d="M66 124H46C45.4477 124 45 124.448 45 125V166C45 166.552 45.4477 167 46 167H66C66.5523 167 67 166.552 67 166V125C67 124.448 66.5523 124 66 124Z" fill="#F2F2F2"/>
<path opacity="0.1" d="M45 125C45 124.724 45.1119 124.474 45.2929 124.293L48.4142 127.414C48.7893 127.789 49 128.298 49 128.829V167H46C45.4477 167 45 166.552 45 166V125Z" fill="black"/>
<path opacity="0.1" d="M67 125C67 124.724 66.8881 124.474 66.7071 124.293L63.5858 127.414C63.2107 127.789 63 128.298 63 128.829V167H66C66.5523 167 67 166.552 67 166V125Z" fill="black"/>
<path d="M52 131C52.5523 131 53 130.552 53 130C53 129.448 52.5523 129 52 129C51.4477 129 51 129.448 51 130C51 130.552 51.4477 131 52 131Z" fill="#4B565D"/>
<path d="M60 131C60.5523 131 61 130.552 61 130C61 129.448 60.5523 129 60 129C59.4477 129 59 129.448 59 130C59 130.552 59.4477 131 60 131Z" fill="#4B565D"/>
<path opacity="0.2" d="M58 149H54C53.4477 149 53 149.448 53 150V162C53 162.552 53.4477 163 54 163H58C58.5523 163 59 162.552 59 162V150C59 149.448 58.5523 149 58 149Z" fill="black"/>
<path d="M211 156C211.552 156 212 155.552 212 155C212 154.448 211.552 154 211 154C210.448 154 210 154.448 210 155C210 155.552 210.448 156 211 156Z" fill="#4B565D"/>
<path d="M211 160C211.552 160 212 159.552 212 159C212 158.448 211.552 158 211 158C210.448 158 210 158.448 210 159C210 159.552 210.448 160 211 160Z" fill="#4B565D"/>
<path d="M56 157C56.5523 157 57 156.552 57 156C57 155.448 56.5523 155 56 155C55.4477 155 55 155.448 55 156C55 156.552 55.4477 157 56 157Z" fill="#4B565D"/>
<path d="M56 156C65.2052 164.976 77.5533 170 90.4105 170H183.905C194.029 170 203.752 166.044 211 158.976" stroke="#4B565D"/>
<path d="M212 155.507V162C212 168.627 206.627 174 200 174H196.695C190.068 174 184.695 168.627 184.695 162V161C184.695 153.82 178.875 148 171.695 148H166" stroke="#4B565D"/>
</svg>
