<svg width="186" height="155" viewBox="0 0 186 155" fill="none" xmlns="http://www.w3.org/2000/svg">
<rect width="186" height="155" rx="6" fill="#EE573D"/>
<path opacity="0.2" d="M173 19C174.105 19 175 18.1046 175 17C175 15.8954 174.105 15 173 15C171.895 15 171 15.8954 171 17C171 18.1046 171.895 19 173 19Z" fill="#293E51"/>
<path opacity="0.2" d="M165 19C166.105 19 167 18.1046 167 17C167 15.8954 166.105 15 165 15C163.895 15 163 15.8954 163 17C163 18.1046 163.895 19 165 19Z" fill="#293E51"/>
<path opacity="0.2" d="M157 19C158.105 19 159 18.1046 159 17C159 15.8954 158.105 15 157 15C155.895 15 155 15.8954 155 17C155 18.1046 155.895 19 157 19Z" fill="#293E51"/>
<path fill-rule="evenodd" clip-rule="evenodd" d="M8 27H178C178.53 27 179.039 27.2107 179.414 27.5858C179.789 27.9609 180 28.4696 180 29V147C180 147.53 179.789 148.039 179.414 148.414C179.039 148.789 178.53 149 178 149H8C7.46957 149 6.96086 148.789 6.58579 148.414C6.21071 148.039 6 147.53 6 147V29C6 28.4696 6.21071 27.9609 6.58579 27.5858C6.96086 27.2107 7.46957 27 8 27Z" fill="white"/>
<path d="M51 52H30C28.8954 52 28 52.8954 28 54V65C28 66.1046 28.8954 67 30 67H51C52.1046 67 53 66.1046 53 65V54C53 52.8954 52.1046 52 51 52Z" fill="#10BF9C"/>
<path opacity="0.15" d="M121 52H65C63.8954 52 63 52.8954 63 54V65C63 66.1046 63.8954 67 65 67H121C122.105 67 123 66.1046 123 65V54C123 52.8954 122.105 52 121 52Z" fill="#293E51"/>
<path opacity="0.8" d="M51 82H30C28.8954 82 28 82.8954 28 84V125C28 126.105 28.8954 127 30 127H51C52.1046 127 53 126.105 53 125V84C53 82.8954 52.1046 82 51 82Z" fill="#1490E3"/>
<path opacity="0.15" d="M81 82H65C63.8954 82 63 82.8954 63 84V100C63 101.105 63.8954 102 65 102H81C82.1046 102 83 101.105 83 100V84C83 82.8954 82.1046 82 81 82Z" fill="#293E51"/>
<path opacity="0.15" d="M106 82H90C88.8954 82 88 82.8954 88 84V100C88 101.105 88.8954 102 90 102H106C107.105 102 108 101.105 108 100V84C108 82.8954 107.105 82 106 82Z" fill="#293E51"/>
<path opacity="0.15" d="M156 82H115C113.895 82 113 82.8954 113 84V100C113 101.105 113.895 102 115 102H156C157.105 102 158 101.105 158 100V84C158 82.8954 157.105 82 156 82Z" fill="#293E51"/>
<path opacity="0.15" d="M81 107H65C63.8954 107 63 107.895 63 109V125C63 126.105 63.8954 127 65 127H81C82.1046 127 83 126.105 83 125V109C83 107.895 82.1046 107 81 107Z" fill="#293E51"/>
<path opacity="0.8" d="M131 107H115C113.895 107 113 107.895 113 109V125C113 126.105 113.895 127 115 127H131C132.105 127 133 126.105 133 125V109C133 107.895 132.105 107 131 107Z" fill="#F3C805"/>
<path opacity="0.15" d="M106 107H90C88.8954 107 88 107.895 88 109V125C88 126.105 88.8954 127 90 127H106C107.105 127 108 126.105 108 125V109C108 107.895 107.105 107 106 107Z" fill="#293E51"/>
<path opacity="0.15" d="M156 107H140C138.895 107 138 107.895 138 109V125C138 126.105 138.895 127 140 127H156C157.105 127 158 126.105 158 125V109C158 107.895 157.105 107 156 107Z" fill="#293E51"/>
<path opacity="0.8" d="M156 52H130C128.895 52 128 52.8954 128 54V65C128 66.1046 128.895 67 130 67H156C157.105 67 158 66.1046 158 65V54C158 52.8954 157.105 52 156 52Z" fill="#F15635"/>
<path fill-rule="evenodd" clip-rule="evenodd" d="M21.333 15H48.667C49.0617 15 49.4477 15.1167 49.7761 15.3356C50.1046 15.5545 50.361 15.8657 50.513 16.23L55 27H15L19.487 16.23C19.639 15.8657 19.8954 15.5545 20.2238 15.3356C20.5523 15.1167 20.9383 15 21.333 15Z" fill="white"/>
<path opacity="0.3" fill-rule="evenodd" clip-rule="evenodd" d="M59.333 15H86.667C87.0617 15 87.4477 15.1167 87.7762 15.3356C88.1046 15.5545 88.361 15.8657 88.513 16.23L93 27H53L57.487 16.23C57.639 15.8657 57.8954 15.5545 58.2239 15.3356C58.5523 15.1167 58.9383 15 59.333 15Z" fill="white"/>
</svg>
