<svg width="186" height="155" viewBox="0 0 186 155" fill="none" xmlns="http://www.w3.org/2000/svg">
<rect width="186" height="155" rx="6" fill="#1B7CB7"/>
<path d="M178 27H8C6.89543 27 6 27.8954 6 29V147C6 148.105 6.89543 149 8 149H178C179.105 149 180 148.105 180 147V29C180 27.8954 179.105 27 178 27Z" fill="white"/>
<path opacity="0.3" d="M53 27L57.487 16.23C57.639 15.8657 57.8954 15.5545 58.2238 15.3356C58.5523 15.1167 58.9383 15 59.333 15H86.667C87.0617 15 87.4477 15.1167 87.7762 15.3356C88.1046 15.5545 88.361 15.8657 88.513 16.23L93 27H53Z" fill="white"/>
<path d="M15 27L19.487 16.23C19.639 15.8657 19.8954 15.5545 20.2238 15.3356C20.5523 15.1167 20.9383 15 21.333 15H48.667C49.0617 15 49.4477 15.1167 49.7762 15.3356C50.1046 15.5545 50.361 15.8657 50.513 16.23L55 27H15Z" fill="white"/>
<path opacity="0.2" d="M157 19C158.105 19 159 18.1046 159 17C159 15.8954 158.105 15 157 15C155.895 15 155 15.8954 155 17C155 18.1046 155.895 19 157 19Z" fill="#293E51"/>
<path opacity="0.2" d="M165 19C166.105 19 167 18.1046 167 17C167 15.8954 166.105 15 165 15C163.895 15 163 15.8954 163 17C163 18.1046 163.895 19 165 19Z" fill="#293E51"/>
<path opacity="0.2" d="M173 19C174.105 19 175 18.1046 175 17C175 15.8954 174.105 15 173 15C171.895 15 171 15.8954 171 17C171 18.1046 171.895 19 173 19Z" fill="#293E51"/>
<path d="M158 47H142C140.895 47 140 47.8954 140 49V65C140 66.1046 140.895 67 142 67H158C159.105 67 160 66.1046 160 65V49C160 47.8954 159.105 47 158 47Z" fill="#F5D337"/>
<path d="M158 78H142C140.895 78 140 78.8954 140 80V96C140 97.1046 140.895 98 142 98H158C159.105 98 160 97.1046 160 96V80C160 78.8954 159.105 78 158 78Z" fill="#DFE2E5"/>
<path d="M158 109H142C140.895 109 140 109.895 140 111V127C140 128.105 140.895 129 142 129H158C159.105 129 160 128.105 160 127V111C160 109.895 159.105 109 158 109Z" fill="#DFE2E5"/>
<path d="M31 124L63.509 118.011C67.1009 117.35 70.4431 115.717 73.173 113.291L91.145 97.315C94.3006 94.5102 96.4877 90.7787 97.393 86.655L105 52" stroke="#167CB9" stroke-width="3"/>
<path d="M68 122C70.7614 122 73 119.761 73 117C73 114.239 70.7614 112 68 112C65.2386 112 63 114.239 63 117C63 119.761 65.2386 122 68 122Z" fill="#167CB9"/>
<path d="M95 97C97.7614 97 100 94.7614 100 92C100 89.2386 97.7614 87 95 87C92.2386 87 90 89.2386 90 92C90 94.7614 92.2386 97 95 97Z" fill="#167CB9"/>
<path opacity="0.2" d="M95 104C101.627 104 107 98.6274 107 92C107 85.3726 101.627 80 95 80C88.3726 80 83 85.3726 83 92C83 98.6274 88.3726 104 95 104Z" fill="#167CB9"/>
<path opacity="0.2" d="M95 110C104.941 110 113 101.941 113 92C113 82.0589 104.941 74 95 74C85.0589 74 77 82.0589 77 92C77 101.941 85.0589 110 95 110Z" fill="#167CB9"/>
<path d="M105 57C107.761 57 110 54.7614 110 52C110 49.2386 107.761 47 105 47C102.239 47 100 49.2386 100 52C100 54.7614 102.239 57 105 57Z" fill="#167CB9"/>
<path d="M31 129C33.7614 129 36 126.761 36 124C36 121.239 33.7614 119 31 119C28.2386 119 26 121.239 26 124C26 126.761 28.2386 129 31 129Z" fill="#167CB9"/>
</svg>
