<svg width="186" height="155" viewBox="0 0 186 155" fill="none" xmlns="http://www.w3.org/2000/svg">
<rect width="186" height="155" rx="6" fill="#1EBD9B"/>
<path d="M178 27H8C6.89543 27 6 27.8954 6 29V147C6 148.105 6.89543 149 8 149H178C179.105 149 180 148.105 180 147V29C180 27.8954 179.105 27 178 27Z" fill="white"/>
<path opacity="0.3" d="M53 27L57.487 16.23C57.639 15.8657 57.8954 15.5545 58.2238 15.3356C58.5523 15.1167 58.9383 15 59.333 15H86.667C87.0617 15 87.4477 15.1167 87.7762 15.3356C88.1046 15.5545 88.361 15.8657 88.513 16.23L93 27H53Z" fill="white"/>
<path d="M15 27L19.487 16.23C19.639 15.8657 19.8954 15.5545 20.2238 15.3356C20.5523 15.1167 20.9383 15 21.333 15H48.667C49.0617 15 49.4477 15.1167 49.7762 15.3356C50.1046 15.5545 50.361 15.8657 50.513 16.23L55 27H15Z" fill="white"/>
<path opacity="0.2" d="M157 19C158.105 19 159 18.1046 159 17C159 15.8954 158.105 15 157 15C155.895 15 155 15.8954 155 17C155 18.1046 155.895 19 157 19Z" fill="#293E51"/>
<path opacity="0.2" d="M165 19C166.105 19 167 18.1046 167 17C167 15.8954 166.105 15 165 15C163.895 15 163 15.8954 163 17C163 18.1046 163.895 19 165 19Z" fill="#293E51"/>
<path opacity="0.2" d="M173 19C174.105 19 175 18.1046 175 17C175 15.8954 174.105 15 173 15C171.895 15 171 15.8954 171 17C171 18.1046 171.895 19 173 19Z" fill="#293E51"/>
<path d="M31 124L42.891 99.518C44.441 96.3269 46.812 93.6055 49.7607 91.6329C52.7095 89.6603 56.1298 88.5076 59.671 88.293L71.243 87.591C74.2812 87.407 77.2373 86.532 79.8861 85.0327C82.5349 83.5333 84.8066 81.4492 86.528 78.939L105 52" stroke="#F5D337" stroke-width="3"/>
<path d="M31 129C33.7614 129 36 126.761 36 124C36 121.239 33.7614 119 31 119C28.2386 119 26 121.239 26 124C26 126.761 28.2386 129 31 129Z" fill="#F5D337"/>
<path d="M50 96C52.7614 96 55 93.7614 55 91C55 88.2386 52.7614 86 50 86C47.2386 86 45 88.2386 45 91C45 93.7614 47.2386 96 50 96Z" fill="#F5D337"/>
<path d="M81 89C83.7614 89 86 86.7614 86 84C86 81.2386 83.7614 79 81 79C78.2386 79 76 81.2386 76 84C76 86.7614 78.2386 89 81 89Z" fill="#F5D337"/>
<path opacity="0.2" d="M81 102C90.9411 102 99 93.9411 99 84C99 74.0589 90.9411 66 81 66C71.0589 66 63 74.0589 63 84C63 93.9411 71.0589 102 81 102Z" fill="#F5D337"/>
<path opacity="0.4" d="M81 96C87.6274 96 93 90.6274 93 84C93 77.3726 87.6274 72 81 72C74.3726 72 69 77.3726 69 84C69 90.6274 74.3726 96 81 96Z" fill="#F5D337"/>
<path d="M105 57C107.761 57 110 54.7614 110 52C110 49.2386 107.761 47 105 47C102.239 47 100 49.2386 100 52C100 54.7614 102.239 57 105 57Z" fill="#F5D337"/>
<path d="M158 47H142C140.895 47 140 47.8954 140 49V65C140 66.1046 140.895 67 142 67H158C159.105 67 160 66.1046 160 65V49C160 47.8954 159.105 47 158 47Z" fill="#F5D337"/>
<path d="M158 78H142C140.895 78 140 78.8954 140 80V96C140 97.1046 140.895 98 142 98H158C159.105 98 160 97.1046 160 96V80C160 78.8954 159.105 78 158 78Z" fill="#F5D337"/>
<path d="M158 109H142C140.895 109 140 109.895 140 111V127C140 128.105 140.895 129 142 129H158C159.105 129 160 128.105 160 127V111C160 109.895 159.105 109 158 109Z" fill="#DFE2E5"/>
</svg>
