<svg width="157" height="496" viewBox="0 0 157 496" fill="none" xmlns="http://www.w3.org/2000/svg">
<path opacity="0.1" fill-rule="evenodd" clip-rule="evenodd" d="M77.0669 495.986C105.426 496.173 126.237 494.584 125.998 482.896C125.769 471.664 108.218 467 77.7829 467C40.2867 467 31 469.794 31 481.026C31 492.258 41.5023 495.753 77.0669 495.986Z" fill="black"/>
<path d="M116.479 189.598C116.479 189.598 127.273 183.812 130.505 180.746C134.141 177.274 136.45 173.051 137.027 165.877C137.605 158.702 121.847 130.989 121.847 130.989L102.049 150.66L116.479 189.598Z" fill="#102F3D"/>
<path d="M105.571 58.6672C100.261 58.6672 99.395 38.3014 99.395 38.3014V35.0614C97.6634 20.4814 91.1987 6.88501 77.5189 6.88501C63.8391 6.88501 57.0281 27.5979 57.1435 38.9957C57.259 50.3936 50.6211 59.3036 50.6211 59.3036C50.6211 59.3036 52.699 59.1879 54.4307 58.0307C54.4307 58.0307 53.5648 60.9236 54.4307 62.775C55.2965 64.6264 56.624 66.2464 57.8939 67.5193C59.1637 68.7922 59.0483 69.9493 59.0483 69.9493C59.0483 69.9493 61.2417 69.66 61.6457 67.7507C61.6457 67.7507 62.3384 69.6022 63.4928 71.1064C64.6472 72.6107 68.9762 73.5364 68.9762 73.5364H89.1784C89.1784 73.5364 93.5075 70.1807 93.6807 67.7507C93.6807 67.7507 95.7009 68.445 95.5277 69.7757C95.5277 69.7757 99.1064 67.5772 99.2796 64.6843C99.4527 61.7914 98.7023 61.3286 98.7023 61.3286C98.7023 61.3286 101.3 62.9486 103.031 61.9072C104.763 60.8657 105.571 58.6672 105.571 58.6672Z" fill="#AFA476"/>
<path opacity="0.1" d="M105.571 58.6672C100.261 58.6672 99.395 38.3014 99.395 38.3014V35.0614C97.6634 20.4814 91.1987 6.88501 77.5189 6.88501C63.8391 6.88501 57.0281 27.5979 57.1435 38.9957C57.259 50.3936 50.6211 59.3036 50.6211 59.3036C50.6211 59.3036 52.699 59.1879 54.4307 58.0307C54.4307 58.0307 53.5648 60.9236 54.4307 62.775C55.2965 64.6264 56.624 66.2464 57.8939 67.5193C59.1637 68.7922 59.0483 69.9493 59.0483 69.9493C59.0483 69.9493 61.2417 69.66 61.6457 67.7507C61.6457 67.7507 62.3384 69.6022 63.4928 71.1064C64.6472 72.6107 68.9762 73.5364 68.9762 73.5364H89.1784C89.1784 73.5364 93.5075 70.1807 93.6807 67.7507C93.6807 67.7507 95.7009 68.445 95.5277 69.7757C95.5277 69.7757 99.1064 67.5772 99.2796 64.6843C99.4527 61.7914 98.7023 61.3286 98.7023 61.3286C98.7023 61.3286 101.3 62.9486 103.031 61.9072C104.763 60.8657 105.571 58.6672 105.571 58.6672Z" fill="black"/>
<path d="M52.641 73.4785L46.9844 80.6528C46.9844 80.6528 59.6829 93.4971 76.7105 93.4971C93.738 93.4971 108.572 80.3056 108.572 80.3056L103.262 73.7678C103.262 73.7678 89.6976 63.1799 77.4031 63.1799C64.2428 63.1799 52.641 73.4785 52.641 73.4785Z" fill="#0F2B38"/>
<path d="M150.766 159.512C150.766 159.512 144.994 142.56 141.935 132.146C138.876 121.732 132.007 100.672 132.007 100.672C130.16 94.7123 130.333 92.2245 122.887 87.5381C116.596 83.5459 103.204 79.843 95.8162 78.223C94.6618 77.7602 93.3342 77.0659 92.0643 75.9666C90.5636 74.0573 89.3515 70.1809 89.0629 65.668C91.8335 63.238 94.0268 60.403 95.0081 58.3202C96.3357 55.3695 95.8162 52.3031 96.3934 48.1952C99.3949 49.6995 103.262 35.5245 101.704 33.0945C100.261 30.8381 98.2982 32.8052 98.0096 33.0366V26.5566C98.0096 10.2409 88.9474 6.01733 77.7496 6.01733C66.5518 6.01733 57.4897 10.2409 57.4897 26.5566V33.0945C57.4897 33.0945 55.2963 30.7223 53.7956 33.0945C52.2371 35.4666 56.2199 49.7573 59.1636 48.1373C59.7985 52.1873 59.2213 55.2538 60.5489 58.2045C61.4724 60.2873 63.6658 63.0645 66.4364 65.4945C66.6096 65.6102 66.6096 65.6102 66.4364 65.4945C66.1478 70.123 64.8779 74.0573 63.3772 75.9666C62.1074 77.1238 60.7221 77.818 59.5676 78.223C58.6441 78.4545 38.3265 84.0088 32.843 87.4802C25.4548 92.2245 25.3971 94.7123 23.55 100.614C23.55 100.614 16.7967 121.674 13.7375 132.088C10.6783 142.502 4.90625 159.454 4.90625 159.454C4.90625 159.454 4.90625 162.174 6.81103 172.183C8.71581 182.192 14.1415 195.326 17.2007 198.392C20.2599 201.459 23.3768 206.492 25.6857 208.807C27.9945 211.121 36.2485 216.733 36.2485 216.733C36.2485 216.733 32.7853 237.562 32.7853 255.497C32.7853 273.433 40.289 335.34 40.289 339.969C40.289 344.597 37.4029 352.119 37.9801 366.583C38.5574 381.047 48.9471 448.162 48.9471 452.212C48.9471 456.262 48.9471 465.519 46.6382 468.99C44.3294 472.462 42.0206 476.627 43.7522 481.256C45.4838 485.884 58.6441 486.174 61.5301 485.017C64.4162 483.859 65.1088 473.561 65.1088 468.354C65.1088 463.147 66.2632 451.575 66.8404 449.261C67.4177 446.947 64.5316 444.054 65.1088 440.582C65.686 437.111 66.8404 382.147 65.686 374.047C64.5316 365.947 66.2632 352.061 66.2632 348.011C66.2632 343.961 69.7265 267.589 74.9213 261.804C80.1162 256.018 85.311 324.868 86.4654 346.275C87.6199 367.682 85.2533 365.426 84.1566 378.097C83.0022 391.577 86.4654 441.739 86.4654 444.632C86.4654 447.525 87.2735 451.922 87.2735 455.972C87.2735 460.022 89.3515 476.454 89.9287 479.925C90.5059 483.397 94.2577 485.248 98.2982 485.827C102.339 486.405 110.708 483.975 110.708 480.504C110.708 477.032 104.936 461.989 104.936 457.361C104.936 452.732 103.782 445.789 103.782 441.739C103.782 437.689 111.285 383.304 111.863 376.939C112.44 370.575 111.285 352.061 111.285 352.061C111.285 352.061 118.269 294.493 118.269 277.714C118.269 261.341 119.366 233.801 118.847 221.014C118.385 210.369 117.173 187.168 117.461 178.489C117.75 169.811 120.059 147.247 120.059 147.247L121.79 134.807C121.79 134.807 123.811 143.486 127.274 151.875C130.737 160.264 132.18 163.736 132.18 163.736L150.766 159.512ZM37.6915 193.648C37.6915 193.648 32.2081 194.516 29.8993 191.044C27.5904 187.573 27.0132 173.398 25.8588 168.48C24.7044 163.562 23.55 163.852 23.55 163.852C23.55 163.852 24.993 160.38 28.4562 151.991C31.9195 143.602 33.9397 134.923 33.9397 134.923L35.6713 147.362C35.6713 147.362 37.9801 169.927 38.2688 178.605C38.5574 187.284 37.6915 193.648 37.6915 193.648Z" fill="#FFDBB0"/>
<path opacity="0.05" d="M118.674 85.7442C112.959 82.0992 103.205 79.7849 95.7587 78.1649C94.6043 77.7021 93.2767 77.0078 92.0068 75.9085C90.5061 73.9992 89.294 70.1228 89.0054 65.6099C91.776 63.1799 94.0271 60.3449 94.9506 58.2621C96.2782 55.3114 95.7587 52.2449 96.3359 48.1371C99.3374 49.6414 103.205 35.4664 101.646 33.0364C100.203 30.7799 98.2407 32.7471 97.9521 32.9785V26.4985C97.9521 10.1828 88.8899 5.95923 77.6921 5.95923V70.5278C76.2491 70.5278 74.6329 70.5278 73.0745 69.8335C70.7657 68.8499 68.3991 67.2299 66.3789 65.4364L100.723 99.8614H126.986C125.369 94.4807 125.427 90.0257 118.674 85.7442Z" fill="black"/>
<path opacity="0.1" d="M80.1152 55.6586C79.0185 55.485 77.8064 55.9479 77.8064 55.9479C77.8064 55.9479 76.5943 55.485 75.4976 55.6586C74.4009 55.8321 70.3027 57.1629 70.3027 57.1629C70.3027 57.1629 72.727 59.4193 73.8237 60.6922C74.9204 61.965 77.8064 61.965 77.8064 61.965C77.8064 61.965 80.6924 61.965 81.7891 60.6922C82.8858 59.4193 85.3101 57.1629 85.3101 57.1629C85.3101 57.1629 81.1542 55.8321 80.1152 55.6586Z" fill="black"/>
<path opacity="0.1" d="M85.2534 57.1629C85.2534 57.1629 81.1553 55.8321 80.0586 55.6586C78.9619 55.485 77.7498 55.9479 77.7498 55.9479C77.7498 55.9479 76.5376 55.485 75.4409 55.6586C74.3443 55.8321 70.2461 57.1629 70.2461 57.1629C70.2461 57.1629 75.3832 58.6093 77.6921 58.6093C80.1163 58.6672 85.2534 57.1629 85.2534 57.1629Z" fill="black"/>
<path d="M61.0688 32.053C61.0688 32.053 61.9923 31.8215 63.089 31.8215C64.1857 31.8215 74.864 33.1523 75.499 32.5158C75.7298 32.2844 75.7298 31.9951 75.6721 31.648C75.499 30.8958 74.8063 30.3173 73.9982 30.2594C71.5162 30.028 63.6662 29.0444 62.2232 30.4908C61.0111 31.7637 61.0688 32.053 61.0688 32.053Z" fill="#8C8360"/>
<path d="M72.44 38.012C72.44 38.012 71.1124 35.6978 67.9377 35.6978C64.994 35.6978 63.4355 37.6649 63.4355 37.6649C63.4355 37.6649 65.2249 39.8635 67.9955 39.8635C70.8238 39.8056 72.44 38.012 72.44 38.012Z" fill="white"/>
<path d="M67.9373 39.5742C69.0849 39.5742 70.0153 38.6416 70.0153 37.4913C70.0153 36.341 69.0849 35.4084 67.9373 35.4084C66.7897 35.4084 65.8594 36.341 65.8594 37.4913C65.8594 38.6416 66.7897 39.5742 67.9373 39.5742Z" fill="#754C24"/>
<path d="M67.9374 38.5328C68.5112 38.5328 68.9764 38.0666 68.9764 37.4914C68.9764 36.9162 68.5112 36.45 67.9374 36.45C67.3636 36.45 66.8984 36.9162 66.8984 37.4914C66.8984 38.0666 67.3636 38.5328 67.9374 38.5328Z" fill="#534741"/>
<path d="M66.7256 38.07C67.0444 38.07 67.3028 37.811 67.3028 37.4914C67.3028 37.1719 67.0444 36.9128 66.7256 36.9128C66.4069 36.9128 66.1484 37.1719 66.1484 37.4914C66.1484 37.811 66.4069 38.07 66.7256 38.07Z" fill="white"/>
<path d="M63.0874 37.3758C63.7801 36.6236 64.5881 36.1029 65.5117 35.7558C66.4352 35.4086 67.4165 35.2929 68.34 35.4086C69.3212 35.4665 70.187 35.8136 71.0529 36.2765C71.8609 36.7393 72.6113 37.3179 73.1885 38.0701L73.304 38.2436L73.1885 38.3593C73.0154 38.4751 72.8422 38.6486 72.7268 38.7643L72.669 38.8222H72.6113C71.9764 38.7643 71.2837 38.7643 70.7642 39.2272C70.9951 38.9958 71.2837 38.8222 71.6301 38.7643C71.9764 38.6486 72.265 38.6486 72.6113 38.6486L72.4959 38.7065C72.6113 38.5329 72.7268 38.3593 72.7845 38.1279V38.3593C72.2073 37.7229 71.4569 37.1443 70.7065 36.7393C69.8984 36.3343 69.0904 36.1029 68.2245 36.0451C67.3587 35.9872 66.4929 36.1608 65.6848 36.5079C64.9345 36.8551 64.1841 37.3758 63.6646 37.9543V38.0122C63.4915 38.1858 63.2606 38.2436 63.0297 38.0701C62.7988 37.8965 62.9142 37.5493 63.0874 37.3758Z" fill="#826F67"/>
<path d="M94.6608 32.053C94.6608 32.053 93.7372 31.8215 92.6406 31.8215C91.5439 31.8215 80.8655 33.1523 80.2306 32.5158C79.9997 32.2844 79.9997 31.9951 80.0575 31.648C80.2306 30.8958 80.9233 30.3173 81.7314 30.2594C84.2133 30.028 92.0633 29.0444 93.5064 30.4908C94.7185 31.7637 94.6608 32.053 94.6608 32.053Z" fill="#8C8360"/>
<path d="M83.291 38.012C83.291 38.012 84.6186 35.6978 87.7932 35.6978C90.737 35.6978 92.2954 37.6649 92.2954 37.6649C92.2954 37.6649 90.5061 39.8635 87.7355 39.8635C84.9072 39.8056 83.291 38.012 83.291 38.012Z" fill="white"/>
<path d="M87.7928 39.5742C88.9404 39.5742 89.8707 38.6416 89.8707 37.4913C89.8707 36.341 88.9404 35.4084 87.7928 35.4084C86.6452 35.4084 85.7148 36.341 85.7148 37.4913C85.7148 38.6416 86.6452 39.5742 87.7928 39.5742Z" fill="#754C24"/>
<path d="M87.7929 38.5328C88.3667 38.5328 88.8318 38.0666 88.8318 37.4914C88.8318 36.9162 88.3667 36.45 87.7929 36.45C87.2191 36.45 86.7539 36.9162 86.7539 37.4914C86.7539 38.0666 87.2191 38.5328 87.7929 38.5328Z" fill="#534741"/>
<path d="M86.5811 38.07C86.8999 38.07 87.1583 37.811 87.1583 37.4914C87.1583 37.1719 86.8999 36.9128 86.5811 36.9128C86.2623 36.9128 86.0039 37.1719 86.0039 37.4914C86.0039 37.811 86.2623 38.07 86.5811 38.07Z" fill="white"/>
<path d="M91.9499 37.8964C91.4304 37.3178 90.68 36.7392 89.9297 36.4499C89.1216 36.1028 88.2558 35.9871 87.39 35.9871C86.5241 35.9871 85.6583 36.2764 84.908 36.6814C84.1576 37.0864 83.4072 37.6071 82.83 38.3014V38.0699C82.8877 38.2435 83.0032 38.4171 83.1186 38.6485L83.0032 38.5906C83.3495 38.5906 83.6958 38.6485 83.9844 38.7064C84.3308 38.8221 84.6194 38.9378 84.8502 39.1692C84.3308 38.7064 83.6381 38.6485 83.0032 38.7642H82.9455L82.8878 38.7064C82.7146 38.5328 82.5991 38.4171 82.426 38.3014L82.3105 38.1856L82.426 38.0121C83.0609 37.2599 83.7536 36.6814 84.5616 36.2185C85.3697 35.7556 86.2933 35.4085 87.2745 35.3506C88.198 35.2928 89.1793 35.4085 90.1028 35.6978C91.0264 36.0449 91.8344 36.5656 92.5271 37.3178C92.7003 37.4914 92.7002 37.7806 92.4694 37.9542C92.4116 38.1278 92.1808 38.1278 91.9499 37.8964C92.0076 37.9542 92.0076 37.9542 91.9499 37.8964Z" fill="#826F67"/>
<path opacity="0.08" d="M80.1157 49.6414C79.1344 49.6414 78.9036 51.0878 77.7491 51.0878C76.5947 51.0878 76.3639 49.6414 75.3826 49.6414C74.4013 49.6414 73.3624 50.1042 73.7087 50.4514C74.055 50.7985 77.2874 51.9556 77.7491 51.9556C78.2109 51.9556 81.4433 50.7985 81.7896 50.4514C82.1936 50.1042 81.0969 49.6414 80.1157 49.6414Z" fill="black"/>
<path d="M68.9174 456.724C68.6865 455.047 69.0906 453.079 68.8597 451.517C69.0329 449.839 68.9751 448.161 68.2248 446.715C68.1093 445.616 67.9939 444.922 67.9939 444.922L66.7817 445.037C64.4152 443.417 60.1439 444.806 57.5465 444.922C55.5262 445.037 53.506 445.095 51.4281 445.211C50.7931 445.269 50.2737 445.558 49.7542 445.905C47.2145 447.757 47.6762 461.989 45.4829 464.998C42.1928 469.511 41.1538 472.982 41.4424 477.321C41.6156 479.867 41.9042 479.694 42.1351 482.239C42.1351 482.239 43.8667 484.727 48.0226 484.669C52.6402 484.554 55.9303 484.438 58.4123 484.264C61.7023 484.091 65.6273 484.033 66.2045 482.413C66.7817 480.793 67.9362 480.33 67.6476 475.412C67.5321 473.04 67.4744 469.8 67.5321 467.486C67.7053 467.254 67.8207 467.081 67.8784 466.907C68.4556 464.419 68.9751 463.899 68.9751 463.899C68.9751 463.899 69.7255 462.105 68.9174 456.724Z" fill="#0093E8"/>
<path d="M67.648 475.412C67.648 475.412 66.609 478.189 64.7619 479.347C61.7605 481.198 59.2208 481.256 53.0446 481.256C50.7358 481.256 46.2913 480.793 43.4053 479.636C42.02 479.057 41.5582 477.958 41.5582 477.958C41.5582 477.958 40.6924 472.577 42.4241 470.552C44.1557 468.527 47.5612 466.734 53.2755 466.502C57.316 466.329 65.3969 468.817 66.4358 471.42C67.4748 474.024 67.648 475.412 67.648 475.412Z" fill="white"/>
<path d="M41.2706 475.412C41.2128 478.941 41.3283 479.925 41.5592 482.471C41.5592 482.471 42.7713 485.074 47.793 485.595C52.4106 486.116 56.1625 486 58.6445 485.826C61.9345 485.653 65.2823 484.785 66.3213 482.76C67.0139 481.429 68.6301 478.999 67.4757 471.304C67.4757 471.304 67.1294 477.9 64.7051 479.404C61.7036 481.313 58.9908 480.966 52.757 480.966C50.4481 480.966 46.2345 480.851 43.3485 479.693C42.0209 479.057 41.2706 475.412 41.2706 475.412Z" fill="#CCCCCC"/>
<path d="M67.4185 471.362C67.4185 471.362 67.0145 465.577 68.2843 463.378C69.6119 461.006 69.3233 460.08 69.3233 460.08C69.3233 460.08 69.7851 461.353 69.7851 462.163C69.7851 462.915 69.6696 464.014 69.6696 464.014C69.6696 464.014 68.7461 465.519 68.2843 467.139C67.8226 468.759 67.4185 471.362 67.4185 471.362Z" fill="#F2F2F2"/>
<path opacity="0.2" d="M49.5244 449.377C49.5244 449.377 48.9472 460.485 48.9472 461.411C48.9472 462.337 50.5633 461.527 54.3152 461.353C58.067 461.179 58.7597 461.816 59.1637 461.411C59.5678 461.006 61.3571 452.617 62.3384 449.839C63.3196 447.062 64.1854 444.054 64.1854 444.054L47.9082 445.327L49.5244 449.377Z" fill="black"/>
<path d="M97.9513 33.0366L97.2009 37.2602L95.123 39.5745C95.123 39.5745 97.7204 28.3502 94.084 25.978C94.084 25.978 96.566 27.1352 97.0854 28.408C97.6049 29.6809 97.9513 33.0366 97.9513 33.0366Z" fill="#AFA476"/>
<path d="M86.2925 456.609C86.5234 454.931 86.2348 453.137 86.4656 451.517C86.2925 449.839 86.3502 448.161 87.1006 446.715C87.216 445.616 87.3315 444.922 87.3315 444.922L88.5436 445.037C90.9101 443.417 95.1814 444.806 97.7789 444.922C99.7991 445.037 101.819 445.095 103.897 445.211C104.532 445.269 105.109 445.5 105.571 445.905C109.265 448.972 108.111 460.774 110.016 464.014C112.902 469.048 114.229 472.982 113.941 477.321C113.767 479.867 113.479 479.694 113.248 482.239C113.248 482.239 111.516 484.727 107.36 484.669C102.743 484.554 99.4528 484.438 96.9708 484.264C93.6807 484.091 89.7557 484.033 89.1785 482.413C88.6013 480.793 87.4469 480.33 87.7355 475.412C87.8509 473.04 87.9087 469.8 87.8509 467.486C87.6778 467.254 87.5623 467.081 87.5046 466.907C86.9274 464.419 86.2925 463.725 86.2925 463.725C86.2925 463.725 85.5421 461.989 86.2925 456.609Z" fill="#0093E8"/>
<path opacity="0.2" d="M106.378 449.377C106.378 449.377 106.955 460.485 106.955 461.411C106.955 462.337 105.339 461.527 101.587 461.353C97.8352 461.179 97.1425 461.816 96.7385 461.411C96.3344 461.006 94.5451 452.617 93.5639 449.839C92.5826 447.062 91.7168 444.054 91.7168 444.054L107.994 445.327L106.378 449.377Z" fill="black"/>
<path d="M87.6777 475.412C87.6777 475.412 88.7167 478.189 90.5638 479.347C93.5652 481.198 96.1049 481.256 102.281 481.256C104.59 481.256 109.034 480.793 111.92 479.636C113.306 479.057 113.767 477.958 113.767 477.958C113.767 477.958 114.633 472.577 112.902 470.552C111.17 468.527 107.765 466.734 102.05 466.502C98.0097 466.329 89.9288 468.817 88.8899 471.42C87.8509 474.024 87.6777 475.412 87.6777 475.412Z" fill="white"/>
<path opacity="0.2" d="M49.6977 448.335L48.601 448.277C47.3312 452.964 47.2734 462.568 45.5418 464.94C44.0988 466.965 43.0598 468.816 42.3672 470.61L43.5216 470.321C43.5216 470.321 46.2922 464.651 46.4076 463.956C46.5231 463.262 47.6775 460.022 48.1392 458.055C48.601 456.088 49.6977 448.335 49.6977 448.335Z" fill="white"/>
<path d="M114.114 476.28C114.172 479.809 113.999 479.925 113.768 482.471C113.768 482.471 112.556 485.074 107.534 485.595C102.916 486.116 99.1645 486 96.6826 485.826C93.3925 485.653 90.0447 484.785 89.0057 482.76C88.3131 481.429 86.6969 478.999 87.8513 471.304C87.8513 471.304 88.1976 477.9 90.6219 479.404C93.6234 481.313 96.3362 480.966 102.57 480.966C104.879 480.966 109.092 480.851 111.979 479.693C113.306 479.057 114.114 476.28 114.114 476.28Z" fill="#CCCCCC"/>
<path d="M87.9086 471.362C87.9086 471.362 88.3127 465.576 87.0428 463.378C85.7153 461.006 85.9461 459.906 85.9461 459.906C85.9461 459.906 85.4844 461.179 85.4844 461.989C85.4844 462.741 85.5998 463.841 85.5998 463.841C85.5998 463.841 86.6388 465.461 87.1005 467.139C87.62 468.759 87.9086 471.362 87.9086 471.362Z" fill="#F2F2F2"/>
<path opacity="0.1" d="M85.9453 460.08C86.003 459.154 86.0607 457.997 86.2916 456.609C86.5225 454.931 86.2339 453.137 86.4648 451.517C86.4648 451.401 86.4647 451.286 86.407 451.17C87.042 452.153 87.9655 454.063 88.4272 457.303C89.8703 467.023 87.6192 474.833 88.1964 481.313C87.2728 479.693 87.1574 475.759 87.7346 472.056C87.7346 472.056 87.7346 472.114 87.7346 472.172C87.7346 471.767 87.7346 471.362 87.7346 470.899C87.6192 470.089 87.3883 468.296 87.042 467.081C86.5802 465.461 85.5412 463.783 85.5412 463.783C85.5412 463.783 85.4258 462.684 85.4258 461.931C85.4258 461.179 85.8875 459.848 85.8875 459.848C85.8875 459.848 85.9453 459.906 85.9453 460.08Z" fill="black"/>
<path d="M31.0531 239.355C31.0531 239.355 30.649 282.169 34.5163 309.362C35.8439 318.677 37.4024 333.084 37.4024 333.084C37.4024 333.084 36.8251 348.705 36.8251 356.226C36.8251 366.062 41.4428 421.605 42.02 427.969C42.5972 434.334 47.6189 449.781 47.6189 449.781C47.6189 449.781 56.7387 447.641 68.8601 451.112C68.8601 451.112 74.3435 441.855 74.3435 439.541C74.3435 437.226 68.5715 365.484 68.5715 361.434C68.5715 357.384 69.7259 348.126 70.3031 340.605C70.8803 333.084 71.4575 308.784 72.2079 298.774C72.7273 291.658 74.0549 270.019 74.8053 262.729C74.863 262.093 75.7865 262.093 75.902 262.729C76.7101 269.556 78.1531 290.269 78.9612 299.526C80.0001 311.619 81.27 337.712 81.8472 344.655C82.2512 349.284 83.5788 356.805 83.5788 362.591C83.5788 368.376 81.27 432.598 81.27 436.069C81.27 439.541 86.4649 451.575 86.4649 451.575C86.4649 451.575 98.8748 446.889 107.533 449.781L111.112 438.789C111.112 438.789 111.689 412.984 113.016 397.884C114.748 378.212 113.594 344.655 114.171 338.869C114.748 333.084 121.097 283.326 121.097 245.141L119.943 230.098L32.7847 226.626L31.0531 239.355Z" fill="#26738E"/>
<path opacity="0.1" d="M111.113 438.731C111.113 438.731 111.69 412.926 113.018 397.826C114.75 378.154 113.595 344.597 114.172 338.811C114.75 333.084 120.926 284.426 121.099 246.471L118.386 246.819C118.386 246.819 117.982 286.161 117.232 293.509C116.481 300.857 112.729 327.24 111.864 335.34C111.056 342.63 109.843 349.804 108.689 353.276C107.535 356.747 111.113 374.104 111.46 382.609C111.864 391.114 109.151 426.581 109.151 429.647C109.151 432.714 104.533 438.904 104.937 440.814C105.11 441.681 106.38 445.326 107.765 449.029L111.113 438.731Z" fill="black"/>
<path opacity="0.1" d="M49.5242 440.466C47.2154 438.557 44.1562 432.771 43.7522 429.647C43.3481 426.581 40.4044 362.822 41.1547 359.351C41.9051 355.879 49.0047 354.549 47.9658 352.524C46.8113 350.209 40.5775 344.597 37.5761 315.09C34.5746 285.525 34.1128 242.595 34.1128 242.595L31.0536 239.586C31.0536 243.116 30.8227 283.326 34.5169 309.362C35.8444 318.677 37.4029 333.084 37.4029 333.084C37.4029 333.084 36.8257 348.705 36.8257 356.226C36.8257 366.062 41.4433 421.605 42.0205 427.969C42.5977 434.334 47.6194 449.781 47.6194 449.781C47.6194 449.781 48.0812 449.666 48.8893 449.55C49.1779 448.219 49.4665 446.946 49.8128 445.905C50.7941 442.434 51.833 442.434 49.5242 440.466Z" fill="white"/>
<path d="M120.347 255.728C120.347 255.728 110.361 253.819 106.09 248.033" stroke="#A67C52" stroke-dasharray="2 2 2 2 2 2"/>
<path d="M31.8613 255.728C31.8613 255.728 41.847 253.819 46.1183 248.033" stroke="#A67C52" stroke-dasharray="2 2 2 2 2 2"/>
<path d="M35.6712 184.449L36.0752 186.879L33.1315 180.225C33.1315 180.225 30.7072 170.274 28.3984 168.769C26.0896 167.207 29.1488 166.05 29.1488 164.893C29.1488 163.736 27.244 161.016 27.244 161.016L32.612 152.164L34.1705 166.629C34.1705 166.629 36.0175 171.778 35.6712 184.449ZM151.112 160.091C151.112 160.091 154.172 150.255 153.825 148.693C153.421 147.131 147.649 140.998 144.59 132.493C141.531 123.988 133.854 95.5221 126.87 88.5214C121.848 83.4879 99.1638 77.7021 99.1638 77.7021C99.1638 77.7021 78.0958 87.1329 57.4896 77.76C57.4896 77.76 33.3624 83.4879 27.244 89.2736C21.0679 95.0593 16.8543 108.945 14.1414 121.269C11.4286 133.592 3.75172 155.578 3.75172 155.578C3.75172 155.578 1.44289 158.297 0.692525 159.801C-0.0578428 161.364 1.44289 163.273 1.44289 163.273C1.44289 163.273 0.692525 165.587 1.84694 167.149C3.00135 168.711 2.25098 171.026 3.40539 172.53C4.5598 174.034 5.71422 178.721 7.27267 182.192C8.83113 185.664 9.58149 190.292 11.4863 193.764C13.3911 197.235 19.5672 204.583 20.7216 206.492C21.876 208.401 23.7808 209.559 23.7808 209.559L30.6495 214.361C27.3017 224.196 29.9569 231.139 29.9569 231.139L30.3609 232.701L29.726 242.653C29.6683 243.868 30.4186 244.909 31.5153 245.256C34.5168 246.124 40.9238 247.802 51.1403 248.844C63.2039 250.116 78.0958 250.753 91.1407 251.331C100.953 251.794 114.229 249.364 119.77 248.207C121.213 247.918 122.252 246.529 122.079 245.083L121.155 234.958L122.31 232.239C122.31 232.239 123.811 228.362 123.464 224.428C122.656 214.881 120.463 205.624 119.597 192.317C119.366 188.788 118.847 161.364 118.847 161.364L121.848 147.189C121.848 147.189 125.196 154.884 125.6 156.446C126.004 158.008 133.45 165.819 133.45 165.819L151.112 160.091Z" fill="#0093E8"/>
<path d="M111.227 81.2314C104.936 79.1485 97.9517 77.2971 97.9517 77.2971C97.9517 77.2971 78.9616 86.67 58.2976 77.2971C58.2976 77.2971 51.5443 79.1485 44.791 81.2893C44.791 81.2893 48.5429 92.8028 62.3958 101.308C76.2487 109.813 77.8649 117.508 77.8649 117.508C77.8649 117.508 80.1737 111.028 88.2546 106.226C96.3355 101.424 110.477 85.3971 111.054 83.6614C111.631 81.9257 111.227 81.2314 111.227 81.2314Z" fill="white"/>
<path opacity="0.1" d="M114.517 150.429C114.517 150.429 113.362 161.422 111.054 170.679C108.745 179.936 110.361 182.597 111.054 184.564C113.94 192.664 119.25 210.6 119.712 214.072C120.289 218.7 120.866 225.643 120.289 228.536C119.712 231.429 116.248 234.9 116.826 235.479C117.403 236.057 118.73 238.545 119.308 242.017C119.769 244.909 118.961 247.687 118.326 248.612C118.846 248.497 119.308 248.439 119.712 248.323C121.155 248.034 122.194 246.645 122.02 245.199L121.097 235.074L122.251 232.354C122.251 232.354 123.752 228.478 123.406 224.544C122.598 214.997 120.404 205.74 119.538 192.433C119.308 188.904 118.788 161.479 118.788 161.479L119.481 158.297L114.517 150.429Z" fill="black"/>
<path d="M107.823 80.8263C107.823 80.8263 105.63 110.044 105.514 117.681C105.457 124.393 105.514 135.212 109.151 144.122C112.383 151.991 118.905 161.653 120.522 162.463C121.676 163.041 122.542 150.891 122.542 150.891C122.542 150.891 116.193 127.864 118.79 105.473C120.522 90.7199 119.656 84.587 118.963 83.8927C117.058 81.8677 107.823 79.1484 107.823 79.1484V80.8263Z" fill="#102F3D"/>
<path opacity="0.05" d="M58.2969 77.355C78.9608 86.7278 97.9509 77.355 97.9509 77.355V82.6778C97.9509 82.6778 78.9608 92.0507 58.2969 82.6778V77.355Z" fill="black"/>
<path d="M53.1034 73.4787C53.1034 73.4787 52.0067 72.9579 49.4093 73.8258C46.8119 74.6937 45.7152 79.3222 44.0413 79.7272C41.617 80.3637 39.2505 81.6944 38.9619 83.4301C38.6733 85.1658 41.0976 91.7037 50.3329 98.0679C59.5681 104.432 73.4211 109.639 77.7501 116.582C77.7501 116.582 74.5755 107.904 61.8192 97.6051C52.2954 90.0837 49.467 77.1815 53.1034 73.4787Z" fill="#0083C4"/>
<path d="M102.858 73.7678C102.858 73.7678 103.031 73.305 105.629 74.1728C108.226 75.0407 110.015 79.38 111.689 79.8428C114.114 80.4793 116.48 81.81 116.769 83.5457C117.057 85.2814 114.633 91.8193 105.398 98.1835C96.1625 104.548 82.3095 109.755 77.9805 116.698C77.9805 116.698 81.1551 108.019 93.9113 97.7207C103.493 90.0835 106.494 77.4128 102.858 73.7678Z" fill="#0083C4"/>
<path d="M98.7591 14.117C95.1804 8.62059 91.3708 7.17416 91.3708 7.17416C91.3708 7.17416 89.3506 -0.231549 76.4789 0.115593C51.7745 0.694165 44.5594 26.3249 46.1179 40.1527C47.5032 52.2449 61.2984 57.9149 63.8958 58.8406C63.1455 58.4356 62.1065 55.427 61.7025 53.807C60.2594 48.2527 59.2205 32.8627 61.4139 26.3827C62.3374 23.6056 65.3966 18.7456 69.5525 18.3985C74.8628 17.9356 77.3447 20.2499 77.3447 20.2499C77.3447 20.2499 79.7113 16.6049 86.9841 16.6049C94.2569 16.6049 94.0837 25.9777 94.0837 25.9777C94.0837 25.9777 96.5657 27.1349 97.0852 28.4077C97.6047 29.6806 97.951 32.9785 97.951 32.9785C98.2396 32.6892 100.26 30.722 101.703 33.0363C102.165 33.7306 102.165 35.4084 101.818 37.4334C101.818 37.4334 104.3 35.6977 104.3 31.0113C104.243 28.6392 104.185 22.3327 98.7591 14.117Z" fill="#AFA476"/>
<path opacity="0.1" d="M89.3516 9.77806C89.3516 9.77806 89.9866 7.11663 88.0241 5.55449C86.0616 3.99235 83.4641 2.95092 79.0196 2.83521C79.0196 2.83521 84.2722 4.68663 85.0803 6.8852C85.8884 9.08378 84.6763 9.54663 84.2145 9.83592C83.7527 10.0673 82.8869 8.33163 79.0196 7.92663C75.1524 7.52163 73.5939 7.81092 71.4005 8.56306C69.2071 9.3152 68.0527 11.1088 68.0527 11.1088C68.0527 11.1088 74.1134 8.79449 76.7108 10.4723C79.3082 12.1502 79.5391 14.0016 79.1351 15.2166C79.1351 15.2166 84.3299 13.5388 84.4454 12.2659C84.4454 12.2081 88.3127 13.2495 89.3516 9.77806Z" fill="white"/>
<path opacity="0.1" d="M60.8943 54.8487C60.8943 54.8487 52.8134 51.7822 50.6777 45.7651C50.6777 45.7651 52.9866 48.5422 55.8726 49.1208C55.8726 49.1208 54.545 35.2351 58.9318 24.8208C58.9895 24.8787 55.4108 47.8479 60.8943 54.8487Z" fill="white"/>
<path d="M36.7671 216.964C36.7671 216.964 34.2851 213.377 37.2289 206.145C39.2491 201.054 43.1741 199.434 43.1741 199.434C43.1741 199.434 46.695 198.913 47.9072 198.971C49.9274 199.087 53.9678 201.574 53.9678 201.574C53.9678 201.574 49.3502 205.972 47.7917 209.79C46.2333 213.667 41.7311 222.345 41.7311 222.345L36.7671 216.964Z" fill="#FFDBB0"/>
<path opacity="0.1" d="M49.1208 202.326C49.1208 202.326 49.0053 202.789 49.5825 203.484C49.8711 203.831 50.4483 204.351 51.0255 204.756C51.3141 204.409 52.2377 203.484 52.4686 203.194L49.1208 202.326Z" fill="black"/>
<path d="M23.087 192.086C23.0293 192.491 23.0293 192.78 23.0293 192.78C23.0293 192.78 23.0293 192.491 23.087 192.086Z" fill="black"/>
<path d="M40.5195 223.907C40.5195 223.907 44.56 208.17 53.9107 201.574C53.9107 201.574 55.9309 199.781 56.1041 198.045L60.3177 199.376C60.1445 201.111 58.1243 202.905 58.1243 202.905C48.7736 209.501 41.8471 230.445 41.8471 230.445L40.5195 223.907Z" fill="#0093E8"/>
<path opacity="0.1" d="M40.5195 223.907C40.5195 223.907 44.56 208.17 53.9107 201.574C53.9107 201.574 55.9309 199.781 56.1041 198.045L60.3177 199.376C60.1445 201.111 58.1243 202.905 58.1243 202.905C48.7736 209.501 41.8471 230.445 41.8471 230.445L40.5195 223.907Z" fill="black"/>
<path d="M80.4624 251.1L80.347 113.863H76.0757L75.2676 251.1H80.4624Z" fill="#0083C4"/>
<path d="M73.9405 270.771C73.9405 270.771 73.9405 270.945 73.8828 271.35" stroke="#A67C52"/>
<path d="M73.7665 272.507C73.651 273.491 73.5356 274.821 73.3047 276.499" stroke="#A67C52" stroke-dasharray="1.99 1.99 1.99 1.99"/>
<path d="M73.3625 276.731C72.2081 287.376 70.0147 309.594 69.1489 328.455C67.9945 354.317 67.2441 355.474 66.8401 360.855C66.436 366.236 70.3033 408.703 70.7074 416.398C71.1114 424.093 73.0162 439.136 72.6121 441.103C72.3235 442.549 70.5919 446.021 69.6684 447.814" stroke="#A67C52" stroke-dasharray="1.99 1.99 1.99 1.99 1.99 1.99"/>
<path d="M69.437 448.277C69.2638 448.624 69.1484 448.798 69.1484 448.798C69.1484 448.798 68.9752 448.682 68.6289 448.509" stroke="#A67C52"/>
<path d="M67.532 447.988C66.6084 447.641 65.2231 447.236 63.3184 447.004" stroke="#A67C52" stroke-dasharray="2.15 2.15 2.15 2.15"/>
<path d="M62.6847 446.947C59.4524 446.542 54.8347 446.484 48.4277 447.467" stroke="#A67C52" stroke-dasharray="2.15 2.15 2.15 2.15 2.15 2.15"/>
<path d="M47.7921 447.525C47.6189 447.583 47.388 447.583 47.2148 447.641" stroke="#A67C52"/>
<path d="M76.7676 266.721C76.8253 266.895 76.883 267.069 76.9407 267.3" stroke="#A67C52"/>
<path d="M76.7676 268.457C76.9407 269.498 77.1716 270.887 77.4025 272.507" stroke="#A67C52" stroke-dasharray="2.03 2.03 2.03 2.03"/>
<path d="M77.5176 272.97C80.2882 292.641 85.0212 347.953 85.3676 351.945C85.7716 356.574 85.7716 359.64 86.1179 365.079C86.522 370.459 85.7139 407.488 84.9635 416.398C84.2132 425.25 84.2132 436.069 84.9635 438.789C85.5407 440.814 86.1757 445.558 86.4643 447.756" stroke="#A67C52" stroke-dasharray="2.03 2.03 2.03 2.03 2.03 2.03"/>
<path d="M86.5215 448.277C86.5792 448.624 86.5792 448.856 86.5792 448.856C86.5792 448.856 86.7524 448.74 87.0987 448.566" stroke="#A67C52"/>
<path d="M88.1953 448.104C89.1766 447.699 90.5619 447.178 92.2357 446.715" stroke="#A67C52" stroke-dasharray="2.13 2.13 2.13 2.13"/>
<path d="M92.8711 446.599C94.545 446.194 96.5075 445.905 98.5854 445.905C102.914 445.847 105.512 446.426 106.839 446.888" stroke="#A67C52" stroke-dasharray="2.13 2.13 2.13 2.13 2.13 2.13"/>
<path d="M107.418 447.062C107.764 447.236 107.937 447.294 107.937 447.294" stroke="#A67C52"/>
<path d="M55.584 98.8779C55.584 98.8779 56.4498 111.838 56.2766 120.112C56.1035 128.385 55.6994 135.733 56.2766 138.452C56.8538 141.172 58.9895 141.924 58.9895 141.924C58.9895 141.924 59.2204 128.617 59.3935 125.55C59.5667 121.095 59.4513 104.317 58.7009 101.597C57.8928 98.8779 55.584 98.8779 55.584 98.8779Z" fill="white"/>
<path d="M101.185 98.8779C101.185 98.8779 100.319 111.838 100.492 120.112C100.665 128.385 101.069 135.733 100.492 138.452C99.9149 141.172 97.7792 141.924 97.7792 141.924C97.7792 141.924 97.5483 128.617 97.3751 125.55C97.202 121.095 97.3174 104.317 98.0678 101.597C98.8759 98.8779 101.185 98.8779 101.185 98.8779Z" fill="white"/>
<path opacity="0.1" d="M119.135 119.764C119.135 119.764 120.866 107.036 120.866 104.143C120.866 101.25 123.752 102.986 123.752 107.036C123.752 111.086 124.907 116.871 126.061 118.607C127.216 120.343 132.411 126.129 136.451 128.443C140.491 130.757 146.841 137.121 147.418 141.171C147.995 145.221 123.752 132.493 119.135 119.764Z" fill="black"/>
<path opacity="0.05" d="M87.1003 16.605C94.4308 16.605 94.0845 25.9779 94.0845 25.9779C97.7209 28.35 95.1234 39.5743 95.1234 39.5743L97.2014 37.26L97.9517 33.0364C98.2403 32.7472 100.261 30.78 101.704 33.0943C102.165 33.7886 102.165 35.4664 101.819 37.4914C101.819 37.4914 104.301 35.7557 104.301 31.0693C104.301 28.6972 104.186 22.3329 98.8176 14.1171C95.2389 8.62072 91.4293 7.17429 91.4293 7.17429C91.4293 7.17429 89.4668 0.115718 77.4609 0.0578613V20.25C77.4609 20.25 79.7698 16.605 87.1003 16.605Z" fill="black"/>
<path d="M154.402 161.306C154.806 158.644 154.46 152.222 150.881 149.561C147.303 146.899 139.279 141.171 135.354 137.411C131.429 133.65 125.657 126.591 124.387 123.756C123.118 120.921 121.097 112.821 119.943 111.722C118.269 110.102 118.846 110.681 117.057 109.929C115.268 109.234 110.708 107.209 108.514 106.515C107.418 106.168 105.975 106.92 104.589 107.846C103.781 108.366 102.858 108.829 102.511 109.581C102.165 110.334 102.569 112.069 102.569 112.069C102.569 112.069 101.819 113.516 101.876 114.499C101.934 115.425 102.165 115.83 102.165 115.83C102.165 115.83 100.722 117.624 101.126 119.475C101.53 121.326 102.569 122.252 102.569 122.252C102.569 122.252 101.472 123.872 101.819 125.145C102.05 126.013 103.031 127.575 104.589 128.096C105.167 128.269 105.744 128.038 105.744 127.401C105.744 127.286 105.744 127.228 105.744 127.228C105.744 127.228 106.898 127.633 107.187 127.864C108.283 128.559 110.477 132.261 111.747 133.592C113.305 135.212 114.286 135.617 117.923 136.659C121.501 137.758 129.005 162 136.105 168.017C140.376 171.604 144.936 172.588 146.725 172.935C148.515 173.282 152.844 170.736 153.421 167.554C153.71 166.05 153.883 164.893 154.402 161.306Z" fill="#FFDBB0"/>
<path opacity="0.1" d="M102.512 112.069C102.512 112.069 103.262 110.276 104.763 110.044C105.34 109.986 108.111 110.854 109.38 111.144C111.054 111.549 114.114 112.243 114.287 112.243C114.748 112.359 109.38 112.069 106.956 111.491C104.532 110.97 104.821 111.201 102.512 112.069Z" fill="black"/>
<path opacity="0.1" d="M102.166 115.83C102.166 115.83 103.147 114.383 104.533 114.615C106.033 114.846 111.055 116.408 111.921 116.524C112.787 116.64 110.42 116.698 109.208 116.524C107.476 116.235 104.533 115.136 102.166 115.83Z" fill="black"/>
<path opacity="0.1" d="M102.57 122.31C102.57 122.31 101.935 120.632 103.031 120.401C103.493 120.285 107.072 121.269 108.688 121.731C108.803 121.789 108.746 121.905 108.63 121.905L103.435 121.847L102.57 122.31Z" fill="black"/>
<path opacity="0.1" d="M103.32 126.244L105.629 127.286C105.629 127.286 105.052 127.691 104.821 127.633C104.302 127.517 103.32 126.244 103.32 126.244Z" fill="black"/>
<path d="M123.926 121.674L125.657 121.789C125.657 121.789 129.12 127.17 130.39 128.616C131.66 130.063 133.276 129.484 134.892 130.352C136.509 131.22 136.162 133.129 139.914 136.543C143.666 139.899 145.398 138.915 146.552 139.609C147.591 140.246 147.014 139.089 151.747 142.56C153.363 143.717 153.883 145.395 154.633 147.246C155.383 149.098 156.249 155.867 156.249 158.181C156.249 160.496 156.942 160.496 156.942 161.364C156.942 162.231 156.249 162.231 155.672 164.372C155.095 166.513 154.402 171.604 150.015 172.761C147.129 173.514 144.416 173.166 143.262 172.877C142.108 172.588 140.03 173.224 139.337 172.183C138.644 171.141 138.356 170.968 136.336 169.695C134.315 168.422 132.872 167.67 131.66 166.397C128.659 163.215 127.158 161.769 125.022 155.404C123.06 149.676 121.444 146.263 120.52 145.279C119.597 144.296 121.04 142.155 120.001 141.461C118.962 140.766 114.229 136.774 114.229 136.774V135.444C114.229 135.444 121.79 130.699 123.637 125.781C124.734 123.062 123.926 121.674 123.926 121.674Z" fill="#0093E8"/>
<path opacity="0.1" d="M114.286 223.907C114.286 223.907 110.246 208.17 100.895 201.574C100.895 201.574 98.875 199.781 98.7019 198.045L94.4883 199.376C94.6614 201.111 96.6817 202.905 96.6817 202.905C106.032 209.501 112.959 230.445 112.959 230.445L114.286 223.907Z" fill="black"/>
<path d="M113.189 134.865L113.478 134.981C113.363 134.981 113.305 134.923 113.189 134.865Z" fill="black"/>
<path opacity="0.1" d="M120.521 145.337C121.387 146.379 123.061 149.734 125.023 155.462C127.217 161.827 128.602 163.273 131.661 166.455C132.873 167.728 134.316 168.422 136.336 169.753C138.357 171.084 138.587 171.257 139.338 172.241C140.088 173.224 142.108 172.646 143.263 172.935C144.417 173.224 147.13 173.629 150.016 172.819C152.902 172.067 154.172 169.579 154.865 167.381C152.671 170.274 149.612 170.621 148.4 170.794C147.13 170.91 145.514 169.927 146.668 168.769C147.823 167.612 147.823 165.877 146.668 165.992C145.514 166.108 142.628 168.017 137.606 166.571C132.585 165.124 129.41 159.512 127.909 155.694C126.408 151.875 123.984 146.437 123.984 145.164C123.984 143.891 125.023 141.982 127.159 140.246C129.294 138.51 129.929 136.774 129.352 136.774C128.775 136.774 127.505 138.394 126.004 139.089C124.504 139.783 122.541 140.13 121.387 139.783C120.232 139.436 117.635 136.427 116.654 136.196C115.672 135.964 114.287 136.774 114.287 136.774C114.287 136.774 119.02 140.767 120.059 141.461C121.098 142.155 119.655 144.296 120.521 145.337Z" fill="black"/>
<path opacity="0.1" d="M69.2643 460.196C69.2066 459.27 69.1489 458.113 68.918 456.724C68.6871 455.046 69.0912 453.079 68.8603 451.517C68.8603 451.401 68.8603 451.286 68.918 451.17C68.2831 452.153 67.3595 454.063 66.8978 457.303C65.4548 467.023 67.7059 474.833 67.1287 481.313C68.0522 479.693 68.1676 475.759 67.5904 472.056C67.5904 472.056 67.5904 472.114 67.5904 472.172C67.5904 471.767 67.5904 471.362 67.5904 470.899C67.7059 470.089 67.9368 468.296 68.2831 467.081C68.7448 465.461 69.6684 463.956 69.6684 463.956C69.6684 463.956 69.7838 462.857 69.7838 462.105C69.7838 461.353 69.322 460.022 69.322 460.022C69.322 460.022 69.322 460.08 69.2643 460.196Z" fill="black"/>
<path d="M48.6582 461.237C48.6582 461.237 51.0247 460.311 54.7189 460.543C58.7016 460.716 59.9714 461.758 59.9714 461.758" stroke="white" stroke-width="3" stroke-linecap="round"/>
<path d="M49.6973 458.171C49.6973 458.171 51.3712 457.476 55.0653 457.65C59.048 457.824 61.0105 458.865 61.0105 458.865" stroke="white" stroke-width="3" stroke-linecap="round"/>
<path d="M49.6973 455.278C49.6973 455.278 51.2557 454.468 54.9498 454.641C58.9326 454.815 61.1837 455.856 61.1837 455.856" stroke="white" stroke-width="3" stroke-linecap="round"/>
<path d="M49.9863 452.269C49.9863 452.269 51.4293 451.401 55.1235 451.575C59.1062 451.749 61.7613 452.848 61.7613 452.848" stroke="white" stroke-width="3" stroke-linecap="round"/>
<path d="M107.245 461.237C107.245 461.237 104.878 460.311 101.184 460.543C97.2015 460.716 95.9316 461.758 95.9316 461.758" stroke="white" stroke-width="3" stroke-linecap="round"/>
<path d="M106.206 458.171C106.206 458.171 104.532 457.476 100.838 457.65C96.8551 457.824 94.8926 458.865 94.8926 458.865" stroke="white" stroke-width="3" stroke-linecap="round"/>
<path d="M106.205 455.278C106.205 455.278 104.647 454.468 100.953 454.641C96.9698 454.815 94.7188 455.856 94.7188 455.856" stroke="white" stroke-width="3" stroke-linecap="round"/>
<path d="M105.918 452.269C105.918 452.269 104.475 451.401 100.78 451.575C96.7977 451.749 94.1426 452.848 94.1426 452.848" stroke="white" stroke-width="3" stroke-linecap="round"/>
<path opacity="0.1" d="M86.1769 381.973C86.7541 379.08 89.9287 353.912 89.9287 352.466C89.9287 351.019 85.5997 345.233 84.4453 340.894C83.3486 336.786 81.7324 290.038 76.8262 272.449C77.6343 279.508 78.2115 290.906 78.9618 299.526C80.0008 311.619 81.2707 337.712 81.8479 344.655C82.2519 349.283 83.5795 356.805 83.5795 362.591C83.5795 368.376 81.2707 432.598 81.2707 436.069C81.2707 439.541 86.4655 451.575 86.4655 451.575C86.4655 451.575 87.389 451.228 88.8898 450.765C87.5045 447.988 84.6762 442.202 84.4453 439.83C84.1567 436.648 90.7946 433.755 91.0832 431.151C91.3718 428.548 86.7541 416.108 86.1769 412.637C85.5997 409.166 85.5997 384.866 86.1769 381.973Z" fill="black"/>
<path opacity="0.1" d="M71.4571 314.511C69.8409 333.199 68.1093 341.994 67.4744 344.655C66.0314 350.441 64.877 351.019 64.2998 353.623C63.7226 356.226 68.3402 384.287 69.206 389.205C70.0718 394.123 69.4946 416.976 69.4946 422.184C69.4946 427.391 70.3604 431.73 68.6288 434.623C66.8972 437.516 65.7428 438.962 67.1858 440.119C68.6288 441.276 72.092 441.566 71.8034 443.301C71.5726 444.574 69.2637 448.682 67.9939 450.881C68.2825 450.939 68.5711 451.054 68.9174 451.112C68.9174 451.112 74.4009 441.855 74.4009 439.541C74.4009 437.227 68.6288 365.484 68.6288 361.434C68.6288 357.384 69.7832 348.126 70.3604 340.605C70.7067 335.919 71.0531 324.694 71.4571 314.511Z" fill="black"/>
<path opacity="0.2" d="M31.2853 228.131C30.7081 223.907 33.7096 217.543 33.7096 217.543L30.5926 214.65C27.3603 224.37 29.9577 231.255 29.9577 231.255L30.3618 232.817L29.7268 242.769C29.6691 243.579 29.5537 245.488 34.2868 246.124C29.8423 243.868 31.2853 239.644 31.6893 238.082C32.4397 234.322 31.8625 232.412 31.2853 228.131Z" fill="white"/>
<path opacity="0.2" d="M52.2379 73.3628C51.6607 73.3628 50.7371 73.4206 49.4673 73.8835C46.8699 74.7514 45.7732 79.3799 44.0993 79.7849C41.7905 80.3635 39.4816 81.6364 39.0776 83.2564C34.1136 85.0499 29.496 87.1907 27.3026 89.2735C21.1265 95.0592 16.9129 108.945 14.2 121.269C11.4871 133.592 3.81031 155.578 3.81031 155.578C3.81031 155.578 1.50149 158.297 0.751119 159.801C0.000750959 161.364 1.50149 163.273 1.50149 163.273C1.50149 163.273 0.751119 165.587 1.90553 167.149C3.05994 168.711 2.30957 171.026 3.46399 172.53C4.6184 174.092 5.77281 178.721 7.33127 182.192C8.88972 185.664 9.64009 190.292 11.5449 193.764C13.4496 197.235 19.6258 204.583 20.7802 206.492C21.9346 208.401 23.8394 209.559 23.8394 209.559L26.2059 211.236V211.179C26.2059 211.179 12.9302 195.268 12.0644 191.507C11.1985 187.746 8.60112 177.621 8.60112 176.175C8.60112 174.729 4.27207 170.968 4.27207 169.811C4.27207 168.654 4.56068 167.207 3.98347 165.761C3.40627 164.314 2.82906 162.289 3.40627 161.132C3.98347 159.975 4.84928 157.371 5.13788 155.636C5.42649 153.9 13.796 131.046 14.6618 126.418C15.5276 121.789 19.8566 96.3321 26.4945 91.9928C33.1324 87.6535 39.4816 85.0499 41.2133 84.4714C42.9449 83.8928 44.3879 83.6035 45.2537 83.3142C46.1195 83.0249 47.5625 77.8178 49.8713 76.9499C50.5063 76.7185 51.1989 76.4292 51.8338 76.0821C51.8916 75.8506 51.9493 75.6192 52.007 75.4456C51.9493 74.7514 52.007 74.0571 52.2379 73.3628Z" fill="white"/>
<path opacity="0.07" d="M62.0499 257.638C56.5087 257.233 56.5664 258.159 56.5664 258.159C56.5664 258.159 60.4914 259.779 66.4367 259.836C72.3819 259.894 70.4771 260.357 68.63 261.688C66.783 263.019 65.0514 264.291 65.8594 265.506C66.5521 266.606 73.4786 258.853 76.9418 259.142C80.405 259.431 88.0819 261.341 91.5451 260.126C95.0084 258.969 92.5264 258.911 90.5639 258.853C88.6591 258.795 80.6359 258.679 82.3675 257.754C83.6374 257.059 87.0429 256.423 88.1396 255.092C89.294 253.761 83.5797 255.671 82.2521 256.076C80.9245 256.481 67.5911 258.101 62.0499 257.638Z" fill="black"/>
<path opacity="0.1" d="M32.5551 106.457C34.7485 105.705 36.0184 123.236 37.1728 130.757C38.3272 138.278 41.2132 159.859 43.5221 167.381C45.8309 174.902 41.2132 188.441 41.7904 190.176C42.3676 191.912 49.8713 196.078 49.8713 197.235C49.8713 198.392 49.0632 199.202 49.0632 199.202L47.5625 198.971C47.5625 198.971 48.1397 198.392 46.9853 197.235C45.8309 196.078 43.5221 194.921 41.2132 193.185C38.9044 191.449 34.864 192.028 32.5551 193.185C30.2463 194.342 26.2059 200.128 25.6287 198.971C25.0515 197.813 25.9173 193.474 27.6489 191.738C29.3805 190.003 30.5349 185.374 29.9577 182.481C29.3805 179.588 28.8033 170.91 25.3401 169.753C21.8768 168.596 21.8768 167.438 21.2996 166.281C20.7224 165.124 20.1452 164.546 16.1048 165.124C12.0643 165.703 10.3327 163.388 12.6415 162.231C14.9504 161.074 20.1452 159.917 23.6085 157.024C27.0717 154.131 32.2665 137.931 30.5349 133.303C28.8033 128.674 26.4945 125.781 27.6489 122.888C28.8033 119.996 31.6893 129.253 32.2665 126.36C32.8438 123.467 29.9577 107.325 32.5551 106.457Z" fill="black"/>
<path opacity="0.05" d="M156.192 158.181C156.192 155.867 155.384 149.04 154.575 147.246C153.825 145.395 153.306 143.717 151.689 142.56C150.073 141.403 149.092 140.708 148.399 140.361C147.014 138.047 145.629 135.386 144.532 132.493C141.473 123.988 133.796 95.5221 126.812 88.5213C125.369 87.0749 122.483 85.5706 119.135 84.182C119.077 84.0085 119.02 83.8349 118.904 83.7771C118.385 83.1985 117.23 82.562 115.845 81.9835C114.864 80.9999 113.248 80.2478 111.574 79.7849C109.842 79.322 108.11 75.0406 105.513 74.1149C102.916 73.1892 102.742 73.7099 102.742 73.7099C103.839 74.8092 104.301 76.7185 104.243 79.0906C100.607 78.0492 97.8361 77.2971 97.8361 77.2971C97.8361 77.2971 89.5821 81.3471 78.038 81.4628V250.811H75.3828V262.151C75.6137 262.208 75.7869 262.324 75.7869 262.613C76.5949 269.441 78.038 290.153 78.846 299.411C79.885 311.503 81.1549 337.596 81.7321 344.539C82.1361 349.168 83.4637 356.689 83.4637 362.475C83.4637 368.261 81.1549 432.482 81.1549 435.953C81.1549 439.251 85.888 450.302 86.292 451.343V451.401C86.0611 453.021 86.3497 454.815 86.1188 456.493C86.0611 456.84 86.0034 457.187 86.0034 457.476C86.0034 457.534 86.0034 457.592 86.0034 457.65C85.9457 457.881 85.9457 458.171 85.9457 458.402C85.9457 458.46 85.9457 458.46 85.9457 458.46C85.9457 458.691 85.888 458.981 85.888 459.212C85.888 459.443 85.888 459.733 85.8302 459.964C85.7725 459.848 85.7725 459.791 85.7725 459.791C85.7725 459.791 85.3108 461.063 85.3108 461.873C85.3108 462.626 85.4262 463.725 85.4262 463.725C85.4262 463.725 86.4652 465.345 86.9269 467.023C87.2733 468.238 87.5619 470.031 87.6196 470.841C87.6196 471.015 87.6196 471.188 87.6196 471.362C87.6196 471.246 87.6196 471.189 87.6196 471.189C87.1001 474.66 87.1001 477.032 87.3887 478.71C87.5041 479.578 87.6773 480.388 87.9659 480.908C88.2545 481.661 88.5431 482.181 88.774 482.644C89.813 484.669 93.2185 485.537 96.4508 485.711C98.9328 485.884 102.742 486 107.302 485.479C112.382 484.901 113.536 482.355 113.536 482.355C113.767 479.809 113.94 479.751 113.882 476.164C113.882 476.164 113.825 476.453 113.652 476.801C113.825 472.635 112.497 468.758 109.727 463.898C108.341 461.526 108.63 454.352 107.36 449.608L110.881 438.673C110.881 438.673 111.458 412.868 112.786 397.768C114.517 378.096 113.363 344.539 113.94 338.753C114.517 333.083 120.578 285.351 120.867 247.571C121.502 246.992 121.906 246.066 121.79 245.141L120.867 235.016L122.021 232.296C122.021 232.296 123.522 228.42 123.175 224.486C122.367 214.939 120.174 205.682 119.308 192.375C119.25 191.681 119.193 190.061 119.135 187.862C122.598 185.895 128.082 182.655 130.275 180.572C133.219 177.795 135.239 174.555 136.278 169.695C138.125 170.852 138.356 171.083 139.049 172.067C139.741 173.108 141.819 172.472 142.974 172.761C144.128 173.051 146.841 173.456 149.727 172.646C154.114 171.488 154.806 166.397 155.384 164.256C155.961 162.116 156.653 162.058 156.653 161.248C156.653 160.438 156.192 160.496 156.192 158.181Z" fill="black"/>
<path d="M61.8187 89.0422L61.3569 89.1001C57.6051 89.7365 54.0264 87.2486 53.3337 83.4879L52.0639 76.3136C51.429 72.5529 53.911 68.9658 57.6628 68.2715L58.1246 68.2136L61.8187 89.0422Z" fill="#153C52"/>
<path opacity="0.05" d="M52.6992 79.9008L53.2764 83.0251C53.9691 87.0172 57.7786 89.7365 61.8191 89.0422L59.972 78.6279L52.6992 79.9008Z" fill="black"/>
<path d="M65.8006 90.1415L62.9145 90.6622C61.7024 90.8936 60.548 90.0836 60.3748 88.8686L56.8539 68.9079C56.623 67.6929 57.4311 66.5358 58.6432 66.3622L61.5292 65.8415C62.7414 65.6101 63.8958 66.4201 64.0689 67.6351L67.5899 87.5958C67.7631 88.8108 66.955 89.9679 65.8006 90.1415Z" fill="#0F2B38"/>
<path d="M61.3569 65.8416L60.0293 66.073L64.3006 90.4309L65.6282 90.1994C66.898 89.968 67.7639 88.753 67.533 87.4802L64.0697 67.7509C63.8389 66.478 62.6267 65.6102 61.3569 65.8416Z" fill="#153C52"/>
<path d="M94.2578 88.9841L94.7196 89.042C98.4714 89.6784 102.05 87.1905 102.743 83.4298L104.013 76.2555C104.648 72.4948 102.166 68.9077 98.4137 68.2134L97.9519 68.1555L94.2578 88.9841Z" fill="#153C52"/>
<path opacity="0.05" d="M96.0463 78.5698L94.1992 88.9841C98.1819 89.6784 102.049 87.017 102.742 82.967L103.319 79.8427L96.0463 78.5698Z" fill="black"/>
<path d="M90.274 90.0836L93.1601 90.6043C94.3722 90.8358 95.5266 90.0258 95.6998 88.8108L99.2207 68.8501C99.4516 67.6351 98.6435 66.4779 97.4314 66.3043L94.5454 65.7836C93.3332 65.5522 92.1788 66.3622 92.0057 67.5772L88.4847 87.5379C88.2538 88.6951 89.0619 89.8522 90.274 90.0836Z" fill="#0F2B38"/>
<path d="M94.7193 65.7257L96.0468 65.9572L91.7755 90.315L90.4479 90.0836C89.1781 89.8522 88.3123 88.6372 88.5432 87.3643L92.0064 67.635C92.1796 66.3622 93.3917 65.5522 94.7193 65.7257Z" fill="#153C52"/>
</svg>
