<svg width="285" height="563" viewBox="0 0 285 563" fill="none" xmlns="http://www.w3.org/2000/svg">
<path d="M246.156 112.818C238.624 107.976 225.845 105.017 216.16 102.865C214.681 102.327 212.932 101.385 211.318 99.9054C209.435 97.3497 207.821 92.3727 207.417 86.4542C211.049 83.2259 214.008 79.5941 215.219 76.9039C216.967 73.0031 216.295 68.9677 217.102 63.7218C221.003 65.7394 226.114 47.1768 224.096 43.9486C222.213 40.9893 219.658 43.545 219.254 43.9486V35.4743C219.254 14.2215 207.417 8.70654 192.755 8.70654C178.093 8.70654 166.256 14.2215 166.256 35.4743V43.9486C166.256 43.9486 163.432 40.8548 161.414 43.9486C159.396 47.0423 164.508 65.7394 168.543 63.5872C169.35 68.8332 168.543 72.8685 170.292 76.7694C171.502 79.4596 174.462 83.0914 177.959 86.3197C178.093 86.4542 178.093 86.4542 177.959 86.3197C177.555 92.3727 175.941 97.4842 173.924 100.04C172.175 101.52 170.426 102.461 168.947 102.999C167.736 103.268 145.676 108.783 139.22 112.818C130.342 118.468 130.476 124.252 128.324 131.381H257.455C254.9 124.252 254.9 118.333 246.156 112.818Z" fill="#FFDBB0"/>
<path opacity="0.05" d="M246.156 112.818C238.624 107.976 225.845 105.016 216.16 102.864C214.681 102.326 212.932 101.385 211.318 99.9049C209.435 97.3492 207.821 92.3722 207.417 86.4537C211.049 83.2254 214.008 79.5936 215.219 76.9034C216.967 73.0026 216.295 68.9672 217.102 63.7213C221.003 65.7389 226.114 47.1763 224.096 43.9481C222.213 40.9888 219.658 43.5445 219.254 43.9481V35.4738C219.254 14.221 207.417 8.70605 192.755 8.70605V93.0448C190.872 93.0448 188.72 93.0448 186.702 92.2377C183.608 91.0271 180.515 88.8749 177.959 86.4537L223.02 131.515H257.455C254.9 124.251 254.9 118.333 246.156 112.818Z" fill="black"/>
<path d="M170.289 46.5043C170.289 46.5043 173.114 44.2176 177.553 44.2176C181.992 44.2176 187.776 45.8317 187.776 45.8317C187.776 45.8317 179.705 40.8548 175.939 41.1238C172.172 41.3928 170.289 46.5043 170.289 46.5043Z" fill="#1E2228"/>
<path d="M173.92 49.7325C173.92 49.7325 176.61 47.1768 179.435 47.1768C183.605 47.3113 185.757 50.405 185.757 50.405C185.757 50.405 179.031 56.4581 173.92 49.7325Z" fill="white"/>
<path d="M179.843 52.4215C181.328 52.4215 182.533 51.217 182.533 49.7312C182.533 48.2455 181.328 47.041 179.843 47.041C178.357 47.041 177.152 48.2455 177.152 49.7312C177.152 51.217 178.357 52.4215 179.843 52.4215Z" fill="#00A99D"/>
<path d="M179.841 51.0765C180.584 51.0765 181.186 50.4742 181.186 49.7313C181.186 48.9885 180.584 48.3862 179.841 48.3862C179.098 48.3862 178.496 48.9885 178.496 49.7313C178.496 50.4742 179.098 51.0765 179.841 51.0765Z" fill="#534741"/>
<path d="M178.226 51.0765C178.969 51.0765 179.571 50.4742 179.571 49.7313C179.571 48.9885 178.969 48.3862 178.226 48.3862C177.483 48.3862 176.881 48.9885 176.881 49.7313C176.881 50.4742 177.483 51.0765 178.226 51.0765Z" fill="white"/>
<path d="M173.654 49.3283C174.596 48.5212 175.537 47.8487 176.613 47.4451C177.689 46.9071 178.9 46.638 180.111 46.7726C181.321 46.9071 182.397 47.1761 183.473 47.8487C184.549 48.3867 185.357 49.1938 186.164 50.1353V50.2699C186.164 50.5389 186.164 50.8079 186.164 51.0769C186.164 51.2114 186.029 51.346 185.895 51.2114C185.895 51.2114 185.895 51.2114 185.76 51.2114C185.626 51.2114 185.357 51.0769 185.222 51.0769C185.088 51.0769 184.819 51.0769 184.684 51.2114C184.28 51.346 183.877 51.4805 183.608 51.7495C183.877 51.4805 184.28 51.2114 184.684 50.9424C185.088 50.8079 185.491 50.6734 186.029 50.8079L185.76 50.9424C185.76 50.6734 185.76 50.4044 185.76 50.1353V50.2699C184.415 48.5212 182.263 47.4451 180.111 47.3106C179.035 47.1761 177.958 47.4451 177.017 47.9832C176.075 48.3867 175.134 49.0593 174.327 49.8663C174.192 50.0008 173.923 50.0008 173.789 49.8663C173.385 49.7318 173.52 49.5973 173.654 49.3283Z" fill="#826F67"/>
<path d="M214.813 46.5038C214.813 46.5038 211.988 44.2171 207.549 44.2171C203.11 44.2171 197.326 45.8312 197.326 45.8312C197.326 45.8312 205.397 40.8543 209.163 41.1233C212.93 41.3923 214.813 46.5038 214.813 46.5038Z" fill="#1E2228"/>
<path d="M211.181 49.7325C211.181 49.7325 208.491 47.1768 205.666 47.1768C201.496 47.3113 199.344 50.405 199.344 50.405C199.344 50.405 206.069 56.4581 211.181 49.7325Z" fill="white"/>
<path d="M205.262 52.4215C206.748 52.4215 207.953 51.217 207.953 49.7312C207.953 48.2455 206.748 47.041 205.262 47.041C203.777 47.041 202.572 48.2455 202.572 49.7312C202.572 51.217 203.777 52.4215 205.262 52.4215Z" fill="#00A99D"/>
<path d="M205.263 51.0765C206.006 51.0765 206.608 50.4742 206.608 49.7313C206.608 48.9885 206.006 48.3862 205.263 48.3862C204.52 48.3862 203.918 48.9885 203.918 49.7313C203.918 50.4742 204.52 51.0765 205.263 51.0765Z" fill="#534741"/>
<path d="M203.513 51.0765C204.256 51.0765 204.858 50.4742 204.858 49.7313C204.858 48.9885 204.256 48.3862 203.513 48.3862C202.77 48.3862 202.168 48.9885 202.168 49.7313C202.168 50.4742 202.77 51.0765 203.513 51.0765Z" fill="white"/>
<path d="M210.913 50.0008C210.106 49.3283 209.165 48.6557 208.223 48.1177C207.282 47.5796 206.206 47.4451 205.129 47.4451C202.977 47.5796 200.825 48.6557 199.48 50.4044V50.2699C199.48 50.5389 199.48 50.8079 199.48 51.0769L199.211 50.9424C199.749 50.8079 200.153 50.9424 200.556 51.0769C200.96 51.2114 201.229 51.4805 201.632 51.884C201.229 51.615 200.96 51.4805 200.556 51.346C200.422 51.346 200.153 51.2114 200.018 51.2114C199.883 51.2114 199.614 51.2114 199.48 51.346C199.345 51.346 199.211 51.346 199.211 51.2114C199.211 51.2114 199.211 51.2114 199.211 51.0769C199.211 50.8079 199.211 50.5389 199.211 50.2699V50.1353C199.883 49.1938 200.825 48.3867 201.901 47.8487C202.977 47.3106 204.053 46.9071 205.264 46.7726C206.475 46.638 207.685 46.9071 208.761 47.4451C209.837 47.9832 210.779 48.5212 211.721 49.3283C211.855 49.4628 211.855 49.7318 211.721 49.8663C211.317 50.1353 211.182 50.1353 210.913 50.0008Z" fill="#826F67"/>
<path opacity="0.08" d="M196.387 65.336C194.772 66.9502 192.486 67.7573 192.486 67.7573C192.486 67.7573 190.199 67.0847 188.585 65.336C186.971 63.7219 185.895 66.2776 187.374 67.0847C188.719 67.8918 189.796 67.4882 190.334 68.1608C190.872 68.8333 190.872 69.3714 192.486 69.3714C194.1 69.3714 194.1 68.8333 194.638 68.1608C195.176 67.4882 196.252 67.8918 197.597 67.0847C199.077 66.2776 198.135 63.7219 196.387 65.336Z" fill="black"/>
<path opacity="0.1" d="M195.309 73.6755C194.367 73.541 192.484 74.2135 192.484 74.2135C192.484 74.2135 190.601 73.541 189.659 73.6755C188.718 73.81 183.068 75.5587 183.068 75.5587C183.068 75.5587 186.297 82.9568 192.484 82.9568C198.672 82.9568 201.9 75.5587 201.9 75.5587C201.9 75.5587 196.25 73.6755 195.309 73.6755Z" fill="black"/>
<path d="M165.582 19.6006C165.582 19.6006 170.962 29.0164 170.962 31.7066C170.962 34.3969 169.617 33.0517 168.272 37.0871C166.927 41.1224 168.272 51.8834 168.272 51.8834C168.272 51.8834 166.524 48.9241 165.986 47.7135C165.044 45.2923 164.909 43.0056 164.909 43.0056C164.909 43.0056 163.161 22.5598 165.582 19.6006Z" fill="#1E2228"/>
<path d="M219.388 19.6006C219.388 19.6006 214.008 29.0164 214.008 31.7066C214.008 34.3969 215.353 33.0517 216.698 37.0871C218.043 41.1224 216.698 51.8834 216.698 51.8834C216.698 51.8834 218.447 48.9241 218.985 47.7135C219.926 45.2923 220.061 43.0056 220.061 43.0056C220.061 43.0056 221.944 22.5598 219.388 19.6006Z" fill="#1E2228"/>
<path d="M170.023 28.479C170.023 28.479 163.835 25.1162 164.104 17.9871C164.239 14.7588 169.888 8.30225 172.309 4.67043C174.731 1.03862 180.246 -0.84454 189.796 0.366064C189.796 0.366064 186.299 1.30764 185.088 2.78727C184.684 3.32532 184.281 3.99788 184.281 3.99788C184.281 3.99788 191.41 -0.0374713 204.458 3.19081C217.505 6.41908 218.985 10.0509 218.985 10.0509C218.985 10.0509 214.95 9.37834 211.318 10.1854C211.318 10.1854 219.792 12.7411 224.365 19.6012L220.33 21.8879C220.33 21.8879 226.383 29.5551 224.365 38.4328C224.365 38.4328 221.81 31.7073 210.914 31.0347C207.82 30.9002 200.019 31.7073 192.621 29.4206C186.568 27.8064 170.695 21.4844 170.023 28.479Z" fill="#1E2228"/>
<path d="M141.37 526.71C141.37 526.71 141.37 533.435 140.025 536.125C138.68 538.816 133.165 545.541 134.645 550.922C135.855 554.957 138.007 557.378 148.499 557.378C155.225 557.378 165.313 557.378 167.6 550.787C169.079 546.483 165.313 533.435 168.272 528.055C171.232 522.674 145.943 517.563 141.37 526.71Z" fill="#1E2428"/>
<path d="M233.377 526.709C233.377 526.709 233.377 533.435 234.722 536.125C236.067 538.815 241.582 545.541 240.102 550.921C238.891 554.957 236.739 557.378 226.247 557.378C219.522 557.378 209.433 557.378 207.147 550.787C205.667 546.483 210.106 533.3 207.281 527.92C204.457 522.539 229.072 517.562 233.377 526.709Z" fill="#1E2428"/>
<path d="M47.8228 191.054C47.8228 191.054 42.8458 175.182 57.3731 162C57.2386 162 60.4669 180.966 47.8228 191.054Z" fill="#1E2F41"/>
<path d="M264.046 274.097C264.046 274.097 257.589 273.693 251.536 270.061C245.483 266.429 248.174 260.376 252.209 260.376C256.244 260.376 264.046 274.097 264.046 274.097Z" fill="#242B30"/>
<path d="M238.084 438.873C238.084 428.112 238.219 409.684 235.528 397.578C232.838 385.472 234.183 374.711 238.219 342.429C242.254 310.146 243.599 273.828 243.599 273.828L187.104 258.359L130.609 273.828C130.609 273.828 131.954 310.146 135.99 342.429C140.025 374.711 141.37 385.472 138.68 397.578C135.99 409.684 135.586 429.592 135.586 440.353C135.586 451.114 136.797 466.448 136.931 471.963C137.469 489.719 135.452 518.773 136.797 522.809C138.142 526.844 141.37 526.575 141.37 526.575C141.37 526.575 146.751 522.54 154.821 522.54C162.892 522.54 168.273 527.92 168.273 527.92C168.273 527.92 176.612 526.171 176.478 523.078C176.209 511.644 172.981 495.368 173.653 479.496C173.922 471.425 175.133 457.167 176.478 443.716C178.092 427.305 177.688 414.93 177.688 408.205C177.688 401.479 180.11 393.408 180.379 379.957C180.648 363.412 183.607 327.229 187.104 308.666C190.333 329.112 193.83 366.506 193.83 379.957C193.83 393.408 196.52 401.479 196.52 408.205C196.52 414.93 194.637 427.305 195.982 443.716C197.058 457.167 198.941 477.075 198.941 485.145C198.941 493.216 199.614 515.814 199.614 521.733C199.614 524.692 207.146 527.92 207.146 527.92C207.146 527.92 211.182 522.54 219.252 522.54C227.323 522.54 232.704 526.575 232.704 526.575C232.704 526.575 235.932 527.516 237.277 523.481C238.622 519.446 235.663 494.158 236.739 471.425C237.143 466.045 238.084 449.634 238.084 438.873Z" fill="#266884"/>
<path d="M258.394 131.245C256.242 112.414 242.118 108.916 232.568 106.361C223.017 103.805 216.292 101.787 216.292 101.787H215.888C210.239 108.378 201.899 112.548 192.618 112.548C183.336 112.548 174.862 108.378 169.347 101.787H168.809C168.809 101.787 162.084 103.805 152.533 106.361C142.983 108.916 128.859 112.414 126.707 131.245C126.707 131.245 145.539 167.967 145.539 197.828C145.539 227.69 139.217 257.686 139.217 257.686C139.217 257.686 152.668 270.734 192.618 270.734C230.281 270.734 246.019 257.686 246.019 257.686C246.019 257.686 239.697 227.69 239.697 197.828C239.697 167.967 258.394 131.245 258.394 131.245Z" fill="white"/>
<path d="M259.605 266.699C259.605 266.699 255.839 274.097 251.534 279.477C247.23 284.858 237.41 276.787 236.469 271.138C235.527 265.488 249.651 254.324 249.651 254.324L259.605 266.699Z" fill="#FFDBB0"/>
<path d="M192.484 119.543C204.993 119.543 216.158 113.355 222.883 103.805C218.713 102.594 216.158 101.922 216.158 101.922H215.754C215.351 102.325 215.082 102.729 214.678 103.132C214.678 103.132 214.678 103.132 214.543 103.267C214.274 103.671 213.871 103.94 213.467 104.343L213.333 104.478C212.929 104.747 212.66 105.15 212.257 105.419L212.122 105.554C211.719 105.823 211.45 106.226 211.046 106.495L210.912 106.63C210.508 106.899 210.105 107.168 209.701 107.571C208.356 108.513 207.011 109.32 205.531 109.993H205.397C204.993 110.262 204.59 110.396 204.052 110.531C203.917 110.531 203.783 110.665 203.648 110.665C203.245 110.8 202.976 110.934 202.572 111.069C202.437 111.069 202.303 111.203 202.034 111.203C201.765 111.338 201.361 111.472 200.958 111.472C200.823 111.472 200.554 111.607 200.42 111.607C200.151 111.741 199.747 111.741 199.478 111.876C199.344 111.876 199.075 112.01 198.94 112.01C198.671 112.145 198.268 112.145 197.999 112.145C197.73 112.145 197.595 112.279 197.326 112.279C197.057 112.279 196.653 112.414 196.25 112.414C195.981 112.414 195.846 112.414 195.577 112.548C195.174 112.548 194.77 112.683 194.501 112.683C194.367 112.683 194.098 112.683 193.963 112.683C193.425 112.683 192.887 112.683 192.349 112.683C191.811 112.683 191.273 112.683 190.735 112.683C190.6 112.683 190.331 112.683 190.197 112.683C189.793 112.683 189.39 112.683 189.121 112.548C188.852 112.548 188.717 112.548 188.448 112.414C188.045 112.414 187.776 112.279 187.372 112.279C187.103 112.279 186.969 112.145 186.7 112.145C186.431 112.145 186.027 112.01 185.758 112.01C185.624 112.01 185.354 111.876 185.22 111.876C184.951 111.741 184.547 111.741 184.278 111.607C184.144 111.607 183.875 111.472 183.74 111.472C183.337 111.338 183.068 111.203 182.664 111.203C182.53 111.203 182.395 111.069 182.126 111.069C181.723 110.934 181.454 110.8 181.05 110.665C180.916 110.665 180.781 110.531 180.647 110.531C180.243 110.396 179.705 110.127 179.301 109.993H179.167C177.687 109.32 176.342 108.513 174.997 107.571C174.594 107.302 174.19 107.033 173.786 106.63L173.652 106.495C173.248 106.226 172.845 105.957 172.576 105.554L172.441 105.419C172.038 105.15 171.769 104.747 171.365 104.478L171.231 104.343C170.827 103.94 170.558 103.671 170.155 103.267C170.155 103.267 170.155 103.267 170.02 103.132C169.617 102.729 169.348 102.325 168.944 101.922H168.81C168.81 101.922 166.254 102.729 162.084 103.805C168.81 113.355 179.974 119.543 192.484 119.543Z" fill="#C0C4CD"/>
<path d="M177.15 90.4888C177.15 90.4888 173.249 98.8285 157.242 103.805C141.37 108.782 129.937 112.818 127.919 116.853C125.901 120.888 123.884 126 134.913 160.3C145.943 194.601 139.621 216.795 134.644 229.17C131.551 236.837 123.211 270.734 123.211 270.734C123.211 270.734 124.422 286.876 133.299 295.753C142.177 304.631 153.745 304.9 159.529 303.152C165.313 301.403 178.092 290.373 187.104 258.494C196.116 226.614 191.005 232.398 185.624 218.275C179.168 201.595 175.805 182.495 173.922 162.049C172.039 141.603 171.232 107.437 177.15 90.4888Z" fill="#42586D"/>
<path d="M207.956 90.4888C207.956 90.4888 211.856 98.8285 227.863 103.805C243.736 108.782 255.169 112.818 257.187 116.853C259.205 120.888 261.222 126 250.192 160.3C239.162 194.601 241.718 225.538 245.35 232.936C247.502 237.375 250.865 253.113 253.017 265.085C254.766 274.366 251.806 283.916 245.215 290.642C245.081 290.776 245.081 290.776 244.946 290.911C236.069 299.789 228.67 300.058 223.021 298.847C216.564 297.502 193.697 281.63 185.627 252.441C179.574 230.65 188.586 233.878 195.715 219.485C200.961 208.59 209.301 182.629 211.184 162.049C213.067 141.469 213.874 107.437 207.956 90.4888Z" fill="#42586D"/>
<path d="M64.9698 184.781C64.9698 184.781 64.9698 184.781 60.531 183.302C56.0921 181.822 55.1505 179.939 50.7116 178.19C46.2727 176.442 36.1844 177.383 32.5526 177.518C28.9207 177.652 28.5172 175.5 24.7509 174.827C20.9846 174.02 14.797 173.348 13.0484 172.81C11.1652 172.272 5.78476 165.95 5.78476 165.95C2.69099 164.335 0.807831 162.99 0.67332 161.511C0.67332 160.031 0.404297 159.09 0.404297 158.417C0.538808 157.744 1.07685 155.727 3.76709 156.265C6.3228 156.668 9.41657 160.569 10.2236 161.242C10.8962 161.914 15.7386 163.125 17.0837 163.528C18.4288 163.932 26.9031 162.99 30.1313 162.587C33.3596 162.183 34.1667 161.242 34.9738 160.166C34.9738 160.166 31.88 159.762 28.7862 158.686C25.6925 157.61 21.5226 155.592 22.7332 151.557C23.9438 147.522 31.611 151.691 35.2428 152.633C38.8746 153.575 42.1029 154.247 44.5241 154.516C46.9453 154.785 52.9983 157.61 55.016 159.359C57.0337 161.107 56.7646 161.914 59.5894 163.528C62.2796 165.008 68.3326 168.371 68.3326 168.371C68.3326 168.371 69.1397 173.751 68.4671 177.249C67.6601 180.611 64.9698 184.781 64.9698 184.781Z" fill="#FFDBB0"/>
<path d="M23.4052 174.693C23.4052 174.693 13.9894 169.716 11.7027 168.909C9.41602 168.237 9.41602 168.237 9.41602 168.237C9.41602 168.237 18.4283 172.676 19.9079 174.155L23.4052 174.693Z" fill="#DBBC9A"/>
<path d="M7.66724 166.084C7.66724 166.084 7.53273 164.335 9.68491 163.931C11.8371 163.528 12.9132 163.931 12.9132 163.931C12.9132 163.931 10.8955 162.721 9.14687 163.393C7.39822 164.066 7.66724 166.084 7.66724 166.084Z" fill="#DBBC9A"/>
<path d="M9.95385 161.241C8.74325 159.896 5.784 156.264 3.36279 156.13C0.672558 155.995 0.134512 157.744 0 158.282C0 158.686 0.269023 159.627 0.403535 160.434C0.403535 160.434 0 158.282 3.4973 157.879C5.91851 157.879 9.95385 161.241 9.95385 161.241Z" fill="#DBBC9A"/>
<path d="M17.2173 165.546C19.504 166.084 23.6738 167.699 24.4809 168.237C25.1534 168.775 29.3233 168.775 31.0719 168.371C32.8206 167.968 40.3532 165.681 44.2541 165.143C49.7691 164.336 68.7352 174.962 68.7352 174.962L68.3316 168.371C67.6591 167.699 58.1088 164.067 55.015 159.493C53.5354 157.207 46.9443 154.92 44.5231 154.651C42.1019 154.382 38.8736 153.709 35.2418 152.768C31.61 151.826 23.9428 147.656 22.7322 151.692C21.5216 155.727 25.6915 157.61 28.7852 158.821C32.0135 159.897 34.9728 160.3 34.9728 160.3C34.1657 161.376 33.3586 162.318 30.1304 162.722C26.9021 163.125 18.4279 164.067 17.0827 163.663C15.7376 163.26 11.0297 162.049 10.2227 161.376L13.0474 164.067C12.9129 163.932 14.9306 165.143 17.2173 165.546Z" fill="#F2D0AA"/>
<path d="M252.743 112.952C264.984 117.391 268.75 144.562 270.095 148.732C271.44 153.036 274.13 163.124 276.148 171.599C278.166 180.073 280.183 198.501 281.798 200.25C283.412 201.998 286.102 204.689 283.546 210.069C281.125 215.449 280.587 214.508 279.914 219.754C279.242 224.865 269.422 256.475 267.539 261.452C265.791 266.429 263.907 273.962 263.907 273.962C263.907 273.962 248.708 260.107 237.678 258.897C237.678 258.897 242.655 245.176 245.345 232.263C248.035 219.35 251.398 212.49 251.398 212.49C251.398 212.49 250.456 208.186 251.801 206.706C253.147 205.092 254.223 203.747 254.223 203.747C254.223 203.747 249.784 200.384 249.649 197.021C249.246 190.565 242.386 186.126 242.386 186.126C242.386 186.126 242.655 162.048 247.497 146.58C252.609 131.245 252.743 112.952 252.743 112.952Z" fill="#42586D"/>
<path d="M131.147 113.759C123.211 118.602 123.614 131.111 122.942 138.106C122.404 143.755 121.328 151.826 118.637 154.92C115.947 158.014 116.216 160.031 115.678 162.318C115.14 164.605 110.567 165.681 108.953 166.353C107.339 167.026 110.567 173.079 108.953 174.424C108.953 174.424 104.245 173.617 90.5246 169.716C78.6876 166.353 64.5638 162.99 57.7038 161.645C57.7038 161.645 58.1073 166.219 55.0135 174.558C52.1888 182.36 48.557 188.01 48.1534 190.7C48.0189 191.91 60.394 193.794 77.4769 200.116C99.4023 208.186 112.046 208.859 116.485 208.186C120.79 207.514 129.936 200.385 134.375 193.794C138.814 187.337 140.563 187.741 140.563 187.741C140.563 187.741 141.235 167.564 138.814 154.785C136.393 142.007 131.147 113.759 131.147 113.759Z" fill="#42586D"/>
<path d="M34.7031 160.165C34.7031 160.165 37.5279 159.089 37.5279 157.879C37.5279 156.668 34.7031 160.165 34.7031 160.165Z" fill="#DBBC9A"/>
<path d="M167.869 545.003C167.869 545.003 169.348 547.559 169.214 552.805C169.079 558.051 160.874 562.758 148.23 561.951C135.586 561.144 133.837 554.957 133.703 552.805C133.434 550.652 134.375 547.559 134.375 547.559C134.375 547.559 133.299 556.571 148.902 556.571C164.506 556.571 167.734 553.612 167.869 545.003Z" fill="white"/>
<path d="M206.742 545.003C206.742 545.003 205.263 547.559 205.397 552.805C205.532 558.051 213.737 562.758 226.381 561.951C239.025 561.144 240.774 554.957 240.908 552.805C241.177 550.652 240.236 547.559 240.236 547.559C240.236 547.559 241.312 556.571 225.709 556.571C210.105 556.571 207.011 553.612 206.742 545.003Z" fill="white"/>
<path opacity="0.5" d="M200.02 76.2304C200.02 76.2304 195.985 75.6923 194.505 76.0959C193.16 76.4994 193.294 76.6339 192.353 76.6339C191.411 76.6339 191.68 76.4994 190.201 76.0959C188.721 75.6923 184.686 76.2304 184.686 76.2304C184.686 76.2304 184.955 76.3649 186.165 77.3065C187.376 78.2481 188.855 79.9967 192.353 80.1312C195.85 80.1312 197.33 78.2481 198.54 77.3065C199.885 76.3649 200.02 76.2304 200.02 76.2304Z" fill="black"/>
<path d="M192.485 77.9799C195.175 77.9799 197.462 77.1728 198.672 76.0967C197.327 75.9622 195.578 75.8277 194.637 76.0967C193.292 76.5003 193.426 76.6348 192.485 76.6348C191.543 76.6348 191.812 76.5003 190.332 76.0967C189.525 75.8277 187.642 75.9622 186.432 76.0967C187.642 77.1728 189.929 77.9799 192.485 77.9799Z" fill="white"/>
<path opacity="0.1" d="M192.484 74.2126C192.484 74.2126 190.601 73.54 189.659 73.6745C188.718 73.809 183.068 75.5577 183.068 75.5577L184.817 76.3648C184.817 76.3648 188.852 75.8267 190.332 76.2302C191.677 76.6338 191.543 76.7683 192.484 76.7683C193.426 76.7683 193.157 76.6338 194.636 76.2302C196.116 75.8267 200.151 76.3648 200.151 76.3648L202.034 75.5577C202.034 75.5577 196.385 73.809 195.443 73.6745C194.367 73.54 192.484 74.2126 192.484 74.2126Z" fill="black"/>
<path d="M117.025 187.74C117.025 187.74 118.639 184.108 117.294 181.687C115.949 179.266 111.644 175.231 111.241 173.213C110.837 171.195 110.165 168.236 111.51 167.564C112.855 166.891 115.276 167.295 116.218 168.236C117.159 169.178 117.294 173.617 119.849 175.903C122.271 178.19 125.633 178.997 125.633 178.997C125.633 178.997 125.23 172.54 123.347 170.254C121.598 167.967 117.966 165.949 117.966 164.47C117.966 162.856 120.253 158.686 121.06 156.803C121.867 154.919 122.405 160.569 123.75 162.452C123.75 162.452 126.44 156.399 123.481 153.305C122.674 152.364 121.464 151.96 120.253 151.826C119.715 153.036 119.177 154.112 118.504 154.919C115.814 157.879 116.083 160.031 115.545 162.318C115.007 164.604 110.434 165.68 108.819 166.353C107.205 167.025 110.434 173.078 108.819 174.424C111.913 176.172 111.51 181.149 112.182 183.436C112.72 185.588 117.025 187.74 117.025 187.74Z" fill="#30475B"/>
<path d="M139.219 139.586C136.528 131.515 136.932 127.883 136.932 127.883C136.932 127.883 133.973 135.55 135.99 141.065C138.008 146.715 140.429 154.517 140.295 156.131C140.295 156.131 137.201 152.768 135.856 151.019C134.511 149.271 134.107 144.025 134.107 144.025C134.107 144.025 131.686 152.095 132.762 154.786C133.838 157.476 138.546 160.839 139.488 163.529C140.429 166.219 141.102 178.729 140.16 182.091C139.219 185.454 131.148 193.928 127.785 197.291C124.422 200.654 122.405 196.619 118.369 197.695C114.334 198.771 108.012 205.496 101.959 205.362C96.5784 205.227 88.9113 203.748 87.4316 203.344C103.169 208.187 112.585 208.59 116.352 208.052C120.656 207.38 129.803 200.251 134.242 193.659C138.681 187.203 140.429 187.606 140.429 187.606C140.429 187.606 140.429 186.665 140.429 185.051C140.698 187.472 140.833 189.759 140.967 192.045L141.236 191.642C141.236 191.642 141.236 191.373 141.371 190.969C141.909 188.144 144.061 177.115 143.657 169.582C143.254 161.377 141.909 147.656 139.219 139.586Z" fill="#30475B"/>
<path d="M140.835 207.917C140.835 207.917 141.507 230.784 143.256 236.433C145.005 242.083 142.18 245.58 142.18 245.58C142.18 245.58 141.104 245.311 140.162 239.527C139.221 233.743 140.835 207.917 140.835 207.917Z" fill="#2A3238"/>
<path d="M245.215 233.34C245.215 233.34 237.413 237.779 233.109 243.428C228.804 249.078 221.675 246.522 220.33 246.387C220.33 246.387 221.675 241.68 225.711 239.393C229.746 237.106 245.215 233.34 245.215 233.34Z" fill="#2A3238"/>
<path d="M245.48 233.743C245.48 233.743 242.387 243.159 242.387 248.136C242.387 253.113 244.808 255.803 244.808 255.803C244.808 255.803 245.75 249.481 245.077 247.463C244.404 245.446 245.48 233.743 245.48 233.743Z" fill="#30475B"/>
<path d="M245.482 233.744C245.482 233.744 248.845 249.213 249.787 252.172C250.728 255.132 253.015 264.951 253.015 264.951C253.015 264.951 250.863 244.102 249.787 240.47C248.711 236.838 247.366 225.001 247.366 225.001L245.482 233.744Z" fill="#30475B"/>
<path d="M264.584 201.73C267.544 201.461 269.561 197.964 269.561 197.964C269.561 197.964 267.544 196.888 263.508 195.946C259.473 195.004 259.742 197.291 257.724 198.905C255.707 200.519 254.362 199.309 253.016 197.157C251.671 194.87 249.25 191.104 247.905 188.01C246.56 184.916 247.905 166.892 250.192 166.219C252.478 165.546 255.841 161.108 255.841 161.108C255.841 161.108 253.151 159.09 251.537 160.435C249.923 161.78 246.56 164.47 247.77 161.108C248.981 157.745 251.133 149.943 252.209 146.984C253.285 144.025 252.478 136.626 252.478 136.626C252.478 136.626 252.478 136.626 249.116 139.72C245.753 142.814 246.022 148.867 245.08 162.856C244.273 175.769 244.139 186.127 244.139 187.606C246.156 189.22 249.654 192.852 249.923 197.426C250.192 200.788 254.496 204.151 254.496 204.151C254.496 204.151 253.42 205.496 252.075 207.111C250.999 208.456 251.402 211.549 251.537 212.625C252.209 211.28 253.42 209.397 254.362 208.321C255.976 206.572 258.397 209.935 259.742 212.625C261.087 215.316 267.409 215.719 267.409 215.719C267.409 215.719 268.082 214.374 267.678 211.415C267.275 208.456 264.584 207.38 261.356 206.034C258.262 204.689 256.917 204.42 257.59 202.672C257.993 200.519 261.625 201.865 264.584 201.73Z" fill="#30475B"/>
<path d="M168.138 98.8287C168.138 98.8287 161.009 105.958 158.722 110.531C156.436 114.97 160.74 118.198 160.74 118.198C160.74 118.198 155.629 123.31 155.359 125.866C155.09 128.287 168.407 182.36 181.858 208.321C181.858 208.321 172.173 144.832 172.846 120.485C173.519 96.004 177.15 90.6235 177.15 90.6235L168.138 98.8287Z" fill="#607B95"/>
<path d="M217.1 98.8287C217.1 98.8287 224.229 105.958 226.516 110.531C228.802 114.97 224.498 118.198 224.498 118.198C224.498 118.198 229.609 123.31 229.878 125.866C230.147 128.287 214.141 181.688 200.689 207.649C200.689 207.649 213.065 144.832 212.392 120.485C211.719 96.004 208.088 90.6235 208.088 90.6235L217.1 98.8287Z" fill="#607B95"/>
<path d="M190.332 227.287C190.332 227.287 181.454 235.358 181.992 240.2C182.53 245.043 187.507 257.552 187.507 257.552L186.7 260.242C186.7 260.242 180.781 245.984 180.512 241.142C180.243 236.299 182.934 232.668 190.332 227.287Z" fill="#2A3238"/>
<path d="M188.721 244.505C190.429 244.505 191.814 243.12 191.814 241.411C191.814 239.703 190.429 238.317 188.721 238.317C187.012 238.317 185.627 239.703 185.627 241.411C185.627 243.12 187.012 244.505 188.721 244.505Z" fill="#2A3238"/>
<path d="M188.988 303.959C190.333 303.69 194.1 299.251 199.48 299.654C204.861 300.058 209.569 301.268 209.569 301.268C209.569 301.268 206.609 304.228 202.17 303.69C197.732 303.152 188.988 303.959 188.988 303.959Z" fill="#225D72"/>
<path d="M183.607 303.958C183.607 303.958 172.577 305.976 170.156 305.304C167.735 304.631 163.699 305.976 163.699 305.976C163.699 305.976 168.811 310.012 173.115 309.742C177.419 309.473 183.607 303.958 183.607 303.958Z" fill="#225D72"/>
<path d="M196.521 408.339C196.521 415.065 194.638 427.44 195.983 443.85C197.059 457.301 198.942 477.209 198.942 485.28C198.942 493.35 199.615 515.948 199.615 521.867C199.615 524.692 206.071 527.516 207.013 527.92C208.762 525.095 211.048 521.06 208.627 520.118C205.264 518.773 204.861 513.662 205.264 506.936C205.668 500.21 200.556 452.055 200.556 440.353C200.556 428.65 196.79 402.959 195.848 395.964C194.907 388.969 196.117 367.044 195.176 353.996C194.234 340.949 186.971 308.666 186.971 308.666C190.199 329.112 193.696 366.506 193.696 379.957C193.696 393.408 196.521 401.613 196.521 408.339Z" fill="#225D72"/>
<path d="M229.612 402.959C225.845 409.012 226.249 409.685 228.536 413.989C230.822 418.293 234.992 431.476 234.185 444.254C233.378 457.033 232.705 473.174 232.167 481.245C231.36 494.427 222.752 499.404 218.985 502.498C215.219 505.591 215.219 507.878 218.313 509.492C221.407 511.106 228.401 513.797 232.033 518.639C234.051 521.195 234.32 524.423 234.185 526.844C235.127 526.575 236.337 525.768 237.01 523.75C238.355 519.715 235.396 494.427 236.472 471.694C236.741 466.18 237.682 449.769 237.682 439.008C237.682 428.247 237.817 409.819 235.127 397.713C234.454 394.485 234.051 391.391 233.782 388.028C233.647 387.759 233.513 387.49 233.513 387.49C233.513 387.49 233.378 396.772 229.612 402.959Z" fill="#225D72"/>
<path d="M176.609 523.213C176.34 511.779 173.112 495.503 173.785 479.631C174.054 471.56 175.264 457.302 176.609 443.851C178.223 427.441 177.82 415.065 177.82 408.34C177.82 407.398 177.82 406.457 177.954 405.515C177.82 405.919 177.82 406.457 177.685 406.86C175.668 414.662 171.229 454.612 170.287 464.028C169.346 473.443 170.556 490.257 161.544 496.983C152.532 503.709 149.707 507.475 153.473 510.165C157.24 512.855 176.071 520.119 168.404 528.055C168.27 528.055 176.609 526.306 176.609 523.213Z" fill="#225D72"/>
<path d="M185.218 320.101C185.218 320.101 178.492 366.104 178.492 374.174C178.492 380.227 179.03 391.257 178.492 399.597C179.165 394.485 180.241 388.298 180.375 379.958C180.644 366.373 182.662 339.605 185.218 320.235V320.101Z" fill="#225D72"/>
<path d="M141.912 405.514C140.97 397.04 140.163 389.373 140.163 389.373L139.894 389.777C139.625 392.467 139.222 395.023 138.684 397.713C135.993 409.819 135.59 429.727 135.59 440.487C135.59 451.248 136.8 466.583 136.935 472.098C137.473 489.853 135.455 518.908 136.8 522.943C136.935 523.212 136.935 523.481 137.069 523.616C138.146 514.334 140.298 499.942 140.97 495.503C141.912 489.181 139.625 473.577 140.567 457.839C141.508 442.236 142.853 413.989 141.912 405.514Z" fill="#225D72"/>
<path d="M144.602 535.99C144.602 535.99 146.888 534.242 151.731 534.242C156.708 534.242 158.86 535.99 158.86 535.99" stroke="white" stroke-width="2" stroke-linecap="round"/>
<path d="M145.139 530.611C145.139 530.611 146.753 528.997 151.73 528.997C156.707 528.997 159.666 530.611 159.666 530.611" stroke="white" stroke-width="2" stroke-linecap="round"/>
<path d="M230.147 535.99C230.147 535.99 227.86 534.242 223.018 534.242C218.041 534.242 215.889 535.99 215.889 535.99" stroke="white" stroke-width="2" stroke-linecap="round"/>
<path d="M229.478 530.611C229.478 530.611 227.864 528.997 222.887 528.997C217.91 528.997 214.951 530.611 214.951 530.611" stroke="white" stroke-width="2" stroke-linecap="round"/>
</svg>
