<svg width="158" height="485" viewBox="0 0 158 485" fill="none" xmlns="http://www.w3.org/2000/svg">
<path opacity="0.08" fill-rule="evenodd" clip-rule="evenodd" d="M86.8936 485C113.631 485 127 479.043 127 467.13C127 452.9 105.267 453 83.1398 453C67.0396 453 62 454.562 62 468.792C62 478.279 70.2979 483.682 86.8936 485Z" fill="black"/>
<g clip-path="url(#clip0)">
<path d="M110.482 86.3481C111.848 75.0335 114.403 49.2481 111.73 35.5515C108.225 17.6268 91.7124 11.1357 88.2672 11.1357C84.8221 11.1357 68.4875 17.6268 64.983 35.5515C62.3101 49.3077 64.8642 75.0335 66.2304 86.3481H110.482Z" fill="#F3EAC6"/>
<path opacity="0.2" d="M110.482 86.3481C111.848 75.0335 114.403 49.2481 111.73 35.5515C108.225 17.6268 91.7124 11.1357 88.2672 11.1357C84.8221 11.1357 68.4875 17.6268 64.983 35.5515C62.3101 49.3077 64.8642 75.0335 66.2304 86.3481H110.482Z" fill="black"/>
<path opacity="0.05" d="M88.2656 11.1357C91.7107 11.1357 108.224 17.6268 111.728 35.5515C114.401 49.3077 111.847 75.0335 110.481 86.3481H88.8596L88.2656 11.1357Z" fill="black"/>
<path d="M120.222 201.817C118.975 197.529 117.906 194.135 117.906 194.135C115.114 184.071 113.867 178.056 113.867 178.056C113.867 178.056 113.035 176.389 113.451 172.518C113.688 170.136 117.252 150.067 119.688 143.1C122.182 141.313 124.499 134.406 124.855 131.19C125.033 129.642 125.33 123.567 127.647 130.416L138.636 160.012C121.826 163.526 97.7101 161.62 91.2357 162.573C88.3252 162.811 80.1282 169.6 76.3267 171.803C73.1192 173.649 72.7034 173.888 71.456 174.662C70.2086 175.436 67.5951 178.89 66.8823 179.724C66.1695 180.557 64.0312 184.785 64.0312 184.785C64.0312 184.785 65.3974 185.559 67.5951 184.249C69.7928 182.939 71.2778 179.902 73.1786 178.83C75.0793 177.758 75.7327 177.639 75.7327 177.639L73.7725 182.582C73.7725 182.582 73.8319 188.299 74.0101 190.204C74.1883 192.11 74.2477 193.122 74.2477 193.122C74.2477 193.122 75.3169 193.242 76.5049 192.348L76.8019 193.837C76.8019 193.837 78.9996 193.42 79.356 192.646C79.7124 191.872 79.8906 190.979 79.8906 190.979C79.8906 190.979 82.9793 187.584 84.2267 185.976C85.474 184.368 87.4342 180.915 87.4342 180.915C87.4342 180.915 93.6116 177.58 94.9184 173.471C95.0966 172.875 118.856 178.83 140.833 177.52C145.764 177.222 151.169 174.483 153.604 173.888C153.604 173.888 155.802 173.054 155.505 169.183C155.208 165.312 153.01 147.745 149.446 134.644C145.882 121.543 141.13 109.811 141.13 109.811C140.299 106.476 134.894 98.1393 132.102 95.7572C131.151 94.9235 128.657 92.6011 127.231 92.0651C123.548 90.5763 122.242 90.3977 111.372 86.8246C100.383 83.1921 99.1951 71.2819 99.0169 66.8156C101.333 64.7314 103.412 62.2303 104.719 59.6696C106.442 56.3943 106.62 53.1786 107.214 49.01C110.243 50.5583 113.926 37.3381 112.382 34.8965C110.956 32.5741 108.936 34.5988 108.639 34.837V29.0606C108.639 12.3864 99.4921 8.5752 88.2658 8.5752C76.9801 8.5752 67.8921 12.3864 67.8921 29.0606V34.837C67.6545 34.5392 65.6349 32.5741 64.15 34.8965C62.6056 37.3381 66.2883 50.6179 69.3176 49.01C69.9116 53.2381 70.1492 56.3943 71.8124 59.6696C73.1192 62.1707 75.1981 64.6718 77.5146 66.8156C77.3958 71.3415 76.0891 83.2516 65.1004 86.8246C54.4086 90.3381 55.062 89.3258 51.0823 90.5763C43.3605 92.9584 40.6876 110.824 41.8755 122.734C43.0635 134.644 43.3011 161.382 43.3011 161.382L18.7695 188.775C18.7695 188.775 30.0552 192.825 36.5891 189.966C44.0139 186.691 48.944 185.5 55.2996 182.225C58.6259 180.498 49.0628 198.899 46.5086 204.854C36.2921 228.555 40.9846 242.192 48.1124 273.337C48.1124 273.337 57.7943 308.889 57.7943 319.131C57.7943 329.374 55.4184 355.338 57.9131 369.63C60.3485 383.922 68.0109 412.268 69.6146 416.735C71.2184 421.201 69.1989 428.168 70.0304 431.444C70.862 434.719 71.2778 435.017 70.862 441.27C70.268 449.249 71.456 458.361 71.456 465.09C71.456 467.65 75.1981 471.164 79.653 473.189C84.1079 475.213 88.2064 474.439 89.4537 473.606C90.7011 472.772 93.2552 468.722 93.2552 467.472C93.2552 466.221 88.9786 451.75 88.5628 447.642C88.147 443.533 87.3154 433.766 86.8996 431.741C86.4838 429.717 83.3357 418.759 83.3357 414.65C83.3357 410.542 84.1079 392.259 84.1079 384.875C84.1079 377.729 86.4838 343.964 85.7116 338.843C84.9395 333.662 84.9395 328.124 84.5237 324.967C84.1079 321.811 88.0876 309.067 88.0876 309.067L90.8793 325.741C90.8793 325.741 92.4831 324.134 90.4635 338.068C88.5034 351.944 97.5913 383.744 98.7793 395.237C99.6703 403.812 100.561 417.449 100.145 420.725C99.7297 424 98.1259 428.883 98.5417 430.967C98.9575 432.992 98.8387 438.113 98.8387 442.222C98.8387 446.331 96.8192 458.956 97.2349 461.398C97.6507 463.839 98.9575 474.737 107.511 471.879C116.064 469.02 117.015 459.611 117.015 458.361C117.015 457.11 114.639 435.791 114.639 432.933C114.639 430.074 115.47 423.524 115.054 419.831C114.639 416.139 116.955 396.666 119.034 386.9C121.054 377.074 122.242 355.517 120.638 342.416C119.034 329.315 114.698 315.916 114.817 307.757C115.114 291.202 119.688 283.639 122.836 267.977C125.212 256.067 128.182 235.225 124.618 217.359C124.499 216.764 124.321 215.99 124.083 215.097L120.222 201.817Z" fill="#FFDBB0"/>
<path opacity="0.05" d="M135.608 104.213C134.777 100.879 134.539 97.9011 131.51 94.9235C130.5 93.9112 129.431 92.7797 128.065 92.0651C123.55 89.564 122.244 90.3977 111.314 86.8842C100.325 83.2516 99.1375 71.3415 98.9593 66.8752C101.276 64.7909 103.355 62.2898 104.662 59.7291C106.384 56.4539 106.562 53.2381 107.156 49.0696C110.186 50.6179 113.868 37.3977 112.324 34.9561C110.898 32.6336 108.879 34.6584 108.582 34.8966V29.1202C108.582 12.446 99.4939 8.63477 88.2082 8.63477V72.0561H88.1488C87.2578 72.0561 86.0698 72.1752 84.763 71.6988C82.5653 70.8651 79.8924 69.0786 77.457 66.8752L114.759 104.273" fill="black"/>
<path d="M81.971 39.0652C81.1988 38.4101 79.5357 37.5764 78.2289 37.4573C76.9221 37.3382 74.3086 39.4225 74.3086 39.4225C74.3086 39.4225 76.5063 41.209 77.8131 41.5067C80.486 42.0427 83.159 40.2562 83.8718 40.4348C83.9906 40.4348 82.7432 39.7202 81.971 39.0652Z" fill="white"/>
<path d="M78.8817 41.5067C80.0298 41.5067 80.9606 40.5735 80.9606 39.4224C80.9606 38.2713 80.0298 37.3381 78.8817 37.3381C77.7335 37.3381 76.8027 38.2713 76.8027 39.4224C76.8027 40.5735 77.7335 41.5067 78.8817 41.5067Z" fill="#808080"/>
<path d="M78.8817 40.4944C79.4722 40.4944 79.9509 40.0145 79.9509 39.4225C79.9509 38.8305 79.4722 38.3506 78.8817 38.3506C78.2912 38.3506 77.8125 38.8305 77.8125 39.4225C77.8125 40.0145 78.2912 40.4944 78.8817 40.4944Z" fill="#534741"/>
<path d="M77.6936 40.0179C78.0216 40.0179 78.2876 39.7513 78.2876 39.4224C78.2876 39.0935 78.0216 38.8269 77.6936 38.8269C77.3655 38.8269 77.0996 39.0935 77.0996 39.4224C77.0996 39.7513 77.3655 40.0179 77.6936 40.0179Z" fill="white"/>
<path d="M73.9503 38.9459C74.7225 38.4099 75.4947 37.9335 76.3262 37.5167C76.742 37.338 77.2172 37.1594 77.7518 37.0403C77.8706 37.0403 78.0488 37.0403 78.1676 37.0403C78.2864 37.0403 78.4052 37.0403 78.524 37.0998C78.7616 37.1594 78.9992 37.1594 79.2368 37.2189C80.1871 37.4571 81.0781 37.9335 81.7909 38.529C82.5037 39.1841 83.0977 39.7796 83.8105 40.3156L83.9886 40.4347L83.8699 40.5538L83.3947 41.0302L83.3353 41.0897L83.2759 41.0302C83.1571 40.9706 82.9789 40.9111 82.8601 40.9111C82.6819 40.9111 82.5631 40.9111 82.3849 40.9111C82.0879 40.9111 81.7315 41.0302 81.4345 41.1493C81.7315 41.0302 82.0285 40.9111 82.3849 40.8515C82.5631 40.8515 82.7413 40.792 82.8601 40.8515C83.0383 40.8515 83.2165 40.9111 83.3353 40.9706H83.2165L83.4541 40.3751L83.5135 40.6729C82.7413 40.1965 82.0285 39.601 81.3157 39.065C80.6029 38.529 79.8308 38.2313 78.9992 38.1122C78.821 38.0526 78.5834 38.0526 78.3458 38.0526C78.227 38.0526 78.1082 38.0526 78.0488 38.0526C77.9894 38.0526 77.93 38.0526 77.8112 38.1122C77.4548 38.1717 77.0984 38.3504 76.742 38.5886C76.0293 39.0055 75.2571 39.5414 74.6037 40.0178C74.3661 40.1965 73.9503 40.1965 73.7721 39.8987C73.5939 39.5414 73.6533 39.1246 73.9503 38.9459Z" fill="#826F67"/>
<path d="M84.6443 36.0279C84.6443 36.0279 81.615 35.4919 77.1007 33.2886C75.6751 32.574 72.4082 34.3009 72.4082 34.3009C72.4082 34.3009 75.7345 31.5616 77.1007 31.502C78.4074 31.4425 81.5556 33.1099 83.0999 33.5863C84.5849 34.1223 84.6443 34.3605 84.6443 36.0279Z" fill="#826F67"/>
<path d="M94.6215 39.0652C95.3937 38.4101 97.0569 37.5764 98.3637 37.4573C99.6704 37.3382 102.284 39.4225 102.284 39.4225C102.284 39.4225 100.086 41.209 98.7794 41.5067C96.1065 42.0427 93.4336 40.2562 92.7208 40.4348C92.602 40.4348 93.8494 39.7202 94.6215 39.0652Z" fill="white"/>
<path d="M97.7098 41.5067C98.858 41.5067 99.7887 40.5735 99.7887 39.4224C99.7887 38.2713 98.858 37.3381 97.7098 37.3381C96.5616 37.3381 95.6309 38.2713 95.6309 39.4224C95.6309 40.5735 96.5616 41.5067 97.7098 41.5067Z" fill="#808080"/>
<path d="M97.7118 40.4944C98.3022 40.4944 98.7809 40.0145 98.7809 39.4225C98.7809 38.8305 98.3022 38.3506 97.7118 38.3506C97.1213 38.3506 96.6426 38.8305 96.6426 39.4225C96.6426 40.0145 97.1213 40.4944 97.7118 40.4944Z" fill="#534741"/>
<path d="M96.7014 40.0179C97.0295 40.0179 97.2954 39.7513 97.2954 39.4224C97.2954 39.0935 97.0295 38.8269 96.7014 38.8269C96.3734 38.8269 96.1074 39.0935 96.1074 39.4224C96.1074 39.7513 96.3734 40.0179 96.7014 40.0179Z" fill="white"/>
<path d="M101.928 39.8989C101.275 39.363 100.502 38.827 99.7896 38.4697C99.4332 38.2911 99.0174 38.1124 98.7204 37.9933C98.6016 37.9933 98.5422 37.9933 98.4828 37.9337C98.4234 37.9337 98.3046 37.9337 98.1858 37.9337C97.9482 37.9337 97.77 37.9933 97.5324 37.9933C96.7009 38.1124 95.9287 38.4697 95.2159 38.9461C94.5625 39.4821 93.8497 40.0776 93.0182 40.554L93.0776 40.2562L93.3152 40.8517H93.1963C93.3745 40.7326 93.5527 40.7326 93.6715 40.7326C93.8497 40.7326 94.0279 40.7326 94.1467 40.7326C94.4437 40.7922 94.8001 40.9113 95.0971 41.0304C94.8001 40.9113 94.5031 40.8517 94.1467 40.7922C93.9685 40.7922 93.8497 40.7922 93.6715 40.7922C93.4933 40.7922 93.3745 40.8517 93.2557 40.9113L93.1963 40.9708L93.137 40.9113L92.6618 40.4349L92.543 40.3158L92.7212 40.1967C93.4339 39.6607 94.0279 39.0652 94.7407 38.4102C95.4535 37.8146 96.3445 37.3382 97.2948 37.1C97.5324 37.0405 97.77 36.9809 98.0076 36.9809C98.1264 36.9809 98.2452 36.9214 98.364 36.9214C98.4828 36.9214 98.661 36.9214 98.7798 36.9214C99.3144 36.9809 99.7896 37.1596 100.205 37.3978C101.096 37.8146 101.869 38.291 102.581 38.827C102.878 39.0057 102.878 39.4225 102.7 39.6607C102.581 40.018 102.225 40.0776 101.928 39.8989Z" fill="#826F67"/>
<path d="M92.0097 36.0279C92.0097 36.0279 95.039 35.4919 99.5533 33.2886C100.979 32.574 104.246 34.3009 104.246 34.3009C104.246 34.3009 100.919 31.5616 99.5533 31.502C98.2465 31.4425 95.0984 33.1099 93.554 33.5863C92.0691 34.1223 91.9503 34.3605 92.0097 36.0279Z" fill="#826F67"/>
<path d="M92.9597 58.419C91.8905 58.1808 90.1679 57.1685 89.6333 57.1685C89.0988 57.1685 88.6236 57.764 88.2672 57.764C87.9108 57.764 87.4356 57.1685 86.901 57.1685C86.3664 57.1685 84.7033 58.1808 83.6935 58.419C82.6243 58.6572 81.377 58.7763 81.377 58.7763C81.377 58.7763 85.0003 62.4089 85.4161 62.6471C86.307 63.1831 90.2867 63.2426 91.1777 62.6471C91.5935 62.3494 95.2168 58.7763 95.2168 58.7763C95.2168 58.7763 94.0288 58.7168 92.9597 58.419Z" fill="#C1565B"/>
<path opacity="0.08" d="M95.2762 58.7763C95.2762 58.7763 94.0288 58.6572 92.9597 58.419C91.8905 58.1808 90.2273 57.1685 89.6927 57.1685C89.1582 57.1685 88.683 57.764 88.3266 57.764C87.9702 57.764 87.495 57.1685 86.9604 57.1685C86.4258 57.1685 84.7627 58.1808 83.6935 58.419C82.6243 58.6572 81.377 58.7763 81.377 58.7763L86.901 59.9673H89.6333L95.2762 58.7763Z" fill="black"/>
<path opacity="0.08" d="M91.0582 51.5706C90.4642 51.392 89.0387 52.5234 88.3259 52.5234C87.6131 52.5234 86.1876 51.4515 85.5936 51.5706C84.9996 51.7493 84.7026 52.7021 85.5936 52.8808C86.4846 53.0594 87.9101 53.4167 88.3259 53.4167C88.7417 53.4167 90.1673 53.0594 91.0582 52.8808C91.9492 52.7617 91.7116 51.7493 91.0582 51.5706Z" fill="black"/>
<path d="M108.878 34.5989H108.641V34.8366C108.7 34.7772 108.819 34.7177 108.878 34.5989Z" fill="#D2CAA0"/>
<path d="M67.8938 34.8366V34.5989H67.6562C67.775 34.7177 67.8344 34.7772 67.8938 34.8366Z" fill="#D2CAA0"/>
<path d="M108.878 34.5989H108.641V34.8366C108.7 34.7772 108.819 34.7177 108.878 34.5989Z" fill="#D2CAA0"/>
<path d="M67.8938 34.8366V34.5989H67.6562C67.775 34.7177 67.8344 34.7772 67.8938 34.8366Z" fill="#D2CAA0"/>
<path d="M157.466 162.513C156.159 147.328 146.239 119.518 141.131 105.107C139.527 100.64 135.904 94.9832 134.3 92.8989C132.696 90.8146 129.548 90.0405 125.39 89.6236C121.233 89.2067 119.569 87.9562 119.569 87.9562L118.5 86.0506L104.839 81.882L103.354 80.9888C103.354 80.9888 103.354 83.3708 102.047 87.5393C100.74 91.7079 92.6619 106.179 91.5927 111.776C90.4048 118.148 88.801 124.163 88.801 124.163C88.801 124.163 87.7912 114.278 86.0093 109.394C84.2273 104.511 74.8423 94.0899 73.0604 90.6955C71.2784 87.3011 72.1694 82.0607 72.1694 82.0607L69.9123 82.3584C69.9123 82.3584 63.8536 85.4551 60.8837 85.9315L60.7649 87.4202C60.7649 87.4202 53.0431 89.2067 51.5581 89.2067C50.0732 89.2067 47.8754 89.2067 46.8063 89.9214C45.7371 90.636 41.5792 98.1393 40.9852 101.355C40.3912 104.571 38.9063 116.124 39.322 124.103C39.7378 132.083 40.51 144.827 40.807 150.187C41.104 155.546 40.9258 157.749 40.213 160.012C39.5002 162.275 25.0664 179.962 25.0664 179.962L36.9461 191.753L55.0626 185.202L115.53 182.939L115.293 182.225H115.174L114.402 179.664L113.808 178.056C113.808 178.056 113.867 178.056 113.927 178.056L118.56 159.596C118.56 159.596 119.451 153.64 121.53 150.067C122.836 147.864 126.875 140.837 126.875 140.837C128.954 144.112 131.924 152.747 131.33 154.534C130.736 156.32 132.221 157.809 132.221 157.809L128.242 160.965C128.598 161.858 130.439 166.265 130.439 170.672C130.439 173.471 133.35 179.902 135.785 180.974C141.487 183.475 142.378 179.724 145.586 179.128C152.833 177.818 155.505 174.662 156.099 173.769C156.693 172.875 158.178 170.731 157.466 162.513Z" fill="#D3B62F"/>
<path opacity="0.1" d="M120.936 120.292V125.056C120.936 125.056 116.6 125.473 111.848 125.473C107.096 125.473 100.562 124.103 100.562 124.103L100.859 119.637C100.859 119.637 108.759 122.079 120.936 120.292Z" fill="black"/>
<path d="M115.293 85.0381H115.234L112.917 95.8763C111.254 94.8044 107.868 94.0302 104.898 93.4943C103.592 93.2561 102.344 93.0774 101.394 92.9583C101.334 92.9583 101.334 92.9583 101.275 92.9583C101.097 92.9583 100.978 92.8988 100.8 92.8988C100.74 92.8988 100.622 92.8988 100.562 92.8988C100.443 92.8988 100.325 92.8988 100.265 92.8392C100.087 92.8392 99.9089 92.7797 99.7901 92.7797C99.6119 93.1965 99.3743 93.6729 99.1367 94.0898C98.9585 94.4471 98.8397 94.7448 98.6615 95.1021C98.6615 95.1617 98.6021 95.1617 98.6021 95.2212C95.8104 101.057 92.3059 108.203 91.5931 111.717C90.4051 118.089 88.8014 124.103 88.8014 124.103C88.8014 124.103 87.7916 114.218 86.0096 109.335C84.8217 106.059 80.248 100.402 76.8029 95.9358C76.6247 95.6976 76.4465 95.519 76.2683 95.2808C76.2683 95.2212 76.2089 95.2212 76.2089 95.1617C76.1495 95.1021 76.0901 94.983 76.0307 94.9235C75.9713 94.8044 75.8525 94.6853 75.7931 94.6257C75.7931 94.5662 75.7337 94.5662 75.7337 94.5066C75.6743 94.3875 75.6149 94.328 75.4961 94.2089C75.4367 94.1493 75.3773 94.0302 75.3179 93.9707C75.3179 93.9111 75.2585 93.9111 75.2585 93.8516C75.0803 93.6729 74.9615 93.4347 74.8427 93.2561C74.7239 93.2561 74.5457 93.2561 74.3675 93.2561C74.3081 93.2561 74.3081 93.2561 74.2487 93.2561C74.0705 93.2561 73.8923 93.2561 73.7142 93.3156C73.7142 93.3156 73.7142 93.3156 73.6548 93.3156C73.4766 93.3156 73.2984 93.3752 73.1202 93.3752C73.0608 93.3752 73.0608 93.3752 73.0014 93.3752C72.8232 93.3752 72.5856 93.4347 72.4074 93.4943H72.348C72.1698 93.5538 71.9322 93.5538 71.754 93.6134C71.6946 93.6134 71.6946 93.6134 71.6352 93.6134C71.3976 93.6729 71.16 93.7325 70.9224 93.7325C70.6848 93.792 70.4472 93.8516 70.2096 93.9111C70.2096 93.9111 70.2096 93.9111 70.1502 93.9111C66.6457 94.7448 62.9036 96.1145 62.9036 96.1145C62.0127 94.4471 60.6465 87.301 60.6465 87.301C60.7653 94.4471 61.3593 99.3302 61.3593 99.3302C64.0916 98.1392 67.9525 97.246 71.2788 96.6504C74.7833 101.236 80.0104 107.608 81.3172 111.181C83.0991 116.064 84.1089 125.949 84.1089 125.949C84.1089 125.949 84.8811 134.465 85.1781 137.979C85.772 146.137 85.9502 153.64 85.9502 161.799C85.9502 166.563 86.366 181.034 86.366 181.034L92.7217 180.438C92.7217 180.438 90.1675 167.337 91.5337 139.944C91.8307 133.989 93.4939 125.473 93.4939 125.473C93.4939 125.473 95.0976 119.399 96.2856 113.086C96.9984 109.394 100.74 101.831 103.592 95.9358C108.937 96.8291 114.58 99.0325 114.58 99.0325L115.293 85.0381Z" fill="#C6A82E"/>
<path d="M97.5927 35.9089C92.7815 36.7426 90.5837 38.8269 90.5837 38.8269C90.5837 38.8269 89.3363 38.2909 88.3266 38.2909C87.2574 38.2909 86.0694 38.8269 86.0694 38.8269C86.0694 38.8269 83.8717 36.7426 79.0604 35.9089C74.1303 35.0752 68.5469 36.3853 68.5469 36.3853C69.4379 42.3404 74.0115 46.0921 78.8228 46.0921C83.6341 46.0921 86.01 41.7449 86.4258 41.2685C86.8416 40.7921 88.4454 40.5539 88.4454 40.5539C88.4454 40.5539 90.0491 40.7325 90.4649 41.2685C90.8807 41.7449 93.1972 46.0921 98.0679 46.0921C102.879 46.0921 107.393 42.2808 108.344 36.3853C108.166 36.3853 102.523 35.0752 97.5927 35.9089ZM78.6446 44.6033C75.1995 44.6033 71.4574 41.9831 70.804 37.6954C70.804 37.6954 76.0311 36.6831 78.704 37.0999C82.0303 37.5763 85.1784 39.3033 85.1784 39.9584C85.2378 41.0898 82.1491 44.6033 78.6446 44.6033ZM97.9491 44.6033C94.504 44.6033 91.4153 41.0303 91.4153 39.9584C91.4153 39.3033 94.5634 37.5763 97.8897 37.0999C100.563 36.6831 105.968 37.6954 105.968 37.6954C105.374 41.9831 101.454 44.6033 97.9491 44.6033Z" fill="#242329"/>
<path d="M132.636 103.796C131.745 98.9133 128.003 93.0773 126.221 89.3852C119.509 75.6886 117.668 37.2189 114.282 25.0706C110.184 10.302 101.927 0.0593262 88.2063 0.0593262C74.4258 0.0593262 65.1596 10.1234 62.0115 25.0706C57.5566 46.6279 64.2093 64.493 62.9619 85.3953C64.5063 84.8593 66.2882 84.0852 67.7138 83.4897C66.407 72.2346 64.3875 51.7492 66.407 49.7245C69.2581 46.8661 75.1386 30.5492 77.3363 28.3458C78.9995 26.6784 81.1972 22.629 86.0679 19.7706C87.3747 18.9964 89.0378 18.9964 90.404 19.7706C95.1559 22.629 97.4724 26.6189 99.195 28.3458C101.393 30.5492 107.451 46.8661 110.302 49.7245C112.5 51.9279 110.006 75.2121 108.758 85.693C108.164 90.8144 108.164 96.6504 110.005 102.784C111.847 108.918 113.451 113.384 114.876 116.362C118.262 123.389 116.124 129.463 116.124 129.463C116.124 129.463 126.815 119.339 128.954 116.302C131.033 113.205 133.587 108.68 132.636 103.796Z" fill="#DDD5B6"/>
<path opacity="0.25" d="M62.9037 56.0964C62.9037 56.0964 61.8939 53.6548 66.7646 44.0672C71.6353 34.4796 74.3082 25.0706 78.7631 21.6166C83.218 18.1627 87.7323 16.4953 87.7323 16.4953C87.7323 16.4953 85.7127 14.0537 86.4849 11.7908C87.2571 9.52787 87.3165 9.52787 87.3165 9.52787C87.3165 9.52787 86.9007 6.66945 85.2969 5.65709C83.6932 4.64473 80.1887 5.06158 80.1887 5.06158C80.1887 5.06158 83.4556 6.31214 84.0496 7.92001C84.6436 9.52787 83.8714 10.3616 82.624 10.7784C81.3766 11.1953 76.3278 13.0414 73.6548 15.6616C70.9819 18.3414 69.7939 20.5447 69.7939 20.5447C69.7939 20.5447 74.6646 15.4234 77.5157 15.0065C80.3669 14.5897 81.3766 14.8279 80.7826 15.8402C80.1887 16.8526 75.2586 20.5447 73.833 22.8076C72.4075 25.0706 63.6165 43.829 63.0225 45.6751C62.4879 47.5211 61.4781 52.2256 62.9037 56.0964Z" fill="white"/>
<path opacity="0.25" d="M111.967 51.8088C111.967 51.8088 116.659 64.4931 117.669 69.7931C118.679 75.0931 120.936 81.2268 121.946 83.4897C121.946 83.4897 119.51 70.3886 119.273 67.7684C119.035 65.1482 116.481 57.1088 111.967 51.8088Z" fill="white"/>
<path opacity="0.1" d="M63.1398 164.181C62.7241 159.595 61.5361 154.653 60.3481 151.08C59.1601 147.507 55.0023 141.551 54.2301 138.395C53.4579 135.239 53.8143 125.413 53.8143 125.413C53.8143 125.413 55.5962 118.565 55.5962 114.099C55.5962 109.632 54.4083 108.144 53.2203 108.739C52.0323 109.335 51.4383 112.312 51.4383 112.312C51.4383 112.312 52.6263 114.099 52.9233 117.076C53.2203 120.054 52.8639 125.056 52.8639 125.056C52.8639 125.056 52.2699 120.471 50.0722 119.101C47.8744 117.731 46.3301 118.327 46.3301 118.327C46.3301 118.327 48.2902 119.518 49.7158 121.126C51.1414 122.734 52.0917 125.473 52.5075 128.867C52.9233 132.262 51.9135 137.978 52.0917 142.564C52.2699 147.149 53.1015 148.936 52.6857 150.901C52.4481 151.973 50.9038 153.223 49.597 154.057L52.0917 155.844L47.6962 187.941L55.2398 185.202L57.9128 185.083L58.685 174.483C58.685 174.483 55.5368 171.505 55.5368 170.493C55.5368 169.481 58.5068 167.932 58.9226 164.538C59.3383 161.144 59.3383 159.595 59.3383 159.595C59.3383 159.595 61.8925 167.337 64.0902 170.314C66.288 173.292 68.2481 174.066 68.2481 174.066C68.2481 174.066 63.5556 168.766 63.1398 164.181Z" fill="black"/>
<path d="M121.173 338.664C119.57 325.563 115.828 315.916 115.946 307.757C116.243 291.202 120.817 283.639 123.965 267.978C126.341 256.067 129.311 235.225 125.747 217.36C125.628 216.764 125.45 215.99 125.213 215.097L121.47 201.817C120.223 197.529 119.154 194.135 119.154 194.135C116.362 184.071 113.927 178.056 113.927 178.056C83.693 181.034 58.6269 174.483 58.6269 174.483C58.6269 174.483 53.3998 182.82 51.3209 191.574C51.0239 192.825 47.757 199.613 45.4998 204.854C35.2833 228.555 39.9758 242.192 47.1036 273.337C47.1036 273.337 56.7855 308.889 56.7855 319.132L56.4291 334.555C56.4291 334.555 75.8524 334.555 83.3367 336.52C90.8803 338.485 97.5923 342.058 105.908 342.475C114.224 342.833 121.173 338.664 121.173 338.664Z" fill="#3A2F3F"/>
<path d="M81.733 459.135C88.0886 459.552 89.2766 456.336 89.2766 453.954C89.2766 451.572 88.0886 446.391 87.6728 442.461C87.2571 438.471 85.1187 425.072 84.7029 422.69C84.7029 422.69 87.2571 427.394 89.2766 432.158C91.2368 436.923 89.6924 440.912 91.2368 449.25C92.8405 457.587 94.0285 456.396 94.8007 460.385C95.5729 464.375 92.7811 473.308 91.8307 474.797C90.0488 477.655 80.1292 477.417 76.9811 475.869C73.833 474.261 69.4375 465.924 69.4375 463.958C69.4375 461.993 70.8037 441.329 70.8037 441.329C70.8037 441.329 70.6255 455.264 73.0014 457.229C75.4368 459.135 78.5849 458.956 81.733 459.135Z" fill="#D3B62F"/>
<path d="M98.5429 430.908C98.5429 430.908 98.0083 444.068 97.5925 448.594C97.1767 453.18 94.8008 456.157 94.8008 460.326C94.8008 464.494 97.8301 473.665 99.1369 475.035C101.156 477 111.848 477.953 115.115 475.392C117.669 473.367 120.52 461.934 119.332 458.003C118.144 454.013 116.362 442.52 116.362 440.138C116.362 437.756 114.521 434.064 114.521 434.064C114.521 434.064 117.194 455.502 115.59 457.408C114.58 458.599 103.117 459.968 101.335 458.42C99.5527 456.812 98.0677 454.907 99.0775 448.475C99.6121 445.259 98.5429 430.908 98.5429 430.908Z" fill="#D3B62F"/>
<path opacity="0.1" d="M61.1797 207.831C61.1797 207.831 86.8992 210.213 94.0271 210.63C101.155 211.047 106.679 211.047 105.491 211.047C104.303 211.047 90.8789 213.786 84.9391 213.786C78.9992 213.786 61.1797 207.831 61.1797 207.831Z" fill="black"/>
<path opacity="0.1" d="M55.2402 215.394C55.2402 215.394 88.5034 222.123 98.4229 220.158C108.342 218.193 108.342 218.193 108.342 218.193C108.342 218.193 88.0876 231.652 55.2402 215.394Z" fill="black"/>
<path opacity="0.1" d="M69.8535 254.281L90.8212 251.482C90.8806 251.541 87.6731 257.08 69.8535 254.281Z" fill="black"/>
<path opacity="0.1" d="M65.9316 265.417L86.5429 263.035C86.4835 263.035 76.6234 269.407 65.9316 265.417Z" fill="black"/>
<path opacity="0.1" d="M67.1211 274.171L82.1489 273.754C82.1489 273.754 76.9812 279.292 67.1211 274.171Z" fill="black"/>
<path opacity="0.2" d="M62.7246 89.7426C63.7344 89.1471 67.2983 86.3482 69.2584 85.9909C70.387 85.7527 71.3374 85.6931 71.9908 85.6336C71.9314 83.6684 72.2284 82.0605 72.2284 82.0605L69.9712 82.3583C69.9712 82.3583 63.9126 85.4549 60.9426 85.9313L60.8239 87.4201C60.8239 87.4201 53.102 89.2066 51.6171 89.2066C50.1321 89.2066 47.9344 89.2066 46.8652 89.9212C45.796 90.6358 41.6381 98.1392 41.0441 101.355C40.4502 104.571 38.9652 116.123 39.381 124.103C39.7968 132.083 40.569 144.827 40.866 150.186C40.9254 151.08 40.9253 151.913 40.9847 152.688L43.3013 151.675C43.3013 151.675 38.7276 112.193 42.5291 104.452C46.3306 96.71 48.0532 93.1369 49.8351 92.5414C51.6171 91.9459 53.2208 92.3628 54.1712 91.9459C55.181 91.5291 60.7051 90.1594 60.7051 90.1594C60.7051 90.1594 61.7742 90.3381 62.7246 89.7426Z" fill="white"/>
<path d="M43.4207 200.149L2.85148 170.97C0.0597507 169.481 -0.415437 166.027 0.297345 163.109L6.94998 133.929C7.24697 132.5 8.49434 130.654 9.62291 131.428L52.0334 161.263C53.2214 162.097 53.8748 163.764 53.5778 165.253L47.8755 198.006C47.4598 200.447 45.262 201.459 43.4207 200.149Z" fill="white"/>
<path d="M52.0333 161.263L9.62276 131.428C9.38517 131.309 9.20697 131.19 8.96938 131.13C8.85058 131.368 1.48517 164.359 1.48517 164.359C1.06938 166.384 1.90095 168.647 3.50471 169.719L45.2025 199.375C45.7964 199.792 46.3904 199.971 46.925 199.971C47.4002 199.494 47.7566 198.839 47.9348 198.065L53.637 165.312C53.8746 163.704 53.2213 162.037 52.0333 161.263Z" fill="#E6E6E6"/>
<path d="M44.6673 195.624L3.86049 166.622C3.26651 166.206 2.96952 165.312 3.08831 164.538L9.85974 135.299C10.0379 134.286 10.9883 133.81 11.8199 134.406L50.9635 162.156C51.5575 162.573 51.8545 163.466 51.7357 164.24L46.568 194.73C46.4492 195.743 45.4988 196.159 44.6673 195.624Z" fill="#194554"/>
<path d="M136.616 166.265C135.428 163.287 130.735 160.667 130.735 160.667C116.717 162.394 99.0759 162.99 91.5917 163.585C90.1661 163.704 88.7406 164.121 87.4932 164.895C84.2857 166.86 77.8112 170.731 74.7225 172.458C73 173.411 71.5744 175.198 70.2676 176.508C68.9609 177.818 67.5353 178.89 67.1789 179.307C66.6443 179.902 62.9022 186.214 62.2488 187.584C62.0112 188.06 62.3676 188.656 62.9022 188.596C63.7932 188.537 65.397 188.239 66.2879 187.048C67.0007 186.036 69.6142 182.582 69.6142 182.582L72.7624 179.723L70.9804 182.641C70.5646 183.416 69.9706 183.713 69.5549 186.691C69.2579 188.894 69.2579 190.978 69.0203 194.313C68.9609 194.73 68.9015 195.623 69.6737 195.623C69.8518 195.623 70.3864 195.623 70.6834 195.445C71.1586 195.147 71.4556 194.849 71.4556 194.849C71.4556 194.849 71.3962 196.219 72.7624 196.1C74.2473 195.862 74.9007 195.207 75.4947 194.373C75.6135 194.849 76.0887 195.147 76.5639 195.147C77.2173 195.207 78.7022 193.599 79.2368 192.944C79.7714 192.229 80.7812 190.74 83.0383 186.989C84.1669 185.083 86.6616 182.999 86.6616 182.999C86.6616 182.999 93.1361 179.366 94.5022 173.53V173.471C94.6804 172.935 115.232 177.996 135.784 177.699C135.784 177.699 138.16 175.138 138.16 173.352C138.16 171.565 137.804 169.243 136.616 166.265Z" fill="#FFDBB0"/>
<path opacity="0.08" d="M75.4962 194.433C75.4962 194.433 76.9812 189.728 77.2782 188.597C77.6346 187.465 77.9316 186.81 78.585 185.738C79.2383 184.666 82.9804 182.403 82.3865 180.974C82.1489 180.438 81.7925 180.021 81.0797 180.974C80.3669 181.927 79.0601 183.535 78.4068 184.488C77.7534 185.44 76.8624 186.512 76.506 187.822C76.1496 189.133 74.9022 194.79 73.1797 196.04C73.1797 196.1 74.4271 196.1 75.4962 194.433Z" fill="black"/>
<path opacity="0.08" d="M77.6331 178.294C76.9203 178.116 76.4452 179.783 75.7918 181.034C75.4354 181.808 72.9406 184.309 72.6437 185.321C72.3467 186.334 71.8121 190.026 71.6339 190.74C71.4557 191.455 70.6835 195.385 68.9609 195.564C69.1391 195.683 69.3767 195.743 69.6143 195.743C69.7925 195.743 70.3271 195.743 70.6241 195.564C71.0399 195.266 71.3963 195.028 71.3963 194.968C72.2873 191.812 73.0594 186.631 73.4752 185.559C74.0692 183.892 76.8609 181.034 77.4549 180.081C78.0489 179.128 78.1677 178.413 77.6331 178.294Z" fill="black"/>
<path opacity="0.08" d="M66.2884 187.108C67.0012 186.095 69.6147 182.642 69.6147 182.642L72.7628 179.783C72.7628 179.783 74.0696 178.235 74.426 177.461C74.7824 176.686 74.2478 176.031 73.832 176.151C73.4162 176.27 72.7034 178.473 71.0997 180.081C70.0899 181.034 69.3177 182.403 68.5455 183.475C67.7734 184.547 65.5162 188.299 63.0215 188.716C63.7937 188.597 65.3974 188.299 66.2884 187.108Z" fill="black"/>
<path d="M128.301 161.025C128.301 161.025 128.479 160.429 129.37 160.37C130.261 160.31 132.34 160.072 132.34 160.072C132.34 160.072 136.26 161.322 137.745 163.764C139.23 166.205 143.388 175.555 136.32 178.89L132.518 178.771L131.568 177.639C131.568 177.639 134.538 176.091 134.3 171.803C134.062 167.337 132.102 161.858 128.301 161.025Z" fill="#D3B62F"/>
<path opacity="0.1" d="M143.032 154.772C138.934 153.343 134.301 155.129 135.904 154.236C137.508 153.343 140.597 152.807 141.963 152.033C143.329 151.258 145.646 150.782 145.527 148.46C145.289 142.564 141.904 146.494 140.953 147.388C139.052 149.174 134.835 151.437 132.875 150.187C131.865 149.531 131.925 147.745 131.628 143.696C131.331 139.646 131.984 137.681 132.637 135.18C133.35 132.44 134.598 131.011 134.182 130.297C133.766 129.582 130.737 133.989 129.549 135.358C128.361 136.728 126.579 135.478 126.876 133.572C127.173 131.666 127.173 128.808 125.985 128.093C124.797 127.379 124.797 130.594 125.272 132.738C125.747 134.882 124.797 141.075 123.371 143.755C121.946 146.435 112.798 156.261 111.195 158.464C109.591 160.667 111.67 161.144 113.274 158.94C114.877 156.737 116.362 154.772 117.313 155.665C118.263 156.558 116.778 162.156 116.778 162.156L118.085 162.037L118.619 159.715C118.619 159.715 119.51 153.76 121.589 150.187C122.896 147.983 126.935 140.956 126.935 140.956C129.014 144.231 131.984 152.866 131.39 154.653C130.796 156.439 132.281 157.928 132.281 157.928C132.281 157.928 139.29 155.189 143.745 157.273C148.2 159.357 151.051 162.454 151.051 162.454C151.051 162.454 150.754 157.452 143.032 154.772Z" fill="black"/>
<path opacity="0.1" d="M87.969 437.101C88.563 443.592 90.1667 447.999 91.5329 450.738C91.4141 450.262 91.3547 449.726 91.2359 449.19C89.6321 440.853 91.2359 436.863 89.2758 432.099C88.6818 430.67 88.0284 429.181 87.375 427.871C87.4344 430.134 87.6126 433.111 87.969 437.101Z" fill="black"/>
<path opacity="0.1" d="M76.9811 475.809C80.1292 477.417 90.0488 477.596 91.8307 474.737C92.7811 473.248 95.5729 464.256 94.8007 460.326C93.9097 468.961 90.0488 475.63 79.5352 472.832C75.4367 471.76 71.1007 466.102 69.4375 463.78C69.4375 463.839 69.4375 463.899 69.4375 463.899C69.4969 465.924 73.833 474.261 76.9811 475.809Z" fill="black"/>
<path opacity="0.1" d="M115.175 475.392C116.6 474.261 118.085 470.271 118.976 466.221C118.323 467.174 116.838 468.961 115.947 469.854C111.967 473.784 106.562 472.951 103.948 471.641C99.256 469.258 94.9199 460.326 94.9199 460.326C94.9199 464.494 97.9492 473.665 99.256 475.035C101.216 477 111.908 477.953 115.175 475.392Z" fill="black"/>
<path d="M98.4238 163.287L98.602 163.049C98.7802 162.811 99.0178 162.692 99.3148 162.692H102.285C102.582 162.692 102.879 162.871 102.998 163.109C103.473 163.942 104.542 165.967 104.839 168.528C105.136 171.148 104.364 173.471 103.888 174.781C103.77 175.138 103.176 175.376 102.819 175.376L99.6712 175.019C99.3742 174.959 99.1366 174.84 99.0178 174.602L98.7802 174.245C98.7802 174.245 99.2554 174.662 99.5524 173.351C99.8494 172.041 100.562 167.337 98.4238 163.287Z" fill="#D2CAA0"/>
<path d="M97.8301 165.967C97.8301 164.479 99.6714 163.288 101.988 163.288C104.305 163.288 106.146 164.479 106.146 165.967C106.146 167.456 104.483 169.064 102.166 169.064C99.909 169.064 97.8301 167.456 97.8301 165.967Z" fill="#D2CAA0"/>
<path d="M98.7207 165.848C98.7207 164.717 100.146 163.823 101.869 163.823C103.591 163.823 105.017 164.717 105.017 165.848C105.017 166.98 103.77 168.23 101.988 168.23C100.324 168.171 98.7207 166.92 98.7207 165.848Z" fill="white"/>
<path opacity="0.05" d="M128.301 161.025C128.301 161.025 128.42 160.608 129.251 160.31C129.608 160.191 130.083 160.131 130.499 160.012C130.974 159.953 131.449 159.953 131.865 160.131C133.29 160.608 136.557 161.858 137.745 163.764C139.23 166.205 143.388 175.555 136.32 178.89L132.518 178.771L131.568 177.639C131.568 177.639 134.538 176.091 134.3 171.803C134.062 167.337 132.102 161.858 128.301 161.025Z" fill="black"/>
<path opacity="0.1" d="M57.9727 120.292V125.056C57.9727 125.056 62.3087 125.473 67.0606 125.473C71.8125 125.473 78.3463 124.103 78.3463 124.103L78.0494 119.637C78.1087 119.637 70.1494 122.079 57.9727 120.292Z" fill="black"/>
<path opacity="0.1" d="M53.8164 196.517C54.4104 195.028 54.1134 194.73 54.4104 190.86C54.648 187.584 59.3999 177.937 60.8254 175.019C59.3405 174.721 58.5683 174.483 58.5683 174.483C58.5683 174.483 53.3412 182.82 51.2623 191.574C50.9653 192.825 47.6984 199.613 45.4412 204.854C35.2247 228.555 39.9172 242.192 47.045 273.337C47.045 273.337 56.7269 308.889 56.7269 319.131L56.3705 334.555C56.3705 334.555 56.9051 334.555 57.7961 334.555C58.1525 328.064 58.9841 311.152 58.2713 308.531C57.3803 305.256 47.5796 262.975 44.3126 250.172C41.0457 237.369 43.1247 220.397 45.2036 214.144C47.2826 207.891 53.2224 198.006 53.8164 196.517Z" fill="white"/>
<path opacity="0.2" d="M73.4172 457.765C70.4473 454.013 70.8037 441.27 70.8037 441.27C70.8037 441.27 69.4375 461.934 69.4375 463.899C69.4375 464.852 70.3879 467.174 71.754 469.616C70.5661 464.792 70.9819 460.921 73.4172 457.765Z" fill="white"/>
<path opacity="0.1" d="M125.152 215.097L121.41 201.817C120.163 197.529 119.094 194.135 119.094 194.135C116.302 184.071 113.866 178.056 113.866 178.056C112.916 178.175 111.966 178.235 111.075 178.294L115.411 192.706L113.035 196.279L117.015 196.695C117.015 196.695 122.182 212.953 123.37 219.742C124.558 226.471 124.558 248.743 123.37 255.472C122.182 262.201 112.263 301.147 111.906 305.077C111.491 309.067 109.53 317.404 109.946 319.37C110.362 321.335 112.322 321.752 114.698 328.124C116.005 331.577 118.084 335.865 119.212 339.557C120.46 339.021 121.232 338.604 121.232 338.604C119.628 325.503 115.886 315.856 116.005 307.698C116.302 291.143 120.876 283.58 124.024 267.918C126.4 256.008 129.37 235.165 125.806 217.3C125.568 216.764 125.39 215.99 125.152 215.097Z" fill="black"/>
<path d="M21.2648 182.522C21.2648 182.522 24.5317 178.116 25.6008 176.865C26.67 175.615 27.9768 175.138 28.8084 175.257C29.2836 175.317 29.6993 175.972 29.6993 175.972C29.9963 175.793 30.5903 175.376 30.8873 175.495C31.6595 175.734 32.1347 176.567 32.0753 177.401L31.8971 179.068L32.1941 179.009C32.9069 178.83 33.6196 179.307 33.7384 180.021L34.2136 182.344C34.273 182.82 35.4016 183.892 35.4016 184.368C35.4016 184.368 36.4708 189.013 34.6888 193.777C34.6888 193.777 34.273 194.909 33.8572 195.683C33.6196 196.159 32.9663 197.172 31.8377 196.934H29.8775C29.8775 196.934 28.452 197.112 27.9174 197.112C27.264 197.112 25.9572 196.457 25.4226 196.1C25.1257 195.862 23.9971 195.683 23.9971 195.683L21.9181 195.147C21.5023 195.028 21.0272 194.671 20.552 194.135C20.0768 193.599 19.6016 192.706 19.1264 192.408C18.8294 192.17 17.9978 191.991 17.6414 191.812C16.3347 191.217 16.2159 189.49 16.2753 188.597C16.2753 187.822 17.9978 185.321 17.9384 184.547C17.8196 181.689 15.5625 180.081 15.5625 180.081L20.3144 183.416L21.2648 182.522Z" fill="#FFDBB0"/>
<path opacity="0.08" d="M29.7003 176.031C29.7003 176.031 28.2747 179.426 27.7401 180.736C27.3244 181.689 26.9086 182.641 26.6116 183.356C26.3146 184.13 25.8394 184.785 25.2454 185.381L20.7311 189.728C20.7311 189.728 20.6717 190.442 21.6815 190.264C22.4537 190.145 25.0672 187.048 26.3146 185.5C26.7304 184.964 27.0868 184.368 27.3244 183.713C27.562 183.058 27.9183 182.105 28.2747 181.153C28.8093 179.842 29.7003 176.031 29.7003 176.031Z" fill="black"/>
<path opacity="0.08" d="M31.8381 178.652C31.8381 178.652 30.2938 184.666 30.2344 185.559C30.175 186.453 27.2051 190.562 25.7795 192.646C25.6013 192.944 26.1359 193.837 27.3833 192.646C28.1554 191.872 30.9472 186.274 31.0066 185.857C31.066 185.44 31.8381 178.652 31.8381 178.652Z" fill="black"/>
<path opacity="0.08" d="M34.1544 182.88C34.1544 182.88 33.8574 186.929 33.4416 187.763C33.0258 188.656 32.1349 192.05 31.0063 193.837C30.8281 194.075 31.5409 195.087 32.1942 193.837C32.61 193.122 34.986 188.061 34.1544 182.88Z" fill="black"/>
<path opacity="0.08" d="M20.2558 183.475L15.5039 180.14C15.5039 180.14 17.761 181.748 17.8798 184.607C17.8798 184.845 17.5235 185.5 17.4047 185.917C18.652 185.024 20.2558 183.475 20.2558 183.475Z" fill="black"/>
<path opacity="0.05" d="M157.644 164.062C156.397 148.876 146.299 119.518 141.191 105.107C139.587 100.64 135.964 94.9829 134.36 92.8987C132.875 90.993 130.143 90.2189 126.46 89.7425C126.401 89.6234 126.341 89.5043 126.282 89.3852C119.57 75.6885 117.728 37.2189 114.343 25.0706C110.244 10.3616 102.047 0.0593262 88.3262 0.0593262V19.1751C89.039 19.1751 89.7517 19.4133 90.4051 19.7706C95.157 22.629 97.4735 26.6189 99.1961 28.3458C101.394 30.5492 107.452 46.8661 110.304 49.7245C112.323 51.7492 110.363 71.8773 109.056 83.1919L104.958 81.9414L103.473 81.0481C103.473 81.0481 103.473 83.4301 102.166 87.5987C100.859 91.7672 92.7811 106.238 91.7119 111.836C90.5239 118.208 88.9202 124.222 88.9202 124.222V177.222V338.247C89.3953 338.426 89.9299 338.604 90.4051 338.783C88.8014 353.016 97.6517 383.982 98.7803 395.296C99.6713 403.872 100.562 417.509 100.146 420.784C99.7307 424.059 98.1269 428.943 98.5427 431.027C98.7209 431.92 98.7803 433.409 98.8397 435.076C98.6615 432.694 98.5427 431.027 98.5427 431.027C98.5427 431.027 98.0081 444.187 97.5923 448.713C97.1766 453.18 94.9194 456.157 94.8006 460.207C94.8006 460.445 94.8006 460.742 94.8006 460.981C95.0382 465.387 97.8299 473.784 99.1367 475.094C101.156 477.059 111.848 478.012 115.115 475.452C117.669 473.427 120.52 461.993 119.332 458.063C118.144 454.073 116.362 442.58 116.362 440.198C116.362 438.173 114.996 435.076 114.64 434.302C114.58 433.707 114.58 433.29 114.58 433.052C114.58 430.193 115.412 423.643 114.996 419.95C114.58 416.258 116.897 396.785 118.976 387.019C120.995 377.193 122.183 355.636 120.58 342.535C120.461 341.522 120.283 340.331 120.104 339.378C120.401 339.259 121.174 338.783 121.174 338.783C119.57 325.682 115.828 316.035 115.946 307.876C116.243 291.321 120.817 283.758 123.965 268.096C126.341 256.186 129.311 235.344 125.747 217.478C125.628 216.883 125.45 216.109 125.213 215.216L121.471 201.936C120.223 197.648 119.154 194.254 119.154 194.254C116.362 184.19 113.927 178.175 113.927 178.175L114.343 176.448C114.818 176.508 115.293 176.567 115.828 176.627C115.828 176.627 115.828 176.627 115.887 176.627C116.422 176.686 116.956 176.746 117.491 176.805C117.55 176.805 117.55 176.805 117.61 176.805C118.144 176.865 118.679 176.925 119.213 176.984C119.273 176.984 119.332 176.984 119.392 176.984C119.926 177.044 120.461 177.103 120.995 177.103C121.055 177.103 121.174 177.103 121.233 177.103C121.768 177.163 122.302 177.222 122.837 177.222C122.896 177.222 123.015 177.222 123.074 177.222C123.609 177.282 124.143 177.282 124.678 177.341C124.737 177.341 124.856 177.341 124.916 177.341C125.45 177.401 126.044 177.401 126.579 177.46C126.638 177.46 126.698 177.46 126.757 177.46C127.351 177.52 127.945 177.52 128.48 177.52H128.539C129.133 177.52 129.727 177.58 130.321 177.58H130.38C130.737 177.58 131.152 177.58 131.509 177.58L132.459 178.711L133.41 178.771C134.122 179.842 134.954 180.676 135.726 181.033C141.428 183.535 141.725 180.021 144.636 179.366C152.477 177.699 155.209 175.019 155.803 174.126C156.397 173.232 158.238 171.565 157.644 164.062ZM115.828 446.391C115.471 442.639 115.056 438.768 114.818 436.089C115.056 438.411 115.531 442.46 115.828 446.391ZM129.014 160.429C128.539 160.548 128.361 160.786 128.301 160.965C127.886 161.024 127.529 161.025 127.113 161.084C126.935 161.084 126.816 161.144 126.638 161.144C126.104 161.203 125.569 161.263 124.975 161.263C124.856 161.263 124.737 161.263 124.619 161.263C124.203 161.322 123.728 161.322 123.312 161.382C123.134 161.382 122.896 161.382 122.718 161.441C122.362 161.441 122.005 161.501 121.649 161.501C121.411 161.501 121.233 161.501 120.995 161.56C120.639 161.56 120.342 161.62 119.986 161.62C119.748 161.62 119.57 161.62 119.332 161.68C118.976 161.68 118.619 161.739 118.322 161.739C118.263 161.739 118.144 161.739 118.085 161.739L118.619 159.655C118.619 159.655 119.51 153.7 121.589 150.127C122.896 147.923 126.935 140.896 126.935 140.896C129.014 144.172 131.984 152.807 131.39 154.593C130.796 156.38 132.281 157.868 132.281 157.868L129.014 160.429Z" fill="black"/>
</g>
<defs>
<clipPath id="clip0">
<rect width="158" height="477" fill="white"/>
</clipPath>
</defs>
</svg>
