<svg width="134" height="485" viewBox="0 0 134 485" fill="none" xmlns="http://www.w3.org/2000/svg">
<path opacity="0.1" fill-rule="evenodd" clip-rule="evenodd" d="M81.4555 484.993C105.299 485.255 119.479 478.346 119.196 469.539C118.927 461.158 99.1372 454.348 79.848 454.61C44.9505 455.084 39.6621 461.618 39.6621 470.587C39.6621 479.556 46.8812 484.613 81.4555 484.993Z" fill="black"/>
<path d="M103.521 212.963L101.646 207.794L101.021 185.186C101.021 185.186 101.646 182.516 101.078 177.518C100.85 175.302 101.816 166.441 102.214 157.125C102.725 145.537 103.35 133.552 103.35 133.552L105.963 146.901L108.691 174.109L129.37 165.986C127.155 145.935 128.916 153.547 127.552 136.222C126.416 122.191 124.712 119.181 120.167 101.969L120.11 102.14C119.485 99.7542 118.633 94.1307 113.633 90.1544C113.633 90.1544 103.066 83.7357 85.2267 79.8731C84.0905 79.4187 82.7838 78.737 81.5339 77.6578C80.0567 75.7833 78.8637 71.9775 78.5796 67.5468C81.3066 65.1611 83.4655 62.3778 84.4314 60.3329C85.7381 57.4359 85.2267 54.4253 85.7949 50.3923C88.7491 51.8692 92.5556 37.9525 91.0217 35.5667C89.6013 33.3514 87.6697 35.2827 87.3856 35.5099V29.148C87.3856 13.1295 78.466 8.98291 67.5011 8.98291C56.4793 8.98291 47.5597 13.1295 47.5597 29.148V35.5667C47.5597 35.5667 45.4008 33.2378 43.9237 35.5667C42.3897 37.8957 46.3098 51.926 49.2073 50.3355C49.8322 54.3117 49.2641 57.3223 50.5708 60.2192C51.4798 62.2642 53.6387 64.9907 56.3657 67.3764C56.5361 67.49 56.5361 67.49 56.3657 67.3764C56.0816 71.9207 54.8318 75.7833 53.3546 77.6578C52.1047 78.7938 50.7412 79.4755 49.605 79.8731C48.6959 80.1003 22.2779 87.6551 17.2215 91.5177C13.5287 94.3579 15.2331 96.914 13.9264 101.913C9.38133 119.124 7.67693 122.191 6.54067 136.165C5.12035 153.49 6.88155 145.821 4.72266 165.93L25.4026 174.053L29.3227 134.802C30.1749 139.914 31.0839 153.831 31.8793 162.522C32.1634 166.1 32.3906 200.92 31.8793 205.521C31.5384 208.362 30.1749 213.871 30.743 215.576C31.3112 217.28 28.3001 236.933 28.0728 245.284C27.9024 250.793 27.7887 274.708 28.925 284.534C31.2543 304.472 36.3107 324.865 36.7084 329.409C37.1061 333.953 39.549 343.042 38.4128 351.392C37.2765 359.742 35.4017 375.419 36.8788 389.052C38.356 402.685 45.0031 431.825 46.5371 439.436C48.071 446.991 42.7306 461.987 42.7306 461.987L62.4447 463.691L61.5925 451.195C61.5925 451.195 67.5579 443.072 63.9787 431.882C62.1038 426.088 64.7172 393.255 63.9787 384.565C63.2401 375.874 61.3084 352.187 61.7061 349.915C62.1038 347.643 64.7172 338.554 64.7172 330.999C64.7172 323.445 63.581 307.88 64.3195 297.315C65.0581 286.693 67.9556 248.067 67.9556 248.067C67.9556 248.067 71.7052 294.645 73.9777 304.529C76.2503 314.356 76.1366 329.806 77.2729 335.487C78.4092 341.167 76.8752 346.45 77.2729 350.653C77.6706 354.857 76.8184 373.658 76.4207 388.03C76.023 402.401 76.4207 424.554 76.4207 432.166C76.4207 439.777 73.9777 438.584 75.8526 446.366C76.8184 450.399 76.4207 451.649 76.4207 453.58C76.4207 455.512 76.4207 463.066 76.4207 463.066L94.6009 462.669C94.6009 462.669 93.2374 445.06 93.9759 440.913C94.7145 436.767 101.589 406.263 103.521 386.95C104.43 377.919 100.566 352.471 102.1 343.78C103.634 335.089 108.804 309.017 109.543 292.771C110.281 276.468 109.713 243.295 107.895 231.424C106.929 225.005 104.259 219.381 103.521 212.963Z" fill="#FFDBB0"/>
<path opacity="0.1" d="M26.9924 230.23C26.9924 230.23 22.3337 240.909 22.4474 242.727C22.561 244.545 26.4243 249.089 26.4243 249.089L26.9924 230.23Z" fill="black"/>
<path opacity="0.05" d="M107.666 87.3143C102.041 83.7357 92.4399 81.4636 85.111 79.8731C83.9748 79.4187 82.6681 78.737 81.4182 77.6578C79.941 75.7833 78.748 71.9775 78.4639 67.5468C81.1909 65.1611 83.3498 62.3778 84.3156 60.3329C85.6223 57.4359 85.111 54.4253 85.6792 50.3923C88.6334 51.8692 92.4399 37.9525 90.906 35.5667C89.4856 33.3514 87.554 35.2827 87.2699 35.5099V29.148C87.2699 13.1295 78.3503 8.98291 67.3854 8.98291V72.3751C65.965 72.3751 64.3743 72.3751 62.8403 71.6935C60.5678 70.7278 58.2385 69.1373 56.25 67.3764L90.0538 101.174H115.904C114.256 95.8915 114.313 91.5177 107.666 87.3143Z" fill="black"/>
<path d="M63.9201 36.305C63.2383 36.8731 62.2157 36.6459 60.5681 36.021C56.8753 34.6578 57.1025 33.5785 53.296 34.4305C51.7621 34.7714 50.9667 36.305 50.9667 36.305C50.9667 36.305 50.6258 34.601 52.2734 33.4649C54.6595 31.8176 61.0794 32.9537 63.0111 33.9193C64.545 34.6578 64.3746 35.9074 63.9201 36.305Z" fill="#534741"/>
<path d="M53.6387 39.7131C53.6387 39.7131 55.059 41.8148 58.0133 41.8148C60.9676 41.8148 62.047 39.7131 62.047 39.7131C62.047 39.7131 59.9449 38.009 57.5588 38.009C55.1726 38.009 53.6387 39.7131 53.6387 39.7131Z" fill="white"/>
<path d="M56.2532 38.1797C55.9691 38.5205 55.8555 38.9181 55.8555 39.3725C55.8555 40.5086 56.7645 41.4174 57.9007 41.4174C59.037 41.4174 59.946 40.5086 59.946 39.3725C59.946 38.9749 59.8324 38.6341 59.6619 38.3501C59.037 38.1229 58.4121 38.0092 57.6735 38.0092C57.1054 37.9524 56.6508 38.0661 56.2532 38.1797Z" fill="#3B93B2"/>
<path d="M57.8428 40.452C58.3762 40.452 58.8086 40.0195 58.8086 39.486C58.8086 38.9525 58.3762 38.52 57.8428 38.52C57.3094 38.52 56.877 38.9525 56.877 39.486C56.877 40.0195 57.3094 40.452 57.8428 40.452Z" fill="#534741"/>
<path d="M53.0668 39.8269C53.5781 38.9748 54.3735 38.4636 55.2257 38.1228C56.0779 37.782 56.9869 37.6116 57.8391 37.6116C58.2936 37.6116 58.7481 37.6684 59.2026 37.7252C59.6571 37.8388 60.0548 37.9524 60.5093 38.1228C61.3047 38.5204 62.0433 39.0885 62.5546 39.8269C62.6682 39.9405 62.6682 40.1109 62.6114 40.2245C62.5546 40.3381 62.441 40.3949 62.3273 40.4517C62.2137 40.5085 62.1001 40.5653 61.9864 40.5085C61.8728 40.5085 61.7592 40.4517 61.7024 40.4517C61.5319 40.3949 61.4183 40.5653 61.2479 40.6789C61.0774 40.7925 60.907 40.9061 60.7366 41.0198L61.1911 40.6221L61.4183 40.3949C61.4751 40.3381 61.6456 40.2813 61.7592 40.2813C61.9864 40.3381 62.1001 40.3949 62.2705 40.2813C62.441 40.1677 62.4978 40.0541 62.4409 39.9405C61.9296 39.2589 61.2479 38.8044 60.4525 38.4636C59.6571 38.1796 58.8617 38.066 58.0095 38.066C57.1573 38.1228 56.362 38.2364 55.5666 38.5772C54.828 38.8612 54.0894 39.3725 53.6349 39.9405V39.9973C53.5781 40.1109 53.4077 40.1109 53.294 40.0541C53.01 40.1109 53.01 39.9405 53.0668 39.8269Z" fill="#826F67"/>
<path d="M56.7634 40.0544C57.0772 40.0544 57.3316 39.8 57.3316 39.4862C57.3316 39.1724 57.0772 38.918 56.7634 38.918C56.4497 38.918 56.1953 39.1724 56.1953 39.4862C56.1953 39.8 56.4497 40.0544 56.7634 40.0544Z" fill="white"/>
<path d="M71.1912 36.305C71.873 36.8731 72.8956 36.6459 74.5432 36.021C78.236 34.6578 78.0088 33.5785 81.8152 34.4305C83.3492 34.7714 84.1446 36.305 84.1446 36.305C84.1446 36.305 84.4855 34.601 82.8379 33.4649C80.4517 31.8176 74.0319 32.9537 72.1002 33.9193C70.5663 34.6578 70.7367 35.9074 71.1912 36.305Z" fill="#534741"/>
<path d="M81.4767 39.7131C81.4767 39.7131 80.0564 41.8148 77.1021 41.8148C74.1478 41.8148 73.0684 39.7131 73.0684 39.7131C73.0684 39.7131 75.1704 38.009 77.5566 38.009C79.9427 38.009 81.4767 39.7131 81.4767 39.7131Z" fill="white"/>
<path d="M78.8628 38.1797C79.1468 38.5205 79.2605 38.9181 79.2605 39.3725C79.2605 40.5086 78.3515 41.4174 77.2152 41.4174C76.0789 41.4174 75.1699 40.5086 75.1699 39.3725C75.1699 38.9749 75.2835 38.6341 75.454 38.3501C76.0789 38.1229 76.7039 38.0092 77.4424 38.0092C78.0106 37.9524 78.4651 38.0661 78.8628 38.1797Z" fill="#3B93B2"/>
<path d="M77.2705 40.452C77.8039 40.452 78.2363 40.0195 78.2363 39.486C78.2363 38.9525 77.8039 38.52 77.2705 38.52C76.7371 38.52 76.3047 38.9525 76.3047 39.486C76.3047 40.0195 76.7371 40.452 77.2705 40.452Z" fill="#534741"/>
<path d="M81.59 40.1107C81.1354 39.4858 80.3969 39.0314 79.6583 38.7474C78.9197 38.4066 78.0675 38.293 77.2153 38.2362C76.3632 38.1794 75.5678 38.293 74.7724 38.6338C74.0338 38.9178 73.2952 39.429 72.7839 40.1107C72.7271 40.1675 72.7839 40.3379 72.9544 40.4515C73.1248 40.5651 73.2384 40.5083 73.4657 40.4515C73.5793 40.4515 73.6929 40.5083 73.8066 40.5651L74.0338 40.7923L74.4883 41.1899C74.3179 41.0763 74.1474 40.9627 73.977 40.8491C73.8066 40.7355 73.6361 40.5651 73.5225 40.6219C73.4657 40.6219 73.3521 40.6787 73.2384 40.6787C73.1248 40.6787 73.0112 40.6787 72.8976 40.6219C72.7839 40.5651 72.7271 40.5083 72.6135 40.3947C72.5567 40.2811 72.5567 40.1107 72.6703 39.9971C73.1816 39.2586 73.8634 38.6338 74.7156 38.293C75.1133 38.0658 75.5678 37.9522 76.0223 37.8953C76.4768 37.8385 76.9313 37.7817 77.3858 37.7817C78.2948 37.7817 79.2038 37.9521 79.9992 38.293C80.8514 38.6338 81.59 39.145 82.1581 39.9971C82.2149 40.1107 82.2149 40.2811 82.1013 40.3379C81.874 40.2811 81.7036 40.2243 81.59 40.1107Z" fill="#826F67"/>
<path d="M76.3064 40.0544C76.6202 40.0544 76.8745 39.8 76.8745 39.4862C76.8745 39.1724 76.6202 38.918 76.3064 38.918C75.9926 38.918 75.7383 39.1724 75.7383 39.4862C75.7383 39.8 75.9926 40.0544 76.3064 40.0544Z" fill="white"/>
<path opacity="0.1" d="M71.4749 51.6419C71.134 51.1873 70.225 50.9032 69.4296 51.301C68.6911 51.6987 67.3844 51.9829 67.3844 51.9829C67.3844 51.9829 66.1345 51.6987 65.3391 51.301C64.6005 50.9032 63.6347 51.1873 63.2938 51.6419C62.953 52.0965 64.8846 52.4374 65.68 52.7215C66.4754 53.0057 66.7594 53.3466 67.3276 53.3466C67.8957 53.3466 68.1798 53.0057 68.9751 52.7215C69.7705 52.4374 71.8158 52.0965 71.4749 51.6419Z" fill="black"/>
<path opacity="0.1" d="M68.8084 56.6977C68.2971 56.6409 67.8426 56.9817 67.4449 56.9817C67.0472 56.9817 66.4791 56.5841 65.911 56.6977C65.3996 56.7545 61.1387 58.7426 61.1387 58.7426C61.1387 58.7426 62.0477 59.3106 62.2749 59.5378C62.5022 59.765 62.6726 60.5603 63.2408 61.3555C64.2634 62.7188 66.3087 62.378 67.3313 62.378C68.4107 62.378 70.5696 62.7756 71.5355 61.3555C72.1036 60.5603 72.1604 59.765 72.3877 59.5378C72.6149 59.3106 73.6943 58.7426 73.6943 58.7426C73.6943 58.7426 69.3197 56.7545 68.8084 56.6977Z" fill="black"/>
<path opacity="0.1" d="M72.4445 59.5388C72.6717 59.3115 73.7512 58.7433 73.7512 58.7433C73.7512 58.7433 69.3766 56.7545 68.8084 56.6977C68.2971 56.6408 67.8426 56.9818 67.4449 56.9818C67.0472 56.9818 66.4791 56.584 65.911 56.6977C65.3996 56.7545 61.1387 58.7433 61.1387 58.7433C61.1387 58.7433 62.0477 59.3115 62.2749 59.5388C62.2749 59.5388 64.1498 59.141 65.0588 59.141C65.9678 59.141 69.2061 59.0842 69.8879 59.0842C70.5696 59.0842 72.4445 59.5388 72.4445 59.5388Z" fill="black"/>
<path d="M79.0332 21.4223C87.1007 21.4223 84.1464 27.6707 84.6009 28.4659C86.7598 32.6125 85.3394 39.5993 85.3394 39.5993L87.3279 35.5663C87.3279 35.5663 88.8619 19.7182 83.5782 14.2651C83.5782 14.2651 81.4762 15.5148 80.3399 17.2189C79.5445 18.5254 79.0332 21.4223 79.0332 21.4223Z" fill="#534741"/>
<path d="M55.7963 21.4225C47.7289 21.4225 50.6831 27.6708 50.2286 28.4661C48.0697 32.6127 49.4901 39.5995 49.4901 39.5995L47.5016 35.5664C47.5016 35.5664 45.854 19.7752 51.1945 14.3789C51.1945 14.3789 53.1829 15.6286 54.3192 17.4463C55.4554 19.264 55.7963 21.4225 55.7963 21.4225Z" fill="#534741"/>
<path opacity="0.2" d="M79.0332 21.4223C87.1007 21.4223 84.1464 27.6707 84.6009 28.4659C86.7598 32.6125 85.3394 39.5993 85.3394 39.5993L87.3279 35.5663C87.3279 35.5663 88.8619 19.7182 83.5782 14.2651C83.5782 14.2651 81.4762 15.5148 80.3399 17.2189C79.5445 18.5254 79.0332 21.4223 79.0332 21.4223Z" fill="white"/>
<path opacity="0.2" d="M55.7963 21.4225C47.7289 21.4225 50.6831 27.6708 50.2286 28.4661C48.0697 32.6127 49.4901 39.5995 49.4901 39.5995L47.5016 35.5664C47.5016 35.5664 45.854 19.7752 51.1945 14.3789C51.1945 14.3789 53.1829 15.6286 54.3192 17.4463C55.4554 19.264 55.7963 21.4225 55.7963 21.4225Z" fill="white"/>
<path d="M29.0379 211.77C30.231 210.974 57.899 211.599 61.6486 210.974C61.7622 210.974 85.5101 211.542 68.7503 210.69L105.679 211.542C105.792 211.542 105.906 211.656 105.906 211.77C106.645 218.132 107.951 224.778 108.86 230.912C109.144 232.957 111.758 240.512 111.928 243.636C111.985 244.375 113.405 246.249 113.348 247.044C113.235 249.43 111.133 249.714 111.19 251.986C111.644 266.641 110.224 281.069 109.712 292.146C109.485 296.463 109.031 301.518 108.463 306.744L106.929 318.673C106.417 322.195 105.849 325.546 105.451 328.727C104.94 332.533 106.531 334.521 106.815 335.941C107.099 337.361 104.827 338.1 104.429 339.349C104.031 340.599 105.679 342.076 105.679 343.212C105.679 344.348 104.088 345.03 103.69 346.336C103.293 347.643 104.542 348.892 104.94 349.631C105.338 350.369 102.668 353.209 102.838 354.516C102.952 355.879 104.258 359.514 104.542 361.275C104.997 364.115 105.679 374.454 104.486 386.496C103.918 392.062 101.418 404.9 101.418 404.9C98.4067 420.918 98.8044 422.85 98.6339 424.44C98.5203 425.974 97.1568 426.088 96.6455 426.712C96.5886 426.769 96.5318 426.826 96.4182 426.826L76.7041 427.678C76.5336 427.678 76.3632 427.564 76.42 427.451C79.3743 421.6 71.7045 422.168 74.8292 412.512C75.3406 410.978 74.6588 400.413 74.7156 398.765C74.602 395.243 74.5452 391.835 74.6588 388.768C75.0565 374.397 75.9087 355.538 75.511 351.392C75.1133 347.245 75.9655 342.133 74.8292 336.452C73.693 330.772 72.5567 320.832 72.2727 306.063C72.159 299.076 69.0911 275.503 68.2957 261.87C68.2389 261.188 67.2163 261.188 67.1595 261.87C66.5345 273.117 65.6255 290.385 65.1142 297.315C64.3757 307.937 64.7165 323.331 64.7165 330.942C64.7165 338.554 62.8417 347.699 62.444 349.971C62.0463 352.244 64.887 374.965 64.7165 384.621C64.6597 387.007 64.4325 407.172 66.5914 414.557C67.5572 417.794 63.5235 422.452 63.1826 423.929C62.6144 426.542 64.0348 426.372 64.262 429.041C64.262 429.212 64.1484 429.325 63.978 429.325L44.0366 427.848C43.9798 427.848 43.923 427.792 43.8661 427.735C43.0139 426.769 41.8209 425.235 41.6504 423.815C41.5368 423.02 40.6278 417.397 39.4915 410.524C37.3895 402.514 34.7192 386.439 34.0943 377.407C33.7534 372.579 33.4694 363.207 33.7534 361.389C33.9807 360.026 34.492 357.981 35.5146 355.254C35.9691 354.004 32.6172 352.755 33.2421 351.846C36.6509 347.018 32.3899 347.302 32.3899 344.746C32.3899 342.928 35.3442 341.905 33.9807 340.315C32.1058 338.27 32.2195 337.134 32.7308 335.487C33.4125 333.101 33.1853 329.125 32.6172 325.546C32.1627 322.876 28.3562 302.427 26.6518 285.216C25.686 275.446 22.7317 257.439 22.6181 251.702L21.1977 249.941C20.6296 248.976 20.6296 248.351 20.5728 247.044C20.516 246.249 25.061 239.717 25.1178 238.978C25.3451 235.854 25.5723 233.128 25.9132 231.083C26.8222 224.948 28.1289 218.302 28.8675 211.94L29.0379 211.77Z" fill="#4390BA"/>
<path opacity="0.1" d="M71.4191 223.301C71.4191 223.301 71.7031 247.613 71.4191 250.453C71.135 253.293 67.8398 255.679 67.8398 255.679V220.518H71.3623C71.3054 220.461 71.6463 223.471 71.4191 223.301Z" fill="black"/>
<path d="M42.4452 425.633C42.4452 425.633 41.7067 426.372 41.8771 427.053C42.0475 427.735 43.8656 433.586 44.3201 435.403C44.7746 437.221 57.9552 437.846 64.091 434.722C65.5681 433.983 64.7728 429.723 65.3409 426.201C65.909 422.679 64.091 421.941 64.091 421.941C64.091 421.941 62.8411 427.792 42.4452 425.633Z" fill="#3D85A5"/>
<path d="M97.8963 425.804C97.8963 425.804 98.6348 426.542 98.4644 427.224C98.2939 427.906 96.4759 433.756 96.0214 435.574C95.5669 437.392 82.3863 438.017 76.2505 434.892C74.7733 434.154 75.5687 429.894 75.0006 426.372C74.4325 422.85 76.2505 422.112 76.2505 422.112C76.2505 422.112 77.5004 427.906 97.8963 425.804Z" fill="#3D85A5"/>
<path d="M43.5793 455.114C43.1816 456.193 41.6477 458.749 41.1364 459.885C39.8865 462.555 39.3752 464.657 39.432 467.611C39.4888 469.883 39.8865 470.564 40.0569 470.905C40.0569 470.905 41.4772 475.109 45.6814 475.79C49.8856 476.472 54.5442 476.074 57.1008 475.62C59.6574 475.166 63.5775 474.2 64.5433 472.723C65.2819 471.587 66.475 470.962 66.1909 465.907C65.9069 460.794 65.5092 454.773 65.7932 449.888C65.85 448.923 65.7932 447.9 65.566 446.934L64.9978 443.81L62.7253 443.413C62.7253 443.413 62.3276 441.538 58.9188 441.311C55.5101 441.084 49.147 441.197 48.0107 441.993C46.1927 443.242 46.42 444.378 46.42 444.378L45.1133 445.344C44.9428 445.458 45.0565 446.934 45.0565 447.105C44.9428 448.184 45.1701 449.888 44.9997 450.967C44.6588 453.353 44.0906 453.751 43.5793 455.114Z" fill="#22B25C"/>
<path opacity="0.2" d="M46.4239 444.492L45.1172 445.457C44.9468 445.571 45.0604 447.048 45.0604 447.218C44.9468 448.297 45.174 450.001 45.0036 451.081C44.7195 453.353 44.1514 453.75 43.5832 455.114C43.1856 456.193 41.6516 458.749 41.1403 459.885C39.8904 462.555 39.3791 464.657 39.4359 467.61C39.4359 468.746 39.5495 469.485 39.72 469.939C39.6631 469.826 39.6631 469.769 39.6063 469.655L39.3223 470.223L39.4359 472.95C39.4359 472.95 40.913 474.256 41.9357 475.052C41.2539 471.075 41.3675 459.601 44.7763 457.329C47.6738 455.398 46.4807 449.377 46.4807 444.037C46.3671 444.321 46.4239 444.492 46.4239 444.492Z" fill="white"/>
<path d="M45.0028 447.218C44.8891 448.297 45.1164 450.001 44.946 451.081C44.6619 453.353 44.0938 453.75 43.5256 455.114C43.1279 456.193 40.5713 460.51 40.2305 461.93C42.7302 459.601 45.4573 459.09 46.6503 455.227C47.9002 450.967 46.3663 444.548 46.3663 444.548L45.0596 445.514C44.946 445.571 45.0028 446.991 45.0028 447.218Z" fill="#00933B"/>
<path d="M65.0002 443.924L62.7276 443.526C62.7276 443.526 62.7276 443.469 62.6708 443.412C62.1595 444.605 61.5346 446.139 61.0801 447.616C59.8302 451.706 58.1826 455.909 60.796 458.92C63.6366 462.101 65.7955 464.713 66.0796 468.008C65.8524 463.18 65.5683 454.603 65.7955 450.002C65.8524 449.036 65.7955 448.013 65.6251 447.048L65.0002 443.924Z" fill="#00933B"/>
<path opacity="0.1" d="M66.4776 257.042C65.3414 255.508 55.8536 249.089 50.9677 249.089C46.0249 249.089 44.8887 249.828 44.8887 249.828L66.4776 257.042Z" fill="black"/>
<path opacity="0.1" d="M65.0022 258.178C65.0022 258.178 58.9232 258.575 55.9121 257.439C52.901 256.303 57.446 260.848 60.0594 260.848C62.7297 260.848 65.0022 258.178 65.0022 258.178Z" fill="black"/>
<path opacity="0.1" d="M70.9688 255.735C70.9688 255.735 80.5702 250.453 83.5244 251.191C86.4787 251.986 86.1378 248.749 84.3198 248.237C82.445 247.783 75.9115 250.339 70.9688 255.735Z" fill="black"/>
<path opacity="0.1" d="M70.2852 257.78C70.2852 257.78 77.1027 257.042 79.3752 255.906C81.6478 254.769 83.1817 257.439 83.1817 257.439C83.1817 257.439 76.3642 260.847 70.2852 257.78Z" fill="black"/>
<path d="M38.8672 290.158H53.2409L38.8672 293.566H53.2409L38.8672 297.372H53.2409" stroke="#5FCEFF" stroke-linecap="round" stroke-linejoin="round"/>
<path d="M86.9316 317.537H101.362L86.9316 320.945H101.362L86.9316 324.751H101.362" stroke="#5FCEFF" stroke-linecap="round" stroke-linejoin="round"/>
<path d="M88.0668 21.7636C85.5102 23.1836 85.5102 22.0476 79.0335 21.4227C72.5569 20.7979 69.8866 19.7755 67.4437 21.3659C65.0007 22.9564 55.797 21.4227 55.797 21.4227L50.8543 14.6632C50.8543 14.6632 50.1725 3.7002 60.967 0.860048C71.7615 -1.9801 78.0109 4.77946 82.7832 5.46109C82.7832 5.46109 82.1583 6.54035 79.8857 7.27879C79.8857 7.27879 83.6922 11.6526 87.101 9.55091C90.5098 7.4492 87.8396 5.5747 87.8396 5.5747C87.8396 5.5747 94.4867 9.3805 88.8054 15.9697C88.8054 15.9697 89.4871 16.4809 91.0211 15.9129C91.0779 15.9697 90.3393 20.5139 88.0668 21.7636Z" fill="#534741"/>
<path opacity="0.1" d="M55.6852 15.5148C55.6852 15.5148 55.4011 9.83445 57.6736 8.41437C59.9462 6.9943 63.355 7.27831 63.355 7.27831C63.355 7.27831 60.7984 7.27831 60.2302 10.4025C60.2302 10.4025 63.9231 8.41437 67.5023 9.38002C71.0815 10.3457 71.4792 11.3681 73.2972 11.9362C75.1153 12.5042 76.1379 12.3906 76.1379 12.3906C76.1379 12.3906 75.1153 14.0947 73.8654 14.5491C72.6155 15.0035 62.5028 12.845 60.7984 15.4011C59.094 17.9573 59.378 19.0933 59.378 19.0933L57.6736 16.1396L55.6852 15.5148Z" fill="white"/>
<path opacity="0.05" d="M87.8962 5.57508C87.8962 5.57508 90.5664 7.44958 87.1577 9.55129C83.7489 11.653 79.9424 7.27917 79.9424 7.27917C82.2149 6.54073 82.8399 5.46147 82.8399 5.46147C79.0902 4.95025 74.4315 0.633217 67.3867 0.235596V21.4799C67.4435 21.4799 67.5003 21.4231 67.5003 21.4231C69.8865 19.8326 72.6135 20.8551 79.0902 21.4799C80.2265 21.5935 81.1923 21.7071 81.9877 21.8776C86.3623 23.2408 84.317 27.8987 84.6579 28.5803C86.8168 32.7269 85.3965 39.7137 85.3965 39.7137L87.3849 35.6807C87.3849 35.6807 88.0667 28.6939 86.9872 22.3888C87.3281 22.2752 87.669 22.1048 88.1235 21.8776C90.396 20.6279 91.0778 16.0836 91.0778 16.0836C89.487 16.6517 88.862 16.1404 88.862 16.1404C94.5434 9.38088 87.8962 5.57508 87.8962 5.57508Z" fill="black"/>
<path d="M48.1842 49.1998C48.6549 49.1998 49.0364 48.8182 49.0364 48.3475C49.0364 47.8767 48.6549 47.4951 48.1842 47.4951C47.7136 47.4951 47.332 47.8767 47.332 48.3475C47.332 48.8182 47.7136 49.1998 48.1842 49.1998Z" fill="#CCCCCC"/>
<path d="M44.0352 457.046C44.0352 457.046 47.1599 455.909 51.1368 455.682C55.1137 455.512 60.4541 456.875 60.4541 456.875" stroke="#00933B" stroke-width="3"/>
<path d="M45.9668 453.297C47.2735 452.956 49.0915 452.615 51.1936 452.501C55.1705 452.331 60.5109 453.695 60.5109 453.695" stroke="#00933B" stroke-width="3"/>
<path d="M46.1934 450.172C47.5001 449.831 49.3181 449.49 51.3633 449.377C55.3403 449.206 60.6807 450.57 60.6807 450.57" stroke="#00933B" stroke-width="3"/>
<path d="M95.9629 455.113C96.3606 456.193 97.8945 458.749 98.4058 459.885C99.6557 462.555 100.167 464.656 100.11 467.61C100.053 469.882 99.6557 470.564 99.4853 470.905C99.4853 470.905 97.7809 473.858 93.7472 475.392C89.7135 476.926 84.7707 476.244 82.2709 475.847C79.7144 475.392 75.9647 474.313 75.0557 472.836C74.3171 471.7 73.124 471.075 73.4081 466.02C73.6922 460.907 74.0899 454.886 73.8058 450.001C73.749 449.036 73.8058 448.013 74.0331 447.047L74.6012 443.923L76.8737 443.526C76.8737 443.526 77.2714 441.651 80.6802 441.424C84.089 441.197 90.452 441.31 91.5883 442.106C93.4063 443.355 93.1791 444.491 93.1791 444.491L94.4858 445.457C94.6562 445.571 94.5426 447.047 94.5426 447.218C94.6562 448.297 94.4289 450.001 94.5994 451.08C94.8834 453.353 95.4516 453.75 95.9629 455.113Z" fill="#22B25C"/>
<path d="M94.5422 447.218C94.6559 448.297 94.4286 450.001 94.599 451.081C94.8831 453.353 95.4512 453.75 96.0194 455.114C96.4171 456.193 98.9736 460.51 99.3145 461.93C96.8147 459.601 94.0877 459.09 92.8946 455.227C91.6448 450.967 93.1787 444.548 93.1787 444.548L94.4854 445.514C94.599 445.571 94.5422 446.991 94.5422 447.218Z" fill="#00933B"/>
<path d="M74.5462 443.924L76.8188 443.526C76.8188 443.526 76.8188 443.469 76.8756 443.412C77.3869 444.605 78.0118 446.139 78.4663 447.616C79.7162 451.706 81.3638 455.909 78.7504 458.92C75.9098 462.101 73.7509 464.713 73.4668 468.008C73.694 463.18 73.9781 454.603 73.7509 450.002C73.694 449.036 73.7509 448.013 73.9213 447.048L74.5462 443.924Z" fill="#00933B"/>
<path d="M95.5069 457.046C95.5069 457.046 92.3821 455.909 88.4052 455.682C84.4283 455.512 79.0879 456.875 79.0879 456.875" stroke="#00933B" stroke-width="3"/>
<path d="M93.5773 453.297C92.2706 452.956 90.4526 452.615 88.3505 452.501C84.3736 452.331 79.0332 453.695 79.0332 453.695" stroke="#00933B" stroke-width="3"/>
<path d="M93.3487 450.172C92.042 449.831 90.2239 449.49 88.1787 449.377C84.2018 449.206 78.8613 450.57 78.8613 450.57" stroke="#00933B" stroke-width="3"/>
<path d="M39.5477 469.712L39.2637 470.28L39.3773 473.007C39.3773 473.007 40.2295 476.585 50.7399 476.813C58.5801 476.926 61.9889 475.677 63.8069 474.427C66.0794 472.893 67.2157 470.337 66.818 466.645C66.4771 463.634 66.0794 461.021 65.9658 459.715C65.8522 458.465 65.6249 455.682 65.6249 455.682C65.6249 455.682 65.3409 460.965 65.5681 463.918C65.7954 466.872 65.7954 470.451 63.6933 472.041C61.5912 473.632 56.6485 474.484 50.115 474.2C45.7972 474.029 40.9681 473.859 39.5477 469.712Z" fill="#00702D"/>
<path d="M99.9989 469.713L100.283 470.281L100.169 473.007C100.169 473.007 99.3171 476.586 88.8067 476.813C80.9665 476.927 77.5577 475.677 75.7397 474.427C73.4672 472.894 72.3309 470.338 72.7286 466.645C73.0695 463.635 73.4672 461.022 73.5808 459.715C73.6944 458.466 73.8649 455.739 73.8649 455.739C73.8649 455.739 74.1489 460.965 73.9217 463.919C73.6944 466.873 73.6944 470.451 75.7965 472.042C77.8986 473.632 82.8413 474.484 89.3748 474.2C93.7494 474.03 98.5785 473.859 99.9989 469.713Z" fill="#00702D"/>
<path opacity="0.1" d="M32.9585 230.799C32.9585 230.799 37.7876 223.528 38.2421 218.757C38.6966 214.042 31.1405 209.554 31.1405 209.554L27.334 225.914L32.9585 230.799Z" fill="black"/>
<path opacity="0.1" d="M76.5342 378.43C76.9319 372.579 78.0682 358.719 78.6363 357.242C79.2045 355.709 80.1703 353.266 80.5112 351.732C80.9089 350.199 77.5001 343.212 77.1024 341.508C76.7047 339.804 78.0682 337.702 78.0682 335.998C78.0682 334.294 75.398 326.739 75.0571 320.661C74.7162 315.094 71.6483 277.945 68.4668 263.29C69.3758 277.093 72.2165 299.246 72.3301 305.949C72.6142 320.718 73.7504 330.658 74.8867 336.339C76.0229 342.019 75.1707 347.131 75.5684 351.278C75.9661 355.425 75.1139 374.283 74.7162 388.654C74.6594 391.722 74.6594 395.13 74.773 398.652C74.7162 400.356 75.398 410.864 74.8867 412.398C73.1255 417.908 74.8299 420.066 76.0798 422.055H76.2502C76.2502 422.055 77.5001 423.645 78.0682 423.815C78.6363 423.986 74.6594 418.874 76.3638 417.567C78.0682 416.261 80.1703 418.305 81.8747 418.305C83.5791 418.305 77.8978 412.625 77.5001 407.513C77.1024 402.457 76.1366 384.281 76.5342 378.43Z" fill="black"/>
<path opacity="0.1" d="M66.704 414.386C64.5451 407.002 64.7723 386.893 64.8292 384.451C64.9996 374.794 62.1589 352.073 62.5566 349.801C62.9543 347.529 64.8292 338.327 64.8292 330.772C64.8292 323.217 64.4315 307.767 65.2268 297.145C65.7382 290.328 66.6472 273.515 67.2721 262.268C66.3631 266.925 64.3747 278.456 63.7497 291.294C62.8975 308.051 63.4656 335.316 62.6134 339.292C61.7613 343.269 60.0569 348.665 59.2047 350.653C58.3525 352.641 60.625 356.617 61.1931 359.174C61.7613 361.73 62.6134 374.794 62.8975 383.315C63.1816 391.835 63.1816 408.876 64.0338 411.432C64.886 413.988 61.7613 419.669 61.4772 422.509C61.3636 423.872 62.5566 423.475 63.8065 422.736C64.8292 420.748 67.4426 417.056 66.704 414.386Z" fill="black"/>
<path opacity="0.1" d="M45.7406 432.052C45.2292 429.552 45.286 427.394 45.4565 425.917C44.4907 425.86 43.468 425.746 42.3886 425.633C42.3886 425.633 41.65 426.371 41.8205 427.053C41.9909 427.735 43.8089 433.585 44.2634 435.403C44.377 435.857 45.2861 436.198 46.6496 436.482C46.4791 435.289 46.1382 433.812 45.7406 432.052Z" fill="white"/>
<path opacity="0.1" d="M101.079 231.083C101.079 231.083 96.0792 225.062 94.9997 218.586C93.9203 212.111 93.9771 212.167 93.9771 212.167L104.374 209.895L107.215 232.219L101.079 231.083Z" fill="black"/>
<path d="M123.576 147.014C123.576 143.606 122.724 130.541 122.724 125.713C122.724 111.796 120.281 104.127 120.736 104.695C119.145 99.64 118.918 94.3573 113.52 90.0971C113.52 90.0971 102.953 83.6784 85.1139 79.8157C84.3753 79.5317 83.4663 79.0773 82.6141 78.5093L66.5928 94.5277L51.1397 79.0773C50.5715 79.4181 50.0034 79.6453 49.4921 79.8157C48.5831 80.043 26.3124 85.3824 21.256 89.3019C17.5632 92.142 15.802 97.0839 15.2906 102.196C14.5521 109.41 13.5863 109.978 11.3137 123.384C8.75714 138.38 9.32527 149.002 9.32527 160.135L26.0851 160.874C26.0851 160.874 27.2214 204.328 26.9373 207.168C26.6532 210.008 26.9373 212.28 27.5054 213.985C27.5054 214.041 27.5623 214.212 27.5623 214.382C27.5623 214.382 42.2768 222.789 64.4339 222.789C86.8751 222.789 105.51 214.382 105.51 214.382C105.396 213.36 105.283 212.28 105.169 211.315L105.964 205.805L102.669 183.595C102.669 183.595 102.271 182.629 101.703 177.687C101.476 175.472 101.76 166.44 102.158 157.125C102.669 145.537 103.294 133.551 103.294 133.551C103.294 133.551 103.124 143.492 103.18 148.263C103.294 154.739 104.089 158.999 104.317 160.419C104.317 160.419 105.851 167.236 104.998 170.36C104.998 170.36 109.998 160.987 115.225 158.431C120.452 155.875 123.747 160.419 123.747 160.419C123.747 160.419 123.576 151.842 123.576 147.014Z" fill="white"/>
<path opacity="0.05" d="M49.5479 79.9299C49.3207 79.9867 47.6731 80.3843 45.3438 81.0092L66.6486 102.31L88.3512 80.6116C87.3286 80.3844 86.3059 80.1003 85.2265 79.8731C84.4879 79.5891 83.5789 79.1347 82.7267 78.5667L66.7055 94.5851L51.2523 79.1347C50.6274 79.4755 50.0592 79.7027 49.5479 79.9299Z" fill="black"/>
<path opacity="0.05" d="M105.567 214.439C105.567 214.439 86.9319 222.846 64.4908 222.846C42.3337 222.846 27.6191 214.439 27.6191 214.439V209.781C27.6191 209.781 42.3337 218.188 64.4908 218.188C86.9319 218.188 105.567 209.781 105.567 209.781V214.439Z" fill="black"/>
<path d="M118.46 89.8704C116.188 88.7344 94.2012 80.0435 90.0538 78.9074C88.4063 78.453 86.5314 77.7714 84.8839 77.0897L79.4866 72.7727C79.4866 72.7727 81.7023 83.4517 81.3614 92.5402C81.0774 100.777 76.8164 158.148 76.8164 162.976L105.677 229.038L107.78 222.051L110.222 169.622L118.46 89.8704Z" fill="#22B25C"/>
<path opacity="0.1" d="M76.8164 162.919C76.8164 158.091 81.0774 100.72 81.3614 92.4833C81.7023 83.338 79.4866 72.7158 79.4866 72.7158L84.9407 77.0897C84.9407 77.0897 87.0996 79.6458 87.8381 81.3499C88.5767 83.054 96.5305 99.5268 96.5305 99.5268L93.6899 101.969L97.4964 105.207C97.4964 105.207 87.6109 129.121 85.7361 134.745C83.634 140.993 76.8164 162.919 76.8164 162.919Z" fill="black"/>
<path d="M16.4258 89.8704C18.6983 88.7344 40.6849 80.0435 44.8323 78.9074C46.4799 78.453 48.3547 77.7714 50.0023 77.0897L55.3995 72.7727C55.3995 72.7727 53.1838 83.4517 53.5247 92.5402C53.8088 100.777 58.0697 158.148 58.0697 162.976L30.5722 226.936L27.0498 218.813L24.1524 165.475L16.4258 89.8704Z" fill="#22B25C"/>
<path d="M20.0626 201.602C20.0626 201.602 19.8922 202.34 19.4945 206.316C19.2672 208.418 19.8922 209.327 19.8922 220.517C19.8922 226.765 15.7448 236.251 17.0515 240.966C18.3582 245.681 24.6077 239.432 26.1416 236.592C27.6756 233.752 26.1416 201.431 20.0626 201.602Z" fill="#22B25C"/>
<path d="M120.166 205.408C120.166 205.408 120.337 206.146 120.734 210.122C120.962 212.224 118.348 212.906 117.723 224.096C117.382 230.571 118.007 232.162 118.235 238.013C118.462 242.898 115.564 243.295 114.087 240.455C112.553 237.615 114.087 205.237 120.166 205.408Z" fill="#22B25C"/>
<path opacity="0.1" d="M58.1253 162.976C58.1253 158.148 53.8643 100.777 53.5802 92.5402C53.2393 83.3949 55.455 72.7727 55.455 72.7727L50.001 77.1465C50.001 77.1465 47.8421 79.7027 47.1035 81.4068C46.365 83.1109 38.4111 99.5837 38.4111 99.5837L41.2518 102.026L37.4453 105.264C37.4453 105.264 47.3308 129.178 49.2056 134.802C51.3077 140.993 58.1253 162.976 58.1253 162.976Z" fill="black"/>
<path d="M16.4254 89.8699C14.1529 91.0059 9.66465 101.174 8.92608 106.116C8.35795 108.785 7.22169 109.694 7.05125 111.625C6.88081 113.5 7.39213 114.182 7.39213 116.056C7.39213 117.931 5.85818 118.726 5.06279 119.919C4.55148 120.714 4.32422 124.179 4.49466 125.713C4.6651 127.246 2.96071 129.291 2.96071 130.825C2.96071 132.359 4.15378 136.562 4.15378 136.562C4.15378 136.562 3.01752 138.777 3.01752 139.345C3.01752 139.913 4.09697 142.413 3.92653 144.912C3.75609 147.355 0.460938 149.059 0.460938 150.99C0.460938 152.864 1.48357 157.409 1.48357 158.374C1.48357 159.34 0.176872 160.987 0.517751 163.714L1.42676 166.043C1.88126 167.236 3.30159 169.792 4.43785 169.337C6.76718 168.372 10.0055 167.917 14.8346 168.088C20.4591 168.315 24.6065 171.496 24.6065 171.496C24.6065 171.496 31.5945 157.636 29.8901 149.967C28.1857 142.185 16.4254 89.8699 16.4254 89.8699Z" fill="#22B25C"/>
<path d="M117.439 89.6999C119.655 88.5071 125.961 102.31 126.756 107.252C127.325 109.922 128.461 110.831 128.631 112.762C128.802 114.636 129.483 115.432 129.483 117.306C129.483 119.181 130.79 119.976 130.79 120.885C130.79 121.794 129.483 124.463 129.256 125.997C129.086 127.531 130.79 129.576 130.79 131.109C130.79 132.643 130.392 137.585 130.392 137.585C130.392 137.585 131.699 137.755 131.699 138.323C131.699 138.891 130.677 142.697 130.847 145.14C131.017 147.582 133.858 150.309 133.858 152.24C133.858 154.171 132.722 157.466 132.722 158.375C132.722 159.113 133.404 161.045 133.347 162.862C133.29 163.714 132.949 165.191 132.21 165.646L129.54 167.918C129.54 167.918 125.336 166.441 118.689 167.009C112.724 167.52 106.872 172.632 106.872 172.632C106.872 172.632 97.1 100.72 117.439 89.6999Z" fill="#22B25C"/>
<path opacity="0.1" d="M42.615 412.568C40.9106 405.752 35.7975 374.794 36.0815 367.978C36.3656 361.162 38.9222 358.606 39.2062 357.186C39.4903 355.765 37.7859 352.925 38.2404 351.335C38.6949 349.744 42.8991 351.505 41.7628 350.085C40.6266 348.665 37.7859 345.257 37.5019 343.837C37.2178 342.417 40.3425 342.417 39.7744 340.997C39.2062 339.577 36.3656 336.168 36.0815 333.044C35.7975 329.92 30.4002 298.394 28.9799 285.614C27.8436 275.162 27.3323 257.723 27.1619 249.771C25.4575 250.964 23.9804 251.361 22.7305 251.532C22.8441 257.326 25.7984 275.276 26.7642 285.046C28.4686 302.257 32.2751 322.706 32.7296 325.376C33.3545 328.954 33.5818 332.874 32.8432 335.316C32.3319 336.964 32.2751 338.1 34.0931 340.145C35.5134 341.735 32.5023 342.701 32.5023 344.575C32.5023 347.131 36.7633 346.847 33.3545 351.676C32.7296 352.584 36.0815 353.834 35.627 355.084C34.6044 357.754 34.0931 359.855 33.8658 361.219C33.5818 363.036 33.8658 372.466 34.2067 377.237C34.8316 386.269 37.5019 402.344 39.6039 410.353C40.7402 417.283 41.6492 422.85 41.7628 423.645C41.8196 424.27 42.1037 424.895 42.4446 425.463L45.1716 425.917C45.1716 425.917 44.3194 419.385 42.615 412.568Z" fill="white"/>
<path opacity="0.1" d="M111.248 251.929C111.248 251.532 111.304 251.248 111.361 250.964C108.634 250.282 106.248 249.089 106.248 249.089C106.248 249.089 107.668 277.377 107.384 286.75C107.1 296.122 103.123 333.896 102.555 335.316C101.987 336.736 99.4304 340.428 99.4304 341.564C99.4304 342.701 102.555 342.701 102.555 342.701C102.555 342.701 99.4304 347.245 99.4304 348.381C99.4304 349.517 101.135 348.665 101.703 350.085C102.271 351.505 99.1463 354.061 99.9985 356.617C100.851 359.173 103.975 366.842 102.839 378.202C101.703 389.563 97.4419 417.681 97.1579 419.669C96.8738 421.657 96.9306 423.19 95.0558 424.497C93.181 425.803 91.4766 426.087 91.4766 426.087L97.7828 425.86C98.2373 425.576 98.5782 425.179 98.6918 424.383C98.8054 422.793 98.4646 420.862 101.476 404.843C101.476 404.843 103.975 391.949 104.544 386.439C105.737 374.453 105.055 364.058 104.6 361.218C104.316 359.514 103.01 355.822 102.896 354.459C102.782 353.095 105.453 350.255 104.998 349.574C104.544 348.892 103.294 347.586 103.748 346.279C104.203 344.973 105.737 344.291 105.737 343.155C105.737 342.019 104.032 340.599 104.487 339.292C104.941 337.986 107.214 337.304 106.873 335.884C106.532 334.464 105.055 332.476 105.509 328.67C105.907 325.489 106.532 322.138 106.987 318.616L108.52 306.687C109.145 301.461 109.6 296.406 109.77 292.089C110.282 281.012 111.702 266.584 111.248 251.929Z" fill="black"/>
<path opacity="0.2" d="M55.0583 74.704C55.2855 73.4543 55.3991 72.7727 55.3991 72.7727L50.0019 77.0897C48.2975 77.7714 46.4227 78.453 44.8319 78.9074C40.6846 80.0435 18.6979 88.7344 16.4254 89.8704C14.1529 91.0065 9.66465 101.174 8.92608 106.116C8.35795 108.786 7.22169 109.695 7.05125 111.626C6.88081 113.5 7.39213 114.182 7.39213 116.057C7.39213 117.931 5.85818 118.726 5.06279 119.919C4.55148 120.714 4.32422 124.179 4.49466 125.713C4.6651 127.247 2.96071 129.292 2.96071 130.825C2.96071 132.359 4.15379 136.563 4.15379 136.563C4.15379 136.563 3.01752 138.778 3.01752 139.346C3.01752 139.914 4.09697 142.413 3.92653 144.913C3.75609 147.355 0.460938 149.059 0.460938 150.99C0.460938 152.865 1.48357 157.409 1.48357 158.375C1.48357 159.341 0.176872 160.988 0.517751 163.714L1.42676 166.043C1.88126 167.236 3.30159 169.792 4.43785 169.338C4.43785 169.338 3.75609 169.167 2.73346 165.475C1.71082 161.783 4.26741 160.533 5.46049 159.227C6.71037 157.92 5.06279 157.523 3.58565 157.977C2.0517 158.432 1.76764 155.535 2.27895 151.899C2.73346 148.321 6.824 146.617 7.56257 145.537C8.30114 144.515 6.88081 144.288 5.85818 144.799C4.83554 145.31 5.46049 143.549 5.46049 140.936C5.46049 138.267 7.05125 137.244 8.18751 135.938C9.32377 134.631 7.22169 134.688 6.19906 135.086C5.17642 135.483 5.06279 134.347 5.5173 131.677C5.9718 129.008 7.67619 127.02 7.78982 126.168C7.90345 125.316 5.63092 126.452 5.9718 124.179C6.36949 121.907 10.5168 118.67 11.6531 117.363C12.7894 116.057 9.77828 117.079 9.21015 115.943C8.64202 114.807 10.8009 110.831 11.6531 109.24C12.5053 107.65 10.0623 108.559 10.0623 107.252C10.0623 105.946 13.1871 100.322 15.2891 97.482C17.3912 94.6419 19.8342 94.2443 19.8342 94.2443C19.8342 94.2443 19.1524 92.8242 20.0046 91.2905C20.8568 89.7568 49.0929 78.5098 49.0929 78.5098L55.0583 74.704Z" fill="white"/>
<path opacity="0.1" d="M49.776 167.577C49.776 167.577 39.5496 189.559 33.8683 197.114C29.721 202.624 28.0166 187.23 28.1302 176.438C28.3574 174.393 28.5847 172.178 28.7551 169.849C29.3233 167.179 29.5505 165.873 28.9824 167.577C29.6641 159.624 30.1187 151.104 29.6073 146.503C28.4711 136.278 25.0623 120.373 25.0623 120.373C25.0623 120.373 23.926 128.894 24.4942 131.734C25.0623 134.574 24.7214 139.686 24.7214 141.958C24.7214 144.231 20.0627 141.106 17.7902 142.242C15.5177 143.379 14.3814 145.083 14.3814 145.083C14.3814 145.083 20.6309 143.379 21.7671 145.083C22.9034 146.787 22.3353 147.923 20.0627 148.491C17.7902 149.059 12.677 149.059 11.5408 151.899C11.5408 151.899 15.5177 153.035 16.0858 153.035C16.654 153.035 19.4946 151.331 21.199 151.899C22.9034 152.467 24.0397 154.91 23.4715 156.841C22.9034 158.715 18.3584 158.147 16.654 158.147C14.9496 158.147 13.2452 157.011 10.9727 158.147C10.9727 158.147 12.677 160.419 16.0858 161.555C19.4946 162.692 22.9034 159.283 23.4715 164.396C24.0397 169.508 24.6078 171.212 24.6078 171.212L26.2554 180.925C25.3464 184.788 24.551 188.139 24.4373 189.162C24.0397 192.172 25.5736 223.641 25.5736 223.641C25.5736 223.641 50.5714 171.723 49.776 167.577Z" fill="black"/>
<path opacity="0.1" d="M109.938 170.474C109.938 170.474 109.824 170.019 109.824 168.883C109.824 167.747 111.528 162.067 113.233 160.931C114.937 159.795 121.755 158.772 121.755 158.772C121.755 158.772 121.187 158.091 118.8 157.352C116.414 156.614 116.641 157.466 113.233 158.034C109.824 158.602 109.256 152.921 109.824 151.217C110.392 149.513 113.801 150.081 116.073 149.513C118.346 148.945 121.187 147.809 121.187 147.809C121.187 147.809 118.346 147.241 116.073 146.673C113.801 146.105 108.688 149.513 109.256 145.537C109.824 141.561 113.233 140.993 114.369 140.425C115.505 139.857 118.346 137.585 118.346 137.585C118.346 137.585 115.505 136.449 113.801 137.017C112.096 137.585 108.12 140.993 108.12 136.449C108.12 131.904 109.256 126.792 109.824 125.088C110.392 123.384 107.551 117.704 107.551 117.704C107.551 117.704 104.711 143.265 105.279 152.637C105.62 158.147 106.188 168.997 106.642 177.063C105.847 182.8 105.449 191.491 104.029 194.274C101.756 198.705 92.5527 186.435 92.5527 186.435L109.71 220.404L113.687 202.34C113.687 202.34 111.756 177.063 109.313 172.348C109.71 171.042 109.938 170.474 109.938 170.474Z" fill="black"/>
<path d="M118.745 167.066C115.507 167.35 112.268 168.997 110.052 170.417C107.723 174.45 106.53 191.491 106.36 204.556C106.076 228.981 101.133 231.083 101.133 231.083C102.553 232.844 103.746 233.128 106.416 236.365C109.996 240.626 112.552 245.113 112.552 245.113C112.552 245.113 113.802 241.421 115.222 237.047C115.62 235.741 115.052 234.264 116.643 229.038C118.234 223.926 122.381 208.021 124.71 200.693C128.63 188.253 130.051 176.268 129.539 167.918C128.858 167.691 124.881 166.554 118.745 167.066Z" fill="#FFDBB0"/>
<path d="M119.938 222.165C119.938 222.165 119.54 222.165 118.29 221.938C117.04 221.767 114.37 220.518 113.234 220.12C107.836 218.132 104.825 219.211 104.428 219.552C104.03 219.893 103.121 223.358 102.894 224.096C102.666 224.835 103.973 225.857 103.973 225.857L104.257 225.062C104.257 225.062 111.529 225.346 116.415 230.969C116.415 230.969 116.699 228.413 117.495 226.368C118.347 224.153 119.938 222.165 119.938 222.165Z" fill="#F2F2F2"/>
<path d="M120.337 222.165C119.826 222.903 118.632 224.607 117.951 226.482C117.326 228.3 116.985 230.458 116.814 231.31C117.212 231.196 117.894 230.288 119.201 227.22C120.848 223.301 120.678 222.335 120.337 222.165Z" fill="#133442"/>
<path d="M116.417 231.48L115.906 231.253C115.622 231.139 115.451 230.798 115.565 230.514L119.03 221.88C119.144 221.596 119.485 221.426 119.769 221.539L120.28 221.767C120.564 221.88 120.735 222.221 120.621 222.505L117.156 231.139C117.042 231.48 116.701 231.594 116.417 231.48Z" fill="white"/>
<path d="M27.674 204.556C27.5036 192.172 26.4241 176.268 24.3221 171.212C23.3562 170.531 19.6634 168.145 14.8343 167.974C10.0052 167.804 6.76683 168.202 4.4375 169.167C4.15343 177.46 5.57376 188.878 9.32342 200.693C11.6528 208.021 15.8001 223.925 17.3909 229.038C18.9816 234.264 18.3567 235.74 18.8112 237.047C20.2315 241.421 21.4814 245.113 21.4814 245.113C21.4814 245.113 24.038 240.625 27.6172 236.365C30.2874 233.127 31.4805 232.616 32.9008 230.799C32.9576 230.799 28.0149 228.924 27.674 204.556Z" fill="#FFDBB0"/>
<path opacity="0.05" d="M130.846 145.14C130.675 142.697 131.698 138.891 131.698 138.323C131.698 137.755 130.391 137.585 130.391 137.585C130.391 137.585 130.789 132.586 130.789 131.109C130.789 129.576 129.085 127.531 129.255 125.997C129.426 124.463 130.789 121.851 130.789 120.885C130.789 119.919 129.482 119.181 129.482 117.306C129.482 115.432 128.801 114.637 128.63 112.762C128.46 110.888 127.323 109.922 126.755 107.252C126.074 102.992 121.244 91.9153 118.517 89.9272V89.8704C116.245 88.7344 94.2583 80.0435 90.1109 78.9074C88.4633 78.453 86.5885 77.7714 84.9409 77.0897L79.5437 72.7727C79.5437 72.7727 79.5437 72.7727 79.5437 72.8295C79.5437 72.8295 79.5437 72.8295 79.5437 72.8863C79.5437 72.9431 79.6005 73.0567 79.6005 73.2271V73.2839C79.6005 73.3407 79.6005 73.3975 79.6005 73.3975C79.6005 73.4543 79.6005 73.5111 79.6573 73.6248C79.6573 73.6816 79.6573 73.7384 79.6573 73.7952C79.6573 73.852 79.6573 73.852 79.6573 73.9088C79.8845 75.2152 80.3391 77.6578 80.6799 80.5547L67.7266 93.5058V261.245C68.0106 261.245 68.2947 261.416 68.3515 261.756C69.1469 275.389 72.2148 298.962 72.3284 305.949C72.6125 320.718 73.7487 330.658 74.885 336.339C76.0213 342.019 75.1691 347.131 75.5668 351.278C75.9645 355.425 75.1123 374.283 74.7146 388.654C74.6578 391.722 74.6578 395.13 74.7714 398.652C74.7146 400.356 75.3963 410.864 74.885 412.398C73.067 417.965 74.885 420.123 76.1349 422.111C75.7372 422.339 74.4873 423.304 74.9418 426.315C75.51 429.837 74.7714 434.04 76.1917 434.835C75.794 438.755 74.5441 439.436 75.2827 443.753L74.5441 443.867L73.976 446.991C73.8056 447.957 73.7487 448.922 73.7487 449.945C73.8624 451.819 73.8624 453.864 73.8056 455.966C73.8056 455.852 73.8056 455.796 73.8056 455.796C73.8056 455.796 73.5783 458.522 73.5215 459.772C73.4079 461.021 73.0102 463.691 72.6693 466.702C72.2716 470.394 73.4079 472.95 75.6804 474.484C77.4984 475.733 80.9072 476.983 88.7474 476.87C99.2578 476.699 100.11 473.064 100.11 473.064L100.224 470.337L99.9396 469.769C99.8827 469.883 99.8827 469.94 99.8259 470.053C99.9396 469.542 100.053 468.803 100.11 467.724C100.167 464.77 99.6555 462.669 98.4056 459.999C97.8375 458.863 96.3603 456.307 95.9626 455.228C95.4513 453.864 94.8264 453.467 94.5423 451.195C94.4287 450.115 94.5991 448.411 94.4855 447.332C94.4855 447.162 94.5423 445.685 94.4287 445.571L93.6901 445.06C93.6901 443.242 93.7469 441.765 93.9174 440.913C94.031 440.175 94.3719 438.641 94.8264 436.483C95.5081 436.255 95.9058 435.971 95.9626 435.687C96.4172 433.87 98.2352 428.019 98.4056 427.337C98.576 426.656 97.8375 425.917 97.8375 425.917C98.2352 425.633 98.576 425.236 98.6329 424.497C98.7465 422.907 98.4056 420.975 101.417 404.957C101.417 404.957 103.916 392.063 104.485 386.553C105.678 374.567 104.996 364.172 104.541 361.332C104.257 359.628 102.951 355.936 102.837 354.573C102.723 353.209 105.394 350.369 104.939 349.688C104.485 349.006 103.235 347.699 103.689 346.393C104.144 345.086 105.678 344.405 105.678 343.269C105.678 342.133 103.973 340.713 104.428 339.406C104.882 338.1 107.155 337.418 106.814 335.998C106.473 334.578 104.996 332.59 105.45 328.784C105.848 325.603 106.473 322.252 106.928 318.73L108.462 306.801C109.086 301.575 109.541 296.52 109.711 292.203C110.223 281.126 111.643 266.698 111.189 252.043C111.132 249.771 113.234 249.487 113.347 247.101C113.347 246.647 112.893 245.852 112.495 245.113C112.666 244.659 113.234 242.898 114.029 240.569C115.563 243.409 118.404 243.068 118.177 238.126C118.063 234.775 117.779 232.787 117.608 230.515C118.006 229.89 118.517 228.924 119.142 227.334C120.279 224.55 120.506 223.301 120.449 222.676V222.619C120.563 222.335 120.449 221.994 120.108 221.881L119.597 221.653C119.313 221.54 118.972 221.653 118.858 221.994L118.801 222.165C118.688 222.165 118.631 222.165 118.517 222.108C120.449 215.235 122.949 205.919 124.54 200.807C128.46 188.367 129.88 176.381 129.369 168.031C129.426 168.031 129.482 168.088 129.482 168.088L132.153 165.816C132.891 165.362 133.232 163.885 133.289 163.033C133.346 161.215 132.664 159.284 132.664 158.545C132.664 157.58 133.8 154.285 133.8 152.411C133.857 150.366 131.016 147.639 130.846 145.14Z" fill="black"/>
</svg>
