<svg width="137" height="540" viewBox="0 0 137 540" fill="none" xmlns="http://www.w3.org/2000/svg">
<path opacity="0.1" fill-rule="evenodd" clip-rule="evenodd" d="M81.8987 539.156C110.123 539.156 128.192 534.032 127.833 520.368C127.618 512.17 105.805 502.794 77.9512 503.629C44.9654 504.618 35.6055 508.797 35.6055 520.085C35.6055 531.372 53.9597 539.156 81.8987 539.156Z" fill="black"/>
<path d="M99.0931 104.217C100.876 89.2551 99.7668 56.7345 96.6664 40.9224C92.6218 20.2958 73.5494 12.814 69.5998 12.814C65.6502 12.814 46.7527 20.2964 42.7081 40.9224C38.4231 62.7775 38.751 91.3744 40.2814 104.217H99.0931Z" fill="#736357"/>
<path opacity="0.2" d="M99.0931 104.217C100.876 89.2551 99.7668 56.7345 96.6664 40.9224C92.6218 20.2958 73.5494 12.814 69.5998 12.814C65.6502 12.814 46.7527 20.2964 42.7081 40.9224C38.4231 62.7775 38.751 91.3744 40.2814 104.217H99.0931Z" fill="black"/>
<path opacity="0.05" d="M69.5989 12.814C73.5485 12.814 92.6229 20.2964 96.6655 40.9224C99.7658 56.7345 100.875 89.2551 99.0922 104.217H68.3418L69.5989 12.814Z" fill="black"/>
<path d="M71.9187 284.998C74.7082 300.712 75.168 320.584 76.4162 337.946C77.2662 349.766 76.0473 374.877 76.0473 379.432C76.0473 383.987 77.2614 397.495 76.6164 409.341C75.2773 433.937 80.8298 463.315 81.2848 472.88C81.7398 482.444 80.2155 489.291 79.3035 496.123C78.3914 502.955 75.8874 515.404 75.8874 518.136C75.8874 520.869 79.0063 526.206 84.9276 526.662C90.849 527.118 100.441 520.688 102.263 517.955C104.084 515.223 102.205 505.394 101.614 498.587C101.029 491.843 100.775 486.114 101.352 480.151C102.474 468.557 107.546 449.377 109.209 439.401C111.6 425.054 113.65 416.628 113.65 406.607C113.65 396.587 110.917 376.877 112.283 367.767C113.65 358.657 122.631 307.519 123.67 280.732C124.922 248.445 115.924 227.012 111.259 217.359L111.267 217.365C105.392 203.263 102.841 200.057 102.386 194.136C101.93 188.214 105.802 166.124 107.168 162.936C108.169 160.601 109.414 156.554 110.009 154.556C110.048 154.428 110.171 154.343 110.305 154.352C110.439 154.361 110.55 154.461 110.572 154.593L113.998 173.969V173.988C114.033 174.36 115.451 189.044 122.196 191.63C127.764 193.763 133.269 198.188 134.056 198.838C134.139 198.908 134.255 198.922 134.352 198.874C135.225 198.464 138.43 194.477 133.241 156.559C131.555 144.689 128.967 132.965 125.498 121.488C124.372 117.703 122.994 112.696 119.539 109.287C118.361 108.002 117.013 106.885 115.531 105.968C110.321 103.076 108.784 104.078 96.2149 99.9688C83.6179 95.8511 82.175 82.3045 81.9618 77.0335C81.9586 76.9532 81.9917 76.8756 82.052 76.8224C84.6541 74.4986 86.848 71.7548 88.5425 68.7053C90.4616 65.0412 90.7164 61.4455 91.3949 56.7703C91.4064 56.6892 91.4513 56.6166 91.5188 56.5701C91.5863 56.5236 91.6702 56.5076 91.7501 56.5258C95.1887 57.3504 99.1574 42.8774 97.4248 40.135C96.1267 38.0799 94.4324 39.0077 93.5989 39.6704C93.5104 39.7383 93.391 39.7498 93.2912 39.7001C93.1914 39.6504 93.1286 39.5482 93.1295 39.4367L93.1486 33.4635C93.1486 14.2394 82.6006 9.87988 69.5896 9.87988C56.5787 9.87988 46.0307 14.2387 46.0307 33.4635L46.0498 39.4367C46.0507 39.5482 45.9879 39.6504 45.8881 39.7001C45.7883 39.7498 45.6689 39.7383 45.5804 39.6704C44.749 39.0077 43.0526 38.0799 41.7545 40.135C40.0225 42.878 43.9913 57.3517 47.4292 56.5258C47.5091 56.5076 47.593 56.5236 47.6605 56.5701C47.728 56.6166 47.7729 56.6892 47.7845 56.7703C48.4629 61.4455 48.7184 65.0412 50.6368 68.7053C52.3571 71.7972 54.5888 74.5752 57.2373 76.9215C57.1232 82.1139 55.5928 95.8183 42.8975 99.9688C30.5636 104 28.9498 103.159 23.9727 105.839C22.4004 106.779 20.9717 107.941 19.7307 109.288C16.8196 112.003 14.6552 115.42 13.4452 119.211C8.86359 132.53 2.17227 157.471 0.691761 174.323C-1.18159 195.653 1.14746 196.186 2.96889 197.097C4.71516 197.97 21.1066 185.453 22.4648 184.412C22.5231 184.368 22.561 184.302 22.5701 184.23C22.7846 182.67 25.184 165.385 27.3026 156.686C27.3342 156.559 27.448 156.468 27.5796 156.466C27.7112 156.464 27.8275 156.551 27.8629 156.678C29.219 161.423 34.738 181.468 34.738 193.453C34.738 202.562 34.0547 206.055 28.5891 217.365C23.9249 227.018 14.925 248.451 16.178 280.738C17.2171 307.525 26.1986 358.664 27.565 367.773C28.9314 376.882 26.1986 396.593 26.1986 406.613C26.1986 416.634 28.2482 425.06 30.6394 439.407C32.3016 449.382 37.8452 468.102 38.4963 480.157C38.8194 486.139 39.3496 491.931 38.6958 498.732C38.0392 505.564 34.8473 515.144 36.6687 517.877C38.4901 520.61 48.9992 527.123 54.9199 526.668C60.8405 526.212 63.8261 520.61 63.8261 517.877C63.8261 515.144 60.8412 502.946 59.9319 496.114C59.0225 489.282 58.1097 482.45 58.5654 472.885C59.0211 463.32 64.5729 433.942 63.2338 409.347C62.5888 397.501 63.8029 383.992 63.8029 379.437C63.8029 374.883 62.5841 349.772 63.434 337.952C64.6822 320.589 65.142 300.717 67.9315 285.003L68.282 284.612C68.736 284.106 69.3955 283.833 70.0745 283.871C70.7535 283.91 71.3783 284.254 71.7725 284.809L71.9187 284.998Z" fill="#FFDBB0"/>
<path d="M103.027 510.549C103.027 510.549 106.314 517.748 104.15 521.051C101.329 525.356 96.9761 530.275 89.2395 530.958C81.0588 531.68 75.8268 528.339 74.4604 526.631C73.094 524.923 72.6089 520.255 73.95 516.694C74.9789 513.961 75.7947 511.032 75.7947 511.032C76.0222 509.096 77.4193 501.884 77.7609 499.493C78.3845 496.301 80.8253 493.775 83.9931 493.041C87.8649 492.016 101.871 493.382 102.781 498.165C103.692 502.947 103.027 510.549 103.027 510.549Z" fill="#00C19B"/>
<path d="M36.4019 510.549C36.4019 510.549 33.1143 517.748 35.2787 521.051C38.0996 525.356 42.4523 530.275 50.189 530.958C58.3697 531.68 63.6017 528.339 64.9681 526.631C66.3345 524.923 66.8195 520.255 65.4784 516.694C64.4495 513.961 63.6338 511.032 63.6338 511.032C63.4063 509.096 62.0091 501.884 61.6675 499.493C61.0439 496.301 58.6031 493.775 55.4353 493.041C51.5636 492.016 37.5579 493.382 36.6471 498.165C35.7364 502.947 36.4019 510.549 36.4019 510.549Z" fill="#00C19B"/>
<path d="M66.3297 519.912C66.3297 519.912 65.4189 524.353 55.8541 524.353C46.2892 524.353 37.8632 526.175 35.0798 513.991C34.3442 516.662 34.2274 519.466 34.7382 522.189C35.6332 526.548 43.0679 532.252 54.5218 531.672C66.0222 531.089 66.1855 525.947 66.1855 525.947L66.3297 519.912Z" fill="white"/>
<path d="M73 519.798C73 519.798 74.6581 524.125 84.223 524.125C93.7879 524.125 100.898 524.808 104.235 513.945C104.932 516.42 105.192 518.997 105.004 521.561C104.723 526.002 96.3602 532.25 84.9062 531.672C73.4058 531.09 73.2425 525.947 73.2425 525.947L73 519.798Z" fill="white"/>
<path d="M62.8465 506.302C62.3826 503.706 61.8572 500.836 61.6646 499.492C61.4076 497.986 60.6998 496.594 59.6348 495.499L59.9689 505.064C59.992 505.734 60.3996 506.33 61.0153 506.595C61.631 506.86 62.3442 506.746 62.8465 506.302Z" fill="white"/>
<path d="M36.6459 498.163C36.6261 498.267 36.6076 498.374 36.5898 498.481L41.099 505.895C41.4077 506.402 42.026 506.627 42.5884 506.439C43.1509 506.25 43.5079 505.697 43.4485 505.107L42.3301 494.062C39.3609 494.947 37.0018 496.295 36.6459 498.163Z" fill="white"/>
<path d="M76.5664 506.302C77.0303 503.706 77.5557 500.836 77.7483 499.492C78.0054 497.986 78.7131 496.594 79.7782 495.499L79.4441 505.064C79.4209 505.734 79.0133 506.33 78.3976 506.595C77.7819 506.86 77.0687 506.746 76.5664 506.302Z" fill="white"/>
<path d="M102.768 498.163C102.788 498.267 102.806 498.374 102.824 498.481L98.315 505.895C98.0062 506.402 97.388 506.627 96.8255 506.439C96.2631 506.25 95.906 505.697 95.9654 505.107L97.0838 494.062C100.055 494.947 102.412 496.295 102.768 498.163Z" fill="white"/>
<path opacity="0.05" d="M119.544 109.288C118.367 108.003 117.018 106.887 115.536 105.969C110.326 103.077 108.79 104.08 96.2201 99.97C83.5227 95.8182 82.1563 82.0858 81.9622 76.9118C84.6054 74.5682 86.8329 71.7942 88.5504 68.7072C90.518 64.9496 90.7366 61.2644 91.4554 56.4136C94.9575 58.2159 99.2159 42.9599 97.4327 40.1362C95.7644 37.4943 93.4394 39.7823 93.1374 40.0993L93.1586 33.4647C93.1586 14.2667 82.6372 9.89413 69.6461 9.88184V82.9432H69.5962C68.278 83.0559 66.9504 82.9064 65.6903 82.5032C62.5735 81.1538 59.7182 79.267 57.2548 76.9289H57.25L100.322 119.991H124.251C123.278 116.163 122.999 112.697 119.544 109.288Z" fill="black"/>
<path d="M52.0137 45.9681C52.0137 45.9681 54.232 42.9094 57.9897 43.2352C61.7473 43.5611 64.5204 47.0612 64.5204 47.0612C64.5204 47.0612 61.0723 47.3475 59.203 47.7307C57.3338 48.114 54.396 47.5941 52.0137 45.9681Z" fill="white"/>
<path d="M58.1885 47.6528C59.5287 47.6528 60.6152 46.5663 60.6152 45.2261C60.6152 43.8858 59.5287 42.7993 58.1885 42.7993C56.8482 42.7993 55.7617 43.8858 55.7617 45.2261C55.7617 46.5663 56.8482 47.6528 58.1885 47.6528Z" fill="#3B93B2"/>
<path d="M58.1899 46.4394C58.8601 46.4394 59.4033 45.8962 59.4033 45.2261C59.4033 44.5559 58.8601 44.0127 58.1899 44.0127C57.5198 44.0127 56.9766 44.5559 56.9766 45.2261C56.9766 45.8962 57.5198 46.4394 58.1899 46.4394Z" fill="#534741"/>
<path d="M56.8258 45.9094C57.2031 45.9094 57.509 45.6035 57.509 45.2262C57.509 44.8489 57.2031 44.543 56.8258 44.543C56.4485 44.543 56.1426 44.8489 56.1426 45.2262C56.1426 45.6035 56.4485 45.9094 56.8258 45.9094Z" fill="white"/>
<path d="M51.3005 45.261C52.2063 44.2561 53.3364 43.479 54.599 42.9928C55.8479 42.4898 57.2161 42.3609 58.537 42.6218C59.8039 42.9089 60.9863 43.4879 61.9899 44.3127C62.9617 45.1115 63.8603 45.9954 64.6749 46.954L64.7842 47.0756L64.6715 47.1815L64.3039 47.5231L64.2438 47.5791L64.1878 47.5614C63.6361 47.3644 63.0546 47.2639 62.4688 47.2642C63.0616 47.1915 63.6625 47.2213 64.2452 47.3523L64.1297 47.3906L64.3688 46.9472V47.174C63.6706 46.1708 62.767 45.3275 61.718 44.7001C60.7173 44.0581 59.5829 43.6535 58.4017 43.5175C57.2612 43.4291 56.1173 43.6377 55.0813 44.1228C54.0634 44.6155 53.1567 45.3109 52.4168 46.1663L52.3779 46.2113C52.1183 46.5117 51.6644 46.5447 51.364 46.2851C51.0637 46.0255 51.0306 45.5716 51.2902 45.2713L51.3005 45.261Z" fill="#826F67"/>
<path d="M65.5833 40.3664C65.5833 40.3664 55.6871 39.1531 53.3744 39.6579C51.7177 40.0194 49.2793 42.1858 49.2793 42.1858C49.2793 42.1858 51.0556 38.4965 52.3893 37.8884C53.7229 37.2804 62.569 36.8015 63.6287 37.4102C64.6883 38.0189 65.5833 40.3664 65.5833 40.3664Z" fill="#826F67"/>
<path d="M87.2157 45.9681C87.2157 45.9681 84.9974 42.9094 81.2397 43.2352C77.4821 43.5611 74.709 47.0612 74.709 47.0612C74.709 47.0612 78.1571 47.3475 80.0264 47.7307C81.8956 48.114 84.8334 47.5941 87.2157 45.9681Z" fill="white"/>
<path d="M81.04 47.6528C82.3803 47.6528 83.4668 46.5663 83.4668 45.2261C83.4668 43.8858 82.3803 42.7993 81.04 42.7993C79.6998 42.7993 78.6133 43.8858 78.6133 45.2261C78.6133 46.5663 79.6998 47.6528 81.04 47.6528Z" fill="#3B93B2"/>
<path d="M81.0395 46.4394C81.7097 46.4394 82.2529 45.8962 82.2529 45.2261C82.2529 44.5559 81.7097 44.0127 81.0395 44.0127C80.3694 44.0127 79.8262 44.5559 79.8262 45.2261C79.8262 45.8962 80.3694 46.4394 81.0395 46.4394Z" fill="#534741"/>
<path d="M79.6383 45.9094C80.0156 45.9094 80.3215 45.6035 80.3215 45.2262C80.3215 44.8489 80.0156 44.543 79.6383 44.543C79.261 44.543 78.9551 44.8489 78.9551 45.2262C78.9551 45.6035 79.261 45.9094 79.6383 45.9094Z" fill="white"/>
<path d="M86.8147 46.1667C86.0748 45.3114 85.1681 44.616 84.1502 44.1233C83.1142 43.6381 81.9703 43.4296 80.8298 43.518C79.6486 43.654 78.5142 44.0586 77.5135 44.7006C76.4645 45.3279 75.5608 46.1712 74.8627 47.1745V46.9476L75.1018 47.391L74.9863 47.3528C75.569 47.2218 76.1699 47.192 76.7627 47.2647C76.1769 47.2644 75.5954 47.3649 75.0437 47.5618L74.9877 47.5796L74.9276 47.5236L74.56 47.182L74.4473 47.0761L74.5566 46.9545C75.3713 45.996 76.2698 45.1121 77.2416 44.3132C78.2452 43.4884 79.4276 42.9094 80.6945 42.6223C82.0154 42.3614 83.3836 42.4903 84.6325 42.9933C85.895 43.4795 87.0251 44.2566 87.931 45.2615C88.1036 45.4518 88.1615 45.7196 88.083 45.9642C88.0046 46.2088 87.8015 46.3929 87.5505 46.4472C87.2994 46.5016 87.0385 46.4178 86.8659 46.2275L86.857 46.2173L86.8147 46.1667Z" fill="#826F67"/>
<path d="M73.6465 40.3664C73.6465 40.3664 83.5427 39.1531 85.8554 39.6579C87.5121 40.0194 89.9505 42.1858 89.9505 42.1858C89.9505 42.1858 88.1742 38.4965 86.8406 37.8884C85.5069 37.2804 76.6608 36.8015 75.6011 37.4102C74.5415 38.0189 73.6465 40.3664 73.6465 40.3664Z" fill="#826F67"/>
<path opacity="0.08" d="M73.9327 60.1978C72.8648 60.1978 70.0343 61.1952 69.6223 61.1952C69.2104 61.1952 66.3792 60.1978 65.312 60.1978C64.2045 60.1978 65.0353 61.6496 66.1428 61.6496C67.2359 61.6496 68.7335 62.919 69.6012 62.9572V62.9641C69.6059 62.9648 69.6107 62.9648 69.6155 62.9641C69.6285 62.9641 69.6367 62.9641 69.6435 62.9641V62.9572C70.5112 62.919 72.0108 61.6496 73.1019 61.6496C74.2094 61.6496 75.0402 60.1978 73.9327 60.1978Z" fill="black"/>
<path d="M74.844 67.4336C73.6848 67.0748 72.5011 66.8008 71.3022 66.6138C70.6436 66.6138 70.0561 67.3284 69.601 67.3304C69.146 67.3325 68.5612 66.6138 67.9026 66.6138C66.7037 66.8008 65.52 67.0748 64.3609 67.4336C63.0563 67.6083 61.7343 67.6083 60.4297 67.4336C60.4297 67.4336 65.5995 71.7966 66.0538 72.1662C68.292 73.9856 70.9128 73.9856 73.2371 72.1662C73.6982 71.8048 78.7751 67.4336 78.7751 67.4336C77.4706 67.6083 76.1485 67.6083 74.844 67.4336Z" fill="#E89E97"/>
<path opacity="0.1" d="M78.7751 67.4336C77.4706 67.6083 76.1485 67.6083 74.844 67.4336C73.6848 67.0748 72.5011 66.8008 71.3022 66.6138C70.6436 66.6138 70.0561 67.3284 69.601 67.3304C69.146 67.3325 68.5612 66.6138 67.9026 66.6138C66.7037 66.8008 65.52 67.0748 64.3609 67.4336C63.0563 67.6083 61.7343 67.6083 60.4297 67.4336C60.4297 67.4336 64.9778 69.9615 69.6181 69.9615C74.2585 69.9615 78.7751 67.4336 78.7751 67.4336Z" fill="black"/>
<path d="M25.5535 60.3952C28.645 60.5469 26.6924 68.647 28.4824 72.0282C30.2724 75.4094 32.7135 76.1684 32.3876 78.4428C32.0617 80.7172 27.1809 81.1756 26.5298 83.1446C26.0571 84.6186 26.2978 86.2287 27.1809 87.5001C27.3452 86.2364 28.3548 85.2505 29.622 85.1164C29.622 85.1164 30.6079 87.3156 29.9568 88.984C29.3057 90.6524 26.042 90.5137 26.042 93.9133C26.042 102.004 30.0278 103.56 29.0481 104.833C28.0684 106.106 26.3686 105.288 26.6938 103.467C26.6938 103.467 25.1805 106.576 27.2369 107.369C29.553 106.79 38.4859 101.416 42.9111 99.9692C44.9995 99.2968 46.9554 98.267 48.6917 96.9256C49.2041 94.8791 48.9198 92.7144 47.8964 90.8696C47.8964 90.8696 50.1906 91.9313 51.7551 91.173C53.1482 90.4973 53.7549 88.5973 53.7549 88.5973C53.7549 88.5973 50.0061 89.9596 50.0061 87.5335C50.0061 85.1075 51.7961 82.3767 51.9587 79.6473C52.1213 76.9179 48.7046 70.851 48.7046 70.851C48.7046 70.851 50.332 73.3365 53.0983 72.7005C53.0983 72.7005 48.0542 69.1826 50.0068 63.8748C51.9594 58.567 51.6055 57.2689 51.378 54.0804C51.1662 51.1187 49.3564 49.0827 49.3564 43.8904C49.3564 38.698 52.2853 37.6363 53.5868 33.6935C54.4702 30.6001 55.0309 27.4236 55.26 24.2147C55.26 24.2147 59.0532 29.6694 84.6269 41.7833C91.1174 44.8578 91.7111 51.3728 89.4094 53.0562C85.8212 55.6804 89.9942 60.4581 91.459 60.9131C91.459 60.9131 84.8319 67.877 90.3611 72.7011C95.8902 77.5253 96.0535 79.3446 96.1464 81.5698C96.2476 83.9966 95.2938 90.3408 91.5587 90.4925C87.8236 90.6442 87.7546 89.1022 87.7546 89.1022C87.7546 89.1022 87.5777 94.5118 92.1271 94.5118C97.2081 94.5118 98.1715 91.175 98.1715 91.175C98.1715 91.175 96.8481 96.8238 97.1282 100.262C101.059 101.523 109.478 106.173 111.643 106.704C113.693 106.717 115.865 105.695 115.989 103.117C116.126 100.238 114.688 99.1733 114.688 99.1733C114.688 99.1733 114.399 102.813 111.759 101.865C109.684 101.12 109.262 97.578 111.759 95.8365C114.803 93.7131 114.808 90.1338 113.549 88.4046C111.83 86.0441 109.969 83.3995 110.783 81.2761C110.783 81.2761 113.2 84.7645 115.966 83.7028C117.569 83.0948 118.619 81.5487 118.593 79.8352C118.593 79.8352 113.469 83.0462 113.135 77.282C112.849 72.3411 116.424 71.1632 114.146 66.7163C111.868 62.2693 110.294 61.7111 111.108 59.891C111.108 59.891 112.222 62.0144 114.5 61.5594C115.095 61.4841 115.631 61.1616 115.977 60.6709C116.322 60.1803 116.445 59.5668 116.315 58.981C116.315 58.981 112.203 59.7394 112.528 54.4309C112.854 49.1223 114.298 48.364 113.386 44.7245C112.659 41.8202 109.97 37.8488 108.016 36.509C108.016 36.509 112.248 36.9872 112.898 38.3537C113.328 39.3684 113.602 40.4422 113.712 41.5388C113.712 41.5388 114.756 36.8404 113.128 35.7787C111.501 34.7169 103.412 27.2037 102.732 24.93C102 22.4821 97.9494 2.49833 69.938 0.107115C61.7013 -0.595904 53.541 2.28586 50.2391 5.11706C50.2391 5.11706 35.5304 9.5538 32.3617 26.7521C30.5676 36.4906 31.8834 39.5964 28.6238 43.6082C25.891 46.9682 26.5319 49.757 26.206 52.4215C25.8801 55.086 25.9887 56.7401 24.5246 57.0455C23.7898 57.258 23.0041 57.2098 22.3008 56.9088C22.3008 56.9088 22.462 60.2436 25.5535 60.3952Z" fill="#736357"/>
<path d="M114.772 223.686C114.772 223.686 121.092 235.812 123.312 253.405C125.532 270.998 125.02 275.78 123.995 292.86C122.97 309.94 113.235 363.23 113.064 371.258C112.893 379.286 114.943 399.953 114.943 406.614C114.943 413.275 111.698 435.992 109.819 444.532C107.94 453.072 105.207 473.568 105.549 478.521C105.89 483.475 103.328 482.279 103.499 484.67C103.67 487.061 106.232 489.111 106.232 493.381C106.14 496.091 105.114 498.686 103.328 500.725C103.328 500.725 97.1794 495.601 86.9313 496.626C76.6832 497.651 77.1956 502.092 77.1956 502.092C77.1956 502.092 73.7796 497.309 76 493.21C78.2204 489.111 79.0745 490.477 78.0496 487.574C77.0248 484.67 76.5124 485.695 76.6832 482.108C76.854 478.521 80.7825 480.571 79.9285 473.226C79.0745 465.882 75.146 432.234 75.3168 412.592C75.4876 392.95 75.7664 395.077 75.3168 389.534C74.8044 383.214 73.8363 381.335 73.1531 372.681C72.748 367.548 72.3702 338.179 72.0716 326.457C71.8666 318.396 71.1397 290.23 70.5733 286.469C70.5057 286.014 70.112 285.68 69.6523 285.686C69.1926 285.693 68.8089 286.039 68.7546 286.495C67.7298 294.847 68.0031 310.548 67.2898 323.946C66.265 343.247 64.7832 357.765 64.954 363.572C65.1248 369.379 66.0929 375.414 64.3848 386.118C63.1592 393.799 63.8724 397.561 64.0432 411.909C64.214 426.256 61.9936 451.876 60.4564 462.637C58.9192 473.397 60.5131 475.276 61.2407 478.236C61.9683 481.197 61.4245 482.108 60.6258 485.41C59.8272 488.712 62.2198 489.395 64.156 492.72C66.0922 496.046 61.9923 501.182 61.9923 501.182C61.9923 501.182 60.9674 497.368 50.4051 497.368C39.8427 497.368 36.2012 501.125 36.2012 501.125C31.7467 493.736 36.2579 490.65 36.5866 488.054C36.9152 485.459 33.7533 485.411 34.4167 480.629C35.0801 475.847 31.4789 451.934 28.7461 440.776C26.0133 429.617 24.1912 412.537 24.6469 403.427C25.1026 394.317 26.2408 380.653 26.2408 372.455C26.2408 364.257 21.6859 341.711 18.498 320.076C15.3102 298.441 14.3988 278.514 15.9927 259.043C16.9643 247.283 19.7985 235.753 24.3893 224.883L114.772 223.686Z" fill="#359EBA"/>
<path opacity="0.06" d="M69.5449 270.89L71.436 269.708C72.2351 269.208 72.7205 268.332 72.7205 267.39V246.216H69.5449V270.89Z" fill="black"/>
<path d="M19.8926 237.008C19.8926 237.008 35.8625 246.231 69.3396 246.231C102.817 246.231 119.342 234.958 119.342 234.958L114.73 222.021L25.0597 222.96L19.8926 237.008Z" fill="#2C8599"/>
<path d="M42.9574 229.494L40.2246 244.98L43.8681 245.891L46.601 230.177L42.9574 229.494Z" fill="#359EBA"/>
<path d="M97.3864 229.038L100.119 244.524L96.475 245.435L93.7422 229.721L97.3864 229.038Z" fill="#359EBA"/>
<path d="M22.1112 222.149C22.1112 222.149 29.8539 203.019 28.7157 166.582C28.6385 164.122 26.5821 157.455 26.2104 153.373C25.9592 149.278 25.9592 145.171 26.2104 141.076C26.2104 141.076 19.3783 136.066 13.9127 131.966C10.5267 129.334 7.8629 125.887 6.16992 121.946L12.0913 116.48L21.6561 105.093C34.0987 102.249 46.5788 98.3609 46.5788 98.3609L44.9138 99.2149C44.9138 99.2149 53.5393 106.232 69.253 106.688C84.9668 107.144 92.2545 98.2619 92.2545 98.2619L90.4782 96.9521L92.9978 97.8062C92.9978 97.8062 94.9908 98.9451 100.684 100.311C106.377 101.678 115.851 104.541 118.447 106.233L125.052 116.937C126.439 118.581 127.963 120.104 129.607 121.492C131.884 123.314 124.141 131.056 120.498 133.789C116.854 136.522 111.843 141.988 111.843 141.988C113.035 147.947 109.794 158.157 108.427 163.395C107.061 168.632 110.933 212.927 116.853 221.695L115.031 225.338L110.021 230.348C110.021 230.348 84.5152 235.358 68.5732 232.625C52.6313 229.892 43.9778 230.803 32.5909 229.892C21.2039 228.982 24.3924 224.882 24.3924 224.882L22.1112 222.149Z" fill="#00C19B"/>
<path opacity="0.1" d="M45.1125 224.199C46.9346 224.199 53.88 222.491 53.1968 221.124C52.5136 219.758 45.34 218.733 39.8743 219.758C34.4087 220.783 30.9926 221.466 30.651 218.733C30.3094 216 37.1415 208.827 37.1415 208.827L32.0175 144.264C32.0175 144.264 30.3094 134.357 38.8495 130.258C47.3896 126.159 48.756 121.718 48.756 121.718C47.1458 123.65 45.01 125.074 42.6071 125.817C38.8495 126.842 30.9926 131.966 30.9926 131.966C30.9926 131.966 30.3094 129.575 28.6014 123.768C26.8934 117.96 22.7942 110.787 22.7942 110.787C22.7942 110.787 23.819 117.619 24.8438 121.376C25.8686 125.134 24.8438 125.817 21.7694 124.109C18.6949 122.401 14.5957 118.302 14.5957 118.302L15.9621 121.035C17.3285 123.768 25.8686 129.916 26.5518 132.649C27.235 135.382 26.2102 141.075 26.2102 141.075C25.959 145.171 25.959 149.277 26.2102 153.373C26.5812 157.455 28.6383 164.12 28.7155 166.581C29.8544 203.019 22.111 222.148 22.111 222.148L24.3881 224.881C24.3881 224.881 21.1996 228.981 32.5866 229.891C39.8716 230.474 46.0409 230.312 53.7126 230.835C52.7019 229.834 51.4727 229.082 50.1217 228.638C44.3152 226.932 43.2903 224.199 45.1125 224.199Z" fill="black"/>
<path opacity="0.1" d="M114.002 132.649C117.076 129.575 121.814 125.208 122.884 123.426C123.513 122.358 123.974 121.199 124.25 119.991C124.25 119.991 120.492 124.451 117.418 126.159C114.343 127.867 111.952 127.867 111.952 125.817C111.952 123.768 111.383 118.871 112.75 116.48C114.116 114.089 114.002 110.787 117.076 114.544C117.076 114.544 115.368 108.737 112.977 109.762C110.586 110.787 108.536 118.302 108.195 125.476C107.853 132.649 108.195 142.214 107.853 146.313C107.511 150.413 107.511 155.195 103.754 165.443C99.9962 175.691 93.1641 185.598 92.8225 186.623C92.4809 187.647 96.5801 220.214 95.8969 223.06C95.2137 225.906 94.5305 228.298 90.7729 229.665C88.2095 230.597 83.1039 232.323 79.1406 233.435C93.7961 233.531 110.017 230.348 110.017 230.348L115.027 225.338L116.849 221.694C110.927 212.927 107.056 168.632 108.423 163.394C109.789 158.157 113.03 147.946 111.839 141.987C111.839 141.987 110.927 135.724 114.002 132.649Z" fill="black"/>
<path d="M30.4306 145.182L37.0256 222.88C37.1168 223.954 37.6313 224.947 38.4556 225.641C39.2799 226.335 40.3464 226.673 41.42 226.58L101.684 221.356C103.902 221.164 105.552 219.219 105.378 216.999L99.3996 140.303C99.2264 138.082 97.2952 136.416 95.0728 136.57L34.1944 140.789C33.1096 140.864 32.1002 141.372 31.3926 142.197C30.6851 143.023 30.3385 144.098 30.4306 145.182Z" fill="white"/>
<path d="M132.337 201.197C137.461 199.375 135.753 191.177 135.07 188.444C134.386 185.711 128.123 179.676 116.281 179.904C104.439 180.131 73.0119 182.523 55.1345 177.968C54.0351 176.483 52.6392 175.242 51.0352 174.325C48.3024 172.731 44.4307 170.225 44.4307 170.225L35.3215 166.354L27.5787 165.215C27.5787 165.215 28.2619 168.858 29.6283 169.542L28.7033 170.004C28.134 170.289 27.7175 170.808 27.563 171.425L27.3936 172.102C27.2276 172.765 27.4531 173.465 27.975 173.907L30.0827 175.69L29.7151 176.18C29.0667 177.045 28.7163 178.096 28.7163 179.177C28.7164 179.865 28.9664 180.531 29.42 181.049L30.3081 182.067C29.7296 182.935 29.5552 184.011 29.8299 185.018C29.9964 185.628 30.2515 186.211 30.5869 186.747L31.2195 187.76C30.775 188.798 30.6559 189.947 30.8779 191.055C31.0937 192.135 31.8891 193.007 32.9446 193.321C35.0683 193.96 37.231 194.463 39.4194 194.824C43.7461 195.507 48.0735 195.279 49.4399 194.824C53.0137 194.578 56.6038 194.73 60.1437 195.279C65.8369 196.19 86.6747 200.972 93.5067 202.567C100.339 204.162 107.512 204.844 114.117 203.933C120.722 203.023 132.337 201.197 132.337 201.197Z" fill="#FFDBB0"/>
<path d="M0.705078 195.048C0.705078 195.048 4.80431 184.117 11.2948 182.409C17.7852 180.701 19.8348 179.676 21.8845 180.36C23.9341 181.043 38.8505 189.355 43.9745 192.771C49.0986 196.187 74.3868 203.817 77.11 204.044C81.2093 204.386 85.9917 200.97 94.8734 201.653C101.013 202.125 104.438 201.995 107.171 201.995C108.79 202 110.401 201.77 111.954 201.311C111.954 201.311 111.954 204.044 109.904 205.411C109.904 205.411 111.612 207.119 111.612 208.143C111.612 209.168 110.246 211.218 110.246 211.218C110.246 211.218 111.612 212.926 111.612 213.951C111.612 214.975 108.423 217.594 108.423 217.594C108.423 217.594 108.082 220.1 107.057 220.783C106.094 221.288 105.056 221.634 103.983 221.808C103.983 221.808 104.324 221.693 103.299 223.06C102.275 224.426 100.225 225.109 98.1753 225.109C96.1141 225.002 94.061 224.774 92.0265 224.426C92.0265 224.426 85.3085 222.149 82.2341 221.466C79.1596 220.783 73.1918 219.338 62.4211 217.025C1.95739 204.044 1.31108 194.837 0.705078 195.048Z" fill="#FFDBB0"/>
<path opacity="0.1" d="M67.7797 277.545C67.7797 277.545 59.5812 274.812 52.7491 272.08C45.9171 269.347 49.5606 274.357 54.1155 275.723C58.6705 277.09 67.7797 277.545 67.7797 277.545Z" fill="black"/>
<path opacity="0.1" d="M73.7012 277.09C73.7012 277.09 81.4439 270.714 83.2661 269.348C85.0882 267.981 86.9096 266.159 89.1874 267.071C91.4652 267.982 78.7111 274.813 73.7012 277.09Z" fill="black"/>
<path opacity="0.1" d="M70.4004 279.974C70.4004 279.974 78.2573 277.546 81.4458 277.546C84.6343 277.546 90.7825 281.035 70.4004 279.974Z" fill="black"/>
<path opacity="0.1" d="M67.3243 280.051C67.3243 280.051 56.393 279.368 54.6849 280.392C52.9769 281.417 52.6353 285.175 67.3243 280.051Z" fill="black"/>
<path opacity="0.1" d="M97.2644 99.3986C95.7915 99.0102 94.3609 98.4763 92.9937 97.8047L90.4741 96.9507L92.2504 98.2604C92.2504 98.2604 84.9626 107.142 69.2489 106.686C53.5352 106.231 44.9097 99.2141 44.9097 99.2141L46.5747 98.3601C46.5747 98.3601 43.4545 99.3323 38.7793 100.66C38.7793 100.66 49.6634 111.014 69.7039 111.014C89.7444 111.014 97.2644 99.3986 97.2644 99.3986Z" fill="black"/>
<path opacity="0.07" d="M89.4063 39.3912C95.1808 42.1923 96.9216 47.5897 95.8968 50.3225L94.872 53.0553C94.872 53.0553 100.679 48.2729 98.9712 43.832C97.2632 39.3912 91.456 35.292 82.9159 30.8511C74.3758 26.4103 65.8357 21.2862 65.4941 18.895C65.4941 18.895 66.1773 28.1183 89.4063 39.3912Z" fill="white"/>
<path opacity="0.07" d="M44.885 84.3687C43.6149 89.0685 46.0239 90.5176 46.0239 90.5176C46.0239 90.5176 41.2414 87.7847 41.0139 85.5076C40.7864 83.2305 40.5582 81.4084 40.5582 81.4084C40.5582 81.4084 39.6475 83.458 36.459 83.6855C37.8013 82.3799 38.7485 80.7224 39.1918 78.9031C39.875 75.9427 41.2414 69.7939 42.1521 67.2886C42.1521 67.2886 47.1621 75.9427 44.885 84.3687Z" fill="white"/>
<path opacity="0.1" d="M115.113 179.79C115.113 179.79 118.671 179.334 120.266 180.246C121.861 181.157 114.117 175.691 114.117 175.691L115.113 179.79Z" fill="black"/>
<path opacity="0.1" d="M29.7969 184.231L48.585 194.991L51.1471 194.65C51.1471 194.65 37.1413 185.085 29.7969 184.231Z" fill="black"/>
<path opacity="0.1" d="M23.0216 180.929L20.0605 181.043L23.9323 175.122L23.0216 180.929Z" fill="black"/>
<path opacity="0.1" d="M89.5781 201.653C89.5781 201.653 109.049 204.215 110.928 204.215L109.903 205.41C109.903 205.41 101.022 205.069 95.8978 204.215C90.7737 203.361 89.5781 201.653 89.5781 201.653Z" fill="black"/>
<path opacity="0.1" d="M29.627 169.542C29.627 169.542 39.1918 172.275 41.2415 172.502C43.2911 172.73 43.5193 176.147 29.627 169.542Z" fill="black"/>
<path opacity="0.1" d="M110.244 211.217C110.244 211.217 107.17 210.705 107.17 211.73C107.17 212.755 110.244 211.217 110.244 211.217Z" fill="black"/>
<path opacity="0.1" d="M108.424 217.594C108.424 217.594 105.293 216.683 104.61 217.537C103.926 218.391 108.424 217.594 108.424 217.594Z" fill="black"/>
<path opacity="0.1" d="M103.983 221.807C103.983 221.807 101.364 221.466 100.453 222.377C99.5415 223.287 102.047 223.288 103.983 221.807Z" fill="black"/>
<path opacity="0.07" d="M51.0326 8.76114C48.0482 8.35657 45.0585 9.46689 43.0617 11.7215C39.4181 15.5932 39.4181 17.4146 39.4181 17.4146C39.4181 17.4146 44.2006 12.8597 46.7059 13.7711C49.2112 14.6825 44.8838 20.3756 42.151 21.742C39.4181 23.1085 38.2792 21.742 36.4578 24.2474C35.3797 25.6914 34.8184 27.4558 34.8639 29.2573C34.8639 29.2573 36.4578 26.5245 39.1906 26.297C41.9235 26.0695 48.528 25.8413 50.3494 23.3366C51.4554 21.787 52.1596 19.9872 52.3991 18.0985C51.0918 17.1179 50.2637 15.6273 50.1219 13.9993C49.9655 12.1252 51.0326 8.76114 51.0326 8.76114Z" fill="white"/>
<path opacity="0.05" d="M89.4074 53.0559C85.8192 55.68 89.9922 60.4577 91.457 60.9127C91.457 60.9127 84.8299 67.8766 90.3591 72.7008C95.8883 77.5249 96.0516 79.3443 96.1445 81.5695C96.2456 83.9962 95.2918 90.3405 91.5568 90.4921C87.8217 90.6438 87.7527 89.1018 87.7527 89.1018C87.7527 89.1018 87.5757 94.5114 92.1252 94.5114C97.2062 94.5114 98.1695 91.1746 98.1695 91.1746C97.549 93.8582 97.1879 96.5952 97.0914 99.3478C98.0759 99.6457 99.2633 99.9716 100.68 100.312C105.706 101.522 110.654 103.033 115.499 104.836C115.8 104.311 115.967 103.721 115.987 103.116C116.123 100.238 114.685 99.1729 114.685 99.1729C114.685 99.1729 114.396 102.813 111.756 101.865C109.682 101.119 109.259 97.5777 111.756 95.8362C114.801 93.7128 114.806 90.1334 113.546 88.4043C111.827 86.0438 109.966 83.3991 110.78 81.2757C110.78 81.2757 113.197 84.7641 115.964 83.7024C117.566 83.0945 118.616 81.5483 118.591 79.8348C118.591 79.8348 113.466 83.0459 113.132 77.2817C112.847 72.3407 116.421 71.1629 114.144 66.7159C111.866 62.2689 110.292 61.7107 111.105 59.8906C111.105 59.8906 112.219 62.014 114.497 61.559C115.093 61.4837 115.629 61.1612 115.974 60.6705C116.32 60.1799 116.443 59.5665 116.313 58.9806C116.313 58.9806 112.201 59.739 112.526 54.4305C112.851 49.122 114.295 48.3636 113.384 44.7242C112.656 41.8199 109.968 37.8484 108.014 36.5086C108.014 36.5086 112.245 36.9869 112.895 38.3533C113.325 39.368 113.599 40.4418 113.709 41.5384C113.709 41.5384 114.753 36.84 113.126 35.7783C111.498 34.7166 103.409 27.2034 102.729 24.9296C101.998 22.4817 97.9468 2.49795 69.9354 0.106727C69.8213 0.0971621 69.7078 0.0951125 69.5938 0.0869141V34.1194C73.4935 36.2934 78.4119 38.8404 84.6243 41.783C91.1154 44.8574 91.7091 51.3724 89.4074 53.0559Z" fill="black"/>
<path d="M48.9219 98.4106L57.2023 104.635L50.9782 112.915L42.6978 106.691L48.9219 98.4106Z" fill="white"/>
<path d="M49.9816 99.2342L52.4637 96.5827L52.4569 96.9666C52.0728 96.5283 51.7616 96.0312 51.5352 95.4943C51.2942 94.9384 51.1618 94.3414 51.1451 93.7357C51.113 93.0721 51.3395 92.4219 51.7771 91.9218C52.1851 91.4636 52.7573 91.1845 53.3696 91.145C53.0219 91.54 52.7237 91.976 52.4814 92.4431C52.2937 92.8381 52.2107 93.2748 52.2403 93.7111C52.3641 94.7054 52.6298 95.6768 53.0294 96.5956L53.151 96.7323L53.0225 96.9803L51.3507 100.205C51.2137 100.477 50.9409 100.655 50.6364 100.67C50.332 100.685 50.0429 100.535 49.8797 100.278C49.7164 100.02 49.7042 99.6951 49.8477 99.4262C49.8835 99.3565 49.9286 99.2919 49.9816 99.2342Z" fill="white"/>
<path opacity="0.1" d="M50.0094 101.517C47.7832 101.517 45.9785 103.321 45.9785 105.548C45.9785 107.774 47.7832 109.578 50.0094 109.578C52.2356 109.578 54.0403 107.774 54.0403 105.548C54.0403 103.321 52.2356 101.517 50.0094 101.517ZM50.0094 107.159C49.1205 107.159 48.3998 106.438 48.3998 105.549C48.3998 104.66 49.1205 103.939 50.0094 103.939C50.8984 103.939 51.6191 104.66 51.6191 105.549C51.6192 105.976 51.4497 106.385 51.1479 106.688C50.846 106.99 50.4365 107.159 50.0094 107.159V107.159Z" fill="black"/>
<path opacity="0.2" d="M44.9139 99.2141L46.0754 98.6184C46.1396 98.5658 46.1908 98.5138 46.2496 98.4619C44.2 99.0911 32.9148 102.519 21.6542 105.092L12.0893 116.479L6.16797 121.945C6.16797 121.945 7.56991 124.479 8.01946 125.361C10.2549 123.633 12.8361 120.466 13.9408 119.098C16.332 116.138 23.1347 106.345 23.1347 106.345C23.1347 106.345 39.2071 102.882 45.0519 99.3227C44.9645 99.2551 44.9139 99.2141 44.9139 99.2141Z" fill="white"/>
<path opacity="0.2" d="M26.8938 224.881C26.8938 224.881 25.1858 223.002 25.0717 220.896C24.9576 218.791 28.0894 208.313 28.0894 208.313L25.8983 207.715C24.0885 217.254 22.1113 222.148 22.1113 222.148L24.3885 224.881C24.3885 224.881 22.9879 226.687 25.3757 228.168L26.8938 224.881Z" fill="white"/>
<path opacity="0.3" d="M36.43 510.86C37.284 508.183 37.5115 500.156 37.5115 500.156L36.3056 500.801C36.1058 504.048 36.138 507.306 36.402 510.549C36.0176 511.426 35.6832 512.325 35.4004 513.24C35.8161 512.48 36.1607 511.683 36.43 510.86Z" fill="white"/>
<path d="M39.4494 244.353C39.4494 244.353 35.6917 252.722 18.9532 258.187C18.9532 258.187 17.7576 285.686 20.1488 307.207C22.54 328.728 29.5429 363.23 29.7137 369.892C29.8845 376.553 26.4685 410.713 29.8845 428.135C33.3005 445.557 39.9618 474.422 39.791 479.717C39.6202 485.012 43.8902 484.67 42.0114 488.94C40.1326 493.21 41.1574 494.406 41.1574 494.406C41.1574 494.406 49.9024 493.044 55.8463 493.893C61.8244 494.747 62.166 496.797 62.166 496.797" stroke="#287699" stroke-width="2" stroke-linecap="square" stroke-dasharray="2 2"/>
<path d="M35.5195 497.48C36.5638 496.556 37.7099 495.754 38.9356 495.089" stroke="#287699" stroke-width="2" stroke-linecap="square" stroke-dasharray="2 2"/>
<path d="M100.083 243.157C100.083 243.157 106.915 255.454 121.092 258.7C121.092 258.7 122.8 280.221 120.409 298.326C118.018 316.431 110.161 359.985 110.161 367.842C110.161 375.699 112.723 402.514 111.698 410.371C110.673 418.228 102.304 471.86 100.083 479.546C98.5182 484.964 101.45 486.89 100.767 489.282C100.083 491.673 100.767 492.698 100.425 494.406C100.425 494.406 83.3449 489.794 76.6836 496.797" stroke="#287699" stroke-width="2" stroke-linecap="square" stroke-dasharray="2 2"/>
<path d="M103.841 497.139C103.841 497.139 103.158 495.858 100.596 494.748" stroke="#287699" stroke-width="2" stroke-linecap="square" stroke-dasharray="2 2"/>
<path opacity="0.2" d="M40.3589 482.564C38.1952 479.148 37.6261 462.295 33.6409 446.582C29.6558 430.868 28.2894 413.674 28.4028 397.391C28.5162 381.108 29.6551 371.087 29.2001 364.824C28.7451 358.561 24.6452 338.407 21.9123 319.847C19.1795 301.287 19.2936 289.9 18.7238 281.018C18.154 272.137 19.8627 247.427 20.6593 243.442C21.4559 239.457 23.7338 238.774 23.7338 238.774C21.3425 236.041 25.3277 228.411 25.3277 228.411L25.1869 228.04C24.0036 227.224 23.8888 226.332 24.0255 225.705C23.4598 227.032 22.286 229.936 20.9873 234.023L19.8894 237.008C19.8894 237.008 19.9488 237.042 20.0554 237.1C17.9847 244.263 16.6227 251.612 15.9889 259.042C14.395 278.513 15.3057 298.44 18.4943 320.074C21.6828 341.709 26.237 364.255 26.237 372.454C26.237 380.652 25.0981 394.316 24.6431 403.426C24.1881 412.535 26.0095 429.615 28.7423 440.774C31.4752 451.934 35.0804 475.845 34.4129 480.628C33.7455 485.41 36.9107 485.457 36.5828 488.053C36.2549 490.648 31.743 493.735 36.1975 501.124C35.571 496.114 41.2648 494.861 41.1507 494.406C41.0838 492.604 41.2754 490.802 41.7198 489.054C42.2951 486.663 42.5226 485.98 40.3589 482.564Z" fill="white"/>
<path opacity="0.1" d="M64.1577 492.719C62.2222 489.396 59.8309 488.712 60.6276 485.409C61.4242 482.106 61.968 481.196 61.2425 478.236C60.5169 475.275 58.9196 473.396 60.4581 462.636C61.9967 451.875 64.2158 426.255 64.045 411.908C63.8742 397.561 63.1609 393.798 64.3866 386.117C66.0946 375.413 65.1265 369.378 64.9557 363.571C64.9516 363.441 64.9475 363.302 64.9434 363.161C64.7261 371.997 64.267 379.942 63.3618 383.154C60.8564 392.035 58.5793 395.907 58.8068 402.967C59.0343 410.026 59.49 438.721 58.8068 450.564C58.1236 462.406 58.3484 469.693 58.5773 472.882C58.8061 476.07 55.3908 475.615 54.478 478.348C53.5653 481.08 59.488 479.031 57.4384 482.903C55.3887 486.774 51.2895 491.101 54.478 492.467C57.6666 493.834 61.0826 493.492 61.9933 501.178C61.994 501.181 66.0932 496.04 64.1577 492.719Z" fill="black"/>
<path opacity="0.1" d="M84.1977 486.776C81.8064 487.345 80.5541 484.727 81.0091 482.449C81.4642 480.172 87.6137 473.909 85.5641 474.707C83.5145 475.504 81.4648 474.251 81.6923 471.291C81.9199 468.33 79.8702 408.436 79.9843 403.198C80.0984 397.959 79.5286 391.241 77.479 385.89C75.4369 380.561 73.0566 367.883 73.0382 367.789C73.0382 367.82 73.0382 367.851 73.0382 367.883L73.0293 369.631C73.0389 370.695 73.0764 371.718 73.1523 372.682C73.8355 381.336 74.8036 383.214 75.316 389.534C75.7655 395.077 75.4868 392.95 75.316 412.592C75.1452 432.234 79.0736 465.882 79.9276 473.227C80.7816 480.571 76.8532 478.522 76.6824 482.109C76.5116 485.695 77.024 484.671 78.0488 487.574C79.0736 490.478 78.2196 489.111 75.9992 493.211C73.7788 497.31 77.1948 502.092 77.1948 502.092C75.316 494.52 83.8561 492.129 86.9305 490.307C90.0049 488.485 86.5889 486.207 84.1977 486.776Z" fill="black"/>
<path opacity="0.1" d="M119.245 235.022L119.342 234.959L115.552 224.325L112.894 227.728C112.894 227.728 113.463 228.411 114.602 231.713C115.741 235.015 115.399 236.61 114.83 237.635C114.83 237.635 118.132 237.749 119.043 243.784C119.954 249.818 121.548 254.259 121.776 266.443C121.978 277.439 121.408 288.436 120.068 299.351C118.815 310.283 112.667 346.379 112.097 351.389C111.527 356.4 107.429 372.796 107.542 376.782C107.655 380.768 111.527 389.307 111.755 397.506C111.983 405.704 110.616 418.685 108.112 433.26C105.607 447.835 103.785 462.979 102.419 468.103C101.052 473.227 99.5716 480.173 99.4582 481.995C99.3448 483.816 98.8891 484.159 96.4979 483.93C94.1067 483.702 94.4483 485.069 95.4731 486.208C96.4979 487.346 100.37 489.054 100.37 491.332C100.37 493.609 98.32 493.495 100.028 494.633C102.007 496.011 103.258 498.209 103.43 500.614C105.159 498.592 106.147 496.041 106.231 493.381C106.231 489.111 103.669 487.062 103.498 484.67C103.327 482.279 105.889 483.475 105.548 478.521C105.206 473.568 107.939 453.072 109.818 444.532C111.696 435.992 114.942 413.275 114.942 406.614C114.942 399.953 112.892 379.286 113.063 371.258C113.234 363.23 122.969 309.94 123.994 292.86C125.019 275.78 125.531 270.998 123.311 253.405C122.517 247.167 121.156 241.014 119.245 235.022Z" fill="black"/>
<path opacity="0.05" d="M133.246 156.561C131.864 146.716 129.841 136.971 127.188 127.389C129.339 124.85 130.756 122.41 129.602 121.488C127.958 120.101 126.435 118.577 125.048 116.933L118.443 106.229C115.847 104.537 106.373 101.674 100.68 100.308C94.9865 98.9412 92.9935 97.8023 92.9935 97.8023L90.4787 96.9497L92.255 98.2594C92.255 98.2594 85.0697 107.004 69.5938 106.689V285.7C70.0765 285.645 70.514 285.988 70.5755 286.47C71.1419 290.231 71.9173 318.271 72.1175 326.904C72.3744 337.972 72.7502 367.548 73.1553 372.679C73.8385 381.333 74.8066 383.212 75.319 389.532C75.7686 395.075 75.4898 392.948 75.319 412.59C75.1482 432.232 79.0766 465.88 79.9307 473.225C80.7847 480.569 76.8562 478.519 76.6854 482.106C76.5146 485.693 77.027 484.668 78.0518 487.572C79.0766 490.476 78.2226 489.109 76.0022 493.208C73.7818 497.308 77.1978 502.09 77.1978 502.09C77.1843 501.568 77.3208 501.052 77.5914 500.605C77.0913 503.616 75.9995 509.337 75.8 511.029C75.8 511.029 74.9801 513.96 73.9553 516.692C73.5463 517.813 73.2952 518.985 73.2093 520.176C73.1302 520.056 73.0617 519.929 73.0043 519.797L73.2469 525.946C73.2469 525.946 73.4101 531.089 84.9105 531.671C96.3645 532.251 104.724 526 105.008 521.559C105.195 519.003 104.937 516.433 104.246 513.965C103.921 512.799 103.515 511.658 103.031 510.549C103.303 507.223 103.328 503.881 103.106 500.551C103.246 500.656 103.332 500.724 103.332 500.724C105.118 498.684 106.144 496.09 106.235 493.38C106.235 489.11 103.673 487.06 103.503 484.669C103.332 482.278 105.894 483.473 105.552 478.52C105.211 473.567 107.943 453.071 109.822 444.531C111.701 435.991 114.946 413.274 114.946 406.613C114.946 399.951 112.897 379.284 113.068 371.257C113.238 363.229 122.974 309.939 123.999 292.859C125.024 275.779 125.536 270.996 123.316 253.404C122.092 243.515 119.393 233.866 115.308 224.778L116.852 221.689C114.906 218.807 113.181 212.086 111.791 204.175C112.574 204.111 113.351 204.032 114.12 203.926C120.724 203.015 132.339 201.193 132.339 201.193C135.208 200.174 135.934 197.156 135.899 194.218C136.441 189.137 136.256 178.56 133.246 156.561ZM108.787 180.16C108.112 171.906 107.943 165.235 108.424 163.394C108.991 161.22 109.879 158.188 110.641 154.962L114.001 173.972V173.991C114.217 175.992 114.563 177.978 115.036 179.935C113.266 179.982 111.151 180.066 108.786 180.16H108.787Z" fill="black"/>
<path d="M84.8523 89.8345C85.3182 89.6406 85.8516 89.704 86.259 90.0019C86.6566 90.2438 87.0336 90.518 87.3863 90.8217C88.0699 91.4259 88.6993 92.0889 89.2672 92.803C89.8658 93.4986 90.3798 94.2627 90.7982 95.0795C91.2036 95.9052 91.5121 96.775 91.7178 97.6715C92.3936 101.252 92.2523 104.939 91.3045 108.457C91.0893 109.345 90.7723 110.2 90.4847 111.038L89.6211 113.572C89.052 115.263 88.5136 116.964 87.9937 118.67C86.9689 122.086 86.0308 125.527 85.2322 129C84.4251 132.469 83.7976 135.976 83.352 139.51C82.9216 143.036 82.7528 146.605 82.6285 150.168C82.3914 157.296 82.4829 164.447 82.9127 171.566L82.2295 171.616C81.7562 164.465 81.6196 157.307 81.8196 150.142C81.9425 146.563 82.114 142.982 82.5499 139.411C82.9999 135.851 83.6332 132.317 84.4472 128.822C85.2458 125.326 86.1962 121.868 87.2531 118.445C87.7837 116.734 88.3376 115.031 88.9146 113.336L89.7939 110.8C90.0898 109.949 90.3979 109.13 90.609 108.278C91.5465 104.87 91.7053 101.296 91.0736 97.8184C90.8838 96.9707 90.597 96.1477 90.2189 95.3657C89.8256 94.5887 89.341 93.8614 88.7753 93.1993C88.2338 92.5104 87.633 91.8703 86.9798 91.2863C86.6569 91.0048 86.3117 90.75 85.9475 90.5245C85.5745 90.3196 85.2711 90.0982 84.8523 89.8345Z" fill="white"/>
<path d="M82.5751 170.055C83.0163 172.163 83.2735 174.306 83.3438 176.46C83.2947 177.968 82.0341 179.152 80.5255 179.107C79.9277 179.022 79.2445 176.204 79.4153 175.606C79.5861 175.008 79.8423 174.666 80.5255 174.752C81.2087 174.837 81.3795 171.934 81.4649 171.336C81.5503 170.738 82.5751 170.055 82.5751 170.055Z" fill="white"/>
<path d="M90.7279 171.107C91.3455 173.171 91.7826 175.285 92.0342 177.425C92.1125 178.932 90.9565 180.218 89.4496 180.301C88.8471 180.266 87.9281 177.515 88.0477 176.905C88.1673 176.295 88.3941 175.933 89.0821 175.96C89.7701 175.988 89.697 173.08 89.7298 172.476C89.7626 171.872 90.7279 171.107 90.7279 171.107Z" fill="white"/>
<path d="M85.7629 124.678C85.0308 135.1 85.5277 145.572 87.2434 155.878C88.9515 166.145 90.887 173.869 90.887 173.869" stroke="white"/>
</svg>
