<svg width="131" height="452" viewBox="0 0 131 452" fill="none" xmlns="http://www.w3.org/2000/svg">
<path opacity="0.1" fill-rule="evenodd" clip-rule="evenodd" d="M64.3384 451.986C87.3244 452.173 104.192 450.584 103.998 438.896C103.812 427.664 89.5869 423 64.9188 423C34.5271 423 27 425.794 27 437.026C27 448.258 35.5124 451.753 64.3384 451.986Z" fill="black"/>
<path d="M66.123 42.4587C62.6011 46.9762 58.7115 51.1931 54.4942 55.0661C48.3235 60.5374 46.1877 63.3918 44.7637 66.9598C43.3398 70.5278 44.5262 71.7175 43.3398 74.0958C42.1534 76.4741 40.7295 75.285 40.7295 75.285C40.7295 75.285 41.9159 78.6155 44.5268 77.4258C44.5268 77.4258 44.5268 78.853 42.6284 80.7563C40.7301 82.6596 38.5936 82.8971 37.4072 84.5624C36.2208 86.2276 35.2714 89.082 35.7458 93.6017H95.7894C95.7894 93.6017 96.5013 86.2276 93.1791 83.8488C91.1987 82.4362 89.7058 80.4411 88.9073 78.14C88.9073 78.14 92.2302 79.3291 93.891 77.1883C95.5519 75.0475 94.8405 73.1442 94.8405 73.1442C94.8405 73.1442 93.891 75.7605 92.2302 74.8094C90.5693 73.8583 89.8568 70.0517 88.9073 68.149C88.3531 67.0224 87.5396 66.044 86.5339 65.2946C86.5339 65.2946 88.6698 65.7701 89.1443 63.8674C89.1443 63.8674 87.7203 64.1054 85.347 61.4885C82.9736 58.8716 66.123 42.4587 66.123 42.4587Z" fill="#736357"/>
<path d="M68.1007 239.766C70.4262 252.896 70.8095 269.501 71.8501 284.009C72.5587 293.885 71.5426 314.868 71.5426 318.674C71.5426 322.48 72.5547 333.767 72.017 343.666C70.9007 364.218 75.5295 388.766 75.9089 396.758C76.2882 404.75 75.0175 410.471 74.2571 416.18C73.4967 421.889 71.4093 432.291 71.4093 434.574C71.4093 436.858 74.0094 441.317 78.9458 441.698C83.8822 442.079 91.8789 436.706 93.3974 434.423C94.9158 432.139 93.3495 423.927 92.8568 418.239C92.3693 412.603 92.1568 407.816 92.6381 402.834C93.5733 393.146 97.8024 377.119 99.1881 368.784C101.182 356.795 102.89 349.754 102.89 341.381C102.89 333.008 100.612 316.539 101.751 308.927C102.89 301.315 110.378 258.584 111.244 236.201C112.288 209.222 104.786 191.313 100.897 183.247L100.904 183.252C96.006 171.468 93.8798 168.79 93.4999 163.842C93.12 158.894 96.3477 140.436 97.4868 137.771C98.3212 135.82 99.3596 132.439 99.8551 130.77C99.8882 130.662 99.9904 130.592 100.102 130.599C100.214 130.606 100.306 130.69 100.325 130.8L103.181 146.991V147.007C103.21 147.318 104.392 159.588 110.016 161.748C114.657 163.531 119.246 167.228 119.903 167.771C119.972 167.829 120.068 167.841 120.149 167.801C120.877 167.459 123.549 164.127 119.223 132.443C117.818 122.525 115.66 112.728 112.768 103.138C111.829 99.9756 110.68 95.7911 107.8 92.9429C106.818 91.8693 105.694 90.9361 104.459 90.1696C100.115 87.7531 98.8344 88.5905 88.3556 85.1567C77.8539 81.716 76.651 70.3966 76.4733 65.9922C76.4706 65.9251 76.4982 65.8603 76.5485 65.8158C78.7177 63.874 80.5467 61.5813 81.9593 59.0332C83.5593 55.9715 83.7717 52.967 84.3373 49.0604C84.3469 48.9926 84.3844 48.932 84.4406 48.8931C84.4969 48.8543 84.5668 48.8409 84.6335 48.8561C87.5001 49.5451 90.8087 37.4516 89.3643 35.1601C88.2821 33.4428 86.8696 34.2181 86.1747 34.7719C86.101 34.8286 86.0014 34.8382 85.9182 34.7967C85.835 34.7552 85.7827 34.6698 85.7834 34.5766L85.7994 29.5854C85.7994 13.5219 77.0058 9.87915 66.159 9.87915C55.3122 9.87915 46.5187 13.5214 46.5187 29.5854L46.5347 34.5766C46.5354 34.6698 46.4831 34.7552 46.3999 34.7967C46.3166 34.8382 46.2171 34.8286 46.1434 34.7719C45.4502 34.2181 44.036 33.4428 42.9538 35.1601C41.51 37.4521 44.8186 49.5463 47.6846 48.8561C47.7512 48.8409 47.8212 48.8543 47.8774 48.8931C47.9337 48.932 47.9712 48.9926 47.9808 49.0604C48.5464 52.967 48.7594 55.9715 50.3587 59.0332C51.7929 61.6167 53.6534 63.9381 55.8613 65.8986C55.7662 70.2373 54.4903 81.6886 43.9067 85.1567C33.6243 88.5249 32.279 87.8221 28.1297 90.0617C26.819 90.8473 25.6279 91.8181 24.5933 92.9441C22.1665 95.2121 20.3621 98.0673 19.3533 101.236C15.5338 112.365 9.95548 133.205 8.72123 147.287C7.15948 165.11 9.10113 165.555 10.6196 166.316C12.0754 167.046 25.7404 156.586 26.8727 155.716C26.9212 155.68 26.9529 155.625 26.9604 155.565C27.1393 154.261 29.1396 139.818 30.9058 132.55C30.9322 132.443 31.027 132.367 31.1367 132.366C31.2464 132.364 31.3434 132.437 31.3728 132.543C32.5034 136.507 37.1044 153.257 37.1044 163.271C37.1044 170.883 36.5348 173.801 31.9783 183.252C28.0899 191.318 20.587 209.227 21.6316 236.206C22.4979 258.589 29.9854 301.32 31.1245 308.932C32.2636 316.543 29.9854 333.013 29.9854 341.386C29.9854 349.76 31.6941 356.8 33.6875 368.789C35.0733 377.124 39.6948 392.766 40.2376 402.839C40.507 407.838 39.7933 412.487 39.2482 418.17C38.7009 423.879 37.1978 432.074 38.7145 434.357C40.2313 436.641 48.994 442.084 53.9299 441.703C58.8658 441.322 61.3548 436.641 61.3548 434.357C61.3548 432.074 58.8663 421.881 58.1082 416.172C57.3501 410.464 56.5892 404.755 56.9691 396.762C57.349 388.77 61.9773 364.222 60.8609 343.671C60.3233 333.772 61.3354 322.485 61.3354 318.678C61.3354 314.872 60.3193 293.89 61.0278 284.013C62.0684 269.505 62.4517 252.9 64.7773 239.77L65.0695 239.443C65.4479 239.02 65.9978 238.792 66.5638 238.824C67.1299 238.856 67.6508 239.144 67.9794 239.607L68.1007 239.766Z" fill="#FFDBB0"/>
<path opacity="0.05" d="M107.835 92.9439C106.854 91.8703 105.73 90.9371 104.494 90.1706C100.151 87.754 98.8698 88.5915 88.3909 85.1577C77.8033 81.6884 76.667 70.2137 76.5041 65.8899C78.7076 63.9316 80.5646 61.6136 81.9964 59.0341C83.6368 55.8943 83.819 52.815 84.4182 48.7617C87.3378 50.2677 90.8879 37.5199 89.4013 35.1605C88.0104 32.9529 86.0722 34.8647 85.8205 35.1296L85.8381 29.5858C85.8381 13.544 77.0668 9.8904 66.2365 9.88013V70.9302H66.195C65.096 71.0244 63.9893 70.8994 62.9388 70.5625C60.3404 69.435 57.96 67.8584 55.9063 65.9047H55.9023L91.81 101.887H111.759C110.948 98.6887 110.716 95.7926 107.835 92.9439Z" fill="black"/>
<path d="M51.5391 40.0343C51.5391 40.0343 53.3884 37.4785 56.521 37.7508C59.6537 38.0231 61.9655 40.9477 61.9655 40.9477C61.9655 40.9477 59.0909 41.1869 57.5326 41.5072C55.9743 41.8274 53.5251 41.393 51.5391 40.0343Z" fill="white"/>
<path d="M56.6872 41.442C57.8045 41.442 58.7103 40.5342 58.7103 39.4142C58.7103 38.2943 57.8045 37.3865 56.6872 37.3865C55.5698 37.3865 54.6641 38.2943 54.6641 39.4142C54.6641 40.5342 55.5698 41.442 56.6872 41.442Z" fill="#3B93B2"/>
<path d="M56.6873 40.4282C57.246 40.4282 57.6989 39.9742 57.6989 39.4143C57.6989 38.8543 57.246 38.4004 56.6873 38.4004C56.1287 38.4004 55.6758 38.8543 55.6758 39.4143C55.6758 39.9742 56.1287 40.4282 56.6873 40.4282Z" fill="#534741"/>
<path d="M55.5481 39.985C55.8626 39.985 56.1176 39.7294 56.1176 39.4141C56.1176 39.0989 55.8626 38.8433 55.5481 38.8433C55.2335 38.8433 54.9785 39.0989 54.9785 39.4141C54.9785 39.7294 55.2335 39.985 55.5481 39.985Z" fill="white"/>
<path d="M50.9429 39.4432C51.6981 38.6035 52.6402 37.9541 53.6928 37.5478C54.734 37.1276 55.8746 37.0199 56.9758 37.2378C58.032 37.4777 59.0177 37.9616 59.8543 38.6508C60.6647 39.3182 61.414 40.0569 62.0933 40.8578L62.1844 40.9594L62.0905 41.0479L61.784 41.3334L61.7339 41.3802L61.6872 41.3653C61.2273 41.2007 60.7425 41.1167 60.2542 41.117C60.7484 41.0562 61.2493 41.0812 61.735 41.1906L61.6388 41.2226L61.8381 40.8521V41.0416C61.256 40.2034 60.5027 39.4987 59.6282 38.9745C58.7939 38.438 57.8482 38.1 56.8636 37.9863C55.9128 37.9124 54.9591 38.0867 54.0955 38.4921C53.2468 38.9038 52.4909 39.4848 51.8742 40.1996L51.8417 40.2373C51.6253 40.4882 51.2469 40.5158 50.9965 40.2989C50.7461 40.082 50.7185 39.7027 50.9349 39.4517L50.9429 39.4432Z" fill="#826F67"/>
<path d="M62.8499 35.3536C62.8499 35.3536 54.5998 34.3397 52.6718 34.7616C51.2906 35.0636 49.2578 36.8739 49.2578 36.8739C49.2578 36.8739 50.7387 33.7911 51.8505 33.283C52.9623 32.7749 60.337 32.3747 61.2204 32.8834C62.1038 33.3921 62.8499 35.3536 62.8499 35.3536Z" fill="#826F67"/>
<path d="M80.8835 40.0343C80.8835 40.0343 79.0341 37.4785 75.9015 37.7508C72.7689 38.0231 70.457 40.9477 70.457 40.9477C70.457 40.9477 73.3316 41.1869 74.89 41.5072C76.4483 41.8274 78.898 41.393 80.8835 40.0343Z" fill="white"/>
<path d="M75.736 41.442C76.8533 41.442 77.7591 40.5342 77.7591 39.4142C77.7591 38.2943 76.8533 37.3865 75.736 37.3865C74.6187 37.3865 73.7129 38.2943 73.7129 39.4142C73.7129 40.5342 74.6187 41.442 75.736 41.442Z" fill="#3B93B2"/>
<path d="M75.7362 40.4282C76.2948 40.4282 76.7477 39.9742 76.7477 39.4143C76.7477 38.8543 76.2948 38.4004 75.7362 38.4004C75.1775 38.4004 74.7246 38.8543 74.7246 39.4143C74.7246 39.9742 75.1775 40.4282 75.7362 40.4282Z" fill="#534741"/>
<path d="M74.5657 39.985C74.8802 39.985 75.1352 39.7294 75.1352 39.4141C75.1352 39.0989 74.8802 38.8433 74.5657 38.8433C74.2511 38.8433 73.9961 39.0989 73.9961 39.4141C73.9961 39.7294 74.2511 39.985 74.5657 39.985Z" fill="white"/>
<path d="M80.5505 40.2003C79.9337 39.4855 79.1779 38.9045 78.3292 38.4928C77.4656 38.0874 76.5119 37.9131 75.5611 37.987C74.5764 38.1007 73.6307 38.4387 72.7964 38.9752C71.9219 39.4994 71.1686 40.2041 70.5865 41.0424V40.8528L70.7859 41.2233L70.6896 41.1914C71.1754 41.0819 71.6763 41.057 72.1705 41.1177C71.6821 41.1175 71.1974 41.2015 70.7375 41.366L70.6908 41.3809L70.6406 41.3341L70.3342 41.0486L70.2402 40.9602L70.3314 40.8585C71.0107 40.0576 71.76 39.319 72.5703 38.6515C73.407 37.9623 74.3927 37.4785 75.4489 37.2386C76.5501 37.0206 77.6907 37.1283 78.7319 37.5486C79.7844 37.9548 80.7265 38.6042 81.4817 39.4439C81.6265 39.6026 81.6755 39.8269 81.6103 40.0317C81.545 40.2366 81.3754 40.3909 81.1657 40.4362C80.9559 40.4815 80.738 40.4109 80.5944 40.2511L80.587 40.2426L80.5505 40.2003Z" fill="#826F67"/>
<path d="M69.5723 35.3536C69.5723 35.3536 77.8224 34.3397 79.7504 34.7616C81.1316 35.0636 83.1644 36.8739 83.1644 36.8739C83.1644 36.8739 81.6835 33.7911 80.5717 33.283C79.4599 32.7749 72.0852 32.3747 71.2018 32.8834C70.3184 33.3921 69.5723 35.3536 69.5723 35.3536Z" fill="#826F67"/>
<path opacity="0.08" d="M69.8102 51.9246C68.92 51.9246 66.5603 52.758 66.2168 52.758C65.8734 52.758 63.5131 51.9246 62.6234 51.9246C61.7002 51.9246 62.3928 53.1377 63.316 53.1377C64.2273 53.1377 65.4758 54.1984 66.1992 54.2303V54.2361C66.2049 54.2361 66.2111 54.2361 66.2168 54.2361C66.2208 54.2355 66.2248 54.2355 66.2288 54.2361L66.2345 54.2303C66.9578 54.1984 68.208 53.1377 69.1176 53.1377C70.0409 53.1377 70.7335 51.9246 69.8102 51.9246Z" fill="black"/>
<path d="M70.5694 57.9707C69.6031 57.6709 68.6163 57.442 67.6168 57.2856C67.0677 57.2856 66.5779 57.8828 66.1986 57.8845C65.8192 57.8862 65.3317 57.2856 64.7826 57.2856C63.7832 57.442 62.7964 57.6709 61.83 57.9707C60.7424 58.1167 59.6403 58.1167 58.5527 57.9707C58.5527 57.9707 62.8626 61.6163 63.2414 61.9252C65.1073 63.4455 67.2921 63.4455 69.2298 61.9252C69.6143 61.6232 73.8467 57.9707 73.8467 57.9707C72.7591 58.1167 71.657 58.1167 70.5694 57.9707Z" fill="#E89E97"/>
<path opacity="0.1" d="M73.8467 57.9707C72.7591 58.1167 71.657 58.1167 70.5694 57.9707C69.6031 57.6709 68.6163 57.442 67.6168 57.2856C67.0677 57.2856 66.5779 57.8828 66.1986 57.8845C65.8192 57.8862 65.3317 57.2856 64.7826 57.2856C63.7832 57.442 62.7964 57.6709 61.83 57.9707C60.7424 58.1167 59.6403 58.1167 58.5527 57.9707C58.5527 57.9707 62.3443 60.083 66.2128 60.083C70.0813 60.083 73.8467 57.9707 73.8467 57.9707Z" fill="black"/>
<path d="M24.659 200.189C24.659 200.189 18.7737 215.793 20.6721 240.722C22.5704 265.65 29.5955 303.138 29.7851 311.701C29.9748 320.264 28.0764 332.253 28.8357 344.622C29.5949 356.991 35.1009 396.477 35.1009 396.477L50.6688 399.617L60.4465 396.477C60.4465 396.477 62.44 366.125 62.2503 351.282C62.0607 336.439 62.0607 334.156 62.44 324.831C62.8193 315.507 63.2004 297.048 63.5791 288.295C63.8981 280.937 63.9835 254.619 65.3368 241.104C65.3683 240.721 65.6852 240.426 66.0679 240.423C66.4506 240.419 66.7729 240.708 66.8114 241.09C68.1818 252.365 69.178 276.592 68.8932 290.008C68.5799 301.764 69.0879 313.528 70.4133 325.213C71.5525 336.535 70.4817 338.168 71.2677 353.376C72.2172 371.74 72.4068 395.907 72.4068 395.907L82.1846 399.807L96.8981 396.763C96.8981 396.763 104.587 360.797 103.828 343.671C103.069 326.545 101.36 321.026 102.119 312.082C102.879 303.139 111.612 258.991 112.182 241.483C112.751 223.976 111.423 202.283 103.449 195.242L24.659 200.189Z" fill="#5B2455"/>
<path d="M7.80812 141.721C7.80812 141.721 8.37768 139.438 9.80159 132.302C10.8872 126.86 16.9417 105.648 19.7553 95.8835C20.643 92.802 23.0855 90.4177 26.1823 89.6095L49.5288 82.2063L66.6579 113.034L83.4179 81.9209L108.722 90.1005C110.65 90.6028 112.172 92.0862 112.726 94.0042C115.206 102.591 122.059 126.477 123.221 132.301C124.645 139.437 126.373 152.139 126.373 152.139L130.929 157.063C130.929 157.063 128.639 157.238 127.37 160.631C123.739 170.336 117.782 169.313 117.782 169.313C117.782 169.313 121.184 160.101 118.897 157.633C115.195 153.637 110.093 152.281 107.245 151.853C105.706 151.582 104.132 151.582 102.593 151.853L102.29 147.286C102.29 147.286 93.5755 165.497 98.5114 174.498C103.402 183.419 108.859 203.518 108.859 203.518C105.153 212.037 77.1185 224.906 72.2168 225.116L66.3315 220.359L60.0663 225.116C54.619 225.027 27.3396 212.722 23.5668 201.377C23.5668 201.377 30.8288 179.113 34.9109 173.737C41.0741 165.62 30.7343 147.286 30.7343 147.286L29.619 154.28C29.619 154.28 24.7293 150.942 16.6854 153.28C6.62285 156.206 9.75546 165.376 9.75546 165.376C7.77662 165.272 5.93685 164.324 4.70057 162.772C3.18211 160.994 0.737534 156.231 0.167969 155.66C0.167969 155.66 4.98535 150.855 6.19568 150.712L7.80812 141.721Z" fill="#00C19B"/>
<path opacity="0.1" d="M106.813 206.38C106.856 206.415 106.886 206.405 106.927 206.356C108.582 204.447 108.858 203.519 108.858 203.519C108.858 203.519 104.776 189.818 103.827 187.154C102.878 184.489 100.22 177.449 100.22 177.449L96.7077 173.643C94.5257 163.68 102.385 147.287 102.385 147.287L102.783 154.137C105.64 150.054 110.428 147.778 115.39 148.143C123.384 148.677 126.516 150.461 126.885 150.688C126.365 150.36 119.983 146.406 114.251 145.86C108.27 145.289 105.138 145.86 105.138 145.86C105.138 145.86 108.016 143.984 109.523 143.481C111.802 142.72 115.96 143.005 115.96 143.005C115.96 143.005 113.719 141.292 108.004 141.768L104.283 142.434C104.13 139.862 104.225 137.281 104.568 134.727C105.138 130.731 108.403 128.048 110.264 126.45C112.125 124.993 114.099 123.689 116.168 122.549C116.168 122.549 111.118 124.166 108.27 126.164C105.423 128.162 103.714 129.589 103.714 129.589C103.714 129.589 102.86 124.166 106.277 120.741C109.694 117.315 112.561 116.649 114.65 115.127C114.65 115.127 110.549 116.174 106.846 117.315L106.736 117.35C105.81 117.653 104.791 117.412 104.098 116.725C103.405 116.038 103.153 115.021 103.446 114.089L109.996 93.3379C109.996 93.3379 103.142 106.754 100.864 113.319C98.5855 119.884 95.4717 118.885 97.1616 125.593C97.9123 128.573 105.031 143.433 94.0478 154.993C89.9993 159.255 97.4652 174.403 97.1804 177.543C100.147 182.601 102.182 188.153 103.188 193.933C103.204 193.991 103.227 194.046 103.256 194.098C104.254 196.683 105.075 199.333 105.713 202.029L106.813 206.38Z" fill="black"/>
<path opacity="0.1" d="M27.0546 201.307C28.0172 198.689 30.8194 194.273 30.828 194.242C32.1095 189.818 33.747 185.18 34.9573 181.54C36.7942 176.017 44.2127 159.561 41.9345 154.138C39.6562 148.715 34.8149 128.448 35.954 125.594C37.0932 122.739 40.5106 119.314 43.0736 118.743C45.6367 118.172 46.491 116.174 43.928 116.46C41.3649 116.745 34.5301 119.885 32.2519 113.32C29.9736 106.755 25.1323 97.0498 25.1323 97.0498L31.6823 120.456C31.6823 120.456 29.9736 118.458 26.2714 117.316C22.5693 116.174 19.1519 113.034 19.1519 113.034C20.291 114.462 23.4236 117.316 26.841 120.741C30.2584 124.167 29.404 129.59 29.404 129.59C29.404 129.59 27.6953 128.163 24.8475 126.165C21.9997 124.167 20.291 120.741 20.291 120.741C20.291 120.741 21.4301 124.452 22.854 126.45C24.278 128.448 27.9801 130.732 28.5497 134.728C28.8929 137.282 28.9882 139.863 28.8345 142.435L25.7019 141.293C14.8801 139.866 11.4627 144.433 11.4627 144.433L17.1584 143.006C22.854 141.579 27.9801 145.86 27.9801 145.86C27.9801 145.86 24.8475 145.289 18.8671 145.86C13.135 146.407 6.753 150.361 6.23242 150.689C6.60207 150.46 9.73354 148.678 17.728 148.144C25.6216 147.616 29.1608 153.197 29.6547 154.05L30.7334 147.287C30.7334 147.287 41.0733 165.622 34.91 173.738C32.0622 177.485 27.6766 189.437 25.2764 196.333C25.2605 196.286 25.2428 196.24 25.2274 196.192L23.566 201.378C23.57 201.389 23.5745 201.4 23.578 201.411L23.566 201.449C23.6873 201.779 23.9755 202.234 24.1828 202.758C24.4323 203.415 24.7524 203.743 25.0372 204.375L25.4404 204.636C25.4404 204.636 25.7731 205.018 27.0546 201.307Z" fill="black"/>
<path opacity="0.1" d="M66.7653 122.142L87.6883 83.3018L83.4177 81.9214L66.6577 113.034L49.5286 82.2068L45.3184 83.5421L66.7653 122.142Z" fill="black"/>
<path d="M6.23239 150.689L6.19336 150.713L6.23239 150.689Z" fill="black"/>
<path opacity="0.1" d="M66.3299 220.36L69.8424 223.199V122.169H65.8555L66.2348 220.386L66.3299 220.36Z" fill="black"/>
<path d="M126.885 150.689L126.924 150.713L126.885 150.689Z" fill="black"/>
<path d="M33.481 133.494L45.697 184.645C46.0796 186.246 47.082 187.63 48.4833 188.49C49.8845 189.35 51.5695 189.617 53.1669 189.231L91.436 179.978C94.7381 179.179 96.7808 175.862 96.013 172.545L84.3033 121.977C83.5353 118.66 80.2432 116.583 76.9274 117.325L38.1526 125.993C36.5339 126.355 35.1279 127.353 34.2496 128.763C33.3714 130.173 33.0945 131.877 33.481 133.494Z" fill="#E6E6E6"/>
<path d="M64.7419 160.547C68.7394 160.547 71.98 157.299 71.98 153.292C71.98 149.285 68.7394 146.037 64.7419 146.037C60.7445 146.037 57.5039 149.285 57.5039 153.292C57.5039 157.299 60.7445 160.547 64.7419 160.547Z" fill="white"/>
<path d="M117.758 169.266C121.226 167.696 124.047 162.891 122.054 158.895C120.673 156.126 114.934 151.521 105.062 151.712C95.1896 151.902 69.042 154.138 54.1382 150.332C53.2217 149.091 52.058 148.055 50.7208 147.288C48.4426 145.956 45.2148 143.863 45.2148 143.863L37.6208 140.627L31.1659 139.676C31.1659 139.676 31.7355 142.72 32.8746 143.291L32.1034 143.678C31.6288 143.915 31.2816 144.349 31.1528 144.865L31.0116 145.43C30.8732 145.985 31.0612 146.569 31.4963 146.939L33.2534 148.429L32.947 148.838C32.4065 149.561 32.1143 150.439 32.1143 151.342C32.1144 151.918 32.3228 152.474 32.7009 152.907L33.4414 153.757C32.9591 154.483 32.8137 155.382 33.0427 156.223C33.1815 156.733 33.3941 157.22 33.6737 157.668L34.2012 158.514C33.8305 159.382 33.7312 160.342 33.9164 161.268C34.0962 162.17 34.7593 162.899 35.6393 163.161C37.4097 163.695 39.2127 164.115 41.0371 164.417C44.6441 164.988 48.2518 164.797 49.3909 164.417C52.3702 164.211 55.3632 164.339 58.3143 164.797C63.0605 165.558 80.4322 169.555 86.1279 170.887C91.8235 172.219 97.8039 172.79 103.31 172.029C108.816 171.268 115.551 170.265 117.758 169.266Z" fill="#FFDBB0"/>
<path opacity="0.2" d="M33.9963 175.127C29.8333 182.165 23.5664 201.378 23.5664 201.378C23.772 201.997 23.9987 202.599 24.2328 203.196C25.2802 199.875 27.1991 193.966 29.1197 188.962C31.9675 181.54 34.5305 175.831 34.5305 175.831L33.9963 175.127Z" fill="white"/>
<path d="M9.64453 164.664C9.64453 164.664 12.1768 155.473 17.5877 154.046C22.9986 152.618 24.7021 152.214 26.4108 152.785C28.1195 153.355 40.56 159.85 44.8317 162.704C49.1034 165.559 70.1853 171.934 72.4556 172.124C75.873 172.409 79.86 169.555 87.2643 170.126C92.383 170.52 95.2382 170.411 97.5165 170.411C98.8661 170.416 100.209 170.223 101.503 169.84C101.503 169.84 101.503 172.124 99.7947 173.265C99.7947 173.265 101.219 174.693 101.219 175.549C101.219 176.405 100.08 178.118 100.08 178.118C100.08 178.118 101.219 179.545 101.219 180.401C101.219 181.258 98.5605 183.446 98.5605 183.446C98.5605 183.446 98.2757 185.539 97.4214 186.11C96.6188 186.533 95.7532 186.822 94.8583 186.967C94.8583 186.967 95.1431 186.871 94.2887 188.013C93.4344 189.155 91.7257 189.726 90.017 189.726C88.2987 189.636 86.5871 189.445 84.8909 189.155C84.8909 189.155 79.2904 187.252 76.7273 186.681C74.1643 186.11 69.1892 184.903 60.21 182.97C9.80572 172.121 10.1213 164.997 9.64453 164.664Z" fill="#FFDBB0"/>
<path opacity="0.1" d="M33.0156 155.566L48.6787 164.557L50.8145 164.272C50.8145 164.272 39.1385 156.279 33.0156 155.566Z" fill="black"/>
<path opacity="0.1" d="M82.8535 170.123C82.8535 170.123 99.0861 172.264 100.652 172.264L99.7981 173.263C99.7981 173.263 92.3937 172.978 88.122 172.264C83.8503 171.55 82.8535 170.123 82.8535 170.123Z" fill="black"/>
<path opacity="0.1" d="M32.873 143.292C32.873 143.292 40.847 145.575 42.5557 145.765C44.2644 145.955 44.4546 148.81 32.873 143.292Z" fill="black"/>
<path opacity="0.1" d="M100.083 178.116C100.083 178.116 97.5195 177.687 97.5195 178.544C97.5195 179.4 100.083 178.116 100.083 178.116Z" fill="black"/>
<path opacity="0.1" d="M98.563 183.444C98.563 183.444 95.9527 182.683 95.3831 183.396C94.8135 184.11 98.563 183.444 98.563 183.444Z" fill="black"/>
<path opacity="0.1" d="M94.8617 186.964C94.8617 186.964 92.6786 186.679 91.9188 187.44C91.159 188.201 93.2476 188.201 94.8617 186.964Z" fill="black"/>
<path d="M87.4977 35.49C86.3551 37.8689 86.1689 38.3918 85.789 40.866C85.4091 43.3402 84.6316 39.7059 84.0997 38.1069C82.8893 34.4675 81.323 32.8263 78.9736 31.6131C75.7515 29.9496 71.5692 30.6855 59.7507 25.5475C55.9694 23.904 52.5241 21.9795 52.5241 21.9795C52.5241 21.9795 48.3947 32.1127 48.2523 35.1098C48.11 38.1069 48.11 39.5341 49.6763 42.5312C51.2426 45.5284 48.6795 46.9556 48.6795 46.9556C48.6795 46.9556 49.6763 44.672 48.11 42.9594C46.5437 41.2468 43.5534 35.9661 43.6958 34.2535L42.2992 30.4856C40.872 26.7277 40.4296 22.6659 41.0143 18.6878C41.1416 17.4325 41.5355 16.2191 42.1694 15.1289C44.0678 12.4646 45.2536 12.5651 46.6308 10.4666C49.0042 6.85116 52.5161 2.14139 57.2629 1.28507C59.8358 0.841783 62.4737 0.955264 64.9993 1.6179C64.9993 1.6179 70.5053 -0.427572 74.4922 0.714191C78.4792 1.85595 82.4576 5.6997 83.4156 6.75583C85.314 8.84925 88.3235 13.1663 89.5857 14.6528C90.5315 15.8436 91.1914 17.2365 91.5142 18.7238C92.341 22.2625 91.9415 25.9779 90.3814 29.2588L87.4977 35.49Z" fill="#736357"/>
<path d="M40.3691 100.689C42.6474 99.7614 46.4207 95.6939 48.4854 93.339C50.5501 90.9842 55.249 92.4827 55.249 92.4827L50.9283 80.6364C50.7964 80.2751 50.5162 79.9879 50.1587 79.8477C49.8013 79.7075 49.401 79.7277 49.0595 79.9034L39.5859 84.7758C40.1407 86.997 40.4746 89.2679 40.5827 91.555C40.6539 94.7662 40.3691 100.689 40.3691 100.689Z" fill="#00C19B"/>
<path d="M92.626 100.689C90.3477 99.7614 86.5744 95.6939 84.5097 93.339C82.445 90.9842 77.7461 92.4827 77.7461 92.4827L82.0668 80.6364C82.1987 80.2751 82.4789 79.9879 82.8363 79.8477C83.1938 79.7075 83.5941 79.7277 83.9356 79.9034L93.4091 84.7758C92.8544 86.997 92.5205 89.2679 92.4124 91.555C92.3412 94.7662 92.626 100.689 92.626 100.689Z" fill="#00C19B"/>
<path opacity="0.1" d="M40.3691 100.689C42.6474 99.7614 46.4207 95.6939 48.4854 93.339C50.5501 90.9842 55.249 92.4827 55.249 92.4827L50.9283 80.6364C50.7964 80.2751 50.5162 79.9879 50.1587 79.8477C49.8013 79.7075 49.401 79.7277 49.0595 79.9034L39.5859 84.7758C40.1407 86.997 40.4746 89.2679 40.5827 91.555C40.6539 94.7662 40.3691 100.689 40.3691 100.689Z" fill="black"/>
<path opacity="0.1" d="M92.626 100.689C90.3477 99.7614 86.5744 95.6939 84.5097 93.339C82.445 90.9842 77.7461 92.4827 77.7461 92.4827L82.0668 80.6364C82.1987 80.2751 82.4789 79.9879 82.8363 79.8477C83.1938 79.7075 83.5941 79.7277 83.9356 79.9034L93.4091 84.7758C92.8544 86.997 92.5205 89.2679 92.4124 91.555C92.3412 94.7662 92.626 100.689 92.626 100.689Z" fill="black"/>
<path opacity="0.07" d="M56.6484 15.9847C59.7251 18.8786 63.337 21.1413 67.2805 22.6451C73.5457 24.9287 79.2414 25.9751 81.8995 28.3539C83.6122 29.8868 83.9881 31.113 83.9881 31.113C83.9881 31.113 83.7034 26.8314 78.5773 24.2624C73.4512 21.6935 65.1925 18.2682 64.3381 17.1264C64.3381 17.1264 70.1289 20.1709 74.2104 20.1709C77.0582 20.1709 79.1468 17.9827 79.1468 17.9827C77.1355 18.1273 75.1143 17.9344 73.1664 17.4119C70.3186 16.5555 66.9012 13.4157 63.199 11.9885C59.4968 10.5613 57.2186 11.4176 57.2186 11.4176C57.2186 11.4176 60.0658 12.8448 56.6484 15.9847Z" fill="white"/>
<path opacity="0.07" d="M53.4209 65.9368C53.4209 65.9368 48.2156 67.364 48.2948 71.7409C48.3899 76.9742 47.0605 77.069 47.0605 77.069C47.0605 77.069 50.2883 76.6882 51.0475 74.7854C51.8067 72.8827 50.6676 69.6475 53.4209 65.9368Z" fill="white"/>
<path d="M89.2077 83.3486C88.0686 79.9233 85.7904 76.498 84.0817 75.9271C82.9966 75.5646 80.7662 75.6628 79.2802 75.7821C79.2264 75.4345 79.1168 75.0979 78.9556 74.7854C78.386 73.6436 77.7452 73.6556 77.7452 73.6556C77.7452 73.6556 77.2372 76.099 69.273 76.498C57.8817 77.0689 54.9387 72.4065 54.9387 72.4065C54.5367 72.5293 54.1758 72.7596 53.8947 73.0727C53.3251 73.6436 53.3251 75.3562 52.186 77.0689C51.5053 78.0869 51.1117 79.2704 51.0469 80.4942C60.3877 86.3468 68.2597 86.356 73.7156 84.9745C78.9556 88.4865 78.6708 93.5291 78.6708 93.5291C80.3793 91.8795 81.4829 89.7007 81.8034 87.3447C81.9777 86.5362 81.7672 85.6924 81.2338 85.0612C82.373 87.3447 89.2077 83.3486 89.2077 83.3486Z" fill="#5B2455"/>
<path opacity="0.05" d="M84.0827 83.3487C83.2945 81.5669 81.8734 80.1426 80.0957 79.3525C80.0957 79.3525 85.2218 79.3525 87.5001 82.2069L84.0827 83.3487Z" fill="black"/>
<path opacity="0.2" d="M52.9458 79.1625C53.8953 77.6399 55.0344 78.2108 54.8442 76.4982C54.7485 75.6367 55.2298 74.3419 55.7315 73.2675C55.4323 73.0152 55.1659 72.7262 54.9387 72.4072C54.5367 72.53 54.1758 72.7604 53.8947 73.0734C53.3251 73.6443 53.3251 75.357 52.186 77.0696C51.5053 78.0877 51.1117 79.2711 51.0469 80.4949C51.4029 80.7176 51.7554 80.9293 52.1068 81.1354C52.3216 80.4519 52.6026 79.7911 52.9458 79.1625Z" fill="white"/>
<path opacity="0.2" d="M51.4559 82.0881L50.9268 80.6381C50.7949 80.2768 50.5147 79.9896 50.1573 79.8494C49.7998 79.7092 49.3996 79.7295 49.0581 79.9051L39.5845 84.7775C39.5845 84.7775 39.6363 84.979 39.7149 85.3204L26.1815 89.6118C23.0847 90.4199 20.6422 92.8042 19.7545 95.8857C16.9408 105.651 10.8869 126.862 9.80078 132.304C8.37687 139.44 7.8073 141.724 7.8073 141.724L6.19372 150.715C4.9834 150.858 0.166016 155.663 0.166016 155.663C0.735581 156.234 3.2747 160.919 4.69862 162.775C5.83887 164.093 7.38256 164.997 9.08882 165.344C6.76955 161.082 3.96274 155.663 3.96274 155.663C4.5323 153.76 9.56327 149.288 9.56327 149.288C9.27849 147.004 13.835 127.119 15.1638 122.361C16.4926 117.603 21.3339 98.1938 21.8089 96.8614C22.2839 95.5289 24.5616 94.5779 24.5616 94.5779C24.5616 94.5779 28.6437 90.7718 33.5796 89.4399C38.5154 88.1081 40.4143 88.4883 40.4143 88.4883C40.4143 88.4883 48.5779 83.1602 50.4769 82.5893C50.8344 82.4923 51.1679 82.3216 51.4559 82.0881Z" fill="white"/>
<path d="M38.1598 427.971C38.1598 427.971 29.2364 441.197 51.8294 446.43C54.3884 447.022 58.6499 443.595 60.6576 440.721C64.6446 435.012 62.5087 432.252 60.2305 427.305C60.2305 427.305 60.5152 430.445 53.7277 431.016C44.261 431.813 38.1598 427.971 38.1598 427.971Z" fill="#00C19B"/>
<path d="M72.0889 428.351C72.0889 428.351 75.0068 431.301 83.5503 430.73C92.0938 430.159 93.8748 426.449 93.8748 426.449C93.8748 426.449 97.1048 433.033 95.2264 437.01C93.0193 441.684 88.2492 444.432 81.6992 446.43C75.1492 448.428 72.3014 443.575 71.1623 442.148C69.5717 439.933 69.0904 437.106 69.8579 434.488C71.7631 427.354 72.0889 428.351 72.0889 428.351Z" fill="#00C19B"/>
<path opacity="0.1" d="M52.3998 444.146C46.945 444.467 41.1292 440.532 37.0898 437.033C38.7581 440.687 42.8459 444.349 51.8302 446.43C54.1016 446.955 57.7104 444.317 59.8975 441.706C57.6562 443.166 55.0698 444.008 52.3998 444.146Z" fill="black"/>
<path opacity="0.1" d="M78.7594 444.336C75.8157 444.456 72.9441 443.406 70.7695 441.413C70.865 441.676 70.9984 441.924 71.1654 442.148C72.3045 443.575 75.1523 448.428 81.7023 446.43C86.7663 444.885 91.7426 442.239 94.4463 438.437C90.4901 441.335 84.2397 444.17 78.7594 444.336Z" fill="black"/>
<path opacity="0.2" d="M39.7056 428.766C39.1748 428.533 38.6586 428.267 38.1598 427.971C38.1598 427.971 33.4894 434.898 39.4698 440.709C38.264 436.51 39.1913 431.111 39.7056 428.766Z" fill="white"/>
<path opacity="0.06" d="M68.0391 231.873C68.0391 231.873 76.5825 229.304 82.6581 227.592C88.7337 225.879 91.2016 225.879 91.2016 225.879C91.2016 225.879 85.6956 228.067 82.2782 229.019C78.8608 229.97 68.0391 231.873 68.0391 231.873Z" fill="black"/>
<path opacity="0.06" d="M67.7852 234.126C67.7852 234.126 77.9747 232.648 85.2076 231.711C92.4405 230.774 95.3048 231.083 95.3048 231.083C95.3048 231.083 88.6814 232.567 84.6135 233.081C80.5457 233.595 67.7852 234.126 67.7852 234.126Z" fill="black"/>
<path opacity="0.06" d="M65.6234 231.873C65.6234 231.873 57.08 229.304 51.0044 227.592C44.9289 225.879 42.4609 225.879 42.4609 225.879C42.4609 225.879 47.9669 228.067 51.3843 229.019C54.8017 229.97 65.6234 231.873 65.6234 231.873Z" fill="black"/>
<path opacity="0.06" d="M65.8771 234.126C65.8771 234.126 55.6876 232.648 48.4547 231.711C41.2218 230.774 38.3574 231.083 38.3574 231.083C38.3574 231.083 44.9809 232.567 49.0487 233.081C53.1166 233.595 65.8771 234.126 65.8771 234.126Z" fill="black"/>
<g opacity="0.1">
<path opacity="0.1" d="M50.1935 399.246C49.8592 385.646 49.9771 372.051 50.1121 358.457L50.3285 338.068C50.39 331.275 50.4874 324.474 50.4185 317.688C50.3917 314.306 50.1303 310.911 49.9748 307.515L49.5015 297.328C49.2004 290.535 48.9517 283.741 48.7554 276.944C48.5591 270.147 48.4153 263.348 48.3242 256.548C48.2815 253.148 48.2496 249.748 48.2468 246.346L48.2587 241.241C48.2525 240.39 48.3077 239.54 48.2507 238.687C48.1865 238.224 48.0184 237.783 47.7592 237.395C47.6078 237.155 47.4283 236.935 47.2244 236.739C46.9789 236.486 46.705 236.262 46.4082 236.072L51.8914 236.243C51.5857 236.41 51.301 236.614 51.0433 236.849C50.8298 237.031 50.6395 237.238 50.4766 237.467C50.1983 237.837 50.0083 238.267 49.9213 238.723C49.8358 239.569 49.8643 240.418 49.8296 241.265L49.7487 246.355C49.706 249.749 49.6917 253.145 49.6878 256.542C49.6824 263.334 49.7339 270.128 49.8421 276.922C49.9503 283.716 50.1066 290.509 50.3109 297.299C50.4094 300.695 50.5518 304.089 50.6959 307.484C50.8303 310.877 51.069 314.266 51.0815 317.682C51.1162 324.488 50.9852 331.281 50.8901 338.078C50.795 344.875 50.6623 351.67 50.6008 358.466C50.5267 365.261 50.4867 372.057 50.4806 378.852C50.4806 385.646 50.5284 392.443 50.7654 399.233L50.1935 399.246Z" fill="black"/>
</g>
<g opacity="0.1">
<path opacity="0.1" d="M81.7441 399.783C82.4487 386.229 83.024 372.667 83.5576 359.106C83.7963 352.325 84.0133 345.542 84.1466 338.76C84.199 335.37 84.2679 331.975 84.1893 328.598C84.1557 327.756 84.1158 326.922 84.0982 326.06C84.0805 325.197 84.0321 324.347 84.0685 323.497L84.1226 320.943L84.24 318.396C84.9992 304.83 86.0688 291.303 86.5541 277.75C86.6316 276.056 86.668 274.362 86.713 272.669C86.758 270.975 86.8167 269.281 86.8207 267.588L86.8708 262.507L86.8173 257.43C86.8173 255.736 86.7284 254.047 86.6749 252.357L86.5837 249.822C86.5553 248.977 86.4784 248.136 86.4277 247.292L86.2568 244.765C86.1998 243.922 86.156 243.078 86.0523 242.241L85.7846 239.726C85.7681 239.288 85.63 238.863 85.3859 238.499C85.0447 238.008 84.5703 237.625 84.019 237.396L88.6951 236.817C88.2048 237.186 87.8212 237.678 87.5839 238.245C87.4185 238.658 87.3687 239.11 87.4398 239.55L87.6784 242.099C87.7724 242.948 87.8043 243.799 87.8527 244.65L87.9917 247.202C88.0316 248.053 88.0988 248.904 88.1164 249.755L88.1734 252.308C88.2059 254.009 88.2748 255.711 88.252 257.412L88.2412 262.514L88.1273 267.613C88.1016 269.313 88.0168 271.01 87.9564 272.708C87.896 274.406 87.8311 276.104 87.7325 277.8C87.4096 284.587 86.9215 291.361 86.4225 298.131C85.9236 304.901 85.3404 311.665 84.9713 318.432L84.8392 320.97L84.7702 323.505C84.7287 324.352 84.7702 325.189 84.7839 326.03C84.7976 326.872 84.8317 327.726 84.8602 328.58C84.9172 331.987 84.8289 335.379 84.7566 338.774C84.5811 345.562 84.322 352.344 84.048 359.126C83.544 372.692 82.8947 386.251 82.3097 399.812L81.7441 399.783Z" fill="black"/>
</g>
<path opacity="0.15" d="M33.5806 313.604C32.8214 301.805 24.4676 251.568 22.9485 232.539C21.4295 213.51 24.2323 203.195 24.2323 203.195L23.9139 202.506C22.3961 207.712 19.2002 221.417 20.6703 240.721C22.5686 265.649 29.5937 303.137 29.7833 311.7C29.973 320.263 28.0746 332.252 28.8339 344.621C29.5931 356.99 35.0991 396.476 35.0991 396.476L36.4797 396.754C35.0734 387.435 32.3976 368.153 31.3018 349.759C29.7839 324.26 34.3404 325.402 33.5806 313.604Z" fill="white"/>
<path opacity="0.06" d="M61.1101 352.615C60.9541 359.965 60.028 387.23 59.7039 396.715L60.4443 396.477C60.4443 396.477 62.4378 366.125 62.2481 351.282C62.0585 336.439 62.0585 334.156 62.4378 324.831C62.7642 316.823 63.1856 302.104 63.5109 292.534C62.5865 305.975 60.0166 318.193 59.7802 320.645C59.2112 326.544 61.2998 343.671 61.1101 352.615Z" fill="black"/>
<path opacity="0.06" d="M72.9751 326.972C71.9784 317.125 68.8743 291.007 68.8743 291.007L68.8566 298.067C68.5308 311.122 69.8214 319.325 70.4138 325.212C71.5529 336.534 70.4821 338.167 71.2681 353.375C72.2176 371.739 72.4073 395.906 72.4073 395.906L73.3755 396.292C72.5816 317.995 73.9605 336.708 72.9751 326.972Z" fill="black"/>
<path opacity="0.06" d="M112.18 241.483C112.589 228.92 112.02 214.203 108.72 204.29L108.573 204.138C108.573 204.138 108.175 204.766 106.927 206.356C108.873 213.591 109.873 221.049 109.902 228.543C109.902 240.722 109.143 250.998 106.865 266.411C104.586 281.825 98.5108 313.224 98.3211 318.552C98.1315 323.88 101.739 328.257 101.549 344.241C101.392 357.474 97.3312 387.14 95.9375 396.961L96.8972 396.762C96.8972 396.762 104.586 360.797 103.827 343.67C103.068 326.544 101.359 321.025 102.118 312.082C102.878 303.138 111.611 258.99 112.18 241.483Z" fill="black"/>
<path opacity="0.05" d="M126.372 152.14C126.372 152.14 124.645 139.438 123.221 132.302C122.059 126.479 115.206 102.591 112.726 94.0053C112.171 92.0873 110.65 90.6039 108.722 90.1016L93.3235 85.1241C93.3764 84.9009 93.4089 84.7765 93.4089 84.7765L88.8791 82.4467C87.6694 79.3434 85.6406 76.4484 84.0823 75.9278C82.9972 75.5653 80.7668 75.6635 79.2808 75.7828C79.227 75.4351 79.1174 75.0985 78.9562 74.786C78.3866 73.6443 77.7458 73.6563 77.7458 73.6563C77.7458 73.6563 77.2378 76.0996 69.2736 76.4987C68.1686 76.5558 67.1457 76.5592 66.1945 76.5249V85.6847C68.722 85.8324 71.2573 85.593 73.7128 84.9745C75.9961 86.4223 77.6578 88.6723 78.3724 91.2839L66.6558 113.035L66.1934 112.202V240.455C66.5225 240.494 66.7797 240.759 66.8102 241.089C68.1806 252.364 69.1762 276.591 68.8914 290.008C68.5781 301.764 69.0861 313.527 70.4116 325.212C71.5507 336.534 70.4799 338.168 71.2659 353.375C72.2154 371.739 72.405 395.906 72.405 395.906L75.9284 397.312C76.2245 405.013 74.9994 410.606 74.2578 416.18C73.8124 419.529 72.9102 424.491 72.2399 428.484C72.1379 428.401 72.0889 428.351 72.0889 428.351C72.0889 428.351 71.7626 427.354 69.8579 434.488C69.0904 437.106 69.5717 439.933 71.1622 442.148C72.3014 443.575 75.1492 448.428 81.6992 446.43C88.2492 444.432 93.0193 441.685 95.2264 437.01C97.1059 433.032 93.8748 426.449 93.8748 426.449C93.8748 426.449 93.848 426.506 93.7877 426.6C93.5097 423.81 93.0774 420.777 92.8581 418.24C92.3706 412.604 92.1581 407.818 92.6388 402.835C92.7955 401.211 93.0461 399.41 93.3588 397.494L96.8963 396.762C96.8963 396.762 104.585 360.797 103.826 343.671C103.067 326.544 101.358 321.025 102.118 312.082C102.877 303.139 111.61 258.99 112.18 241.483C112.593 228.798 112.009 213.92 108.62 204.005C108.707 203.842 108.788 203.68 108.858 203.519C108.858 203.519 105.215 190.107 101.216 180.332C101.119 179.79 100.903 179.277 100.584 178.829C100.454 178.528 100.324 178.232 100.194 177.941C100.479 177.484 101.219 176.237 101.219 175.547C101.219 174.691 99.7954 173.264 99.7954 173.264C100.182 173.003 100.511 172.666 100.764 172.274C101.618 172.217 102.472 172.142 103.307 172.027C108.813 171.266 115.548 170.266 117.755 169.267C117.772 169.259 117.789 169.249 117.805 169.241L117.778 169.314C117.778 169.314 123.735 170.337 127.366 160.632C128.635 157.24 130.926 157.064 130.926 157.064L126.372 152.14ZM81.4674 85.3724C81.4873 85.3913 81.5107 85.4061 81.5312 85.4233L81.5135 85.4558C81.4981 85.4278 81.4828 85.3993 81.4674 85.3724ZM100.387 151.875C101.42 149.106 102.29 147.288 102.29 147.288L102.589 151.786C101.898 151.812 101.164 151.841 100.387 151.874V151.875ZM103.111 151.767C103.334 151.737 103.627 151.71 103.979 151.687L103.991 151.739C103.708 151.747 103.415 151.756 103.111 151.767V151.767Z" fill="black"/>
</svg>
