<svg width="126" height="456" viewBox="0 0 126 456" fill="none" xmlns="http://www.w3.org/2000/svg">
<path opacity="0.08" fill-rule="evenodd" clip-rule="evenodd" d="M68.4314 455.389C106.806 455.389 125.994 451.326 125.994 443.199C125.994 433.491 94.8023 433.559 63.0438 433.559C39.9362 433.559 32.7031 434.625 32.7031 444.333C32.7031 450.804 44.6126 454.49 68.4314 455.389Z" fill="black"/>
<path d="M81.0215 50.2569C81.0215 50.2569 66.1063 47.195 57.9966 47.195L57.7697 42.9991C49.66 42.9991 34.1777 48.0455 34.1777 48.0455C34.1777 48.0455 36.2761 7.50391 57.5996 7.50391C78.8097 7.56061 81.0215 50.2569 81.0215 50.2569Z" fill="#AB4F45"/>
<path opacity="0.15" d="M81.0215 50.2569C81.0215 50.2569 66.1063 47.195 57.9966 47.195L57.7697 42.9991C49.66 42.9991 34.1777 48.0455 34.1777 48.0455C34.1777 48.0455 36.2761 7.50391 57.5996 7.50391C78.8097 7.56061 81.0215 50.2569 81.0215 50.2569Z" fill="black"/>
<path d="M111.137 418.42C111.137 415.755 109.153 408.951 107.848 403.224C106.884 396.08 105.013 377.255 104.048 369.543C102.858 359.904 96.2223 329.625 87.2051 309.95C82.3847 299.404 80.7967 298.95 79.6058 294.13C78.4148 289.311 84.1994 269.408 86.638 258.181C88.5095 249.506 95.2015 220.532 94.0105 205.506C93.6703 201.367 93.1599 196.83 91.9122 192.351C102.177 177.949 111.534 164.284 111.024 158.614C110.457 152.376 103.255 99.4738 103.255 99.4738C102.461 96.2985 102.234 93.4067 99.3414 90.5716C98.3773 89.6077 97.2998 88.5303 95.9954 87.7932C91.6286 85.3551 90.381 86.2056 79.8893 82.8035C69.2843 79.3447 68.15 67.891 67.9799 63.5816C70.1917 61.5404 72.2333 59.1589 73.4809 56.7208C75.1256 53.6022 75.2957 50.5403 75.9195 46.4578C78.8685 47.9887 82.3847 35.2309 80.9102 32.9061C79.4924 30.6947 77.5642 32.6226 77.3373 32.8494V27.2926C77.3373 11.2461 68.547 7.61719 57.7151 7.61719C46.8832 7.61719 38.0929 11.2461 38.0929 27.2926V32.8494C37.8661 32.5659 35.8812 30.6947 34.5201 32.9061C33.0456 35.2876 36.5617 47.9887 39.5107 46.4578C40.1345 50.4836 40.3047 53.6022 41.9493 56.7208C43.197 59.1589 45.2386 61.5404 47.4503 63.5816C47.3369 67.891 46.0892 79.3447 35.4842 82.8035C25.2194 86.1489 23.8583 85.4685 19.7184 87.6798C18.3006 88.4169 17.2231 89.551 16.2022 90.5716C13.31 93.4067 13.0831 96.2985 12.2891 99.4738C12.2891 99.4738 8.48947 146.706 7.92236 152.943C7.35524 159.181 3.95255 184.696 3.95255 197.171C3.95255 209.645 4.00926 207.377 3.44214 211.913C2.93174 215.769 1.40053 228.073 1.11697 231.192C1.06026 231.759 1.11697 232.269 1.2871 232.779L4.17939 242.985C4.23611 243.212 4.34953 243.439 4.46295 243.666C4.74651 244.12 5.14349 244.516 5.54047 244.857L10.8146 248.486L16.3724 247.635L16.5992 247.238C19.8885 267.651 24.709 293.903 24.709 297.079C24.709 303.089 20.5123 312.728 20.5123 325.373C20.5123 345.842 29.5295 394.889 33.159 412.977C33.159 412.977 32.7053 420.461 33.4426 422.333C34.1798 424.204 33.8395 426.472 33.4426 428.4C33.0456 430.271 31.9114 434.807 31.1741 438.209C30.4369 441.611 34.9738 443.879 38.7167 446.147C42.5164 448.415 45.5221 449.152 48.9248 448.415C52.3275 447.678 55.7302 447.168 56.1272 444.106C56.5242 441.101 52.7245 436.168 50.853 429.364C48.9815 422.559 51.5903 418.93 50.456 415.869C50.0023 414.678 47.8473 413.204 46.7698 411.219C46.3161 397.157 47.4503 365.518 47.4503 349.925C47.4503 330.646 46.2594 322.254 47.4503 314.996C48.6413 307.795 50.1725 295.718 49.8322 287.893C48.698 262.888 51.0799 217.98 52.4977 208.171C58.6792 219.001 52.4409 269.238 53.1215 290.615C53.3483 298.553 53.4618 305.074 55.2765 308.079C57.0913 311.084 69.1141 333.991 76.3732 351.399C82.0444 365.064 90.1541 394.662 93.1599 407.137L93.4434 416.492C93.4434 416.492 93.4434 420.632 93.4434 425.565C93.4434 430.498 91.5719 437.302 91.1749 438.776C90.778 440.307 91.1749 444.049 92.3092 444.446C93.4434 444.843 101.383 444.446 105.183 442.178C108.982 439.91 111.251 437.642 112.725 433.503C114.2 429.364 111.137 422.559 111.137 418.42ZM86.1276 121.474C86.1276 121.361 87.2618 115.861 87.1484 113.139L93.9538 157.366C92.139 159.521 88.3394 166.835 85.2202 173.243C82.9518 167.516 81.0236 162.98 80.5699 160.882C79.3789 155.722 85.6172 124.252 86.1276 121.474ZM16.7694 241.511L13.1965 238.393L12.6294 233.006L14.1606 224.501L16.8261 227.506V241.511H16.7694Z" fill="#EAC8A7"/>
<path opacity="0.05" d="M99.2837 90.4014C98.3196 89.4375 97.2421 88.3602 95.9378 87.6231C91.571 85.1849 90.3233 86.0354 79.8317 82.6333C69.2266 79.1745 68.0924 67.7208 67.9222 63.4115C70.134 61.3702 72.1756 58.9888 73.4233 56.5506C75.0679 53.432 75.238 50.3701 75.8619 46.2876C78.8109 47.8186 82.327 35.0607 80.8525 32.7359C79.4347 30.5246 77.5065 32.4524 77.2796 32.6792V27.1225C77.2796 11.1326 68.4894 7.44702 57.6574 7.44702V68.4012H57.6007C56.7501 68.4012 55.5591 68.5146 54.3682 68.061C52.2131 67.2672 49.6611 65.5661 47.3359 63.4115L83.2344 99.3036H103.197C102.403 96.185 102.176 93.2932 99.2837 90.4014Z" fill="black"/>
<path d="M43.1953 37.8391C43.1953 37.8391 43.9893 36.7051 45.4638 36.0247C46.8816 35.401 50.0574 35.5144 51.702 36.9319C53.0064 38.1226 53.1765 38.8031 53.1765 38.8031C53.1765 38.8031 51.9289 39.3134 51.1349 39.6536C50.5111 39.9938 46.0876 40.6175 43.1953 37.8391Z" fill="white"/>
<path d="M48.3561 39.8237C49.4836 39.8237 50.3977 38.9098 50.3977 37.7825C50.3977 36.6551 49.4836 35.7412 48.3561 35.7412C47.2285 35.7412 46.3145 36.6551 46.3145 37.7825C46.3145 38.9098 47.2285 39.8237 48.3561 39.8237Z" fill="#00A99D"/>
<path d="M48.3567 38.8039C48.9205 38.8039 49.3776 38.3468 49.3776 37.7829C49.3776 37.2191 48.9205 36.762 48.3567 36.762C47.793 36.762 47.3359 37.2191 47.3359 37.7829C47.3359 38.3468 47.793 38.8039 48.3567 38.8039Z" fill="#534741"/>
<path d="M47.2234 38.35C47.5366 38.35 47.7905 38.0961 47.7905 37.7828C47.7905 37.4695 47.5366 37.2156 47.2234 37.2156C46.9102 37.2156 46.6562 37.4695 46.6562 37.7828C46.6562 38.0961 46.9102 38.35 47.2234 38.35Z" fill="white"/>
<path d="M54.8765 34.6639C54.8765 34.6639 45.1221 31.6587 42.9103 32.3391C42.3999 32.5092 41.209 33.7567 41.209 33.7567C41.209 33.7567 41.7194 31.4886 42.7402 30.9783C43.8177 30.3546 54.0825 29.504 54.8765 34.6639Z" fill="#534741"/>
<path d="M42.7971 37.6128C43.4209 36.6488 44.2716 35.9684 45.2357 35.5148C45.8028 35.288 46.3132 35.1746 46.8803 35.1746C47.3907 35.1179 47.9578 35.1746 48.4682 35.2313C49.4891 35.4014 50.5666 35.6849 51.4172 36.3653C51.8709 36.7056 52.2112 37.0458 52.5515 37.4994C52.835 37.8963 53.1753 38.3499 53.2887 38.9169V38.9736L53.232 39.0303L52.835 39.5406L52.7783 39.5973H52.7216C52.3813 39.5973 52.0411 39.5973 51.7008 39.654C51.3605 39.7107 51.0203 39.8241 50.68 39.9375C51.0203 39.7674 51.3605 39.654 51.7008 39.5406C52.0411 39.4272 52.3813 39.3705 52.7783 39.3705L52.6649 39.4272L53.0619 38.8602L53.0052 38.9736C52.835 38.5767 52.4948 38.2365 52.1545 37.8963C51.8142 37.5561 51.4172 37.2726 51.0203 37.0458C50.2263 36.5921 49.3189 36.422 48.3548 36.3653C47.4474 36.3086 46.4833 36.3653 45.6894 36.6488C44.8954 36.9891 44.1015 37.5561 43.4776 38.1798L43.4209 38.2365C43.2508 38.4066 42.9672 38.4066 42.7404 38.2365C42.6837 38.0097 42.6837 37.7829 42.7971 37.6128Z" fill="#826F67"/>
<path d="M2.76078 216.166C2.76078 216.166 2.30708 218.037 3.66816 217.81C5.36951 217.527 8.88563 216.676 11.1541 214.862C13.4226 213.047 13.4226 213.047 13.4226 213.047L13.139 217.47C13.139 217.47 8.31851 221.722 3.21447 222.006C1.22956 222.063 -0.528495 218.604 2.76078 216.166Z" fill="black"/>
<path d="M72.1199 37.8391C72.1199 37.8391 71.3259 36.7051 69.8514 36.0247C68.4337 35.401 65.2578 35.5144 63.6132 36.9319C62.3088 38.1226 62.1387 38.8031 62.1387 38.8031C62.1387 38.8031 63.3863 39.3134 64.1803 39.6536C64.8041 39.9938 69.2276 40.6175 72.1199 37.8391Z" fill="white"/>
<path d="M66.901 39.8237C68.0285 39.8237 68.9426 38.9098 68.9426 37.7825C68.9426 36.6551 68.0285 35.7412 66.901 35.7412C65.7734 35.7412 64.8594 36.6551 64.8594 37.7825C64.8594 38.9098 65.7734 39.8237 66.901 39.8237Z" fill="#00A99D"/>
<path d="M66.9017 38.8039C67.4654 38.8039 67.9225 38.3468 67.9225 37.7829C67.9225 37.2191 67.4654 36.762 66.9017 36.762C66.3379 36.762 65.8809 37.2191 65.8809 37.7829C65.8809 38.3468 66.3379 38.8039 66.9017 38.8039Z" fill="#534741"/>
<path d="M65.9382 38.35C66.2514 38.35 66.5053 38.0961 66.5053 37.7828C66.5053 37.4695 66.2514 37.2156 65.9382 37.2156C65.625 37.2156 65.3711 37.4695 65.3711 37.7828C65.3711 38.0961 65.625 38.35 65.9382 38.35Z" fill="white"/>
<path d="M71.7232 38.1227C71.1561 37.4989 70.3621 36.9319 69.5115 36.5917C68.7742 36.3082 67.8101 36.2515 66.846 36.3082C65.9386 36.3649 64.9745 36.5917 64.1806 36.9886C63.7836 37.2154 63.4433 37.4989 63.0463 37.8392C62.7061 38.1794 62.3658 38.5196 62.1957 38.9165L62.139 38.8031L62.5359 39.3701L62.4225 39.3134C62.8195 39.3134 63.1598 39.4268 63.5 39.4835C63.8403 39.5969 64.1806 39.7103 64.5208 39.8804C64.1806 39.767 63.8403 39.6536 63.5 39.5969C63.1598 39.5402 62.8195 39.5402 62.4792 39.5402H62.4225L62.3658 39.4835L61.9688 38.9732L61.9121 38.9165V38.8598C62.0255 38.2928 62.3658 37.8959 62.6494 37.4422C62.9896 37.0453 63.3299 36.6484 63.7836 36.3082C64.691 35.6278 65.7118 35.3443 66.7326 35.1742C67.243 35.1175 67.8101 35.0608 68.3205 35.1175C68.8309 35.1742 69.398 35.2309 69.9652 35.4577C70.986 35.9113 71.8366 36.5917 72.4038 37.5556C72.5172 37.7825 72.4605 38.066 72.2903 38.1794C72.1769 38.3495 71.9501 38.2928 71.7232 38.1227Z" fill="#826F67"/>
<path d="M60.5508 34.6644C60.5508 34.6644 70.3052 31.6592 72.5169 32.3396C73.0273 32.5097 74.2183 33.7571 74.2183 33.7571C74.2183 33.7571 73.7079 31.4891 72.6871 30.9788C71.5528 30.4118 61.288 29.5612 60.5508 34.6644Z" fill="#534741"/>
<path d="M58.7344 53.999C58.2807 53.999 57.6569 54.7361 57.6569 54.7361C57.6569 54.7361 57.0898 53.999 56.5794 53.999C56.1257 53.999 50.9082 55.8135 50.9082 55.8135C50.9082 55.8135 53.4035 60.1795 57.6002 60.1795C61.3998 60.1795 64.2354 55.8135 64.2354 55.8135C64.2354 55.8135 59.1881 53.999 58.7344 53.999Z" fill="#998675"/>
<path opacity="0.08" d="M61.2304 49.52C60.323 49.52 57.9978 50.3708 57.6576 50.3708C57.3173 50.3708 54.9354 49.52 54.0847 49.52C53.1774 49.52 53.8579 50.7112 54.7653 50.7112C55.6727 50.7112 56.9203 51.7889 57.6576 51.7889C58.3948 51.7321 59.6425 50.7112 60.5499 50.7112C61.4572 50.7112 62.1945 49.52 61.2304 49.52Z" fill="black"/>
<path d="M64.1781 16.6327C63.7244 16.1791 63.1006 15.9523 62.4201 16.009C59.6412 16.4059 49.4898 23.5503 43.9321 38.1226C40.5294 46.9681 40.5861 50.597 40.5861 55.9836C40.5861 58.762 42.7411 62.0507 45.0096 64.3188C45.0096 64.3188 26.4082 60.293 26.4082 47.8753C26.4082 38.7464 28.62 31.6587 29.7542 26.9524C31.4555 20.1482 37.2401 0.416084 57.2593 0.0758746C65.1989 -0.0375286 67.0137 4.3852 67.0137 4.3852C67.0137 4.3852 72.0043 5.51923 74.8399 9.20483C79.7738 15.6121 84.1973 30.7514 84.9346 36.1381C86.1255 45.0402 81.9288 53.0352 75.6339 56.0403C75.6339 56.0403 77.8456 51.5609 76.9949 47.0248C75.7473 40.2206 77.0516 44.8134 69.7926 25.4215C68.1479 21.0555 65.4825 17.9369 64.1781 16.6327Z" fill="#AB4F45"/>
<path d="M103.877 368.863C101.949 356.899 96.7882 327.471 88.6785 310.064C84.9355 302.125 81.4761 299.517 80.2284 294.697C79.0375 289.878 84.8221 269.976 87.2607 258.749C89.1321 250.073 95.9375 222.006 93.9526 201.877L12.8551 175.511C12.8551 175.511 10.7 182.145 10.9269 197.454C11.494 229.207 17.3353 260.393 17.3353 260.393C20.6246 280.806 23.7437 293.904 23.7437 297.079C23.7437 303.089 19.6038 312.615 19.6038 325.26C19.6038 334.332 23.29 357.239 25.5585 373.739C26.9763 384.116 27.3165 392.111 27.3165 392.111C27.3165 392.111 27.43 394.889 27.5434 395.683C30.6625 397.497 34.9159 400.446 48.8102 394.265C48.8102 393.358 48.2998 390.466 48.2998 390.466C48.2998 390.466 46.0313 377.992 48.2431 349.982C49.7176 330.76 46.9954 322.311 48.2431 315.053C49.434 307.852 50.4548 295.775 50.625 287.95C51.1354 264.702 50.625 234.254 52.0428 219.114C52.1562 217.98 53.971 217.81 54.0277 219.001C55.0485 237.486 51.7025 271.336 52.3263 290.558C52.5532 298.496 52.6666 305.017 54.4814 308.022C55.5589 309.837 60.7196 319.476 66.1072 330.419C69.5099 337.394 73.8767 347.827 76.7123 354.631C80.5687 363.987 84.4251 378.049 87.9412 391.941C91.0603 398.178 101.439 393.755 107.223 388.822C106.316 381.451 104.558 373.116 103.877 368.863ZM65.4267 309.156C62.421 309.893 59.3586 311.424 54.4814 304.223C54.4814 304.223 60.8898 306.491 67.6952 304.62C74.5006 302.749 74.5006 302.749 74.5006 302.749C74.5006 302.749 68.4324 308.419 65.4267 309.156Z" fill="#C7B299"/>
<path opacity="0.1" d="M53.2344 208.908L55.5596 207.831C56.5804 207.377 57.2042 206.3 57.2042 205.223L57.0341 197.398L53.2344 197.171V208.908Z" fill="black"/>
<path d="M92.2481 200.46L92.3048 201.595H92.1914L92.2481 200.46Z" fill="#998675"/>
<path d="M92.3048 202.728V203.862H92.1914V202.728H92.3048Z" fill="#998675"/>
<path d="M92.3069 204.995L92.2501 206.187L92.1367 206.13V204.995H92.3069Z" fill="#998675"/>
<path d="M92.2483 207.321V208.455H92.0215L92.0782 207.264L92.2483 207.321Z" fill="#998675"/>
<path d="M92.2484 209.589L92.1917 210.723H91.9648L92.0216 209.589H92.2484Z" fill="#998675"/>
<path d="M92.1918 211.856L92.1351 212.991H91.8516L91.9083 211.856H92.1918Z" fill="#998675"/>
<path d="M92.0786 214.125L92.0219 215.259L91.6816 215.202L91.7951 214.125H92.0786Z" fill="#998675"/>
<path d="M91.9635 216.393L91.9067 217.527L91.5098 217.471L91.6232 216.336L91.9635 216.393Z" fill="#998675"/>
<path d="M91.7956 218.66L91.6822 219.795L91.2285 219.738L91.3419 218.604L91.7956 218.66Z" fill="#998675"/>
<path d="M91.5672 220.929L91.3971 222.063L90.9434 222.006L91.0568 220.872L91.5672 220.929Z" fill="#998675"/>
<path d="M91.2841 223.197L91.1139 224.331L90.6035 224.218L90.7736 223.14L91.2841 223.197Z" fill="#998675"/>
<path d="M91.0009 225.465L90.8308 226.542L90.2637 226.485L90.4338 225.351L91.0009 225.465Z" fill="#998675"/>
<path d="M90.6612 227.676L90.4343 228.81L89.8672 228.697L90.0373 227.619L90.6612 227.676Z" fill="#998675"/>
<path d="M90.2628 229.944L90.0926 231.079L89.4121 230.965L89.639 229.831L90.2628 229.944Z" fill="#998675"/>
<path d="M89.8663 232.156L89.6395 233.29L89.0156 233.177L89.2425 232.042L89.8663 232.156Z" fill="#998675"/>
<path d="M89.4152 234.424L89.1884 235.558L88.5078 235.388L88.7347 234.253L89.4152 234.424Z" fill="#998675"/>
<path d="M88.9602 236.635L88.7333 237.769L87.9961 237.599L88.2797 236.465L88.9602 236.635Z" fill="#998675"/>
<path d="M88.5071 238.847L88.2803 239.981L87.4863 239.811L87.7699 238.677L88.5071 238.847Z" fill="#998675"/>
<path d="M87.9954 241.115L87.7686 242.192L86.9746 242.022L87.2582 240.888L87.9954 241.115Z" fill="#998675"/>
<path d="M87.4838 243.326L87.2569 244.403L86.4062 244.233L86.6898 243.099L87.4838 243.326Z" fill="#998675"/>
<path d="M86.9741 245.537L86.6905 246.615L85.8398 246.388L86.1234 245.311L86.9741 245.537Z" fill="#998675"/>
<path d="M86.4077 247.749L86.1808 248.827L85.2734 248.6L85.557 247.522L86.4077 247.749Z" fill="#998675"/>
<path d="M85.896 249.96L85.6125 251.037L84.7051 250.811L84.9886 249.733L85.896 249.96Z" fill="#998675"/>
<path d="M85.3297 252.115L85.0461 253.249L84.082 253.022L84.3656 251.888L85.3297 252.115Z" fill="#998675"/>
<path d="M84.7633 254.326L84.4797 255.46L83.5156 255.177L83.7992 254.099L84.7633 254.326Z" fill="#998675"/>
<path d="M84.195 256.537L83.9114 257.672L82.8906 257.388L83.1742 256.254L84.195 256.537Z" fill="#998675"/>
<path d="M83.6286 258.749L83.345 259.826L82.3242 259.6L82.6078 258.465L83.6286 258.749Z" fill="#998675"/>
<path d="M83.0055 260.96L82.722 262.038L81.7012 261.754L81.9847 260.677L83.0055 260.96Z" fill="#998675"/>
<path d="M82.4372 263.115L82.1536 264.249L81.1328 263.966L81.4164 262.888L82.4372 263.115Z" fill="#998675"/>
<path d="M81.8708 265.326L81.6439 266.461L80.5664 266.177L80.85 265.042L81.8708 265.326Z" fill="#998675"/>
<path d="M81.3591 267.538L81.0756 268.615L79.998 268.388L80.2816 267.254L81.3591 267.538Z" fill="#998675"/>
<path d="M80.7927 269.749L80.5092 270.826L79.4316 270.543L79.7152 269.465L80.7927 269.749Z" fill="#998675"/>
<path d="M80.2811 271.96L79.9975 273.038L78.8633 272.754L79.1468 271.677L80.2811 271.96Z" fill="#998675"/>
<path d="M79.7166 274.172L79.4898 275.249L78.2988 274.966L78.5824 273.888L79.7166 274.172Z" fill="#998675"/>
<path d="M79.2049 276.383L78.9781 277.461L77.7871 277.234L78.0707 276.099L79.2049 276.383Z" fill="#998675"/>
<path d="M78.7518 278.594L78.4683 279.672L77.2773 279.445L77.5609 278.311L78.7518 278.594Z" fill="#998675"/>
<path d="M78.2401 280.806L78.0132 281.884L76.8223 281.657L77.0491 280.522L78.2401 280.806Z" fill="#998675"/>
<path d="M77.785 283.017L77.6148 284.151L76.3672 283.868L76.594 282.79L77.785 283.017Z" fill="#998675"/>
<path d="M77.3905 285.228L77.2204 286.363L75.916 286.136L76.1429 285.001L77.3905 285.228Z" fill="#998675"/>
<path d="M76.992 287.497L76.8219 288.574L75.5742 288.404L75.7444 287.27L76.992 287.497Z" fill="#998675"/>
<path d="M76.7089 289.708L76.5387 290.842L75.2344 290.672L75.4045 289.538L76.7089 289.708Z" fill="#998675"/>
<path d="M76.4276 291.919L76.3142 293.054L74.9531 292.94L75.0665 291.806L76.4276 291.919Z" fill="#998675"/>
<path d="M76.199 294.187L76.1423 295.322L74.7812 295.208L74.838 294.074L76.199 294.187Z" fill="#998675"/>
<path d="M76.0858 296.398V297.533H74.668L74.7247 296.398H76.0858Z" fill="#998675"/>
<path d="M76.0858 298.667L76.1425 299.744L74.7247 299.858L74.668 298.667H76.0858Z" fill="#998675"/>
<path d="M76.199 300.878L76.3691 301.956L74.9513 302.183L74.8379 300.991L76.199 300.878Z" fill="#998675"/>
<path d="M76.5389 303.089L76.7657 304.167L75.3479 304.451L75.1211 303.316L76.5389 303.089Z" fill="#998675"/>
<path d="M77.0505 305.187L77.3341 306.265L76.0297 306.719L75.6895 305.584L77.0505 305.187Z" fill="#998675"/>
<path d="M77.7301 307.285L78.1271 308.306L76.8228 308.873L76.4258 307.795L77.7301 307.285Z" fill="#998675"/>
<path d="M78.5797 309.326L79.0901 310.347L77.8424 310.971L77.332 309.95L78.5797 309.326Z" fill="#998675"/>
<path d="M79.6031 311.311L80.1702 312.332L78.9226 313.013L78.3555 311.992L79.6031 311.311Z" fill="#998675"/>
<path d="M80.7379 313.296L81.305 314.26L80.0574 314.997L79.4902 314.033L80.7379 313.296Z" fill="#998675"/>
<path d="M80.6328 315.995L81.9057 315.25L82.4785 316.23L81.2056 316.974L80.6328 315.995Z" fill="#998675"/>
<path d="M83.0035 317.208L83.5706 318.229L82.323 318.91L81.7559 317.945L83.0035 317.208Z" fill="#998675"/>
<path d="M84.1383 319.193L84.7054 320.214L83.401 320.894L82.8906 319.93L84.1383 319.193Z" fill="#998675"/>
<path d="M85.2165 321.234L85.7269 322.255L84.4225 322.936L83.9121 321.915L85.2165 321.234Z" fill="#998675"/>
<path d="M86.236 323.275L86.7464 324.353L85.3853 324.977L84.9316 323.956L86.236 323.275Z" fill="#998675"/>
<path d="M87.2009 325.373L87.6546 326.394L86.2935 327.018L85.8398 325.997L87.2009 325.373Z" fill="#998675"/>
<path d="M88.1111 327.471L88.5648 328.492L87.2037 329.116L86.75 328.038L88.1111 327.471Z" fill="#998675"/>
<path d="M89.0154 329.569L89.4124 330.647L88.0513 331.214L87.5977 330.136L89.0154 329.569Z" fill="#998675"/>
<path d="M89.867 331.723L90.264 332.744L88.8462 333.312L88.4492 332.234L89.867 331.723Z" fill="#998675"/>
<path d="M90.6619 333.821L91.0589 334.899L89.6411 335.409L89.2441 334.332L90.6619 333.821Z" fill="#998675"/>
<path d="M91.4549 335.976L91.7952 337.054L90.3774 337.565L90.0371 336.487L91.4549 335.976Z" fill="#998675"/>
<path d="M92.1912 338.131L92.5315 339.209L91.1137 339.719L90.7734 338.641L92.1912 338.131Z" fill="#998675"/>
<path d="M92.8708 340.286L93.2678 341.363L91.85 341.817L91.5098 340.739L92.8708 340.286Z" fill="#998675"/>
<path d="M93.6092 342.497L93.9495 343.575L92.5317 343.972L92.1914 342.894L93.6092 342.497Z" fill="#998675"/>
<path d="M94.2908 344.651L94.6311 345.729L93.2133 346.183L92.873 345.105L94.2908 344.651Z" fill="#998675"/>
<path d="M94.9158 346.806L95.256 347.94L93.8382 348.337L93.5547 347.26L94.9158 346.806Z" fill="#998675"/>
<path d="M95.5369 349.018L95.8771 350.096L94.4593 350.493L94.1758 349.415L95.5369 349.018Z" fill="#998675"/>
<path d="M96.1619 351.229L96.5021 352.307L95.0843 352.704L94.8008 351.626L96.1619 351.229Z" fill="#998675"/>
<path d="M96.785 353.384L97.0685 354.518L95.7075 354.858L95.3672 353.781L96.785 353.384Z" fill="#998675"/>
<path d="M97.3533 355.595L97.6368 356.729L96.2757 357.07L95.9922 355.992L97.3533 355.595Z" fill="#998675"/>
<path d="M97.9197 357.806L98.2032 358.941L96.8422 359.281L96.5586 358.146L97.9197 357.806Z" fill="#998675"/>
<path d="M98.4861 360.018L98.7696 361.152L97.4086 361.492L97.125 360.358L98.4861 360.018Z" fill="#998675"/>
<path d="M99.0937 362.256L97.7148 362.586L97.9793 363.689L99.3581 363.359L99.0937 362.256Z" fill="#998675"/>
<path d="M99.5642 364.44L99.8478 365.575L98.4867 365.858L98.2031 364.781L99.5642 364.44Z" fill="#998675"/>
<path d="M100.076 366.652L100.303 367.786L98.9984 368.07L98.7148 366.992L100.076 366.652Z" fill="#998675"/>
<path d="M100.586 368.92L100.813 369.998L99.5082 370.281L99.2246 369.204L100.586 368.92Z" fill="#998675"/>
<path d="M101.039 371.131L101.266 372.209L100.018 372.493L99.7344 371.415L101.039 371.131Z" fill="#998675"/>
<path d="M101.494 373.343L101.721 374.477L100.473 374.704L100.246 373.626L101.494 373.343Z" fill="#998675"/>
<path d="M101.947 375.554L102.174 376.688L100.926 376.972L100.699 375.838L101.947 375.554Z" fill="#998675"/>
<path d="M102.4 377.822L102.627 378.9L101.436 379.183L101.209 378.049L102.4 377.822Z" fill="#998675"/>
<path d="M102.853 380.033L103.08 381.168L101.832 381.395L101.662 380.26L102.853 380.033Z" fill="#998675"/>
<path d="M103.251 382.301L103.478 383.379L102.287 383.606L102.061 382.528L103.251 382.301Z" fill="#998675"/>
<path d="M103.705 384.513L103.875 385.647L102.741 385.874L102.514 384.74L103.705 384.513Z" fill="#998675"/>
<path d="M104.044 386.781L104.271 387.915L103.137 388.085L102.91 386.951L104.044 386.781Z" fill="#998675"/>
<path d="M104.441 388.992L104.554 389.559L103.42 389.786L103.307 389.219L104.441 388.992Z" fill="#998675"/>
<path opacity="0.2" d="M25.8427 357.636C25.2756 354.064 22.0431 332.517 21.7028 328.548C21.3625 324.579 22.837 315.904 24.3682 313.239C25.8994 310.574 26.8068 309.1 28.1679 308.306C29.4723 307.569 27.2038 303.94 26.6367 301.502C26.0696 299.063 24.3682 289.197 23.631 286.022C22.8937 282.79 18.13 254.099 17.7897 251.037C17.3927 248.032 12.6857 212.48 13.4229 206.243C14.1602 200.006 12.2887 191.897 12.2887 191.897L11.041 194.336C11.041 195.356 11.041 196.377 11.041 197.454C11.6081 229.207 17.4494 260.393 17.4494 260.393C20.7387 280.806 23.8578 293.904 23.8578 297.079C23.8578 303.089 19.7179 312.615 19.7179 325.26C19.7179 334.332 23.4041 357.239 25.6726 373.739C27.0904 384.116 27.4307 392.111 27.4307 392.111C27.4307 392.111 27.5441 394.889 27.6575 395.683C27.7709 395.74 27.8844 395.853 28.0545 395.91L28.1679 391.487C28.1679 391.487 29.8693 392.621 30.6065 393.018C31.3438 393.415 33.6122 393.755 33.6122 393.755C33.6122 393.755 30.2095 390.353 29.0753 387.915C27.8844 385.42 26.4099 361.208 25.8427 357.636Z" fill="white"/>
<path d="M100.192 89.8908C99.1714 88.8702 98.1505 87.7362 96.7895 86.9424C92.366 84.3908 91.0616 85.298 80.3431 81.6691C77.9045 80.8186 75.9763 79.5712 74.4451 78.0969C67.0159 86.3754 54.4259 91.8754 40.1346 91.8754C32.1383 91.8754 24.6523 90.1744 18.3574 87.2259C17.1664 88.0197 16.1456 88.9836 15.2382 89.9476C12.2892 92.9527 12.0624 96.0146 11.2117 99.4167C11.2117 99.4167 7.80901 126.804 6.67478 134.742C5.54055 142.68 1.96772 185.603 1.96772 189.742L1.23047 193.882L1.96772 195.753L1.23047 198.418L3.49893 201.423L10.9849 199.892L12.2325 195.356C12.2325 195.356 22.0436 193.655 29.9832 194.789C37.9229 195.923 63.84 201.763 67.8099 201.763C71.7797 201.763 70.4753 197.227 70.4753 197.227L94.4076 203.861L94.521 205.449L96.9029 199.892L106.714 188.949L107.111 176.871C107.111 176.871 114.54 167.118 118.34 157.706C119.417 154.984 116.809 147.046 116.071 142.113C115.164 137.18 103.141 92.896 100.192 89.8908Z" fill="#FF502E"/>
<path opacity="0.2" d="M19.2635 100.098C19.2635 100.098 21.929 105.768 21.929 109.17C21.929 112.572 21.929 125.784 21.929 125.784C21.929 125.784 29.4716 115.577 31.3998 112.175C33.2713 108.773 36.3337 98.1699 36.3337 98.1699C36.3337 98.1699 34.7458 108.83 32.4773 113.649C30.2089 118.469 20.2843 132.361 18.2994 139.732C16.3145 147.103 16.3145 150.505 16.3145 150.505C16.3145 150.505 19.4337 142 21.7021 138.598C23.9706 135.196 28.7911 128.959 29.9253 125.84C29.9253 125.84 29.3582 137.181 25.3884 143.701C21.4186 150.222 16.8816 154.191 15.7474 156.459C14.6132 158.727 12.9118 165.815 12.6283 168.366C12.3447 170.918 10.9269 165.815 12.3447 158.16C13.7625 150.505 14.6132 149.371 14.8967 145.119C15.1803 140.866 13.1954 136.33 14.3296 133.779C15.4639 131.227 18.2994 126.974 19.1501 125.84C20.0008 124.706 17.1652 117.052 17.1652 117.052L12.0612 114.5L18.2994 115.067C18.2994 115.067 20.2843 110.531 20.0008 107.129C19.7172 103.727 19.2635 100.098 19.2635 100.098Z" fill="black"/>
<path opacity="0.2" d="M10.1923 192.748C10.1923 192.748 12.8577 180.67 12.4607 176.871C12.4607 176.871 9.45502 186.68 8.66105 188.608C7.9238 190.479 10.1923 192.748 10.1923 192.748Z" fill="black"/>
<path opacity="0.2" d="M94.5208 146.593C94.5208 146.593 97.1863 145.856 99.4548 146.593C101.723 147.33 94.294 147.67 94.294 149.598C94.294 151.469 100.022 148.918 102.234 150.845C105.75 153.964 105.069 155.665 100.532 152.433C98.8876 151.242 93.4433 151.923 92.6494 154.531C91.9121 157.196 91.9121 155.268 91.9121 157.196C91.9121 159.067 90.0406 159.067 90.0406 160.201C90.0406 161.335 90.7779 161.732 90.4376 162.866C90.0406 164 91.9688 162.469 90.0406 164C88.1692 165.531 89.3034 162.866 88.1691 165.531C87.0349 168.196 87.7722 170.464 87.0349 171.598C86.2977 172.732 82.5547 175 82.895 176.871C83.8591 182.371 80.7399 191.784 80.7399 191.784C80.7399 191.784 71.6661 195.923 70.5318 197.057C69.3976 198.191 74.9553 173.81 74.6151 171.145L77.6208 176.418C77.6208 176.418 78.755 169.614 77.6208 166.949C76.4866 164.284 79.4923 162.809 81.4205 156.742C83.2919 150.675 86.3544 132.531 86.3544 132.531C86.3544 132.531 84.8232 155.608 83.6889 160.144C82.5547 164.681 87.4886 159.407 89.3601 154.077C91.2316 148.804 88.9631 100.381 91.2316 94.3706C93.5 88.3035 96.0521 87.5664 96.0521 87.5664C96.0521 87.5664 93.1031 92.1025 92.7628 101.515C92.3658 110.984 92.7628 113.592 92.7628 113.592L96.5625 102.989C96.5625 102.989 99.9652 105.654 100.702 107.128L97.1863 106.732C97.1863 106.732 91.9688 118.809 92.3658 127.144C92.6494 135.649 94.5208 146.593 94.5208 146.593Z" fill="black"/>
<path d="M44.0469 363.136C44.1603 363.646 44.2737 363.987 44.2737 363.987C44.217 363.703 44.1036 363.42 44.0469 363.136Z" fill="black"/>
<path d="M27.8867 393.983C28.227 394.153 28.624 394.267 28.9642 394.437L28.7941 394.72C28.5105 394.437 28.1703 394.21 27.8867 393.983Z" fill="#998675"/>
<path d="M29.9866 394.833C30.3269 394.947 30.6672 395.06 31.0641 395.174L30.7806 395.911C30.4403 395.741 30.1 395.571 29.7598 395.344L29.9866 394.833Z" fill="#998675"/>
<path d="M32.139 395.399L33.1598 395.513L33.0464 396.591L31.8555 396.307L32.139 395.399Z" fill="#998675"/>
<path d="M34.2951 395.57H35.3726V396.817L34.1816 396.761L34.2951 395.57Z" fill="#998675"/>
<path d="M36.4512 395.456L37.5287 395.286L37.6988 396.647L36.5646 396.817L36.4512 395.456Z" fill="#998675"/>
<path d="M38.6035 395.117L39.681 394.89L40.0213 396.251L38.8871 396.478L38.6035 395.117Z" fill="#998675"/>
<path d="M40.7598 394.663C41.1 394.55 41.497 394.493 41.8373 394.38L42.1776 395.571C41.8373 395.684 41.4403 395.798 41.1 395.911L40.7598 394.663Z" fill="#998675"/>
<path d="M42.916 394.096L43.9935 393.756L44.3338 394.777L43.313 395.174L42.916 394.096Z" fill="#998675"/>
<path d="M45.0703 393.472L46.1478 393.132L46.4314 393.756L45.4106 394.266L45.0703 393.472Z" fill="#998675"/>
<path d="M47.2832 392.791C47.6235 392.678 48.0205 392.565 48.3607 392.508L48.4174 392.678C48.0772 392.905 47.7369 393.075 47.4533 393.245L47.2832 392.791Z" fill="#998675"/>
<path d="M87.998 390.297C88.2249 390.581 88.5085 390.864 88.7353 391.148L88.395 391.375C88.2249 391.034 88.1115 390.694 87.998 390.297Z" fill="#998675"/>
<path d="M89.6413 391.827C89.9248 391.998 90.2651 392.168 90.5486 392.281L90.095 393.132C89.7547 392.905 89.4144 392.621 89.1309 392.338L89.6413 391.827Z" fill="#998675"/>
<path d="M91.514 392.565C91.8543 392.621 92.1946 392.678 92.5348 392.678L92.4214 393.926C92.0244 393.813 91.6274 393.756 91.2305 393.642L91.514 392.565Z" fill="#998675"/>
<path d="M93.6133 392.678C93.9536 392.621 94.2938 392.621 94.6908 392.565L94.8609 393.926C94.464 393.926 94.067 393.983 93.67 393.983L93.6133 392.678Z" fill="#998675"/>
<path d="M95.709 392.451L96.7865 392.168L97.1835 393.529L95.9925 393.813L95.709 392.451Z" fill="#998675"/>
<path d="M97.8672 391.884L98.888 391.544L99.3417 392.735L98.2642 393.132L97.8672 391.884Z" fill="#998675"/>
<path d="M99.9062 391.148C100.247 390.978 100.587 390.864 100.927 390.694L101.437 391.715C101.097 391.885 100.757 392.056 100.417 392.226L99.9062 391.148Z" fill="#998675"/>
<path d="M101.949 390.241C102.289 390.071 102.63 389.901 102.97 389.73L103.424 390.525C103.083 390.751 102.8 390.922 102.46 391.148L101.949 390.241Z" fill="#998675"/>
<path d="M103.934 389.163C104.274 388.993 104.557 388.766 104.898 388.596L105.238 389.05C104.954 389.277 104.614 389.503 104.331 389.787L103.934 389.163Z" fill="#998675"/>
<path d="M105.918 388.028C106.258 387.802 106.542 387.631 106.882 387.405L106.939 387.518C106.655 387.802 106.372 388.028 106.145 388.312L105.918 388.028Z" fill="#998675"/>
<path opacity="0.07" d="M41.3813 61.8243C41.3813 61.8243 31.627 58.7057 31.627 47.6489C31.627 36.5921 34.7461 32.623 36.731 22.9837C36.731 22.9837 33.8954 41.9787 34.179 45.9478C34.4625 49.9169 35.0296 52.4685 37.0146 56.1541C37.0146 56.1541 35.0296 50.2005 38.1488 40.5612C41.2679 30.9219 40.7008 30.3549 42.1186 24.9683C43.5364 19.5816 46.0884 16.7465 48.3569 15.896C48.3569 15.896 45.6347 18.8445 44.8408 21.4528C44.0468 24.061 43.026 32.3962 42.4589 34.4941C41.8917 36.5921 38.2055 48.5561 39.0562 54.2263C39.7934 59.7263 41.3813 61.8243 41.3813 61.8243Z" fill="white"/>
<path opacity="0.1" d="M77.5079 352.136C74.9559 342.214 54.8233 304.791 54.8233 304.791C54.7099 304.62 54.5397 304.45 54.4263 304.224C54.4263 304.224 54.5965 304.28 54.9367 304.394C55.277 303.316 56.1844 300.368 55.9575 299.687C55.674 298.837 53.9726 300.254 53.4055 289.481C52.8384 278.708 55.1069 251.491 55.1069 246.104C55.1069 243.78 54.6532 236.975 54.1995 230.058C53.7458 249.847 51.931 275.873 52.3847 290.445C52.6116 298.383 52.725 304.904 54.5397 307.909C55.6173 309.724 60.778 319.363 66.1656 330.306C69.5683 337.281 73.9351 347.714 76.7707 354.518C78.6989 359.111 80.5704 364.894 82.4418 371.245C80.5136 363.703 78.5855 356.219 77.5079 352.136Z" fill="black"/>
<path opacity="0.1" d="M50.6818 287.893C51.1355 266.914 50.7385 236.011 51.7593 219.058C50.9086 224.955 49.8311 233.403 49.4908 240.151C48.9237 251.774 50.0579 284.661 48.6401 296.852C47.2224 309.043 45.521 312.445 45.2375 314.43C44.9539 316.414 45.8046 323.785 46.3717 331.44C46.9388 339.095 47.2224 351.286 46.9388 356.389C46.6552 361.492 45.8046 379.92 45.521 381.621C45.2375 383.322 45.521 386.441 44.3868 387.858C43.2525 389.276 44.6703 390.41 46.0881 390.41C46.712 390.41 47.8462 391.997 48.867 393.755C48.7536 392.564 48.4133 390.41 48.4133 390.41C48.4133 390.41 46.1448 377.935 48.3566 349.925C49.8311 330.703 47.1089 322.255 48.3566 314.997C49.4908 307.796 50.5116 295.718 50.6818 287.893Z" fill="black"/>
<path opacity="0.07" d="M62.4766 16.009C62.4766 16.009 64.348 15.4987 66.2195 14.6481C68.091 13.7976 69.3387 14.7616 70.4729 16.9162C71.6071 19.0709 76.8246 30.638 77.8454 34.4937C78.8662 38.3494 78.2991 43.4526 78.2991 43.4526C78.2991 43.4526 78.4125 39.4834 76.0306 34.8339C73.6487 30.1844 71.9474 26.3287 71.04 24.4575C70.1326 22.5864 67.3538 15.2719 62.4766 16.009Z" fill="white"/>
<path opacity="0.07" d="M61.0593 14.0812C61.0593 14.0812 59.2445 6.99346 54.7076 6.42645C50.1707 5.85943 48.0156 6.70996 48.0156 6.70996C48.0156 6.70996 51.3049 4.27179 56.5224 5.29242C61.7398 6.31305 62.7606 9.94195 62.7606 9.94195C62.7606 9.94195 64.462 7.10687 63.7814 5.51922C63.1009 3.93158 61.7965 3.53467 61.7965 3.53467C61.7965 3.53467 65.3694 4.38519 65.8798 6.25634C66.617 8.80791 66.4469 11.3595 61.0593 14.0812Z" fill="white"/>
<path opacity="0.1" d="M56.0703 212.197C56.0703 212.197 66.8455 209.645 71.0989 209.928C75.3522 210.212 75.3522 210.212 75.3522 210.212C75.3522 210.212 69.3975 212.197 65.9948 212.481C62.5921 212.765 56.0703 212.197 56.0703 212.197Z" fill="black"/>
<path d="M70.8145 199.042L76.6557 200.97" stroke="#998675" stroke-dasharray="2 2 2 2 2 2"/>
<path opacity="0.1" d="M57.9414 214.068C57.9414 214.068 61.9112 215.486 64.4632 215.202C67.0153 214.919 69.5673 215.202 69.5673 215.202C69.5673 215.202 66.1646 217.471 63.6126 216.904C61.0605 216.337 57.9414 214.068 57.9414 214.068Z" fill="black"/>
<path opacity="0.1" d="M107.279 388.709C106.315 381.451 104.557 373.173 103.876 368.92C101.948 356.956 96.7874 327.528 88.6776 310.12C84.9346 302.182 81.4752 299.574 80.2276 294.754C79.0366 289.935 84.8212 270.032 87.2598 258.805C89.1313 250.13 95.9367 222.063 93.9518 201.934L93.3847 201.764C92.9877 210.326 91.5132 236.238 87.43 249.96C82.4961 266.574 77.9591 294.187 77.9591 296.058C77.9591 297.93 75.1235 302.012 75.5205 303.543C75.9175 305.074 77.789 301.275 78.9232 302.409C80.0575 303.543 79.3202 305.414 80.0575 306.548C80.7947 307.682 85.1615 307.796 87.43 311.538C89.6984 315.28 96.9008 338.018 98.035 345.956C99.1693 353.894 103.706 376.178 103.706 378.843C103.706 381.508 99.9065 384.513 98.7723 385.647C97.638 386.781 99.9065 387.178 101.438 386.781C102.969 386.384 104.443 385.647 104.84 387.178C105.067 388.085 103.876 390.24 102.856 391.884C104.443 390.863 105.975 389.786 107.279 388.709Z" fill="black"/>
<path d="M32.5359 423.127C32.5359 423.127 31.9688 418.193 31.7419 415.188C31.5718 412.183 30.4376 406.853 30.0406 405.379C29.6436 403.848 34.9745 404.642 36.449 406.683C37.9802 408.781 40.0218 411.389 40.0218 411.389C40.0218 411.389 43.4245 410.425 44.1618 410.652C44.899 410.822 43.9916 406.116 46.0332 404.018C48.1316 401.92 48.1316 401.92 48.1316 401.92C48.1316 401.92 48.3017 408.327 48.6987 410.255C49.0957 412.126 50.9672 416.492 51.9313 423.297C52.8953 430.101 53.0655 431.745 54.1997 434.297C55.3339 436.905 56.4115 438.379 55.5608 442.745C54.8235 446.658 51.194 446.544 46.9973 447.111C40.0218 448.075 33.8403 447.508 31.9121 444.276C30.0406 441.044 30.6077 439.74 31.7419 434.467C32.3658 431.632 33.103 427.096 32.5359 423.127Z" fill="#FF502E"/>
<path opacity="0.1" d="M50.286 212.934C49.4354 212.934 31.2876 208.398 27.0343 208.398C22.7809 208.398 23.0645 210.099 23.0645 210.099C23.0645 210.099 27.0343 209.248 36.3917 211.8C45.7491 214.351 50.286 212.934 50.286 212.934Z" fill="black"/>
<path opacity="0.1" d="M49.7182 214.918C49.7182 214.918 46.3155 216.053 41.2115 215.769C36.1074 215.486 36.1074 215.486 36.1074 215.486C36.1074 215.486 44.3306 217.471 46.8826 216.62C49.4346 215.769 49.7182 214.918 49.7182 214.918Z" fill="black"/>
<path opacity="0.2" d="M40.0762 411.389C40.0762 411.389 41.8909 417.797 42.6282 421.029C43.3654 424.261 44.5564 423.07 44.7832 421.709C44.9534 420.405 44.2728 410.595 44.2728 410.595L40.0762 411.389Z" fill="black"/>
<path d="M89.9837 402.034C89.9837 402.034 91.9686 407.42 92.2522 411.673C92.5357 415.925 92.8193 424.261 92.4223 425.962C92.0253 427.663 88.9629 437.302 89.927 440.307C90.8911 443.312 93.273 444.276 95.7116 444.446C98.1502 444.616 104.842 443.766 108.642 440.761C112.442 437.756 113.065 432.142 113.065 428.513C113.065 424.884 112.442 422.503 112.045 420.235C111.648 417.967 111.08 411.333 110.343 408.327C109.606 405.322 108.642 397.157 108.642 397.157C108.642 397.157 103.198 397.554 101.723 401.126C100.192 404.699 100.135 407.76 100.135 407.76C100.135 407.76 97.1294 407.931 95.7683 408.327C94.4639 408.724 91.2314 402.657 91.2314 402.657L89.9837 402.034Z" fill="#FF502E"/>
<path opacity="0.2" d="M95.8242 408.384C95.8242 408.384 97.9225 414.792 97.9225 417.513C97.9225 420.235 98.1494 420.122 98.9434 419.101C100.078 417.513 100.191 407.874 100.191 407.874C100.191 407.874 96.7316 407.931 95.8242 408.384Z" fill="black"/>
<path d="M86.581 179.48C86.581 179.48 82.0441 188.836 80.6263 190.537C79.2085 192.238 76.5997 194.166 76.0326 195.016C75.4655 195.867 73.3672 198.021 73.3672 198.021L74.6716 198.475L77.2236 199.155C77.2236 199.155 76.6565 206.13 76.6565 207.831C76.6565 209.532 75.2387 216.903 74.9551 218.604C74.8417 219.454 74.7283 220.929 74.7283 222.233C74.6716 223.65 75.8058 224.841 77.2236 224.841L80.0592 216.052L79.9457 223.991C80.1159 224.955 80.6263 225.918 81.5337 226.315L82.6679 226.599L83.1783 224.614L84.8229 225.408L87.2048 217.98L87.3182 221.326C87.7719 223.594 89.5867 223.48 89.5867 223.48C89.5867 223.48 90.5508 213.841 91.1179 208.171C91.685 202.501 92.6491 200.97 92.8193 196.717C92.9894 193.032 95.428 190.537 98.4904 186.057C99.9082 183.959 90.2672 176.361 86.581 179.48Z" fill="#EAC8A7"/>
<path opacity="0.2" d="M98.2052 188.552L97.3546 197.057L93.3848 203.011L93.6683 203.691L94.2922 203.861L94.4056 205.449L96.7875 199.892L106.599 188.949L106.996 176.871L103.593 185.433L98.2052 188.552Z" fill="black"/>
<path opacity="0.2" d="M80.2846 81.6691C77.846 80.8186 75.9178 79.5712 74.3866 78.0969C66.9574 86.3754 54.3674 91.8754 40.0761 91.8754C32.0797 91.8754 24.5938 90.1744 18.2988 87.2259C17.1079 88.0197 16.0871 88.9836 15.1797 89.9476C15.1797 89.9476 27.7697 96.4682 40.8133 95.9012C71.7211 94.427 80.2846 81.6691 80.2846 81.6691Z" fill="black"/>
<path d="M43.4785 75.7158C43.4785 75.7158 56.0685 82.5791 71.8343 75.7158" stroke="black" stroke-width="0.7" stroke-linecap="round"/>
<path d="M42.3457 77.417C42.3457 77.417 47.4497 85.0717 49.4346 91.5924C51.4196 98.1131 50.2853 109.17 50.2853 114.84C50.2853 120.51 55.5028 118.185 59.3592 109.737C63.4424 100.778 62.4783 93.8605 66.7317 86.4892C70.2478 80.4222 73.1968 77.6438 73.1968 77.6438" stroke="black" stroke-width="0.7" stroke-linecap="round"/>
<path d="M52.0999 120.907C53.1022 120.907 53.9147 119.841 53.9147 118.526C53.9147 117.21 53.1022 116.144 52.0999 116.144C51.0977 116.144 50.2852 117.21 50.2852 118.526C50.2852 119.841 51.0977 120.907 52.0999 120.907Z" fill="black"/>
<path d="M55.9545 115.805C56.581 115.805 57.0888 115.297 57.0888 114.67C57.0888 114.044 56.581 113.536 55.9545 113.536C55.3281 113.536 54.8203 114.044 54.8203 114.67C54.8203 115.297 55.3281 115.805 55.9545 115.805Z" fill="black"/>
<path opacity="0.05" d="M6.73111 230.682L7.52507 231.079L8.37574 237.316C8.37574 237.316 9.22642 239.584 10.3606 240.718C10.9278 241.285 11.8919 241.171 12.2888 240.434L13.2529 238.563L14.1603 239.244L15.3513 247.465C15.3513 247.465 14.217 245.537 13.6499 245.311C13.0261 245.027 11.0979 244.46 11.0979 244.46C11.0979 244.46 10.2472 243.439 9.28313 242.249C8.48917 241.285 7.58178 241.568 7.46836 240.264L6.2207 234.878L6.73111 230.682Z" fill="black"/>
<path opacity="0.15" d="M64.2921 55.8141C64.2921 55.8141 59.1881 53.999 58.7344 53.999C58.2807 53.999 57.6569 54.7364 57.6569 54.7364C57.6569 54.7364 57.0898 53.999 56.5794 53.999C56.1257 53.999 50.9082 55.8141 50.9082 55.8141C50.9082 55.8141 55.8988 56.9485 57.5435 56.9485C59.2448 56.9485 64.2921 55.8141 64.2921 55.8141Z" fill="black"/>
<path d="M40.5317 434.24C35.8247 435.261 32.1384 439.06 30.7773 440.647C30.8341 441.838 31.1743 442.916 32.025 444.333C33.8965 447.565 40.078 448.132 47.1103 447.168C51.2502 446.601 55.2767 446.715 56.0707 442.745C56.9214 438.323 55.5036 436.962 54.3694 434.354C54.3694 434.297 54.3694 434.297 54.3126 434.24C50.8532 433.276 45.5791 433.163 40.5317 434.24Z" fill="white"/>
<path d="M112.27 435.034C110.909 434.013 109.037 432.936 106.655 431.802C100.814 429.08 94.2354 430.554 90.9461 431.575C89.585 435.034 89.1881 438.436 89.6985 440.137C90.6626 443.142 93.2713 444.22 95.7666 444.446C98.2052 444.616 105.011 444.673 108.81 441.611C110.625 440.194 111.589 437.245 112.27 435.034Z" fill="white"/>
<path d="M55.9535 442.745C55.2163 446.658 51.1897 446.601 46.9931 447.168C40.0176 448.132 33.836 447.565 31.9078 444.333C31.0571 442.916 30.7169 441.838 30.6602 440.647C30.6602 440.647 30.8303 446.601 34.5165 448.756C38.2028 450.91 43.1367 451.421 47.3901 451.024C52.7777 450.57 55.3297 448.189 55.8968 446.318C56.2371 445.467 55.9535 442.745 55.9535 442.745Z" fill="#F2F2F2"/>
<path d="M113.064 426.302C113.178 433.049 110.739 438.153 108.698 440.818C105.749 444.673 98.2627 444.673 95.7674 444.503C93.3288 444.333 90.6633 443.256 89.6992 440.194C89.6992 440.194 90.2096 445.127 91.0036 446.034C92.8184 448.019 99.6805 450.343 106.713 446.148C116.751 440.08 113.064 426.302 113.064 426.302Z" fill="#F2F2F2"/>
<path opacity="0.05" d="M80.1719 216.166C80.1719 216.166 80.6256 212.026 80.8524 210.892C81.0793 209.758 81.3061 206.64 81.533 206.016C81.7598 205.392 82.6672 205.449 82.6672 205.449C82.6672 205.449 81.7598 208.908 81.5897 210.269C81.4195 211.63 80.1719 216.166 80.1719 216.166Z" fill="black"/>
<path opacity="0.05" d="M83.1191 224.671C83.1191 224.671 84.2534 217.81 84.5936 215.712C84.9906 213.614 85.2742 208.171 85.898 207.32C86.5786 206.47 86.9188 206.753 86.9188 206.753C86.9188 206.753 85.3876 213.728 85.2175 215.145C85.1041 216.563 83.1191 224.671 83.1191 224.671Z" fill="black"/>
<path opacity="0.05" d="M87.1465 218.264C87.1465 218.264 87.827 215.259 88.1106 213.558C88.3941 211.857 88.5643 209.022 88.9613 208.738C89.3582 208.455 89.6985 208.455 89.6985 208.455C89.6985 208.455 88.8478 212.991 88.8478 213.444C88.8478 213.898 87.1465 218.264 87.1465 218.264Z" fill="black"/>
<path d="M41.2105 424.884C41.6075 424.884 41.8911 425.225 41.8911 425.565C41.8911 425.905 41.5508 426.246 41.2105 426.246C40.8703 426.246 40.53 425.905 40.53 425.565C40.53 425.225 40.8136 424.884 41.2105 424.884ZM41.2105 424.317C40.53 424.317 39.9629 424.884 39.9629 425.565C39.9629 426.246 40.53 426.813 41.2105 426.813C41.8911 426.813 42.4582 426.246 42.4582 425.565C42.5149 424.884 41.9478 424.317 41.2105 424.317Z" fill="#E6E6E6"/>
<path d="M101.041 422.503C101.438 422.503 101.778 422.844 101.778 423.241C101.778 423.638 101.438 423.978 101.041 423.978C100.644 423.978 100.303 423.638 100.303 423.241C100.303 422.844 100.644 422.503 101.041 422.503ZM101.041 421.993C100.36 421.993 99.793 422.56 99.793 423.241C99.793 423.921 100.36 424.488 101.041 424.488C101.721 424.488 102.288 423.921 102.288 423.241C102.345 422.56 101.778 421.993 101.041 421.993Z" fill="#E6E6E6"/>
<path d="M102.687 417.4C103.084 417.4 103.424 417.74 103.424 418.137C103.424 418.534 103.084 418.874 102.687 418.874C102.29 418.874 101.95 418.534 101.95 418.137C101.95 417.74 102.233 417.4 102.687 417.4ZM102.687 416.889C102.007 416.889 101.439 417.456 101.439 418.137C101.439 418.818 102.007 419.385 102.687 419.385C103.368 419.385 103.935 418.818 103.935 418.137C103.935 417.456 103.368 416.889 102.687 416.889Z" fill="#E6E6E6"/>
<path d="M103.025 412.127C103.422 412.127 103.762 412.467 103.762 412.864C103.762 413.261 103.422 413.601 103.025 413.601C102.628 413.601 102.288 413.261 102.288 412.864C102.288 412.467 102.628 412.127 103.025 412.127ZM103.025 411.616C102.344 411.616 101.777 412.183 101.777 412.864C101.777 413.545 102.344 414.112 103.025 414.112C103.706 414.112 104.273 413.545 104.273 412.864C104.329 412.183 103.762 411.616 103.025 411.616Z" fill="#E6E6E6"/>
<path d="M103.537 406.797C103.934 406.797 104.274 407.137 104.274 407.534C104.274 407.931 103.934 408.271 103.537 408.271C103.14 408.271 102.799 407.931 102.799 407.534C102.799 407.137 103.083 406.797 103.537 406.797ZM103.537 406.286C102.856 406.286 102.289 406.853 102.289 407.534C102.289 408.215 102.856 408.782 103.537 408.782C104.217 408.782 104.784 408.215 104.784 407.534C104.784 406.853 104.217 406.286 103.537 406.286Z" fill="#E6E6E6"/>
<path d="M46.9976 424.657C47.3379 424.657 47.6214 424.941 47.6214 425.281C47.6214 425.622 47.3379 425.905 46.9976 425.905C46.6573 425.905 46.3738 425.622 46.3738 425.281C46.3738 424.941 46.6573 424.657 46.9976 424.657ZM46.9976 424.147C46.3738 424.147 45.8066 424.657 45.8066 425.338C45.8066 426.019 46.317 426.529 46.9976 426.529C47.6214 426.529 48.1885 426.019 48.1885 425.338C48.1885 424.657 47.6214 424.147 46.9976 424.147Z" fill="#E6E6E6"/>
<path d="M95.314 422.276C95.6543 422.276 95.9378 422.56 95.9378 422.9C95.9378 423.241 95.6543 423.524 95.314 423.524C94.9737 423.524 94.6902 423.241 94.6902 422.9C94.6902 422.56 94.917 422.276 95.314 422.276ZM95.314 421.766C94.6902 421.766 94.123 422.276 94.123 422.957C94.123 423.638 94.6334 424.148 95.314 424.148C95.9378 424.148 96.5049 423.638 96.5049 422.957C96.5049 422.276 95.9378 421.766 95.314 421.766Z" fill="#E6E6E6"/>
<path d="M95.5972 417.853C95.9375 417.853 96.221 418.137 96.221 418.477C96.221 418.818 95.9375 419.101 95.5972 419.101C95.2569 419.101 94.9734 418.818 94.9734 418.477C94.9167 418.137 95.2002 417.853 95.5972 417.853ZM95.5972 417.343C94.9734 417.343 94.4062 417.853 94.4062 418.534C94.4062 419.215 94.9166 419.725 95.5972 419.725C96.221 419.725 96.7881 419.215 96.7881 418.534C96.7881 417.853 96.221 417.343 95.5972 417.343Z" fill="#E6E6E6"/>
<path d="M95.0855 413.488C95.4257 413.488 95.7093 413.771 95.7093 414.112C95.7093 414.452 95.4257 414.736 95.0855 414.736C94.7452 414.736 94.4616 414.452 94.4616 414.112C94.4616 413.771 94.7452 413.488 95.0855 413.488ZM95.0855 412.977C94.4617 412.977 93.8945 413.488 93.8945 414.168C93.8945 414.849 94.4049 415.36 95.0855 415.36C95.7093 415.36 96.2764 414.849 96.2764 414.168C96.2764 413.488 95.766 412.977 95.0855 412.977Z" fill="#E6E6E6"/>
<path d="M94.1792 409.461C94.5195 409.461 94.803 409.745 94.803 410.085C94.803 410.426 94.5195 410.709 94.1792 410.709C93.8389 410.709 93.5554 410.426 93.5554 410.085C93.4987 409.745 93.7822 409.461 94.1792 409.461ZM94.1792 408.894C93.5554 408.894 92.9883 409.405 92.9883 410.085C92.9883 410.709 93.4987 411.277 94.1792 411.277C94.803 411.277 95.3702 410.766 95.3702 410.085C95.3135 409.461 94.803 408.894 94.1792 408.894Z" fill="#E6E6E6"/>
<path d="M46.9976 419.781C47.3379 419.781 47.6214 420.065 47.6214 420.405C47.6214 420.746 47.3379 421.029 46.9976 421.029C46.6573 421.029 46.3738 420.746 46.3738 420.405C46.3738 420.065 46.6573 419.781 46.9976 419.781ZM46.9976 419.271C46.3738 419.271 45.8066 419.781 45.8066 420.462C45.8066 421.086 46.317 421.653 46.9976 421.653C47.6214 421.653 48.1885 421.143 48.1885 420.462C48.1885 419.781 47.6214 419.271 46.9976 419.271Z" fill="#E6E6E6"/>
<path d="M46.7691 415.188C47.1093 415.188 47.3929 415.472 47.3929 415.812C47.3929 416.153 47.1093 416.436 46.7691 416.436C46.4288 416.436 46.1452 416.153 46.1452 415.812C46.1452 415.472 46.4288 415.188 46.7691 415.188ZM46.7691 414.678C46.1452 414.678 45.5781 415.188 45.5781 415.869C45.5781 416.55 46.0885 417.06 46.7691 417.06C47.3929 417.06 47.96 416.55 47.96 415.869C47.96 415.188 47.3929 414.678 46.7691 414.678Z" fill="#E6E6E6"/>
<path d="M46.7691 410.482C47.1093 410.482 47.3929 410.766 47.3929 411.106C47.3929 411.446 47.1093 411.73 46.7691 411.73C46.4288 411.73 46.1452 411.446 46.1452 411.106C46.1452 410.766 46.4288 410.482 46.7691 410.482ZM46.7691 409.972C46.1452 409.972 45.5781 410.482 45.5781 411.163C45.5781 411.843 46.0885 412.354 46.7691 412.354C47.3929 412.354 47.96 411.843 47.96 411.163C47.96 410.482 47.3929 409.972 46.7691 409.972Z" fill="#E6E6E6"/>
<path d="M39.6793 420.178C40.0763 420.178 40.3598 420.519 40.3598 420.859C40.3598 421.199 40.0196 421.54 39.6793 421.54C39.339 421.54 38.9988 421.199 38.9988 420.859C38.9988 420.519 39.2823 420.178 39.6793 420.178ZM39.6793 419.611C38.9988 419.611 38.4316 420.178 38.4316 420.859C38.4316 421.54 38.9988 422.107 39.6793 422.107C40.3598 422.107 40.927 421.54 40.927 420.859C40.927 420.178 40.3598 419.611 39.6793 419.611Z" fill="#E6E6E6"/>
<path d="M38.2633 415.642C38.6603 415.642 38.9438 415.982 38.9438 416.323C38.9438 416.663 38.6036 417.003 38.2633 417.003C37.923 417.003 37.5827 416.663 37.5827 416.323C37.5827 415.982 37.8663 415.642 38.2633 415.642ZM38.2633 415.075C37.5827 415.075 37.0156 415.642 37.0156 416.323C37.0156 417.003 37.5827 417.57 38.2633 417.57C38.9438 417.57 39.5109 417.003 39.5109 416.323C39.5109 415.642 38.9438 415.075 38.2633 415.075Z" fill="#E6E6E6"/>
<path d="M36.3355 411.106C36.7325 411.106 37.0161 411.446 37.0161 411.786C37.0161 412.127 36.6758 412.467 36.3355 412.467C35.9953 412.467 35.655 412.127 35.655 411.786C35.655 411.446 35.9953 411.106 36.3355 411.106ZM36.3355 410.539C35.655 410.539 35.0879 411.106 35.0879 411.786C35.0879 412.467 35.655 413.034 36.3355 413.034C37.0161 413.034 37.5832 412.467 37.5832 411.786C37.6399 411.106 37.0728 410.539 36.3355 410.539Z" fill="#E6E6E6"/>
<path opacity="0.2" d="M18.2421 87.1697C17.0512 87.9635 16.0304 88.9274 15.123 89.8913C12.174 92.8965 11.9471 95.9584 11.0965 99.3605C11.0965 99.3605 7.69378 126.747 6.55955 134.686C5.42531 142.624 1.85248 185.547 1.85248 189.686L1.11523 193.825L1.85248 195.697L1.11523 198.361L3.3837 201.367L5.3686 200.97C5.08504 199.212 4.74477 197.001 4.91491 196.15C5.19847 194.733 3.49712 195.016 3.21356 193.315C2.93 191.614 6.61626 143.418 7.75049 136.613C8.88472 129.809 12.571 96.9223 14.5559 93.2367C16.0304 90.5151 18.469 88.5305 19.6032 87.7367C19.1495 87.6233 18.6958 87.3965 18.2421 87.1697Z" fill="white"/>
<path opacity="0.2" d="M34.1218 425.848C33.7248 423.75 32.5906 417.173 32.4205 414.111C32.307 412.41 31.2862 409.348 30.4355 407.023C30.946 409.291 31.6265 412.863 31.7399 415.132C31.91 418.137 32.5339 423.07 32.5339 423.07C33.101 427.039 32.3637 431.575 31.7966 434.41C31.1161 437.585 30.6624 439.343 30.7758 440.931C31.5131 438.209 32.9876 432.652 33.3845 431.121C33.9517 429.08 34.5188 427.946 34.1218 425.848Z" fill="white"/>
<path d="M10.8711 199.892C10.8711 199.892 21.306 197.907 28.1114 195.469" stroke="#998675" stroke-dasharray="2 2 2 2 2 2"/>
<path opacity="0.05" d="M100.193 89.8908C99.1718 88.8702 98.151 87.7362 96.7899 86.9424C92.3664 84.3908 91.062 85.298 80.3435 81.6691C77.9049 80.8186 75.9768 79.5712 74.4455 78.0969C70.2489 82.7465 64.4643 86.5455 57.6589 88.9269V200.119L53.4623 199.325V218.15C53.8025 218.207 54.1428 218.49 54.1428 218.944C55.1636 237.428 51.8176 271.279 52.4415 290.501C52.6683 298.439 52.7817 304.96 54.5965 307.965C55.674 309.78 60.8348 319.419 66.2224 330.362C69.6251 337.337 73.9918 347.77 76.8274 354.574C80.6838 363.93 84.5402 377.992 88.0563 391.883C88.2832 392.337 88.5667 392.791 88.907 393.131C89.8144 396.646 90.6083 399.878 91.2889 402.77L90.0412 402.146C90.0412 402.146 92.0261 407.533 92.3097 411.786C92.5932 416.038 92.8768 424.373 92.4798 426.075C92.0828 427.776 89.0204 437.415 89.9845 440.42C90.2681 441.384 90.7218 442.121 91.2322 442.688C91.2322 442.745 91.2322 442.745 91.2322 442.745C90.5516 442.121 90.0412 441.327 89.701 440.25C89.701 440.25 90.2114 445.183 91.0053 446.09C92.8201 448.075 99.6822 450.399 106.714 446.204C116.696 440.193 113.009 426.415 113.009 426.415C113.009 426.528 113.009 426.585 113.009 426.698C112.839 424.147 112.386 422.276 112.102 420.461C111.705 418.193 111.138 411.559 110.401 408.554C109.663 405.549 108.699 397.384 108.699 397.384C108.699 397.384 108.302 397.44 107.679 397.554C107.338 395.115 106.998 392.28 106.601 389.445C106.828 389.275 107.055 389.105 107.282 388.878C106.431 382.584 105.013 375.497 104.219 370.961C104.162 370.507 104.106 370.053 104.049 369.656C103.709 367.105 103.028 363.079 102.007 358.203C99.3986 344.027 94.9184 323.615 88.6801 310.29C84.9372 302.352 81.4778 299.743 80.2301 294.924C79.0392 290.104 84.8238 270.202 87.2624 258.975C89.0771 250.583 95.5422 223.99 94.1245 204.031L94.2946 204.088L94.408 205.675L96.7899 200.119L106.601 189.175L106.998 177.098C106.998 177.098 114.427 167.345 118.227 157.933C119.304 155.211 116.696 147.273 115.958 142.34C115.164 137.18 103.142 92.896 100.193 89.8908ZM96.1661 444.503C98.8882 444.559 105.07 443.652 108.643 440.817C105.864 444.446 98.8882 444.673 96.1661 444.503Z" fill="black"/>
</svg>
