<svg width="222" height="608" viewBox="0 0 222 608" fill="none" xmlns="http://www.w3.org/2000/svg">
<path opacity="0.1" fill-rule="evenodd" clip-rule="evenodd" d="M124.167 607.408C168.044 607.702 200.241 605.192 199.872 586.727C199.517 568.984 172.363 561.616 125.275 561.616C67.2625 561.616 52.8945 566.029 52.8945 583.773C52.8945 601.517 69.1433 607.038 124.167 607.408Z" fill="black"/>
<path d="M55.9964 560.286C55.9964 560.286 55.6271 564.939 52.5251 573.359C50.0877 580.006 50.5309 586.653 53.7806 592.34C57.769 599.431 69.2169 601.056 75.938 598.766C86.0565 595.295 89.1586 587.244 89.454 580.523C89.6756 575.279 89.8233 568.484 89.971 564.644" fill="#C7B299"/>
<path d="M168.04 183.906C174.318 192.031 188.277 211.308 198.322 213.819C210.139 216.773 221.218 206.433 216.417 196.093C213.094 188.855 207.554 180.952 201.276 170.243C196.771 162.561 184.437 145.722 180.227 135.529C177.199 128.144 175.278 120.832 165.751 114.775C157.626 109.605 140.491 108.054 130.964 105.912C129.487 105.322 127.788 104.435 126.163 102.958C124.243 100.521 122.692 95.4985 122.248 89.6637C125.794 86.5616 128.674 82.9426 129.93 80.2099C131.628 76.4431 130.964 72.4548 131.702 67.2109C135.543 69.1312 140.565 50.8883 138.571 47.7862C136.725 44.9058 134.14 47.4169 133.844 47.7124V39.3664C133.844 18.3908 122.175 12.9253 107.772 12.9253C93.37 12.9253 81.7005 18.3908 81.7005 39.3664V47.7124C81.7005 47.7124 78.8939 44.6103 76.8997 47.7124C74.9055 50.8144 80.0017 69.1312 83.8423 67.137C84.6548 72.3809 83.9162 76.2954 85.6149 80.0621C86.7967 82.721 89.6771 86.3401 93.2223 89.4421C93.4439 89.5898 93.4439 89.5898 93.2223 89.4421C92.853 95.4246 91.2281 100.447 89.3078 102.884C87.6091 104.361 85.9104 105.248 84.4332 105.765C83.2515 106.06 56.8842 110.048 49.8677 114.554C40.34 120.61 39.3799 126.814 36.0562 134.569C36.0562 134.569 7.99023 182.577 7.99023 196.61C7.99023 196.61 15.0067 202.519 17.9611 203.626C20.9154 204.734 31.9941 206.581 35.3177 203.996C38.6413 201.411 50.4585 175.191 50.4585 175.191C50.4585 175.191 50.8278 194.764 51.1971 205.842C51.1971 205.842 53.7822 269.877 53.7822 280.217C53.7822 290.557 50.0154 316.408 50.0154 330.662C50.0154 344.917 55.924 412.866 56.8842 419.809C57.8443 426.677 56.3672 442.926 56.3672 451.346C56.3672 459.692 56.8842 480.889 58.3613 494.184C59.8385 507.478 62.2758 534.584 61.8327 542.93C61.3157 551.276 54.9639 581.336 54.9639 581.336H84.5071L86.5012 544.407C86.5012 544.407 97.4322 477.713 97.4322 458.141C97.4322 448.687 96.3982 430.149 96.3982 423.28C96.3982 416.411 103.784 380.442 104.301 372.54C104.818 364.637 110.431 343.513 112.647 332.435C112.647 332.435 117.078 359.762 120.033 373.795C122.987 387.828 129.634 421.803 131.111 426.973C132.589 432.143 131.259 449.573 132.589 460.209C133.696 468.998 142.855 524.908 143.593 535.249C144.332 545.589 148.099 579.859 148.099 579.859H178.38C178.38 579.859 169.518 546.623 170.256 540.714C170.995 534.805 170.995 466.118 170.995 460.948C170.995 455.777 170.921 436.353 171.29 428.967C173.506 385.76 167.45 322.095 166.711 311.754C165.972 301.414 166.637 282.285 166.637 282.285L166.489 217.807C166.194 207.172 168.04 183.906 168.04 183.906Z" fill="#EAC9A4"/>
<path opacity="0.05" d="M160.433 115.662C153.047 110.935 140.417 107.98 130.889 105.912C129.412 105.322 127.714 104.435 126.089 102.958C124.168 100.521 122.617 95.4985 122.174 89.6637C125.719 86.5617 128.6 82.9426 129.855 80.2099C131.554 76.4431 130.889 72.4548 131.628 67.2109C135.469 69.1312 140.491 50.8883 138.497 47.7862C136.65 44.9058 134.065 47.4169 133.77 47.7124V39.3664C133.77 18.3908 122.1 12.9253 107.698 12.9253V96.0155C105.778 96.0155 103.784 96.0155 101.716 95.1292C98.6874 93.8736 95.6592 91.8056 93.0742 89.4421L137.389 133.757H171.216C169.074 126.962 169.148 121.201 160.433 115.662Z" fill="black"/>
<path d="M103.119 46.7521C102.233 47.4907 100.903 47.1953 98.6876 46.3828C93.8129 44.6102 94.1084 43.2069 89.1599 44.2409C87.1657 44.6841 86.1317 46.6782 86.1317 46.6782C86.1317 46.6782 85.6886 43.2069 87.8304 41.7298C90.9325 39.5879 99.3523 41.065 101.863 42.3206C103.931 43.2808 103.71 46.2351 103.119 46.7521Z" fill="#736357"/>
<path d="M89.6035 53.2515C89.6035 53.2515 91.45 55.9843 95.2906 55.9843C99.1312 55.9843 100.608 53.2515 100.608 53.2515C100.608 53.2515 97.8756 50.9619 94.7736 50.9619C91.6715 50.9619 89.6035 53.2515 89.6035 53.2515Z" fill="white"/>
<path d="M92.9994 51.2573C92.6301 51.7005 92.4824 52.2175 92.4824 52.8822C92.4824 54.3594 93.6641 55.5411 95.1413 55.5411C96.6185 55.5411 97.8002 54.3594 97.8002 52.8822C97.8002 52.3652 97.6525 51.9221 97.4309 51.4789C96.6185 51.1835 95.7322 50.9619 94.8459 50.9619C94.1812 50.9619 93.5903 51.1096 92.9994 51.2573Z" fill="#808080"/>
<path d="M95.1423 54.2119C95.8357 54.2119 96.3979 53.6497 96.3979 52.9563C96.3979 52.2628 95.8357 51.7007 95.1423 51.7007C94.4489 51.7007 93.8867 52.2628 93.8867 52.9563C93.8867 53.6497 94.4489 54.2119 95.1423 54.2119Z" fill="#534741"/>
<path d="M48.9805 310.646L49.4975 442.335C49.4975 442.335 83.4721 450.829 101.567 444.92L111.095 339.672C111.169 339.008 112.055 339.008 112.203 339.672L125.276 444.92C125.276 444.92 138.57 447.136 155.927 446.028C173.283 444.92 176.238 441.966 176.238 441.966C176.238 441.966 171.659 325.418 167.966 309.908C164.199 294.398 48.9805 310.646 48.9805 310.646Z" fill="#4B7E9B"/>
<path d="M88.8645 53.4732C89.5293 52.3654 90.5633 51.7006 91.6711 51.2575C92.779 50.8143 93.9607 50.5928 95.1425 50.5928C95.7333 50.5928 96.3242 50.6666 96.9151 50.7405C97.5059 50.8882 98.0968 51.0359 98.6138 51.3314C99.6478 51.8484 100.608 52.5869 101.273 53.6209C101.42 53.7687 101.42 53.9902 101.347 54.138C101.273 54.2857 101.125 54.3595 100.977 54.4334C100.83 54.5072 100.682 54.5811 100.534 54.5072C100.386 54.5072 100.239 54.4334 100.165 54.4334C99.9432 54.3595 99.7217 54.5811 99.5001 54.7288C99.2785 54.8765 99.0569 55.0243 98.8354 55.172L99.4262 54.655L99.7216 54.3595C99.7955 54.2857 100.017 54.2118 100.165 54.2118C100.46 54.2857 100.608 54.3595 100.83 54.2118C101.051 54.0641 101.125 53.9164 101.051 53.7687C100.386 52.8824 99.4262 52.2915 98.4661 51.8484C97.432 51.4791 96.398 51.3314 95.2902 51.3314C94.1823 51.4052 93.1483 51.5529 92.1143 51.9961C91.1541 52.3654 90.194 53.0301 89.6031 53.8425V53.9164C89.4554 54.0641 89.3077 54.0641 89.16 53.9902C88.8645 53.7687 88.7907 53.6209 88.8645 53.4732Z" fill="#826F67"/>
<path d="M93.6663 53.6949C94.0742 53.6949 94.4049 53.3643 94.4049 52.9564C94.4049 52.5484 94.0742 52.2178 93.6663 52.2178C93.2584 52.2178 92.9277 52.5484 92.9277 52.9564C92.9277 53.3643 93.2584 53.6949 93.6663 53.6949Z" fill="white"/>
<path d="M112.572 46.7521C113.459 47.4907 114.788 47.1953 117.004 46.3828C121.878 44.6102 121.583 43.2069 126.531 44.2409C128.526 44.6841 129.56 46.6782 129.56 46.6782C129.56 46.6782 130.003 43.2069 127.861 41.7298C124.759 39.5879 116.339 41.065 113.828 42.3206C111.76 43.2808 112.055 46.2351 112.572 46.7521Z" fill="#736357"/>
<path d="M126.089 53.2515C126.089 53.2515 124.242 55.9843 120.402 55.9843C116.561 55.9843 115.084 53.2515 115.084 53.2515C115.084 53.2515 117.817 50.9619 120.919 50.9619C124.021 50.9619 126.089 53.2515 126.089 53.2515Z" fill="white"/>
<path d="M122.691 51.2573C123.061 51.7005 123.208 52.2175 123.208 52.8822C123.208 54.3594 122.027 55.5411 120.55 55.5411C119.072 55.5411 117.891 54.3594 117.891 52.8822C117.891 52.3652 118.038 51.9221 118.26 51.4789C119.072 51.1835 119.959 50.9619 120.845 50.9619C121.584 50.9619 122.174 51.1096 122.691 51.2573Z" fill="#808080"/>
<path d="M120.623 54.2119C121.316 54.2119 121.878 53.6497 121.878 52.9563C121.878 52.2628 121.316 51.7007 120.623 51.7007C119.929 51.7007 119.367 52.2628 119.367 52.9563C119.367 53.6497 119.929 54.2119 120.623 54.2119Z" fill="#534741"/>
<path opacity="0.1" d="M118.851 296.096C118.851 296.096 119.22 316.776 118.851 320.469C118.482 324.162 111.539 327.264 111.539 327.264V296.096H118.851Z" fill="black"/>
<path d="M126.311 53.7683C125.721 52.9559 124.76 52.365 123.8 51.9219C122.84 51.4787 121.732 51.331 120.624 51.2571C119.517 51.1833 118.409 51.331 117.448 51.7741C116.414 52.1434 115.528 52.8082 114.863 53.6944C114.79 53.7683 114.863 53.9899 115.085 54.1376C115.307 54.2853 115.454 54.2115 115.75 54.1376C115.897 54.1376 116.045 54.2114 116.193 54.2853L116.488 54.5807L117.079 55.0977C116.858 54.95 116.636 54.8023 116.414 54.6546C116.193 54.5069 115.971 54.2853 115.75 54.3592C115.676 54.3592 115.528 54.433 115.38 54.433C115.233 54.433 115.085 54.433 114.937 54.3592C114.79 54.2853 114.716 54.2115 114.568 54.0637C114.494 53.916 114.494 53.6944 114.642 53.5467C115.307 52.5127 116.193 51.7741 117.301 51.2571C117.818 50.9617 118.409 50.814 119 50.6663C119.59 50.5924 120.181 50.5186 120.772 50.5186C121.954 50.5186 123.136 50.7401 124.243 51.1833C125.351 51.6264 126.385 52.365 127.05 53.399C127.124 53.5467 127.124 53.7683 126.976 53.8422C126.607 53.9899 126.385 53.9899 126.311 53.7683Z" fill="#826F67"/>
<path d="M119.367 53.6949C119.775 53.6949 120.106 53.3643 120.106 52.9564C120.106 52.5484 119.775 52.2178 119.367 52.2178C118.96 52.2178 118.629 52.5484 118.629 52.9564C118.629 53.3643 118.96 53.6949 119.367 53.6949Z" fill="white"/>
<path opacity="0.08" d="M111.54 70.091C109.988 71.642 107.699 71.2727 107.699 71.2727C107.699 71.2727 105.483 71.7159 103.858 70.091C102.233 68.4661 101.273 70.9773 102.677 71.7897C104.08 72.6022 105.114 71.5682 105.631 72.159C106.148 72.7499 106.148 72.8976 107.699 72.8976C109.25 72.8976 109.25 72.7499 109.767 72.159C110.284 71.5682 111.392 72.6022 112.721 71.7897C114.198 70.9773 113.238 68.3923 111.54 70.091Z" fill="black"/>
<path opacity="0.1" d="M109.472 76.2214C108.807 76.1475 108.216 76.5907 107.699 76.5907C107.182 76.5907 106.37 76.0737 105.705 76.2214C105.04 76.2952 98.4668 77.6247 98.4668 77.6247C98.4668 77.6247 100.683 79.6188 100.978 79.9143C101.273 80.2097 101.495 81.3176 102.234 82.3516C103.563 84.198 106.222 83.681 107.625 83.681C109.028 83.681 111.835 84.198 113.165 82.3516C113.903 81.3176 113.977 80.2097 114.272 79.9143C114.568 79.6188 117.005 77.6247 117.005 77.6247C117.005 77.6247 110.21 76.2952 109.472 76.2214Z" fill="black"/>
<path opacity="0.1" d="M115.526 78.8064C116.265 78.2155 117.004 77.6247 117.004 77.6247C117.004 77.6247 110.209 76.2952 109.544 76.2214C108.879 76.1475 108.288 76.5907 107.771 76.5907C107.254 76.5907 106.442 76.0737 105.777 76.2214C105.112 76.2952 98.5391 77.6247 98.5391 77.6247C98.5391 77.6247 99.1299 78.1417 99.7208 78.7325C100.533 79.4711 101.641 79.8404 102.823 79.7665C104.226 79.6188 106.22 79.4711 107.771 79.4711C109.322 79.4711 111.316 79.6188 112.72 79.7665C113.68 79.8404 114.714 79.545 115.526 78.8064Z" fill="black"/>
<path d="M131.111 11.9651C132.958 14.4025 136.281 20.5327 137.389 22.6007C138.497 24.5949 135.469 46.6784 135.469 46.6784L133.77 47.8601L132.662 53.6949C132.514 54.4335 132.145 55.172 131.702 55.8368L130.225 57.6832C130.225 57.6832 132.884 45.7921 132.884 43.5763C132.884 41.3606 130.889 38.4063 130.889 38.4063L129.265 29.3956C129.265 29.3956 116.487 28.8786 111.465 31.4636C108.437 33.0147 107.403 35.3043 107.403 35.3043C107.403 35.3043 107.255 32.9408 107.55 31.0205C107.846 29.1002 109.618 25.9982 109.618 25.9982C109.618 25.9982 107.994 26.3674 105.556 27.3276C103.119 28.2878 99.0567 32.1284 94.8468 34.5657C90.6369 37.003 85.7623 35.969 85.7623 35.969C85.7623 35.969 82.5864 41.3606 82.5864 43.5763C82.5864 45.7921 85.2453 57.6832 85.2453 57.6832L83.7681 55.8368C83.2511 55.2459 82.9557 54.5073 82.808 53.6949L81.7001 47.8601L80.0014 46.6784L74.6836 29.5433L77.7856 24.0779C77.7856 24.0779 77.4163 18.6124 79.1151 14.4025C80.8138 10.1926 93.3697 4.5055 97.4318 2.2159C105.408 -2.21558 117.521 1.62504 117.521 1.62504L114.419 4.43164C114.271 4.43164 124.242 2.95448 131.111 11.9651Z" fill="#726760"/>
<path d="M214.94 190.479C212.281 188.19 211.099 185.826 207.776 179.179C204.452 172.532 192.044 152.073 185.766 142.103C179.488 132.132 177.42 126.74 174.318 121.275C170.404 114.406 159.916 109.827 152.161 108.719C146.326 107.906 136.872 105.469 132.441 104.287C127.344 112.559 118.26 118.025 107.846 118.025C97.2104 118.025 87.9043 112.264 82.8819 103.623H81.2571C81.2571 103.623 72.3941 106.429 62.054 107.906C51.7139 109.383 43.0725 111.821 38.1979 121.718C36.1299 125.78 27.193 141.807 24.7557 147.568C22.54 152.738 15.8928 170.464 7.62069 181.912C-1.46383 194.468 -0.134391 202.001 0.604188 206.876C1.34277 211.751 3.0415 215.813 4.29708 218.619C8.35927 227.852 26.159 226.744 32.437 223.716C43.5156 218.324 45.7314 200.893 46.1007 192.326C46.0268 200.967 50.8276 222.091 46.3222 253.259C44.3281 266.849 41.8908 270.763 41.3738 277.41C40.8568 284.058 44.4758 289.671 44.4758 289.671C44.4758 289.671 42.9986 291.886 42.7771 293.364C42.5555 294.841 45.5098 306.88 45.5098 310.129C45.5098 313.305 45.6575 316.038 47.3563 316.777C49.055 317.515 53.7819 314.561 64.122 314.044C74.4621 313.527 116.561 320.174 131.333 320.913C146.104 321.651 165.751 318.549 168.114 317.441C171.438 315.964 173.653 312.493 173.432 309.317C173.21 306.141 173.432 299.198 173.949 296.539C174.466 293.807 171.216 293.068 171.216 290.409C171.216 287.677 173.21 281.768 172.915 274.678C172.693 267.513 169.813 253.406 169.222 249.566C165.972 228.221 168.114 192.326 168.114 192.326C168.114 192.326 183.624 223.642 203.197 224.823C224.32 226.079 226.019 200.081 214.94 190.479Z" fill="#9B2331"/>
<path opacity="0.2" d="M140.565 106.355C137.315 105.617 134.361 104.804 132.367 104.287C132.071 104.73 131.776 105.247 131.48 105.69C131.406 105.764 131.333 105.912 131.259 105.986C130.963 106.355 130.668 106.724 130.372 107.094C130.299 107.168 130.225 107.241 130.225 107.315C129.486 108.202 128.748 109.014 127.935 109.826C127.861 109.9 127.787 109.974 127.714 110.048C127.418 110.344 127.049 110.639 126.68 110.934C126.606 111.008 126.458 111.082 126.384 111.156C125.941 111.525 125.572 111.821 125.129 112.19C124.685 112.559 124.242 112.855 123.725 113.15C123.651 113.224 123.504 113.298 123.43 113.372C123.061 113.593 122.691 113.815 122.322 114.036C122.174 114.11 122.027 114.184 121.953 114.258C121.583 114.48 121.14 114.701 120.697 114.923C120.623 114.997 120.549 114.997 120.402 115.07C119.885 115.292 119.368 115.514 118.851 115.735C118.777 115.809 118.629 115.809 118.555 115.883C118.112 116.031 117.743 116.178 117.3 116.326C117.152 116.4 117.004 116.4 116.783 116.474C116.413 116.621 115.97 116.695 115.601 116.843C115.453 116.917 115.305 116.917 115.158 116.991C114.641 117.138 114.05 117.286 113.533 117.36C113.459 117.36 113.385 117.36 113.311 117.434C112.868 117.508 112.351 117.582 111.908 117.655C111.76 117.655 111.539 117.729 111.391 117.729C110.948 117.803 110.579 117.803 110.135 117.877C109.988 117.877 109.766 117.877 109.618 117.951C109.028 117.951 108.437 118.025 107.846 118.025C107.255 118.025 106.664 118.025 106.073 117.951C105.925 117.951 105.704 117.951 105.556 117.877C105.113 117.877 104.67 117.803 104.227 117.729C104.079 117.729 103.931 117.655 103.71 117.655C103.119 117.582 102.528 117.508 102.011 117.36C101.42 117.212 100.903 117.138 100.312 116.991C100.165 116.917 100.017 116.917 99.8692 116.843C99.426 116.695 98.9829 116.548 98.5397 116.4C98.392 116.326 98.3181 116.326 98.1704 116.252C97.0625 115.883 96.0285 115.44 94.9945 114.923C94.9207 114.849 94.773 114.849 94.6991 114.775C94.2559 114.553 93.8128 114.332 93.3697 114.036C93.2958 114.036 93.2219 113.963 93.1481 113.963C92.1141 113.372 91.1539 112.707 90.1938 111.968C90.1199 111.968 90.1199 111.895 90.046 111.895C89.6029 111.525 89.1597 111.156 88.7166 110.787C87.8303 109.974 86.944 109.088 86.1316 108.202C84.9498 106.798 83.842 105.321 82.8818 103.696H81.257C81.257 103.696 78.6719 104.509 74.6836 105.543C80.6661 117.803 93.2958 126.223 107.846 126.223C122.027 126.223 134.361 118.172 140.565 106.355Z" fill="black"/>
<path opacity="0.2" d="M185.028 179.77C177.347 182.946 176.165 191.218 172.62 184.349C170.625 180.509 167.597 177.85 166.859 171.424C166.12 164.999 166.711 158.277 168.484 153.846C170.256 149.415 175.648 141.069 173.284 140.552C165.16 138.927 162.206 176.151 159.621 155.471C158.734 148.676 160.285 132.87 155.041 133.904C150.019 134.791 154.672 148.085 156.888 159.385C159.104 170.686 159.842 190.553 159.842 190.553C158.513 211.603 161.689 231.545 162.797 237.97C163.904 244.396 167.597 257.838 166.859 270.098C166.12 282.654 156.74 288.784 147.656 291.739C139.531 294.398 122.396 295.21 139.162 295.727C155.928 296.244 160.729 293.364 164.643 293.216C168.557 293.068 166.711 299.642 163.166 304.221C159.621 308.8 160.95 309.539 166.12 309.982C171.29 310.351 169.222 312.936 167.228 316.038C166.785 316.703 166.785 317.22 167.154 317.589C167.523 317.515 167.819 317.367 167.967 317.294C171.29 315.816 173.506 312.345 173.284 309.169C173.063 305.993 173.284 299.051 173.801 296.392C174.318 293.659 171.069 292.92 171.069 290.262C171.069 287.529 173.063 281.62 172.767 274.53C172.546 267.366 169.665 253.259 169.074 249.418C165.825 228.073 167.967 192.178 167.967 192.178C167.967 192.178 170.404 196.314 174.392 201.558C176.165 195.206 178.602 189.815 182 187.23C189.976 181.173 201.572 184.866 202.68 181.173C203.788 177.481 192.561 176.594 185.028 179.77Z" fill="black"/>
<path d="M58.1392 116.326C56.7359 119.133 54.5941 121.94 54.5941 121.94C54.5941 121.94 53.1169 122.752 52.3783 124.229C51.7136 125.632 52.8215 129.547 52.8215 129.547C53.6339 131.246 53.4123 132.723 54.2248 134.939C54.9634 137.154 55.2588 144.54 54.8156 146.608L51.5659 151.335C48.6116 155.545 30.5164 168.027 23.7953 173.566C17.0742 179.106 8.50671 187.156 5.92168 195.65C3.33666 204.143 6.5864 218.324 9.7623 219.506C9.7623 219.506 22.1704 224.824 32.2151 220.466C37.5329 218.176 44.4755 207.541 46.3958 201.928C48.3161 196.315 67.8146 156.062 67.8146 156.062L68.8486 154.732C68.8486 154.732 71.8768 151.704 72.9108 149.489C73.9448 147.199 74.6834 143.58 74.6834 143.58C76.3822 140.847 77.7116 138.262 77.6377 134.569C77.5639 130.876 76.3083 124.894 76.3083 124.894C76.3083 124.894 76.6037 124.155 76.8253 122.604C77.0469 121.127 75.5697 118.838 75.5697 118.838L75.4959 113.741C75.4959 113.741 69.9565 110.639 64.4172 112.855C58.8778 115.071 58.3608 116.105 58.3608 116.105" fill="#EAC9A4"/>
<path d="M59.1738 78.7326C59.1738 78.7326 61.168 78.8803 62.8667 80.1359C64.1962 81.096 64.8609 82.2778 65.5256 83.8288C66.6335 86.2661 67.8891 86.9308 67.8891 86.9308L67.7413 86.4138C67.7413 86.4138 67.0028 85.6014 65.9688 83.1641C65.304 81.6869 64.6393 80.5052 63.3099 79.4712C61.685 78.2156 59.617 78.0679 59.617 78.0679L59.1738 78.7326Z" fill="#C69C6D"/>
<path d="M63.6777 75.3351C63.6777 75.3351 65.3026 76.5168 66.115 78.4371C66.7059 79.9143 66.7059 81.3176 66.4843 82.9425C66.115 85.6014 66.9275 86.7831 66.9275 86.7831L67.6661 86.4138C67.6661 86.4138 66.9275 85.1582 67.2229 82.5732C67.4445 80.9483 67.4445 79.545 66.8536 78.0679C66.115 76.1476 64.4163 74.9658 64.4163 74.9658L63.6777 75.3351Z" fill="#C69C6D"/>
<path d="M66.6316 85.1582C66.6316 85.1582 71.2108 90.993 72.688 118.985C74.6821 157.391 53.1895 165.737 54.6666 198.973C54.6666 198.973 55.4052 208.132 58.3595 216.256C61.3138 224.38 65.7453 233.982 67.2225 245.061C68.6996 256.139 66.4839 276.081 66.4839 276.081" stroke="#232323" stroke-width="1.8106" stroke-linejoin="round"/>
<path opacity="0.1" d="M77.6368 134.643C77.5629 130.95 76.3073 124.968 76.3073 124.968C76.3073 124.968 76.6028 124.229 76.8243 122.678C76.8243 122.604 76.8243 122.53 76.8243 122.457L71.1373 122.826C71.1373 122.826 69.6601 125.559 70.6203 130.359C70.8418 131.541 70.6941 133.24 70.3248 135.16L76.3812 134.643C76.3812 134.643 76.5289 137.302 74.5347 139.296C72.5406 141.29 67.8875 141.29 67.8875 141.29L66.8535 144.392C69.4385 148.159 68.0352 155.693 68.0352 155.693C68.0352 155.693 71.8759 151.704 72.9099 149.415C73.9439 147.125 74.6825 143.506 74.6825 143.506C76.3812 140.995 77.6368 138.41 77.6368 134.643Z" fill="black"/>
<path opacity="0.1" d="M62.0527 118.69C62.0527 118.69 65.007 110.344 69.5862 110.565C74.1654 110.787 75.7165 113.372 75.7165 113.372L75.4949 120.167L62.0527 118.69Z" fill="black"/>
<path opacity="0.15" d="M84.5064 106.134C84.5064 106.134 59.0993 111.969 53.1907 113.815C47.282 115.662 46.3957 118.394 46.9128 121.053C47.4298 123.712 42.629 122.161 41.1518 124.377C39.6747 126.593 30.2209 142.694 27.2665 149.341C24.3122 155.988 15.597 174.305 16.0401 175.191C16.4833 176.077 18.4036 175.56 18.2559 177.259C18.1082 178.958 8.58048 186.639 5.62617 196.314C2.67185 206.064 6.88175 215.37 8.7282 219.063C9.98378 221.5 10.8701 223.125 10.3531 224.159C7.62033 222.977 5.40459 221.205 4.22287 218.619C2.96728 215.813 1.26855 211.677 0.529969 206.876C-0.20861 202.075 -1.53805 194.542 7.54647 181.912C15.8186 170.464 22.5396 152.738 24.6815 147.568C27.045 141.807 36.0556 125.78 38.1237 121.718C43.0721 111.895 51.6397 109.384 61.9798 107.906C69.0701 106.872 75.4219 105.248 78.7455 104.287L81.0351 103.623L82.8077 103.549L84.5064 106.134Z" fill="white"/>
<path d="M54.6676 137.597C54.2244 136.194 53.5597 135.603 53.3381 134.274C53.0427 132.723 53.1165 130.433 52.895 129.547C52.895 129.547 51.7132 125.632 52.4518 124.229C53.1904 122.752 54.6676 121.939 54.6676 121.939C54.6676 121.939 55.8493 119.576 57.2526 116.769C58.6559 113.963 60.0592 112.042 60.5762 111.156C61.0932 110.27 63.8998 109.162 66.8541 108.423C69.6607 107.759 71.6549 107.242 73.3536 107.98C74.9785 108.793 78.893 110.122 79.7054 110.935C80.444 111.747 81.1826 112.707 80.6656 113.593C80.1486 114.48 78.5237 115.588 76.8249 115.292C75.4955 115.071 71.4333 113.593 71.4333 113.593C71.4333 113.593 67.3711 114.48 66.8541 115.218C66.3371 115.957 65.1554 117.36 65.1554 117.36C65.1554 117.36 67.962 116.252 69.2176 116.622C70.4732 116.991 75.7909 118.911 75.7909 118.911C75.7909 118.911 77.1942 121.201 77.0465 122.678C76.8249 124.155 76.5295 124.968 76.5295 124.968C76.5295 124.968 77.1942 126.149 77.1942 128.217C77.1942 130.285 76.4557 131.541 76.4557 131.541C76.4557 131.541 77.0465 132.427 76.6034 134.643C76.1602 136.859 73.6491 138.336 73.6491 138.336L67.3711 136.489L58.8775 140.552C58.7297 140.625 55.3323 139.665 54.6676 137.597Z" fill="#EAC9A4"/>
<path opacity="0.1" d="M76.3085 125.041L72.4679 123.195C70.1783 122.235 67.4455 121.865 64.1219 123.047L61.0938 124.45C61.0938 124.45 65.3037 122.899 67.8887 122.973C71.6554 122.973 76.3085 125.041 76.3085 125.041Z" fill="black"/>
<path opacity="0.1" d="M61.4623 129.325C60.7237 129.029 67.0016 127.552 69.7344 128.069C73.6489 128.808 76.2339 131.541 76.2339 131.541C76.2339 131.541 73.5011 129.99 71.8024 129.325C68.9219 128.217 63.8996 128.882 62.0532 129.251L61.4623 129.325Z" fill="black"/>
<path opacity="0.1" d="M54.668 121.94L65.0081 117.36L55.5543 120.093L54.668 121.94Z" fill="black"/>
<path opacity="0.15" d="M53.9303 315.078C46.5445 312.123 53.1917 301.562 51.1975 297.869C49.2033 294.176 50.2374 292.477 51.7145 289.227C53.1917 285.978 44.698 290.409 48.0216 260.201C49.7942 244.248 48.2432 223.051 48.2432 223.051L48.1693 223.125C48.3171 231.766 47.9478 241.885 46.249 253.406C44.2549 266.996 41.8176 270.911 41.3006 277.558C40.7835 284.205 44.4026 289.818 44.4026 289.818C44.4026 289.818 42.9254 292.034 42.7039 293.511C42.4823 294.988 45.4366 307.027 45.4366 310.277C45.4366 313.453 45.5843 316.186 47.283 316.924C48.3171 317.367 50.5328 316.407 54.595 315.521C54.3734 315.225 54.1518 315.152 53.9303 315.078Z" fill="white"/>
<path d="M88.1255 561.763C88.1255 561.763 86.8699 551.94 87.3869 549.207C87.9039 546.475 89.0857 548.69 89.8242 542.043C90.5628 535.396 90.6367 532.072 88.5687 531.703C87.2392 531.481 82.2169 534.14 72.3199 533.919C59.7641 533.697 61.3889 528.01 59.7641 531.186C57.696 535.248 59.5425 538.793 59.0255 541.526C58.5085 544.259 60.2811 546.475 60.2811 546.475L57.8438 558.292L88.1255 561.763Z" fill="white"/>
<path d="M139.679 168.618C139.679 168.618 145.588 170.686 147.73 172.015C149.798 173.271 152.9 177.185 154.525 180.583C155.411 182.503 156.962 186.048 158.07 187.525C159.178 189.076 144.628 181.912 143.077 179.475C141.526 177.038 137.907 175.708 136.503 173.788C135.1 171.868 135.839 169.356 136.651 168.47C137.463 167.584 137.759 167.436 137.759 167.436L139.679 168.618Z" fill="#EAC9A4"/>
<path opacity="0.1" d="M142.189 178.367L147.286 179.253L142.633 175.265L142.189 178.367Z" fill="black"/>
<path d="M150.979 170.021L135.248 204.218C133.032 209.018 127.345 211.16 122.47 208.944L104.67 200.746C99.8697 198.53 97.7278 192.843 99.9436 187.969L115.675 153.773C117.891 148.972 123.578 146.83 128.453 149.046L146.252 157.244C151.053 159.533 153.195 165.221 150.979 170.021Z" fill="white"/>
<path fill-rule="evenodd" clip-rule="evenodd" d="M142.484 169.947L129.633 197.865C128.747 199.712 126.605 200.524 124.758 199.638L110.208 192.917C108.362 192.031 107.549 189.889 108.436 188.042L121.287 160.124C122.173 158.277 124.315 157.465 126.162 158.351L140.712 165.072C142.558 165.885 143.371 168.101 142.484 169.947Z" stroke="#666666" stroke-width="1.8106" stroke-linejoin="round"/>
<path d="M140.711 173.861L131.479 193.877L130.076 191.07C129.485 189.962 129.485 188.707 130.002 187.599L134.951 176.816C135.468 175.708 136.502 174.895 137.683 174.6L140.711 173.861Z" fill="#666666"/>
<path opacity="0.2" d="M87.3855 549.207C87.4594 548.764 87.5332 548.469 87.681 548.247C86.6469 548.617 76.5284 552.088 60.3535 546.475C60.3535 546.475 72.5401 550.758 75.716 552.605C78.7441 554.377 86.9424 561.025 87.7548 561.689L88.198 561.763C88.1241 561.763 86.8685 551.866 87.3855 549.207Z" fill="black"/>
<path d="M143.741 561.763C143.741 561.763 145.218 553.491 144.775 550.832C144.258 548.1 142.042 549.946 141.23 542.265C140.491 534.584 141.23 532.073 143.224 531.777C144.553 531.555 148.689 535.248 158.513 534.51C168.336 533.771 170.404 528.084 172.029 531.334C174.097 535.396 173.063 539.311 173.506 541.97C174.023 544.702 171.512 546.549 171.512 546.549L173.949 558.366L143.741 561.763Z" fill="white"/>
<path d="M198.395 175.413C198.468 175.486 198.542 175.486 198.542 175.486C198.542 175.486 198.542 175.486 198.395 175.413Z" fill="black"/>
<path opacity="0.2" d="M144.184 549.429C145.808 549.798 159.398 552.605 162.5 554.008C164.568 554.894 169.812 556.962 173.505 558.366L174.096 558.292L171.659 546.475C171.659 546.475 165.898 549.207 159.029 549.577C152.53 549.872 145.218 549.503 144.184 549.429Z" fill="black"/>
<path d="M129.634 97.8617C135.174 89.5158 133.401 77.1077 132.441 70.3127C132.367 67.6538 131.038 58.8647 131.038 58.8647C131.038 58.8647 130.225 63.4439 129.634 65.1427C129.117 66.8414 126.754 78.1417 123.43 76.3691C119.073 74.0056 111.687 72.4546 111.687 72.4546C109.84 73.6363 107.625 73.6363 107.625 73.6363C107.625 73.6363 105.409 73.5625 103.562 72.4546C103.562 72.4546 96.1767 74.0056 91.819 76.3691C88.5693 78.1417 86.2058 66.9153 85.615 65.1427C85.098 63.4439 84.2117 58.8647 84.2117 58.8647C84.2117 58.8647 82.8084 68.5401 82.6607 71.2729C82.3652 74.6703 80.7403 85.749 81.1835 89.1465L83.2515 86.4137C83.5469 88.9249 83.6208 92.544 84.3594 94.095C86.3535 98.5265 94.5518 104.361 101.568 107.242C103.636 108.054 105.63 108.128 107.551 108.128C109.471 108.128 111.465 108.128 113.533 107.242C120.55 104.361 127.049 99.1173 129.043 94.6858L129.634 97.8617ZM111.982 87.0046C108.806 87.0046 108.585 85.232 108.585 85.232H106.812C106.812 85.232 106 87.0046 102.824 87.0046C100.608 87.0046 98.0231 82.7209 96.6937 80.2097C96.2505 79.3234 96.8414 78.2894 97.8754 78.2894H117.374C118.408 78.2894 118.999 79.3972 118.482 80.2835C117.005 82.8686 114.198 87.0046 111.982 87.0046Z" fill="#726760"/>
<path d="M61.5361 553.861C58.434 554.895 56.0706 557.406 55.332 560.655C54.815 562.797 54.0026 565.752 52.5993 569.445C50.162 576.092 50.6051 582.739 53.8549 588.426C57.8432 595.516 69.2912 597.141 76.0122 594.852C86.1308 591.38 89.2328 583.33 89.5282 576.609C89.6759 573.211 90.0452 569.371 90.4145 566.047C90.9315 561.025 87.9034 556.298 83.1026 554.673C77.3417 552.753 69.2912 551.275 61.5361 553.861Z" fill="#0071BC"/>
<path d="M176.756 560.286C176.756 560.286 177.125 564.939 180.227 573.359C182.665 580.006 182.221 586.653 178.972 592.34C174.983 599.431 163.535 601.056 156.814 598.766C146.696 595.295 143.594 587.244 143.298 580.523C143.077 575.279 142.929 568.484 142.781 564.644" fill="#C7B299"/>
<path d="M171.289 553.861C174.391 554.895 176.755 557.406 177.493 560.655C178.01 562.797 178.823 565.752 180.226 569.445C182.663 576.092 182.22 582.739 178.97 588.426C174.982 595.516 163.534 597.141 156.813 594.852C146.695 591.38 143.592 583.33 143.297 576.609C143.149 573.211 142.78 569.371 142.411 566.047C141.894 561.025 144.922 556.298 149.723 554.673C155.484 552.753 163.46 551.275 171.289 553.861Z" fill="#0071BC"/>
<path opacity="0.15" d="M59.9122 554.525C57.6226 555.781 55.85 557.997 55.2591 560.582C54.7421 562.724 53.9297 565.678 52.5264 569.371C51.1969 572.99 50.7538 576.609 51.1231 580.08C51.1231 580.08 52.3048 573.581 54.0035 570.774C55.6284 567.968 59.8383 557.184 59.9122 554.525Z" fill="white"/>
<path opacity="0.07" d="M109.619 10.5617C109.619 10.5617 103.71 8.34601 99.5004 12.7775C95.5859 16.9874 96.3245 18.4645 91.893 21.862C87.4615 25.3333 85.9844 25.0379 85.9844 25.0379C85.9844 25.0379 94.1087 26.2935 98.3186 23.3392C102.529 20.3849 105.704 19.8678 105.704 19.8678C105.704 19.8678 108.437 15.6579 110.653 15.6579C112.869 15.6579 113.607 11.8173 109.619 10.5617Z" fill="white"/>
<path d="M76.6039 593.966C70.9907 596.034 64.6389 595.369 59.5427 592.341C57.1792 590.937 55.1112 589.091 54.8158 586.875C54.0772 581.336 55.9975 579.12 60.6506 579.12C65.2298 579.12 69.2919 579.711 74.0927 580.597C78.8935 581.484 83.2511 584.807 83.3249 586.654C83.1772 588.722 82.2171 591.898 76.6039 593.966Z" fill="white"/>
<path d="M157.182 593.966C162.795 596.034 169.147 595.369 174.243 592.341C176.607 590.937 178.675 589.091 178.97 586.875C179.709 581.336 177.788 579.12 173.135 579.12C168.556 579.12 164.494 579.711 159.693 580.597C154.892 581.484 150.535 584.807 150.461 586.654C150.535 588.722 151.495 591.898 157.182 593.966Z" fill="white"/>
<path opacity="0.05" d="M131.111 11.965C124.169 2.88046 114.198 4.35762 114.198 4.35762L117.3 1.55102C117.3 1.55102 112.869 0.147716 107.551 0V26.515C108.733 26.1457 109.545 25.9241 109.545 25.9241C109.545 25.9241 107.994 28.8046 107.551 30.651V34.7132C107.994 33.9746 109.176 32.4236 111.391 31.2419C116.414 28.6569 129.191 29.1739 129.191 29.1739L130.816 38.1845C130.816 38.1845 132.81 41.1389 132.81 43.3546C132.81 45.5703 130.151 57.4615 130.151 57.4615L131.628 55.615C132.145 55.0242 132.441 54.2856 132.589 53.4731L133.696 47.6384L135.395 46.4566C135.395 46.4566 138.423 24.3731 137.316 22.379C136.282 20.5325 133.032 14.4023 131.111 11.965Z" fill="black"/>
<path d="M76.0859 286.495H81.9946" stroke="#999999" stroke-width="2" stroke-linecap="round" stroke-linejoin="round"/>
<path d="M76.0859 293.881H81.9946" stroke="#999999" stroke-width="2" stroke-linecap="round" stroke-linejoin="round"/>
<path d="M72.3937 296.835H62.7922C61.1673 296.835 59.8379 295.505 59.8379 293.88V278.37C59.8379 276.745 61.1673 275.416 62.7922 275.416H72.3937V296.835Z" fill="#232323"/>
<path d="M77.5647 283.541H67.2246V296.835H77.5647V283.541Z" fill="#232323"/>
<path d="M205.708 189.741C197.879 184.94 187.982 189.815 181.483 190.849C175.943 191.735 165.234 190.11 159.547 189.002L154.524 180.952C154.524 180.952 140.196 178.515 138.94 178.145C137.611 177.776 134.73 176.003 133.106 174.674C131.776 173.64 127.049 167.14 123.43 166.254C119.811 165.368 119.811 169.356 120.771 170.686C121.658 171.867 123.356 174.009 126.532 178.071C127.418 179.253 128.896 180.656 128.896 180.656C128.896 180.656 125.498 179.844 123.726 179.401C122.027 178.884 116.34 174.896 113.312 174.379C110.283 173.862 108.732 175.043 108.659 176.299C108.659 176.594 109.249 177.407 109.249 177.407C109.619 177.998 113.09 180.656 113.09 180.656C112.425 180.066 109.693 179.032 109.693 179.032C109.176 179.105 108.659 179.327 108.437 179.844C107.846 181.1 108.142 182.503 109.102 183.537C109.988 184.497 111.465 185.457 112.056 186.048C113.607 187.525 118.112 190.923 118.112 190.923C116.635 189.963 112.795 187.821 111.022 188.707C109.914 189.224 109.914 191.144 111.096 192.326C115.897 197.053 117.3 197.053 120.107 198.973C122.47 200.598 124.907 203.552 128.674 203.996C132.515 204.439 141.747 206.359 144.184 206.95C146.326 207.467 153.86 209.239 158.143 211.308C164.126 214.336 169.591 216.182 177.42 218.767C191.306 223.272 202.458 223.199 210.287 220.761C215.9 218.767 226.757 202.666 205.708 189.741Z" fill="#EAC9A4"/>
<path opacity="0.1" d="M112.646 180.361C112.646 180.361 118.777 183.907 121.066 185.827C123.356 187.747 133.622 192.843 133.991 193.656C134.361 194.468 132.293 194.837 131.259 194.173C130.225 193.508 125.645 190.406 124.685 189.963C123.799 189.52 120.254 186.196 119.146 185.384C118.038 184.571 112.646 180.361 112.646 180.361Z" fill="black"/>
<path opacity="0.1" d="M136.133 184.719C134.73 183.168 129.191 180.583 126.236 179.918L135.986 186.713C135.986 186.713 137.02 185.679 136.133 184.719Z" fill="black"/>
<path opacity="0.1" d="M117.891 190.554C117.891 190.554 122.987 194.616 124.316 195.428C125.646 196.241 129.412 198.604 129.634 199.491C129.856 200.303 127.788 199.712 127.271 199.047C126.754 198.383 121.657 195.059 120.771 193.877C119.885 192.769 117.891 190.554 117.891 190.554Z" fill="black"/>
<path opacity="0.07" d="M94.5515 87.0786C94.5515 87.0786 96.7673 88.1865 97.5059 92.8395C98.2444 97.4926 99.7216 99.6345 99.7216 99.6345C99.7216 99.6345 86.4272 91.5101 94.5515 87.0786Z" fill="white"/>
<path opacity="0.07" d="M121.436 87.0786C121.436 87.0786 119.22 88.1865 118.481 92.8395C117.743 97.4926 116.266 99.6345 116.266 99.6345C116.266 99.6345 129.56 91.5101 121.436 87.0786Z" fill="white"/>
<path opacity="0.05" d="M111.982 87.0049C108.806 87.0049 108.584 85.2323 108.584 85.2323H108.289V107.981C109.988 107.981 111.834 107.907 113.681 107.094C120.697 104.214 127.197 98.9699 129.191 94.5384L129.708 97.7143C135.247 89.3683 133.475 76.9602 132.514 70.1653C132.441 67.5064 131.111 58.7173 131.111 58.7173C131.111 58.7173 130.299 63.2965 129.708 64.9952C129.191 66.6939 126.827 77.9942 123.504 76.2216C119.146 73.8582 111.76 72.3071 111.76 72.3071C110.505 73.1196 109.028 73.3412 108.289 73.4889V78.2158H117.374C118.408 78.2158 118.998 79.3236 118.481 80.2099C117.004 82.8688 114.198 87.0049 111.982 87.0049Z" fill="black"/>
<path opacity="0.1" d="M65.081 140.699C65.7457 141.733 66.9275 144.466 66.9275 144.466L67.8876 141.29C67.8876 141.29 68.0353 139.739 68.4046 138.853C68.8478 137.745 70.1772 137.375 70.2511 137.08C70.1772 137.08 67.9615 136.858 67.7399 136.858C66.4104 136.711 63.6038 137.892 62.5698 137.006C61.2404 135.898 60.5018 133.978 60.1325 134.126C59.6894 134.273 60.7972 135.972 61.1665 136.711C61.5358 137.449 60.5018 137.228 59.3939 137.819C58.2861 138.409 57.9906 139.148 58.4338 138.926C59.5417 138.409 60.0587 138.04 61.462 138.114C62.2005 138.262 64.047 139.074 65.081 140.699Z" fill="black"/>
<path opacity="0.1" d="M108.215 337.457L89.3809 339.673C89.3809 339.673 92.7045 335.98 100.09 335.61C107.476 335.241 108.215 337.457 108.215 337.457Z" fill="black"/>
<path opacity="0.1" d="M115.971 335.61C115.971 335.61 125.572 333.025 131.481 330.44C137.39 327.855 140.713 328.594 140.713 328.594C140.713 328.594 133.697 333.395 127.419 334.872C121.141 336.349 115.971 335.61 115.971 335.61Z" fill="black"/>
<path opacity="0.1" d="M115.602 337.826L130.004 340.78C130.004 340.78 125.203 341.888 122.249 341.15C119.294 340.411 115.602 337.826 115.602 337.826Z" fill="black"/>
<path d="M70.1784 573.95C75.053 574.467 79.2629 573.507 79.7799 569.076C80.2231 564.644 76.6779 560.582 71.8033 560.065C66.9287 559.548 62.571 562.724 62.1279 567.229C61.6847 571.587 65.3776 573.433 70.1784 573.95Z" fill="white"/>
<path d="M69.5878 562.798L68.6276 567.229C68.2584 568.928 69.0708 569.74 70.3264 569.962C71.7297 570.184 72.8375 569.593 73.133 567.968L74.0931 563.536L75.3487 563.758L74.3886 568.116C73.8716 570.405 72.1728 571.07 70.1048 570.774C68.1845 570.479 66.855 569.297 67.3721 567.008L68.3322 562.576L69.5878 562.798Z" fill="#0071BC"/>
<path d="M163.978 573.95C159.103 574.467 154.893 573.581 154.376 569.075C153.859 564.644 157.404 560.582 162.279 559.991C167.154 559.474 171.511 562.65 171.954 567.081C172.471 571.586 168.852 573.359 163.978 573.95Z" fill="white"/>
<path d="M164.495 562.797L165.455 567.229C165.825 568.928 165.012 569.74 163.757 569.962C162.353 570.183 161.246 569.592 160.95 567.967L159.99 563.536L158.734 563.758L159.695 568.115C160.212 570.405 161.91 571.069 163.978 570.7C165.899 570.405 167.228 569.223 166.711 566.933L165.751 562.502L164.495 562.797Z" fill="#0071BC"/>
<path d="M49.128 433.841C49.128 433.841 47.5032 433.989 47.5032 436.426C47.5032 438.864 47.3554 443.074 46.9123 444.181C46.4691 445.289 56.6615 452.306 76.8248 452.158C96.988 452.01 102.527 449.795 103.266 448.096C104.004 446.397 103.118 443.074 103.118 441.818C103.118 440.562 104.226 438.864 103.266 438.125C102.306 437.386 102.38 437.386 102.38 437.386C102.38 437.386 74.9783 446.914 49.128 433.841Z" fill="#60A5C4"/>
<path d="M175.944 434.063C175.944 434.063 177.569 434.211 177.569 436.648C177.569 439.085 177.716 443.295 178.159 444.403C178.603 445.511 169.666 452.38 149.503 452.158C129.339 451.937 123.8 449.795 123.061 448.096C122.323 446.397 123.209 443.074 123.209 441.818C123.209 440.562 122.101 438.864 123.061 438.125C124.022 437.387 123.948 437.387 123.948 437.387C123.948 437.387 150.093 447.136 175.944 434.063Z" fill="#60A5C4"/>
<path opacity="0.1" d="M57.9927 434.95C54.4475 431.847 52.8226 416.485 52.8226 409.469C52.8226 402.452 52.8226 341.519 52.4533 333.026C52.084 324.532 54.7429 315.374 54.7429 315.374L48.982 316.703L49.4252 433.915C49.2774 433.842 49.2036 433.842 49.0559 433.768C49.0559 433.768 47.431 433.916 47.431 436.353C47.431 438.79 47.2833 443 46.8401 444.108C46.7663 444.403 47.3571 445.068 48.6866 445.954C48.8343 444.773 49.499 438.569 50.3114 437.091C51.1977 435.467 58.4358 437.682 59.1744 437.83C59.913 437.978 61.464 438.052 57.9927 434.95Z" fill="white"/>
<path opacity="0.1" d="M103.193 448.096C103.932 446.471 103.046 443.074 103.046 441.818C103.046 440.562 104.153 438.864 103.193 438.125C102.233 437.386 102.307 437.386 102.307 437.386C102.307 437.386 102.307 437.386 102.233 437.386L110.801 342.184H110.727C110.727 342.184 101.642 414.047 98.9095 421.95C96.1767 429.853 91.6714 437.091 90.2681 438.79C88.9386 440.489 90.4897 440.045 91.1544 440.045C91.8191 440.045 99.4265 439.528 99.648 440.784C99.8696 442.04 100.017 445.806 100.977 447.579C101.273 448.096 101.421 448.761 101.421 449.499C102.529 448.982 103.046 448.465 103.193 448.096Z" fill="black"/>
<path opacity="0.1" d="M126.014 445.142C126.752 443.591 127.639 441.449 127.639 440.562C127.639 439.676 130.667 439.824 133.547 439.898C136.428 439.972 128.082 428.893 125.718 420.03C123.355 411.167 112.424 342.11 112.424 342.11L124.241 437.46C124.093 437.387 124.02 437.387 124.02 437.387C124.02 437.387 124.02 437.387 123.133 438.125C122.247 438.864 123.281 440.489 123.281 441.818C123.281 443.148 122.395 446.397 123.133 448.096C123.355 448.613 124.093 449.204 125.571 449.721C125.497 449.573 125.275 446.619 126.014 445.142Z" fill="black"/>
<path opacity="0.1" d="M167.154 317.811C167.154 317.811 169.369 344.621 169.591 351.49C169.812 358.359 172.767 415.968 171.068 424.388C169.369 432.734 166.267 435.467 166.341 436.427C166.415 437.387 166.489 437.609 167.892 437.535C169.295 437.461 173.727 436.427 174.613 437.682C175.426 438.79 174.096 444.33 176.46 446.176C177.715 445.29 178.232 444.625 178.158 444.33C177.789 443.222 177.568 439.012 177.568 436.575C177.568 434.137 175.943 433.99 175.943 433.99C175.869 433.99 175.869 434.063 175.795 434.063C174.835 410.65 171.807 341.815 169 317.072V316.999C169 317.072 167.597 317.737 167.154 317.811Z" fill="black"/>
<path opacity="0.05" d="M214.94 190.48C212.281 188.19 211.099 185.827 207.776 179.18C204.452 172.532 192.044 152.074 185.766 142.103C179.488 132.132 177.42 126.74 174.318 121.275C170.404 114.406 159.916 109.827 152.161 108.719C146.326 107.907 136.872 105.469 132.441 104.288C132.071 104.878 131.702 105.395 131.333 105.912C126.089 113.224 117.521 118.025 107.846 118.025C107.624 118.025 107.329 118.025 107.107 118.025V318.328L111.539 318.919V339.156C111.834 339.156 112.13 339.304 112.13 339.599L124.242 437.313C124.095 437.239 124.021 437.239 124.021 437.239C124.021 437.239 124.021 437.239 123.135 437.978C122.248 438.716 123.282 440.341 123.282 441.671C123.282 443 122.396 446.25 123.135 447.949C123.578 448.909 125.72 450.164 131.702 450.977C131.776 454.3 131.924 457.476 132.293 460.209C133.253 468.26 141.008 515.676 142.929 531.703C141.156 532.294 140.565 534.879 141.23 542.117C141.968 549.355 144.036 548.1 144.627 550.242C144.701 550.907 144.775 551.497 144.849 552.162C144.849 554.009 144.48 556.667 144.184 558.662C142.781 560.73 142.116 563.241 142.412 565.826C142.633 567.598 142.781 569.593 142.929 571.513C143.002 574.467 143.15 577.569 143.224 580.302C143.519 587.023 146.695 595.074 156.74 598.545C163.461 600.835 174.909 599.21 178.897 592.119C181.039 588.279 181.999 583.995 181.556 579.563C181.852 576.24 181.409 572.695 180.079 569.223C178.75 565.53 177.863 562.576 177.346 560.434C176.755 557.997 175.204 555.929 173.136 554.599L171.438 546.327C171.438 546.327 173.949 544.407 173.432 541.748C172.915 539.015 174.023 535.101 171.955 531.113C171.438 530.152 170.921 530.005 170.182 530.226C170.551 509.251 170.551 465.084 170.551 460.948C170.551 458.806 170.551 454.153 170.551 448.909C175.869 446.988 178.233 444.847 178.011 444.256C177.642 443.148 177.42 438.938 177.42 436.501C177.42 434.063 175.795 433.916 175.795 433.916C175.721 433.916 175.721 433.989 175.648 433.989C174.687 410.576 171.659 341.519 168.779 316.925C171.585 315.226 173.358 312.198 173.136 309.317C172.915 306.141 173.136 299.199 173.653 296.54C174.17 293.807 170.921 293.068 170.921 290.41C170.921 287.677 172.915 281.768 172.619 274.678C172.398 267.514 169.517 253.407 168.927 249.566C167.376 239.521 167.08 226.375 167.154 215.148C170.108 216.256 173.358 217.29 177.051 218.546C183.107 220.54 188.573 221.574 193.521 222.017C196.476 223.568 199.651 224.602 202.901 224.824C224.32 226.079 226.019 200.081 214.94 190.48Z" fill="black"/>
</svg>
