<svg width="182" height="579" viewBox="0 0 182 579" fill="none" xmlns="http://www.w3.org/2000/svg">
<path d="M47.7637 107.127C47.7637 107.127 61.4104 90.0684 90.7508 90.0684C120.091 90.0684 132.646 106.854 132.646 106.854L47.7637 107.127Z" fill="#1D2C3B"/>
<path d="M47.7637 109.856C47.7637 109.856 61.4104 92.7979 90.7508 92.7979C120.091 92.7979 132.646 109.583 132.646 109.583L47.7637 109.856Z" fill="#0F1922"/>
<path d="M61.1361 526.899C61.1361 526.899 60.1808 531.266 56.0868 535.633C54.1762 537.68 45.0329 545.185 43.5318 551.736C42.8495 554.602 42.5765 558.696 44.2141 560.743C46.1247 563.336 49.9458 564.973 58.8161 563.608C67.6865 562.244 78.4674 554.192 79.9685 551.326C82.6978 546.277 79.9685 541.091 82.8343 541.091C85.7001 541.091 87.8836 540.682 91.0223 538.635C95.5257 535.496 94.5705 532.358 94.5705 532.358V525.807L61.1361 526.899Z" fill="#0E1720"/>
<path d="M112.037 539.454C112.037 539.454 111.628 544.777 111.355 549.416C111.219 552.692 112.993 555.694 115.858 557.195C118.178 558.423 121.044 559.651 122.818 559.788L126.639 557.059C126.639 557.059 129.778 558.15 132.507 561.426C135.237 564.701 133.872 567.976 147.246 571.524C157.754 574.39 162.53 575.345 167.306 573.98C171.264 572.889 173.447 567.839 172.765 563.745C172.083 559.924 167.034 555.967 161.848 552.555C147.928 543.002 144.789 534.814 144.789 534.814L112.037 539.454Z" fill="#0E1720"/>
<path d="M145.336 114.906C137.694 109.993 124.73 106.991 114.904 104.807C113.403 104.261 111.629 103.306 109.991 101.805C108.081 99.212 106.443 94.1627 106.034 88.1582C109.718 84.883 112.72 81.1984 113.949 78.469C115.723 74.5115 115.04 70.4175 115.859 65.0953C119.817 67.1423 125.003 48.3098 122.956 45.0346C121.045 42.0323 118.452 44.6252 118.043 45.0346V36.4372C118.043 14.8754 106.034 9.28027 91.1587 9.28027C76.2838 9.28027 64.2747 14.8754 64.2747 36.4372V45.0346C64.2747 45.0346 61.4089 41.8959 59.3619 45.0346C57.3149 48.1734 62.5006 67.1423 66.5946 64.9588C67.4134 70.281 66.5946 74.375 68.3687 78.3326C69.5969 81.0619 72.5992 84.7465 76.1473 88.0217C76.2838 88.1582 76.2838 88.1582 76.1473 88.0217C75.7379 94.1627 74.1003 99.3485 72.0533 101.941C70.2793 103.442 68.5052 104.398 67.004 104.944C65.7758 105.217 43.3953 110.812 36.8448 114.906C27.838 120.637 27.9745 157.483 25.791 164.58H156.799C154.206 157.483 154.343 120.637 145.336 114.906Z" fill="#FFDBB0"/>
<path opacity="0.05" d="M145.335 114.906C137.693 109.993 124.729 106.991 114.903 104.807C113.402 104.261 111.628 103.306 109.99 101.805C108.08 99.212 106.442 94.1627 106.033 88.1582C109.717 84.883 112.72 81.1984 113.948 78.469C115.722 74.5115 115.04 70.4175 115.858 65.0953C119.816 67.1423 125.002 48.3098 122.955 45.0346C121.044 42.0323 118.451 44.6252 118.042 45.0346V36.4372C118.042 14.8754 106.033 9.28027 91.1579 9.28027V94.8451C89.2473 94.8451 87.0638 94.8451 85.0168 94.0263C81.8781 92.7981 78.7394 90.6146 76.1465 88.1582L121.863 133.875H156.798C154.206 126.642 154.342 120.637 145.335 114.906Z" fill="black"/>
<path d="M86.2443 47.3543C85.289 48.1731 83.9244 47.7637 81.7409 46.9449C76.6916 45.0343 76.9646 43.6697 71.9153 44.7614C69.8683 45.1708 68.7765 47.3543 68.7765 47.3543C68.7765 47.3543 68.3671 45.0343 70.5506 43.5332C73.6894 41.3497 82.4232 42.8509 85.0161 44.0791C87.0631 45.1708 86.7902 46.9449 86.2443 47.3543Z" fill="#84716A"/>
<path d="M72.3281 50.6285C72.3281 50.6285 74.2387 53.4943 78.1962 53.4943C82.1537 53.4943 83.6549 50.6285 83.6549 50.6285C83.6549 50.6285 80.7891 48.3086 77.6503 48.3086C74.3751 48.3086 72.3281 50.6285 72.3281 50.6285Z" fill="white"/>
<path d="M75.874 48.5815C75.4646 48.9909 75.3281 49.6733 75.3281 50.2191C75.3281 51.7203 76.5563 52.9485 78.0575 52.9485C79.5586 52.9485 80.7868 51.7203 80.7868 50.2191C80.7868 49.6733 80.6503 49.2639 80.3774 48.8545C79.5586 48.5815 78.6033 48.3086 77.6481 48.3086C76.9657 48.3086 76.4199 48.4451 75.874 48.5815Z" fill="#A67C52"/>
<path d="M77.9213 51.7201C78.675 51.7201 79.286 51.1091 79.286 50.3554C79.286 49.6017 78.675 48.9907 77.9213 48.9907C77.1676 48.9907 76.5566 49.6017 76.5566 50.3554C76.5566 51.1091 77.1676 51.7201 77.9213 51.7201Z" fill="#534741"/>
<path d="M71.5078 50.7645C72.1901 49.6727 73.2819 48.9904 74.3736 48.4445C75.4654 48.0351 76.6936 47.7622 77.9218 47.7622C79.15 47.7622 80.3782 48.0351 81.4699 48.4445C82.5616 48.9904 83.5169 49.6727 84.1992 50.7645C84.3357 50.9009 84.3357 51.1739 84.1992 51.3103C84.0628 51.4468 83.9263 51.5833 83.7898 51.5833C83.5169 51.7198 83.1075 51.7198 82.971 51.5833C82.6981 51.5833 82.5616 51.7197 82.2887 51.8562C82.0158 51.9927 81.8793 52.1292 81.6064 52.2656C81.7428 52.1292 82.0158 51.8562 82.2887 51.7197C82.5616 51.5833 82.6981 51.3103 82.971 51.3103C83.244 51.4468 83.5169 51.4468 83.6534 51.3103C83.9263 51.1739 83.9263 51.0374 83.7898 50.9009C83.1075 49.9457 82.1522 49.3998 81.0605 48.9904C79.9688 48.581 78.877 48.4445 77.7853 48.4445C76.6936 48.4445 75.6018 48.7175 74.5101 49.1269C73.5548 49.5363 72.4631 50.2186 71.9172 51.0374C71.7807 51.1739 71.6443 51.1739 71.5078 51.0374C71.5078 51.1739 71.5078 51.0374 71.5078 50.7645Z" fill="#826F67"/>
<path d="M76.5561 51.7201C77.3098 51.7201 77.9207 51.1091 77.9207 50.3554C77.9207 49.6017 77.3098 48.9907 76.5561 48.9907C75.8024 48.9907 75.1914 49.6017 75.1914 50.3554C75.1914 51.1091 75.8024 51.7201 76.5561 51.7201Z" fill="white"/>
<path d="M95.936 47.3533C96.8913 48.1721 98.2559 47.7627 100.439 46.9439C105.489 45.0334 105.216 43.6687 110.265 44.7604C112.312 45.1698 113.404 47.3533 113.404 47.3533C113.404 47.3533 113.813 45.0334 111.63 43.5322C108.491 41.3488 99.7571 42.8499 97.1642 44.0781C95.1172 45.1698 95.3901 46.9439 95.936 47.3533Z" fill="#84716A"/>
<path d="M109.991 50.6285C109.991 50.6285 108.08 53.4943 104.123 53.4943C100.165 53.4943 98.6641 50.6285 98.6641 50.6285C98.6641 50.6285 101.53 48.3086 104.669 48.3086C107.807 48.3086 109.991 50.6285 109.991 50.6285Z" fill="white"/>
<path d="M106.444 48.5815C106.853 48.9909 106.99 49.6733 106.99 50.2191C106.99 51.7203 105.762 52.9485 104.261 52.9485C102.759 52.9485 101.531 51.7203 101.531 50.2191C101.531 49.6733 101.668 49.2639 101.941 48.8545C102.759 48.5815 103.715 48.3086 104.67 48.3086C105.216 48.3086 105.898 48.4451 106.444 48.5815Z" fill="#A67C52"/>
<path d="M104.261 51.7201C105.015 51.7201 105.626 51.1091 105.626 50.3554C105.626 49.6017 105.015 48.9907 104.261 48.9907C103.507 48.9907 102.896 49.6017 102.896 50.3554C102.896 51.1091 103.507 51.7201 104.261 51.7201Z" fill="#534741"/>
<path d="M110.129 51.1746C109.446 50.3558 108.491 49.6735 107.536 49.2641C106.58 48.8547 105.352 48.5817 104.26 48.5817C103.169 48.5817 102.077 48.7182 100.985 49.1276C99.8935 49.537 98.9382 50.2194 98.2559 51.0382C98.1194 51.1746 98.2559 51.3111 98.3924 51.4476C98.6653 51.584 98.8018 51.584 99.0747 51.4476C99.4841 51.4476 99.6206 51.7205 99.757 51.857C100.03 51.9934 100.166 52.2664 100.439 52.4028C100.166 52.2664 100.03 52.1299 99.757 51.9934C99.4841 51.857 99.3476 51.584 99.0747 51.7205C98.9382 51.857 98.5288 51.857 98.2559 51.7205C98.1194 51.584 97.983 51.584 97.8465 51.4476C97.71 51.3111 97.71 51.0382 97.8465 50.9017C98.5288 49.81 99.4841 49.1276 100.576 48.5817C101.668 48.0359 102.896 47.8994 104.124 47.8994C105.352 47.8994 106.58 48.1723 107.672 48.5817C108.764 49.1276 109.856 49.81 110.538 50.9017C110.674 51.0382 110.538 51.3111 110.401 51.3111C110.401 51.4476 110.265 51.3111 110.129 51.1746Z" fill="#826F67"/>
<path d="M102.896 51.7201C103.65 51.7201 104.261 51.1091 104.261 50.3554C104.261 49.6017 103.65 48.9907 102.896 48.9907C102.142 48.9907 101.531 49.6017 101.531 50.3554C101.531 51.1091 102.142 51.7201 102.896 51.7201Z" fill="white"/>
<path opacity="0.08" d="M94.979 67.9604C93.3414 69.598 91.0215 69.1886 91.0215 69.1886C91.0215 69.1886 88.7015 69.598 87.0639 67.9604C85.4263 66.3228 84.3346 68.9156 85.8357 69.7344C87.2004 70.5532 88.2921 69.4615 88.838 70.1438C89.3839 70.8262 89.3839 70.8262 91.0215 70.8262C92.6591 70.8262 92.6591 70.6897 93.2049 70.1438C93.7508 69.4615 94.8425 70.5532 96.2072 69.7344C97.5719 68.9156 96.6166 66.3228 94.979 67.9604Z" fill="black"/>
<g opacity="0.1">
<path opacity="0.1" d="M92.7975 74.2387C92.1151 74.1022 91.4328 74.6481 91.0234 74.6481C90.4775 74.6481 89.6587 74.1022 88.9764 74.2387C88.2941 74.3752 81.4707 75.7398 81.4707 75.7398C81.4707 75.7398 83.7906 77.7868 84.0636 78.0598C84.3365 78.3327 84.6094 79.4244 85.4282 80.5162C86.7929 82.4267 89.5223 81.8808 91.0234 81.8808C92.5245 81.8808 95.3903 82.4267 96.755 80.5162C97.5738 79.4244 97.5738 78.3327 97.8467 78.0598C98.1197 77.7868 100.713 75.7398 100.713 75.7398C100.713 75.7398 93.4798 74.3752 92.7975 74.2387Z" fill="black"/>
<path opacity="0.1" d="M99.0749 76.968C99.7573 76.2857 100.576 75.7398 100.576 75.7398C100.576 75.7398 93.6163 74.3752 92.7975 74.2387C92.1151 74.1022 91.4328 74.6481 91.0234 74.6481C90.4775 74.6481 89.6587 74.1022 88.9764 74.2387C88.2941 74.3752 81.4707 75.7398 81.4707 75.7398C81.4707 75.7398 82.0166 76.2857 82.6989 76.8316C83.5177 77.6504 84.7459 78.0598 85.8376 77.9233C87.3388 77.7868 89.3858 77.6504 90.8869 77.6504C92.5245 77.6504 94.5715 77.7868 95.9362 77.9233C97.0279 78.0598 98.1197 77.6504 99.0749 76.968Z" fill="black"/>
</g>
<path d="M62.2283 43.8062C62.2283 43.8062 58.9531 18.4233 73.4186 14.1929L70.5528 22.9268C69.734 25.3832 69.1882 27.8396 69.0517 30.296L68.5058 35.3453C68.5058 35.3453 65.5035 43.1239 65.9129 48.8555C66.3224 54.5871 62.0919 48.3096 62.2283 43.8062Z" fill="#84716A"/>
<path d="M119.679 43.8062C119.679 43.8062 122.954 18.4233 108.488 14.1929L111.354 22.9268C112.173 25.3832 112.719 27.8396 112.855 30.296L113.401 35.3453C113.401 35.3453 116.403 43.1239 115.994 48.8555C115.585 54.5871 119.815 48.3096 119.679 43.8062Z" fill="#84716A"/>
<path opacity="0.2" d="M62.2283 43.8062C62.2283 43.8062 58.9531 18.4233 73.4186 14.1929L70.5528 22.9268C69.734 25.3832 69.1882 27.8396 69.0517 30.296L68.5058 35.3453C68.5058 35.3453 65.5035 43.1239 65.9129 48.8555C66.3224 54.5871 62.0919 48.3096 62.2283 43.8062Z" fill="white"/>
<path opacity="0.2" d="M119.679 43.8062C119.679 43.8062 122.954 18.4233 108.488 14.1929L111.354 22.9268C112.173 25.3832 112.719 27.8396 112.855 30.296L113.401 35.3453C113.401 35.3453 116.403 43.1239 115.994 48.8555C115.585 54.5871 119.815 48.3096 119.679 43.8062Z" fill="white"/>
<path d="M90.8891 4.77637C70.5555 4.91283 65.7792 21.8347 68.645 25.9287C70.0097 27.9758 75.6048 26.7475 80.7906 27.8393C85.9763 28.7946 90.8891 32.0698 90.8891 32.0698C90.8891 32.0698 95.8019 28.931 100.988 27.8393C106.173 26.884 111.769 27.9758 113.133 25.9287C115.999 21.8347 111.223 4.91283 90.8891 4.77637Z" fill="#84716A"/>
<path d="M85.4275 6.68688C85.4275 6.68688 82.4252 0 90.8861 0C98.8012 0 96.4813 5.18575 96.4813 5.18575C96.4813 5.18575 99.3471 2.18347 104.533 1.91054C109.719 1.6376 111.902 3.68461 111.902 3.68461C111.902 3.68461 108.217 3.68461 106.716 5.18575C106.716 5.18575 112.448 4.77634 115.177 7.77862C117.907 10.7809 117.634 13.3738 117.634 13.3738C117.634 13.3738 110.401 6.41395 101.258 11.5997C92.1143 16.7854 85.4275 6.68688 85.4275 6.68688Z" fill="#84716A"/>
<path opacity="0.1" d="M85.428 5.32227C71.7813 14.875 78.1953 27.4299 78.1953 27.4299C79.1506 27.5664 79.9694 27.5664 80.9246 27.8393C81.8799 27.9758 82.8352 28.2487 83.7904 28.6581C77.7859 17.7408 85.428 5.32227 85.428 5.32227Z" fill="white"/>
<path opacity="0.1" d="M96.7559 5.32227C110.403 14.875 103.989 27.4299 103.989 27.4299C103.033 27.5664 102.215 27.5664 101.259 27.8393C100.304 27.9758 99.3487 28.2487 98.3935 28.6581C104.398 17.7408 96.7559 5.32227 96.7559 5.32227Z" fill="white"/>
<path opacity="0.1" d="M88.975 30.8418C82.8339 21.835 88.2926 5.18604 88.2926 5.18604C79.8317 18.2869 85.5633 29.2042 85.5633 29.2042C86.7915 29.7501 88.0197 30.4324 88.975 30.8418Z" fill="white"/>
<path d="M143.699 513.389C141.379 502.062 147.793 457.164 147.384 442.153C146.974 427.141 144.655 410.356 144.245 402.987C143.836 395.754 146.429 354.268 146.292 338.847C146.156 323.426 148.885 274.298 148.885 274.298H37.1185C37.1185 274.298 36.1633 311.827 41.7584 350.72C47.3536 389.613 49.1276 390.295 49.4006 404.624C49.81 424.412 45.3066 432.6 54.4498 473.95C56.0874 481.728 60.1815 493.328 59.9085 498.104C59.6356 502.881 56.9063 502.471 58.2709 507.93C59.6356 513.389 61.2732 513.389 60.3179 515.436C59.3627 517.483 58.6803 517.073 58.9533 520.212C59.2262 523.351 61.2732 526.762 61.2732 526.762C61.2732 526.762 66.7319 529.765 79.6962 529.082C92.6606 528.4 94.4347 525.534 94.4347 525.534C94.4347 525.534 97.4369 520.485 95.5264 517.073C93.6159 513.661 93.4794 513.661 93.4794 513.661C92.9335 510.659 94.9805 507.52 94.5711 503.017C94.2982 500.561 91.4324 497.968 91.1595 493.737C90.0677 479.408 91.4324 470.538 92.2512 457.983C94.2982 421.956 89.7948 414.177 88.976 402.714C88.2937 392.342 88.4301 384.7 88.8395 376.512C90.2042 350.583 91.2959 314.147 91.2959 314.147C91.2959 314.147 102.077 380.47 103.169 387.839C106.171 409.264 103.169 433.282 104.533 449.658C105.898 466.034 113.404 504.655 112.994 517.483C112.721 523.487 109.719 522.532 110.401 527.308C111.084 532.084 112.448 532.084 111.493 534.404C110.538 536.724 112.585 539.317 112.585 539.317C112.585 539.317 135.102 548.87 144.245 540.955C149.977 535.906 149.431 531.129 146.974 527.308C145.2 525.398 143.699 513.389 143.699 513.389Z" fill="#17232F"/>
<path d="M157.208 135.784H156.799C156.799 135.784 157.481 128.278 151.204 119.408C144.517 109.992 118.861 105.215 113.812 103.578L91.0217 149.158L68.0952 103.441H67.5494C63.3189 104.943 36.7078 109.719 29.8845 119.272C23.607 128.142 24.2893 135.648 24.2893 135.648C24.2893 135.648 42.7124 148.203 44.077 183.138C45.4417 218.074 39.5736 285.079 39.5736 285.079C39.5736 285.079 53.4933 295.314 90.4758 295.314C127.049 295.314 141.924 285.079 141.924 285.079C141.924 285.079 136.056 218.21 137.42 183.138C138.785 148.066 157.208 135.784 157.208 135.784Z" fill="#4E5A66"/>
<path d="M57.7244 104.67C57.7244 104.67 56.6327 122.82 62.5008 176.588C66.4583 212.615 62.9102 348.536 63.456 361.774C63.8654 375.011 61.9549 388.521 57.9974 381.834C51.4469 370.508 31.6592 355.769 31.1134 346.08C26.4735 254.784 36.9814 227.627 36.9814 205.792C36.9814 183.957 40.8025 157.073 25.3818 141.652C9.96098 126.232 33.1604 112.449 41.3484 109.31C49.5364 105.898 57.7244 104.67 57.7244 104.67Z" fill="#1B2A38"/>
<path d="M123.091 104.67C123.091 104.67 124.046 148.885 120.362 179.727C114.903 225.17 124.183 365.458 127.049 378.286C129.096 387.566 135.51 370.781 142.333 364.64C148.065 359.454 153.796 358.226 154.888 348.673C156.389 336.118 155.707 307.596 153.25 281.122C150.112 249.052 144.789 218.756 144.789 206.747C144.789 184.913 140.013 156.937 155.434 141.516C170.855 126.095 147.655 112.312 139.467 109.173C131.279 105.898 123.091 104.67 123.091 104.67Z" fill="#1B2A38"/>
<path d="M56.768 231.312C56.768 231.312 64.956 235.406 66.8665 235.543C68.7771 235.679 71.7793 232.813 73.8263 232.267C75.8733 231.721 80.3768 231.039 83.2426 229.674C86.1084 228.31 89.52 225.307 90.6118 225.444C91.7035 225.58 93.0682 226.263 92.9317 227.9C92.7953 229.538 92.6588 232.54 89.3836 235.27C86.2448 237.999 80.9226 238.408 80.1038 240.182C79.285 241.956 79.0121 244.413 79.8309 247.415C80.6497 250.417 83.1061 253.147 85.0166 255.603C86.9272 258.06 93.0682 265.292 93.4776 267.203C93.887 269.113 93.7505 270.342 92.7952 271.433C91.84 272.525 90.3388 271.979 90.3388 271.979C90.3388 271.979 92.6588 274.163 93.0682 276.346C93.4776 278.53 93.2046 279.485 92.1129 280.167C91.0212 280.85 89.6565 280.713 89.6565 280.713C89.6565 280.713 88.9742 281.668 87.746 281.259C86.5178 280.986 84.1978 278.939 82.8332 278.12C81.4685 277.301 76.8286 274.026 76.8286 274.026C76.8286 274.026 75.6004 274.299 72.4617 273.344C69.3229 272.389 67.2759 271.297 65.7748 269.659C65.0925 268.977 63.0455 266.521 60.7255 262.563C57.5868 257.377 48.1706 256.013 48.1706 256.013C48.1706 256.013 46.9423 248.097 49.2623 240.728C51.8552 233.632 56.768 231.312 56.768 231.312Z" fill="#FFDBB0"/>
<path d="M94.5707 227.081C93.3425 227.081 92.6602 228.855 93.0696 231.312C93.479 233.768 94.9801 235.406 99.62 236.907C104.26 238.408 104.26 237.316 106.716 239.363C109.173 241.274 108.763 246.596 107.126 249.189C105.488 251.645 102.759 256.285 101.394 258.196C99.8929 259.97 96.3448 264.473 94.9801 265.974C93.6155 267.475 90.8861 271.706 92.3873 273.343C93.8884 274.981 94.5707 274.708 94.5707 274.708C94.5707 274.708 92.1143 277.301 93.0696 279.348C94.0249 281.395 95.6625 280.986 95.6625 280.986C95.6625 280.986 95.9354 282.077 97.9824 281.941C99.8929 281.668 105.897 278.12 105.897 278.12C105.897 278.12 108.217 278.529 110.264 277.028C112.448 275.39 120.227 267.475 122.137 264.746C123.911 262.017 125.685 259.014 126.913 257.786C128.142 256.694 136.193 253.146 136.193 253.146C136.193 253.146 138.377 246.869 136.739 241.001C135.101 235.133 128.278 231.448 128.278 231.448C128.278 231.448 122.546 234.996 119.544 235.269C116.542 235.542 113.949 233.222 109.855 231.994C105.761 230.766 100.166 230.629 98.3918 229.401C96.6177 228.173 95.7989 227.218 94.5707 227.081Z" fill="#FFDBB0"/>
<path d="M69.1884 267.885C68.779 268.431 71.7812 269.932 73.2824 270.887C74.7835 271.979 77.1035 273.889 77.1035 273.889C77.1035 273.889 73.2824 270.068 71.9177 269.113C70.826 268.294 69.7342 267.066 69.1884 267.885Z" fill="#DBBC9A"/>
<path d="M69.8686 262.289C69.4592 263.245 74.645 266.11 76.8284 268.294C76.8284 268.294 73.0073 263.927 72.0521 263.108C71.0968 262.289 70.278 261.471 69.8686 262.289Z" fill="#DBBC9A"/>
<path d="M79.2852 271.706C79.2852 271.706 87.3367 280.44 89.9296 280.713L79.2852 271.706Z" fill="#DBBC9A"/>
<path d="M91.8382 272.115C91.8382 272.115 89.1089 269.522 87.6078 268.021C86.1066 266.384 80.375 262.017 80.375 262.017C80.375 262.017 82.6949 264.609 84.1961 266.111C85.6972 267.612 90.883 272.252 90.883 272.252C90.883 272.252 91.2924 272.388 91.5653 272.388C91.7018 272.115 91.8382 272.115 91.8382 272.115Z" fill="#DBBC9A"/>
<path d="M72.871 254.92C72.3252 256.012 78.3297 260.106 78.3297 260.106C78.3297 260.106 73.6898 253.146 72.871 254.92Z" fill="#DBBC9A"/>
<path d="M114.082 256.148C115.31 257.24 111.626 259.15 109.169 261.334C106.713 263.517 105.621 264.2 105.621 264.2C105.621 264.2 113.127 255.329 114.082 256.148Z" fill="#DBBC9A"/>
<path d="M94.5684 274.572C94.5684 274.572 96.3424 272.661 98.6624 270.887C100.982 269.249 104.258 265.974 104.258 265.974C104.258 265.974 101.665 269.795 99.8906 271.16C98.1165 272.525 94.5684 274.572 94.5684 274.572Z" fill="#DBBC9A"/>
<path d="M95.6621 280.849C95.6621 280.849 102.622 276.209 104.123 274.981C105.761 273.753 109.582 269.659 109.582 269.659C109.582 269.659 105.215 275.254 103.714 276.618C102.076 277.983 96.7538 281.804 96.7538 281.804C96.7538 281.804 96.4809 281.804 96.0715 281.531C95.7986 281.122 95.6621 280.849 95.6621 280.849Z" fill="#DBBC9A"/>
<path d="M112.039 267.202C112.039 267.202 117.498 260.515 118.453 261.334C119.408 262.153 112.039 267.202 112.039 267.202Z" fill="#DBBC9A"/>
<path d="M105.898 277.847C105.898 277.847 108.901 276.345 110.129 275.117L107.809 277.847C107.809 277.847 107.4 277.983 106.854 277.983C106.308 277.847 105.898 277.847 105.898 277.847Z" fill="#DBBC9A"/>
<path d="M113.131 271.842C113.131 271.842 118.044 267.066 118.18 268.021C118.18 268.84 113.131 271.842 113.131 271.842Z" fill="#DBBC9A"/>
<path d="M29.4758 115.997C29.4758 115.997 21.0149 120.364 15.9656 140.151C9.27872 166.353 -2.32098 210.159 0.408362 217.528C3.1377 224.761 6.00351 228.991 11.0528 234.859C16.9209 241.683 27.1559 249.461 32.6146 252.054C40.5297 255.875 58.2704 266.11 60.5903 264.336C60.5903 264.336 57.0422 252.191 60.5903 243.73C64.1384 235.269 70.143 235.678 68.9148 234.586C67.823 233.495 60.5903 231.038 56.4963 228.582C46.5342 222.577 40.5297 212.342 38.2097 210.841C35.8898 209.204 41.3484 196.649 41.7579 181.91C42.0308 167.035 44.4872 137.695 29.4758 115.997Z" fill="#1B2A38"/>
<path d="M156.252 121.046C156.252 121.046 160.756 126.368 167.17 144.655C173.72 163.078 182.045 204.837 181.089 212.615C180.407 218.893 176.722 225.716 171.673 231.448C166.624 237.316 158.845 245.367 147.655 252.054C140.149 256.558 126.23 263.654 123.91 261.88C123.91 261.88 129.505 255.056 123.91 241.273C121.863 236.36 117.905 234.996 116.813 234.723C115.312 234.45 121.999 230.492 125.957 227.627C132.916 222.441 141.787 210.978 144.107 209.34C146.427 207.702 138.921 196.512 138.512 181.774C138.512 167.035 141.377 142.744 156.252 121.046Z" fill="#1B2A38"/>
<path d="M66.8671 94.4351C66.8671 94.4351 52.5381 97.1644 46.8064 101.668C41.0748 106.171 41.3478 109.037 41.3478 109.037C41.3478 109.037 46.8064 111.357 50.9005 115.724C54.9945 120.091 57.4509 123.503 58.1332 125.959C58.1332 125.959 57.7238 106.444 60.5896 101.395C64.5471 94.8445 66.8671 94.4351 66.8671 94.4351Z" fill="#1D2C3B"/>
<path d="M114.357 94.4351C114.357 94.4351 128.686 97.1644 134.418 101.668C140.15 106.171 139.877 109.037 139.877 109.037C139.877 109.037 134.418 111.357 130.324 115.724C126.23 120.091 123.774 123.503 123.091 125.959C123.091 125.959 123.501 106.444 120.635 101.395C116.677 94.8445 114.357 94.4351 114.357 94.4351Z" fill="#1D2C3B"/>
<path d="M115.724 65.0947C113.54 71.0993 107.672 76.8309 104.943 75.7392C102.213 74.6474 97.5735 71.3722 95.1171 70.9628C92.6607 70.5534 91.296 72.4639 91.296 72.4639H90.6137C90.6137 72.4639 89.3855 70.5534 86.7926 70.9628C84.1997 71.3722 79.6963 74.7839 76.967 75.7392C74.2377 76.6944 68.3696 71.0993 66.1861 65.0947C66.1861 65.0947 62.638 82.5625 76.967 90.4776C76.967 90.4776 83.6539 96.6186 90.8866 96.6186C98.2559 96.6186 104.806 90.4776 104.806 90.4776C119.272 82.5625 115.724 65.0947 115.724 65.0947ZM98.3923 84.3366C97.0276 85.8377 92.9336 86.2471 92.7972 83.1084H91.0231H89.249C89.1126 86.1106 85.0185 85.8377 83.6539 84.3366C82.2892 82.8354 79.6963 79.9696 82.0163 79.0144C84.0633 78.1956 90.4772 75.0568 91.1596 74.7839C91.8419 75.0568 98.1194 78.1956 100.303 79.0144C102.213 79.8332 99.757 82.699 98.3923 84.3366Z" fill="#84716A"/>
<path d="M61.4102 105.215L91.0235 164.169L120.5 105.352C117.498 104.533 115.042 103.987 113.813 103.578L91.0235 149.158L68.097 103.441H67.5512C66.5959 103.851 64.276 104.397 61.4102 105.215Z" fill="#343D46"/>
<path d="M64.4111 232.267C64.4111 232.267 48.1716 221.896 42.3035 215.345C36.5719 208.795 32.4779 210.16 28.3839 211.524C24.2898 212.889 24.2898 215.618 20.1958 215.618C16.1018 215.618 12.0078 214.254 12.0078 214.254C12.0078 214.254 16.1018 210.16 21.5605 208.795C27.0192 207.43 29.7485 208.795 31.1132 207.43C32.4779 206.066 29.7485 203.336 27.0192 201.972C24.2898 200.607 20.1958 201.972 17.4665 199.242C14.7372 196.513 14.7372 193.784 14.7372 193.784C14.7372 193.784 24.2898 193.784 25.6545 195.148C27.0192 196.513 30.0215 200.88 32.2049 199.925C34.5249 198.969 36.7083 176.179 35.6166 172.085C34.5249 167.991 28.5203 160.486 28.7932 155.027C29.0662 149.568 30.8403 149.022 30.8403 149.022C30.8403 149.022 30.9767 153.799 33.4331 158.166C33.4331 158.166 35.3437 150.933 34.3884 145.474C33.4331 140.016 32.6143 140.152 34.3884 136.74C36.1625 133.329 37.1177 133.465 37.1177 133.465C37.1177 133.465 38.8918 142.199 38.6189 149.022C38.3459 155.846 38.6189 160.758 37.9365 167.855C37.2542 174.951 34.2519 196.649 35.2072 199.106C36.1625 201.562 38.8918 204.291 36.8448 205.383C34.7978 206.475 40.2565 206.748 44.0776 213.571C47.8986 220.395 64.4111 232.267 64.4111 232.267Z" fill="#13212E"/>
<path d="M34.5254 252.874C34.5254 252.874 57.9977 266.521 60.5906 264.201C61.4094 263.382 61.1365 262.563 61.1365 262.563L64.2752 267.34L64.4117 274.436C64.4117 274.436 51.5838 264.064 48.1721 262.427C44.7604 260.789 34.5254 252.874 34.5254 252.874Z" fill="#13212E"/>
<path d="M118.586 232.813C118.586 232.813 126.501 228.446 133.188 221.213C139.875 213.844 142.468 209.341 146.562 208.522C150.656 207.703 154.477 208.385 157.206 209.614C159.935 210.842 162.801 208.249 162.801 208.249C162.801 208.249 158.98 204.428 157.206 203.473C155.432 202.517 151.474 205.929 149.018 203.473C146.562 201.016 150.929 196.922 154.75 196.376C158.571 195.83 161.573 194.466 162.801 191.054C164.029 187.642 164.166 186.824 164.166 186.824C164.166 186.824 157.206 186.278 154.75 188.461C152.293 190.645 150.383 197.332 147.79 195.83C145.197 194.329 143.696 170.993 144.242 166.354C144.788 161.714 149.018 156.801 148.745 154.208C148.472 151.479 146.562 148.067 146.562 148.067C146.562 148.067 145.333 150.933 143.969 153.253C142.604 155.573 142.468 156.937 142.468 156.937C142.468 156.937 141.922 149.432 142.058 144.109C142.195 138.787 143.286 136.058 141.239 134.147C139.192 132.237 138.101 131.145 138.101 131.145C138.101 131.145 139.602 135.239 139.465 144.246C139.329 153.253 140.148 158.302 140.694 162.123C141.239 165.944 142.058 169.902 142.195 173.177C142.331 176.452 144.924 191.054 144.378 194.466C143.832 197.877 142.877 197.059 143.15 200.197C143.423 203.336 145.197 204.291 144.378 205.656C143.559 207.021 140.557 208.522 137.828 212.616C135.098 216.71 129.094 224.352 118.586 232.813Z" fill="#13212E"/>
<path d="M119.818 276.482L119.545 267.611L124.185 261.743C124.185 261.743 124.867 262.835 126.778 262.426C128.688 262.016 149.704 250.689 149.704 250.689C149.704 250.689 129.78 265.564 125.549 269.385C121.319 273.343 119.818 276.482 119.818 276.482Z" fill="#13212E"/>
<path d="M94.1626 529.219C94.1626 529.219 92.6615 532.63 88.9769 534.95C85.2923 537.27 81.6077 538.089 81.0618 542.183C80.5159 546.277 81.0618 548.734 79.0148 551.872C74.9208 558.013 57.9989 562.653 51.4485 562.244C44.8981 561.834 42.7146 558.423 42.7146 558.423L42.5781 563.063C42.5781 563.745 42.8511 564.427 43.5334 564.7C45.0345 565.655 48.1733 567.293 53.359 567.157C65.914 566.884 73.8291 561.288 77.5137 558.013C84.4735 551.736 81.8806 541.91 83.6547 541.228C85.4288 540.546 87.8852 541.091 91.5698 538.908C94.4356 537.27 94.572 535.496 94.572 535.496L94.1626 529.219Z" fill="#A6ACBA"/>
<path d="M111.626 546.687C111.08 546.141 114.765 550.645 121.724 552.828C128.548 555.148 130.595 556.786 132.778 559.515C134.962 562.244 133.324 568.249 149.291 571.661C163.21 574.663 168.26 572.07 170.307 571.115C172.49 570.023 173.172 567.294 173.172 565.247V572.752C173.172 573.298 173.036 573.98 172.627 574.39C171.671 575.482 169.488 577.392 165.53 577.938C159.799 578.757 145.47 578.075 137.282 571.388C131.141 566.338 132.778 562.244 130.049 559.651C127.592 557.468 126.774 557.468 126.774 557.468L123.089 560.607C123.089 560.607 113.536 558.15 112.035 554.739C110.671 551.6 111.626 546.687 111.626 546.687Z" fill="#A6ACBA"/>
<path d="M90.8854 314.283C90.8854 314.283 86.109 304.731 86.109 322.471C86.109 340.212 84.7443 382.107 82.9703 393.025C81.1962 403.942 79.2857 408.991 79.8315 416.633C80.2409 424.412 82.1515 421.683 83.9255 436.148C85.6996 450.75 85.2902 464.397 85.2902 473.95C85.2902 483.502 86.6549 490.326 85.6996 496.194C84.7443 502.062 84.3349 505.201 81.6056 507.248C81.6056 507.248 83.3797 508.339 90.0666 504.245C92.1136 503.017 90.8854 509.704 89.7936 511.751C88.7019 513.798 82.6973 514.207 79.1492 517.346C75.6011 520.485 75.3281 524.033 75.3281 524.033C75.3281 524.033 80.5139 524.169 85.0173 522.395C89.5207 520.621 91.7042 520.758 91.5677 522.395C91.4312 523.624 89.9301 526.216 88.7019 528.127C93.3418 527.035 94.1606 525.807 94.1606 525.807C94.1606 525.807 97.1628 520.758 95.2523 517.346C93.3418 513.934 93.2053 513.934 93.2053 513.934C92.6594 510.932 94.7064 507.793 94.297 503.29C94.0241 500.834 91.1583 498.241 90.8854 494.01C89.7936 479.681 91.1583 470.811 91.9771 458.256C94.0241 422.229 89.5207 414.45 88.7019 402.987C88.0195 392.615 88.156 384.973 88.5654 376.785C89.7936 350.72 90.8854 314.283 90.8854 314.283Z" fill="#0F1923"/>
<path d="M60.4518 505.61C60.3154 502.335 59.906 497.149 59.906 497.149H59.7695C59.7695 497.559 59.7695 497.832 59.7695 498.105C59.4966 502.881 56.7672 502.472 58.1319 507.93C59.4966 513.389 61.1342 513.389 60.1789 515.436C59.2236 517.483 58.5413 517.074 58.8142 520.212C59.0872 523.351 61.1342 526.763 61.1342 526.763C61.1342 526.763 61.1342 526.763 61.2706 526.763C61.2706 526.763 60.5883 524.716 63.1812 523.76C65.5011 522.805 67.5481 522.532 67.5481 522.532C64.2729 521.441 62.2259 518.165 62.3624 516.528C62.4989 514.89 63.8635 512.707 65.0917 512.297C68.2305 511.069 69.4587 508.203 69.4587 508.203C66.3199 509.022 60.5883 508.886 60.4518 505.61Z" fill="#0F1922"/>
<path d="M124.186 534.678C118.454 534.678 113.951 533.04 113.951 533.04C113.951 533.04 113.951 528.673 118.318 528.673C122.685 528.673 126.506 527.309 126.506 527.309C126.506 527.309 125.141 524.579 120.774 524.306C116.407 524.033 114.633 520.212 115.589 514.754C116.544 509.295 114.497 478.18 114.224 464.534C113.951 450.887 117.226 432.464 116.953 427.688C116.68 422.911 109.038 418.817 108.492 406.535C107.946 394.253 96.8926 351.266 96.8926 351.266V351.676C99.6219 368.188 102.215 384.837 102.761 388.249C105.763 409.674 102.761 433.692 104.125 450.068C105.49 466.444 112.996 505.064 112.586 517.892C112.313 523.897 109.311 522.942 109.993 527.718C110.676 532.085 111.904 532.494 111.222 534.405C112.859 535.906 114.633 537.134 116.544 537.68C123.367 539.318 133.193 538.362 133.193 538.362C133.193 538.362 130.054 534.678 124.186 534.678Z" fill="#0F1922"/>
<path d="M143.834 515.026C143.97 517.209 143.834 519.393 143.015 520.621C140.968 523.76 138.238 524.715 136.191 524.715C136.191 524.715 138.238 527.854 142.332 527.717C146.426 527.444 145.744 531.402 143.288 533.176C140.831 534.95 139.467 535.496 139.467 535.496C139.467 535.496 144.379 536.451 147.928 535.087C148.61 532.357 147.791 529.764 146.426 527.581C145.471 525.807 144.379 518.301 143.834 515.026Z" fill="#0F1922"/>
<path d="M143.289 510.113C143.289 509.841 143.289 509.431 143.289 509.158C143.152 508.885 143.016 508.612 143.016 508.612C143.016 508.612 143.152 509.158 143.289 510.113Z" fill="#111111"/>
<path opacity="0.1" fill-rule="evenodd" clip-rule="evenodd" d="M100.284 575C145.574 575 174.567 568.807 173.992 552.293C173.646 542.385 138.645 531.054 93.9494 532.063C41.0193 533.258 26 538.309 26 551.951C26 565.593 55.4518 575 100.284 575Z" fill="black"/>
</svg>
