<svg width="149" height="507" viewBox="0 0 149 507" fill="none" xmlns="http://www.w3.org/2000/svg">
<path opacity="0.1" fill-rule="evenodd" clip-rule="evenodd" d="M85.1183 506.371C121.661 506.617 148.477 504.526 148.17 489.151C147.874 474.375 125.258 468.24 86.041 468.24C37.7244 468.24 25.7578 471.915 25.7578 486.691C25.7578 501.466 39.2908 506.064 85.1183 506.371Z" fill="black"/>
<path d="M129.348 112.755C127.38 106.42 127.441 101.131 119.444 96.0875C112.678 91.7823 98.4067 90.4908 90.4714 88.7072C89.2412 88.2152 87.8264 87.4771 86.4731 86.2471C84.8737 84.2175 83.5819 80.0353 83.2128 75.1766C86.1655 72.5935 88.5645 69.5799 89.6103 67.3043C91.0251 64.1676 90.4714 60.8465 91.0866 56.4798C94.2853 58.0789 98.4682 42.8877 96.8073 40.3046C95.2695 37.906 93.1165 39.9971 92.8705 40.2431V33.2933C92.8705 15.8266 83.1513 11.2754 71.1562 11.2754C59.1611 11.2754 49.442 15.8266 49.442 33.2933V40.2431C49.442 40.2431 47.1045 37.66 45.4436 40.2431C43.7827 42.8262 48.0272 58.0789 51.2259 56.4183C51.9025 60.785 51.2874 64.0446 52.7022 67.1813C53.6864 69.3954 56.0854 72.409 59.0381 74.9921C59.2226 75.1151 59.2226 75.1151 59.0381 74.9921C58.7305 79.9738 57.3772 84.156 55.7779 86.1856C54.363 87.4156 52.9482 88.1537 51.718 88.5842C50.7337 88.8302 28.7734 92.1513 22.9297 95.903C14.9944 100.946 14.9944 106.235 13.0875 112.57C13.0875 112.57 5.21379 155.068 6.87466 166.569C8.53552 178.07 21.4533 184.405 21.4533 184.405C21.4533 184.405 24.7136 193.446 24.7136 202.057C24.7136 210.667 23.0527 263.99 23.0527 275.86C23.0527 287.73 27.9738 344.312 28.7734 350.093C29.5731 355.875 28.3429 369.344 28.3429 376.355C28.3429 383.305 28.7734 400.956 30.0037 412.026C31.234 423.097 33.2639 445.668 32.8948 452.618C32.4643 459.568 27.1741 484.599 27.1741 484.599H51.7795L53.4403 453.848C53.4403 453.848 62.4828 389.086 61.6216 381.275C60.822 373.464 61.6216 358.704 61.6216 352.984C61.6216 347.264 67.773 317.312 68.2036 310.732C68.6342 304.151 73.3092 286.561 75.1546 277.336C75.1546 277.336 78.8454 300.092 81.3059 311.777C83.7665 323.463 89.3027 351.754 90.533 356.059C91.7632 360.364 91.7632 376.355 91.7632 383.735C91.7632 391.116 99.76 437.857 100.375 446.468C100.99 455.078 104.681 483.369 104.681 483.369H129.902C129.902 483.369 122.52 455.693 123.135 450.773C123.75 445.853 123.75 388.655 123.75 384.35C123.75 380.045 124.98 364.669 124.98 358.519C124.98 352.369 124.365 268.725 123.75 260.115C123.135 251.505 120.059 194.922 120.059 194.922L121.105 181.576C121.105 181.576 131.378 175.856 134.208 172.535C137.099 169.276 139.928 163.494 139.928 160.235C139.928 156.975 140.359 152.424 140.359 148.734C140.359 145.044 133.654 120.935 129.348 112.755Z" fill="#EAC9A4"/>
<path opacity="0.05" d="M115.073 96.8255C108.922 92.8894 98.4028 90.4292 90.4675 88.7072C89.2373 88.2152 87.8225 87.4771 86.4692 86.2471C84.8698 84.2175 83.578 80.0353 83.209 75.1766C86.1616 72.5935 88.5606 69.5799 89.6064 67.3043C91.0212 64.1676 90.4675 60.8465 91.0827 56.4798C94.2814 58.0789 98.4643 42.8877 96.8034 40.3046C95.2656 37.906 93.1126 39.9971 92.8666 40.2431V33.2933C92.8666 15.8266 83.1474 11.2754 71.1523 11.2754V80.4658C69.553 80.4658 67.8921 80.4658 66.1697 79.7278C63.6477 78.6823 61.1256 76.9602 58.9727 74.9921L95.8807 111.894H124.054C122.27 106.235 122.332 101.438 115.073 96.8255Z" fill="black"/>
<path d="M44.3945 87.4158L52.6373 73.9468C52.6373 73.9468 60.8186 78.1905 71.5835 77.5754C82.3483 76.9604 89.6069 73.9468 89.6069 73.9468L100.187 88.3384C100.249 88.3384 71.3374 112.632 44.3945 87.4158Z" fill="#9B2331"/>
<path d="M67.3418 40.3663C66.6037 40.9813 65.4964 40.7353 63.651 40.0588C59.5911 38.5827 59.8372 37.4142 55.7158 38.2752C54.0549 38.6442 53.1937 40.3048 53.1937 40.3048C53.1937 40.3048 52.8246 37.4142 54.6085 36.1841C57.1921 34.4006 64.2046 35.6306 66.2961 36.6761C68.0185 37.5372 67.8339 39.9973 67.3418 40.3663Z" fill="#666666"/>
<path d="M56.084 44.8563C56.084 44.8563 57.6218 47.1319 60.8205 47.1319C64.0192 47.1319 65.2495 44.8563 65.2495 44.8563C65.2495 44.8563 62.9735 42.9497 60.3899 42.9497C57.8064 43.0112 56.084 44.8563 56.084 44.8563Z" fill="white"/>
<path d="M58.915 43.1957C58.6074 43.5647 58.4844 43.9953 58.4844 44.5488C58.4844 45.7788 59.4686 46.7629 60.6989 46.7629C61.9291 46.7629 62.9133 45.7788 62.9133 44.5488C62.9133 44.1183 62.7903 43.7492 62.6058 43.3802C61.9291 43.1342 61.191 42.9497 60.4528 42.9497C59.8377 43.0112 59.4071 43.0727 58.915 43.1957Z" fill="#808080"/>
<path d="M60.6942 45.7175C61.2717 45.7175 61.7399 45.2493 61.7399 44.6716C61.7399 44.094 61.2717 43.6257 60.6942 43.6257C60.1166 43.6257 59.6484 44.094 59.6484 44.6716C59.6484 45.2493 60.1166 45.7175 60.6942 45.7175Z" fill="#534741"/>
<path d="M55.4677 45.0402C56.0213 44.1177 56.8825 43.5641 57.8052 43.1951C58.7279 42.8261 59.7121 42.6416 60.6963 42.6416C61.1884 42.6416 61.6805 42.7031 62.1727 42.7646C62.6648 42.8876 63.1569 43.0106 63.5875 43.2566C64.4487 43.6871 65.2483 44.3022 65.8019 45.1632C65.925 45.2862 65.925 45.4707 65.8635 45.5937C65.8019 45.7167 65.6789 45.7782 65.5559 45.8397C65.4329 45.9012 65.3098 45.9627 65.1868 45.9012C65.0638 45.9012 64.9408 45.8397 64.8792 45.8397C64.6947 45.7782 64.5102 45.9627 64.3256 46.0857C64.1411 46.2088 63.9565 46.3318 63.772 46.4548L64.2641 46.0242L64.5102 45.7782C64.5717 45.7167 64.7562 45.6552 64.8792 45.6552C65.1253 45.7167 65.2483 45.7782 65.4329 45.6552C65.6174 45.5322 65.6789 45.4092 65.6174 45.2862C65.0638 44.5482 64.2641 44.0562 63.4644 43.6871C62.6033 43.3796 61.7421 43.2566 60.8194 43.2566C59.8967 43.3181 59.0355 43.4411 58.1743 43.8102C57.3746 44.1177 56.5749 44.6712 56.0828 45.3477V45.4092C55.9598 45.5322 55.8368 45.5322 55.7137 45.4707C55.4062 45.2862 55.4062 45.1632 55.4677 45.0402Z" fill="#826F67"/>
<path d="M59.4687 45.2869C59.8084 45.2869 60.0838 45.0114 60.0838 44.6716C60.0838 44.3318 59.8084 44.0564 59.4687 44.0564C59.1289 44.0564 58.8535 44.3318 58.8535 44.6716C58.8535 45.0114 59.1289 45.2869 59.4687 45.2869Z" fill="white"/>
<path d="M75.2183 40.3663C75.9564 40.9813 77.0637 40.7353 78.9091 40.0588C82.969 38.5827 82.7229 37.4142 86.8443 38.2752C88.5052 38.6442 89.3664 40.3048 89.3664 40.3048C89.3664 40.3048 89.7354 37.4142 87.9516 36.1841C85.368 34.4006 78.3555 35.6306 76.264 36.6761C74.5416 37.5372 74.7877 39.9973 75.2183 40.3663Z" fill="#666666"/>
<path d="M86.476 44.8563C86.476 44.8563 84.9382 47.1319 81.7395 47.1319C78.5408 47.1319 77.3105 44.8563 77.3105 44.8563C77.3105 44.8563 79.5865 42.9497 82.1701 42.9497C84.7537 42.9497 86.476 44.8563 86.476 44.8563Z" fill="white"/>
<path d="M83.641 43.1957C83.9485 43.5647 84.0715 43.9953 84.0715 44.5488C84.0715 45.7788 83.0873 46.7629 81.8571 46.7629C80.6268 46.7629 79.6426 45.7788 79.6426 44.5488C79.6426 44.1183 79.7656 43.7492 79.9501 43.3802C80.6268 43.1342 81.365 42.9497 82.1031 42.9497C82.7183 43.0112 83.2104 43.0727 83.641 43.1957Z" fill="#808080"/>
<path d="M81.9207 45.7175C82.4983 45.7175 82.9665 45.2493 82.9665 44.6716C82.9665 44.094 82.4983 43.6257 81.9207 43.6257C81.3432 43.6257 80.875 44.094 80.875 44.6716C80.875 45.2493 81.3432 45.7175 81.9207 45.7175Z" fill="#534741"/>
<path d="M86.5964 45.3477C86.1043 44.6712 85.3047 44.1792 84.505 43.8102C83.7053 43.4411 82.7826 43.3181 81.8599 43.2566C80.9372 43.1951 80.0145 43.3181 79.2148 43.6871C78.3536 43.9947 77.6155 44.5482 77.0619 45.2862C77.0003 45.3477 77.0618 45.5322 77.2464 45.6552C77.4309 45.7782 77.554 45.7167 77.8 45.6552C77.923 45.6552 78.0461 45.7167 78.1691 45.7782L78.4151 46.0242L78.9072 46.4548C78.7227 46.3318 78.5382 46.2088 78.3536 46.0857C78.1691 45.9627 77.9846 45.7782 77.8 45.8397C77.7385 45.8397 77.6155 45.9012 77.4924 45.9012C77.3694 45.9012 77.2464 45.9012 77.1234 45.8397C77.0003 45.7782 76.9388 45.7167 76.8158 45.5937C76.7543 45.4707 76.7543 45.2862 76.8773 45.1632C77.4309 44.3022 78.1691 43.6871 79.0918 43.2566C79.5224 43.0106 80.0145 42.8876 80.5066 42.7646C80.9987 42.7031 81.4908 42.6416 81.9829 42.6416C82.9671 42.6416 83.9514 42.8261 84.8741 43.1951C85.7968 43.5641 86.6579 44.1792 87.2116 45.0402C87.2731 45.1632 87.2731 45.3477 87.1501 45.4092C86.904 45.4707 86.7195 45.4707 86.5964 45.3477Z" fill="#826F67"/>
<path d="M80.8124 45.2869C81.1521 45.2869 81.4275 45.0114 81.4275 44.6716C81.4275 44.3318 81.1521 44.0564 80.8124 44.0564C80.4727 44.0564 80.1973 44.3318 80.1973 44.6716C80.1973 45.0114 80.4727 45.2869 80.8124 45.2869Z" fill="white"/>
<path opacity="0.08" d="M74.353 58.8789C73.0612 60.1709 71.1543 59.8633 71.1543 59.8633C71.1543 59.8633 69.3089 60.2324 67.9556 58.8789C66.6023 57.5254 65.8026 59.6172 66.9714 60.2939C68.1401 60.9707 69.0013 60.1094 69.4319 60.6015C69.8625 61.0937 69.8625 61.2168 71.1543 61.2168C72.4461 61.2168 72.4461 61.0937 72.8766 60.6015C73.3072 60.1094 74.2299 60.9707 75.3372 60.2939C76.5059 59.6172 75.7678 57.5254 74.353 58.8789Z" fill="black"/>
<path opacity="0.1" d="M72.6342 63.983C72.0806 63.9215 71.5885 64.2906 71.1579 64.2906C70.7273 64.2906 70.0507 63.86 69.4971 63.983C68.9434 64.0445 63.4688 65.1516 63.4688 65.1516C63.4688 65.1516 65.3141 66.8122 65.5602 67.0582C65.8063 67.3042 65.9908 68.2267 66.6059 69.0878C67.7132 70.6253 69.9277 70.1948 71.0964 70.1948C72.2652 70.1948 74.6027 70.6253 75.7099 69.0878C76.3251 68.2267 76.3866 67.3042 76.6326 67.0582C76.8787 66.8122 78.9086 65.1516 78.9086 65.1516C78.9086 65.1516 73.2494 64.0445 72.6342 63.983Z" fill="black"/>
<path opacity="0.1" d="M77.6754 66.1364C78.2906 65.6442 78.9057 65.152 78.9057 65.152C78.9057 65.152 73.2465 64.0446 72.6928 63.983C72.1392 63.9215 71.6471 64.2907 71.2165 64.2907C70.7859 64.2907 70.1093 63.86 69.5557 63.983C69.002 64.0446 63.5273 65.152 63.5273 65.152C63.5273 65.152 64.0195 65.5827 64.5116 66.0749C65.1882 66.6901 66.1109 66.9977 67.0951 66.9362C68.2639 66.8131 69.9247 66.6901 71.2165 66.6901C72.5083 66.6901 74.1692 66.8131 75.3379 66.9362C76.0761 66.9977 76.9988 66.7516 77.6754 66.1364Z" fill="black"/>
<path d="M94.283 39.3822L92.8682 40.3663L91.9455 45.225C91.8225 45.84 91.5149 46.455 91.1458 47.0086L89.9156 48.5461C89.9156 48.5461 92.13 38.6442 92.13 36.7991C92.13 34.9541 90.4692 32.4939 90.4692 32.4939L89.1159 24.9906C89.1159 24.9906 86.6554 22.961 84.5639 22.346C84.5639 22.346 75.3369 22.8995 67.0326 29.2958C60.0815 34.6465 53.192 28.4963 53.192 28.4963L51.8387 32.5555C51.8387 32.5555 50.1779 35.0156 50.1779 36.8606C50.1779 38.7057 52.3924 48.6076 52.3924 48.6076L51.1621 47.0701C50.7315 46.578 50.4854 45.963 50.3624 45.2865L49.4397 40.4278L48.0249 39.4437L45.0723 24.1296L46.1795 20.6239C46.1795 20.6239 47.2252 11.5831 53.3766 8.13892L52.823 6.84736C52.823 6.84736 59.4664 1.25062 70.7849 0.328084C83.7027 -0.717461 86.9014 3.1572 88.4392 5.06378C90.7152 7.95441 90.7767 10.599 90.7767 10.599C90.7767 10.599 95.0827 17.7333 96.0054 19.4554C96.8666 21.0545 94.283 39.3822 94.283 39.3822Z" fill="#666666"/>
<path d="M90.5913 49.53C90.5913 49.53 89.9146 53.3432 89.4225 54.7578C88.9919 56.1723 87.0235 65.5822 84.2554 64.1061C80.6261 62.1381 74.4747 60.8465 74.4747 60.8465C72.9369 61.8306 71.0915 61.8306 71.0915 61.8306C71.0915 61.8306 69.2461 61.769 67.7083 60.8465C67.7083 60.8465 61.5569 62.1381 57.9276 64.1061C55.221 65.5822 53.2526 56.2338 52.7605 54.7578C52.3299 53.3432 51.5917 49.53 51.5917 49.53C51.5917 49.53 49.3157 56.7873 49.2542 59.1244C48.8236 64.2292 49.3157 70.8099 50.7305 73.9466C52.4529 77.8827 60.2036 86.5546 66.0474 88.9532C67.7698 89.6297 69.4306 89.6912 71.03 89.6912C72.6293 89.6912 74.2902 89.6912 76.0126 88.9532C81.8563 86.5546 89.4225 77.6367 91.2064 73.7006C92.6212 70.5639 93.5439 64.2292 92.7442 58.2634C92.7442 55.9263 90.5913 49.53 90.5913 49.53ZM74.7208 73.024C72.0757 73.024 71.8912 71.548 71.8912 71.548H70.4148C70.4148 71.548 69.7382 73.024 67.0931 73.024C65.2477 73.024 63.0948 69.4569 61.9875 67.3658C61.6184 66.6278 62.1105 65.7667 62.9717 65.7667H79.2113C80.0725 65.7667 80.5646 66.6893 80.134 67.4273C78.9037 69.5184 76.5662 73.024 74.7208 73.024Z" fill="#666666"/>
<path d="M22.6853 239.327C22.3778 239.327 22.0702 239.573 22.0702 239.881C21.8857 245.908 20.4708 296.094 23.9156 318.604C27.6064 342.59 25.515 344.066 24.5307 346.342C24.4077 346.711 23.485 347.449 25.1459 350.585C27.6064 355.26 23.3005 369.036 24.5307 377.647C25.761 386.257 28.2215 437.304 28.2215 441.609C28.2215 445.914 25.761 453.91 25.761 456.37C25.761 458.83 26.3761 460.06 26.9913 462.52C27.6064 464.98 32.5275 462.52 41.7545 462.52C50.9815 462.52 55.2875 467.44 57.1329 465.595C58.9783 463.75 57.1329 455.14 58.3631 447.145C59.5934 439.149 65.1296 385.027 64.5145 377.647C63.8993 370.266 61.4388 364.116 62.6691 359.196C63.8993 354.276 67.5901 351.2 67.5901 347.51C67.5901 343.82 66.3599 338.9 67.5901 329.059C68.5744 321.126 72.3882 295.971 73.803 286.561C73.926 285.885 74.8487 285.885 74.9718 286.561C76.7557 296.709 81.7998 325.431 82.3534 330.966C82.9685 337.731 81.7382 347.572 83.5836 350.032C85.4291 352.492 86.0442 357.412 86.0442 359.872C86.0442 362.332 86.6593 368.483 87.8896 372.788C89.1199 377.093 89.1199 396.159 92.1955 410.304C95.2712 424.45 95.8863 438.596 95.8863 443.516C95.8863 448.436 95.2712 454.586 95.8863 458.276C96.3169 460.983 97.4242 462.213 97.9778 462.705C98.1623 462.889 98.4084 462.889 98.6544 462.766C99.7617 462.151 103.637 460.306 111.449 459.261C119.261 458.215 123.137 459.445 124.244 459.937C124.49 459.999 124.736 459.999 124.859 459.814C125.905 458.768 129.288 455.14 128.242 452.741C127.012 449.851 126.212 442.901 125.782 439.641C125.351 436.382 129.042 381.398 127.812 371.189C126.582 360.979 124.552 355.998 124.921 350.708C125.351 345.358 126.582 344.989 126.582 341.668C126.582 338.346 124.121 334.287 124.921 326.476C125.72 318.789 126.151 253.534 124.613 242.095C124.552 241.787 124.306 241.603 124.059 241.603L22.6853 239.327Z" fill="#736357"/>
<path d="M125.348 263.928C124.917 264.543 116.183 264.605 103.818 251.812" stroke="#C69C6D" stroke-dasharray="2 4 2 4 2 4"/>
<path opacity="0.1" d="M80.3203 247.323C80.3203 247.323 80.6279 264.543 80.3203 267.619C80.0127 270.694 74.2305 273.277 74.2305 273.277V247.323H80.3203Z" fill="black"/>
<path d="M45.5056 86.6164C45.5056 86.6164 21.3308 89.876 14.3183 97.2563C10.5044 101.315 7.36726 111.586 5.2758 121.427C3.18434 131.267 1.40045 156.114 0.539263 160.604C-0.567979 166.754 5.64488 175.18 7.73634 177.21C9.76628 179.239 12.6574 182.13 15.9176 183.79C19.1778 185.451 19.1778 185.451 19.1778 185.451C19.1778 185.451 19.9775 194.061 19.6084 206.362C19.1778 218.662 12.2268 232.624 18.3782 238.159C23.8529 243.079 17.5785 245.355 21.2693 248.184C24.9601 251.013 51.2263 255.133 61.8682 255.564C72.51 255.995 73.7403 255.995 83.5824 255.995C91.0255 255.995 119.691 254.764 124.981 249.045C130.333 243.325 123.874 244.863 129.102 234.469C130.333 232.009 126.334 218.109 124.181 206.177C122.028 194.246 121.721 184.221 121.721 184.221C121.721 184.221 131.563 179.854 134.639 178.194C140.79 174.811 142.635 166.508 143.373 163.925C143.927 161.957 143.435 154.761 142.205 150.272C140.974 145.782 137.96 126.409 136.053 119.09C134.023 111.279 132.547 103.345 127.011 98.1788C120.86 92.4591 95.0239 86.3088 95.0239 86.3088L70.7876 91.106L45.5056 86.6164Z" fill="#9B2331"/>
<path opacity="0.2" d="M134.453 146.888C132.607 144.182 127.194 143.383 121.596 143.567C122.334 141.907 123.811 138.278 125.103 133.296C126.948 126.223 131.992 123.948 131.992 123.948C131.992 123.948 131.992 123.948 128.732 124.378C125.472 124.809 123.38 132.558 121.781 137.109C120.612 140.369 119.013 142.706 118.213 143.813C117.413 143.875 118.275 143.69 117.475 143.752C117.475 143.752 117.29 139.57 117.29 134.649C117.29 129.729 116.86 126.839 114.83 120.688C112.8 114.538 114.092 107.773 114.092 107.773C114.092 107.773 111.508 111.647 111.139 114.969C110.708 118.228 114.03 127.269 114.399 130.959C114.768 134.465 114.399 143.26 114.338 144.244C102.773 144.982 70.9707 140.431 70.9707 140.431C70.9707 140.431 84.6882 144.305 92.931 145.351C101.112 146.396 114.584 146.704 125.41 146.888C135.929 147.011 136.421 152.916 136.421 152.916C136.421 152.916 136.913 150.579 134.453 146.888Z" fill="black"/>
<path d="M104.863 143.999L113.044 144.183C114.09 144.183 114.951 144.122 115.751 143.999C115.813 143.814 115.874 143.507 116.059 142.891C116.305 141.846 116.059 141.046 115.32 140.431C115.197 140.37 115.074 140.308 114.951 140.247C115.074 138.955 114.828 137.725 113.598 137.172C111.753 136.311 110.83 138.402 110.83 138.402C110.83 138.402 111.445 136.249 111.63 135.142C111.814 134.035 110.338 132.436 109.231 132.436C108.123 132.436 105.663 136.249 105.663 136.249C105.663 136.249 105.909 135.265 105.54 134.712C105.171 134.158 104.494 133.482 103.51 134.158C101.664 135.45 100.926 138.402 100.188 139.509C99.573 140.37 98.3427 142.522 97.9121 143.322C100.188 143.63 102.587 143.814 104.863 143.999Z" fill="#EAC9A4"/>
<path opacity="0.1" d="M105.603 136.311L102.342 143.875L100.189 143.691L105.603 136.311Z" fill="black"/>
<path opacity="0.1" d="M110.71 138.463L107.881 144.059H106.158L111.51 135.203L110.71 138.463Z" fill="black"/>
<path opacity="0.1" d="M114.831 140.308L113.047 144.122L114.277 144.245L114.831 140.308Z" fill="black"/>
<path opacity="0.2" d="M90.5319 75.177C87.9483 79.4822 81.3048 86.801 76.0762 88.9536C74.3538 89.6301 72.693 89.6916 71.0936 89.6916C69.4943 89.6916 67.8334 89.6916 66.111 88.9536C60.9439 86.801 54.3004 79.7897 51.6554 75.4845L46.0576 84.6484C45.0734 86.309 45.3195 88.4616 46.6728 89.8146C67.8334 110.603 90.0397 96.5184 97.5444 90.6142C99.0822 89.3841 99.3898 87.2315 98.221 85.6324L90.5319 75.177Z" fill="black"/>
<path d="M43.8463 139.877C40.9552 139.447 38.4947 141.107 34.4348 141.907C30.3134 142.706 29.7598 142.337 29.7598 142.337C29.7598 142.337 30.0673 145.597 31.5437 147.442C33.3891 149.718 34.8039 150.948 36.0341 151.747C37.2644 152.547 40.094 153.961 43.6003 154.207C46.2454 154.392 49.321 154.392 49.321 154.392C49.321 154.392 48.2753 150.886 47.9062 146.827C47.4756 142.706 47.4756 140.246 47.4756 140.246L43.8463 139.877Z" fill="#EAC9A4"/>
<path opacity="0.1" d="M34.4348 141.968C30.3134 142.768 29.7598 142.399 29.7598 142.399C29.7598 142.399 30.0673 145.658 31.5437 147.503C31.9743 148.057 32.4048 148.487 32.7739 148.918C32.7124 148.672 32.2818 146.581 34.4348 144.859C36.7108 143.014 41.2013 139.938 43.8463 139.938C40.9552 139.508 38.4947 141.107 34.4348 141.968Z" fill="black"/>
<path opacity="0.2" d="M47.534 140.308L47.9646 138.463C47.9646 138.463 56.884 138.77 59.7751 139.078C62.6663 139.385 63.9581 139.201 63.9581 139.201L47.4725 136.249L46.2422 139.939L47.534 140.308Z" fill="black"/>
<path d="M41.6297 126.593H40.707V127.516H41.6297V126.593Z" fill="white"/>
<path d="M40.8934 125.671V124.686H39.9707V125.671H39.7246V126.594H40.7088V125.671H40.8934Z" fill="white"/>
<path d="M45.4408 127.515H44.4566H43.5339H42.5497H41.627V128.5H42.5497H43.5339H44.4566H45.4408H46.3635V127.515H45.4408Z" fill="white"/>
<path d="M46.3659 125.671H45.4432H44.459V126.594H45.4432H46.3659H47.3501V125.671H46.3659Z" fill="white"/>
<path d="M44.4598 124.686H43.5371V125.609H44.4598V124.686Z" fill="white"/>
<path d="M50.1815 125.671V124.686H49.1973V125.671V126.594V127.516H50.1815V126.594V125.671Z" fill="white"/>
<path d="M49.1942 122.78H48.2715V123.764V124.687H49.1942V123.764V122.78Z" fill="white"/>
<path d="M51.1024 123.764H50.1797V124.687H51.1024V123.764Z" fill="white"/>
<path d="M52.0866 128.5V127.515H51.1024H50.1797V128.5H51.1024H52.0866Z" fill="white"/>
<path d="M43.5369 122.78V121.857H42.5527V122.78V123.764V124.687H43.5369V123.764V122.78Z" fill="white"/>
<path d="M42.5497 119.95H41.627V120.873V121.857H42.5497V120.873V119.95Z" fill="white"/>
<path d="M44.4598 120.873V119.95H43.5371V120.873V121.857H44.4598V120.873Z" fill="white"/>
<path d="M67.2801 126.593H66.3574V127.516H67.2801V126.593Z" fill="white"/>
<path d="M66.6043 125.671V124.686H65.6816V125.671H65.4355V126.594H66.3582V125.671H66.6043Z" fill="white"/>
<path d="M71.0941 127.515H70.1714H69.1872H68.2645H67.3418V128.5H68.2645H69.1872H70.1714H71.0941H72.0783V127.515H71.0941Z" fill="white"/>
<path d="M72.0788 125.671H71.0946H70.1719V126.594H71.0946H72.0788H73.0015V125.671H72.0788Z" fill="white"/>
<path d="M70.1102 124.686H69.1875V125.609H70.1102V124.686Z" fill="white"/>
<path d="M75.8309 125.671V124.686H74.9082V125.671V126.594V127.516H75.8309V126.594V125.671Z" fill="white"/>
<path d="M74.9071 122.78H73.9844V123.764V124.687H74.9071V123.764V122.78Z" fill="white"/>
<path d="M76.7528 123.764H75.8301V124.687H76.7528V123.764Z" fill="white"/>
<path d="M77.737 128.5V127.515H76.8143H75.8301V128.5H76.8143H77.737Z" fill="white"/>
<path d="M69.1864 122.78V121.857H68.2637V122.78V123.764V124.687H69.1864V123.764V122.78Z" fill="white"/>
<path d="M68.2645 119.95H67.3418V120.873V121.857H68.2645V120.873V119.95Z" fill="white"/>
<path d="M70.1717 120.873V119.95H69.1875V120.873V121.857H70.1717V120.873Z" fill="white"/>
<path d="M92.995 126.593H92.0723V127.516H92.995V126.593Z" fill="white"/>
<path d="M92.2547 125.671V124.686H91.332V125.671H91.0859V126.594H92.0702V125.671H92.2547Z" fill="white"/>
<path d="M96.806 127.515H95.8218H94.8991H93.9149H92.9922V128.5H93.9149H94.8991H95.8218H96.806H97.7287V127.515H96.806Z" fill="white"/>
<path d="M97.7292 125.671H96.8065H95.8223V126.594H96.8065H97.7292H98.7134V125.671H97.7292Z" fill="white"/>
<path d="M95.825 124.686H94.9023V125.609H95.825V124.686Z" fill="white"/>
<path d="M101.543 125.671V124.686H100.559V125.671V126.594V127.516H101.543V126.594V125.671Z" fill="white"/>
<path d="M100.559 122.78H99.6367V123.764V124.687H100.559V123.764V122.78Z" fill="white"/>
<path d="M102.468 123.764H101.545V124.687H102.468V123.764Z" fill="white"/>
<path d="M103.452 128.5V127.515H102.468H101.545V128.5H102.468H103.452Z" fill="white"/>
<path d="M94.8983 122.78V121.857H93.9141V122.78V123.764V124.687H94.8983V123.764V122.78Z" fill="white"/>
<path d="M93.9149 119.95H92.9922V120.873V121.857H93.9149V120.873V119.95Z" fill="white"/>
<path d="M95.825 120.873V119.95H94.9023V120.873V121.857H95.825V120.873Z" fill="white"/>
<path d="M21.1475 108.265V107.096H19.9788V105.928H18.8715V104.821H17.7028V103.652H16.534V102.484H15.4268V103.652H14.258V104.821H13.0893V105.928H11.9205V107.096H10.8133V108.265H9.64453V109.372H10.8133V110.54H11.9205V111.709H13.0893V112.816H14.258V113.985H15.4268V115.153H16.534V113.985H17.7028V112.816H18.8715V111.709H19.9788V110.54H21.1475V109.372H22.3163V108.265H21.1475Z" fill="white"/>
<path d="M34.9249 108.265V107.096H33.7561V105.928H32.6489V104.821H31.4801V103.652H30.3114V102.484H29.2041V103.652H28.0354V104.821H26.8666V105.928H25.7594V107.096H24.5906V108.265H23.4219V109.372H24.5906V110.54H25.7594V111.709H26.8666V112.816H28.0354V113.985H29.2041V115.153H30.3114V113.985H31.4801V112.816H32.6489V111.709H33.7561V110.54H34.9249V109.372H36.0936V108.265H34.9249Z" fill="white"/>
<path d="M48.7042 108.265V107.096H47.5354V105.928H46.4282V104.821H45.2594V103.652H44.0907V102.484H42.9834V103.652H41.8147V104.821H40.6459V105.928H39.5387V107.096H38.3699V108.265H37.2012V109.372H38.3699V110.54H39.5387V111.709H40.6459V112.816H41.8147V113.985H42.9834V115.153H44.0907V113.985H45.2594V112.816H46.4282V111.709H47.5354V110.54H48.7042V109.372H49.8729V108.265H48.7042Z" fill="white"/>
<path d="M62.4815 108.265V107.096H61.3743V105.928H60.2055V104.821H59.0368V103.652H57.9295V102.484H56.7608V103.652H55.592V104.821H54.4848V105.928H53.316V107.096H52.1473V108.265H50.9785V109.372H52.1473V110.54H53.316V111.709H54.4848V112.816H55.592V113.985H56.7608V115.153H57.9295V113.985H59.0368V112.816H60.2055V111.709H61.3743V110.54H62.4815V109.372H63.6503V108.265H62.4815Z" fill="white"/>
<path d="M76.2638 108.265V107.096H75.1565V105.928H73.9878V104.821H72.819V103.652H71.7118V102.484H70.543V103.652H69.3743V104.821H68.267V105.928H67.0983V107.096H65.9295V108.265H64.8223V109.372H65.9295V110.54H67.0983V111.709H68.267V112.816H69.3743V113.985H70.543V115.153H71.7118V113.985H72.819V112.816H73.9878V111.709H75.1565V110.54H76.2638V109.372H77.4325V108.265H76.2638Z" fill="white"/>
<path d="M90.0392 108.265V107.096H88.9319V105.928H87.7632V104.821H86.5944V103.652H85.4872V102.484H84.3184V103.652H83.1497V104.821H82.0424V105.928H80.8737V107.096H79.7049V108.265H78.5977V109.372H79.7049V110.54H80.8737V111.709H82.0424V112.816H83.1497V113.985H84.3184V115.153H85.4872V113.985H86.5944V112.816H87.7632V111.709H88.9319V110.54H90.0392V109.372H91.2079V108.265H90.0392Z" fill="white"/>
<path d="M103.88 108.265V107.096H102.711V105.928H101.542V104.821H100.435V103.652H99.2665V102.484H98.0977V103.652H96.9905V104.821H95.8217V105.928H94.6529V107.096H93.4842V108.265H92.377V109.372H93.4842V110.54H94.6529V111.709H95.8217V112.816H96.9905V113.985H98.0977V115.153H99.2665V113.985H100.435V112.816H101.542V111.709H102.711V110.54H103.88V109.372H104.987V108.265H103.88Z" fill="white"/>
<path d="M117.661 108.265V107.096H116.492V105.928H115.324V104.821H114.216V103.652H113.048V102.484H111.879V103.652H110.772V104.821H109.603V105.928H108.434V107.096H107.327V108.265H106.158V109.372H107.327V110.54H108.434V111.709H109.603V112.816H110.772V113.985H111.879V115.153H113.048V113.985H114.216V112.816H115.324V111.709H116.492V110.54H117.661V109.372H118.768V108.265H117.661Z" fill="white"/>
<path d="M131.439 108.265V107.096H130.27V105.928H129.101V104.821H127.994V103.652H126.825V102.484H125.656V103.652H124.549V104.821H123.38V105.928H122.212V107.096H121.104V108.265H119.936V109.372H121.104V110.54H122.212V111.709H123.38V112.816H124.549V113.985H125.656V115.153H126.825V113.985H127.994V112.816H129.101V111.709H130.27V110.54H131.439V109.372H132.546V108.265H131.439Z" fill="white"/>
<path d="M48.2741 129.422V130.406H47.3514V131.328H48.2741V132.313V133.235V134.158V135.142V136.064H47.3514V136.741L47.4744 136.31L53.9949 137.479V137.048V136.064H53.0106V135.142H52.0879V134.158V133.235H51.1037V132.313H52.0879H53.0106V131.328H53.9949V130.406H53.0106V129.422H52.0879H51.1037H50.181V128.499H49.1968H48.2741V127.515V126.593H47.3514V127.515V128.499H46.3672V129.422H47.3514H48.2741Z" fill="white"/>
<path d="M43.841 139.877L47.5318 140.308L46.24 140L47.2242 137.048H45.4403V137.971H42.6107V138.893H41.688V139.816H40.7653V138.893H39.8426V136.987H38.9199V138.893V139.816V140.677C40.5808 140.123 42.1801 139.631 43.841 139.877Z" fill="white"/>
<path d="M70.9115 140.308C70.9115 140.308 74.0487 140.738 78.7238 141.353V140.861V139.939H79.6465V139.016V138.094V137.171V136.249H78.7238V135.326H77.8011V134.404V133.481H76.8168V132.558H77.7395H78.6622V131.636H79.5849V130.713H78.6622V129.791H77.7395H76.8168H75.8941V128.868H74.9714H74.0487V127.946V127.023H73.126V127.946V128.868H72.2033V129.791H73.126H74.0487V130.713H73.126V131.636H74.0487V132.558V133.481V134.404V135.326V136.249H73.126V137.171H71.2191V138.094H68.3895V139.016H67.4668V139.877L70.9115 140.308Z" fill="white"/>
<path d="M66.3581 139.633V138.956H65.4354V137.049H64.4512V138.956V139.325L66.3581 139.633Z" fill="white"/>
<path d="M91.0877 142.707V142.768C93.3022 143.014 95.5167 143.199 97.7312 143.445C98.2233 142.584 99.4536 140.492 100.007 139.631C100.745 138.524 101.484 135.572 103.329 134.281C103.329 134.281 103.329 134.281 103.39 134.281V134.219V133.297H102.468V132.374H103.39H104.313V131.452H105.236V130.529H104.313V129.606H103.39H102.468H101.545V128.684H100.622H99.6996V127.761V126.839H98.7769V127.761V128.684H97.7312V129.606H98.6539H99.5766V130.529H98.6539V131.452H99.5766V132.374V133.297V134.219V135.142V136.064H98.6539V136.987H96.747V137.909H93.9174V138.832H92.9947V139.754H92.072V138.832H91.1493V136.925H90.2266V138.832V139.754V140.677H91.1493V141.599V142.707H91.0877Z" fill="white"/>
<path d="M75.8301 288.345C75.8301 288.345 84.0114 324.016 85.2416 332.196C86.4719 340.376 85.2416 345.296 86.9025 349.417C88.5634 353.537 89.363 362.148 90.1627 365.838C90.9624 369.528 93.0538 374.448 92.6232 378.938C92.1927 383.428 91.8236 397.819 92.6232 401.879C93.4229 405.938 97.1137 423.589 97.1137 428.14C97.1137 432.63 95.8835 458.276 95.8835 458.276" stroke="#C69C6D" stroke-dasharray="2 4 2 4 2 4"/>
<path d="M72.9409 288.714C72.9409 288.714 64.329 337.916 64.7596 343.636C65.1902 349.356 60.2691 355.137 59.8385 360.057C59.4079 364.977 61.0688 374.818 61.8684 379.738C62.6681 384.658 58.1776 426.049 58.1776 430.601C58.1776 435.09 57.5625 447.391 57.5625 447.391" stroke="#C69C6D" stroke-dasharray="2 4 2 4 2 4"/>
<path opacity="0.07" d="M86.7181 15.6423C86.7181 15.6423 88.379 12.7517 87.3332 10.7221C86.2875 8.69249 82.5967 6.84741 80.5668 6.84741C80.5668 6.84741 82.8428 9.73803 83.0273 10.9681C83.0273 10.9681 78.7214 8.9385 75.0306 11.5831C71.3397 14.2277 70.7246 16.5033 70.7246 16.5033C70.7246 16.5033 73.1852 14.0432 76.6914 14.8428C80.1362 15.6423 84.8727 19.3324 86.7181 15.6423Z" fill="white"/>
<path opacity="0.07" d="M87.3331 71.8553C87.3331 71.8553 87.8252 75.0534 85.4877 78.6206C83.1502 82.1877 81.9199 82.8028 81.9199 82.8028C81.9199 82.8028 84.5035 78.1901 83.8884 76.345C83.2732 74.4999 85.3032 70.5022 87.3331 71.8553Z" fill="white"/>
<path opacity="0.07" d="M55.8381 71.8553C55.8381 71.8553 55.346 75.0534 57.6835 78.6206C60.021 82.1877 61.2513 82.8028 61.2513 82.8028C61.2513 82.8028 58.6677 78.1901 59.2829 76.345C59.898 74.4999 57.8066 70.5022 55.8381 71.8553Z" fill="white"/>
<path opacity="0.05" d="M71.0977 26.5282C78.1102 22.6535 84.5691 22.2845 84.5691 22.2845C86.6606 22.8995 89.1211 24.9291 89.1211 24.9291L90.4744 32.4325C90.4744 32.4325 92.1353 34.8926 92.1353 36.7376C92.1353 38.5827 89.9208 48.4846 89.9208 48.4846L91.151 46.9471C91.5816 46.455 91.8277 45.84 91.9507 45.1635L92.8734 40.3048L94.2882 39.3207C94.2882 39.3207 96.8103 20.9315 95.8876 19.2709C94.9649 17.5488 90.6589 10.4145 90.6589 10.4145C90.6589 10.4145 90.5974 7.7699 88.3214 4.87928C86.8451 2.9727 83.6464 -0.778961 71.0977 0.143579V26.5282Z" fill="black"/>
<path d="M21.8828 263.928C22.3134 264.543 31.0483 264.605 43.4125 251.812" stroke="#C69C6D" stroke-dasharray="2 4 2 4 2 4"/>
<path opacity="0.1" d="M124.121 308.825C124.429 323.278 123.814 333.426 122.583 338.654C121.353 343.881 119.2 350.954 118.278 354.029C117.355 357.104 120.431 356.489 121.968 358.335C123.506 360.18 126.274 378.63 125.967 383.551C125.659 388.471 123.199 437.058 122.891 438.595C122.583 440.133 117.97 442.593 116.432 446.591C114.894 450.588 117.355 450.281 120.431 449.973C123.506 449.666 125.044 451.203 125.967 452.741C126.582 453.725 126.274 456.677 125.967 458.707C127.32 457.169 129.104 454.586 128.304 452.741C127.074 449.85 126.274 442.901 125.844 439.641C125.413 436.381 129.104 381.398 127.874 371.189C126.643 360.918 124.613 355.997 124.983 350.708C125.413 345.357 126.643 344.988 126.643 341.667C126.643 338.408 124.183 334.287 124.983 326.476C125.659 319.834 126.09 270.386 125.167 249.598L122.214 251.012C122.276 251.012 123.814 294.372 124.121 308.825Z" fill="black"/>
<path opacity="0.1" d="M98.5901 442.286C97.6674 438.595 99.8204 433.983 99.5128 431.215C99.2052 428.448 93.3614 397.081 93.669 391.546C93.9766 386.011 93.669 371.558 93.3614 368.175C93.0539 364.792 94.2841 364.485 96.1296 363.87C97.975 363.255 92.4387 358.027 90.9009 354.029C89.3631 350.032 87.5177 345.727 88.7479 343.574C89.7937 341.79 80.6897 306.611 76.0762 292.342C78.2907 304.889 81.9815 326.292 82.4121 330.966C83.0272 337.731 81.7969 347.572 83.6423 350.032C85.4877 352.492 86.1029 357.412 86.1029 359.872C86.1029 362.332 86.718 368.483 87.9483 372.788C89.1785 377.093 89.1785 396.159 92.2542 410.304C95.3299 424.45 95.945 438.595 95.945 443.516C95.945 448.436 95.3299 454.586 95.945 458.276C96.0065 458.707 96.1296 459.076 96.1911 459.445C96.8062 458.584 102.465 451.142 105.664 449.358C109.047 447.513 99.5128 445.976 98.5901 442.286Z" fill="black"/>
<path opacity="0.1" d="M64.5715 377.708C63.9564 370.328 61.4958 364.178 62.7261 359.257C63.9564 354.337 67.6472 351.262 67.6472 347.572C67.6472 343.882 66.4169 338.962 67.6472 329.121C68.6314 321.187 72.4452 296.033 73.86 286.623C73.86 286.623 63.8333 341.114 62.9106 345.419C61.9879 349.724 56.7593 359.872 56.1442 362.333C55.529 364.793 59.835 370.02 60.4501 374.018C61.0652 378.016 53.9912 445.361 54.6063 447.821C54.9754 449.297 56.7593 455.324 58.0511 459.753C57.9896 456.186 57.7435 451.634 58.4201 447.206C59.6504 439.211 65.1866 385.088 64.5715 377.708Z" fill="black"/>
<path opacity="0.05" d="M71.1582 89.6297C72.7575 89.6297 74.4184 89.6297 76.1408 88.8917C81.9846 86.4931 89.5507 77.5752 91.3346 73.639C92.7494 70.5024 93.6721 64.1676 92.8724 58.2019C92.8109 55.8648 90.5964 49.4685 90.5964 49.4685C90.5964 49.4685 89.9198 53.2817 89.4277 54.6962C88.9971 56.1108 87.0287 65.5207 84.2606 64.0446C80.6313 62.0765 74.4799 60.785 74.4799 60.785C72.9421 61.769 71.0967 61.769 71.0967 61.769C71.0967 61.769 71.0967 61.769 71.0352 61.769V65.6437H79.1549C80.0161 65.6437 80.5082 66.5662 80.0776 67.3043C78.7859 69.4569 76.4483 72.9625 74.6645 72.9625C72.0194 72.9625 71.8348 71.4864 71.8348 71.4864H71.0352L71.1582 89.6297C71.0967 89.6297 71.1582 89.6297 71.1582 89.6297Z" fill="black"/>
<path opacity="0.1" d="M71.5219 281.579L55.8359 283.424C55.8359 283.424 58.604 280.349 64.7554 280.041C70.9067 279.734 71.5219 281.579 71.5219 281.579Z" fill="black"/>
<path opacity="0.1" d="M77.9844 280.042C77.9844 280.042 85.9811 277.889 90.9022 275.737C95.8233 273.584 98.5914 274.199 98.5914 274.199C98.5914 274.199 92.7476 278.197 87.519 279.427C82.2903 280.657 77.9844 280.042 77.9844 280.042Z" fill="black"/>
<path opacity="0.1" d="M77.6758 281.887L89.6709 284.348C89.6709 284.348 85.6725 285.271 83.212 284.656C80.7514 284.041 77.6758 281.887 77.6758 281.887Z" fill="black"/>
<path opacity="0.2" d="M127.133 220.139C127.133 220.077 127.133 220.077 127.133 220.139C126.948 219.339 126.825 218.601 126.641 217.863C126.579 217.679 126.579 217.494 126.518 217.31C126.456 217.064 126.395 216.818 126.333 216.572C126.21 216.079 126.149 215.649 126.026 215.157C126.026 215.034 125.964 214.911 125.964 214.726C125.902 214.296 125.779 213.865 125.718 213.496C125.718 213.373 125.656 213.25 125.656 213.127C125.533 212.635 125.472 212.143 125.349 211.59C125.349 211.467 125.287 211.344 125.287 211.221C125.164 210.729 125.103 210.298 124.98 209.806C124.98 209.745 124.98 209.683 124.918 209.622C124.795 209.13 124.734 208.576 124.611 208.084C124.611 207.961 124.549 207.838 124.549 207.715C124.426 207.162 124.365 206.67 124.242 206.178C124.119 205.563 124.057 205.009 123.934 204.394C123.873 204.209 123.873 204.025 123.873 203.84C123.811 203.471 123.75 203.041 123.688 202.672C123.626 202.487 123.626 202.241 123.565 202.057C123.503 201.688 123.442 201.319 123.38 200.95C123.38 200.765 123.319 200.519 123.319 200.335C123.257 199.966 123.196 199.597 123.196 199.228C123.196 199.043 123.134 198.859 123.134 198.674C123.073 198.428 123.073 198.182 123.073 197.998C123.073 198.059 123.073 198.059 123.073 198.121C123.073 197.936 123.011 197.69 123.011 197.506C123.011 197.69 123.073 197.813 123.073 197.998C123.011 197.567 122.95 197.137 122.888 196.706C122.888 196.829 122.95 197.014 122.95 197.137C122.95 196.952 122.888 196.768 122.888 196.583C122.888 196.645 122.888 196.645 122.888 196.706C122.704 195.292 122.581 193.939 122.458 192.708C122.212 190.002 122.027 187.727 121.966 186.251H121.843V184.16C121.843 184.16 98.8981 178.009 86.9645 171.429C75.0924 164.848 61.9285 157.898 61.5594 155.868C61.1288 153.839 61.5594 148.919 59.8986 148.058C58.2377 147.258 60.2061 152.732 58.0532 153.162C31.4178 159.128 29.8185 142.276 29.8185 142.276C29.8185 142.276 30.8027 126.286 29.9415 121.365C29.0803 116.445 23.3596 107.035 19.6688 106.174C19.6688 106.174 24.1593 112.755 26.2507 118.044C28.3422 123.334 27.9116 125.425 27.9116 125.425C27.9116 125.425 22.9905 118.844 17.2697 118.844C11.549 118.844 11.549 118.844 11.549 118.844C11.549 118.844 22.1908 121.304 25.082 127.024C27.9731 132.743 27.1119 143.014 27.1119 143.014C27.1119 143.014 24.0362 142.276 18.0694 144.244C6.997 147.935 6.56641 157.344 6.56641 157.344C6.56641 157.344 11.9181 147.935 22.9905 147.074C27.9116 146.705 26.6813 150.149 26.6813 150.149C26.6813 150.149 25.0204 151.994 24.6514 157.344C24.2208 162.695 26.3122 164.294 26.3122 164.294C26.3122 164.294 26.5583 151.256 29.2034 152.424C30.6182 153.039 33.5093 158.759 44.1511 157.775C48.6416 157.345 50.364 158.267 53.5627 158.882C58.9143 159.928 59.714 161.465 62.1746 162.265C64.02 162.88 77.6759 170.383 89.548 176.287C86.2263 177.394 70.3558 182.438 56.6383 185.205C41.26 188.28 22.1293 185.697 22.1293 185.697L22.1908 186.251C22.1908 186.251 46.9807 189.756 57.438 188.096C81.8589 184.283 92.3777 179.116 93.6079 178.317C95.8224 179.362 97.8524 180.346 99.6978 181.085C104.065 182.991 105.788 184.221 108.925 186.005C111.57 187.481 116.183 191.97 118.767 196.276C122.458 202.426 122.765 213.619 122.765 213.619C121.535 216.079 118.152 218.54 116.306 219.155C112.616 220.385 110.278 221.922 117.229 221.922C124.18 221.922 123.011 225.428 122.642 227.888C121.843 233.3 113.723 236.314 108.002 236.683C102.281 237.113 103.819 239.758 108.31 239.758C112.8 239.758 121.843 239.327 123.503 245.109C123.873 246.462 124.426 247.753 124.98 248.922C125.041 248.86 125.103 248.86 125.103 248.799C130.454 243.079 123.996 244.617 129.224 234.223C129.901 232.87 128.671 227.088 127.133 220.139Z" fill="black"/>
<path opacity="0.15" d="M52.7017 76.96C52.3326 76.468 52.025 76.0375 51.779 75.6069H51.5944L46.0582 84.6478C45.6891 85.2628 45.5046 85.9394 45.4431 86.5544C45.4431 86.5544 21.2683 89.814 14.2558 97.1944C10.4419 101.254 7.30476 111.524 5.2133 121.365C3.18336 131.205 1.33795 156.052 0.476763 160.542C-0.630479 166.692 5.58238 175.118 7.67384 177.148C9.70378 179.177 12.5949 182.068 15.8551 183.729C19.1153 185.389 19.1153 185.389 19.1153 185.389C19.1153 185.389 19.915 193.999 19.5459 206.3C19.1769 218.601 12.1643 232.562 18.3157 238.097C23.7904 243.017 17.516 245.293 21.2068 248.122C21.3298 248.245 21.5759 248.368 21.8219 248.491C21.4528 265.22 21.1453 300.706 23.9134 318.665C27.6042 342.651 25.5127 344.127 24.5285 346.403C24.4055 346.772 23.4828 347.51 25.1437 350.647C27.6042 355.321 23.2983 369.097 24.5285 377.708C25.7588 386.318 28.2193 437.365 28.2193 441.671C28.2193 445.976 25.7588 453.971 25.7588 456.431C25.7588 458.092 26.0664 459.199 26.4354 460.552L27.4197 459.752C27.2966 458.338 27.6042 455.57 28.5884 453.787C29.8187 451.511 32.2792 451.511 32.7098 449.912C33.1404 448.251 33.1404 446.406 32.5253 442.532C31.9101 438.657 29.4496 422.666 28.8345 416.7C28.2193 410.735 27.6042 388.225 26.9891 380.414C26.3739 372.603 27.4197 363.624 28.6499 361.779C29.8802 359.934 36.8312 361.963 35.847 359.934C34.8013 357.904 29.8802 347.018 29.2651 344.742C28.6499 342.467 29.4496 340.253 28.4654 336.132C27.4197 332.011 24.59 306.426 24.9591 298.431C25.3282 290.436 23.9134 260.484 23.9134 256.794C23.9134 253.103 23.2983 250.213 22.2525 248.983C21.2068 247.753 23.4213 243.448 23.6058 240.987C24.0364 236.498 19.792 236.375 19.1769 233.3C18.0696 227.641 19.9765 224.382 20.5917 220.876C23.2367 205.931 22.0065 185.82 22.0065 185.82C22.0065 185.82 22.6216 184.59 16.2857 181.699C10.0113 178.87 4.84422 169.029 3.61395 164.909C2.38368 160.788 4.22908 158.328 3.42941 158.574C2.62973 158.758 2.19914 159.804 2.19914 158.574C2.19914 157.344 5.88995 128.253 7.73535 120.627C9.58075 113.001 12.2258 102.976 14.9324 99.2854C17.5775 95.5953 34.0016 90.8596 39.1072 90.0601C44.2128 89.2605 46.6734 89.814 46.6734 89.814C46.3658 87.969 50.9178 80.0351 52.7017 76.96Z" fill="white"/>
<path d="M57.9315 476.358C56.5167 471.93 58.4236 467.502 58.4236 467.502C58.4236 467.502 61.7454 454.955 41.815 454.771C20.7159 454.586 25.637 468.301 25.637 468.301C25.637 468.301 19.8547 478.572 21.9462 486.752C26.2521 503.788 55.9631 498.93 58.6697 487.859C58.9773 486.568 60.023 482.816 57.9315 476.358Z" fill="#0071BC"/>
<path opacity="0.1" d="M36.7088 494.993C29.9423 494.624 25.6979 493.148 23.2988 490.135C29.7577 501.759 51.349 498.93 57.3158 490.75C54.4246 492.902 47.5966 495.547 36.7088 494.993Z" fill="black"/>
<path opacity="0.1" d="M41.8746 454.771C21.4522 454.586 25.389 467.44 25.6351 468.24C29.0799 466.333 32.8937 464.796 36.8305 464.488C49.8099 463.443 55.7767 467.994 57.7451 475.62C57.7451 475.62 57.376 472.238 57.4991 471.069C57.6221 470.146 58.4833 467.502 58.4833 467.502C58.4833 467.502 61.7435 454.955 41.8746 454.771Z" fill="black"/>
<path d="M40.2779 480.356C44.3378 480.172 47.721 478.819 47.5365 475.129C47.3519 471.377 43.9072 468.548 39.8473 468.732C35.7874 468.917 32.5887 472.115 32.7732 475.805C32.9578 479.557 36.218 480.602 40.2779 480.356Z" fill="white"/>
<path d="M38.3671 471.315L38.121 475.067C38.0595 476.482 38.7977 477.097 39.8434 477.097C41.0121 477.097 41.8118 476.482 41.9348 475.067L42.1809 471.315H43.2266L42.9806 475.006C42.8575 476.974 41.5043 477.712 39.7819 477.712C38.121 477.712 36.9523 476.912 37.0753 475.006L37.3213 471.254L38.3671 471.315Z" fill="#0071BC"/>
<path d="M98.2821 476.358C99.6969 471.93 97.79 467.502 97.79 467.502C97.79 467.502 94.4682 454.955 114.399 454.771C135.498 454.586 130.577 468.301 130.577 468.301C130.577 468.301 136.359 478.572 134.267 486.752C129.961 503.788 100.25 498.93 97.5439 487.859C97.2363 486.568 96.1906 482.816 98.2821 476.358Z" fill="#0071BC"/>
<path opacity="0.1" d="M119.507 494.993C126.274 494.624 130.518 493.148 132.917 490.135C126.458 501.759 104.867 498.93 98.9004 490.75C101.792 492.902 108.558 495.547 119.507 494.993Z" fill="black"/>
<path opacity="0.1" d="M114.337 454.771C134.759 454.586 130.823 467.44 130.577 468.24C127.132 466.333 123.318 464.796 119.381 464.488C106.709 463.627 100.435 467.994 98.4665 475.62C98.4665 475.62 98.8356 472.238 98.7126 471.069C98.5895 470.146 97.7283 467.502 97.7283 467.502C97.7283 467.502 94.4681 454.955 114.337 454.771Z" fill="black"/>
<path d="M115.936 480.356C111.876 480.172 108.493 478.819 108.677 475.129C108.862 471.377 112.306 468.548 116.366 468.732C120.426 468.917 123.625 472.115 123.44 475.805C123.256 479.557 119.996 480.602 115.936 480.356Z" fill="white"/>
<path d="M117.844 471.315L118.09 475.067C118.152 476.482 117.413 477.097 116.368 477.097C115.199 477.097 114.399 476.482 114.276 475.067L114.03 471.315H112.984L113.23 475.006C113.353 476.974 114.707 477.712 116.429 477.712C118.09 477.712 119.259 476.912 119.136 475.006L118.89 471.254L117.844 471.315Z" fill="#0071BC"/>
<path opacity="0.15" d="M27.6054 459.137L27.1748 459.26L27.1133 459.322C27.1133 459.383 27.0518 459.383 27.0518 459.445C26.9903 459.506 26.9288 459.568 26.8673 459.629C23.9146 463.504 25.637 468.301 25.637 468.301C25.637 468.301 19.8547 478.572 21.9462 486.752C22.2537 487.982 22.7459 489.151 23.2995 490.135C20.2238 476.235 28.6511 466.887 28.6511 466.887C26.1906 464.673 27.6054 459.137 27.6054 459.137Z" fill="white"/>
<path opacity="0.05" d="M83.6424 350.032C85.4878 352.492 86.1029 357.412 86.1029 359.872C86.1029 362.332 86.7181 368.482 87.9483 372.788C89.1786 377.093 89.1786 396.159 92.2543 410.304C95.33 424.45 95.9451 438.595 95.9451 443.516C95.9451 448.436 95.33 454.586 95.9451 458.276C96.3757 460.921 97.4214 462.151 98.0365 462.704C97.2369 465.288 97.7905 467.502 97.7905 467.502C97.7905 467.502 99.6974 471.93 98.2826 476.358C96.2526 482.816 97.2369 486.629 97.5444 487.921C100.19 498.929 129.962 503.788 134.268 486.813C136.359 478.634 130.577 468.363 130.577 468.363C130.577 468.363 133.038 461.474 126.948 457.538C127.994 456.062 128.916 454.217 128.301 452.803C127.071 449.912 126.271 442.962 125.841 439.702C125.41 436.443 129.101 381.46 127.871 371.25C126.64 361.041 124.61 356.059 124.979 350.77C125.41 345.419 126.64 345.05 126.64 341.729C126.64 338.408 124.18 334.349 124.979 326.538C125.656 319.834 126.087 269.156 125.164 248.86C130.208 243.325 123.995 244.739 129.101 234.468C130.331 232.008 126.333 218.109 124.18 206.177C122.027 194.246 121.719 184.221 121.719 184.221C121.719 184.221 131.561 179.854 134.637 178.193C140.788 174.811 142.634 166.508 143.372 163.925C143.926 161.957 143.433 154.761 142.203 150.271C140.973 145.782 137.959 126.408 136.052 119.089C134.022 111.279 132.546 103.345 127.009 98.1785C122.334 93.8118 106.218 89.1991 98.7747 87.231C98.6517 86.6775 98.4671 86.1855 98.1596 85.755L90.4704 75.238C87.8868 79.5432 81.2434 86.862 76.0147 89.0146C74.2923 89.6911 72.6315 89.7527 71.0321 89.7527C70.8476 89.7527 70.6631 89.7527 70.4785 89.7527V255.933H74.1078V286.192C74.4154 286.069 74.846 286.253 74.9075 286.684C76.6914 296.832 81.7355 325.554 82.2891 331.089C83.0273 337.731 81.797 347.572 83.6424 350.032Z" fill="black"/>
</svg>
