<svg width="207" height="102" viewBox="0 0 207 102" fill="none" xmlns="http://www.w3.org/2000/svg">
<path fill-rule="evenodd" clip-rule="evenodd" d="M182.331 102H0.717545C-0.501465 98.5989 -0.155167 94.8352 1.66411 91.7119C3.4834 88.5886 6.5909 86.4229 10.1584 85.7921C5.96136 77.4221 6.02596 67.5576 10.3323 59.243C14.6386 50.9284 22.6691 45.1631 31.9452 43.7265C31.8275 42.4557 31.7546 41.1684 31.7546 39.8648C31.7543 21.5526 44.2712 5.596 62.1001 1.18012C79.9291 -3.23576 98.483 5.02523 107.081 21.2078C107.84 21.1468 108.61 21.107 109.38 21.107C119.473 21.1085 128.797 26.4817 133.835 35.1995C138.873 43.9173 138.857 54.653 133.795 63.3566C139.1 63.6392 143.941 66.461 146.789 70.9312C152.383 58.7283 166.749 53.2365 179.094 58.5817C191.439 63.9268 197.218 78.1407 192.089 90.5448C195.629 89.7953 199.32 90.6334 202.185 92.8371C205.049 95.0408 206.798 98.3876 206.968 101.991L207 102H182.331Z" fill="#41596F"/>
</svg>
