<svg width="361" height="138" viewBox="0 0 361 138" fill="none" xmlns="http://www.w3.org/2000/svg">
<path opacity="0.3" fill-rule="evenodd" clip-rule="evenodd" d="M361 57.5455C352.669 53.1579 343.047 51.8612 333.847 53.8863C333.329 53.9936 332.79 53.8688 332.373 53.5449C331.956 53.2211 331.703 52.7309 331.68 52.2043C329.932 23.5006 306.51 0.867952 277.682 0.0242941C248.854 -0.819365 224.141 20.4047 220.707 48.9567C220.637 49.6071 220.216 50.167 219.609 50.4156C219.002 50.6641 218.307 50.5613 217.799 50.1477C217.308 49.7428 216.805 49.3537 216.295 48.9726C203.258 36.6138 183.372 34.9097 168.411 44.8689C153.449 54.828 147.403 73.7931 153.852 90.5378C153.883 90.6556 153.904 90.776 153.936 90.8938C154.103 91.54 153.895 92.2252 153.397 92.6707C152.898 93.1161 152.193 93.2475 151.567 93.0112C137.836 88.0077 122.561 94.4402 116.585 107.743C117.813 97.4795 113.226 87.3842 104.678 81.5361C96.1302 75.6879 85.0331 75.0531 75.8704 79.8882C66.7077 84.7233 60.9933 94.2294 61.0359 104.566C61.0359 104.75 61.0598 104.928 61.0637 105.112C49.9956 91.8069 29.0764 86.9461 9.45134 101.672L9.05317 102.069C0.536048 113.329 -1.44291 125.003 0.930254 135H361C361 143.771 361 125 361 135V57.5455Z" fill="#647E97"/>
</svg>
