<svg width="1440" height="278" viewBox="0 0 1440 278" fill="none" xmlns="http://www.w3.org/2000/svg">
<path opacity="0.9" fill-rule="evenodd" clip-rule="evenodd" d="M1440 163.768V128.789C1432.38 131.22 1427.2 138.291 1427.2 146.278C1427.2 146.488 1427.22 146.689 1427.23 146.896L1427.15 146.906C1426.88 142.864 1424.81 139.157 1421.5 136.806C1418.19 134.455 1414.01 133.708 1410.09 134.772C1415.57 124.504 1412.56 111.773 1403.05 105.038C1393.55 98.3021 1380.51 99.6577 1372.6 108.204C1373.61 99.3982 1370.79 90.5832 1364.87 83.9786C1358.95 77.374 1350.48 73.6092 1341.6 73.632C1336.99 73.6361 1332.45 74.6637 1328.29 76.6401C1338.32 46.4553 1322.25 13.8167 1292.18 3.29611C1262.1 -7.2245 1229.13 8.25814 1218.08 38.088C1206.98 13.1427 1177.97 1.58366 1152.71 12.0406C1127.44 22.4976 1115.15 51.1537 1125 76.6145C1111.26 65.5506 1092.08 64.1474 1076.87 73.0925C1061.66 82.0377 1053.6 99.4568 1056.64 116.813C1056.16 116.787 1055.69 116.741 1055.2 116.741C1050.32 116.742 1045.53 118.103 1041.38 120.672C1040.25 111.473 1034.34 103.548 1025.85 99.8112C1017.35 96.0746 1007.5 97.0781 999.937 102.453C998.646 77.8315 977.939 58.7154 953.24 59.3424C928.541 59.9694 908.835 80.1113 908.8 104.766C908.799 94.3747 903.602 84.6688 894.947 78.8912C886.291 73.1136 875.318 72.026 865.693 75.9918C869.448 64.3856 866.062 51.6604 857.033 43.4407C848.004 35.2209 834.996 33.0219 823.758 37.8156C812.52 42.6093 805.123 53.5121 804.838 65.7048C798.374 60.4526 789.459 59.3808 781.93 62.9508C774.401 66.5208 769.602 74.0953 769.6 82.4135C769.6 82.645 769.627 82.8701 769.635 83.1C762.01 78.5196 752.845 77.2361 744.252 79.5451C735.658 81.8542 728.378 87.5567 724.089 95.3382C709.292 69.6212 679.02 57.0425 650.305 64.6798C621.59 72.3172 601.607 98.2628 601.6 127.917C601.6 128.328 601.624 128.733 601.63 129.142C586.184 110.71 559.443 106.55 539.107 119.416C518.771 132.281 511.134 158.191 521.251 179.994C506.213 169.809 485.783 173.424 475.171 188.148C474.943 170.247 460.652 155.687 442.721 155.089C424.79 154.492 409.556 168.067 408.131 185.913C392.346 170.641 367.376 170.267 351.138 185.061C334.901 199.854 333.008 224.702 346.816 241.776C337.021 243.676 329.052 250.77 326.047 260.265C320.738 257.499 314.653 256.591 308.767 257.686C308.767 257.534 308.789 257.388 308.789 257.236C308.801 244.148 300.802 232.38 288.611 227.552C276.419 222.725 262.51 225.818 253.527 235.354C263.735 211.756 254.144 184.288 231.45 172.13C208.757 159.972 180.514 167.17 166.443 188.699C161.741 179.796 152.486 174.221 142.4 174.219C141.989 174.219 141.591 174.262 141.184 174.28C143.554 166.661 142.444 158.387 138.151 151.657C133.857 144.928 126.814 140.424 118.893 139.343C113.834 138.65 108.682 139.399 104.032 141.505C108.564 126.912 103.124 111.07 90.5761 102.318C78.0283 93.5654 61.2503 93.9097 49.0738 103.17C49.4226 100.79 49.5986 98.3893 49.6002 95.9848C49.6002 82.8578 44.3745 70.2684 35.0727 60.9863C25.7709 51.7041 13.155 46.4894 0.000219975 46.4894V258.841C0.000219975 269.422 0.000515819 270 0 278H1440C1440 258.841 1440 269.422 1440 258.841V163.768Z" fill="#EFF3F7"/>
</svg>
