<svg width="136" height="102" viewBox="0 0 136 102" fill="none" xmlns="http://www.w3.org/2000/svg">
<path fill-rule="evenodd" clip-rule="evenodd" d="M-46.3305 102H135.282C136.501 98.5989 136.155 94.8352 134.336 91.7119C132.517 88.5886 129.409 86.4229 125.842 85.7921C130.039 77.4221 129.974 67.5576 125.668 59.243C121.361 50.9284 113.331 45.1631 104.055 43.7265C104.172 42.4557 104.245 41.1684 104.245 39.8648C104.246 21.5526 91.7288 5.596 73.8999 1.18012C56.0709 -3.23576 37.517 5.02523 28.9186 21.2078C28.16 21.1468 27.3896 21.107 26.6204 21.107C16.5274 21.1085 7.20309 26.4817 2.1652 35.1995C-2.87269 43.9173 -2.85748 54.653 2.20504 63.3566C-3.10003 63.6392 -7.94071 66.461 -10.7889 70.9312C-16.3827 58.7283 -30.7486 53.2365 -43.0938 58.5817C-55.4391 63.9268 -61.218 78.1407 -56.0889 90.5448C-59.6286 89.7953 -63.3198 90.6334 -66.1846 92.8371C-69.0493 95.0408 -70.7984 98.3876 -70.9682 101.991L-71 102H-46.3305Z" fill="white"/>
</svg>
