<svg width="526" height="244" viewBox="0 0 526 244" fill="none" xmlns="http://www.w3.org/2000/svg">
<path fill-rule="evenodd" clip-rule="evenodd" d="M436.779 232.194C436.678 232.061 436.56 231.943 436.427 231.842C419.076 218.791 400.574 223.098 390.787 234.885C390.787 234.722 390.812 234.563 390.812 234.4C390.847 225.245 385.792 216.826 377.69 212.544C369.588 208.263 359.777 208.827 352.22 214.008C344.662 219.188 340.608 228.131 341.693 237.222C336.409 225.438 322.903 219.739 310.761 224.172C310.677 224.198 310.59 224.217 310.502 224.228C313.883 213.49 312.096 201.794 305.662 192.553L371.913 138.108L346.445 101.783L241.612 163.606C229.844 146.065 208.186 137.976 187.783 143.502C167.381 149.028 152.78 166.938 151.496 188.016C151.476 188.482 151.252 188.916 150.883 189.203C150.514 189.49 150.038 189.601 149.58 189.506C139.863 187.364 129.693 189.43 121.586 195.194C113.479 200.958 108.193 209.88 107.037 219.752C106.976 220.311 106.625 220.796 106.113 221.029L102.835 222.496C102.175 222.785 101.403 222.599 100.945 222.043C92.9016 212.479 78.9426 210.49 68.5431 217.427C59.887 201.093 40.3369 193.849 23.111 200.594C5.88507 207.339 -3.53004 225.923 1.2314 243.783H443C441.564 239.611 439.463 235.697 436.779 232.194Z" fill="white"/>
<path fill-rule="evenodd" clip-rule="evenodd" d="M372.474 138.937C369.202 157.296 351.667 169.526 333.308 166.254L300.066 160.33L305.991 127.089C309.263 108.73 326.798 96.4994 345.157 99.7711C363.515 103.043 375.746 120.578 372.474 138.937Z" fill="#F57749"/>
<g opacity="0.4">
<path opacity="0.4" fill-rule="evenodd" clip-rule="evenodd" d="M365.434 134.873C364.348 140.996 360.885 146.435 355.808 149.993C350.731 153.552 344.455 154.938 338.361 153.846L315.383 149.736L319.478 126.65C320.564 120.527 324.026 115.088 329.103 111.53C334.181 107.972 340.457 106.586 346.551 107.677C352.645 108.768 358.059 112.247 361.6 117.348C365.141 122.449 366.521 128.755 365.435 134.878L365.434 134.873Z" fill="#FFF01C"/>
</g>
<path fill-rule="evenodd" clip-rule="evenodd" d="M406.924 55.0233C406.924 55.0233 385.145 64.4027 343.496 63.7133L297.338 95.908C297.338 95.908 333.01 84.7489 357.692 120.137L420.768 76.1363L406.924 55.0233Z" fill="#ADC2D5"/>
<path fill-rule="evenodd" clip-rule="evenodd" d="M435.813 96.4216C435.813 96.4216 419.492 113.621 405.749 152.932L359.591 185.127C359.591 185.127 382.385 155.505 357.701 120.119L420.777 76.1176L435.813 96.4216Z" fill="#ADC2D5"/>
<path fill-rule="evenodd" clip-rule="evenodd" d="M525.569 11.4936C526.408 8.90412 525.987 6.07087 524.43 3.83772C522.874 1.60457 520.361 0.229166 517.641 0.121136C501.304 -0.53073 469.619 0.89728 444.543 18.3875C409.157 43.0693 357.699 120.13 357.699 120.13C357.699 120.13 447.79 98.4592 483.179 73.775C508.246 56.2919 520.539 27.0493 525.569 11.4936Z" fill="#D1E2F1"/>
<path fill-rule="evenodd" clip-rule="evenodd" d="M345.359 53.2647C346.498 54.8969 346.942 56.9147 346.592 58.874C346.243 60.8333 345.13 62.5736 343.498 63.7121L297.341 95.9068C296.932 96.1912 296.427 96.3016 295.937 96.2136C295.447 96.1257 295.012 95.8466 294.728 95.4378L288.289 86.2097C288.005 85.8012 287.895 85.2964 287.983 84.8064C288.071 84.3165 288.35 83.8816 288.758 83.5976L334.915 51.4029C336.548 50.2642 338.566 49.8207 340.525 50.1699C342.484 50.519 344.224 51.6323 345.363 53.2647H345.359Z" fill="#ADC2D5"/>
<path fill-rule="evenodd" clip-rule="evenodd" d="M416.188 154.813C417.326 156.445 417.77 158.463 417.421 160.422C417.071 162.381 415.958 164.122 414.326 165.26L368.169 197.455C367.76 197.739 367.255 197.85 366.765 197.762C366.275 197.674 365.841 197.395 365.557 196.986L359.118 187.754C358.833 187.346 358.723 186.841 358.811 186.351C358.899 185.861 359.178 185.426 359.587 185.142L405.744 152.947C407.376 151.809 409.394 151.365 411.353 151.714C413.312 152.064 415.053 153.177 416.191 154.809L416.188 154.813Z" fill="#ADC2D5"/>
<path fill-rule="evenodd" clip-rule="evenodd" d="M380.781 103.893C383.15 107.292 382.317 111.967 378.92 114.338L332.773 146.528C331.923 147.12 330.754 146.91 330.162 146.06L323.725 136.83C323.133 135.98 323.343 134.811 324.194 134.219L370.34 102.029C373.738 99.6595 378.414 100.492 380.785 103.89L380.781 103.893Z" fill="#ADC2D5"/>
<path d="M473.983 57.3282C480.781 52.5866 482.448 43.2321 477.706 36.4342C472.965 29.6364 463.61 27.9694 456.813 32.7109C450.015 37.4525 448.348 46.807 453.089 53.6049C457.831 60.4027 467.185 62.0697 473.983 57.3282Z" fill="#2A3D50"/>
<path d="M480.786 34.2832C476.446 28.06 468.784 25.0642 461.374 26.6927C453.963 28.3212 448.264 34.2534 446.932 41.723C445.601 49.1925 448.901 56.7285 455.292 60.8168C461.684 64.9051 469.909 64.7406 476.132 60.4C484.629 54.4733 486.713 42.7805 480.786 34.2832ZM453.091 53.6C448.35 46.802 450.018 37.4478 456.815 32.7065C463.613 27.9652 472.967 29.6322 477.709 36.4299C482.45 43.2276 480.784 52.5819 473.986 57.3236C470.722 59.6008 466.686 60.4879 462.768 59.7896C458.849 59.0912 455.368 56.8648 453.091 53.6Z" fill="#ADC2D5"/>
<path fill-rule="evenodd" clip-rule="evenodd" d="M517.647 0.125832C506.319 -0.336126 494.975 0.483516 483.83 2.56916L511.602 42.3846C517.41 32.6461 522.098 22.2826 525.578 11.4913C526.415 8.90229 525.992 6.07079 524.435 3.83936C522.878 1.60794 520.366 0.23379 517.647 0.125832Z" fill="#ADC2D5"/>
<path opacity="0.1" fill-rule="evenodd" clip-rule="evenodd" d="M333.309 166.258C347.635 168.804 361.98 161.886 368.908 149.091C370.105 161.829 366.807 174.584 359.585 185.146C358.735 185.737 358.525 186.906 359.116 187.757L365.555 196.988C366.147 197.839 367.316 198.049 368.166 197.457L414.324 165.263C416.566 163.764 417.832 161.178 417.64 158.489C417.447 155.799 415.827 153.419 413.394 152.255C410.962 151.091 408.092 151.322 405.877 152.86L405.74 152.956C419.37 113.959 435.519 96.7287 435.791 96.445C454.065 89.6449 471.562 81.8811 483.171 73.7821C508.247 56.2919 520.534 27.0493 525.564 11.4936C526.409 8.90565 525.986 6.07089 524.422 3.84241L300.068 160.335L333.309 166.258Z" fill="black"/>
</svg>
